<?xml version="1.0" encoding="UTF-8" standalone="no"?>
<!-- Created with Inkscape (http://www.inkscape.org/) -->

<svg
   xmlns:dc="http://purl.org/dc/elements/1.1/"
   xmlns:cc="http://creativecommons.org/ns#"
   xmlns:rdf="http://www.w3.org/1999/02/22-rdf-syntax-ns#"
   xmlns:svg="http://www.w3.org/2000/svg"
   xmlns="http://www.w3.org/2000/svg"
   xmlns:sodipodi="http://sodipodi.sourceforge.net/DTD/sodipodi-0.dtd"
   xmlns:inkscape="http://www.inkscape.org/namespaces/inkscape"
   id="svg8017"
   version="1.1"
   inkscape:version="0.91 r13725"
   width="10000"
   height="4062.5"
   viewBox="0 0 10000 4062.5"
   sodipodi:docname="surfboard circle logo horizontal.svg">
  <metadata
     id="metadata8023">
    <rdf:RDF>
      <cc:Work
         rdf:about="">
        <dc:format>image/svg+xml</dc:format>
        <dc:type
           rdf:resource="http://purl.org/dc/dcmitype/StillImage" />
        <dc:title></dc:title>
      </cc:Work>
    </rdf:RDF>
  </metadata>
  <defs
     id="defs8021" />
  <sodipodi:namedview
     pagecolor="#ffffff"
     bordercolor="#666666"
     borderopacity="1"
     objecttolerance="10"
     gridtolerance="10"
     guidetolerance="10"
     inkscape:pageopacity="0"
     inkscape:pageshadow="2"
     inkscape:window-width="2560"
     inkscape:window-height="1371"
     id="namedview8019"
     showgrid="false"
     inkscape:zoom="0.028284271"
     inkscape:cx="22512.064"
     inkscape:cy="8933.7552"
     inkscape:window-x="0"
     inkscape:window-y="27"
     inkscape:window-maximized="1"
     inkscape:current-layer="svg8017" />
  <g
     id="g8567">
    <path
       style="fill:#fdcb00"
       d="m 1783.125,3974.2602 c -2.0625,-0.1868 -14.7187,-0.9707 -28.125,-1.7419 -129.9209,-7.4742 -256.9341,-28.1853 -380.625,-62.0658 -289.3122,-79.2462 -551.52811,-224.9687 -770,-427.9158 C 566.45783,3447.3141 507.49801,3386.6989 473.02601,3347.5 368.02469,3228.1006 275.12221,3088.707 204.76945,2945 117.97059,2767.6991 61.909631,2585.6595 34.428979,2391.875 c -8.692365,-61.2956 -11.265707,-87.4255 -16.391423,-166.4394 -1.662652,-25.6301 -1.92478,-45.7246 -1.418615,-108.75 0.59984,-74.6891 1.017808,-84.898 5.83071,-142.4153 C 26.019986,1931.6024 32.93485,1875.0338 39.473826,1835 75.134485,1616.6739 149.05254,1408.4318 259.77225,1214.375 373.10691,1015.735 526.54467,836.15912 706.25,691.83975 c 200.7644,-161.23168 439.7363,-280.85843 692.5,-346.65801 32.1289,-8.3638 101.7641,-23.73791 125,-27.59756 3.7813,-0.62809 13.625,-2.35099 21.875,-3.82867 59.1505,-10.59455 108.8419,-16.38968 200.625,-23.39742 36.4553,-2.78339 182.8151,-3.17348 218.125,-0.58135 75.4836,5.54131 82.6236,6.22456 134.375,12.85869 29.5924,3.79351 79.4545,11.62228 103.75,16.28961 41.7649,8.02332 114.4196,24.52412 133.75,30.37627 3.0938,0.93662 12.0938,3.48964 20,5.67338 89.5521,24.73474 174.1545,55.60356 272.5,99.42698 59.9011,26.69237 145.1001,72.67472 208.125,112.32614 150.3524,94.59259 280.9511,204.53533 397.9509,335.00934 177.5676,198.01715 313.0995,439.16595 389.983,693.88785 24.8686,82.392 46.5992,176.9823 57.003,248.125 0.4524,3.0938 1.8785,12.6563 3.1691,21.25 4.8864,32.5374 9.9793,77.4373 13.0441,115 4.7395,58.0856 5.0999,68.7745 5.0999,151.25 0,82.4755 -0.3604,93.1644 -5.0999,151.25 -11.9771,146.789 -42.986,299.0269 -87.8456,431.2779 -61.7595,182.0734 -141.6262,338.6176 -251.2526,492.4721 -126.6186,177.702 -290.761,336.2212 -475.8019,459.5018 -101.1851,67.4128 -202.0459,121.5437 -313.125,168.0503 -176.1072,73.7327 -374.4275,121.7234 -560,135.5123 -71.2109,5.2912 -82.2371,5.6869 -152.8965,5.4856 -38.6256,-0.11 -71.916,-0.353 -73.9785,-0.5397 z m 173.75,-74.8481 c 98.8278,-6.3591 166.0268,-14.7577 246.25,-30.7765 232.3619,-46.3977 445.0595,-134.3524 640.795,-264.9811 149.458,-99.7444 284.0814,-222.9939 397.2139,-363.6545 109.914,-136.6589 198.3907,-288.8676 264.9591,-455.8157 71.4236,-179.1248 112.1237,-366.795 122.8971,-566.6843 1.9953,-37.0217 1.9872,-136.8951 -0.014,-173.125 -11.3593,-205.6397 -53.3143,-394.5066 -129.3967,-582.5 -5.4927,-13.5719 -16.6878,-39.5082 -29.6753,-68.75 -9.8109,-22.0895 -46.2308,-94.007 -61.0859,-120.625 C 3346.5394,1160.9067 3273.4479,1057.0558 3191.0986,963.15647 3138.7924,903.51403 3070.819,836.37791 3011.875,786.14032 2799.4066,605.05502 2554.9464,479.16864 2286.25,412.47504 c -76.1497,-18.90129 -164.0118,-34.36876 -237.5,-41.81022 -10.6562,-1.07905 -20.7812,-2.22239 -22.5,-2.54077 -6.2764,-1.1626 -79.1227,-5.57084 -115.625,-6.99695 -85.4236,-3.33743 -199.3957,2.81529 -293.75,15.85791 -77.8689,10.76384 -163.8876,28.73529 -236.875,49.48898 -259.3631,73.74902 -498.01923,204.1579 -696.03686,380.3355 -30.07105,26.75441 -37.24201,33.61183 -79.15135,75.69051 -119.88018,120.3645 -216.46338,249.5248 -298.17658,398.75 -107.58757,196.4773 -178.07055,415.18 -204.04184,633.125 -14.605449,122.5654 -17.137758,220.0089 -8.884467,341.875 1.373532,20.2813 2.770721,38.5625 3.104863,40.625 0.334144,2.0625 1.496329,12.4688 2.582635,23.125 8.582259,84.1888 26.714689,182.3583 48.946859,265 1.75703,6.5313 3.61908,13.5625 4.13789,15.625 15.35219,61.0321 49.67609,158.7271 81.68589,232.5 15.79142,36.3945 19.96475,45.3771 38.91003,83.75 73.43715,148.7439 162.98807,280.3696 275.46758,404.8941 25.78912,28.5509 97.86567,100.2504 125.83035,125.1723 128.31545,114.3535 251.61513,197.9597 400,271.2291 39.5653,19.5365 47.8175,23.3545 87.9183,40.6765 45.6742,19.7295 94.1187,38.0568 143.9567,54.4609 18.2054,5.9922 63.976,20.0077 72.5,22.2003 1.7188,0.442 5.9375,1.5862 9.375,2.5425 122.7686,34.153 260.1656,56.2259 385.625,61.9507 16.1563,0.7372 33.5938,1.533 38.75,1.7683 20.8444,0.9517 117.4678,-0.6262 144.375,-2.3576 z M 1084.2425,3381.25 c 0.3577,-1.7187 4.8148,-17.75 9.9048,-35.625 9.4061,-33.0329 17.9944,-63.2942 43.9894,-155 7.9901,-28.1875 19.8717,-70.0937 26.4036,-93.125 6.5319,-23.0312 16.9011,-59.5937 23.0427,-81.25 21.4022,-75.4674 31.123,-109.7357 46.6278,-164.375 8.5839,-30.25 19.9064,-70.1875 25.1612,-88.75 5.2548,-18.5625 16.0212,-56.5312 23.9256,-84.375 7.9044,-27.8437 18.5934,-65.5312 23.7534,-83.75 11.6833,-41.251 28.4544,-100.3756 47.1581,-166.25 28.5094,-100.4102 40.6078,-143.1864 41.4509,-146.5576 l 0.8586,-3.4327 -154.9267,-0.3173 -154.9267,-0.3174 7.7894,-25.625 c 4.2842,-14.0937 14.542,-47.8437 22.7951,-75 8.2531,-27.1562 22.7079,-74.6875 32.1218,-105.625 21.5744,-70.901 42.7545,-140.5646 62.707,-206.25 22.2037,-73.096 42.8675,-141.0667 60.4221,-198.75 8.369,-27.5 22.1356,-72.7812 30.5924,-100.625 8.4567,-27.8437 22.8239,-75.0937 31.9269,-105 9.103,-29.9062 18.235,-60 20.2931,-66.875 2.0583,-6.875 4.2167,-13.0151 4.7969,-13.6447 1.0231,-1.1106 35.3795,-0.633 263.6401,3.6646 52.5938,0.9902 129.0938,2.4271 170,3.193 40.9063,0.7659 74.5426,1.5551 74.7475,1.754 0.3476,0.3374 -10.8424,25.7957 -42.5952,96.9081 -7.214,16.1563 -22.3947,50.1875 -33.7347,75.625 -24.14,54.1496 -50.2125,112.5639 -75.5987,169.375 -9.9844,22.3438 -21.3819,47.9375 -25.3278,56.875 -3.946,8.9375 -12.8286,28.9063 -19.7392,44.375 -48.9626,109.5981 -68.7684,154.4003 -68.413,154.7555 0.2255,0.2255 13.2634,0.9214 28.973,1.5465 15.7097,0.625 41.7819,1.7153 57.9381,2.4229 16.1563,0.7075 42.875,1.853 59.375,2.5455 16.5,0.6925 49.9688,2.0971 74.375,3.1212 24.4063,1.0242 54.9219,2.2314 67.8125,2.6829 12.8906,0.4515 23.4375,1.2608 23.4375,1.7981 0,0.5375 -6.5494,11.8392 -14.5541,25.1148 -43.4478,72.0569 -203.0506,337.3699 -275.4489,457.8876 -45.8429,76.3125 -124.3092,206.8125 -174.3697,290 -50.0604,83.1875 -131.0662,217.9063 -180.0128,299.375 -84.1775,140.1084 -182.3203,303.173 -185.5468,308.2866 -1.326,2.1015 -1.4096,2.0218 -0.8252,-0.7866 z m 760.8472,-31.4563 c -6.3405,-1.8208 -19.4091,-15.7044 -30.3982,-32.2937 -37.9047,-57.221 -68.6764,-155.1819 -92.7943,-295.4089 -4.8079,-27.9548 -13.2456,-86.1532 -16.1603,-111.4661 -6.1352,-53.2796 -8.7948,-79.4932 -10.7165,-105.625 -0.7332,-9.9687 -1.6075,-20.375 -1.9429,-23.125 -0.6399,-5.246 -3.8771,-47.8647 -4.9371,-65 -0.3403,-5.5 -1.2022,-19 -1.9151,-30 -0.7132,-11 -1.797,-34.0314 -2.4089,-51.1809 l -1.1123,-31.1807 77.8257,-129.4443 c 42.8041,-71.1942 92.9082,-154.4753 111.3425,-185.0691 18.4342,-30.5937 78.9775,-131.2812 134.5406,-223.75 l 101.024,-168.125 -6.531,-0.8715 c -3.592,-0.4792 -29.3121,-1.7609 -57.1559,-2.848 -27.8437,-1.0871 -70.0312,-2.7967 -93.75,-3.7991 -85.8476,-3.6281 -134.805,-5.6411 -156.6559,-6.4415 -19.5645,-0.7166 -22.2048,-1.0584 -21.6582,-2.803 0.3423,-1.0928 7.1983,-16.6119 15.2356,-34.4869 8.0372,-17.875 22.6394,-50.5 32.4492,-72.5 19.4738,-43.6724 62.2023,-139.4691 82.5163,-185 7.055,-15.8125 22.1055,-49.5625 33.4456,-75 11.3401,-25.4375 31.0303,-69.5937 43.7556,-98.125 12.7255,-28.5312 31.3553,-70.3126 41.3995,-92.8476 10.0443,-22.5349 18.2623,-41.5193 18.2623,-42.1875 0,-0.7375 -7.9808,-1.2064 -20.3125,-1.1934 -20.8798,0.023 -168.8154,-2.704 -169.3746,-3.1211 -0.529,-0.3948 9.0392,-26.5663 16.923,-46.2885 46.3213,-115.88 98.591,-206.5903 159.4255,-276.67225 18.499,-21.31102 30.9348,-33.91182 38.6156,-39.12771 7.2144,-4.89921 7.3076,-4.92301 14.2547,-3.63874 3.8462,0.71099 8.7644,2.38745 10.9293,3.72546 4.2715,2.63994 27.3871,26.78845 42.7016,44.60969 78.6325,91.50365 149.8851,235.28465 202.4955,408.61665 18.0099,59.336 36.2845,128.8446 48.6388,185 3.1762,14.4375 6.2883,28.5 6.9157,31.25 2.726,11.9491 13.2505,66.0985 18.2214,93.75 13.5932,75.616 28.0695,175.9053 34.9132,241.875 1.7474,16.8438 3.7262,35.4063 4.3972,41.25 3.4436,29.9896 6.4632,61.3995 8.7121,90.625 1.3755,17.875 2.782,34.75 3.1256,37.5 0.802,6.419 5.0815,76.0236 7.4549,121.25 4.0801,77.7526 5.088,124.3003 5.088,235 0,134.5973 -1.9295,193.1561 -10.0293,304.375 -5.3998,74.1464 -6.6828,87.1375 -17.4685,176.875 -14.7805,122.9761 -40.2668,239.0731 -69.0135,314.375 -20.9356,54.8409 -51.9453,104.0053 -68.4986,108.6008 -6.5727,1.8246 -455.4164,1.7693 -461.7754,-0.058 z m 2226.1178,13.6438 c -3.6715,-1.8531 -6.5263,-4.518 -8.3693,-7.8125 l -2.7971,-5 0,-572.5 0,-572.5 2.7971,-5 c 1.8452,-3.2985 4.7095,-5.9702 8.4169,-7.8511 l 5.6199,-2.8511 152.5,0.4551 c 169.9664,0.5072 159.1035,-0.019 194.4769,9.4271 97.7407,26.1018 175.7338,104.482 201.318,202.3174 10.4112,39.8136 11.5472,88.5994 3.0067,129.1276 -15.6619,74.3225 -63.2574,141.2354 -129.1809,181.6113 l -10.3793,6.3569 12.2543,2.7649 c 108.1515,24.4019 198.8123,106.1679 235.2253,212.1474 12.1587,35.388 16.902,64.9696 16.8752,105.2445 -0.028,41.1721 -4.1241,66.5621 -17.0377,105.5932 -11.2478,33.9959 -32.3781,72.5413 -55.5135,101.2663 -47.9933,59.5884 -119.4259,101.6042 -195.42,114.9437 -27.634,4.8508 -37.3498,5.0697 -225.0476,5.0708 l -183.1727,0 -5.5722,-2.8125 z m 387.2792,-41.0098 c 84.032,-9.1534 158.4518,-55.2046 205.3404,-127.0651 37.1039,-56.8646 52.7293,-128.6535 42.9019,-197.1067 -16.4651,-114.6885 -102.2146,-208.3219 -214.7259,-234.4681 -30.4477,-7.0757 -21.4732,-6.7724 -213.5656,-7.217 l -177.1875,-0.4102 0,283.7948 0,283.7946 172.5492,0 c 112.831,0 176.7503,-0.4576 184.6875,-1.3223 z m -91.2627,-612.4501 c 85.924,-6.5546 159.0087,-55.1296 197.1707,-131.0471 46.341,-92.1885 28.559,-200.7732 -44.9105,-274.2427 -31.961,-31.961 -70.2229,-53.6654 -114.3025,-64.8388 -28.6598,-7.2647 -30.6484,-7.349 -173.3707,-7.349 l -130.561,0 0,238.5416 c 0,131.198 0.375,238.9168 0.8334,239.375 1.365,1.365 246.8201,0.9587 265.1406,-0.439 z m 878.401,654.5007 c -4.6584,-2.0793 -10.0389,-7.7228 -11.7955,-12.3722 -0.9322,-2.4675 -1.3295,-174.0001 -1.3295,-574.1026 0,-476.3986 0.2787,-571.251 1.6887,-574.6256 2.287,-5.4735 9.789,-11.8229 15.1595,-12.8304 9.5943,-1.7999 19.1534,3.061 22.6968,11.5415 1.4314,3.4259 1.705,93.7515 1.705,562.8585 l 0,558.7778 307.1875,0.3248 c 288.827,0.3055 307.4244,0.4545 311.1515,2.4935 14.0026,7.6608 13.5401,29.2505 -0.789,36.828 l -5.4433,2.8784 -318.2408,-0.049 c -263.1028,-0.04 -318.8907,-0.339 -321.9909,-1.7228 z m 1130.5774,-1.0408 c -4.0745,-2.0546 -6.3353,-4.3154 -8.3899,-8.3899 l -2.8125,-5.5773 0,-571.3453 0,-571.3452 2.8125,-5.5774 c 7.0515,-13.9836 26.8514,-14.8315 35.959,-1.5399 l 3.1035,4.5294 0,573.9331 0,573.9331 -3.1035,4.5294 c -6.4387,9.3968 -17.211,12.0733 -27.5691,6.85 z m 996.9226,1.0408 c -4.6584,-2.0793 -10.0389,-7.7228 -11.7955,-12.3722 C 7360.3974,3349.639 7360,3181.786 7360,2790.5436 l 0,-558.0436 -194.6875,-0.012 c -138.188,0 -196.1304,-0.4075 -199.6594,-1.3872 -6.6497,-1.8462 -13.9453,-9.2695 -15.0861,-15.3507 -1.7669,-9.418 3.5086,-19.3193 12.4597,-23.3847 4.9295,-2.2389 18.7799,-2.3164 418.5759,-2.3429 452.164,-0.03 418.2738,-0.617 424.9854,7.3594 8.8724,10.5442 6.3711,26.492 -5.0452,32.1675 -4.4793,2.2269 -12.6074,2.3339 -201.2303,2.6484 l -196.5625,0.3277 0,558.49 0,558.49 -3.6082,5.6896 c -5.9575,9.394 -17.7129,13.431 -27.0168,9.2782 z m 889.3756,0.3673 c -9.532,-3.8008 -15.1069,-15.5956 -12.5625,-26.5782 0.6762,-2.9185 3.1045,-6.9105 6.0833,-10 4.4469,-4.6124 795.2286,-1089.8975 795.2286,-1091.3883 0,-0.3396 -177.3719,-0.7607 -394.1599,-0.9357 l -394.1597,-0.3184 -4.5734,-3.4882 c -2.5154,-1.9187 -5.2315,-4.7179 -6.0357,-6.2207 -6.1492,-11.4897 -1.7537,-25.9552 9.4301,-31.0343 4.9633,-2.254 18.155,-2.3278 421.7262,-2.3543 347.1182,-0.023 417.2768,0.2541 420.6445,1.6613 5.4767,2.2883 11.823,9.79 12.8319,15.1678 1.405,7.4892 -0.4331,15.1803 -4.6314,19.3785 -2.0796,2.0797 -182.9225,249.168 -401.873,549.0855 l -398.0919,545.3044 395.3837,0.625 395.3836,0.625 4.3708,2.5676 c 14.0294,8.2415 13.3398,29.1544 -1.2033,36.4949 l -5.5723,2.8125 -417.5476,-0.079 c -274.3275,-0.052 -418.6192,-0.5065 -420.672,-1.3252 z M 4071.2075,1850.9375 c -3.6715,-1.8531 -6.5263,-4.518 -8.3693,-7.8125 l -2.7971,-5 0,-572.5 0,-572.5 2.7971,-5 c 1.8452,-3.29845 4.7095,-5.97026 8.4169,-7.85111 l 5.6199,-2.85113 152.5,0.45514 c 169.9664,0.50725 159.1035,-0.0194 194.4769,9.42716 97.7407,26.10168 175.7338,104.48189 201.318,202.31735 10.4112,39.81357 11.5472,88.59932 3.0067,129.12759 -15.6619,74.3225 -63.2574,141.2354 -129.1809,181.6113 l -10.3793,6.3569 12.2543,2.7649 c 108.1515,24.4019 198.8123,106.1679 235.2253,212.1474 12.1587,35.388 16.902,64.9696 16.8752,105.2445 -0.028,41.1721 -4.1241,66.5621 -17.0377,105.5932 -11.2478,33.9959 -32.3781,72.5413 -55.5135,101.2663 -47.9933,59.5884 -119.4259,101.6042 -195.42,114.9438 -27.634,4.8507 -37.3498,5.0696 -225.0476,5.0707 l -183.1727,10e-4 -5.5722,-2.8125 z m 387.2792,-41.0098 c 84.032,-9.1534 158.4518,-55.2046 205.3404,-127.0651 37.1039,-56.8646 52.7293,-128.6535 42.9019,-197.1067 -16.4651,-114.6885 -102.2146,-208.3219 -214.7259,-234.4681 -30.4477,-7.0757 -21.4732,-6.7724 -213.5656,-7.217 l -177.1875,-0.4101 0,283.7947 0,283.7946 172.5492,0 c 112.831,0 176.7503,-0.4576 184.6875,-1.3223 z m -91.2627,-612.45 c 85.924,-6.5547 159.0087,-55.1297 197.1707,-131.0472 46.341,-92.18851 28.559,-200.77329 -44.9105,-274.24274 -31.961,-31.96106 -70.2229,-53.66539 -114.3025,-64.83874 C 4376.5219,720.0843 4374.5333,720 4231.811,720 l -130.561,0 0,238.54166 c 0,131.19794 0.375,238.91664 0.8334,239.37504 1.365,1.365 246.8201,0.9586 265.1406,-0.439 z m 700.0926,653.7574 c -2.9771,-1.5755 -5.4704,-4.2962 -7.1875,-7.8433 l -2.6291,-5.431 0,-572.3082 0,-572.30795 3.1074,-5.30226 c 2.0747,-3.54045 4.9106,-6.17525 8.5345,-7.92955 l 5.4272,-2.62729 318.2489,0.31972 318.2487,0.31973 3.4519,2.57724 c 6.3146,4.71465 8.4576,8.80553 8.97,17.12372 0.4068,6.604 0.033,8.4518 -2.4416,12.0591 -1.6071,2.34304 -4.5101,5.43679 -6.4511,6.875 l -3.529,2.61494 -306.1585,0.3249 -306.1584,0.3249 0,261.8626 0,261.8626 268.1651,0 c 224.9268,0 268.8138,0.2775 272.1875,1.721 15.5265,6.6434 17.1049,26.983 2.9162,37.5767 l -3.4519,2.5773 -269.9084,0.3237 -269.9085,0.3238 0,262.4764 0,262.4763 306.1584,0.3249 306.1585,0.3249 3.529,2.6149 c 1.941,1.4382 4.844,4.532 6.4511,6.875 2.4743,3.6073 2.8484,5.4551 2.4416,12.0591 -0.5123,8.3182 -2.6553,12.4091 -8.97,17.1237 l -3.4518,2.5773 -319.5959,0.2612 c -313.5819,0.2564 -319.6816,0.2159 -324.1543,-2.1511 z m 2519.5584,1.1913 c -132.6094,-10.1216 -258.6848,-61.5915 -357.5,-145.9483 -18.2096,-15.5452 -49.9779,-47.1582 -66.1764,-65.8531 -156.0627,-180.1134 -188.5321,-432.9343 -82.7186,-644.08486 46.0552,-91.903 118.0294,-173.14803 204.52,-230.86381 86.736,-57.87952 178.3063,-90.42434 287.5,-102.17989 22.7833,-2.45279 92.4291,-2.05103 117.5,0.67782 111.8455,12.17384 213.3614,50.18189 301.875,113.02353 17.8479,12.67136 22.5491,16.88492 25.7345,23.06491 2.7409,5.31742 3.0579,13.99912 0.6685,18.30795 -2.296,4.14044 -11.1974,9.81927 -16.9021,10.78307 -6.3625,1.07495 -11.4655,-1.16277 -23.5413,-10.3232 -65.2288,-49.48145 -145.7865,-85.28991 -229.7096,-102.10776 -132.3286,-26.5181 -268.5119,-7.77712 -385,52.98211 -142.6279,74.3935 -246.237,204.1381 -284.3998,356.13963 -11.145,44.3908 -15.4083,80.202 -15.4267,129.5805 -0.014,38.8941 1.5347,58.4243 7.3671,92.8747 12.6119,74.4958 42.5271,148.5997 85.8859,212.7503 54.6067,80.7922 130.3096,146.4392 219.0735,189.9734 61.6237,30.2232 122.9575,47.829 194.6252,55.8667 24.1718,2.711 89.0234,3.0546 112.2498,0.5948 78.0621,-8.2675 140.0149,-25.5624 204.375,-57.054 25.9525,-12.6987 55.8075,-30.5525 77.5,-46.3464 23.8547,-17.3681 31.5374,-20.462 41.4811,-16.705 7.3051,2.7601 14.1685,11.6556 14.1164,18.2959 -0.044,5.6698 -4.2425,13.3048 -10.0476,18.274 -5.9032,5.0527 -36.56,26.063 -50.5499,34.6433 -82.7731,50.7675 -171.7215,81.2372 -268.125,91.8476 -21.6288,2.3804 -82.8595,3.4283 -104.375,1.7861 z m 790.5825,-1.4889 c -3.6715,-1.8531 -6.5262,-4.518 -8.3692,-7.8125 l -2.7972,-5 0,-572.5 0,-572.5 2.7972,-5 c 3.2238,-5.76301 11.5493,-10.625 18.1938,-10.625 6.0908,0 13.7149,4.74819 17.2155,10.72139 l 3.0024,5.12326 0,275.20267 0,275.20268 334.375,0 334.375,0 0.095,-274.0625 c 0.071,-206.59263 0.4564,-274.99667 1.5625,-277.85711 4.8113,-12.44166 16.9824,-17.62721 28.0796,-11.9634 5.7285,2.92366 8.3592,5.76323 10.8402,11.70111 1.7206,4.11818 1.9226,64.42678 1.9226,574.0569 0,509.6301 -0.202,569.9388 -1.9226,574.0569 -2.481,5.9378 -5.1117,8.7775 -10.8402,11.7011 -11.0972,5.6639 -23.2683,0.4782 -28.0796,-11.9634 -1.1062,-2.8605 -1.4909,-71.4111 -1.5625,-278.4821 l -0.095,-274.6875 -334.375,0 -334.375,0 0,275.7673 0,275.7673 -2.7991,4.9803 c -3.329,5.9231 -11.3278,10.9851 -17.3584,10.9851 -2.372,0 -6.8202,-1.2656 -9.885,-2.8125 z M 5987.5,1848.7185 c -8.0531,-1.8879 -14.9955,-13.9525 -13.0709,-22.7151 1.0991,-5.004 425.0028,-1135.70991 427.2957,-1139.7534 6.7327,-11.87335 27.2506,-11.74032 37.7738,0.24491 3.1157,3.5486 44.1968,112.01844 214.8869,567.38369 116.0691,309.648 211.8156,565.6316 212.7698,568.8524 2.359,7.9619 0.4938,14.6199 -5.8812,20.9949 -9.0563,9.0564 -22.353,7.477 -31.4153,-3.7315 -2.4877,-3.0768 -19.4827,-46.8966 -57.4464,-148.1194 -29.6524,-79.0625 -55.0224,-146.7031 -56.3778,-150.3125 l -2.4642,-6.5625 -293.9726,0.021 -293.9728,0.021 -57.2915,152.9691 c -44.8116,119.6475 -58.0176,153.6619 -60.625,156.1489 -5.7675,5.5014 -11.0751,6.6983 -20.2085,4.5573 z m 708.75,-358.1745 c 0,-1.3044 -275.3029,-732.40793 -276.1481,-733.34821 -0.4594,-0.51107 -62.062,161.77018 -136.8948,360.62501 -74.8326,198.8548 -137.0968,364.2261 -138.365,367.4917 l -2.3056,5.9375 276.8567,0 c 152.2713,0 276.8568,-0.3176 276.8568,-0.706 z"
       id="path8573"
       inkscape:connector-curvature="0" />
    <path
       style="fill:#003365"
       d="m 1783.125,3974.2602 c -2.0625,-0.1868 -14.7187,-0.9707 -28.125,-1.7419 -129.9209,-7.4742 -256.9341,-28.1853 -380.625,-62.0658 -289.3122,-79.2462 -551.52811,-224.9687 -770,-427.9158 C 566.45783,3447.3141 507.49801,3386.6989 473.02601,3347.5 368.02469,3228.1006 275.12221,3088.707 204.76945,2945 117.97059,2767.6991 61.909631,2585.6595 34.428979,2391.875 c -8.692365,-61.2956 -11.265707,-87.4255 -16.391423,-166.4394 -1.662652,-25.6301 -1.92478,-45.7246 -1.418615,-108.75 0.59984,-74.6891 1.017808,-84.898 5.83071,-142.4153 C 26.019986,1931.6024 32.93485,1875.0338 39.473826,1835 75.134485,1616.6739 149.05254,1408.4318 259.77225,1214.375 373.10691,1015.735 526.54467,836.15912 706.25,691.83975 c 200.7644,-161.23168 439.7363,-280.85843 692.5,-346.65801 32.1289,-8.3638 101.7641,-23.73791 125,-27.59756 3.7813,-0.62809 13.625,-2.35099 21.875,-3.82867 59.1505,-10.59455 108.8419,-16.38968 200.625,-23.39742 36.4553,-2.78339 182.8151,-3.17348 218.125,-0.58135 75.4836,5.54131 82.6236,6.22456 134.375,12.85869 29.5924,3.79351 79.4545,11.62228 103.75,16.28961 41.7649,8.02332 114.4196,24.52412 133.75,30.37627 3.0938,0.93662 12.0938,3.48964 20,5.67338 89.5521,24.73474 174.1545,55.60356 272.5,99.42698 59.9011,26.69237 145.1001,72.67472 208.125,112.32614 150.3524,94.59259 280.9511,204.53533 397.9509,335.00934 177.5676,198.01715 313.0995,439.16595 389.983,693.88785 24.8686,82.392 46.5992,176.9823 57.003,248.125 0.4524,3.0938 1.8785,12.6563 3.1691,21.25 4.8864,32.5374 9.9793,77.4373 13.0441,115 4.7395,58.0856 5.0999,68.7745 5.0999,151.25 0,82.4755 -0.3604,93.1644 -5.0999,151.25 -11.9771,146.789 -42.986,299.0269 -87.8456,431.2779 -61.7595,182.0734 -141.6262,338.6176 -251.2526,492.4721 -126.6186,177.702 -290.761,336.2212 -475.8019,459.5018 -101.1851,67.4128 -202.0459,121.5437 -313.125,168.0503 -176.1072,73.7327 -374.4275,121.7234 -560,135.5123 -71.2109,5.2912 -82.2371,5.6869 -152.8965,5.4856 -38.6256,-0.11 -71.916,-0.353 -73.9785,-0.5397 z m 173.75,-74.8481 c 98.8278,-6.3591 166.0268,-14.7577 246.25,-30.7765 232.3619,-46.3977 445.0595,-134.3524 640.795,-264.9811 149.458,-99.7444 284.0814,-222.9939 397.2139,-363.6545 109.914,-136.6589 198.3907,-288.8676 264.9591,-455.8157 71.4236,-179.1248 112.1237,-366.795 122.8971,-566.6843 1.9953,-37.0217 1.9872,-136.8951 -0.014,-173.125 -11.3593,-205.6397 -53.3143,-394.5066 -129.3967,-582.5 -5.4927,-13.5719 -16.6878,-39.5082 -29.6753,-68.75 -9.8109,-22.0895 -46.2308,-94.007 -61.0859,-120.625 C 3346.5394,1160.9067 3273.4479,1057.0558 3191.0986,963.15647 3138.7924,903.51403 3070.819,836.37791 3011.875,786.14032 2799.4066,605.05502 2554.9464,479.16864 2286.25,412.47504 c -76.1497,-18.90129 -164.0118,-34.36876 -237.5,-41.81022 -10.6562,-1.07905 -20.7812,-2.22239 -22.5,-2.54077 -6.2764,-1.1626 -79.1227,-5.57084 -115.625,-6.99695 -85.4236,-3.33743 -199.3957,2.81529 -293.75,15.85791 -77.8689,10.76384 -163.8876,28.73529 -236.875,49.48898 -259.3631,73.74902 -498.01923,204.1579 -696.03686,380.3355 -30.07105,26.75441 -37.24201,33.61183 -79.15135,75.69051 -119.88018,120.3645 -216.46338,249.5248 -298.17658,398.75 -107.58757,196.4773 -178.07055,415.18 -204.04184,633.125 -14.605449,122.5654 -17.137758,220.0089 -8.884467,341.875 1.373532,20.2813 2.770721,38.5625 3.104863,40.625 0.334144,2.0625 1.496329,12.4688 2.582635,23.125 8.582259,84.1888 26.714689,182.3583 48.946859,265 1.75703,6.5313 3.61908,13.5625 4.13789,15.625 15.35219,61.0321 49.67609,158.7271 81.68589,232.5 15.79142,36.3945 19.96475,45.3771 38.91003,83.75 73.43715,148.7439 162.98807,280.3696 275.46758,404.8941 25.78912,28.5509 97.86567,100.2504 125.83035,125.1723 128.31545,114.3535 251.61513,197.9597 400,271.2291 39.5653,19.5365 47.8175,23.3545 87.9183,40.6765 45.6742,19.7295 94.1187,38.0568 143.9567,54.4609 18.2054,5.9922 63.976,20.0077 72.5,22.2003 1.7188,0.442 5.9375,1.5862 9.375,2.5425 122.7686,34.153 260.1656,56.2259 385.625,61.9507 16.1563,0.7372 33.5938,1.533 38.75,1.7683 20.8444,0.9517 117.4678,-0.6262 144.375,-2.3576 z m -111.7853,-549.6184 c -6.3405,-1.8208 -19.4091,-15.7044 -30.3982,-32.2937 -37.9047,-57.221 -68.6764,-155.1819 -92.7943,-295.4089 -4.8079,-27.9548 -13.2456,-86.1532 -16.1603,-111.4661 -6.1352,-53.2796 -8.7948,-79.4932 -10.7165,-105.625 -0.7332,-9.9687 -1.6075,-20.375 -1.9429,-23.125 -0.6399,-5.246 -3.8771,-47.8647 -4.9371,-65 -0.3403,-5.5 -1.2022,-19 -1.9151,-30 -0.7132,-11 -1.797,-34.0314 -2.4089,-51.1809 l -1.1123,-31.1807 77.8257,-129.4443 c 42.8041,-71.1942 92.9082,-154.4753 111.3425,-185.0691 18.4342,-30.5937 78.9775,-131.2812 134.5406,-223.75 l 101.024,-168.125 -6.531,-0.8715 c -3.592,-0.4792 -29.3121,-1.7609 -57.1559,-2.848 -27.8437,-1.0871 -70.0312,-2.7967 -93.75,-3.7991 -85.8476,-3.6281 -134.805,-5.6411 -156.6559,-6.4415 -19.5645,-0.7166 -22.2048,-1.0584 -21.6582,-2.803 0.3423,-1.0928 7.1983,-16.6119 15.2356,-34.4869 8.0372,-17.875 22.6394,-50.5 32.4492,-72.5 19.4738,-43.6724 62.2023,-139.4691 82.5163,-185 7.055,-15.8125 22.1055,-49.5625 33.4456,-75 11.3401,-25.4375 31.0303,-69.5937 43.7556,-98.125 12.7255,-28.5312 31.3553,-70.3126 41.3995,-92.8476 10.0443,-22.5349 18.2623,-41.5193 18.2623,-42.1875 0,-0.7375 -7.9808,-1.2064 -20.3125,-1.1934 -20.8798,0.023 -168.8154,-2.704 -169.3746,-3.1211 -0.529,-0.3948 9.0392,-26.5663 16.923,-46.2885 46.3213,-115.88 98.591,-206.5903 159.4255,-276.67225 18.499,-21.31102 30.9348,-33.91182 38.6156,-39.12771 7.2144,-4.89921 7.3076,-4.92301 14.2547,-3.63874 3.8462,0.71099 8.7644,2.38745 10.9293,3.72546 4.2715,2.63994 27.3871,26.78845 42.7016,44.60969 78.6325,91.50365 149.8851,235.28465 202.4955,408.61665 18.0099,59.336 36.2845,128.8446 48.6388,185 3.1762,14.4375 6.2883,28.5 6.9157,31.25 2.726,11.9491 13.2505,66.0985 18.2214,93.75 13.5932,75.616 28.0695,175.9053 34.9132,241.875 1.7474,16.8438 3.7262,35.4063 4.3972,41.25 3.4436,29.9896 6.4632,61.3995 8.7121,90.625 1.3755,17.875 2.782,34.75 3.1256,37.5 0.802,6.419 5.0815,76.0236 7.4549,121.25 4.0801,77.7526 5.088,124.3003 5.088,235 0,134.5973 -1.9295,193.1561 -10.0293,304.375 -5.3998,74.1464 -6.6828,87.1375 -17.4685,176.875 -14.7805,122.9761 -40.2668,239.0731 -69.0135,314.375 -20.9356,54.8409 -51.9453,104.0053 -68.4986,108.6008 -6.5727,1.8246 -455.4164,1.7693 -461.7754,-0.058 z m 2226.1178,13.6438 c -3.6715,-1.8531 -6.5263,-4.518 -8.3693,-7.8125 l -2.7971,-5 0,-572.5 0,-572.5 2.7971,-5 c 1.8452,-3.2985 4.7095,-5.9702 8.4169,-7.8511 l 5.6199,-2.8511 152.5,0.4551 c 169.9664,0.5072 159.1035,-0.019 194.4769,9.4271 97.7407,26.1018 175.7338,104.482 201.318,202.3174 10.4112,39.8136 11.5472,88.5994 3.0067,129.1276 -15.6619,74.3225 -63.2574,141.2354 -129.1809,181.6113 l -10.3793,6.3569 12.2543,2.7649 c 108.1515,24.4019 198.8123,106.1679 235.2253,212.1474 12.1587,35.388 16.902,64.9696 16.8752,105.2445 -0.028,41.1721 -4.1241,66.5621 -17.0377,105.5932 -11.2478,33.9959 -32.3781,72.5413 -55.5135,101.2663 -47.9933,59.5884 -119.4259,101.6042 -195.42,114.9437 -27.634,4.8508 -37.3498,5.0697 -225.0476,5.0708 l -183.1727,0 -5.5722,-2.8125 z m 387.2792,-41.0098 c 84.032,-9.1534 158.4518,-55.2046 205.3404,-127.0651 37.1039,-56.8646 52.7293,-128.6535 42.9019,-197.1067 -16.4651,-114.6885 -102.2146,-208.3219 -214.7259,-234.4681 -30.4477,-7.0757 -21.4732,-6.7724 -213.5656,-7.217 l -177.1875,-0.4102 0,283.7948 0,283.7946 172.5492,0 c 112.831,0 176.7503,-0.4576 184.6875,-1.3223 z m -91.2627,-612.4501 c 85.924,-6.5546 159.0087,-55.1296 197.1707,-131.0471 46.341,-92.1885 28.559,-200.7732 -44.9105,-274.2427 -31.961,-31.961 -70.2229,-53.6654 -114.3025,-64.8388 -28.6598,-7.2647 -30.6484,-7.349 -173.3707,-7.349 l -130.561,0 0,238.5416 c 0,131.198 0.375,238.9168 0.8334,239.375 1.365,1.365 246.8201,0.9587 265.1406,-0.439 z m 878.401,654.5007 c -4.6584,-2.0793 -10.0389,-7.7228 -11.7955,-12.3722 -0.9322,-2.4675 -1.3295,-174.0001 -1.3295,-574.1026 0,-476.3986 0.2787,-571.251 1.6887,-574.6256 2.287,-5.4735 9.789,-11.8229 15.1595,-12.8304 9.5943,-1.7999 19.1534,3.061 22.6968,11.5415 1.4314,3.4259 1.705,93.7515 1.705,562.8585 l 0,558.7778 307.1875,0.3248 c 288.827,0.3055 307.4244,0.4545 311.1515,2.4935 14.0026,7.6608 13.5401,29.2505 -0.789,36.828 l -5.4433,2.8784 -318.2408,-0.049 c -263.1028,-0.04 -318.8907,-0.339 -321.9909,-1.7228 z m 1130.5774,-1.0408 c -4.0745,-2.0546 -6.3353,-4.3154 -8.3899,-8.3899 l -2.8125,-5.5773 0,-571.3453 0,-571.3452 2.8125,-5.5774 c 7.0515,-13.9836 26.8514,-14.8315 35.959,-1.5399 l 3.1035,4.5294 0,573.9331 0,573.9331 -3.1035,4.5294 c -6.4387,9.3968 -17.211,12.0733 -27.5691,6.85 z m 996.9226,1.0408 c -4.6584,-2.0793 -10.0389,-7.7228 -11.7955,-12.3722 C 7360.3974,3349.639 7360,3181.786 7360,2790.5436 l 0,-558.0436 -194.6875,-0.012 c -138.188,0 -196.1304,-0.4075 -199.6594,-1.3872 -6.6497,-1.8462 -13.9453,-9.2695 -15.0861,-15.3507 -1.7669,-9.418 3.5086,-19.3193 12.4597,-23.3847 4.9295,-2.2389 18.7799,-2.3164 418.5759,-2.3429 452.164,-0.03 418.2738,-0.617 424.9854,7.3594 8.8724,10.5442 6.3711,26.492 -5.0452,32.1675 -4.4793,2.2269 -12.6074,2.3339 -201.2303,2.6484 l -196.5625,0.3277 0,558.49 0,558.49 -3.6082,5.6896 c -5.9575,9.394 -17.7129,13.431 -27.0168,9.2782 z m 889.3756,0.3673 c -9.532,-3.8008 -15.1069,-15.5956 -12.5625,-26.5782 0.6762,-2.9185 3.1045,-6.9105 6.0833,-10 4.4469,-4.6124 795.2286,-1089.8975 795.2286,-1091.3883 0,-0.3396 -177.3719,-0.7607 -394.1599,-0.9357 l -394.1597,-0.3184 -4.5734,-3.4882 c -2.5154,-1.9187 -5.2315,-4.7179 -6.0357,-6.2207 -6.1492,-11.4897 -1.7537,-25.9552 9.4301,-31.0343 4.9633,-2.254 18.155,-2.3278 421.7262,-2.3543 347.1182,-0.023 417.2768,0.2541 420.6445,1.6613 5.4767,2.2883 11.823,9.79 12.8319,15.1678 1.405,7.4892 -0.4331,15.1803 -4.6314,19.3785 -2.0796,2.0797 -182.9225,249.168 -401.873,549.0855 l -398.0919,545.3044 395.3837,0.625 395.3836,0.625 4.3708,2.5676 c 14.0294,8.2415 13.3398,29.1544 -1.2033,36.4949 l -5.5723,2.8125 -417.5476,-0.079 c -274.3275,-0.052 -418.6192,-0.5065 -420.672,-1.3252 z M 4071.2075,1850.9375 c -3.6715,-1.8531 -6.5263,-4.518 -8.3693,-7.8125 l -2.7971,-5 0,-572.5 0,-572.5 2.7971,-5 c 1.8452,-3.29845 4.7095,-5.97026 8.4169,-7.85111 l 5.6199,-2.85113 152.5,0.45514 c 169.9664,0.50725 159.1035,-0.0194 194.4769,9.42716 97.7407,26.10168 175.7338,104.48189 201.318,202.31735 10.4112,39.81357 11.5472,88.59932 3.0067,129.12759 -15.6619,74.3225 -63.2574,141.2354 -129.1809,181.6113 l -10.3793,6.3569 12.2543,2.7649 c 108.1515,24.4019 198.8123,106.1679 235.2253,212.1474 12.1587,35.388 16.902,64.9696 16.8752,105.2445 -0.028,41.1721 -4.1241,66.5621 -17.0377,105.5932 -11.2478,33.9959 -32.3781,72.5413 -55.5135,101.2663 -47.9933,59.5884 -119.4259,101.6042 -195.42,114.9438 -27.634,4.8507 -37.3498,5.0696 -225.0476,5.0707 l -183.1727,10e-4 -5.5722,-2.8125 z m 387.2792,-41.0098 c 84.032,-9.1534 158.4518,-55.2046 205.3404,-127.0651 37.1039,-56.8646 52.7293,-128.6535 42.9019,-197.1067 -16.4651,-114.6885 -102.2146,-208.3219 -214.7259,-234.4681 -30.4477,-7.0757 -21.4732,-6.7724 -213.5656,-7.217 l -177.1875,-0.4101 0,283.7947 0,283.7946 172.5492,0 c 112.831,0 176.7503,-0.4576 184.6875,-1.3223 z m -91.2627,-612.45 c 85.924,-6.5547 159.0087,-55.1297 197.1707,-131.0472 46.341,-92.18851 28.559,-200.77329 -44.9105,-274.24274 -31.961,-31.96106 -70.2229,-53.66539 -114.3025,-64.83874 C 4376.5219,720.0843 4374.5333,720 4231.811,720 l -130.561,0 0,238.54166 c 0,131.19794 0.375,238.91664 0.8334,239.37504 1.365,1.365 246.8201,0.9586 265.1406,-0.439 z m 700.0926,653.7574 c -2.9771,-1.5755 -5.4704,-4.2962 -7.1875,-7.8433 l -2.6291,-5.431 0,-572.3082 0,-572.30795 3.1074,-5.30226 c 2.0747,-3.54045 4.9106,-6.17525 8.5345,-7.92955 l 5.4272,-2.62729 318.2489,0.31972 318.2487,0.31973 3.4519,2.57724 c 6.3146,4.71465 8.4576,8.80553 8.97,17.12372 0.4068,6.604 0.033,8.4518 -2.4416,12.0591 -1.6071,2.34304 -4.5101,5.43679 -6.4511,6.875 l -3.529,2.61494 -306.1585,0.3249 -306.1584,0.3249 0,261.8626 0,261.8626 268.1651,0 c 224.9268,0 268.8138,0.2775 272.1875,1.721 15.5265,6.6434 17.1049,26.983 2.9162,37.5767 l -3.4519,2.5773 -269.9084,0.3237 -269.9085,0.3238 0,262.4764 0,262.4763 306.1584,0.3249 306.1585,0.3249 3.529,2.6149 c 1.941,1.4382 4.844,4.532 6.4511,6.875 2.4743,3.6073 2.8484,5.4551 2.4416,12.0591 -0.5123,8.3182 -2.6553,12.4091 -8.97,17.1237 l -3.4518,2.5773 -319.5959,0.2612 c -313.5819,0.2564 -319.6816,0.2159 -324.1543,-2.1511 z m 2519.5584,1.1913 c -132.6094,-10.1216 -258.6848,-61.5915 -357.5,-145.9483 -18.2096,-15.5452 -49.9779,-47.1582 -66.1764,-65.8531 -156.0627,-180.1134 -188.5321,-432.9343 -82.7186,-644.08486 46.0552,-91.903 118.0294,-173.14803 204.52,-230.86381 86.736,-57.87952 178.3063,-90.42434 287.5,-102.17989 22.7833,-2.45279 92.4291,-2.05103 117.5,0.67782 111.8455,12.17384 213.3614,50.18189 301.875,113.02353 17.8479,12.67136 22.5491,16.88492 25.7345,23.06491 2.7409,5.31742 3.0579,13.99912 0.6685,18.30795 -2.296,4.14044 -11.1974,9.81927 -16.9021,10.78307 -6.3625,1.07495 -11.4655,-1.16277 -23.5413,-10.3232 -65.2288,-49.48145 -145.7865,-85.28991 -229.7096,-102.10776 -132.3286,-26.5181 -268.5119,-7.77712 -385,52.98211 -142.6279,74.3935 -246.237,204.1381 -284.3998,356.13963 -11.145,44.3908 -15.4083,80.202 -15.4267,129.5805 -0.014,38.8941 1.5347,58.4243 7.3671,92.8747 12.6119,74.4958 42.5271,148.5997 85.8859,212.7503 54.6067,80.7922 130.3096,146.4392 219.0735,189.9734 61.6237,30.2232 122.9575,47.829 194.6252,55.8667 24.1718,2.711 89.0234,3.0546 112.2498,0.5948 78.0621,-8.2675 140.0149,-25.5624 204.375,-57.054 25.9525,-12.6987 55.8075,-30.5525 77.5,-46.3464 23.8547,-17.3681 31.5374,-20.462 41.4811,-16.705 7.3051,2.7601 14.1685,11.6556 14.1164,18.2959 -0.044,5.6698 -4.2425,13.3048 -10.0476,18.274 -5.9032,5.0527 -36.56,26.063 -50.5499,34.6433 -82.7731,50.7675 -171.7215,81.2372 -268.125,91.8476 -21.6288,2.3804 -82.8595,3.4283 -104.375,1.7861 z m 790.5825,-1.4889 c -3.6715,-1.8531 -6.5262,-4.518 -8.3692,-7.8125 l -2.7972,-5 0,-572.5 0,-572.5 2.7972,-5 c 3.2238,-5.76301 11.5493,-10.625 18.1938,-10.625 6.0908,0 13.7149,4.74819 17.2155,10.72139 l 3.0024,5.12326 0,275.20267 0,275.20268 334.375,0 334.375,0 0.095,-274.0625 c 0.071,-206.59263 0.4564,-274.99667 1.5625,-277.85711 4.8113,-12.44166 16.9824,-17.62721 28.0796,-11.9634 5.7285,2.92366 8.3592,5.76323 10.8402,11.70111 1.7206,4.11818 1.9226,64.42678 1.9226,574.0569 0,509.6301 -0.202,569.9388 -1.9226,574.0569 -2.481,5.9378 -5.1117,8.7775 -10.8402,11.7011 -11.0972,5.6639 -23.2683,0.4782 -28.0796,-11.9634 -1.1062,-2.8605 -1.4909,-71.4111 -1.5625,-278.4821 l -0.095,-274.6875 -334.375,0 -334.375,0 0,275.7673 0,275.7673 -2.7991,4.9803 c -3.329,5.9231 -11.3278,10.9851 -17.3584,10.9851 -2.372,0 -6.8202,-1.2656 -9.885,-2.8125 z M 5987.5,1848.7185 c -8.0531,-1.8879 -14.9955,-13.9525 -13.0709,-22.7151 1.0991,-5.004 425.0028,-1135.70991 427.2957,-1139.7534 6.7327,-11.87335 27.2506,-11.74032 37.7738,0.24491 3.1157,3.5486 44.1968,112.01844 214.8869,567.38369 116.0691,309.648 211.8156,565.6316 212.7698,568.8524 2.359,7.9619 0.4938,14.6199 -5.8812,20.9949 -9.0563,9.0564 -22.353,7.477 -31.4153,-3.7315 -2.4877,-3.0768 -19.4827,-46.8966 -57.4464,-148.1194 -29.6524,-79.0625 -55.0224,-146.7031 -56.3778,-150.3125 l -2.4642,-6.5625 -293.9726,0.021 -293.9728,0.021 -57.2915,152.9691 c -44.8116,119.6475 -58.0176,153.6619 -60.625,156.1489 -5.7675,5.5014 -11.0751,6.6983 -20.2085,4.5573 z m 708.75,-358.1745 c 0,-1.3044 -275.3029,-732.40793 -276.1481,-733.34821 -0.4594,-0.51107 -62.062,161.77018 -136.8948,360.62501 -74.8326,198.8548 -137.0968,364.2261 -138.365,367.4917 l -2.3056,5.9375 276.8567,0 c 152.2713,0 276.8568,-0.3176 276.8568,-0.706 z"
       id="path8571"
       inkscape:connector-curvature="0" />
    <path
       style="fill:#000000"
       d="m 1800.625,3974.1755 c -20.2641,-0.4885 -63.427,-2.9383 -85.625,-4.8597 -11.3437,-0.9821 -24.2812,-2.0958 -28.75,-2.475 -10.6294,-0.9022 -39.3729,-4.0424 -51.25,-5.5992 -47.2506,-6.1933 -81.194,-11.4355 -113.125,-17.471 -7.5625,-1.4293 -16.5625,-3.117 -20,-3.7502 -5.9945,-1.1043 -34.2979,-7.1156 -50,-10.6196 -103.6482,-23.1293 -210.1369,-57.5995 -313.75,-101.5603 C 885.32224,3720.5818 663.9416,3561.2325 478.61271,3353.125 425.64779,3293.6503 371.22126,3222.7271 323.99777,3151.6467 274.2417,3076.7543 225.79949,2990.5666 190.28669,2913.75 143.76004,2813.1096 109.13376,2719.3205 82.990016,2623.125 81.868935,2619 80.225564,2613.0938 79.33808,2610 68.927639,2573.7094 54.214179,2507.202 44.494275,2452.5 16.614271,2295.5958 9.3943951,2133.186 23.156026,1972.5 c 7.908389,-92.3414 21.15046,-175.0546 42.625551,-266.25 24.588559,-104.4169 58.635643,-206.7122 102.761543,-308.75 27.03074,-62.5065 56.70013,-121.6591 92.47754,-184.375 C 329.03065,1093.9072 414.6381,977.64273 509.97665,875.01505 696.58396,674.14065 925.34359,518.08574 1181.875,416.66044 c 47.0572,-18.6051 109.4186,-40.31078 151.25,-52.64445 23.623,-6.96507 36.2566,-10.62243 40,-11.57973 2.0625,-0.52745 14.9175,-3.82667 28.5668,-7.33161 95.7178,-24.57904 196.8481,-42.05391 286.4332,-49.49444 11.6875,-0.9707 28,-2.34612 36.25,-3.05647 54.1721,-4.66444 134.297,-6.16743 202.5,-3.7985 28.1519,0.9778 77.5248,3.90487 93.75,5.55796 116.5794,11.87756 189.756,24.20857 289.375,48.76262 10.6615,2.62783 17.2712,4.3855 38.125,10.13808 3.4375,0.94825 7.6563,2.08581 9.375,2.52791 8.1739,2.1025 55.1712,16.3249 71.875,21.75089 63.002,20.4654 126.4637,44.75687 181.25,69.37772 10.3125,4.63443 21.2813,9.5568 24.375,10.93864 14.8668,6.64029 65.4831,31.7279 85,42.12961 147.2624,78.48492 272.8851,167.72282 397.0176,282.0271 24.163,22.24988 73.9203,72.33053 98.0609,98.69807 4.4255,4.83385 11.309,12.33745 15.2966,16.67466 12.2085,13.27896 49.5378,57.19381 66.0151,77.6615 140.3008,174.2773 248.2973,373.9799 317.374,586.875 6.057,18.6677 19.4332,63.2175 23.2695,77.5 1.108,4.125 2.7664,10.0313 3.6853,13.125 2.8942,9.744 16.5079,66.0915 20.5361,85 2.1239,9.9688 4.6684,21.7813 5.6546,26.25 6.0195,27.2741 15.3957,83.945 21.7153,131.25 4.4381,33.2208 9.7189,89.8114 12.8307,137.5 2.1355,32.7239 2.1355,164.7761 0,197.5 -5.0317,77.1089 -11.8023,137.8901 -22.7661,204.375 -9.8824,59.9279 -26.6806,138.12 -37.9986,176.875 -0.9035,3.0938 -2.5493,9 -3.6573,13.125 -23.3891,87.0766 -61.6447,190.2409 -107.3066,289.375 -41.8782,90.9195 -102.6606,195.608 -163.2945,281.25 -84.2604,119.013 -180.932,226.5202 -288.3226,320.6404 -175.4808,153.7958 -372.7488,270.5866 -591.235,350.0351 -29.9566,10.8932 -96.417,32.3817 -115,37.1829 -1.375,0.3552 -13.75,3.7241 -27.5,7.4865 -13.75,3.7623 -29.7813,8.0093 -35.625,9.438 -5.8438,1.4285 -15.4063,3.768 -21.25,5.199 -5.8438,1.431 -14.2813,3.4068 -18.75,4.3909 -4.4688,0.984 -12.0625,2.6733 -16.875,3.7541 -98.697,22.1641 -211.7423,36.316 -324.375,40.6077 -27.267,1.039 -92.6395,1.2661 -126.875,0.4409 z M 1925,3901.2641 c 49.1595,-1.8432 86.8414,-4.7052 141.25,-10.7278 125.8259,-13.9283 260.3084,-45.1524 386.875,-89.8248 20.0331,-7.0707 23.1793,-8.2538 56.875,-21.3857 77.6853,-30.2758 167.6821,-74.0908 243.75,-118.6698 102.366,-59.9909 196.6109,-128.5093 285.6801,-207.6964 30.0491,-26.7154 43.9453,-39.8989 76.8199,-72.8805 23.1433,-23.2187 35.1997,-35.8945 63.0885,-66.3291 2.835,-3.0937 12.1935,-13.7812 20.7969,-23.75 137.052,-158.8035 242.7562,-336.6717 317.5706,-534.375 19.2749,-50.9355 40.5782,-116.0939 51.0855,-156.25 14.1009,-53.8897 19.4862,-76.871 27.3886,-116.875 15.5036,-78.4842 22.0137,-125.3701 30.0258,-216.25 3.1806,-36.0776 4.3108,-71.4707 4.3108,-135 0,-63.5292 -1.1302,-98.9224 -4.3108,-135 -6.4087,-72.6922 -12.7854,-123.2636 -21.8299,-173.125 -3.934,-21.6879 -9.4668,-50.4096 -11.1966,-58.125 -9.3565,-41.7297 -14.119,-61.38 -24.3879,-100.625 -18.8461,-72.0251 -55.3205,-174.6456 -88.191,-248.125 -5.9971,-13.4062 -12.0318,-26.9062 -13.4103,-30 -5.568,-12.4965 -31.3018,-64.3351 -40.9547,-82.5 -71.9959,-135.4816 -157.2334,-256.4528 -259.3846,-368.125 -85.2431,-93.1882 -173.8031,-171.54711 -279.9759,-247.72585 -82.6084,-59.27133 -191.4634,-122.71241 -280,-163.18503 -6.875,-3.14275 -16.1562,-7.38448 -20.625,-9.42606 -110.1904,-50.34129 -254.4776,-96.55051 -375.625,-120.29714 -6.875,-1.3476 -15.3125,-3.02035 -18.75,-3.71722 -11.7171,-2.37536 -47.0696,-8.31356 -70,-11.75796 -128.3817,-19.28441 -256.0341,-24.25154 -385.625,-15.00516 -31.4111,2.2412 -75.1032,6.16426 -89.375,8.02487 -33.5419,4.37285 -42.5584,5.66385 -66.25,9.48583 -40.322,6.5048 -62.1607,10.68761 -113.75,21.78675 -73.7111,15.8585 -173.1825,46.71934 -256.875,79.69508 -81.2522,32.01423 -172.1938,76.01294 -240.625,116.41751 -28.31131,16.71616 -37.54495,22.27659 -51.62008,31.08527 -208.23768,130.32216 -388.86356,305.54177 -527.92013,512.11911 -29.18309,43.3533 -56.02914,87.6477 -85.00024,140.2453 -9.82612,17.8396 -44.29506,86.1035 -53.21,105.3797 -11.96722,25.876 -33.95621,78.6136 -49.77344,119.375 -8.36894,21.567 -28.03426,79.1055 -35.4593,103.75 -7.31122,24.2667 -11.22318,37.6026 -13.75036,46.875 -61.275634,224.8248 -78.190264,445.885 -51.88736,678.125 4.01667,35.465 13.61882,98.376 19.26961,126.25 0.69687,3.4375 2.37433,11.875 3.72769,18.75 5.85852,29.7611 12.71601,59.6544 20.78927,90.625 3.13625,12.0313 6.13283,23.5625 6.65907,25.625 4.26052,16.6984 19.67672,68.2378 26.35948,88.125 18.58647,55.3114 43.07922,118.8716 61.38183,159.2896 18.41099,40.6575 25.22227,55.0877 38.09677,80.7104 51.90783,103.3067 108.92619,194.2084 179.15937,285.625 26.59565,34.6174 62.35133,77.7434 84.46432,101.875 2.83496,3.0938 12.11358,13.2188 20.61915,22.5 37.29083,40.6916 98.80655,99.6438 148.09435,141.9227 120.81734,103.637 262.858,194.9008 403.125,259.0151 46.8438,21.4117 47.5934,21.736 89.375,38.6583 52.8346,21.3989 133.2233,48.5301 185,62.4377 4.125,1.1079 10.0313,2.7579 13.125,3.6664 13.0023,3.8187 48.7066,12.3797 93.75,22.4792 4.4688,1.002 17.125,3.5102 28.125,5.5738 38.6419,7.2495 38.2509,7.1822 75.625,13.0218 34.321,5.3625 72.9103,9.7246 127.5,14.4126 51.0924,4.3876 139.7798,6.0844 200,3.8265 z m 2149.5466,-536.8119 c -6.383,-2.3193 -11.7725,-7.6414 -13.2976,-13.1312 -1.7372,-6.2538 -1.6994,-1140.2742 0.039,-1146.5306 1.5825,-5.6978 8.2811,-11.7413 15.0276,-13.5579 3.6145,-0.9733 47.9001,-1.2339 152.2038,-0.8956 157.9448,0.5121 152.9284,0.3195 183.7928,7.0557 29.8179,6.5079 65.7761,21.6824 91.801,38.7404 19.4759,12.7655 29.5046,20.9994 47.2006,38.7527 125.2297,125.6368 104.8047,332.4709 -42.5632,431.0193 -5.1563,3.4481 -11.7613,7.6081 -14.6779,9.2446 -2.9166,1.6365 -5.3072,3.3408 -5.3125,3.7874 0,0.4466 4.3498,1.7735 9.6779,2.9486 45.365,10.0055 89.3358,30.7074 128.4375,60.4697 16.1857,12.3198 46.2297,42.3455 58.3052,58.2697 36.8251,48.562 57.5863,98.9359 65.4275,158.75 2.5139,19.1764 2.5495,57.3665 0.072,78.2699 -6.8605,57.9068 -28.5217,112.2385 -63.4827,159.2301 -13.4628,18.0954 -45.037,49.6293 -63.448,63.3668 -45.3569,33.8432 -95.3522,54.3487 -153.75,63.0605 -12.9952,1.9386 -32.4327,2.1808 -202.5,2.5245 -159.0435,0.3212 -188.8714,0.1087 -192.9534,-1.3745 z m 393.5784,-42.4682 c 63.4216,-10.373 116.7112,-37.4052 159.6562,-80.9886 22.1657,-22.4953 38.9274,-46.3973 53.5859,-76.4124 38.2851,-78.3941 38.2329,-172.2432 -0.1395,-250.3281 -38.1965,-77.727 -107.8677,-132.6216 -192.5976,-151.7494 -27.3935,-6.184 -29.8449,-6.2555 -214.5301,-6.2555 l -172.8499,0 0,284.4311 0,284.4312 176.5625,-0.4398 c 162.7944,-0.4054 177.6347,-0.615 190.3125,-2.6885 z m -89.3674,-612.5622 c 91.6189,-10.7255 168.6023,-72.7897 198.7553,-160.2364 9.2847,-26.9269 14.7586,-62.9785 13.1617,-86.6854 -3.9947,-59.3057 -26.8972,-112.1312 -66.7885,-154.0501 -37.7765,-39.6966 -84.9195,-64.2433 -142.6361,-74.2686 -10.4034,-1.8071 -28.4884,-2.1242 -145.9375,-2.5593 l -134.0625,-0.4965 0,240.0623 0,240.0622 130.9451,0 c 106.9565,0 133.8063,-0.3349 146.5625,-1.8282 z m 870.1459,655.5817 c -6.1011,-1.4492 -10.3847,-5.0042 -13.591,-11.279 l -2.8125,-5.5043 0,-570.0952 0,-570.0952 2.8125,-5.5043 c 3.339,-6.5346 7.443,-9.787 14.2915,-11.3257 9.2579,-2.08 17.366,1.8338 21.5031,10.3801 l 2.6429,5.4594 0,558.9803 0,558.9804 306.2901,0 c 334.3089,0 311.1379,-0.5281 317.6749,7.2408 7.9215,9.4142 4.4833,24.9997 -6.8879,31.2217 -3.7145,2.0325 -23.0023,2.174 -320.8271,2.3531 -174.2812,0.105 -318.7746,-0.2606 -321.0965,-0.8121 z M 6380,3364.8242 c -5.0734,-1.4819 -9.3738,-5.1333 -12.3063,-10.4492 -1.9165,-3.474 -2.0687,-45.8769 -2.0687,-576.25 0,-530.3731 0.1522,-572.776 2.0687,-576.25 3.2438,-5.88 7.4505,-9.1166 13.6573,-10.5076 10.483,-2.3493 21.0619,3.0845 23.6784,12.1622 0.9266,3.2144 1.2151,176.7014 0.9601,577.3163 l -0.3645,572.7209 -2.6306,3.5291 c -5.1873,6.9589 -14.6923,10.1535 -22.9944,7.7283 z m 996.4035,0.1854 c -5.5171,-1.3185 -10.1795,-4.8791 -13.2785,-10.1402 -2.4886,-4.2252 -2.5015,-6.7834 -2.8208,-563.9319 l -0.3207,-559.6875 -196.9165,0 c -195.7475,0 -196.9462,-0.015 -201.9159,-2.5504 -6.5511,-3.3422 -9.8905,-8.9349 -9.8965,-16.5742 -0.012,-10.0695 6.2878,-18.1942 16.1578,-20.8518 3.2692,-0.8804 136.2156,-1.1896 417.1306,-0.9703 l 412.332,0.3217 4.3743,2.5696 c 13.3491,7.8419 13.3347,29.1541 -0.024,35.8659 -4.0863,2.0531 -16.271,2.1857 -200.9126,2.1875 l -196.5625,0 0,557.5401 c 0,500.4049 -0.1983,558.0146 -1.9346,562.1705 -4.5223,10.8231 -14.9009,16.561 -25.4119,14.049 z m 889.1954,0.079 c -9.3691,-2.2469 -15.5989,-10.467 -15.5989,-20.5824 0,-7.169 1.7914,-11.9808 5.6448,-15.1623 1.686,-1.3921 181.6122,-247.7671 399.836,-547.5 l 396.7703,-544.9687 -393.3131,-0.625 c -381.7655,-0.6066 -393.4519,-0.694 -398.0431,-2.9751 -9.1405,-4.5415 -13.4189,-17.3144 -9.1899,-27.4359 2.1739,-5.2027 8.3126,-10.3791 14.2714,-12.034 5.9817,-1.6612 827.3962,-1.7677 834.5518,-0.1087 6.8646,1.592 10.8734,4.8642 14.2801,11.6558 4.208,8.3895 2.9655,16.7852 -3.5362,23.8922 -4.3933,4.8032 -800.0221,1093.9851 -800.0221,1095.1969 0,0.3074 177.9428,0.5588 395.4284,0.5588 l 395.4284,0 5.509,2.9132 c 7.227,3.8217 10.6591,11.3124 9.3088,20.3166 -1.1109,7.4078 -7.5839,14.5454 -15.0777,16.6259 -5.6771,1.5762 -829.6904,1.8054 -836.248,0.2328 z M 4074.5466,1851.9522 c -6.383,-2.3193 -11.7725,-7.6415 -13.2976,-13.1312 -1.7373,-6.2538 -1.6994,-1140.27423 0.039,-1146.53066 1.5826,-5.69772 8.2812,-11.7412 15.0277,-13.55783 3.6145,-0.97329 47.9001,-1.2339 152.2038,-0.89567 157.9448,0.51217 152.9284,0.3196 183.7928,7.05583 29.8179,6.50785 65.7761,21.68235 91.801,38.74034 19.4759,12.7655 29.5046,20.99934 47.2006,38.75279 125.2296,125.6367 104.8046,332.4708 -42.5632,431.0192 -5.1563,3.4481 -11.7613,7.6082 -14.6779,9.2446 -2.9166,1.6365 -5.3073,3.3408 -5.3125,3.7874 0,0.4466 4.3497,1.7735 9.6779,2.9487 45.365,10.0054 89.3358,30.7073 128.4375,60.4695 16.1857,12.3199 46.2297,42.3455 58.3052,58.2698 36.8251,48.562 57.5863,98.9359 65.4275,158.75 2.5139,19.1764 2.5495,57.3665 0.072,78.2699 -6.8605,57.9068 -28.5217,112.2385 -63.4827,159.2301 -13.4628,18.0954 -45.037,49.6293 -63.448,63.3667 -45.3569,33.8433 -95.3522,54.3488 -153.75,63.0605 -12.9952,1.9387 -32.4327,2.1809 -202.5,2.5245 -159.0435,0.3213 -188.8714,0.1088 -192.9534,-1.3745 z m 393.5784,-42.4682 c 63.4216,-10.373 116.7112,-37.4052 159.6562,-80.9886 22.1657,-22.4953 38.9274,-46.3973 53.5859,-76.4124 38.2851,-78.3941 38.2329,-172.2432 -0.1395,-250.3281 -38.1965,-77.727 -107.8677,-132.6216 -192.5976,-151.7494 -27.3935,-6.184 -29.8449,-6.2555 -214.5301,-6.2555 l -172.8499,0 0,284.4311 0,284.4312 176.5625,-0.4398 c 162.7944,-0.4054 177.6347,-0.615 190.3125,-2.6885 z m -89.3674,-612.5623 c 91.6189,-10.7255 168.6023,-72.7896 198.7553,-160.2364 9.2847,-26.9267 14.7586,-62.97842 13.1617,-86.6853 -3.9947,-59.30581 -26.8972,-112.13127 -66.7885,-154.05012 -37.7765,-39.69658 -84.9195,-64.24325 -142.6361,-74.26858 -10.4034,-1.80707 -28.4884,-2.12421 -145.9375,-2.55926 l -134.0625,-0.49659 0,240.06227 0,240.06228 130.9451,0 c 106.9565,0 133.8063,-0.3349 146.5625,-1.8283 z m 692.168,655.0467 c -6.2987,-2.2544 -8.3997,-4.1655 -11.0962,-10.0934 -2.1887,-4.8114 -2.2745,-26.5276 -2.2745,-575.625 0,-552.80179 0.073,-570.78424 2.3155,-575.72325 2.75,-6.05487 7.4613,-10.04851 13.8997,-11.78219 3.1204,-0.8402 110.4465,-1.1559 320.1494,-0.94173 l 315.4555,0.32217 4.5987,2.85964 c 13.1174,8.15658 12.5037,30.39193 -0.9943,36.03178 -3.4991,1.46203 -51.9303,1.73358 -309.1893,1.73358 l -305.0401,0 0,262.48873 0,262.48877 269.0625,0.3237 c 266.518,0.3207 269.1026,0.3474 273.3069,2.8238 6.6405,3.9114 9.2842,8.38 9.7889,16.5458 0.5473,8.858 -3.0493,16.0645 -9.6772,19.3897 -4.1067,2.0605 -19.7562,2.1857 -273.4186,2.1875 l -269.0625,0 0,263.75 0,263.75 305.0401,0 c 257.259,0 305.6902,0.2715 309.1893,1.7336 9.7532,4.0751 13.6017,17.7251 7.965,28.2502 -1.6618,3.103 -4.9173,6.733 -7.2867,8.125 -4.2582,2.5018 -6.0927,2.5177 -321.1577,2.779 -262.8417,0.2178 -317.6764,-0.024 -321.5744,-1.4194 z m 2535.9494,0.9357 c -125.454,-5.1081 -245.9953,-47.6582 -346.3078,-122.2438 -46.0767,-34.2597 -90.7146,-78.8973 -124.9777,-124.9775 -93.0585,-125.1532 -132.6921,-282.0624 -109.8911,-435.0578 24.3341,-163.2835 119.198,-310.83606 260.5516,-405.26559 131.0587,-87.55217 289.3604,-121.08264 446.875,-94.65426 86.5882,14.52808 172.2017,48.57304 244.375,97.17789 28.098,18.92251 35.669,25.1498 39.2061,32.24783 4.0435,8.11419 4.1644,13.20775 0.4444,18.72774 -4.0925,6.07284 -11.413,9.84586 -19.1516,9.87083 -5.6908,0.0184 -7.2359,-0.62574 -14.375,-5.99219 -77.1949,-58.02716 -158.829,-93.44093 -252.3739,-109.48263 -37.3611,-6.40692 -52.4181,-7.53263 -101.25,-7.56978 -47.7545,-0.0364 -61.7724,0.95682 -96.875,6.86356 -221.9998,37.35599 -402.7882,201.9349 -454.9799,414.1861 -10.482,42.6283 -14.2402,71.4812 -15.2492,117.0721 -0.7802,35.2554 0.3855,57.3108 4.6435,87.8538 19.9551,143.1396 97.4915,273.9921 215.1026,363.013 54.7116,41.4117 118.068,73.1883 185.0119,92.7935 74.7562,21.893 156.6586,28.1179 237.3461,18.0392 97.6642,-12.1991 191.6415,-49.847 270.4636,-108.3492 12.841,-9.5307 19.8331,-11.9332 28.1851,-9.6842 10.2249,2.7533 17.1288,12.9129 15.047,22.1429 -1.8372,8.1463 -6.6598,13.2136 -24.1581,25.3844 -92.3659,64.2444 -190.1209,101.9372 -296.4126,114.2922 -16.7974,1.9525 -65.2446,4.6249 -76.25,4.206 -3.4375,-0.1308 -10.1875,-0.3982 -15,-0.5941 z m 773.9216,-0.9443 c -6.3876,-2.3311 -11.7735,-7.6527 -13.2976,-13.1388 -1.7372,-6.2537 -1.6994,-1140.27422 0.039,-1146.53066 2.5748,-9.27049 15.4967,-16.45809 24.3408,-13.53926 5.943,1.96138 10.2922,5.70247 13.1567,11.31728 2.4313,4.76583 2.4651,8.59297 2.4651,279.25684 l -4e-4,274.4248 334.9918,0 334.9917,0 0.3208,-276.78341 0.3207,-276.78342 2.6306,-3.52908 c 8.8939,-11.93122 26.8732,-10.5958 34.4095,2.55577 l 2.9599,5.16514 0,571.25 0,571.25 -2.9599,5.1651 c -7.5363,13.1517 -25.5156,14.487 -34.4095,2.5558 l -2.6306,-3.529 -0.625,-277.721 -0.625,-277.7209 -334.6875,-0.3147 -334.6875,-0.3149 0,275.9593 c 0,266.3961 -0.08,276.1092 -2.3191,280.2834 -5.1556,9.6134 -15.2542,14.0536 -24.3843,10.7216 z m -2391.1362,-3.1612 c -9.2254,-1.7882 -15.2739,-10.4479 -14.3646,-20.5656 0.3972,-4.4214 65.3673,-179.2165 213.2988,-573.858 193.866,-517.18244 213.1034,-567.8535 216.9658,-571.48695 8.3512,-7.85644 23.3236,-6.67481 32.291,2.54842 4.8371,4.97504 13.7587,28.43619 216.8281,570.18853 116.4809,310.75 212.0863,567.3571 212.4561,570.2381 0.9365,7.2921 -0.2461,10.9219 -5.427,16.6565 -8.3333,9.224 -18.8156,9.0627 -28.8058,-0.4435 -5.4124,-5.1501 -6.0205,-6.6776 -62.0345,-155.8261 l -56.5685,-150.625 -294.4675,-0.3151 -294.4677,-0.3152 -57.152,152.1902 c -31.4336,83.7046 -57.9971,153.5028 -59.0297,155.1074 -1.0328,1.6044 -4.2245,3.9827 -7.0929,5.2849 -5.6624,2.5711 -5.5329,2.5583 -12.4296,1.2214 z m 705.4735,-363.4861 c -1.2814,-3.2656 -63.494,-168.5 -138.2503,-367.1875 -74.7563,-198.6875 -136.3074,-361.6732 -136.78,-362.19044 -0.5837,-0.63866 -262.6351,692.73574 -277.312,733.75294 -0.4462,1.247 55.4991,1.5625 277.0564,1.5625 l 277.6155,0 -2.3296,-5.9375 z"
       id="path8569"
       inkscape:connector-curvature="0" />
  </g>
</svg>
