<?xml version="1.0" encoding="UTF-8" standalone="no"?>
<!-- Created with Inkscape (http://www.inkscape.org/) -->

<svg
   xmlns:dc="http://purl.org/dc/elements/1.1/"
   xmlns:cc="http://creativecommons.org/ns#"
   xmlns:rdf="http://www.w3.org/1999/02/22-rdf-syntax-ns#"
   xmlns:svg="http://www.w3.org/2000/svg"
   xmlns="http://www.w3.org/2000/svg"
   xmlns:sodipodi="http://sodipodi.sourceforge.net/DTD/sodipodi-0.dtd"
   xmlns:inkscape="http://www.inkscape.org/namespaces/inkscape"
   id="svg2"
   version="1.1"
   inkscape:version="0.91 r13725"
   width="13.900974in"
   height="13.651155in"
   viewBox="0 0 1251.0877 1228.604"
   sodipodi:docname="surfboard circle logo vertical.svg">
  <metadata
     id="metadata8">
    <rdf:RDF>
      <cc:Work
         rdf:about="">
        <dc:format>image/svg+xml</dc:format>
        <dc:type
           rdf:resource="http://purl.org/dc/dcmitype/StillImage" />
        <dc:title></dc:title>
      </cc:Work>
    </rdf:RDF>
  </metadata>
  <defs
     id="defs6">
    <clipPath
       clipPathUnits="userSpaceOnUse"
       id="clipPath4138">
      <rect
         style="fill:#000000;fill-opacity:1;stroke:none;stroke-width:2.66400003;stroke-miterlimit:4;stroke-dasharray:none;stroke-opacity:1"
         id="rect4140"
         width="5189.9839"
         height="4964.332"
         x="1233.8381"
         y="167.6312" />
    </clipPath>
  </defs>
  <sodipodi:namedview
     pagecolor="#ffffff"
     bordercolor="#666666"
     borderopacity="1"
     objecttolerance="10"
     gridtolerance="10"
     guidetolerance="10"
     inkscape:pageopacity="0"
     inkscape:pageshadow="2"
     inkscape:window-width="2560"
     inkscape:window-height="1371"
     id="namedview4"
     showgrid="false"
     inkscape:zoom="0.92947696"
     inkscape:cx="649.32552"
     inkscape:cy="588.89247"
     inkscape:window-x="0"
     inkscape:window-y="27"
     inkscape:window-maximized="1"
     inkscape:current-layer="svg2"
     units="in"
     fit-margin-top="0"
     fit-margin-left="0"
     fit-margin-right="0"
     fit-margin-bottom="0" />
  <g
     id="g4138"
     transform="matrix(0.24792857,0,0,0.24792857,-305.90372,-43.756318)"
     clip-path="url(#clipPath4138)">
    <path
       style="fill:#fecb00"
       d="m 1232.4575,7887.1875 c -3.6715,-1.8531 -6.5263,-4.518 -8.3693,-7.8125 l -2.7971,-5 0,-572.5 0,-572.5 2.7971,-5 c 1.8452,-3.2985 4.7096,-5.9703 8.417,-7.8511 l 5.6198,-2.8511 152.5,0.4551 c 169.9664,0.5072 159.1035,-0.019 194.4769,9.4271 97.7407,26.1017 175.7339,104.482 201.318,202.3174 10.4112,39.8136 11.5472,88.5994 3.0067,129.1276 -15.6618,74.3225 -63.2573,141.2354 -129.1808,181.6112 l -10.3794,6.357 12.2544,2.7649 c 108.1515,24.4019 198.8122,106.1679 235.2252,212.1474 12.1588,35.388 16.902,64.9696 16.8753,105.2445 -0.027,41.1721 -4.1242,66.5621 -17.0378,105.5932 -11.2478,33.9959 -32.3781,72.5413 -55.5135,101.2663 -47.9933,59.5884 -119.4259,101.6042 -195.42,114.9437 -27.634,4.8508 -37.3498,5.0697 -225.0476,5.0708 l -183.1727,0 -5.5722,-2.8125 z m 387.2793,-41.0097 c 84.032,-9.1535 158.4517,-55.2047 205.3403,-127.0652 37.1039,-56.8646 52.7293,-128.6535 42.9019,-197.1067 -16.4651,-114.6885 -102.2146,-208.3219 -214.7259,-234.4681 -30.4477,-7.0757 -21.4732,-6.7724 -213.5656,-7.2171 l -177.1875,-0.4101 0,283.7948 0,283.7946 172.5493,0 c 112.831,0 176.7502,-0.4576 184.6875,-1.3222 z m -91.2628,-612.4502 c 85.924,-6.5546 159.0088,-55.1296 197.1708,-131.0471 46.341,-92.1885 28.559,-200.7733 -44.9105,-274.2427 -31.961,-31.961 -70.223,-53.6654 -114.3025,-64.8388 -28.6599,-7.2648 -30.6485,-7.349 -173.3708,-7.349 l -130.561,0 0,238.5416 c 0,131.198 0.375,238.9168 0.8334,239.375 1.365,1.365 246.8201,0.9586 265.1406,-0.439 z m 878.401,654.5006 c -4.6584,-2.0792 -10.0389,-7.7227 -11.7955,-12.3721 -0.9322,-2.4675 -1.3295,-174.0001 -1.3295,-574.1026 0,-476.3986 0.2788,-571.251 1.6888,-574.6256 2.287,-5.4735 9.789,-11.8229 15.1595,-12.8304 9.5942,-1.7999 19.1533,3.061 22.6967,11.5415 1.4314,3.4259 1.705,93.7515 1.705,562.8585 l 0,558.7777 307.1875,0.3249 c 288.827,0.3055 307.4244,0.4545 311.1515,2.4935 14.0026,7.6608 13.5401,29.2505 -0.789,36.828 l -5.4432,2.8784 -318.2409,-0.049 c -263.1028,-0.04 -318.8907,-0.339 -321.9909,-1.7228 z m 1130.5774,-1.0407 c -4.0745,-2.0546 -6.3353,-4.3154 -8.3899,-8.3899 l -2.8125,-5.5774 0,-571.3452 0,-571.3452 2.8125,-5.5774 c 7.0515,-13.9836 26.8514,-14.8315 35.959,-1.5399 l 3.1035,4.5294 0,573.9331 0,573.9331 -3.1035,4.5294 c -6.4387,9.3967 -17.211,12.0732 -27.5691,6.85 z m 996.9226,1.0407 c -4.6584,-2.0792 -10.0389,-7.7227 -11.7955,-12.3721 -0.9321,-2.4671 -1.3295,-170.3201 -1.3295,-561.5625 l 0,-558.0436 -194.6875,-0.012 c -138.188,0 -196.1304,-0.4075 -199.6594,-1.3873 -6.6497,-1.8461 -13.9454,-9.2695 -15.0861,-15.3506 -1.7669,-9.418 3.5086,-19.3194 12.4597,-23.3847 4.9295,-2.2389 18.7799,-2.3164 418.5759,-2.3429 452.164,-0.03 418.2738,-0.617 424.9854,7.3594 8.8724,10.5442 6.3711,26.492 -5.0453,32.1675 -4.4792,2.2268 -12.6073,2.3338 -201.2302,2.6483 L 4565,6756.275 l 0,558.49 0,558.49 -3.6082,5.6896 c -5.9576,9.394 -17.7129,13.431 -27.0168,9.2781 z m 889.3756,0.3674 c -9.532,-3.8009 -15.1069,-15.5956 -12.5625,-26.5782 0.6761,-2.9185 3.1045,-6.9105 6.0833,-10 4.4468,-4.6124 795.2286,-1089.8975 795.2286,-1091.3883 0,-0.3396 -177.3719,-0.7607 -394.1599,-0.9357 l -394.1597,-0.3184 -4.5734,-3.4883 c -2.5154,-1.9186 -5.2315,-4.7178 -6.0358,-6.2206 -6.1491,-11.4897 -1.7536,-25.9552 9.4302,-31.0344 4.9633,-2.254 18.155,-2.3277 421.7262,-2.3542 347.1182,-0.023 417.2768,0.2541 420.6445,1.6612 5.4766,2.2884 11.823,9.79 12.8319,15.1679 1.405,7.4891 -0.4331,15.1803 -4.6314,19.3785 -2.0796,2.0796 -182.9225,249.168 -401.873,549.0855 l -398.0919,545.3044 395.3837,0.625 395.3836,0.625 4.3707,2.5676 c 14.0295,8.2415 13.3399,29.1544 -1.2032,36.4949 l -5.5723,2.8125 -417.5476,-0.079 c -274.3275,-0.052 -418.6192,-0.5065 -420.672,-1.3251 z M 1232.4575,6374.6875 c -3.6715,-1.8531 -6.5263,-4.518 -8.3693,-7.8125 l -2.7971,-5 0,-572.5 0,-572.5 2.7971,-5 c 1.8452,-3.2985 4.7096,-5.9703 8.417,-7.8511 l 5.6198,-2.8511 152.5,0.4551 c 169.9664,0.5072 159.1035,-0.019 194.4769,9.4271 97.7407,26.1017 175.7339,104.482 201.318,202.3174 10.4112,39.8136 11.5472,88.5994 3.0067,129.1276 -15.6618,74.3225 -63.2573,141.2354 -129.1808,181.6112 l -10.3794,6.357 12.2544,2.7649 c 108.1515,24.4019 198.8122,106.1679 235.2252,212.1474 12.1588,35.388 16.902,64.9696 16.8753,105.2445 -0.027,41.1721 -4.1242,66.5621 -17.0378,105.5932 -11.2478,33.9959 -32.3781,72.5413 -55.5135,101.2663 -47.9933,59.5884 -119.4259,101.6042 -195.42,114.9437 -27.634,4.8508 -37.3498,5.0697 -225.0476,5.0708 l -183.1727,0 -5.5722,-2.8125 z m 387.2793,-41.0097 c 84.032,-9.1535 158.4517,-55.2047 205.3403,-127.0652 37.1039,-56.8646 52.7293,-128.6535 42.9019,-197.1067 -16.4651,-114.6885 -102.2146,-208.3219 -214.7259,-234.4681 -30.4477,-7.0757 -21.4732,-6.7724 -213.5656,-7.2171 l -177.1875,-0.4101 0,283.7948 0,283.7946 172.5493,0 c 112.831,0 176.7502,-0.4576 184.6875,-1.3222 z m -91.2628,-612.4502 c 85.924,-6.5546 159.0088,-55.1296 197.1708,-131.0471 46.341,-92.1885 28.559,-200.7733 -44.9105,-274.2427 -31.961,-31.961 -70.223,-53.6654 -114.3025,-64.8388 -28.6599,-7.2648 -30.6485,-7.349 -173.3708,-7.349 l -130.561,0 0,238.5416 c 0,131.198 0.375,238.9168 0.8334,239.375 1.365,1.365 246.8201,0.9586 265.1406,-0.439 z m 700.0926,653.7575 c -2.9771,-1.5755 -5.4703,-4.2962 -7.1875,-7.8433 l -2.6291,-5.431 0,-572.3082 0,-572.308 3.1074,-5.3022 c 2.0747,-3.5405 4.9106,-6.1753 8.5345,-7.9295 l 5.4272,-2.6274 318.2489,0.3198 318.2488,0.3197 3.4518,2.5773 c 6.3147,4.7146 8.4576,8.8055 8.97,17.1237 0.4068,6.604 0.032,8.4518 -2.4416,12.0591 -1.6071,2.343 -4.5101,5.4368 -6.4511,6.875 l -3.529,2.6149 -306.1585,0.3249 -306.1584,0.3249 0,261.8626 0,261.8626 268.1651,0 c 224.9268,0 268.8138,0.2775 272.1875,1.721 15.5265,6.6434 17.1049,26.983 2.9161,37.5768 l -3.4518,2.5772 -269.9084,0.3238 -269.9085,0.3237 0,262.4764 0,262.4764 306.1584,0.3248 306.1585,0.3249 3.529,2.6149 c 1.941,1.4382 4.844,4.532 6.4511,6.875 2.4742,3.6074 2.8484,5.4551 2.4416,12.0591 -0.5124,8.3183 -2.6553,12.4091 -8.97,17.1238 l -3.4518,2.5772 -319.5959,0.2613 c -313.5819,0.2563 -319.6817,0.2158 -324.1543,-2.1512 z m 2519.5584,1.1913 c -132.6094,-10.1216 -258.6848,-61.5915 -357.5,-145.9483 -18.2096,-15.5452 -49.9779,-47.1582 -66.1764,-65.8531 -156.0627,-180.1134 -188.5321,-432.9342 -82.7186,-644.0849 46.0552,-91.903 118.0294,-173.148 204.52,-230.8637 86.736,-57.8796 178.3062,-90.4244 287.5,-102.18 22.7833,-2.4528 92.4291,-2.051 117.5,0.6779 111.8455,12.1738 213.3614,50.1818 301.875,113.0235 17.8479,12.6713 22.5491,16.885 25.7345,23.065 2.7409,5.3173 3.0579,13.9991 0.6685,18.3078 -2.296,4.1405 -11.1974,9.8193 -16.9021,10.7832 -6.3625,1.0748 -11.4655,-1.1628 -23.5413,-10.3233 -65.2288,-49.4814 -145.7865,-85.2899 -229.7096,-102.1077 -132.3286,-26.5182 -268.5119,-7.7772 -385,52.9821 -142.6279,74.3935 -246.237,204.1381 -284.3997,356.1396 -11.1451,44.3909 -15.4084,80.202 -15.4268,129.5805 -0.015,38.8941 1.5348,58.4243 7.3671,92.8748 12.6119,74.4957 42.5271,148.5996 85.8859,212.7502 54.6068,80.7923 130.3096,146.4393 219.0735,189.9734 61.6238,30.2232 122.9575,47.829 194.6253,55.8667 24.1717,2.711 89.0233,3.0547 112.2497,0.5948 78.0621,-8.2675 140.0149,-25.5624 204.375,-57.054 25.9525,-12.6986 55.8075,-30.5525 77.5,-46.3464 23.8548,-17.3681 31.5374,-20.462 41.4811,-16.705 7.3052,2.7601 14.1685,11.6556 14.1164,18.2959 -0.044,5.6699 -4.2425,13.3049 -10.0476,18.274 -5.9031,5.0527 -36.56,26.063 -50.5499,34.6434 -82.7731,50.7675 -171.7215,81.2371 -268.125,91.8475 -21.6287,2.3805 -82.8595,3.4283 -104.375,1.7861 z m 790.5825,-1.4889 c -3.6715,-1.8531 -6.5262,-4.518 -8.3692,-7.8125 l -2.7972,-5 0,-572.5 0,-572.5 2.7972,-5 c 3.2238,-5.763 11.5493,-10.625 18.1938,-10.625 6.0908,0 13.7149,4.7481 17.2155,10.7214 l 3.0024,5.1232 0,275.2028 0,275.2026 334.375,0 334.375,0 0.095,-274.0625 c 0.071,-206.5926 0.4564,-274.9966 1.5625,-277.8571 4.8112,-12.4416 16.9824,-17.6273 28.0796,-11.9634 5.7285,2.9236 8.3591,5.7633 10.8401,11.7011 1.7207,4.1182 1.9227,64.4268 1.9227,574.0569 0,509.6301 -0.202,569.9388 -1.9227,574.0569 -2.481,5.9379 -5.1116,8.7775 -10.8401,11.7011 -11.0972,5.6639 -23.2684,0.4783 -28.0796,-11.9634 -1.1063,-2.8605 -1.4909,-71.4111 -1.5625,-278.4821 L 6237.5,5810 l -334.375,0 -334.375,0 0,275.7672 0,275.7674 -2.7991,4.9803 c -3.329,5.9231 -11.3278,10.9851 -17.3584,10.9851 -2.372,0 -6.8203,-1.2656 -9.885,-2.8125 z m -2389.9575,-2.219 c -8.0531,-1.8879 -14.9955,-13.9525 -13.0709,-22.7151 1.0991,-5.004 425.0028,-1135.7099 427.2956,-1139.7534 6.7328,-11.8734 27.2507,-11.7404 37.7739,0.2449 3.1156,3.5486 44.1968,112.0185 214.8869,567.3837 116.0691,309.648 211.8156,565.6316 212.7697,568.8524 2.359,7.9619 0.4939,14.6199 -5.8811,20.9949 -9.0564,9.0563 -22.353,7.477 -31.4154,-3.7315 -2.4876,-3.0768 -19.4826,-46.8967 -57.4463,-148.1194 -29.6524,-79.0625 -55.0224,-146.7031 -56.3778,-150.3125 l -2.4642,-6.5625 -293.9727,0.021 -293.9727,0.021 -57.2915,152.9691 c -44.8116,119.6475 -58.0176,153.6619 -60.625,156.1489 -5.7675,5.5014 -11.0751,6.6982 -20.2085,4.5572 z M 3857.5,6014.294 c 0,-1.3044 -275.3029,-732.4079 -276.1481,-733.3483 -0.4594,-0.511 -62.062,161.7703 -136.8948,360.625 -74.8326,198.8549 -137.0968,364.2262 -138.365,367.4918 l -2.3056,5.9375 276.8568,0 c 152.2712,0 276.8567,-0.3176 276.8567,-0.706 z m -193.75,-934.2436 c -91.2741,-3.3399 -193.0945,-12.9844 -285,-26.9955 -393.1759,-59.94 -773.8816,-218.5344 -1090,-454.0723 -275.6445,-205.381 -501.7785,-460.607 -670.2549,-756.4826 -87.4367,-153.5551 -164.0623,-331.0245 -213.4556,-494.375 -71.6575,-236.9815 -107.303,-475.3495 -107.4819,-718.75 -0.055,-74.2517 1.8378,-120.3804 8.1532,-198.75 11.2302,-139.3619 31.9205,-264.9419 66.3148,-402.5 34.3515,-137.387 84.2659,-279.282 148.0676,-420.9215 16.9003,-37.5185 60.6321,-123.8217 84.4091,-166.5785 24.9924,-44.9424 58.2523,-100.6876 83.5297,-140 C 1832.1114,1076.5471 2016.7399,872.54646 2225,707.31585 2530.4771,464.95464 2894.6384,296.99594 3277.3469,221.95186 3390.4254,199.77862 3498.6721,186.48845 3625,179.26815 c 47.3563,-2.70666 144.9508,-3.63854 198.2083,-1.89257 245.6197,8.05225 474.7127,48.89317 704.9167,125.66708 187.6166,62.57089 363.052,145.53447 528.75,250.04642 138.0577,87.0782 280.9252,199.00542 398.3541,312.08392 17.818,17.15793 77.6798,78.90845 99.2223,102.35304 274.166,298.37276 469.6258,657.79306 570.4701,1049.00626 44.3436,172.0252 70.7314,355.3155 76.352,530.3427 7.5262,234.3655 -18.0919,467.903 -76.2387,695 -48.6923,190.1713 -124.3018,381.797 -220.7698,559.5217 -190.6682,351.2719 -466.7944,652.145 -801.14,872.9401 -285.7324,188.6917 -597.871,312.554 -937.038,371.8337 -67.9406,11.8746 -161.2464,23.0466 -234.837,28.1181 -25.0937,1.7294 -54.3437,3.7408 -65,4.4698 -24.6021,1.6831 -166.9842,2.5915 -202.5,1.292 z m 160.625,-97.5322 c 32.0445,-1.0775 85.7814,-4.265 128.125,-7.5997 20.6023,-1.6226 98.6659,-10.2399 124.375,-13.7296 110.0605,-14.9393 240.2835,-43.5818 354.6962,-78.0153 165.3623,-49.7672 325.2829,-118.1797 477.1788,-204.1324 282.6877,-159.9635 531.1992,-378.0813 724.5276,-635.9162 112.2513,-149.7053 204.3117,-308.5888 278.8464,-481.25 110.1904,-255.2583 171.0243,-512.4584 189.0711,-799.375 4.0945,-65.0961 4.7215,-185.233 1.272,-243.75 -0.7092,-12.0313 -1.8077,-30.5938 -2.4412,-41.25 -4.4519,-74.8938 -16.041,-172.2183 -30.1411,-253.125 -29.2604,-167.8958 -77.6524,-335.2964 -142.3714,-492.5 -100.4302,-243.9461 -243.1835,-472.0916 -418.836,-669.375 -58.1199,-65.27703 -126.091,-133.54517 -186.1837,-186.9973 -257.7,-229.22261 -549.3786,-394.83999 -871.8687,-495.05365 -229.0143,-71.1661 -465.4062,-106.68706 -710,-106.68671 -97.1536,1.3e-4 -228.3375,9.74035 -329.8899,24.49383 -166.5598,24.19778 -323.9251,64.63212 -484.4851,124.48637 -267.4571,99.70386 -516.6505,248.33982 -728.7047,434.64942 -72.1662,63.40464 -154.1141,145.38424 -216.2744,216.35804 -98.8958,112.9176 -186.0642,233.3601 -259.9336,359.1556 -53.4188,90.9692 -102.8517,189.6768 -143.1513,285.8444 -87.5424,208.9041 -143.2192,423.1103 -168.137,646.875 -16.1954,145.437 -19.1254,275.7804 -9.4413,420 18.7505,279.2381 85.522,549.0045 198.4945,801.9468 158.0009,353.7591 392.9369,654.7949 699.0228,895.6946 326.235,256.7575 727.811,425.4675 1141.9845,479.77 71.3641,9.3565 126.2855,14.28 203.0155,18.1996 48.517,2.4784 128.7879,3.0462 181.25,1.2822 z M 2717.972,4292.35 c 0.5756,-2.5335 412.5194,-1455.881 415.2916,-1465.1587 0.6189,-2.0714 -9.9682,-2.2002 -205.5447,-2.5 l -206.1973,-0.3163 181.5803,-597.2369 c 99.869,-328.4802 181.7922,-597.4116 182.0516,-597.6252 0.2594,-0.2138 39.284,0.3382 86.7215,1.2265 133.2739,2.4955 215.5965,4.0114 401.875,7.4 94.5312,1.7196 175.6209,3.2636 180.1991,3.4311 l 8.3241,0.3045 -177.3027,397.4798 c -97.5165,218.6137 -177.0936,397.6887 -176.8381,397.9442 0.2555,0.2556 93.6997,4.356 207.6536,9.112 113.954,4.7561 207.3776,8.8359 207.608,9.0664 0.3511,0.3511 -1012.9849,1686.3548 -1083.0666,1802.0226 -12.7048,20.9687 -22.7647,36.6512 -22.3554,34.85 z m 1013.6709,-43.4215 c -10.2933,-3.5569 -15.986,-8.1265 -26.3401,-21.1438 -21.4455,-26.9611 -38.2777,-56.9292 -57.3597,-102.1238 -47.6075,-112.7556 -87.5467,-303.9243 -110.9974,-531.2859 -7.7022,-74.6766 -17.8421,-212.5434 -20.6393,-280.625 -0.7203,-17.5312 -1.5974,-37.0195 -1.9491,-43.3071 l -0.6394,-11.432 282.9021,-470.443 282.9023,-470.4429 -11.3237,-0.8605 c -6.228,-0.4732 -33.5423,-1.7515 -60.6986,-2.8405 -27.1562,-1.089 -62.3125,-2.5301 -78.125,-3.2025 -29.1512,-1.2396 -79.4308,-3.3365 -164.375,-6.855 -114.3917,-4.7384 -132.8499,-5.555 -133.0984,-5.8879 -0.1452,-0.1945 80.0495,-180.3536 178.2105,-400.3536 l 178.4747,-400 -34.6059,-0.9659 c -19.0333,-0.5311 -75.7874,-1.6813 -126.1204,-2.5561 -50.3329,-0.8746 -91.81,-1.8859 -92.1712,-2.2471 -1.3574,-1.3574 20.2303,-57.7709 38.6902,-101.1059 46.2571,-108.5904 98.6974,-202.973 153.1411,-275.625 34.976,-46.6735 79.575,-95.9289 96.0073,-106.031 7.7444,-4.761 7.8101,-4.7758 15.7125,-3.5455 8.7856,1.3678 15.5924,4.4524 21.6152,9.7953 2.1893,1.9422 13.5285,13.7914 25.1982,26.3315 81.9655,88.0794 150.3852,199.3244 213.9251,347.8247 47.7879,111.6861 88.5757,237.3608 126.8206,390.7559 34.9326,140.1104 63.9424,296.9845 87.5031,473.1846 11.5884,86.6641 31.2602,286.1649 35.7873,362.9345 0.6486,11 2.0155,33.2188 3.0374,49.375 7.9338,125.4345 11.0616,232.9285 11.057,380 0,125.2958 -2.1778,212.4938 -7.9154,317.5 -2.0886,38.2246 -7.0234,106.6283 -11.9934,166.25 -3.617,43.3894 -19.4546,179.4504 -26.1175,224.375 -20.9001,140.9191 -50.7007,267.2915 -82.5355,350 -14.7645,38.3589 -33.7775,77.283 -48.5409,99.375 -18.3337,27.4346 -30.7561,40.8891 -41.445,44.8883 l -6.9803,2.6117 -300.2657,-0.041 c -285.3381,-0.039 -300.5878,-0.1523 -306.7477,-2.2808 z"
       id="path4144"
       inkscape:connector-curvature="0" />
    <path
       style="fill:#003365"
       d="m 1232.4575,7887.1875 c -3.6715,-1.8531 -6.5263,-4.518 -8.3693,-7.8125 l -2.7971,-5 0,-572.5 0,-572.5 2.7971,-5 c 1.8452,-3.2985 4.7096,-5.9703 8.417,-7.8511 l 5.6198,-2.8511 152.5,0.4551 c 169.9664,0.5072 159.1035,-0.019 194.4769,9.4271 97.7407,26.1017 175.7339,104.482 201.318,202.3174 10.4112,39.8136 11.5472,88.5994 3.0067,129.1276 -15.6618,74.3225 -63.2573,141.2354 -129.1808,181.6112 l -10.3794,6.357 12.2544,2.7649 c 108.1515,24.4019 198.8122,106.1679 235.2252,212.1474 12.1588,35.388 16.902,64.9696 16.8753,105.2445 -0.027,41.1721 -4.1242,66.5621 -17.0378,105.5932 -11.2478,33.9959 -32.3781,72.5413 -55.5135,101.2663 -47.9933,59.5884 -119.4259,101.6042 -195.42,114.9437 -27.634,4.8508 -37.3498,5.0697 -225.0476,5.0708 l -183.1727,0 -5.5722,-2.8125 z m 387.2793,-41.0097 c 84.032,-9.1535 158.4517,-55.2047 205.3403,-127.0652 37.1039,-56.8646 52.7293,-128.6535 42.9019,-197.1067 -16.4651,-114.6885 -102.2146,-208.3219 -214.7259,-234.4681 -30.4477,-7.0757 -21.4732,-6.7724 -213.5656,-7.2171 l -177.1875,-0.4101 0,283.7948 0,283.7946 172.5493,0 c 112.831,0 176.7502,-0.4576 184.6875,-1.3222 z m -91.2628,-612.4502 c 85.924,-6.5546 159.0088,-55.1296 197.1708,-131.0471 46.341,-92.1885 28.559,-200.7733 -44.9105,-274.2427 -31.961,-31.961 -70.223,-53.6654 -114.3025,-64.8388 -28.6599,-7.2648 -30.6485,-7.349 -173.3708,-7.349 l -130.561,0 0,238.5416 c 0,131.198 0.375,238.9168 0.8334,239.375 1.365,1.365 246.8201,0.9586 265.1406,-0.439 z m 878.401,654.5006 c -4.6584,-2.0792 -10.0389,-7.7227 -11.7955,-12.3721 -0.9322,-2.4675 -1.3295,-174.0001 -1.3295,-574.1026 0,-476.3986 0.2788,-571.251 1.6888,-574.6256 2.287,-5.4735 9.789,-11.8229 15.1595,-12.8304 9.5942,-1.7999 19.1533,3.061 22.6967,11.5415 1.4314,3.4259 1.705,93.7515 1.705,562.8585 l 0,558.7777 307.1875,0.3249 c 288.827,0.3055 307.4244,0.4545 311.1515,2.4935 14.0026,7.6608 13.5401,29.2505 -0.789,36.828 l -5.4432,2.8784 -318.2409,-0.049 c -263.1028,-0.04 -318.8907,-0.339 -321.9909,-1.7228 z m 1130.5774,-1.0407 c -4.0745,-2.0546 -6.3353,-4.3154 -8.3899,-8.3899 l -2.8125,-5.5774 0,-571.3452 0,-571.3452 2.8125,-5.5774 c 7.0515,-13.9836 26.8514,-14.8315 35.959,-1.5399 l 3.1035,4.5294 0,573.9331 0,573.9331 -3.1035,4.5294 c -6.4387,9.3967 -17.211,12.0732 -27.5691,6.85 z m 996.9226,1.0407 c -4.6584,-2.0792 -10.0389,-7.7227 -11.7955,-12.3721 -0.9321,-2.4671 -1.3295,-170.3201 -1.3295,-561.5625 l 0,-558.0436 -194.6875,-0.012 c -138.188,0 -196.1304,-0.4075 -199.6594,-1.3873 -6.6497,-1.8461 -13.9454,-9.2695 -15.0861,-15.3506 -1.7669,-9.418 3.5086,-19.3194 12.4597,-23.3847 4.9295,-2.2389 18.7799,-2.3164 418.5759,-2.3429 452.164,-0.03 418.2738,-0.617 424.9854,7.3594 8.8724,10.5442 6.3711,26.492 -5.0453,32.1675 -4.4792,2.2268 -12.6073,2.3338 -201.2302,2.6483 L 4565,6756.275 l 0,558.49 0,558.49 -3.6082,5.6896 c -5.9576,9.394 -17.7129,13.431 -27.0168,9.2781 z m 889.3756,0.3674 c -9.532,-3.8009 -15.1069,-15.5956 -12.5625,-26.5782 0.6761,-2.9185 3.1045,-6.9105 6.0833,-10 4.4468,-4.6124 795.2286,-1089.8975 795.2286,-1091.3883 0,-0.3396 -177.3719,-0.7607 -394.1599,-0.9357 l -394.1597,-0.3184 -4.5734,-3.4883 c -2.5154,-1.9186 -5.2315,-4.7178 -6.0358,-6.2206 -6.1491,-11.4897 -1.7536,-25.9552 9.4302,-31.0344 4.9633,-2.254 18.155,-2.3277 421.7262,-2.3542 347.1182,-0.023 417.2768,0.2541 420.6445,1.6612 5.4766,2.2884 11.823,9.79 12.8319,15.1679 1.405,7.4891 -0.4331,15.1803 -4.6314,19.3785 -2.0796,2.0796 -182.9225,249.168 -401.873,549.0855 l -398.0919,545.3044 395.3837,0.625 395.3836,0.625 4.3707,2.5676 c 14.0295,8.2415 13.3399,29.1544 -1.2032,36.4949 l -5.5723,2.8125 -417.5476,-0.079 c -274.3275,-0.052 -418.6192,-0.5065 -420.672,-1.3251 z M 1232.4575,6374.6875 c -3.6715,-1.8531 -6.5263,-4.518 -8.3693,-7.8125 l -2.7971,-5 0,-572.5 0,-572.5 2.7971,-5 c 1.8452,-3.2985 4.7096,-5.9703 8.417,-7.8511 l 5.6198,-2.8511 152.5,0.4551 c 169.9664,0.5072 159.1035,-0.019 194.4769,9.4271 97.7407,26.1017 175.7339,104.482 201.318,202.3174 10.4112,39.8136 11.5472,88.5994 3.0067,129.1276 -15.6618,74.3225 -63.2573,141.2354 -129.1808,181.6112 l -10.3794,6.357 12.2544,2.7649 c 108.1515,24.4019 198.8122,106.1679 235.2252,212.1474 12.1588,35.388 16.902,64.9696 16.8753,105.2445 -0.027,41.1721 -4.1242,66.5621 -17.0378,105.5932 -11.2478,33.9959 -32.3781,72.5413 -55.5135,101.2663 -47.9933,59.5884 -119.4259,101.6042 -195.42,114.9437 -27.634,4.8508 -37.3498,5.0697 -225.0476,5.0708 l -183.1727,0 -5.5722,-2.8125 z m 387.2793,-41.0097 c 84.032,-9.1535 158.4517,-55.2047 205.3403,-127.0652 37.1039,-56.8646 52.7293,-128.6535 42.9019,-197.1067 -16.4651,-114.6885 -102.2146,-208.3219 -214.7259,-234.4681 -30.4477,-7.0757 -21.4732,-6.7724 -213.5656,-7.2171 l -177.1875,-0.4101 0,283.7948 0,283.7946 172.5493,0 c 112.831,0 176.7502,-0.4576 184.6875,-1.3222 z m -91.2628,-612.4502 c 85.924,-6.5546 159.0088,-55.1296 197.1708,-131.0471 46.341,-92.1885 28.559,-200.7733 -44.9105,-274.2427 -31.961,-31.961 -70.223,-53.6654 -114.3025,-64.8388 -28.6599,-7.2648 -30.6485,-7.349 -173.3708,-7.349 l -130.561,0 0,238.5416 c 0,131.198 0.375,238.9168 0.8334,239.375 1.365,1.365 246.8201,0.9586 265.1406,-0.439 z m 700.0926,653.7575 c -2.9771,-1.5755 -5.4703,-4.2962 -7.1875,-7.8433 l -2.6291,-5.431 0,-572.3082 0,-572.308 3.1074,-5.3022 c 2.0747,-3.5405 4.9106,-6.1753 8.5345,-7.9295 l 5.4272,-2.6274 318.2489,0.3198 318.2488,0.3197 3.4518,2.5773 c 6.3147,4.7146 8.4576,8.8055 8.97,17.1237 0.4068,6.604 0.032,8.4518 -2.4416,12.0591 -1.6071,2.343 -4.5101,5.4368 -6.4511,6.875 l -3.529,2.6149 -306.1585,0.3249 -306.1584,0.3249 0,261.8626 0,261.8626 268.1651,0 c 224.9268,0 268.8138,0.2775 272.1875,1.721 15.5265,6.6434 17.1049,26.983 2.9161,37.5768 l -3.4518,2.5772 -269.9084,0.3238 -269.9085,0.3237 0,262.4764 0,262.4764 306.1584,0.3248 306.1585,0.3249 3.529,2.6149 c 1.941,1.4382 4.844,4.532 6.4511,6.875 2.4742,3.6074 2.8484,5.4551 2.4416,12.0591 -0.5124,8.3183 -2.6553,12.4091 -8.97,17.1238 l -3.4518,2.5772 -319.5959,0.2613 c -313.5819,0.2563 -319.6817,0.2158 -324.1543,-2.1512 z m 2519.5584,1.1913 c -132.6094,-10.1216 -258.6848,-61.5915 -357.5,-145.9483 -18.2096,-15.5452 -49.9779,-47.1582 -66.1764,-65.8531 -156.0627,-180.1134 -188.5321,-432.9342 -82.7186,-644.0849 46.0552,-91.903 118.0294,-173.148 204.52,-230.8637 86.736,-57.8796 178.3062,-90.4244 287.5,-102.18 22.7833,-2.4528 92.4291,-2.051 117.5,0.6779 111.8455,12.1738 213.3614,50.1818 301.875,113.0235 17.8479,12.6713 22.5491,16.885 25.7345,23.065 2.7409,5.3173 3.0579,13.9991 0.6685,18.3078 -2.296,4.1405 -11.1974,9.8193 -16.9021,10.7832 -6.3625,1.0748 -11.4655,-1.1628 -23.5413,-10.3233 -65.2288,-49.4814 -145.7865,-85.2899 -229.7096,-102.1077 -132.3286,-26.5182 -268.5119,-7.7772 -385,52.9821 -142.6279,74.3935 -246.237,204.1381 -284.3997,356.1396 -11.1451,44.3909 -15.4084,80.202 -15.4268,129.5805 -0.015,38.8941 1.5348,58.4243 7.3671,92.8748 12.6119,74.4957 42.5271,148.5996 85.8859,212.7502 54.6068,80.7923 130.3096,146.4393 219.0735,189.9734 61.6238,30.2232 122.9575,47.829 194.6253,55.8667 24.1717,2.711 89.0233,3.0547 112.2497,0.5948 78.0621,-8.2675 140.0149,-25.5624 204.375,-57.054 25.9525,-12.6986 55.8075,-30.5525 77.5,-46.3464 23.8548,-17.3681 31.5374,-20.462 41.4811,-16.705 7.3052,2.7601 14.1685,11.6556 14.1164,18.2959 -0.044,5.6699 -4.2425,13.3049 -10.0476,18.274 -5.9031,5.0527 -36.56,26.063 -50.5499,34.6434 -82.7731,50.7675 -171.7215,81.2371 -268.125,91.8475 -21.6287,2.3805 -82.8595,3.4283 -104.375,1.7861 z m 790.5825,-1.4889 c -3.6715,-1.8531 -6.5262,-4.518 -8.3692,-7.8125 l -2.7972,-5 0,-572.5 0,-572.5 2.7972,-5 c 3.2238,-5.763 11.5493,-10.625 18.1938,-10.625 6.0908,0 13.7149,4.7481 17.2155,10.7214 l 3.0024,5.1232 0,275.2028 0,275.2026 334.375,0 334.375,0 0.095,-274.0625 c 0.071,-206.5926 0.4564,-274.9966 1.5625,-277.8571 4.8112,-12.4416 16.9824,-17.6273 28.0796,-11.9634 5.7285,2.9236 8.3591,5.7633 10.8401,11.7011 1.7207,4.1182 1.9227,64.4268 1.9227,574.0569 0,509.6301 -0.202,569.9388 -1.9227,574.0569 -2.481,5.9379 -5.1116,8.7775 -10.8401,11.7011 -11.0972,5.6639 -23.2684,0.4783 -28.0796,-11.9634 -1.1063,-2.8605 -1.4909,-71.4111 -1.5625,-278.4821 L 6237.5,5810 l -334.375,0 -334.375,0 0,275.7672 0,275.7674 -2.7991,4.9803 c -3.329,5.9231 -11.3278,10.9851 -17.3584,10.9851 -2.372,0 -6.8203,-1.2656 -9.885,-2.8125 z m -2389.9575,-2.219 c -8.0531,-1.8879 -14.9955,-13.9525 -13.0709,-22.7151 1.0991,-5.004 425.0028,-1135.7099 427.2956,-1139.7534 6.7328,-11.8734 27.2507,-11.7404 37.7739,0.2449 3.1156,3.5486 44.1968,112.0185 214.8869,567.3837 116.0691,309.648 211.8156,565.6316 212.7697,568.8524 2.359,7.9619 0.4939,14.6199 -5.8811,20.9949 -9.0564,9.0563 -22.353,7.477 -31.4154,-3.7315 -2.4876,-3.0768 -19.4826,-46.8967 -57.4463,-148.1194 -29.6524,-79.0625 -55.0224,-146.7031 -56.3778,-150.3125 l -2.4642,-6.5625 -293.9727,0.021 -293.9727,0.021 -57.2915,152.9691 c -44.8116,119.6475 -58.0176,153.6619 -60.625,156.1489 -5.7675,5.5014 -11.0751,6.6982 -20.2085,4.5572 z M 3857.5,6014.294 c 0,-1.3044 -275.3029,-732.4079 -276.1481,-733.3483 -0.4594,-0.511 -62.062,161.7703 -136.8948,360.625 -74.8326,198.8549 -137.0968,364.2262 -138.365,367.4918 l -2.3056,5.9375 276.8568,0 c 152.2712,0 276.8567,-0.3176 276.8567,-0.706 z m -193.75,-934.2436 c -91.2741,-3.3399 -193.0945,-12.9844 -285,-26.9955 -393.1759,-59.94 -773.8816,-218.5344 -1090,-454.0723 -275.6445,-205.381 -501.7785,-460.607 -670.2549,-756.4826 -87.4367,-153.5551 -164.0623,-331.0245 -213.4556,-494.375 -71.6575,-236.9815 -107.303,-475.3495 -107.4819,-718.75 -0.055,-74.2517 1.8378,-120.3804 8.1532,-198.75 11.2302,-139.3619 31.9205,-264.9419 66.3148,-402.5 34.3515,-137.387 84.2659,-279.282 148.0676,-420.9215 16.9003,-37.5185 60.6321,-123.8217 84.4091,-166.5785 24.9924,-44.9424 58.2523,-100.6876 83.5297,-140 C 1832.1114,1076.5471 2016.7399,872.54646 2225,707.31585 2530.4771,464.95464 2894.6384,296.99594 3277.3469,221.95186 3390.4254,199.77862 3498.6721,186.48845 3625,179.26815 c 47.3563,-2.70666 144.9508,-3.63854 198.2083,-1.89257 245.6197,8.05225 474.7127,48.89317 704.9167,125.66708 187.6166,62.57089 363.052,145.53447 528.75,250.04642 138.0577,87.0782 280.9252,199.00542 398.3541,312.08392 17.818,17.15793 77.6798,78.90845 99.2223,102.35304 274.166,298.37276 469.6258,657.79306 570.4701,1049.00626 44.3436,172.0252 70.7314,355.3155 76.352,530.3427 7.5262,234.3655 -18.0919,467.903 -76.2387,695 -48.6923,190.1713 -124.3018,381.797 -220.7698,559.5217 -190.6682,351.2719 -466.7944,652.145 -801.14,872.9401 -285.7324,188.6917 -597.871,312.554 -937.038,371.8337 -67.9406,11.8746 -161.2464,23.0466 -234.837,28.1181 -25.0937,1.7294 -54.3437,3.7408 -65,4.4698 -24.6021,1.6831 -166.9842,2.5915 -202.5,1.292 z m 160.625,-97.5322 c 32.0445,-1.0775 85.7814,-4.265 128.125,-7.5997 20.6023,-1.6226 98.6659,-10.2399 124.375,-13.7296 110.0605,-14.9393 240.2835,-43.5818 354.6962,-78.0153 165.3623,-49.7672 325.2829,-118.1797 477.1788,-204.1324 282.6877,-159.9635 531.1992,-378.0813 724.5276,-635.9162 112.2513,-149.7053 204.3117,-308.5888 278.8464,-481.25 110.1904,-255.2583 171.0243,-512.4584 189.0711,-799.375 4.0945,-65.0961 4.7215,-185.233 1.272,-243.75 -0.7092,-12.0313 -1.8077,-30.5938 -2.4412,-41.25 -4.4519,-74.8938 -16.041,-172.2183 -30.1411,-253.125 -29.2604,-167.8958 -77.6524,-335.2964 -142.3714,-492.5 -100.4302,-243.9461 -243.1835,-472.0916 -418.836,-669.375 -58.1199,-65.27703 -126.091,-133.54517 -186.1837,-186.9973 -257.7,-229.22261 -549.3786,-394.83999 -871.8687,-495.05365 -229.0143,-71.1661 -465.4062,-106.68706 -710,-106.68671 -97.1536,1.3e-4 -228.3375,9.74035 -329.8899,24.49383 -166.5598,24.19778 -323.9251,64.63212 -484.4851,124.48637 -267.4571,99.70386 -516.6505,248.33982 -728.7047,434.64942 -72.1662,63.40464 -154.1141,145.38424 -216.2744,216.35804 -98.8958,112.9176 -186.0642,233.3601 -259.9336,359.1556 -53.4188,90.9692 -102.8517,189.6768 -143.1513,285.8444 -87.5424,208.9041 -143.2192,423.1103 -168.137,646.875 -16.1954,145.437 -19.1254,275.7804 -9.4413,420 18.7505,279.2381 85.522,549.0045 198.4945,801.9468 158.0009,353.7591 392.9369,654.7949 699.0228,895.6946 326.235,256.7575 727.811,425.4675 1141.9845,479.77 71.3641,9.3565 126.2855,14.28 203.0155,18.1996 48.517,2.4784 128.7879,3.0462 181.25,1.2822 z m -92.7321,-733.5897 c -10.2933,-3.5569 -15.986,-8.1265 -26.3401,-21.1438 -21.4455,-26.9611 -38.2777,-56.9292 -57.3597,-102.1238 -47.6075,-112.7557 -87.5467,-303.9243 -110.9974,-531.2859 -7.7022,-74.6766 -17.8421,-212.5434 -20.6393,-280.625 -0.7203,-17.5312 -1.5974,-37.0195 -1.9491,-43.3071 l -0.6394,-11.432 282.9021,-470.443 282.9023,-470.4429 -11.3237,-0.8605 c -6.228,-0.4732 -33.5423,-1.7515 -60.6986,-2.8405 -27.1562,-1.089 -62.3125,-2.5301 -78.125,-3.2025 -29.1512,-1.2396 -79.4308,-3.3365 -164.375,-6.855 -114.3917,-4.7384 -132.8499,-5.555 -133.0984,-5.8879 -0.1452,-0.1945 80.0495,-180.3536 178.2105,-400.3536 l 178.4747,-400 -34.6059,-0.9659 c -19.0333,-0.5311 -75.7874,-1.6813 -126.1204,-2.5561 -50.3329,-0.8746 -91.81,-1.8859 -92.1712,-2.2471 -1.3574,-1.3574 20.2303,-57.7709 38.6902,-101.1059 46.2571,-108.5904 98.6974,-202.973 153.1411,-275.625 34.976,-46.6735 79.575,-95.9289 96.0073,-106.031 7.7444,-4.761 7.8101,-4.7758 15.7125,-3.5455 8.7856,1.3678 15.5924,4.4524 21.6152,9.7953 2.1893,1.9422 13.5285,13.7914 25.1982,26.3315 81.9655,88.0794 150.3852,199.3244 213.9251,347.8247 47.7879,111.6861 88.5757,237.3608 126.8206,390.7559 34.9326,140.1103 63.9424,296.9845 87.5031,473.1846 11.5884,86.6641 31.2602,286.1649 35.7873,362.9345 0.6486,11 2.0155,33.2188 3.0374,49.375 7.9338,125.4345 11.0616,232.9285 11.057,380 0,125.2958 -2.1778,212.4937 -7.9154,317.5 -2.0886,38.2246 -7.0234,106.6282 -11.9934,166.25 -3.617,43.3894 -19.4546,179.4504 -26.1175,224.375 -20.9001,140.9191 -50.7007,267.2915 -82.5355,350 -14.7645,38.3589 -33.7775,77.283 -48.5409,99.375 -18.3337,27.4346 -30.7561,40.8891 -41.445,44.8882 l -6.9803,2.6118 -300.2657,-0.041 c -285.3381,-0.039 -300.5878,-0.1522 -306.7477,-2.2807 z"
       id="path4142"
       inkscape:connector-curvature="0" />
    <path
       style="fill:#000000"
       d="m 1235.7966,7888.2022 c -6.383,-2.3193 -11.7725,-7.6414 -13.2975,-13.1312 -1.7374,-6.2537 -1.6995,-1140.2742 0.038,-1146.5306 1.5826,-5.6978 8.2812,-11.7413 15.0276,-13.5579 3.6146,-0.9733 47.9002,-1.2339 152.204,-0.8956 157.9447,0.5121 152.9283,0.3195 183.7927,7.0557 68.691,14.9921 133.4445,59.4055 173.6961,119.1355 86.5228,128.3925 51.8735,303.0238 -77.2577,389.3769 -5.1563,3.4481 -11.7613,7.6081 -14.6779,9.2446 -2.9166,1.6365 -5.3072,3.3279 -5.3125,3.7588 0,0.4308 5.4635,2.0481 12.1529,3.594 45.2559,10.4576 87.3374,30.4532 125.9625,59.8528 16.1857,12.3199 46.2297,42.3455 58.3052,58.2698 36.8224,48.5582 57.6063,98.9862 65.4202,158.7285 2.5007,19.1199 2.5356,57.3887 0.071,78.2914 -6.8167,57.8187 -28.5069,112.2307 -63.4736,159.2301 -20.1848,27.1306 -56.2816,60.2001 -87.198,79.8849 -26.3468,16.7751 -68.9285,34.116 -101.25,41.2327 -35.1806,7.7463 -25.5049,7.4185 -231.25,7.8341 -159.0435,0.3213 -188.8714,0.1088 -192.9534,-1.3745 z m 393.5784,-42.4642 c 85.1173,-13.9466 154.9291,-59.9384 199.3399,-131.324 9.3084,-14.9623 22.1501,-42.7339 27.9731,-60.495 34.0186,-103.7611 7.7041,-215.789 -68.594,-292.0225 -44.9266,-44.8885 -105.0912,-73.6828 -168.3572,-80.5742 -7.9373,-0.8647 -71.8565,-1.3223 -184.6875,-1.3223 l -172.5493,0 0,284.4274 0,284.4274 176.5625,-0.4319 c 162.9488,-0.3985 177.6228,-0.6055 190.3125,-2.6849 z m -92.945,-612.0445 c 16.4436,-1.6596 37.8456,-6.4154 54.049,-12.0101 96.3091,-33.254 161.4101,-124.5445 161.2068,-226.0584 -0.1957,-97.6376 -62.293,-186.7074 -155.555,-223.1211 -15.6069,-6.0937 -30.5298,-10.2638 -49.8808,-13.939 -14.1102,-2.6799 -16.8555,-2.7392 -149.0625,-3.2143 l -134.6875,-0.484 0,240.0666 0,240.0668 130.4925,0 c 81.6679,0 135.3361,-0.4889 143.4375,-1.3065 z m 873.7235,655.06 c -6.1011,-1.4492 -10.3847,-5.0042 -13.591,-11.279 l -2.8125,-5.5043 0.028,-570.0476 c 0.026,-557.2977 0.08,-570.1646 2.4019,-575.2775 3.2508,-7.1603 10.5807,-11.904 18.5807,-12.0246 7.9439,-0.12 13.6137,3.2424 17.3351,10.2798 l 2.9048,5.493 0,559.1783 0,559.1784 306.2901,0 c 256.6734,0 306.9418,0.2776 310.3125,1.7139 15.1727,6.465 15.4578,28.5501 0.4745,36.7486 -3.7145,2.0325 -23.0023,2.174 -320.8271,2.3531 -174.2812,0.105 -318.7746,-0.2606 -321.0965,-0.8121 z m 1131.0965,-0.1792 c -5.0135,-1.4645 -9.455,-5.1954 -11.9937,-10.0747 -1.5009,-2.8846 -1.7563,-86.7345 -1.7563,-576.6246 0,-489.8901 0.2554,-573.74 1.7563,-576.6246 2.8232,-5.4263 7.2117,-8.7585 13.3447,-10.133 10.483,-2.3493 21.0619,3.0845 23.6784,12.1622 0.9266,3.2144 1.2151,176.7014 0.9601,577.3163 l -0.3645,572.7209 -2.6306,3.5291 c -5.1873,6.9589 -14.6923,10.1535 -22.9944,7.7284 z m 996.4035,0.1853 c -5.5171,-1.3185 -10.1795,-4.8791 -13.2785,-10.1402 -2.4886,-4.2252 -2.5015,-6.7834 -2.8208,-563.9319 L 4521.2335,6755 l -196.9165,0 c -195.7475,0 -196.9463,-0.015 -201.9159,-2.5504 -6.5511,-3.3422 -9.8905,-8.9348 -9.8965,-16.5742 -0.012,-10.0695 6.2878,-18.1941 16.1578,-20.8518 3.2692,-0.8803 136.2156,-1.1896 417.1306,-0.9703 l 412.332,0.3217 4.7264,2.9385 c 13.0741,8.1284 12.8545,28.8496 -0.3763,35.497 -4.0862,2.0531 -16.271,2.1858 -200.9126,2.1875 l -196.5625,0 0,557.5401 c 0,500.4049 -0.1983,558.0147 -1.9346,562.1705 -4.5223,10.8232 -14.9009,16.561 -25.4119,14.049 z m 889.1954,0.079 c -9.3691,-2.2469 -15.5989,-10.467 -15.5989,-20.5824 0,-7.1704 1.7915,-11.9809 5.6474,-15.1644 1.6875,-1.3932 181.6171,-247.7682 399.8435,-547.5 L 6213.5161,6760.625 5820.1955,6760 c -381.7729,-0.6066 -393.4594,-0.694 -398.0506,-2.9751 -9.1405,-4.5415 -13.4189,-17.3144 -9.1899,-27.4359 2.1739,-5.2028 8.3126,-10.3791 14.2714,-12.034 5.9817,-1.6613 827.3962,-1.7678 834.5518,-0.1075 6.8645,1.592 10.8734,4.8642 14.28,11.6559 4.209,8.3913 2.9657,16.7861 -3.5387,23.8921 -4.409,4.8169 -800.0195,1093.9704 -800.0195,1095.1892 0,0.3113 177.8536,0.5659 395.2304,0.5659 l 395.2303,0 5.3195,2.5751 c 11.9504,5.7852 13.8949,23.2135 3.5986,32.2539 -2.3708,2.0815 -6.4352,4.3746 -9.0322,5.0959 -5.4482,1.513 -829.6986,1.6742 -835.9977,0.1636 z M 1235.7966,6375.7022 c -6.383,-2.3193 -11.7725,-7.6414 -13.2975,-13.1312 -1.7374,-6.2537 -1.6995,-1140.2742 0.038,-1146.5306 1.5826,-5.6978 8.2812,-11.7413 15.0276,-13.5579 3.6146,-0.9733 47.9002,-1.2339 152.204,-0.8956 157.9447,0.5121 152.9283,0.3195 183.7927,7.0557 68.691,14.9921 133.4445,59.4055 173.6961,119.1355 86.5228,128.3925 51.8735,303.0238 -77.2577,389.3769 -5.1563,3.4481 -11.7613,7.6081 -14.6779,9.2446 -2.9166,1.6365 -5.3072,3.3279 -5.3125,3.7588 0,0.4308 5.4635,2.0481 12.1529,3.594 45.2559,10.4576 87.3374,30.4532 125.9625,59.8528 16.1857,12.3199 46.2297,42.3455 58.3052,58.2698 36.8224,48.5582 57.6063,98.9862 65.4202,158.7285 2.5007,19.1199 2.5356,57.3887 0.071,78.2914 -6.8167,57.8187 -28.5069,112.2307 -63.4736,159.2301 -20.1848,27.1306 -56.2816,60.2001 -87.198,79.8849 -26.3468,16.7751 -68.9285,34.116 -101.25,41.2327 -35.1806,7.7463 -25.5049,7.4185 -231.25,7.8341 -159.0435,0.3213 -188.8714,0.1088 -192.9534,-1.3745 z m 393.5784,-42.4642 c 85.1173,-13.9466 154.9291,-59.9384 199.3399,-131.324 9.3084,-14.9623 22.1501,-42.7339 27.9731,-60.495 34.0186,-103.7611 7.7041,-215.789 -68.594,-292.0225 -44.9266,-44.8885 -105.0912,-73.6828 -168.3572,-80.5742 -7.9373,-0.8647 -71.8565,-1.3223 -184.6875,-1.3223 l -172.5493,0 0,284.4274 0,284.4274 176.5625,-0.4319 c 162.9488,-0.3985 177.6228,-0.6055 190.3125,-2.6849 z m -92.945,-612.0445 c 16.4436,-1.6596 37.8456,-6.4154 54.049,-12.0101 96.3091,-33.254 161.4101,-124.5445 161.2068,-226.0584 -0.1957,-97.6376 -62.293,-186.7074 -155.555,-223.1211 -15.6069,-6.0937 -30.5298,-10.2638 -49.8808,-13.939 -14.1102,-2.6799 -16.8555,-2.7392 -149.0625,-3.2143 l -134.6875,-0.484 0,240.0666 0,240.0668 130.4925,0 c 81.6679,0 135.3361,-0.4889 143.4375,-1.3065 z m 695.7456,654.5249 c -6.2987,-2.2544 -8.3997,-4.1655 -11.0962,-10.0934 -2.1886,-4.8114 -2.2745,-26.5276 -2.2745,-575.625 0,-552.8017 0.072,-570.7843 2.3155,-575.7233 2.75,-6.0548 7.4613,-10.0485 13.8997,-11.7821 3.1204,-0.8402 110.4465,-1.156 320.1494,-0.9417 l 315.4555,0.3221 4.5988,2.8596 c 13.1173,8.1567 12.5036,30.392 -0.9944,36.0318 -3.4992,1.4621 -51.9303,1.7336 -309.1893,1.7336 l -305.0401,0 0,262.4888 0,262.4887 269.0625,0.3238 c 266.518,0.3207 269.1026,0.3473 273.3069,2.8237 6.6405,3.9114 9.2842,8.38 9.7889,16.5458 0.5473,8.858 -3.0493,16.0645 -9.6772,19.3897 -4.1067,2.0605 -19.7562,2.1858 -273.4186,2.1875 l -269.0625,0 0,263.75 0,263.75 305.0401,0 c 257.259,0 305.6901,0.2715 309.1893,1.7336 13.498,5.6398 14.1117,27.8752 0.9944,36.0318 l -4.5988,2.8596 -316.875,0.2628 c -262.8417,0.2178 -317.6764,-0.024 -321.5744,-1.4194 z m 2536.5744,0.9337 c -98.072,-3.6733 -196.9586,-31.7104 -282.5,-80.0962 -72.5426,-41.0334 -139.7443,-100.3275 -189.4105,-167.1232 -80.8075,-108.6768 -121.2155,-239.8361 -115.4578,-374.7612 10.3179,-241.7925 172.1402,-454.3664 407.8763,-535.797 96.6021,-33.3694 201.7076,-41.7805 305.117,-24.417 86.5791,14.5375 172.2546,48.6062 244.375,97.1755 28.098,18.9225 35.669,25.1499 39.2061,32.2479 1.8116,3.6355 3.2939,8.3851 3.2939,10.5547 0,9.1518 -10.7463,18.0125 -21.875,18.037 -5.9691,0.012 -7.0645,-0.5795 -24.375,-13.1862 -73.1973,-53.3075 -152.8679,-86.911 -242.5,-102.2818 -37.3611,-6.4068 -52.4181,-7.5326 -101.25,-7.5697 -47.7545,-0.036 -61.7724,0.9567 -96.875,6.8635 -221.9998,37.356 -402.7882,201.9348 -454.9799,414.1861 -10.482,42.6284 -14.2402,71.4811 -15.2492,117.0721 -0.7802,35.2554 0.3855,57.3108 4.6435,87.8538 22.8587,163.9676 121.07,310.7477 265.5856,396.9265 77.5321,46.2346 161.914,73.1673 251.119,80.1511 20.29,1.5885 68.9602,1.5862 89.506,0 111.1879,-8.6073 214.4106,-46.78 301.7136,-111.5769 12.721,-9.4416 19.8571,-11.9266 27.973,-9.7412 13.9339,3.752 19.5089,17.0806 12.2939,29.3921 -2.2116,3.7739 -6.8785,8.0494 -15.3899,14.0991 -93.5366,66.4852 -193.8825,105.7932 -302.2156,118.3854 -16.556,1.9244 -65.4267,4.6401 -75.625,4.2024 -3.0938,-0.1328 -9.8438,-0.3994 -15,-0.5925 z m 773.2966,-0.9423 c -6.3876,-2.331 -11.7735,-7.6527 -13.2976,-13.1388 -1.7372,-6.2537 -1.6994,-1140.2742 0.039,-1146.5306 2.5748,-9.2705 15.4967,-16.4582 24.3408,-13.5393 5.943,1.9614 10.2921,5.7024 13.1567,11.3173 2.4313,4.7657 2.4651,8.593 2.4651,279.2568 l 0,274.4248 334.9917,0 334.9918,0 0.3207,-276.5625 0.3208,-276.5625 2.911,-4.0814 c 8.4749,-11.8819 26.604,-10.4656 34.1291,2.6663 l 2.9599,5.1651 0,571.25 0,571.25 -2.9599,5.1651 c -7.5364,13.1516 -25.5156,14.487 -34.4095,2.5558 l -2.6306,-3.529 -0.625,-277.721 -0.625,-277.7209 -334.6875,-0.3147 -334.6875,-0.3149 0,275.6771 c 0,272.7842 -0.026,275.7282 -2.4885,280.5549 -4.9449,9.6928 -14.933,14.1197 -24.2149,10.7323 z m -2391.1362,-3.1612 c -9.2284,-1.7888 -15.2763,-10.45 -14.3604,-20.5656 0.3995,-4.4116 65.6978,-180.091 213.2975,-573.858 193.9118,-517.3189 213.0966,-567.8525 216.9613,-571.487 8.3547,-7.8567 23.3293,-6.6747 32.2873,2.5485 4.8288,4.9716 13.8907,28.8014 216.8288,570.1885 116.4841,310.75 212.0919,567.3571 212.4615,570.2381 0.9356,7.2927 -0.2471,10.9222 -5.4278,16.6565 -8.3333,9.224 -18.8148,9.0627 -28.8068,-0.4435 -5.4144,-5.151 -6.0123,-6.6533 -62.0227,-155.8261 l -56.5555,-150.625 -294.4836,-0.3151 -294.4835,-0.3151 -57.1542,152.1901 c -31.4349,83.7046 -57.9964,153.5029 -59.0258,155.1074 -1.0292,1.6045 -4.2181,3.9827 -7.0865,5.285 -5.6624,2.571 -5.5329,2.5582 -12.4296,1.2213 z m 705.4759,-363.4861 c -1.2799,-3.2656 -63.4914,-168.5 -138.2478,-367.1875 -74.7564,-198.6875 -136.3096,-361.6744 -136.785,-362.193 -0.5871,-0.6405 -262.7445,693.016 -277.3122,733.7555 -0.4459,1.247 55.4997,1.5625 277.0567,1.5625 l 277.6155,0 -2.3272,-5.9375 z M 3686.25,5080.3916 c -89.802,-2.5671 -191.0949,-11.2529 -282.5,-24.2241 -320.9266,-45.5426 -631.5769,-155.3109 -911.7974,-322.1839 -146.1361,-87.0249 -277.7527,-185.7404 -410.0776,-307.5675 -30.7646,-28.324 -107.905,-105.5489 -135.0495,-135.1974 C 1786.274,4115.8567 1658.0489,3929.5119 1555.0564,3721.875 1430.771,3471.3109 1353.7186,3216.823 1317.568,2937.5 c -8.7288,-67.4436 -16.3716,-164.6781 -18.9628,-241.25 -2.393,-70.7164 0,-171.6914 5.7504,-243.125 1.0524,-13.0625 2.5063,-31.0625 3.2309,-40 5.5249,-68.1479 18.3302,-162.799 31.2857,-231.25 38.4105,-202.9428 95.1576,-382.5021 181.1982,-573.3491 13.9852,-31.0208 57.537,-117.9944 75.6257,-151.0259 90.1908,-164.6953 189.8832,-307.6759 311.1244,-446.22 67.7195,-77.38406 150.4682,-160.14241 228.636,-228.6624 C 2451.9908,505.15125 2844.011,310.82851 3257.5,226.42546 c 128.1507,-26.15867 237.1873,-39.52012 391.25,-47.94424 36.1585,-1.97713 166.0077,-1.95793 203.125,0.03 249.6026,13.36852 456.6146,51.64977 676.875,125.16972 338.9545,113.13845 645.6299,297.38431 910.6989,547.13411 22.0915,20.81472 88.0971,88.12901 114.4438,116.71295 350.0357,379.7577 571.4992,862.752 631.6013,1377.472 11.9701,102.5137 16.241,176.7892 16.2796,283.125 0.035,97.3761 -2.2027,143.2968 -11.8497,243.125 -18.1572,187.8905 -60.9242,383.7112 -121.7234,557.3457 -116.0155,331.3239 -289.0651,619.3603 -524.2379,872.5799 -44.469,47.8815 -124.2525,125.0891 -177.0876,171.3703 -278.6725,244.1041 -610.3291,422.9641 -964.375,520.0803 -103.9238,28.5068 -219.2358,52.4158 -312.5,64.7945 -66.9628,8.8878 -111.4308,13.2734 -184.375,18.1842 -73.3784,4.9398 -153.1393,6.6802 -219.375,4.7867 z m 210,-100.9636 c 62.4911,-4.2404 70.7971,-4.9703 122.5,-10.765 69.3586,-7.7735 121.186,-15.7016 183.125,-28.013 147.9936,-29.416 287.9896,-70.645 422.7466,-124.4993 380.182,-151.9361 721.1241,-406.4217 973.6835,-726.7757 167.5873,-212.5728 296.3271,-450.0968 384.1483,-708.75 63.702,-187.6168 104.7787,-395.103 117.5467,-593.75 0.6188,-9.625 1.819,-27.625 2.6673,-40 2.1085,-30.756 2.1085,-205.494 0,-236.25 -0.8483,-12.375 -2.0485,-30.375 -2.6673,-40 -14.4186,-224.3268 -64.2256,-454.4413 -145.0329,-670.0691 C 5856.2863,1537.2332 5707.3554,1288.205 5522.5755,1077.551 5481.3283,1030.5279 5407.4966,953.28454 5372.7409,920.79245 5148.3734,711.03796 4902.3376,552.97426 4630.625,444.02624 4373.6411,340.98395 4108.1599,284.93846 3830.0554,275.01874 c -46.2025,-1.648 -141.4861,-1.65329 -172.5554,-0.01 -162.9637,8.62153 -270.8584,22.42222 -410.625,52.5226 -218.8238,47.1267 -445.1614,132.91728 -645.625,244.71687 -288.8073,161.0693 -539.2759,380.41385 -737.5242,645.87679 -86.3384,115.6107 -155.9419,228.7906 -222.2069,361.323 -123.7848,247.574 -202.9366,517.1312 -232.6856,792.427 -3.9834,36.861 -9.0387,97.202 -11.5719,138.125 -0.9534,15.4014 -1.5053,59.3493 -1.4989,119.375 0.013,90.2964 0.1795,97.5065 3.4308,145.625 12.745,188.6266 43.4727,359.6571 96.5687,537.5 39.1125,131.0061 101.1288,282.626 166.6775,407.5 155.4983,296.2326 362.0625,545.8875 625.0605,755.452 225.173,179.4244 489.8424,318.4025 771.25,404.984 164.348,50.5654 338.4334,83.55 508.75,96.3947 14.0938,1.0629 33.5,2.5506 43.125,3.3057 32.5281,2.5522 78.4235,3.401 158.75,2.9357 69.28,-0.4012 86.2813,-0.8896 126.875,-3.6441 z"
       id="path4140"
       inkscape:connector-curvature="0" />
  </g>
</svg>
