<?xml version="1.0" encoding="UTF-8" standalone="no"?>
<!-- Created with Inkscape (http://www.inkscape.org/) -->

<svg
   xmlns:dc="http://purl.org/dc/elements/1.1/"
   xmlns:cc="http://creativecommons.org/ns#"
   xmlns:rdf="http://www.w3.org/1999/02/22-rdf-syntax-ns#"
   xmlns:svg="http://www.w3.org/2000/svg"
   xmlns="http://www.w3.org/2000/svg"
   xmlns:sodipodi="http://sodipodi.sourceforge.net/DTD/sodipodi-0.dtd"
   xmlns:inkscape="http://www.inkscape.org/namespaces/inkscape"
   id="svg2"
   version="1.1"
   inkscape:version="0.91 r13725"
   width="4427.3999"
   height="2793.8999"
   viewBox="0 0 4427.3999 2793.8999"
   sodipodi:docname="final-inverted.svg">
  <metadata
     id="metadata8">
    <rdf:RDF>
      <cc:Work
         rdf:about="">
        <dc:format>image/svg+xml</dc:format>
        <dc:type
           rdf:resource="http://purl.org/dc/dcmitype/StillImage" />
        <dc:title></dc:title>
      </cc:Work>
    </rdf:RDF>
  </metadata>
  <defs
     id="defs6" />
  <sodipodi:namedview
     pagecolor="#ffffff"
     bordercolor="#666666"
     borderopacity="1"
     objecttolerance="10"
     gridtolerance="10"
     guidetolerance="10"
     inkscape:pageopacity="0"
     inkscape:pageshadow="2"
     inkscape:window-width="2560"
     inkscape:window-height="1371"
     id="namedview4"
     showgrid="false"
     inkscape:zoom="0.35355339"
     inkscape:cx="2198.9154"
     inkscape:cy="1204.4663"
     inkscape:window-x="0"
     inkscape:window-y="27"
     inkscape:window-maximized="1"
     inkscape:current-layer="svg2" />
  <path
     style="fill:#000000"
     d="m 2711.2499,2588.2026 c -20.6301,-1.2266 -36.5683,-5.0819 -51.9,-12.554 -31.0422,-15.129 -53.6116,-44.1902 -64.0218,-82.4367 -7.5591,-27.7721 -8.9488,-64.6721 -3.6009,-95.612 6.2739,-36.2975 22.3278,-65.3645 47.0263,-85.1454 18.1482,-14.5349 40.271,-22.8815 66.9464,-25.2581 9.6071,-0.856 23.3802,-0.6586 33.3,0.4771 36.925,4.2273 65.8111,21.3371 85.752,50.7924 12.4046,18.3231 20.4303,40.5256 23.8699,66.034 2.9307,21.7341 2.877,45.8724 -0.1485,66.75 -4.0671,28.0652 -13.36,51.5838 -27.9475,70.73 -21.7654,28.5672 -51.585,43.6561 -91.1259,46.11 -4.4787,0.278 -14.3403,0.3392 -18.15,0.1127 z m 16.8,-19.3117 c 17.0582,-1.014 31.0773,-4.492 43.7975,-10.8657 17.9936,-9.016 32.2035,-23.8521 41.7362,-43.5753 8.3437,-17.263 12.9265,-36.702 14.5138,-61.5645 0.4012,-6.2835 0.4002,-24.8106 -0,-31.0709 -3.0439,-47.4194 -18.816,-80.5157 -47.2803,-99.2132 -13.3591,-8.7754 -28.8441,-13.7959 -48.2655,-15.6488 -5.038,-0.4806 -20.1794,-0.4795 -25.2,0 -22.2617,2.1345 -40.2094,8.8611 -55.05,20.6318 -3.6233,2.8738 -12.0167,11.3974 -14.8829,15.1137 -15.661,20.3064 -24.0808,45.8127 -26.2163,79.418 -0.3987,6.2747 -0.3982,24.5003 0,30.7692 1.5646,24.5749 6.4166,44.7341 14.8684,61.7748 2.7445,5.5337 4.0538,7.792 7.3561,12.688 15.8778,23.541 39.0205,37.2273 68.9738,40.7902 8.4409,1.004 17.118,1.258 25.65,0.7508 z m 691.95,19.1837 c -20.1651,-0.8033 -37.9224,-3.1729 -51.6846,-6.897 -4.4814,-1.2127 -11.6721,-3.5959 -13.1904,-4.3716 l -0.825,-0.4215 0,-10.0423 c 0,-6.3575 0.108,-10.0423 0.294,-10.0423 0.1617,0 1.6128,0.5233 3.225,1.1629 12.7467,5.0571 29.9934,8.9289 47.481,10.6594 10.0386,0.9933 14.8995,1.2084 27.45,1.2147 10.5423,0.01 13.7124,-0.091 17.3445,-0.5283 16.3242,-1.9638 27.9822,-5.9357 38.9055,-13.2552 17.6955,-11.8576 26.2902,-29.5683 24.6543,-50.8048 -1.1865,-15.4044 -6.4365,-25.4816 -18.2043,-34.9435 -11.034,-8.8719 -26.3055,-16.0959 -56.25,-26.6084 -16.1082,-5.6551 -23.0433,-8.4429 -33.1509,-13.3266 -18.5823,-8.9782 -30.5442,-18.3133 -37.7484,-29.4582 -5.9796,-9.2506 -9.3597,-20.6714 -10.0968,-34.1141 -1.1946,-21.7867 5.4876,-39.6302 20.1333,-53.762 12.7296,-12.2829 29.2215,-20.3167 48.5994,-23.6743 21.9408,-3.8017 51.5358,-1.8218 76.4634,5.1153 7.7001,2.1429 23.1426,7.6047 24.1125,8.5283 0.2151,0.2048 -5.6088,14.7076 -6.8211,16.9864 -0.3384,0.6358 -0.3819,0.6255 -4.8414,-1.1435 -39.3768,-15.6196 -79.6548,-17.7105 -105.4185,-5.4723 -16.1307,7.6623 -26.5836,20.2546 -29.7219,35.8048 -1.7718,8.7787 -1.5291,20.2145 0.6069,28.5854 3.4473,13.5112 12.8163,23.7795 29.7714,32.6291 7.8663,4.1057 21.8022,9.9084 36.3621,15.1406 23.8338,8.565 34.2165,12.8152 44.7432,18.3155 20.7828,10.8595 33.3024,23.3723 39.2112,39.1895 5.9199,15.8475 5.6718,38.1877 -0.6078,54.7093 -9.2814,24.4202 -32.8926,42.1617 -64.4466,48.4255 -12.3336,2.4484 -26.5905,3.1864 -46.35,2.3992 z m -2838.29991,-150.2747 0,-146.7 80.40426,0 80.40428,0 -0.0793,9.375 -0.0793,9.375 -70.125,0.076 -70.12499,0.076 0,62.2493 0,62.2494 66.14999,0 66.15,0 0,9.45 0,9.45 -66.15,0 -66.14999,0 0,65.55 0,65.55 -10.2,0 -10.2,0 0,-146.7 z m 326.39999,-0.019 0,-146.7187 41.925,0.128 c 42.05616,0.1284 43.77255,0.169 53.92502,1.2766 27.1745,2.9646 47.3862,11.0619 60.6036,24.2793 11.7159,11.7158 18.1293,27.0501 19.6379,46.9536 2.3109,30.4879 -7.9595,55.7513 -29.0653,71.4955 -7.7795,5.8031 -17.979,10.8183 -29.1262,14.3213 -2.2275,0.7 -4.0941,1.3079 -4.148,1.351 -0.054,0.043 17.7489,30.0266 39.5618,66.6302 21.8129,36.6036 39.7187,66.6532 39.7907,66.777 0.072,0.1237 -5.3783,0.2208 -12.1118,0.2158 l -12.2427,-0.01 -37.787,-63.8908 -37.7869,-63.8908 -36.38807,0 -36.38805,0 0,63.9 0,63.9 -10.2,0 -10.2,0 0,-146.7188 z m 91.35,0.512 c 14.28332,-1.8077 24.43872,-4.7912 33.58282,-9.8663 10.387,-5.7648 17.7198,-13.2612 22.671,-23.1769 4.7217,-9.4559 6.6512,-18.8505 6.6223,-32.2434 -0.039,-18.0549 -4.1347,-31.1647 -13.0127,-41.6516 -8.5261,-10.071 -23.2718,-16.8525 -43.125,-19.833 -11.21175,-1.6831 -22.14537,-2.1025 -55.11342,-2.1141 l -22.575,-0.01 0,64.8187 0,64.8187 33.525,-0.1253 c 28.8159,-0.1077 34.07283,-0.1946 37.425,-0.6189 z M 1272,2437.7999 l 0,-146.7 10.35,0 10.35,0 0,146.7 0,146.7 -10.35,0 -10.35,0 0,-146.7 z m 182.4964,145.725 c 0.2224,-0.5362 26.7736,-66.8212 59.0026,-147.3 l 58.5982,-146.325 6.508,0 6.5082,0 5.4439,13.875 c 2.9941,7.6313 28.9844,73.8825 57.756,147.225 l 52.3122,133.35 -11.4092,0.079 c -6.275,0.043 -11.4709,0.017 -11.5464,-0.059 -0.076,-0.075 -9.2798,-23.3984 -20.4539,-51.8286 l -20.3166,-51.6913 -59.5689,-0.076 -59.5689,-0.076 -3.8874,9.8258 c -2.138,5.4041 -11.3625,28.7595 -20.4987,51.9007 l -16.6113,42.075 -11.3361,0 -11.3362,0 0.4045,-0.975 z M 1629.9,2462.1545 c 0,-0.135 -9.0584,-24.1987 -20.1296,-53.475 -11.0713,-29.2763 -21.0724,-55.7271 -22.2246,-58.7796 -1.1522,-3.0525 -3.7682,-10.545 -5.8132,-16.65 -2.0451,-6.105 -3.7215,-11.0114 -3.7255,-10.9031 -0.019,0.5109 -3.4657,11.7901 -5.0742,16.6031 -2.5785,7.7154 -2.8734,8.4824 -26.4012,68.6646 -11.7325,30.0106 -21.3317,54.6143 -21.3317,54.675 0,0.061 23.5575,0.1104 52.35,0.1104 28.7925,0 52.35,-0.1104 52.35,-0.2454 z m 232.5,-24.3734 0,-146.7187 41.925,0.128 c 42.0561,0.1284 43.7725,0.169 53.925,1.2766 27.1745,2.9646 47.3862,11.0619 60.6036,24.2793 11.7159,11.7159 18.1293,27.0501 19.6379,46.9536 2.3109,30.4879 -7.9595,55.7513 -29.0653,71.4955 -7.7795,5.8031 -17.9791,10.8183 -29.1262,14.3213 -2.2275,0.7 -4.0941,1.3079 -4.1481,1.351 -0.054,0.043 17.749,30.0266 39.5619,66.6302 21.8129,36.6036 39.7187,66.6533 39.7907,66.777 0.072,0.1238 -5.3783,0.2209 -12.1118,0.2158 l -12.2427,-0.01 -37.787,-63.8908 -37.7869,-63.8908 -36.3881,0 -36.388,0 0,63.9 0,63.9 -10.2,0 -10.2,0 0,-146.7188 z m 91.35,0.512 c 14.2833,-1.8077 24.4387,-4.7912 33.5828,-9.8663 10.387,-5.7648 17.7198,-13.2612 22.671,-23.1769 4.7216,-9.4559 6.6511,-18.8505 6.6223,-32.2434 -0.039,-18.0549 -4.1347,-31.1647 -13.0128,-41.6515 -8.526,-10.0711 -23.2717,-16.8526 -43.125,-19.833 -11.2117,-1.6832 -22.1453,-2.1026 -55.1133,-2.1142 l -22.575,-0.01 0,64.8187 0,64.8187 33.525,-0.1253 c 28.8159,-0.1077 34.0728,-0.1946 37.425,-0.6189 z m 272.8499,-0.4932 0,-146.7 43.275,0 c 42.8838,0 51.216,0.1473 61.125,1.0681 45.4984,4.2284 70.7327,20.7578 78.7439,51.5802 2.4514,9.4321 3.1821,22.336 1.8091,31.95 -2.8827,20.1844 -14.4366,36.0685 -33.003,45.3721 -6.1975,3.1056 -14.3135,5.7968 -22.4035,7.429 -2.4506,0.4944 -4.5211,0.8989 -4.6011,0.8989 -0.08,0 -0.1454,0.2675 -0.1454,0.5943 0,0.6721 -0.1186,0.6357 4.95,1.5194 17.5904,3.0669 32.7125,9.3451 42.6392,17.7025 11.0011,9.2619 17.5491,22.1295 19.7616,38.8338 0.6712,5.0681 0.8941,14.1073 0.4843,19.6409 -1.5697,21.1925 -8.4289,37.2807 -21.3687,50.1204 -14.4869,14.3747 -35.373,23.0024 -62.3664,25.7627 -7.7883,0.7964 -15.8381,0.9175 -61.275,0.9217 l -47.625,0 0,-146.7 z m 105.3,127.9997 c 27.7198,-2.9871 45.2615,-11.7277 55.7916,-27.7997 5.0453,-7.7006 8.0659,-16.9044 9.3042,-28.35 0.487,-4.5011 0.4103,-14.6716 -0.1426,-18.9 -1.1861,-9.0721 -3.8596,-16.5404 -8.3349,-23.2838 -2.2502,-3.3904 -7.5325,-8.9359 -10.9686,-11.5151 -12.7752,-9.589 -30.6056,-14.7375 -55.5497,-16.0399 -3.2801,-0.1713 -21.0383,-0.3067 -40.425,-0.3083 l -34.575,-0 0,63.4678 0,63.4677 40.125,-0.1174 c 34.8761,-0.102 40.7333,-0.1829 44.775,-0.6184 z m -8.55,-144.5047 c 13.2211,-0.7758 23.0967,-2.4488 32.0766,-5.4342 18.2378,-6.0633 28.7249,-16.7995 33.0249,-33.8095 1.137,-4.4975 1.6539,-8.616 1.8532,-14.7645 0.3607,-11.1276 -1.256,-19.5877 -5.3005,-27.7368 -5.9407,-11.9699 -17.276,-20.2349 -34.6022,-25.2299 -7.0498,-2.0323 -16.5458,-3.638 -27.502,-4.6501 -2.4798,-0.2291 -15.9686,-0.3918 -39.825,-0.4805 l -36.075,-0.134 0,56.2723 0,56.2722 35.625,-0 c 20.041,-0 37.856,-0.1338 40.725,-0.3021 z m 770.7753,26.18 -0.075,-137.025 -47.625,-0.076 -47.625,-0.076 0,-9.5991 0,-9.5991 105.6,0 105.6,0 0,9.5991 0,9.5991 -47.625,0.076 -47.625,0.076 -0.075,137.025 -0.075,137.025 -10.1994,0 -10.1994,0 -0.075,-137.025 z M 571.64999,2194.5399 c -5.08539,-1.4613 -8.80341,-4.9917 -10.59372,-10.0594 -1.55373,-4.398 -0.82998,-9.7074 1.87983,-13.7899 2.00529,-3.021 5.36439,-5.3633 9.05718,-6.3154 1.68084,-0.4334 132.30215,-0.4753 1481.80672,-0.4753 1344.4535,0 1480.13,0.043 1481.7827,0.4714 4.1271,1.0695 8.0046,4.023 9.8988,7.5399 1.0077,1.8711 2.0184,5.6711 2.0184,7.5887 0,1.9177 -1.0107,5.7176 -2.0184,7.5888 -1.8942,3.5168 -5.7717,6.4703 -9.8988,7.5398 -1.653,0.4283 -137.3028,0.4695 -1481.976,0.4501 -1400.27223,-0.02 -1480.25385,-0.049 -1481.95671,-0.5387 z M 2962.1504,2033.681 c -1.5947,-0.1521 -3.2396,-0.4058 -3.6553,-0.5639 l -0.7557,-0.2873 0.7593,-2.49 c 4.4743,-14.6706 41.2772,-124.0958 57.4921,-170.9399 2.3544,-6.8013 7.8795,-22.3274 9.2313,-25.9404 l 0.5823,-1.5566 8.0229,-0.3629 c 64.0755,-2.8989 83.1825,-4.0038 107.1726,-6.1976 35.5842,-3.2541 67.6956,-8.4709 104.5455,-16.9845 79.3605,-18.335 150.1671,-47.1537 217.2045,-88.4036 45.5337,-28.0182 91.4136,-64.0524 131.0739,-102.946 7.665,-7.5171 37.0443,-37.0359 36.9534,-37.1292 -0.038,-0.039 -2.2197,0.5902 -4.8483,1.3982 -22.3224,6.8617 -34.2531,10.2572 -44.229,12.5879 -1.4025,0.3277 -3.765,0.8821 -5.25,1.2321 -26.6085,6.2716 -56.6295,10.4912 -89.85,12.6291 -7.9038,0.5087 -38.949,0.699 -48.4959,0.2973 -71.6253,-3.0133 -129.1329,-21.6804 -178.2819,-57.8706 -28.5726,-21.039 -57.8298,-52.9706 -75.2268,-82.1032 -13.896,-23.2701 -24.3573,-49.6889 -32.3112,-81.5999 -4.8939,-19.6342 -7.8306,-38.6336 -9.552,-61.8 -0.5895,-7.9325 -0.4833,-36.3309 0.1674,-44.85 3.1524,-41.2641 11.3781,-76.7435 29.1426,-125.7 12.3447,-34.0208 24.8901,-62.0987 39.039,-87.3741 l 1.4688,-2.6241 108.9993,0 108.9993,0 -1.3815,1.725 c -5.8629,7.3213 -13.9494,18.5115 -20.1075,27.825 -17.9415,27.1347 -27.6789,47.689 -37.6539,79.4822 -6.8505,21.8344 -10.884,38.9995 -12.4851,53.1322 -0.6429,5.6748 -0.8991,21.7257 -0.4428,27.7419 2.4558,32.3736 14.589,64.2103 33.8973,88.942 7.4712,9.57 17.3169,19.3667 26.7249,26.5924 20.9322,16.0765 45.9747,26.9062 72,31.1367 14.0253,2.2799 22.3737,2.8648 40.95,2.869 17.5584,0 23.8419,-0.3854 36.3255,-2.2516 38.0808,-5.6924 77.9493,-20.6084 116.5245,-43.5954 23.4309,-13.9625 44.4759,-29.571 66.15,-49.0619 5.8005,-5.2161 22.8537,-22.2784 28.0728,-28.0875 23.6937,-26.3719 41.6058,-52.2242 55.7514,-80.4651 17.1135,-34.1659 25.4445,-62.7304 27.6297,-94.7349 0.7617,-11.1542 0.1302,-35.2134 -1.065,-40.575 l -0.1503,-0.675 107.5557,0 c 106.308,0 107.5557,0.01 107.5557,0.583 0,1.2241 -1.2552,12.4019 -1.9728,17.567 -1.6317,11.7459 -3.0021,19.03 -6.1794,32.85 -14.5554,63.3109 -42.4185,146.6281 -73.9908,221.25 -33.93,80.1943 -78.0918,159.7322 -127.2588,229.2 -40.7142,57.5246 -84.7605,109.4768 -137.9946,162.7634 -84.3858,84.4687 -166.4076,143.7448 -272.1036,196.6455 -102.3831,51.2426 -195.054,80.5585 -308.1,97.4655 -40.7838,6.0996 -59.1987,7.8093 -110.25,10.2361 -21.6492,1.0292 -69.5932,1.6696 -76.3995,1.0205 z m -2644.15041,-0.2897 c -31.14035,-0.2409 -47.49274,-0.5841 -47.91417,-1.0056 -0.26893,-0.2689 0.70573,-3.3788 6.96884,-22.2358 8.60405,-25.9051 30.65833,-90.6558 56.76145,-166.65 l 4.17339,-12.15 174.43026,-0.1902 c 210.86552,-0.23 267.4409,-0.7061 282.73022,-2.3791 7.79613,-0.853 19.37208,-3.0313 28.43298,-5.3503 34.14528,-8.7391 68.21703,-26.7908 96.81702,-51.2951 5.29347,-4.5354 16.32288,-15.5759 20.86434,-20.8853 13.37292,-15.6341 23.65059,-31.3024 33.55206,-51.15 6.16995,-12.3677 10.70532,-22.954 15.48717,-36.15 15.88435,-43.8339 20.94305,-79.5384 15.25675,-107.6823 -2.7875,-13.7962 -8.46034,-26.1542 -16.67152,-36.3177 -2.80602,-3.4731 -9.00285,-9.6166 -12.6888,-12.5795 -3.06255,-2.4617 -9.81051,-6.943 -13.96491,-9.274 -8.93337,-5.0125 -24.18006,-10.7607 -32.30808,-12.1806 -13.68267,-2.3903 -33.97977,-2.7393 -227.77701,-3.9164 -95.9987,-0.5831 -135.08249,-1.1372 -149.39999,-2.1182 -7.10433,-0.4868 -9.45,-1.027 -9.45,-2.1763 0,-4.1941 42.76803,-133.2267 63.60714,-191.9049 2.02164,-5.6925 3.75834,-10.4341 3.85929,-10.5369 0.10095,-0.1028 47.43357,-0.3419 105.18356,-0.5313 57.75,-0.1895 145.4325,-0.4856 194.85,-0.658 l 89.85002,-0.3136 10.1337,-3.1316 c 12.0087,-3.711 18.4901,-5.988 26.0163,-9.1396 34.7628,-14.5571 68.1655,-36.592 85.9349,-56.689 27.2576,-30.8281 50.2805,-73.1742 63.1898,-116.2253 1.8989,-6.3326 5.0428,-18.6616 5.6866,-22.2997 l 0.3848,-2.175 103.1519,0 c 56.7336,0 103.152,0.092 103.152,0.2052 0,0.1128 -0.7499,2.9141 -1.6665,6.225 -17.2295,62.2384 -46.758,125.7048 -82.8489,178.0698 -10.8721,15.7745 -21.4954,29.6085 -31.1002,40.5 -14.3907,16.3183 -35.7034,37.5597 -53.8963,53.7161 -13.5893,12.068 -18.4652,15.9375 -40.4131,32.071 -3.6713,2.6986 -6.675,4.989 -6.675,5.0895 0,0.5037 2.652,4.5975 5.8455,9.0234 7.7661,10.763 11.6542,17.0805 16.6167,26.9999 6.8809,13.7539 11.6719,26.606 15.4992,41.5773 4.1524,16.2429 4.8092,24.6977 4.5533,58.6146 -0.1548,20.519 -0.4196,27.0304 -1.5715,38.641 -1.6929,17.0643 -5.1675,34.9857 -11.2677,58.1171 -18.6354,70.6634 -43.5099,127.6695 -79.2099,181.5288 -18.9971,28.6601 -32.6081,46.0736 -52.6211,67.3212 -7.5637,8.0303 -25.647,25.9517 -32.2445,31.9557 -37.3696,34.0082 -74.32721,59.0759 -124.05002,84.1413 -44.1174,22.2397 -72.228,33.1158 -109.79826,42.4815 -13.67265,3.4084 -32.6361,7.5125 -42.00174,9.0902 -10.61307,1.7879 -24.84567,2.5455 -57,3.0343 -50.55674,0.7686 -330.77156,1.3965 -396.44999,0.8884 z m 841.95001,-0 c -30.6559,-0.2083 -45.5322,-0.4471 -48.7982,-0.7835 l -1.6983,-0.1748 0.4526,-1.5393 c 1.2871,-4.3775 13.142,-40.1066 23.604,-71.1393 15.1137,-44.8305 43.0872,-127.4525 43.1737,-127.5169 0.066,-0.049 83.6109,-0.4882 197.4662,-1.038 223.0872,-1.0771 250.068,-1.4786 272.7,-4.0583 10.9398,-1.247 20.689,-3.6959 34.9916,-8.7896 24.3657,-8.6775 55.0145,-26.7752 78.2584,-46.2104 41.5717,-34.7601 79.3344,-111.3699 86.304,-175.0868 0.403,-3.684 0.5261,-7.3805 0.5294,-15.9 0,-12.0388 -0.3445,-16.1298 -2.1071,-24.686 -5.7252,-27.793 -22.0989,-48.3034 -48.7755,-61.0984 -6.9681,-3.3422 -11.7511,-5.0915 -27.4159,-10.0272 l -6.615,-2.0843 -53.385,-0.3273 c -29.3617,-0.1801 -78.4949,-0.4635 -109.1849,-0.6299 -182.2221,-0.9878 -211.5084,-1.5017 -215.9322,-3.7893 -1.0187,-0.5269 -1.0485,-0.2853 0.8446,-6.8576 3.1312,-10.8704 10.3474,-33.2298 22.0266,-68.25 8.7325,-26.1844 42.7509,-126.6983 43.0371,-127.1614 0.085,-0.1374 16.8651,-0.3424 37.2891,-0.4556 20.4241,-0.1132 71.2898,-0.402 113.0348,-0.6418 41.745,-0.2398 99.66,-0.5679 128.7,-0.7291 29.04,-0.1612 66.03,-0.3781 82.2,-0.482 l 29.4,-0.1889 8.4,-2.5361 c 10.4816,-3.1646 14.9658,-4.6579 21.3615,-7.1139 26.1547,-10.0439 56.2942,-27.227 73.7279,-42.0337 5.1997,-4.4162 11.7375,-10.6127 16.1504,-15.3074 29.4209,-31.2994 51.8185,-72.3852 66.8072,-122.55 1.7048,-5.7056 4.4964,-16.371 4.9666,-18.975 l 0.2031,-1.125 103.0072,0 c 82.2742,0 102.9814,0.075 102.8788,0.375 -0.071,0.2062 -1.0183,3.5917 -2.1061,7.5233 -16.3331,59.0337 -43.5677,119.0863 -76.1454,167.9017 -25.4502,38.1352 -58.5354,75.4203 -93.6354,105.5215 -9.6171,8.2475 -17.591,14.4845 -33.8527,26.4785 -5.8465,4.3122 -10.381,7.8591 -10.3926,8.1292 -0.029,0.6854 2.6723,4.8889 7.0387,10.9512 2.0773,2.8841 5.034,7.1621 6.5705,9.5067 32.628,49.7871 38.3982,118.49 17.2497,205.3827 -18.9214,77.7422 -52.6918,151.5095 -97.8174,213.6698 -13.8504,19.0789 -28.1799,35.4313 -49.6526,56.6621 -23.9339,23.6643 -47.9303,43.9938 -71.3594,60.4551 -43.002,30.213 -111.3426,63.6868 -160.2,78.4671 -7.2705,2.1995 -34.3432,9.0987 -42.75,10.8945 -17.1798,3.6697 -34.1018,5.2672 -65.4,6.174 -38.0846,1.1034 -303.4171,1.8856 -405.15,1.1944 z m 1201.6499,-0.3186 c -20.7058,-0.6725 -31.9953,-2.0398 -52.05,-6.3039 -41.8012,-8.888 -78.2754,-25.1242 -110.0999,-49.0101 -10.305,-7.7344 -17.7389,-14.184 -28.0112,-24.3026 -30.4408,-29.9851 -54.6155,-66.5085 -70.3937,-106.3517 -2.513,-6.3457 -7.2763,-20.3889 -8.9546,-26.4 -11.7256,-41.9956 -14.5077,-92.1917 -8.1143,-146.4 4.1032,-34.7902 12.3041,-72.7264 23.6712,-109.5 11.0167,-35.6396 122.2609,-361.3579 131.3812,-384.6783 8.117,-20.755 26.6568,-60.3408 38.8827,-83.0216 5.4824,-10.1707 15.2572,-27.3823 18.5287,-32.6255 0.187,-0.2996 22.1556,-0.3601 108.8608,-0.3 l 108.6266,0.075 -3.2807,4.05 c -23.7484,29.3169 -45.1405,64.9821 -62.2595,103.8 -5.1063,11.5786 -6.0996,14.1725 -13.7753,35.9683 -26.1145,74.1546 -105.7083,307.5671 -117.8606,345.6316 -12.5649,39.3568 -16.7598,62.5509 -18.1495,100.35 -1.4204,38.6366 2.4708,62.6801 14.0802,87 12.2912,25.7483 36.9505,53.0009 61.2957,67.7419 15.5857,9.4371 43.6553,18.5676 63.5222,20.6627 5.7657,0.608 31.5813,0.5114 39.9,-0.1492 18.0689,-1.4351 29.0299,-3.0639 42.75,-6.3525 45.6455,-10.941 90.8897,-34.9413 134.55,-71.3733 23.8283,-19.8832 52.9449,-49.1198 69.1946,-69.4796 17.2041,-21.5555 34.42,-48.7593 47.3686,-74.85 4.6845,-9.439 6.1749,-13.2178 15.4411,-39.15 35.251,-98.6532 120.6884,-349.4306 136.6108,-400.9826 5.172,-16.7454 8.4741,-34.6179 9.8049,-53.0673 0.4386,-6.0826 0.4359,-21.414 -0,-27.3 -0.4369,-5.8328 -1.3649,-13.668 -2.2118,-18.675 l -0.6723,-3.975 108.8657,0 108.8657,0 -0.1806,2.325 c -0.099,1.2787 -0.3885,5.025 -0.6429,8.325 -1.833,23.7832 -7.2606,54.9263 -12.7833,73.35 -12.8025,42.7083 -119.4104,359.2957 -148.7553,441.7499 -7.6777,21.573 -13.1609,34.4934 -23.5532,55.5 -17.4482,35.269 -38.4036,69.6708 -60.3047,99 -41.4807,55.5497 -111.2104,125.233 -166.4078,166.2969 -24.4698,18.2042 -56.1579,38.0891 -86.4845,54.2707 -41.295,22.034 -86.9249,40.5472 -128.1,51.9735 -2.475,0.6868 -5.6475,1.5698 -7.05,1.9621 -12.689,3.5499 -38.562,9.2135 -49.2,10.7699 -7.0426,1.0303 -22.0192,2.2496 -35.25,2.8698 -18.6361,0.8736 -50.2023,1.1421 -67.65,0.5754 z M 670.61392,925.875 l -21.93605,-0.0789 -0.18564,-1.12308 c -0.31521,-1.90686 -0.21948,-2.90217 0.57366,-5.9652 3.94284,-15.22719 37.04915,-113.31189 56.33603,-166.90785 6.80652,-18.91449 10.46361,-28.38555 11.27325,-29.19519 0.66954,-0.66954 20.19336,-0.83583 117.47481,-1.00065 130.92234,-0.22182 279.27702,0.42417 320.40002,1.39509 28.7493,0.67878 38.437,1.31688 50.3197,3.31446 48.0663,8.08026 84.061,21.67494 114.2364,43.14549 10.3664,7.37595 18.6855,14.57982 29.5478,25.58691 18.9928,19.24596 28.846,32.92764 40.0446,55.60389 13.206,26.74128 19.4686,46.20705 22.3438,69.45 0.2551,2.0625 0.5418,4.25625 0.6371,4.875 l 0.1733,1.125 -359.6514,-0.073 C 854.39311,925.98678 682.67875,925.91841 670.61392,925.875 Z M 1620.6,925.78095 c -80.236,-0.2676 -132.0353,-0.91116 -133.2394,-1.65531 -0.188,-0.11622 -0.2342,-0.62226 -0.1149,-1.25829 1.8423,-9.82032 38.5112,-118.84173 58.5973,-174.21738 6.436,-17.74332 9.6616,-25.77246 10.4799,-26.0865 0.2631,-0.10092 5.6868,-0.34776 12.0527,-0.54852 15.581,-0.49134 282.5536,-0.46434 343.9744,0.0348 112.3262,0.91278 129.1685,1.93176 159.3,9.63774 34.4743,8.8167 59.1515,19.25271 83.4,35.26998 20.1149,13.28685 37.8642,30.08793 52.2859,49.4925 14.593,19.63518 26.5636,42.89142 35.3615,68.7 4.1792,12.25926 7.5109,27.19512 8.6831,38.925 l 0.2023,2.025 -283.6164,-0.0532 c -155.9891,-0.0293 -312.3039,-0.14886 -347.3664,-0.26583 z m 787.0562,-2.40489 c 7.2142,-7.29495 23.4156,-22.2843 34.3437,-31.77441 26.9997,-23.44671 52.589,-42.96903 86.6445,-66.10179 30.9897,-21.05031 62.2929,-39.16995 90.6692,-52.48317 47.8842,-22.46577 94.5552,-37.02891 143.3863,-44.74203 25.381,-4.00908 47.3388,-5.69685 74.25,-5.7072 15.7775,-0.006 22.4723,0.22239 35.1,1.19784 55.7391,4.30563 100.5118,18.20433 139.95,43.44438 19.0335,12.18117 37.6605,27.69693 54.4173,45.3282 32.0742,33.74745 54.6756,71.08266 65.4492,108.11535 0.7515,2.58321 1.4223,4.86549 1.4904,5.07174 0.099,0.29985 -72.8613,0.375 -364.135,0.375 l -364.2593,0 2.6937,-2.72391 z m 918.5937,-5.01072 c 60.429,-59.78154 134.0511,-110.99994 208.05,-144.73866 43.7889,-19.96497 92.4552,-35.44119 136.5822,-43.43415 49.815,-9.02328 113.1063,-10.01637 160.4178,-2.51706 37.2702,5.90766 72.0207,18.00708 103.4157,36.00741 7.8204,4.4838 13.3788,8.07762 22.2843,14.40771 37.1589,26.41314 70.4145,65.21769 91.4934,106.75938 3.2271,6.35964 5.5221,11.65071 8.7183,20.1 2.0313,5.36919 7.1883,20.3655 7.1883,20.90289 0,0.1359 -167.8386,0.24303 -372.975,0.23802 l -372.975,-0.009 7.8,-7.71645 z"
     id="path4138"
     inkscape:connector-curvature="0" />
</svg>
