<?xml version="1.0" encoding="UTF-8" standalone="no"?>
<!-- Created with Inkscape (http://www.inkscape.org/) -->

<svg
   xmlns:dc="http://purl.org/dc/elements/1.1/"
   xmlns:cc="http://creativecommons.org/ns#"
   xmlns:rdf="http://www.w3.org/1999/02/22-rdf-syntax-ns#"
   xmlns:svg="http://www.w3.org/2000/svg"
   xmlns="http://www.w3.org/2000/svg"
   xmlns:xlink="http://www.w3.org/1999/xlink"
   xmlns:sodipodi="http://sodipodi.sourceforge.net/DTD/sodipodi-0.dtd"
   xmlns:inkscape="http://www.inkscape.org/namespaces/inkscape"
   id="svg2"
   version="1.1"
   inkscape:version="0.91 r13725"
   width="150"
   height="169.5"
   viewBox="0 0 150 169.5"
   sodipodi:docname="codeovector.svg">
  <metadata
     id="metadata8">
    <rdf:RDF>
      <cc:Work
         rdf:about="">
        <dc:format>image/svg+xml</dc:format>
        <dc:type
           rdf:resource="http://purl.org/dc/dcmitype/StillImage" />
        <dc:title></dc:title>
      </cc:Work>
    </rdf:RDF>
  </metadata>
  <defs
     id="defs6">
    <linearGradient
       inkscape:collect="always"
       id="linearGradient4238">
      <stop
         style="stop-color:#475d14;stop-opacity:1"
         offset="0"
         id="stop4240" />
      <stop
         style="stop-color:#67b628;stop-opacity:1"
         offset="1"
         id="stop4242" />
    </linearGradient>
    <linearGradient
       inkscape:collect="always"
       id="linearGradient4216">
      <stop
         style="stop-color:#f89021;stop-opacity:0.98850977"
         offset="0"
         id="stop4218" />
      <stop
         style="stop-color:#ee5c21;stop-opacity:1"
         offset="1"
         id="stop4220" />
    </linearGradient>
    <linearGradient
       id="linearGradient4206"
       inkscape:collect="always">
      <stop
         id="stop4208"
         offset="0"
         style="stop-color:#00536c;stop-opacity:1" />
      <stop
         id="stop4210"
         offset="1"
         style="stop-color:#00044e;stop-opacity:1" />
    </linearGradient>
    <linearGradient
       inkscape:collect="always"
       id="linearGradient4410">
      <stop
         style="stop-color:#64bcbe;stop-opacity:0.98823529"
         offset="0"
         id="stop4412" />
      <stop
         style="stop-color:#33479c;stop-opacity:1"
         offset="1"
         id="stop4414" />
    </linearGradient>
    <linearGradient
       inkscape:collect="always"
       xlink:href="#linearGradient4410"
       id="linearGradient4416"
       x1="53.609058"
       y1="32.547745"
       x2="53.609058"
       y2="156.46521"
       gradientUnits="userSpaceOnUse" />
    <linearGradient
       inkscape:collect="always"
       xlink:href="#linearGradient4206"
       id="linearGradient4204"
       x1="54.046082"
       y1="33.397247"
       x2="54.046082"
       y2="156.03337"
       gradientUnits="userSpaceOnUse" />
    <linearGradient
       inkscape:collect="always"
       xlink:href="#linearGradient4216"
       id="linearGradient4222"
       x1="54.023445"
       y1="63.674992"
       x2="54.023445"
       y2="85.258972"
       gradientUnits="userSpaceOnUse" />
    <linearGradient
       inkscape:collect="always"
       xlink:href="#linearGradient4238"
       id="linearGradient4244"
       x1="49.833614"
       y1="63.674992"
       x2="46.72298"
       y2="67.579155"
       gradientUnits="userSpaceOnUse" />
    <linearGradient
       inkscape:collect="always"
       xlink:href="#linearGradient4206"
       id="linearGradient4271"
       x1="57.148582"
       y1="32.983204"
       x2="57.148582"
       y2="156.41753"
       gradientUnits="userSpaceOnUse" />
    <linearGradient
       inkscape:collect="always"
       xlink:href="#linearGradient4206"
       id="linearGradient4286"
       gradientUnits="userSpaceOnUse"
       x1="54.046082"
       y1="33.397247"
       x2="54.046082"
       y2="156.03337"
       gradientTransform="translate(-0.02320195,0.0100542)" />
  </defs>
  <sodipodi:namedview
     pagecolor="#ffffff"
     bordercolor="#666666"
     borderopacity="1"
     objecttolerance="10"
     gridtolerance="10"
     guidetolerance="10"
     inkscape:pageopacity="0"
     inkscape:pageshadow="2"
     inkscape:window-width="1280"
     inkscape:window-height="1371"
     id="namedview4"
     showgrid="false"
     inkscape:zoom="8"
     inkscape:cx="66.049147"
     inkscape:cy="104.10808"
     inkscape:window-x="0"
     inkscape:window-y="27"
     inkscape:window-maximized="0"
     inkscape:current-layer="svg2" />
  <g
     id="g4273">
    <g
       style="fill-opacity:1;fill:url(#linearGradient4204)"
       id="g4193">
      <path
         style="fill:url(#linearGradient4204);fill-opacity:1;stroke:#000000;stroke-width:0.67646748;stroke-miterlimit:4;stroke-dasharray:none;stroke-opacity:0"
         d="m 49.392711,34.385549 c -2.081467,1.341675 -2.799885,4.008686 -3.762319,6.168695 -6.51989,17.810629 -8.638925,36.915707 -8.769982,55.787062 0.734972,0.666174 2.160109,0.359488 3.169652,0.540593 0.918583,-0.772148 0.400606,-2.35125 0.660191,-3.419373 0.08982,-4.788666 0.747903,-9.603241 0.331224,-14.383448 -0.89953,-3.739174 -0.887579,-7.761858 0.329314,-11.429294 1.307339,-1.700321 1.829621,-3.777998 2.02945,-5.884513 1.364255,-9.064315 3.643006,-17.947969 6.41221,-26.675962 0.128623,-0.321888 0.04556,-0.768823 -0.39974,-0.70376 z"
         id="path4175"
         inkscape:connector-curvature="0" />
      <path
         style="fill:url(#linearGradient4286);fill-opacity:1;stroke:#000000;stroke-width:0.67646748;stroke-miterlimit:4;stroke-dasharray:none;stroke-opacity:0"
         d="m 56.847031,33.917498 c -0.674837,0.72208 0.329078,1.957291 0.364974,2.827182 0.957466,2.856138 1.714155,5.810707 2.747643,8.616496 0.29968,0.394699 1.034626,0.117356 0.809896,0.847093 -0.130911,4.963592 1.725368,9.711076 2.310514,14.592645 2.402663,13.864206 2.679239,27.968447 2.87515,42.021306 0.240244,0.84197 -0.366371,2.28845 0.502946,2.74546 1.067556,-0.53143 2.297493,-1.02798 3.116584,-1.8648 C 69.424772,93.0406 69.535145,82.32938 67.900211,71.75989 66.363347,60.253641 63.872889,48.845267 60.15803,37.842987 59.523875,36.279286 58.469892,34.702461 56.956141,33.910059 l -0.10911,0.0074 z"
         id="path4177"
         inkscape:connector-curvature="0" />
      <path
         style="fill:url(#linearGradient4204);fill-opacity:1;stroke:#000000;stroke-width:0.08455843;stroke-miterlimit:4;stroke-dasharray:none;stroke-opacity:0"
         d="m 60.706957,47.453301 c -0.24984,-0.0092 -0.409289,0.27603 -0.303111,0.492707 0.08766,0.247434 0.03941,0.635875 0.349414,0.714177 0.279926,0.05271 0.394712,-0.258767 0.364968,-0.487934 0.0072,-0.259211 0.0043,-0.637777 -0.31146,-0.710457 -0.03272,-0.0072 -0.06637,-0.0097 -0.09981,-0.0085 z"
         id="path4179"
         inkscape:connector-curvature="0" />
      <path
         style="fill:url(#linearGradient4204);fill-opacity:1;stroke:#000000;stroke-width:0.05979184;stroke-miterlimit:4;stroke-dasharray:none;stroke-opacity:0"
         d="m 56.485327,33.496462 c -0.240426,-0.0089 -0.390676,0.258976 -0.310364,0.472077 0.06614,0.235426 0.09915,0.486462 0.218087,0.701957 0.157323,0.177563 0.471081,0.09498 0.51986,-0.13734 0.02132,-0.170111 0.08367,-0.330438 0.190382,-0.462696 0.101003,-0.204245 -0.06135,-0.422493 -0.259995,-0.480626 -0.113596,-0.04716 -0.232506,-0.09799 -0.35797,-0.09337 z"
         id="path4181"
         inkscape:connector-curvature="0" />
      <path
         style="fill:url(#linearGradient4204);fill-opacity:1;stroke:#000000;stroke-width:0.04227922;stroke-miterlimit:4;stroke-dasharray:none;stroke-opacity:0"
         d="m 49.838172,33.94653 c -0.172933,0.01956 -0.337464,0.11096 -0.466012,0.225474 -0.146733,0.15401 -0.07082,0.424246 0.122594,0.499489 0.07446,0.03526 0.088,0.14116 0.16758,0.174323 0.173378,0.117054 0.425162,-0.0029 0.457699,-0.205992 0.05012,-0.198795 0.13099,-0.458743 -0.04932,-0.617474 -0.06413,-0.05401 -0.149088,-0.08059 -0.232541,-0.07582 z"
         id="path4183"
         inkscape:connector-curvature="0" />
      <path
         style="fill:url(#linearGradient4204);fill-opacity:1;stroke:#000000;stroke-width:0.04227922;stroke-miterlimit:4;stroke-dasharray:none;stroke-opacity:0"
         d="m 65.995515,104.96581 c -0.171632,0.0919 -0.170999,0.29984 -0.154068,0.46908 0.0053,0.15866 0.02525,0.35101 0.191729,0.42173 0.177474,0.0774 0.356999,-0.0473 0.503961,-0.13773 0.171588,-0.12195 0.133829,-0.39549 -0.0372,-0.50178 -0.09999,-0.11283 -0.177705,-0.28907 -0.354606,-0.281 -0.05284,-0.0113 -0.09985,0.0173 -0.149812,0.0297 z"
         id="path4185"
         inkscape:connector-curvature="0" />
      <path
         style="fill:url(#linearGradient4204);fill-opacity:1;stroke:#000000;stroke-width:0.0105698;stroke-miterlimit:4;stroke-dasharray:none;stroke-opacity:0"
         d="m 40.410997,95.973645 c -0.110613,0.01536 -0.205489,0.09695 -0.242969,0.201319 -0.05071,0.14126 -0.132364,0.269207 -0.227729,0.384295 -0.08643,0.11135 -0.07609,0.283568 0.0231,0.383726 0.0621,0.06867 0.156784,0.09918 0.247824,0.09499 0.07754,0.002 0.150161,0.0094 0.228071,0.0099 0.127672,1.6e-4 0.24702,-0.09061 0.284558,-0.212074 0.02714,-0.08864 0.01711,-0.182929 0.02348,-0.274259 0.0017,-0.104869 0.0089,-0.209915 0.0055,-0.314719 -0.0085,-0.134109 -0.117828,-0.252965 -0.250942,-0.271958 -0.03,-0.0054 -0.0607,-0.0044 -0.09091,-0.0012 z"
         id="path4187"
         inkscape:connector-curvature="0" />
      <path
         style="fill:url(#linearGradient4204);fill-opacity:1;stroke:#000000;stroke-width:0.11958369;stroke-miterlimit:4;stroke-dasharray:none;stroke-opacity:0"
         d="m 37.53013,105.68712 c -0.322471,-0.0325 -0.533163,0.28731 -0.48764,0.5846 0.03733,2.09407 0.254023,4.18069 0.421438,6.26732 1.091341,12.37231 3.32778,24.68312 7.243625,36.48602 0.551116,1.66928 1.100944,3.34268 1.775695,4.96606 0.05278,0.344 0.140921,0.80726 0.561899,0.86183 1.22194,0.0622 2.449829,0.0239 3.672813,-0.0138 0.308362,0.0286 0.469455,-0.33131 0.316501,-0.57435 -0.958368,-2.12137 -2.036611,-4.18139 -2.875768,-6.35289 -1.888237,-4.74923 -3.10383,-9.70829 -4.14379,-14.70397 -1.631427,-8.13147 -2.463265,-16.39723 -2.914015,-24.67032 -0.06916,-0.81941 -0.07426,-1.64976 -0.206555,-2.461 -0.178128,-0.37264 -0.675099,-0.22521 -1.001932,-0.26346 -0.79055,0.0133 -1.574061,-0.0978 -2.362271,-0.12607 z"
         id="path4189"
         inkscape:connector-curvature="0" />
      <path
         style="fill:url(#linearGradient4204);fill-opacity:1;stroke:#000000;stroke-width:0.23916738;stroke-miterlimit:4;stroke-dasharray:none;stroke-opacity:0"
         d="m 69.073171,107.75286 c -1.087131,0.20286 -2.21655,0.39054 -3.210249,0.88988 -0.325108,0.49452 -0.177788,1.17626 -0.291312,1.74165 -0.697459,11.21921 -2.145886,22.47421 -5.389572,33.25774 -1.048408,3.47415 -2.405118,6.81687 -4.016142,10.05737 -0.213605,0.30866 -0.350718,0.93079 0.183938,0.97387 1.317398,0.0114 2.651504,-0.15297 3.948204,-0.31766 0.412788,-0.38554 0.412136,-1.09748 0.663435,-1.60848 0.332522,-0.99578 0.60621,-2.00188 0.993799,-2.97693 2.449844,-7.52666 4.040165,-15.30097 5.388872,-23.0904 0.902626,-5.62919 1.484583,-11.30628 1.975038,-16.98455 -6.33e-4,-0.61131 0.180402,-1.24903 0.03104,-1.84184 -0.09229,-0.0298 -0.171763,-0.12977 -0.277047,-0.10065 z"
         id="path4191"
         inkscape:connector-curvature="0" />
    </g>
    <path
       inkscape:connector-curvature="0"
       id="path4246"
       d="m 60.008093,45.173872 c -0.184712,0.04386 -0.279518,0.260121 -0.205634,0.430091 0.172385,0.646476 0.331483,1.29754 0.497597,1.943646 0.05705,0.163806 0.24688,0.242162 0.408233,0.197204 0.168831,0.0209 0.354967,-0.07651 0.378927,-0.256244 0.0086,-0.459379 -0.03507,-0.923019 0.02098,-1.381957 0.02833,-0.195746 0.0066,-0.414355 -0.144457,-0.557983 -0.211979,-0.204202 -0.526478,-0.221581 -0.774372,-0.363784 -0.05873,-0.02435 -0.119955,-0.01801 -0.181272,-0.01097 z"
       style="fill:url(#linearGradient4271);fill-opacity:1;stroke:#000000;stroke-width:0.04227922;stroke-miterlimit:4;stroke-dasharray:none;stroke-opacity:0" />
  </g>
  <path
     style="fill:url(#linearGradient4222);fill-opacity:1;stroke:#000000;stroke-width:0.16911687;stroke-miterlimit:4;stroke-dasharray:none;stroke-opacity:0"
     d="m 54.278168,63.642648 c -1.287482,0.05705 -2.608785,0.193614 -3.810055,0.683179 -0.365823,0.274995 -0.0102,0.760959 -7.89e-4,1.119985 0.306759,1.28419 0.225218,2.595166 0.164083,3.896482 -0.178692,1.114696 -0.964488,1.991046 -1.580611,2.884477 -0.691443,0.88829 -1.371038,1.810854 -2.243826,2.531605 -0.765867,-1.111012 -1.550678,-2.317583 -1.686993,-3.692513 -0.0023,-0.34618 0.005,-0.959838 -0.478473,-0.946283 -0.428612,0.16697 -0.494454,0.726635 -0.69225,1.092509 -0.670118,1.86795 -0.605353,3.922126 -0.283171,5.854588 0.400375,2.013394 1.144946,4.077922 2.662537,5.523581 1.740846,1.509067 4.060547,2.238326 6.335212,2.360872 2.285983,0.104397 4.547011,-0.681277 6.458526,-1.897549 2.48519,-1.600428 3.922248,-4.42464 4.387663,-7.281974 0.374859,-2.285487 0.219305,-4.785736 -1.077352,-6.773259 -1.006977,-1.597843 -2.254833,-3.080439 -3.788729,-4.195288 -0.984441,-0.621113 -2.118009,-1.114956 -3.296368,-1.13735 -0.159941,-0.01293 -0.34484,0.112467 -0.440409,0.152507 -0.139524,-0.201267 -0.416687,-0.167518 -0.628995,-0.175569 z m 0.548154,0.624284 c 0.0029,0.1451 0.331671,0.259358 0.05146,0.264221 -0.535334,0.09105 -0.714672,0.660343 -0.960789,1.064196 0.123358,-0.335601 0.187461,-0.727424 -0.0036,-1.042498 0.301962,-0.08681 0.650675,-0.109379 0.91293,-0.285919 z m -6.537437,18.238021 c 1.437738,0.560563 2.887189,1.204723 4.456831,1.247543 1.5017,0.139572 2.982004,-0.272151 4.381716,-0.773657 -0.899738,0.408628 -1.874734,0.83002 -2.883733,0.787453 -1.235594,0.01605 -2.46527,0.141716 -3.672427,-0.09163 -0.898026,-0.171613 -1.735152,-0.583874 -2.391745,-1.20852 l 0.05983,0.02123 0.04953,0.01758 z"
     id="path4214"
     inkscape:connector-curvature="0" />
  <g
     id="g4271"
     style="fill-opacity:1;fill:url(#linearGradient4416)">
    <path
       inkscape:connector-curvature="0"
       id="path4267"
       d="m 45.787406,103.28406 c -1.387826,1.04745 -2.804852,2.04674 -4.530802,2.43712 -0.450551,0.52492 -0.09371,1.38647 -0.168311,2.0455 0.78268,12.58807 2.133512,25.29434 6.164909,37.30957 1.123935,3.16361 2.349959,6.33185 4.107504,9.2032 0.548086,0.85835 1.731861,0.37258 2.554667,0.44536 0.710635,-0.05 1.678194,-1e-5 1.912404,-0.86445 3.714863,-6.81289 5.63172,-14.41972 7.089032,-21.99027 1.314432,-7.17533 2.144061,-14.44154 2.580614,-21.72002 0.02161,-0.54529 -0.646104,-0.52424 -0.885281,-0.15797 -0.992556,0.92088 -2.507635,0.74295 -3.489321,-0.0878 -2.072962,-1.37621 -4.500715,-2.09373 -6.747699,-3.13063 -2.826882,-1.1491 -5.629181,-2.43025 -8.473129,-3.49177 l -0.114587,0.002 z"
       style="fill-opacity:1;stroke:#000000;stroke-width:0.33823374;stroke-miterlimit:4;stroke-dasharray:none;stroke-opacity:0;fill:url(#linearGradient4416)" />
    <path
       inkscape:connector-curvature="0"
       id="path4269"
       d="m 53.598457,32.693466 c -1.194605,0.05591 -2.786875,0.245009 -3.174789,1.60279 -3.452542,9.232456 -5.522542,18.919638 -7.056844,28.636469 0.0019,0.651426 -0.369417,1.440628 0.0087,2.025625 0.649265,0.176609 1.071913,-0.67798 1.609267,-0.921851 1.527254,-1.083648 3.288721,-1.837392 5.11164,-2.245999 2.401827,0.05755 4.933776,-0.393952 7.226354,0.446541 0.915522,0.33402 1.957954,0.522857 2.74809,1.094575 0.510758,1.229285 -0.09264,2.768581 0.925826,3.818109 1.516125,1.782394 2.685129,3.992684 2.592482,6.394111 -0.0025,2.755202 -0.825047,5.515098 -2.541772,7.711612 -0.763723,0.900586 -0.836868,2.082321 -1.062337,3.182051 -0.170445,0.798537 -1.245307,0.600699 -1.829925,0.82079 -3.352853,0.57169 -6.813761,0.930069 -10.138376,0.06207 -2.334742,-0.716061 -4.427396,-2.176531 -5.87841,-4.141785 -0.462856,-0.456849 -0.871386,0.250815 -0.785429,0.691491 -0.355719,5.013165 -0.443536,10.0431 -0.524142,15.066753 0.601798,0.700764 1.715704,0.799257 2.434398,1.421905 1.013841,0.75626 1.755402,1.860657 2.785931,2.562647 4.996112,1.56531 9.961417,3.26459 14.98366,4.72592 0.931262,-0.35864 1.984446,-0.76245 2.957631,-0.26881 0.518808,0.14764 0.960499,1.08871 1.539446,0.61077 0.276137,-1.57356 0.121523,-3.22046 0.200254,-4.82044 0.09893,-7.863992 -0.0084,-15.737652 -0.724708,-23.574286 -1.247038,-14.20874 -3.639354,-28.413682 -8.36764,-41.907101 -0.467291,-1.000176 -0.671358,-2.480293 -1.868157,-2.874929 -0.38061,-0.103411 -0.778475,-0.125201 -1.1712,-0.119029 z"
       style="fill-opacity:1;stroke:#000000;stroke-width:0.33823374;stroke-miterlimit:4;stroke-dasharray:none;stroke-opacity:0;fill:url(#linearGradient4416)" />
  </g>
  <path
     inkscape:connector-curvature="0"
     id="path4202"
     d="m 28.8,160.31448 c 0.345456,-0.35802 11.9385,-3.26445 15.078069,-3.78015 1.053437,-0.17304 1.063545,-0.20419 0.520354,-1.60415 -1.647708,-4.24654 -3.854686,-11.50371 -5.168908,-16.99681 -2.387118,-9.97752 -4.065236,-22.15234 -4.523166,-32.81581 -0.0951,-2.21445 -0.122622,-2.37753 -0.453794,-2.68865 -0.464347,-0.43623 -0.493231,-1.4551 -0.05255,-1.85391 0.368616,-0.33359 0.3927,-1.075901 0.05075,-1.564106 -0.13709,-0.195721 -0.296421,-0.613801 -0.354072,-0.929068 -0.08326,-0.455294 -0.04801,-0.624618 0.17132,-0.823112 0.382035,-0.345736 0.405936,-0.611817 0.497079,-5.533714 0.137157,-7.406639 0.735403,-15.483105 1.594419,-21.525 0.08797,-0.61875 0.227803,-1.5975 0.310739,-2.175 1.553559,-10.817853 4.422785,-22.143134 7.543019,-29.773473 0.977388,-2.390139 1.552803,-3.371999 2.711748,-4.627184 1.038972,-1.125249 2.180333,-1.910373 3.629154,-2.496438 0.561465,-0.227118 1.18434,-0.489435 1.384167,-0.582924 0.525669,-0.245937 2.642795,-0.170367 3.768804,0.134525 2.558775,0.692844 5.149079,2.722374 6.316517,4.949056 0.466315,0.889416 2.021187,5.628312 2.90259,8.846438 2.47111,9.022378 4.347229,17.970277 5.393799,25.725 0.128041,0.94875 0.297877,2.1975 0.37741,2.775 0.380192,2.760574 0.882368,8.259045 1.205558,13.2 0.08634,1.32 0.19869,5.488125 0.249663,9.2625 0.05097,3.774375 0.144454,6.8625 0.207739,6.8625 0.33332,0 0.589766,-0.21847 0.591065,-0.50355 0.0026,-0.56296 0.685701,-1.800077 1.358101,-2.45943 0.884696,-0.867527 2.023679,-1.289402 3.229238,-1.196096 l 0.913806,0.07072 0.180426,-1.668324 c 0.09924,-0.917578 0.21555,-1.849573 0.258477,-2.071099 l 0.07805,-0.402774 2.679133,0.08812 2.679135,0.08812 0.10409,-0.554843 c 0.05725,-0.305165 0.07911,-0.573964 0.04858,-0.597334 -0.03053,-0.02337 -1.461411,-0.265827 -3.17974,-0.538793 l -3.124233,-0.4963 0.101632,-1.291713 c 0.15642,-1.988058 0.781268,-5.177861 1.344456,-6.863355 1.637705,-4.90128 4.577955,-8.12774 8.131442,-8.922975 0.637462,-0.142659 0.795937,-0.23802 0.795937,-0.478958 0,-0.703005 -2.530182,-4.752942 -2.96707,-4.749244 -0.141861,0.0012 -0.542316,0.101262 -0.889899,0.222357 -1.03082,0.359128 -2.044211,0.0443 -2.864453,-0.889909 -0.904912,-1.030637 -0.937572,-2.229541 -0.09097,-3.33949 0.515024,-0.675232 1.817007,-1.29811 2.413413,-1.154595 1.224492,0.294654 2.15306,1.112606 2.472158,2.17766 0.154075,0.51426 0.14035,0.724771 -0.09179,1.407711 l -0.272959,0.803026 1.033286,1.550886 c 0.568307,0.852987 1.303284,2.097336 1.633284,2.765219 l 0.6,1.214332 1.325634,0.09461 c 1.680927,0.119962 2.878427,0.427129 4.299366,1.102815 0.896055,0.426093 1.399734,0.813076 2.475,1.90158 1.387769,1.404852 2.218284,2.63967 3.050137,4.534971 0.99806,2.273994 1.84742,6.044937 2.06072,9.149107 l 0.10427,1.51746 -0.65757,0.09038 c -0.36166,0.04971 -1.16381,0.12934 -1.78256,0.176953 -2.172566,0.167181 -2.099997,0.134124 -2.099997,0.956612 l 0,0.720274 2.581877,0.10481 c 1.42003,0.05764 2.59363,0.118587 2.60798,0.135429 0.0144,0.01684 0.14349,1.009369 0.28695,2.205619 0.14346,1.19625 0.30831,2.227562 0.36632,2.291802 0.058,0.06424 0.26891,-0.01086 0.46867,-0.166882 0.94115,-0.735108 1.68454,-0.99491 2.8382,-0.991907 0.95548,0.0025 1.24488,0.06852 1.92053,0.43817 1.64186,0.898267 2.60594,2.491048 2.60594,4.305308 l 0,1.06671 3.14707,4.71708 c 2.96772,4.44826 3.16866,4.71165 3.52613,4.62193 0.60292,-0.15132 1.88521,0.30068 2.4733,0.87183 0.78123,0.75872 1.07385,1.47934 0.99361,2.44691 -0.11916,1.43695 -1.08826,2.44392 -2.72082,2.82714 -0.55072,0.12928 -2.33376,1.13187 -6.24576,3.51195 -3.01125,1.83207 -5.5503,3.41066 -5.64232,3.50799 -0.12359,0.1307 0.0304,1.81378 0.58909,6.43788 0.41603,3.4435 0.72757,6.28946 0.69232,6.32437 -0.0353,0.0349 -1.27909,0.14025 -2.76409,0.23411 -3.84632,0.2431 -3.92922,0.25653 -4.01338,0.64987 -0.0389,0.18191 -0.69114,2.24124 -1.44937,4.5763 l -1.378592,4.24555 2.055432,3.40445 c 1.13049,1.87245 2.19227,3.60027 2.35952,3.83959 l 0.30408,0.43515 3.98615,-0.0739 c 3.63656,-0.0674 3.88118,-0.0567 2.78921,0.12173 -1.53621,0.2511 -4.99146,0.59945 -8.32805,0.83963 -4.590343,0.33042 -28.217916,0.20917 -35.324997,-0.18128 -3.290095,-0.18075 -11.093385,-0.18103 -14.55,0 -5.337735,0.27873 -11.13882,0.83648 -15.75,1.5143 -1.981284,0.29124 -6.606481,1.09351 -7.425,1.28791 -0.20625,0.049 -0.34125,0.0541 -0.3,0.0114 z m 63.867963,-8.13371 2.018021,-3.59421 -1.354541,-4.20578 -1.354539,-4.20578 -1.972683,-0.13327 c -1.150026,-0.0777 -2.022277,-0.0777 -2.091609,0 -0.126425,0.14167 -2.41947,8.55752 -2.415156,8.86402 0.0014,0.0994 0.72026,1.66526 1.597469,3.47967 1.723156,3.56416 1.625521,3.44907 2.892546,3.41001 l 0.66247,-0.0204 2.018022,-3.59422 z M 50.85,154.52533 c 0,-0.0686 -0.46692,-1.0642 -1.037599,-2.2125 -2.561963,-5.15511 -4.264132,-10.44957 -6.000095,-18.66283 -1.300233,-6.15172 -2.464041,-15.51232 -2.872034,-23.1 -0.0865,-1.60875 -0.190975,-3.27071 -0.23216,-3.69324 l -0.07489,-0.76823 -1.004113,6e-4 c -0.552263,3e-4 -1.282069,-0.0465 -1.621792,-0.1041 -0.451194,-0.0765 -0.63559,-0.0515 -0.684136,0.0926 -0.03655,0.10853 0.01909,1.37858 0.123653,2.82233 0.962158,13.28505 2.975006,24.894 6.228954,35.925 0.95971,3.25346 2.770086,8.60462 2.991544,8.8425 0.07296,0.0784 0.132663,0.29213 0.132663,0.47501 0,0.18286 0.08438,0.36654 0.1875,0.40815 0.321059,0.12955 3.8625,0.10633 3.8625,-0.0253 z m 4.453142,-0.22477 c 0.221704,-0.21849 2.008597,-3.78434 2.455739,-4.90056 0.728552,-1.81871 0.947163,-2.42097 1.726818,-4.75722 2.82263,-8.45807 4.835051,-20.21166 5.706852,-33.33101 l 0.103879,-1.56322 -0.585715,0.46321 c -1.217046,0.9625 -2.526174,0.92158 -3.704694,-0.11579 -0.418651,-0.36851 -1.304497,-0.8417 -2.513745,-1.34275 -1.027002,-0.42553 -2.879776,-1.20148 -4.117276,-1.72432 -1.2375,-0.52284 -3.653741,-1.53411 -5.369423,-2.24727 l -3.119421,-1.29665 -0.928369,0.69786 c -1.11689,0.83959 -2.078772,1.34258 -3.021227,1.5799 l -0.700206,0.17631 0.09002,1.66798 c 1.000529,18.53993 3.769497,32.87626 8.27484,42.84297 0.895761,1.9816 2.042679,4.03636 2.278953,4.08286 0.557058,0.10964 3.262313,-0.074 3.422979,-0.2323 z m 4.01608,-0.0822 0.894222,-0.0934 0.552153,-1.575 c 0.303684,-0.86625 0.521674,-1.62563 0.484425,-1.6875 -0.03725,-0.0619 -0.01083,-0.1125 0.05872,-0.1125 0.06955,0 0.31637,-0.65813 0.548496,-1.4625 0.232127,-0.80438 0.550758,-1.8675 0.708069,-2.3625 1.50143,-4.72444 3.559587,-14.05553 4.698143,-21.3 0.81066,-5.15813 2.078958,-17.33259 1.83144,-17.58011 -0.106566,-0.10657 -2.998224,0.59067 -3.111137,0.75015 -0.05018,0.0709 -0.137551,0.98413 -0.194148,2.02942 -0.917293,16.94183 -4.349202,33.10667 -8.904367,41.94098 -0.422652,0.81969 -0.734441,1.54539 -0.692864,1.61267 0.07028,0.11371 0.927612,0.0699 3.126848,-0.15974 z M 78.675,152.07445 c 0.99,-1.16523 1.85724,-2.23538 1.9272,-2.3781 0.127854,-0.26083 -1.491281,-10.147 -1.701633,-10.3899 -0.05647,-0.0652 -0.930862,-0.24758 -1.943104,-0.40529 -1.012243,-0.1577 -2.20635,-0.3627 -2.653574,-0.45554 -0.804375,-0.16699 -0.812272,-0.17393 -0.733273,-0.64471 0.04392,-0.26175 0.487358,-3.95216 0.985412,-8.20091 0.498054,-4.24875 1.242518,-10.59375 1.654361,-14.1 0.411844,-3.50625 0.789909,-6.79322 0.840142,-7.30439 l 0.09133,-0.92939 -0.433434,-0.0873 c -0.238387,-0.048 -0.788464,-0.19786 -1.222393,-0.33297 -0.755838,-0.23534 -0.850203,-0.23158 -2.247731,0.0894 -0.802324,0.1843 -1.474723,0.35104 -1.49422,0.37054 -0.0195,0.0195 -0.107534,1.14552 -0.195636,2.50227 -0.897573,13.82233 -3.539922,28.35484 -7.307811,40.19182 -1.072566,3.36951 -1.169477,3.72117 -1.056612,3.83403 0.05141,0.0514 1.592119,0.0133 3.423784,-0.0845 1.831665,-0.0979 3.6086,-0.13904 3.948743,-0.0915 0.340144,0.0476 1.158444,0.12633 1.818444,0.17508 0.66,0.0488 1.57125,0.14281 2.025,0.20902 0.45375,0.0662 1.19625,0.12725 1.65,0.13563 l 0.825,0.0152 1.8,-2.1186 z M 111.43976,120.6 l 4.20207,-3.225 0.004,-0.6576 c 0.002,-0.36168 0.0855,-0.92919 0.18492,-1.26114 l 0.18082,-0.60355 -3.66832,-3.56911 -3.66833,-3.56911 -1.05692,0.015 c -0.64385,0.009 -1.36577,-0.0876 -1.84721,-0.24753 -0.43467,-0.14437 -0.82805,-0.22476 -0.87418,-0.17863 -0.0461,0.0461 0.16047,2.12863 0.4591,4.62779 0.29863,2.49915 0.71222,5.96141 0.91908,7.69391 0.50583,4.23649 0.51712,4.29969 0.75854,4.24569 0.11236,-0.0251 2.09522,-1.49694 4.40635,-3.27069 z M 65.454612,105.35406 C 65.604375,104.26142 65.564487,90.878184 65.400802,87.3 64.558746,68.892382 61.792428,52.034097 57.425907,38.7 c -1.237434,-3.778767 -1.906452,-5.400029 -2.288234,-5.545182 -0.87805,-0.333834 -2.017552,-0.340151 -3.081197,-0.01708 -1.235728,0.375341 -1.059519,0.07994 -2.42256,4.061186 -1.583121,4.624059 -2.885547,9.396586 -4.032401,14.776074 -1.080006,5.065935 -2.386545,12.739971 -2.20068,12.925836 0.05018,0.05018 0.348783,-0.141442 0.663562,-0.425826 1.408864,-1.272824 3.037361,-2.12609 5.149443,-2.698097 1.070559,-0.289935 1.635209,-0.341929 3.73616,-0.344043 2.233422,-0.0022 2.617294,0.03704 3.932826,0.40252 0.801805,0.222753 1.915555,0.598719 2.475,0.835479 0.999022,0.422791 1.018983,0.442284 1.118556,1.092303 0.05576,0.364005 0.106384,1.086694 0.1125,1.605973 0.01096,0.931429 0.02401,0.959979 0.967935,2.119659 1.904541,2.339855 2.514966,4.398801 2.208936,7.450682 -0.257086,2.563783 -1.000957,4.488237 -2.450878,6.340608 -0.687042,0.877741 -0.759005,1.04782 -0.888531,2.099999 -0.222488,1.807307 -0.151089,1.735988 -2.102217,2.099886 -2.743077,0.511604 -4.508445,0.662291 -6.776763,0.578447 -2.489382,-0.09202 -3.540155,-0.331444 -5.434367,-1.23827 -1.565229,-0.749329 -2.87886,-1.801548 -3.732216,-2.989505 -0.326821,-0.454967 -0.64011,-0.77736 -0.696196,-0.716432 C 41.521766,81.291093 41.247903,86.96102 41.15034,92.175 l -0.08982,4.8 1.182239,0.520367 c 0.892602,0.392882 1.402729,0.743277 2.082238,1.430239 0.495,0.500428 1.008582,1.076304 1.141293,1.279734 0.159275,0.24414 0.54167,0.46125 1.125,0.63872 0.811832,0.247 3.276933,1.037 11.390432,3.65036 l 3.006723,0.96847 0.668277,-0.30315 c 0.367551,-0.16673 0.933838,-0.30463 1.258417,-0.30645 0.69033,-0.004 1.823442,0.50168 2.042678,0.91132 0.245112,0.458 0.394687,0.33439 0.496792,-0.41055 z M 67.125,105.06252 c 0.495,-0.28774 1.177272,-0.66456 1.516159,-0.83736 l 0.616158,-0.3142 0.09556,-1.44298 C 69.583347,98.98809 69.398734,89.16157 68.998873,83.625 68.559733,77.544544 67.560331,69.300595 66.662193,64.35 65.196579,56.271445 63.945438,50.886201 61.853524,43.652215 c -1.839468,-6.361014 -2.139823,-7.110167 -3.375423,-8.419053 -0.705972,-0.747843 -1.879272,-1.581993 -2.023015,-1.438249 -0.04885,0.04885 0.181545,0.818101 0.511983,1.709451 4.138532,11.163587 7.150596,26.644525 8.501683,43.695636 0.490613,6.191668 0.591868,9.177549 0.598952,17.662403 0.004,4.805567 0.04105,8.734227 0.0823,8.730347 0.04125,-0.004 0.48,-0.24248 0.975,-0.53023 z M 40.625259,90.7125 C 40.725622,87.391875 40.878723,83.69625 40.96548,82.5 41.142921,80.053383 41.118714,79.702818 40.670652,78.230319 40.20126,76.687722 39.989743,74.29502 40.192819,72.825 c 0.09118,-0.66 0.22749,-1.892076 0.302919,-2.737947 0.151419,-1.698006 0.566998,-2.713617 1.573167,-3.844582 0.5483,-0.616306 0.57764,-0.706658 0.833742,-2.567471 1.27575,-9.269448 3.796712,-20.043781 6.470003,-27.652141 0.328938,-0.936177 0.563357,-1.736852 0.52093,-1.779278 -0.140983,-0.140983 -1.430169,1.026921 -1.983055,1.796499 -1.744411,2.428094 -4.955682,12.12915 -6.78925,20.50992 -1.544996,7.061777 -2.595488,13.876734 -3.237047,21 -0.573207,6.364338 -0.65542,7.830502 -0.780139,13.9125 l -0.102275,4.9875 0.736593,0.0086 c 0.405126,0.0048 1.006593,0.06449 1.336593,0.13275 0.33,0.06826 0.772751,0.131868 0.983891,0.141355 l 0.383889,0.01725 0.182479,-6.0375 z M 55.221516,84.456438 C 57.447065,83.895534 59.486662,82.74903 60.719358,81.365976 63.061563,78.738079 64.054276,74.163591 63.012286,70.8 62.404188,68.837025 59.850751,65.719569 58.04685,64.737763 56.730603,64.021371 55.05,63.67774 55.05,64.125 c 0,0.172431 0.190683,0.225 0.816147,0.225 0.448881,0 0.857865,0.0675 0.908853,0.15 0.05555,0.08988 -0.136295,0.150661 -0.478647,0.151651 -0.314244,9e-4 -0.833637,0.04498 -1.154208,0.09793 -0.552966,0.09134 -0.610392,0.154713 -1.119887,1.235849 -0.422052,0.895582 -0.548809,1.064116 -0.592033,0.787156 -0.03025,-0.193828 0.05514,-0.689163 0.189765,-1.100742 0.19576,-0.598498 0.207679,-0.793011 0.05953,-0.971517 -0.221208,-0.266539 0.04136,-0.494305 0.574124,-0.49803 0.180756,-0.0012 0.376963,-0.08047 0.436017,-0.176023 0.231753,-0.374985 -3.566144,0.132381 -4.105118,0.548409 -0.02225,0.01718 0.06828,0.496771 0.201183,1.065772 0.167309,0.71631 0.225036,1.519031 0.187664,2.609546 -0.04998,1.458436 -0.09059,1.638694 -0.548624,2.435629 -1.035261,1.801238 -3.515029,4.707158 -3.744192,4.387637 C 45.456675,73.366787 44.85,72.023304 44.85,71.019447 44.85,70.651251 44.790811,70.35 44.718471,70.35 c -0.07234,0 -0.26755,0.320625 -0.433799,0.7125 -1.305432,3.077103 -0.394359,8.470306 1.853178,10.970109 1.871258,2.081289 6.034743,3.192248 9.083666,2.423829 z M 50.85,84.004018 c -0.45375,-0.05865 -1.12875,-0.242643 -1.5,-0.408862 -0.786003,-0.351915 -2.073709,-1.450993 -1.856964,-1.584949 0.08155,-0.0504 0.718348,0.147098 1.415115,0.438886 1.848159,0.773957 2.397234,0.923949 3.776391,1.031615 1.543761,0.120514 2.781261,-0.123909 4.980251,-0.983672 1.505263,-0.588529 1.997351,-0.695065 1.551333,-0.335863 -0.609278,0.490682 -2.889566,1.553728 -3.762934,1.754238 -1.051447,0.241395 -3.114108,0.281098 -4.603192,0.08861 z M 47.722856,73.3125 c 1.127905,-1.279958 2.211571,-2.765421 2.54418,-3.4875 0.172164,-0.373761 0.277618,-0.949802 0.27967,-1.527693 C 50.55138,66.980847 49.950104,64.2 49.660782,64.2 c -0.06377,0 -0.395765,0.354375 -0.737757,0.7875 -0.341993,0.433125 -1.132266,1.42875 -1.756161,2.2125 -1.524602,1.915231 -1.76783,2.405512 -1.752525,3.532595 0.01903,1.401528 0.852273,3.517405 1.38517,3.517405 0.05347,0 0.468976,-0.421875 0.923347,-0.9375 z m -5.383844,-3.251712 c 0.514794,-0.08111 1.316431,-0.188111 1.781416,-0.237788 0.845252,-0.0903 0.845486,-0.09047 1.110671,-0.794161 0.34489,-0.9152 0.916811,-1.743384 2.153362,-3.118241 0.552554,-0.614353 1.12341,-1.318065 1.268571,-1.563802 L 48.91696,63.9 l -0.561396,0 c -1.368046,0 -3.334735,0.729771 -4.753345,1.763805 -1.236876,0.901566 -2.427119,2.746407 -2.603865,4.035912 -0.0842,0.614268 -0.06517,0.68883 0.154317,0.604608 0.137694,-0.05284 0.671548,-0.162431 1.186341,-0.243537 z M 78.6,48.233462 78.6,46.65 83.1375,46.6464 c 2.495625,-0.002 4.8075,-0.06614 5.1375,-0.142596 1.078197,-0.249816 1.125,-0.40217 1.125,-3.662067 0,-3.232553 -0.05084,-3.416786 -1.016922,-3.685092 -0.328037,-0.0911 -2.459372,-0.155337 -5.170578,-0.155829 L 78.6,39 l 0,-1.575 0,-1.575 4.6125,-9e-4 c 2.711206,-4.5e-4 4.842541,-0.06473 5.170578,-0.155829 C 89.30698,35.436741 89.4,35.168265 89.4,32.758242 c 0,-2.428323 -0.09465,-2.673338 -1.125,-2.912067 -0.33,-0.07646 -2.644158,-0.140628 -5.142575,-0.142596 L 78.589851,29.7 78.632425,28.0875 78.675,26.475 82.8,26.434207 c 5.947182,-0.05881 7.538554,0.191342 8.672556,1.363263 0.951273,0.983084 1.144773,1.702521 1.201171,4.465983 0.05789,2.83667 -0.04799,3.417837 -0.802881,4.406796 C 91.584381,37.045541 91.35,37.418928 91.35,37.5 c 0,0.08107 0.224682,0.441753 0.499293,0.801515 0.791964,1.037527 0.884105,1.611517 0.824982,5.139224 -0.04678,2.79157 -0.08666,3.208064 -0.364677,3.809261 -0.448338,0.969498 -1.038105,1.606419 -1.916637,2.069874 L 89.625,49.725 84.1125,49.77096 78.6,49.81692 l 0,-1.583463 z m 29.1,-0.458462 0,-2.025 -6.075,0 -6.075,0 0,-1.099239 c 0,-1.035887 0.07668,-1.288758 1.330484,-4.3875 C 97.612248,38.454717 99.13812,34.68 100.27131,31.875 c 1.13319,-2.805 2.12898,-5.184375 2.21288,-5.2875 0.1801,-0.221367 3.41581,-0.270077 3.41581,-0.05142 0,0.07484 -1.3929,3.567969 -3.09533,7.7625 -1.70243,4.194531 -3.127801,7.778295 -3.167488,7.96392 l -0.07215,0.3375 4.066178,0 4.06618,0 0.0388,-8.0625 0.0388,-8.0625 1.6125,-0.04258 1.6125,-0.04257 0,8.105074 0,8.105075 0.675,0 0.675,0 0,1.575 0,1.575 -0.675,0 -0.675,0 0,2.025 0,2.025 -1.65,0 -1.65,0 0,-2.025 z m 10.78881,1.6875 c 0.0723,-0.185625 0.56911,-1.4175 1.1041,-2.7375 C 125.00535,33.370741 126.3,30.128982 126.3,29.930706 126.3,29.727195 125.63633,29.7 120.66993,29.7 l -5.63008,0 0.0426,-1.6125 0.0426,-1.6125 7.575,0 7.575,0 0.0432,1.215079 0.0432,1.215078 -4.23244,10.447422 -4.23243,10.447421 -1.76956,0 -1.76956,0 0.13139,-0.3375 z m 17.50752,0.06189 c -1.55309,-0.556328 -2.52108,-1.849524 -2.79323,-3.731641 -0.18759,-1.297338 -0.18999,-13.712473 -0.003,-15.152482 0.33097,-2.547798 1.67371,-3.819077 4.32894,-4.098543 0.71274,-0.07502 3.16902,-0.137594 5.45839,-0.13906 L 147.15,26.4 l 0,1.639101 0,1.639101 -4.96315,0.0484 -4.96316,0.0484 -0.36184,0.420864 -0.36185,0.420865 0,7.558271 0,7.55827 0.36092,0.419591 0.36091,0.419591 2.79487,0.05533 c 3.42934,0.0679 4.34816,-0.02902 4.82843,-0.509277 0.34771,-0.347718 0.35487,-0.411107 0.35487,-3.144142 0,-2.925717 -0.10512,-3.484964 -0.70695,-3.760923 -0.14743,-0.0676 -1.73618,-0.148984 -3.53055,-0.180856 l -3.2625,-0.05795 0,-1.562321 0,-1.56232 3.49777,0 c 3.92101,0 4.5839,0.110583 5.68155,0.947788 0.39863,0.304041 0.81399,0.825296 1.09412,1.373049 l 0.45156,0.882951 0,3.760605 c 0,3.607415 -0.0141,3.791159 -0.34518,4.510607 -0.45111,0.980139 -1.09002,1.6239 -2.03708,2.05253 -0.73906,0.334489 -0.92744,0.348598 -5.04274,0.377672 -3.73334,0.02638 -4.36733,-0.0029 -5.00367,-0.230811 z M 3,23.011209 C 2.1817672,22.657344 1.517164,21.918662 1.2708897,21.089365 0.94346751,19.986816 0.94828264,9.6863244 1.2767212,8.6147252 1.5568387,7.7007831 2.0531493,7.1246656 2.886058,6.7466061 3.4695916,6.4817386 3.8989755,6.4563028 7.8375,6.4532943 L 12.15,6.45 l 0,1.1160531 0,1.1160533 -4.0345359,0.046447 c -3.7197135,0.042823 -4.0591521,0.068744 -4.35,0.3321951 C 3.4557695,9.3412702 3.45,9.4471489 3.45,14.85 c 0,5.402852 0.00577,5.508729 0.3154641,5.789251 0.2908479,0.263451 0.6302865,0.289373 4.35,0.332196 l 4.0345359,0.04645 0,1.116055 0,1.116052 -4.3125,-0.0059 C 4.3277349,23.23935 3.4272757,23.195994 3,23.011209 Z m 13.35,0 C 16.06125,22.886331 15.603775,22.570189 15.33339,22.30867 14.459138,21.463089 14.4,20.990517 14.4,14.85 14.4,8.7096732 14.459127,8.2371687 15.33339,7.391011 16.260129,6.4940635 16.523986,6.45 20.968285,6.45 l 4.02792,0 0.814398,0.4125 c 0.680586,0.3447237 0.882173,0.5463106 1.226897,1.2268972 L 27.45,8.9037945 27.4485,14.839397 c -0.0015,5.931425 -0.0017,5.936141 -0.357639,6.700528 -0.373674,0.802505 -0.874154,1.248277 -1.725779,1.537132 -0.336487,0.114129 -1.866808,0.170946 -4.5,0.167072 -3.221823,-0.0047 -4.091205,-0.04959 -4.515117,-0.23292 z m 8.452239,-2.292075 C 25.024576,20.534391 25.05,19.932153 25.05,14.85 25.05,9.7659741 25.024639,9.1656773 24.802042,8.9808667 24.607229,8.8191214 23.790853,8.775 20.992908,8.775 17.701474,8.775 17.407804,8.796644 17.115864,9.0607482 16.805643,9.3413912 16.8,9.4448219 16.8,14.85 c 0,5.05276 0.0215,5.522567 0.2625,5.736265 0.417192,0.369932 0.677169,0.392645 4.177239,0.364956 2.558709,-0.02024 3.371248,-0.07318 3.5625,-0.232087 z M 29.55,14.85 l 0,-8.4 5.298103,0 5.298102,0 0.814398,0.4125 C 41.64119,7.2072237 41.842776,7.4088106 42.1875,8.0893972 L 42.6,8.9037945 42.5985,14.839397 c -0.0015,5.931425 -0.0017,5.936141 -0.357639,6.700528 -0.373674,0.802505 -0.874154,1.248277 -1.725779,1.537132 C 40.186371,23.188561 38.734275,23.25 36.427617,23.25 l -3.577617,0 0,-1.112723 0,-1.112724 3.427242,-0.04978 c 2.626372,-0.03815 3.485136,-0.09788 3.675,-0.255643 C 40.174576,20.534391 40.2,19.932129 40.2,14.85 40.2,9.7678734 40.174576,9.1656083 39.952242,8.9808667 39.759926,8.8210674 38.836861,8.7641015 35.827242,8.7262962 L 31.95,8.6775926 l 0,7.2862034 0,7.286204 -1.2,0 -1.2,0 0,-8.4 z m 15.3,0 0,-8.4 5.1,0 5.1,0 0,1.125 0,1.125 -3.9,0 -3.9,0 0,2.25 0,2.25 3.9,0 3.9,0 0,1.125 0,1.125 -3.9,0 -3.9,0 0,2.775 0,2.775 3.9,0 3.9,0 0,1.125 0,1.125 -5.1,0 -5.1,0 0,-8.4 z m 19.2,8.165652 C 63.76125,22.888331 63.303775,22.570189 63.03339,22.30867 62.159139,21.463089 62.1,20.990517 62.1,14.85 62.1,8.7096732 62.159127,8.2371687 63.03339,7.391011 63.958003,6.4961208 64.230726,6.45 68.597799,6.45 c 2.593461,0 4.13317,0.059607 4.467318,0.1729428 0.851625,0.2888552 1.352104,0.7346272 1.725779,1.5371328 0.355976,0.764502 0.356173,0.768196 0.356173,6.6899244 l 0,5.925 -0.36216,0.777844 c -0.25063,0.538302 -0.558492,0.907851 -0.999688,1.2 L 73.147694,23.175 68.861346,23.21107 C 65.268531,23.2413 64.490055,23.20967 64.05,23.01565 Z m 8.452239,-2.296518 C 72.724576,20.534391 72.75,19.932153 72.75,14.85 72.75,9.7659741 72.724639,9.1656773 72.502043,8.9808667 72.307228,8.8191214 71.490853,8.775 68.692908,8.775 65.401475,8.775 65.107804,8.796644 64.815864,9.0607482 64.505643,9.3413912 64.5,9.4448219 64.5,14.85 c 0,5.05276 0.0215,5.522567 0.2625,5.736265 0.417192,0.369932 0.677169,0.392645 4.177239,0.364956 2.558709,-0.02024 3.371248,-0.07318 3.5625,-0.232087 z M 77.4,14.85 l 0,-8.4 4.323103,0 4.323102,0 0.814398,0.4125 C 87.54119,7.2072237 87.742776,7.4088106 88.0875,8.0893972 88.475401,8.8552293 88.5,9.0216133 88.5,10.879514 c 0,2.759091 -0.328494,3.56807 -1.710075,4.211381 -0.582186,0.271085 -1.024726,0.356525 -1.852425,0.357639 -0.769908,0.0011 -1.087127,0.05622 -1.086221,0.188966 7.5e-4,0.103125 1.178007,1.84125 2.61623,3.8625 l 2.614947,3.675 -1.292153,0.04372 c -0.908316,0.03073 -1.347833,-0.01383 -1.479597,-0.15 -0.103095,-0.106545 -1.407679,-1.979259 -2.899075,-4.161588 L 80.7,14.939261 l 0,-0.854215 0,-0.854214 2.452059,-0.05292 c 1.793829,-0.03871 2.518617,-0.108179 2.7,-0.258783 0.3662,-0.304058 0.366315,-3.6340581 1.37e-4,-3.9382662 -0.186019,-0.1545369 -0.971425,-0.2186586 -3.15,-0.2571704 L 79.8,8.6723929 l 0,7.2888041 0,7.288803 -1.2,0 -1.2,0 0,-8.4 z m 12.925,8.262913 c 0.0275,-0.0754 1.535,-3.854566 3.35,-8.398155 l 3.3,-8.2610701 0.996919,-0.00184 0.996918,-0.00184 1.842943,4.6125001 c 1.01362,2.536875 2.53579,6.31945 3.3826,8.405724 l 1.53966,3.793223 -1.28503,-0.04322 -1.28502,-0.04322 -0.75772,-1.9125 -0.75772,-1.9125 -3.038982,0 -3.038979,0 0.458196,-1.125 0.458198,-1.125 2.081508,0 c 1.200998,0 2.081509,-0.05972 2.081509,-0.141182 0,-0.222117 -2.413292,-6.367489 -2.561907,-6.523818 -0.0732,-0.077 -0.174287,-0.09881 -0.224633,-0.04846 -0.107736,0.107736 -1.50285,3.604239 -3.591408,9.00096 l -1.494805,3.8625 -1.251123,0 c -0.691983,0 -1.228779,-0.06127 -1.201124,-0.137087 z M 107.4,14.85 l 0,-8.4 1.0125,0.00334 1.0125,0.00334 2.91902,4.234157 c 1.60546,2.328787 3.46171,5.024385 4.125,5.990217 0.66329,0.965832 1.29035,1.790589 1.39348,1.832791 0.14818,0.06064 0.1875,-1.1964 0.1875,-5.993558 l 0,-6.070291 1.2,0 1.2,0 0,8.406854 0,8.406853 -1.00018,-0.04435 -1.00017,-0.04435 -4.13733,-5.955308 C 112.0368,13.944274 110.09063,11.261149 109.9875,11.257193 109.8405,11.251554 109.8,12.546164 109.8,17.25 l 0,6 -1.2,0 -1.2,0 0,-8.4 z m 17.1,8.161209 c -0.28875,-0.124878 -0.74622,-0.44102 -1.01661,-0.702539 C 122.60914,21.463089 122.55,20.990517 122.55,14.85 c 0,-6.1403268 0.0591,-6.6128313 0.93339,-7.458989 C 124.4301,6.4747311 124.59861,6.45 129.89518,6.45 l 4.80482,0 0,1.116891 0,1.1168911 -4.5595,0.045609 c -4.23698,0.042383 -4.58182,0.065822 -4.875,0.3313572 C 124.95576,9.3412804 124.95,9.4469528 124.95,14.85 c 0,5.405178 0.006,5.508609 0.31586,5.789251 0.29194,0.264104 0.58561,0.285749 3.87705,0.285749 2.79794,0 3.61432,-0.04412 3.80913,-0.205866 0.21269,-0.176582 0.24796,-0.566012 0.24796,-2.7375 l 0,-2.531634 -2.4,0 -2.4,0 0,-1.125 0,-1.125 3.6,0 3.6,0 -0.001,3.7875 c -10e-4,3.670297 -0.0125,3.81117 -0.35764,4.552425 -0.37367,0.802505 -0.87415,1.248277 -1.72578,1.537132 -0.33649,0.114129 -1.86681,0.170946 -4.5,0.167072 -3.22182,-0.0047 -4.0912,-0.04959 -4.51511,-0.23292 z M 137.85,14.85 l 0,-8.4 5.1,0 5.1,0 0,1.125 0,1.125 -3.9,0 -3.9,0 0,2.25 0,2.25 3.9,0 3.9,0 0,1.125 0,1.125 -3.9,0 -3.9,0 0,2.775 0,2.775 3.9,0 3.9,0 0,1.125 0,1.125 -5.1,0 -5.1,0 0,-8.4 z"
     style="fill:#000001" />
  <g
     id="g4234"
     style="fill-opacity:1;fill:url(#linearGradient4244)">
    <path
       inkscape:connector-curvature="0"
       id="path4230"
       d="m 48.278025,63.639804 c -1.703371,0.08619 -3.334457,0.794542 -4.732578,1.74156 -1.358478,1.053239 -2.449564,2.551813 -2.802102,4.253674 -0.06454,0.328332 -0.138191,0.968517 0.364279,0.93624 1.189376,-0.271497 2.411818,-0.355281 3.605845,-0.591551 0.73019,-0.192573 0.770401,-1.063843 1.131647,-1.60392 0.896289,-1.57995 2.358036,-2.757193 3.283378,-4.308235 0.147432,-0.520395 -0.544923,-0.403005 -0.850469,-0.427768 z"
       style="fill:url(#linearGradient4244);fill-opacity:1;stroke:#000000;stroke-width:0.16911687;stroke-miterlimit:4;stroke-dasharray:none;stroke-opacity:0" />
    <path
       inkscape:connector-curvature="0"
       id="path4232"
       d="m 49.631612,63.961307 c -0.483092,0.141496 -0.69758,0.692831 -1.038407,1.025636 -1.051018,1.37161 -2.236267,2.657196 -3.107037,4.156479 -0.601942,1.178399 -0.298271,2.579801 0.115681,3.768022 0.254525,0.587398 0.462383,1.386935 1.14479,1.600697 0.430001,-0.05259 0.646337,-0.531508 0.952601,-0.790945 1.063819,-1.215407 2.140339,-2.463306 2.854602,-3.92336 0.5176,-1.453661 0.130752,-3.029671 -0.176061,-4.486012 -0.14742,-0.441221 -0.176488,-1.001994 -0.561549,-1.310841 -0.05638,-0.02961 -0.120953,-0.04388 -0.18462,-0.03968 z"
       style="fill:url(#linearGradient4244);fill-opacity:1;stroke:#000000;stroke-width:0.16911687;stroke-miterlimit:4;stroke-dasharray:none;stroke-opacity:0" />
  </g>
</svg>
