<?xml version="1.0" encoding="UTF-8" standalone="no"?>
<!-- Created with Inkscape (http://www.inkscape.org/) -->

<svg
   xmlns:dc="http://purl.org/dc/elements/1.1/"
   xmlns:cc="http://creativecommons.org/ns#"
   xmlns:rdf="http://www.w3.org/1999/02/22-rdf-syntax-ns#"
   xmlns:svg="http://www.w3.org/2000/svg"
   xmlns="http://www.w3.org/2000/svg"
   xmlns:sodipodi="http://sodipodi.sourceforge.net/DTD/sodipodi-0.dtd"
   xmlns:inkscape="http://www.inkscape.org/namespaces/inkscape"
   id="svg2"
   version="1.1"
   inkscape:version="0.91 r13725"
   width="861"
   height="861"
   viewBox="0 0 861 861"
   sodipodi:docname="4276.svg">
  <metadata
     id="metadata8">
    <rdf:RDF>
      <cc:Work
         rdf:about="">
        <dc:format>image/svg+xml</dc:format>
        <dc:type
           rdf:resource="http://purl.org/dc/dcmitype/StillImage" />
        <dc:title></dc:title>
      </cc:Work>
    </rdf:RDF>
  </metadata>
  <defs
     id="defs6" />
  <sodipodi:namedview
     pagecolor="#ffffff"
     bordercolor="#666666"
     borderopacity="1"
     objecttolerance="10"
     gridtolerance="10"
     guidetolerance="10"
     inkscape:pageopacity="0"
     inkscape:pageshadow="2"
     inkscape:window-width="2560"
     inkscape:window-height="1371"
     id="namedview4"
     showgrid="false"
     inkscape:zoom="0.1767767"
     inkscape:cx="875.74379"
     inkscape:cy="-451.67217"
     inkscape:window-x="0"
     inkscape:window-y="27"
     inkscape:window-maximized="1"
     inkscape:current-layer="svg2" />
  <g
     id="g4138">
    <path
       style="fill:#f8b11c"
       d="M 400.5,860.17088 C 231.60405,848.12918 85.821202,738.91642 26.618195,580.07855 -2.3762072,502.28844 -7.9462957,414.59354 10.934018,333.14848 47.920743,173.59679 173.59679,47.920743 333.14848,10.934018 c 63.12373,-14.6331264 131.57931,-14.6331264 194.70303,0 159.5517,36.986725 285.22777,162.662772 322.21446,322.214462 14.6331,63.12373 14.6331,131.57931 0,194.70303 -36.98669,159.5517 -162.66276,285.22777 -322.21446,322.21446 -21.3895,4.95848 -45.52835,8.51903 -68.85151,10.15598 -12.53437,0.87968 -45.85301,0.85058 -58.5,-0.051 z"
       id="path4142"
       inkscape:connector-curvature="0" />
    <path
       style="fill:#122747"
       d="M 400.56481,860.17065 C 265.84753,850.48987 144.3304,779.18483 70.300933,666.375 10.95482,575.94043 -11.818526,468.00302 5.6599108,360 28.818977,216.89515 125.60278,93.192818 259.89797,35.050583 342.52735,-0.72326811 436.01878,-9.4960035 524.625,10.210017 658.37851,39.956794 771.20355,133.44755 825.94942,259.89797 861.7233,342.52735 870.49598,436.01878 850.78995,524.625 821.04322,658.37851 727.55245,771.20355 601.10203,825.94942 556.48657,845.26537 509.19391,856.6698 459,860.2167 c -12.51417,0.88432 -45.85414,0.858 -58.43519,-0.0457 z M 238.5,736.5 l 0,-16.5 4.875,0 4.875,0 0,16.5 0,16.5 6.375,0 6.375,0 0,-16.5 0,-16.5 4.875,0 4.875,0 0,16.53033 0,16.53035 6.1875,-0.21788 6.1875,-0.2178 0,-19.57333 c 0,-15.48809 -0.21484,-19.83198 -1.02933,-20.8125 C 281.17262,711.12796 278.21037,711 253.40817,711 l -27.65817,0 0,21 0,21 6.375,0 6.375,0 0,-16.5 z m 66.7007,4.35865 c 2.70836,-6.4715 5.11996,-11.95466 5.35909,-12.1848 0.34393,-0.33099 3.31463,6.26024 6.48503,14.38865 0.27002,0.6923 -0.93037,0.9375 -4.58958,0.9375 l -4.95524,0 0,4.5 0,4.5 13.88506,0 13.88507,0 -1.18359,-2.8125 c -0.65098,-1.54688 -4.59192,-11.00843 -8.75765,-21.02568 l -7.57404,-18.21318 -7.14461,0.21318 -7.14462,0.21318 -8.10696,19.5 c -4.45884,10.725 -8.30298,20.10367 -8.54254,20.84145 -0.40047,1.2333 0.12426,1.32398 6.51235,1.125 l 6.94793,-0.21645 4.9243,-11.76635 z M 351,736.5 l 0,-16.5 4.875,0 4.875,0 0,4.125 0,4.125 -4.125,0 c -2.26875,0 -4.125,0.1183 -4.125,0.26288 0,0.14459 2.47745,5.62896 5.50544,12.1875 l 5.50545,11.92462 5.36955,0.22035 c 3.00742,0.12345 5.36956,-0.0898 5.36956,-0.48465 0,-0.38775 -1.65844,-4.25656 -3.68543,-8.59741 -2.02698,-4.34084 -3.48948,-8.08839 -3.24999,-8.32787 0.23948,-0.23948 1.11197,-0.43542 1.93887,-0.43542 0.82689,0 2.12064,-0.55855 2.87499,-1.24124 C 373.3135,732.6863 373.5,731.28121 373.5,723.42564 373.5,710.09461 374.8693,711 354.70748,711 l -16.45748,0 0,21 0,21 6.375,0 6.375,0 0,-16.5 z m 40.5,-4.5 0,-21 -6.375,0 -6.375,0 0,21 0,21 6.375,0 6.375,0 0,-21 z m 17.07713,4.3125 0.20212,-16.3125 4.86038,0 4.86037,0 0,16.5 0,16.5 6,0 6,0 0,-20.22362 c 0,-19.22689 -0.0715,-20.26187 -1.4507,-21 C 428.181,711.31168 421.25591,711 411.7993,711 L 396,711 l 0,21.03033 0,21.03035 6.1875,-0.21788 6.1875,-0.2178 0.20213,-16.3125 z m 44.42088,4.5432 c 2.70357,-6.47311 5.11056,-11.96427 5.34887,-12.20257 C 458.70404,728.29595 465,742.4777 465,743.63938 465,743.83772 462.80625,744 460.125,744 l -4.875,0 0,4.5 0,4.5 13.88506,0 13.88507,0 -1.01747,-2.4375 c -0.5596,-1.34063 -4.48905,-10.80232 -8.73209,-21.02599 l -7.71463,-18.58849 -7.1739,0.21349 -7.1739,0.21349 -8.42853,20.25 c -4.63568,11.1375 -8.45127,20.5158 -8.47907,20.84063 -0.0278,0.3249 3.06175,0.49364 6.86567,0.375 l 6.9162,-0.21563 4.9156,-11.7693 z M 522.75,744 l 0,-9 4.875,0 4.875,0 0,9 0,9 6.375,0 6.375,0 0,-21 0,-21 -6.375,0 -6.375,0 0,8.625 0,8.625 -4.875,0 -4.875,0 0,-8.625 0,-8.625 -6.375,0 -6.375,0 0,21 0,21 6.375,0 6.375,0 0,-9 z m 39.57436,-12.1875 0.19937,-20.8125 -6.38687,0 -6.38686,0 0,21.03033 0,21.03035 6.1875,-0.21788 6.1875,-0.2178 0.19936,-20.8125 z m 39.17564,8.8125 0,-12.375 -8.625,0 -8.625,0 0,3.375 c 0,3.25 0.0833,3.375 2.25,3.375 2.25,0 2.25,0 2.25,4.5 l 0,4.5 -4.875,0 -4.875,0 0,-12 0,-12 9.27964,0 9.27963,0 1.86296,-4.3125 1.86295,-4.3125 -16.16328,-0.20253 c -13.79928,-0.17291 -16.33392,-0.0321 -17.33008,0.96277 -0.97267,0.97139 -1.20485,3.99572 -1.39539,18.17533 -0.12572,9.35552 -0.0408,17.75805 0.18862,18.67229 0.97615,3.88927 1.57584,4.01714 18.84352,4.01714 l 16.07143,0 0,-12.375 z m 17.25,3.33921 0,-9.03578 4.6875,0.22328 4.6875,0.22329 0.21131,8.8125 0.21129,8.8125 6.35121,0 6.35119,0 0,-21 0,-21 -6.375,0 -6.375,0 0,8.625 0,8.625 -4.875,0 -4.875,0 0,-8.625 0,-8.625 -6.375,0 -6.375,0 0,21 0,21 6.375,0 6.375,0 0,-9.03579 z M 176.83312,676.83248 c 1.58135,-1.10763 1.66688,-1.6827 1.66688,-11.20748 0,-12.79862 0.44217,-12.375 -12.91688,-12.375 l -9.58312,0 0,-4.125 0,-4.125 11.25,0 11.25,0 0,-4.5 0,-4.5 -15.98165,0 c -12.61419,0 -16.28841,0.22418 -17.4375,1.06395 -1.31117,0.95821 -1.45585,2.02736 -1.45585,10.75806 0,7.11328 0.27403,10.02475 1.02933,10.93605 0.86423,1.04273 2.63867,1.24194 11.0625,1.24194 l 10.03317,0 0,4.5 0,4.5 -10.875,0 c -5.98125,0 -10.875,0.12797 -10.875,0.28437 0,0.1564 0.86849,2.1814 1.92998,4.5 l 1.92998,4.21563 13.65314,0 c 11.1433,0 13.95956,-0.21463 15.32002,-1.16752 z M 218.25,657 l 0,-21 -6.375,0 -6.375,0 0,16.5 0,16.5 -4.875,0 -4.875,0 0,-16.5 0,-16.5 -6.375,0 -6.375,0 0,19.83248 c 0,19.64409 0.0158,19.84355 1.66688,21 1.38186,0.96789 4.3955,1.16752 17.625,1.16752 l 15.95812,0 0,-21 z m 16.5,4.5 0,-16.5 4.875,0 4.875,0 0,4.08758 0,4.08756 -4.03196,0.22494 -4.03194,0.22492 5.49072,12 5.49073,12 5.73071,0.22021 c 3.15188,0.12111 5.5677,-0.0476 5.36847,-0.375 -0.98354,-1.61615 -7.26673,-16.07739 -7.26673,-16.72491 0,-0.40992 0.81964,-0.7453 1.82143,-0.7453 3.63455,0 4.17857,-1.53719 4.17857,-11.80702 0,-7.74071 -0.2245,-9.69794 -1.24124,-10.82142 C 254.87842,636.12255 253.30358,636 238.38376,636 L 222,636 l 0,20.5 c 0,11.275 0.225,20.725 0.5,21 0.275,0.275 3.14375,0.5 6.375,0.5 l 5.875,0 0,-16.5 z m 40.66369,7.6875 0.21131,-8.8125 8.8125,-0.21131 8.8125,-0.21129 0,-3.35121 0,-3.35119 -9,0 -9,0 0,-4.125 0,-4.125 9.25221,0 9.2522,0 1.94165,-4.5 1.94166,-4.5 -17.56887,0 -17.56885,0 0,21 0,21 6.35119,0 6.35121,0 0.21129,-8.8125 z m 81.80507,4.67089 c 1.11718,-2.2779 2.03124,-4.29387 2.03124,-4.47995 0,-0.18609 -4.97812,-0.43173 -11.0625,-0.54589 L 337.125,668.625 336.91846,656.8125 336.71191,645 l 9.23781,0 9.2378,0 2.03124,-4.14161 c 1.11718,-2.2779 2.03124,-4.3029 2.03124,-4.5 0,-0.19712 -7.23215,-0.35839 -16.07143,-0.35839 -13.61039,0 -16.2519,0.18047 -17.25,1.17857 -1.00825,1.00825 -1.17857,3.87438 -1.17857,19.83247 0,18.4262 0.0203,18.66815 1.66688,19.82144 1.35936,0.95212 4.1671,1.16752 15.21876,1.16752 l 13.55188,0 2.03124,-4.14161 z M 375.75,657 l 0,-21 -6,0 -6,0 0,21 0,21 6,0 6,0 0,-21 z m 27.57713,4.3125 0.20212,-16.3125 5.61038,0 5.61037,0 0,-4.5 0,-4.5 -17.625,0 -17.625,0 0,4.5 0,4.5 5.625,0 5.625,0 0,16.53033 0,16.53033 6.1875,-0.21783 6.1875,-0.21783 0.20213,-16.3125 z m 40.50824,6.68713 0.21039,-9.62535 4.60998,-7.24965 c 2.53549,-3.9873 5.74181,-9.0215 7.12516,-11.18713 l 2.5152,-3.9375 -7.71055,0.004 -7.71055,0.004 -2.625,4.11726 c -1.44375,2.26449 -2.79375,4.10943 -3,4.09986 -0.20625,-0.01 -1.49264,-1.86408 -2.85863,-4.12113 L 431.90775,636 l -7.45388,0 C 420.35424,636 417,636.17413 417,636.38695 c 0,0.21283 3.20625,5.45613 7.125,11.65176 l 7.125,11.2648 0,9.37858 0,9.37857 6.1875,-0.21783 6.1875,-0.21783 0.21037,-9.62537 z m 80.47305,-10.81213 8.65963,-20.8125 -6.73385,-0.2173 c -4.88242,-0.15755 -6.89841,0.0487 -7.3324,0.75 -0.3292,0.53201 -2.7189,6.09831 -5.31044,12.36954 -2.59154,6.27122 -4.91243,11.16498 -5.15753,10.875 -0.24511,-0.28999 -2.60862,-5.83643 -5.25224,-12.32544 l -4.80659,-11.79821 -7.01774,-0.0143 c -5.31801,-0.0108 -6.92715,0.21277 -6.64372,0.9232 0.50515,1.26616 14.38406,34.71026 15.87331,38.25 l 1.18328,2.8125 6.93933,0 6.93933,0 8.65963,-20.8125 z M 549,657 l 0,-21 -6.375,0 -6.375,0 0,21 0,21 6.375,0 6.375,0 0,-21 z m 17.26184,14.0625 0.0118,-6.9375 3.76898,6.9375 3.76897,6.9375 7.09419,0 c 3.9018,0 7.09418,-0.19527 7.09418,-0.43393 0,-0.23866 -2.69738,-4.99462 -5.99417,-10.5688 l -5.99416,-10.13486 5.99416,-10.13488 C 585.30263,641.15335 588,636.4471 588,636.26917 c 0,-0.17792 -3.27542,-0.22689 -7.27872,-0.10883 l -7.27872,0.21466 -3.40878,6.375 -3.40878,6.375 -0.2167,-6.5625 -0.2167,-6.5625 -6.3458,0 -6.3458,0 0,21 0,21 6.375,0 6.375,0 0.0118,-6.9375 z M 605.25,657 l 0,-21 -6.375,0 -6.375,0 0,21 0,21 6.375,0 6.375,0 0,-21 z m 16.5,4.5 0,-16.5 4.86037,0 4.86038,0 0.20212,16.3125 0.20213,16.3125 6.1875,0.21783 6.1875,0.21783 0,-19.65878 c 0,-17.2402 -0.15271,-19.8275 -1.24124,-21.03032 C 641.88012,636.12442 640.31529,636 625.75876,636 l -16.00876,0 0,21 0,21 6,0 6,0 0,-16.5 z m 62.25,4.125 0,-12.375 -9,0 -9,0 0,3.32748 c 0,3.20588 0.0891,3.33607 2.4375,3.5625 2.40984,0.23235 2.44005,0.28396 2.66242,4.54752 l 0.22494,4.3125 -4.91244,0 -4.91242,0 0,-12 0,-12 8.98736,0 8.98737,0 1.88763,-3.72507 c 1.03821,-2.04878 1.88764,-4.07378 1.88764,-4.5 0,-0.50884 -5.45223,-0.77493 -15.87844,-0.77493 -13.72257,0 -16.06467,0.16853 -17.25,1.24124 -1.25719,1.13774 -1.37156,2.76371 -1.37156,19.5 0,17.25876 0.0822,18.34092 1.5,19.75876 1.40698,1.40698 2.5,1.5 17.625,1.5 l 16.125,0 0,-12.375 z m 37.5,10.875 c 1.34,-1.34 1.5,-2.5 1.5,-10.875 0,-12.6413 0.27436,-12.375 -12.75,-12.375 l -9.75,0 0,-4.125 0,-4.125 11.25,0 11.25,0 0,-4.5 0,-4.5 -16.45748,0 c -20.10404,0 -18.79252,-0.83747 -18.79252,12 0,12.31319 -0.32409,12 12.41752,12 l 10.08248,0 0,4.5 0,4.5 -10.875,0 c -5.98125,0 -10.875,0.15913 -10.875,0.35362 0,0.19448 0.82518,2.21948 1.83373,4.5 l 1.83373,4.14638 13.91627,0 C 719,678 720.10779,677.89221 721.5,676.5 Z M 169.39618,612.25506 c 19.2357,-13.29141 37.6613,-32.34796 52.77997,-54.58732 5.2856,-7.77503 6.19551,-8.77626 6.89407,-7.5859 2.17241,3.70182 13.95104,20.19923 17.96928,25.16816 7.06359,8.73481 19.58125,21.31301 27.8355,27.97015 8.53087,6.88024 19.27162,14.02985 21.07683,14.02985 0.66854,0 4.4685,-2.24772 8.44435,-4.99494 19.2357,-13.29141 37.6613,-32.34796 52.77997,-54.58732 5.2856,-7.77503 6.19551,-8.77626 6.89407,-7.5859 2.17241,3.70182 13.95104,20.19923 17.96928,25.16816 7.06359,8.73481 19.58125,21.31301 27.8355,27.97015 8.53087,6.88024 19.27163,14.02985 21.07683,14.02985 0.66854,0 4.4685,-2.24772 8.44435,-4.99494 19.2357,-13.29141 37.6613,-32.34796 52.77997,-54.58732 5.2856,-7.77503 6.19551,-8.77626 6.89407,-7.5859 2.17241,3.70182 13.95104,20.19923 17.96928,25.16816 7.06359,8.73481 19.58125,21.31301 27.8355,27.97015 8.53087,6.88024 19.27163,14.02985 21.07683,14.02985 0.66854,0 4.4685,-2.24772 8.44436,-4.99494 19.0749,-13.18031 37.82599,-32.52471 52.42272,-54.08146 3.14748,-4.64827 5.94961,-8.36077 6.22695,-8.25 0.27734,0.11077 2.78287,3.5764 5.56784,7.7014 11.87654,17.59108 28.14196,35.7783 41.2613,46.13646 7.88673,6.22683 18.95892,13.48854 20.56647,13.48854 1.70018,0 13.08301,-7.81951 21.03925,-14.45306 8.74369,-7.29006 20.51588,-19.35387 28.23979,-28.93932 14.63584,-18.16316 31.24737,-46.39576 38.01409,-64.60762 8.39303,-22.58919 12.92602,-51.71973 13.77135,-88.5 0.39675,-17.26083 -0.48983,-44.451 -1.74885,-53.63648 l -0.44933,-3.27864 -7.96642,-1.89156 c -21.45878,-5.09525 -49.29556,-8.96832 -73.82511,-10.27167 -22.64168,-1.20304 -43.70912,0.0592 -77.457,4.64074 -6.1148,0.83014 -8.00456,0.75647 -18.375,-0.71636 -35.90005,-5.09858 -71.10648,-5.2534 -105.30924,-0.4631 -14.69137,2.05761 -18.7418,2.11849 -30,0.45093 -34.24497,-5.07235 -70.87968,-5.22968 -105,-0.45093 -14.69137,2.05761 -18.7418,2.11849 -30,0.45093 -34.24497,-5.07235 -70.87968,-5.22968 -105,-0.45093 -14.69624,2.05829 -18.74086,2.11879 -30,0.44874 -22.07783,-3.27476 -34.40587,-4.01368 -60,-3.59632 -14.93519,0.24355 -27.54095,0.83582 -33.375,1.56808 -29.628233,3.71883 -59.179954,8.92053 -60.491394,10.64772 -1.468505,1.93405 -2.135012,17.37384 -2.101157,48.67385 0.03507,32.42149 0.715623,41.84767 4.575582,63.375 3.733923,20.82441 8.466092,35.26209 17.207669,52.5 18.48421,36.44986 42.95842,65.58648 70.57288,84.01725 3.63628,2.42697 7.2397,4.42843 8.0076,4.44771 0.7679,0.0193 4.64915,-2.21268 8.625,-4.9599 z m -11.93593,-3.39922 c -1.83439,-1.31679 -7.15829,-5.41819 -11.83091,-9.11424 l -8.49565,-6.72008 6.62065,-6.65025 6.62066,-6.65025 0.21423,-20.42301 0.21423,-20.42301 10.58483,-10.62115 c 6.36114,-6.38295 10.9899,-10.46572 11.59995,-10.23162 1.55413,0.59638 4.23341,-0.2935 6.08918,-2.02242 1.22765,-1.14373 1.67258,-2.41349 1.67258,-4.77329 0,-4.23533 -2.24243,-6.47652 -6.48011,-6.47652 -3.79872,0 -6.26757,2.38238 -6.5175,6.28923 -0.15663,2.44836 -1.39241,3.95959 -11.58886,14.17199 L 144.75,536.6426 l 0,19.96051 0,19.96052 -6.15076,6.10961 -6.15076,6.10959 -4.78714,-4.70391 C 117.81673,574.40548 107.3466,561.08713 98.61027,547.125 93.942233,539.66468 81.75,516.48966 81.75,515.07695 81.75,514.75963 93.794895,514.5 108.51644,514.5 l 26.76643,0 13.57181,-13.5 13.5718,-13.5 9.241,0 c 8.76283,0 9.35629,0.097 11.4693,1.875 4.76885,4.01272 11.11322,1.28719 11.11322,-4.77424 0,-2.4166 -0.44476,-3.34166 -2.39601,-4.98353 -1.92764,-1.62199 -2.90163,-1.93406 -4.98254,-1.59637 -1.4226,0.23086 -3.31928,1.1081 -4.21484,1.94944 -1.47762,1.38815 -2.59304,1.5297 -12.05421,1.5297 l -10.42592,0 -13.57181,13.5 -13.5718,13.5 -26.67461,0 c -20.432283,0 -26.853348,-0.21939 -27.438453,-0.9375 -0.42012,-0.51563 -1.109242,-2.20313 -1.531372,-3.75 L 76.620907,501 l 16.169603,0 16.1696,0 7.39495,-7.26539 7.39494,-7.26539 0,-17.5861 0,-17.58612 1.875,-1.73769 c 2.72896,-2.52911 2.67546,-7.8208 -0.10115,-10.00488 -3.75675,-2.95506 -8.65781,-1.71202 -10.48417,2.65909 -0.96005,2.29772 -0.94623,2.88172 0.12142,5.13162 0.66261,1.39636 1.68494,2.72309 2.27183,2.9483 0.87711,0.33659 1.06707,3.28851 1.06707,16.58211 l 0,16.17264 -6.02429,5.97591 -6.0243,5.9759 -15.966648,0 -15.966658,0 -1.983136,-8.4375 C 68.303383,468.55869 65.960733,448.66668 64.872663,421.5 64.400894,409.721 65.539114,376.51502 66.63313,370.14078 l 0.512184,-2.98421 5.614843,-1.31427 c 6.836001,-1.60011 27.194825,-5.0923 29.687103,-5.0923 1.7962,0 1.80274,0.0304 1.80274,8.3886 l 0,8.38861 -10.289333,10.36139 C 84.44106,397.47488 83.464192,398.25 80.902343,398.25 c -3.404438,0 -6.652343,3.35185 -6.652343,6.86524 0,3.10842 3.587587,6.63476 6.75,6.63476 3.301125,0 6.75,-3.51999 6.75,-6.88919 0,-2.22894 1.238047,-3.74054 11.25,-13.73581 l 11.25,-11.23124 0,-9.97042 c 0,-7.86265 0.22237,-10.05575 1.05187,-10.37406 1.56988,-0.60242 19.18407,-2.31334 19.59417,-1.90325 0.19467,0.19468 0.35396,2.07292 0.35396,4.17387 l 0,3.81991 14.0625,14.04317 14.0625,14.04317 17.625,0.19942 17.625,0.19943 0.22859,3.5625 0.2286,3.5625 -37.63052,0 -37.63051,0 -14.16058,14.06701 -14.16058,14.067 -0.01297,17.6205 -0.01297,17.62049 -1.862048,1.76622 c -2.6148,2.48024 -2.56293,6.70335 0.11523,9.38151 2.566193,2.56619 6.17001,2.6388 9.026363,0.18187 2.724805,-2.34377 2.925025,-6.9783 0.41682,-9.64816 C 97.549402,464.58091 97.5,464.04824 97.5,448.29517 l 0,-16.23315 12.55759,-12.40601 12.55761,-12.40601 36.19239,0 36.19241,0 0,3.75 0,3.75 -11.07657,0 -11.07657,0 -7.48593,7.51293 -7.48593,7.51292 -0.25679,7.02102 -0.25679,7.02102 -3.61664,3.56225 c -2.81335,2.77105 -4.21773,3.59874 -6.32299,3.72655 -3.85244,0.2339 -6.42179,2.85779 -6.42179,6.55814 0,8.74061 12.61342,8.89108 13.1437,0.15679 0.1344,-2.21374 1.0104,-3.56623 4.76051,-7.34997 l 4.59579,-4.63701 0,-6.74742 0,-6.74741 5.82909,-5.79491 5.8291,-5.7949 9.80364,0 9.80364,0 0.49575,11.8125 c 0.44976,10.71629 1.17708,19.38151 2.4079,28.6875 l 0.44639,3.375 -3.79144,-3.75 -3.79144,-3.75 -0.0164,-9.64173 c -0.0156,-9.202 0.0692,-9.74336 1.85869,-11.87005 2.56158,-3.04425 2.45101,-6.15258 -0.31731,-8.92091 C 190.56145,425.19606 189.11437,424.5 187.5,424.5 c -1.61438,0 -3.06145,0.69606 -4.55769,2.19231 -2.76833,2.76833 -2.87889,5.87666 -0.31731,8.92091 1.80804,2.14874 1.875,2.61 1.875,12.91628 l 0,10.68796 7.48382,7.6051 7.48383,7.60511 1.53132,7.47366 c 2.03339,9.92404 4.82643,20.09477 7.5376,27.44786 l 2.21343,6.00314 0,25.18409 0,25.18409 -2.79543,3.45225 c -1.53749,1.89873 -6.32769,7.09242 -10.6449,11.54154 l -7.84947,8.08929 -6.2301,-6.19774 -6.2301,-6.19773 0,-16.24882 c 0,-13.96256 0.16306,-16.31139 1.15886,-16.69351 0.63738,-0.24459 1.6597,-1.64336 2.27184,-3.1084 0.9951,-2.38164 0.98595,-2.93134 -0.0865,-5.19135 -1.40056,-2.95144 -4.55631,-4.51318 -7.71691,-3.819 -2.87195,0.63079 -4.58714,2.57432 -5.10879,5.78893 -0.33247,2.04876 -0.0208,3.04334 1.53205,4.88879 l 1.94944,2.31677 0.0527,16.39174 c 0.029,9.01545 0.30011,17.02105 0.60247,17.79021 0.30237,0.76916 3.40053,4.24833 6.88479,7.7315 l 6.33503,6.33301 -3.375,3.04556 c -3.33026,3.00518 -19.80283,15.61645 -20.39788,15.61645 -0.16865,0 -1.80749,-1.07738 -3.64188,-2.39416 z m 133.50231,-1.11145 C 261.67674,586.52201 242.06808,564.08944 225.19029,532.5 c -14.30244,-26.76927 -21.2933,-52.77517 -24.29444,-90.375 -1.70528,-21.36469 -0.72273,-72.65566 1.43162,-74.73287 1.7429,-1.68049 37.39721,-7.48655 62.42253,-10.16508 18.29021,-1.95765 45.95341,-1.78213 66.375,0.42113 8.6625,0.93459 16.01057,1.95478 16.32904,2.26708 0.31848,0.3123 -2.80547,1.1602 -6.94211,1.88421 -5.32902,0.93271 -7.70836,1.68205 -8.16346,2.57096 -1.12415,2.19578 -1.74876,12.53917 -2.4082,39.87957 -0.3532,14.64375 -0.853,28.56562 -1.11064,30.9375 -0.38139,3.51096 -0.26303,4.3125 0.63677,4.3125 0.86191,0 1.22161,1.60983 1.6339,7.3125 0.82334,11.38828 4.82545,38.43832 6.35268,42.9375 1.79263,5.28101 2.4777,10.40263 1.69268,12.65455 -0.88958,2.55184 0.067,3.91987 1.25781,1.79872 0.6982,-1.24373 0.77988,-1.2328 1.28343,0.17173 4.00592,11.17361 10.39013,24.99229 16.57437,35.87535 l 2.0601,3.62535 -1.98075,3.49965 c -7.93635,14.0222 -27.89051,36.89036 -42.96562,49.24009 -7.09668,5.81369 -18.73564,14.63456 -19.31002,14.63456 -0.14567,0 -2.44176,-1.57752 -5.10242,-3.5056 z m -57.83369,-72.6258 c 0.13962,-1.23398 0.57788,-2.63542 0.97391,-3.11432 0.46491,-0.56219 0.44139,-1.04296 -0.0664,-1.35676 -0.43251,-0.26732 -0.7864,-1.48921 -0.7864,-2.71531 0,-1.31741 -0.47341,-2.41094 -1.15735,-2.67339 -1.55245,-0.59574 -2.33577,0.29807 -1.23015,1.40369 1.07686,1.07686 1.18859,8.56289 0.1375,9.2125 -1.24315,0.76831 -0.8432,2.00266 0.5625,1.73608 0.82561,-0.15657 1.40667,-1.08118 1.56637,-2.49249 z m 4.50074,0.72112 c 1.14804,-2.51967 1.06325,-7.02088 -0.1743,-9.25354 -1.34325,-2.42334 -2.14538,-0.85523 -1.09857,2.14764 0.61996,1.77841 0.61762,3.14426 -0.009,5.23566 -1.01447,3.38598 -1.03723,3.78053 -0.21815,3.78053 0.34629,0 1.02129,-0.85963 1.5,-1.91029 z m 4.4827,-0.58505 c 0.13053,-1.10256 -0.1226,-2.00466 -0.5625,-2.00466 -0.43989,0 -0.80442,0.25312 -0.81005,0.5625 -0.006,0.30938 -0.22556,1.36706 -0.48874,2.35041 -0.35675,1.33303 -0.21103,1.69994 0.57275,1.44216 0.57817,-0.19016 1.15802,-1.24784 1.28854,-2.35041 z m 7.66887,-2.94216 c 2.4771,-7.37456 2.46609,-7.3125 1.29644,-7.3125 -0.62089,0 -1.72879,2.16725 -2.77964,5.4375 -0.96099,2.99062 -1.90728,5.85937 -2.10287,6.375 -0.19557,0.51562 0.12033,0.9375 0.70203,0.9375 0.64495,0 1.77025,-2.12161 2.88404,-5.4375 z m 5.57608,0.53258 C 258.07485,525.60464 258.20918,525 257.10017,525 c -0.5715,0 -1.88338,2.49367 -3.05788,5.8125 -2.28797,6.46525 -2.41595,7.18705 -1.20255,6.78259 0.46186,-0.15395 1.59474,-2.29146 2.51752,-4.75001 z M 267.75,534.75 c 0,-0.4125 -0.65508,-0.75 -1.45574,-0.75 -0.80065,0 -1.66432,-0.3375 -1.91926,-0.75 -0.27044,-0.43757 0.49221,-0.75 1.83073,-0.75 2.68335,0 2.89981,-0.89447 0.7393,-3.05498 -1.39752,-1.39751 -1.7203,-1.44577 -3.1875,-0.47655 -1.91069,1.26217 -2.50402,3.90459 -1.22327,5.44781 1.01334,1.221 5.21574,1.48988 5.21574,0.33372 z M 264,531 c 0,-0.4125 0.50625,-0.75 1.125,-0.75 0.61875,0 1.125,0.3375 1.125,0.75 0,0.4125 -0.50625,0.75 -1.125,0.75 -0.61875,0 -1.125,-0.3375 -1.125,-0.75 z m 7.5,1.875 c 0,-1.83333 0.33929,-2.625 1.125,-2.625 0.78571,0 1.125,0.79167 1.125,2.625 0,1.83333 0.33929,2.625 1.125,2.625 1.54034,0 1.49994,-4.76792 -0.0535,-6.32143 -1.29256,-1.29256 -1.85831,-1.40514 -3.63508,-0.72333 -1.33819,0.51351 -1.74273,7.04476 -0.43637,7.04476 0.4125,0 0.75,-1.18125 0.75,-2.625 z m 12,-2.625 c 0,-3 -0.32143,-5.25 -0.75,-5.25 -0.4125,0 -0.75,0.601 -0.75,1.33557 0,0.79524 -0.91028,1.67917 -2.25,2.18485 -1.78428,0.6735 -2.25,1.29744 -2.25,3.01443 0,2.72782 1.21699,3.96515 3.9,3.96515 l 2.1,0 0,-5.25 z m -4.0472,2.55732 c -0.56924,-1.48343 0.0466,-2.55732 1.46646,-2.55732 0.65279,0 1.08074,0.74246 1.08074,1.875 0,2.09735 -1.81739,2.58417 -2.5472,0.68232 z M 294.75,530.25 c 0,-3.29962 -0.30471,-5.25 -0.82021,-5.25 -0.45112,0 -0.99382,0.66382 -1.20598,1.47516 -0.21217,0.81134 -1.02468,1.67794 -1.80558,1.9258 -1.84887,0.5868 -3.04656,2.87856 -2.40775,4.60721 0.6826,1.84711 1.726,2.4667 4.17702,2.48035 2.05466,0.0115 2.0625,-0.008 2.0625,-5.23852 z m -4.215,2.66092 c -0.22985,-0.59901 -0.19934,-1.44276 0.0678,-1.875 0.87354,-1.41341 1.8972,-0.82578 1.8972,1.08908 0,2.03316 -1.28861,2.54855 -1.965,0.78592 z m 7.965,-0.0359 c 0,-1.83333 0.33929,-2.625 1.125,-2.625 0.61875,0 1.125,-0.50625 1.125,-1.125 0,-1.21047 -0.68692,-1.38993 -2.56366,-0.66976 -1.33816,0.51351 -1.7427,7.04476 -0.43634,7.04476 0.4125,0 0.75,-1.18125 0.75,-2.625 z m 5.85359,-0.9375 c -0.12572,-1.95937 -0.56609,-3.5625 -0.97859,-3.5625 -0.4125,0 -0.85287,1.60313 -0.97859,3.5625 -0.18411,2.86914 0.006,3.5625 0.97859,3.5625 0.97223,0 1.16269,-0.69336 0.97859,-3.5625 z m 6.55968,0.96159 c 0.5977,-1.43051 1.08673,-3.11801 1.08673,-3.75 0,-1.99844 -1.31805,-1.24454 -2.25253,1.28841 l -0.89928,2.4375 -0.77677,-2.25 c -0.96251,-2.78797 -1.04512,-2.88429 -1.97895,-2.30715 -1.04694,0.64705 1.43946,7.18215 2.73258,7.18215 0.55082,0 1.49052,-1.17041 2.08822,-2.60091 z M 318.75,534.75 c 0,-0.4125 -0.675,-0.75 -1.5,-0.75 -0.825,0 -1.5,-0.3375 -1.5,-0.75 0,-0.4125 0.84375,-0.75 1.875,-0.75 1.36381,0 1.875,-0.40176 1.875,-1.47362 0,-3.22214 -5.07696,-3.51357 -6.28676,-0.36087 -0.69031,1.7989 -0.58051,2.36008 0.71533,3.65592 1.30118,1.30118 4.82143,1.61409 4.82143,0.42857 z M 315.375,531 c 0.25494,-0.4125 0.78111,-0.75 1.16926,-0.75 0.38816,0 0.70574,0.3375 0.70574,0.75 0,0.4125 -0.52617,0.75 -1.16927,0.75 -0.64309,0 -0.96067,-0.3375 -0.70573,-0.75 z m -73.26875,-1.55625 c -0.14781,-0.44344 -0.58937,-0.80625 -0.98125,-0.80625 -0.39187,0 -0.83344,0.36281 -0.98125,0.80625 -0.14782,0.44344 0.29375,0.80625 0.98125,0.80625 0.6875,0 1.12907,-0.36281 0.98125,-0.80625 z M 304.5,526.125 c 0,-0.61875 -0.31758,-1.125 -0.70574,-1.125 -0.94573,0 -1.62307,1.17119 -1.02387,1.77039 0.84464,0.84464 1.72961,0.51442 1.72961,-0.64539 z m -54.75,-7.05524 c 0,-1.11086 0.405,-2.42476 0.9,-2.91976 0.7,-0.7 0.7,-1.1 0,-1.8 -0.495,-0.495 -0.9,-1.845 -0.9,-3 0,-1.6 -0.35714,-2.1 -1.5,-2.1 -0.825,0 -1.5,0.3375 -1.5,0.75 0,0.4125 0.3375,0.75 0.75,0.75 1.0854,0 0.95787,8.80571 -0.13279,9.16926 -0.48553,0.16185 -0.64348,0.68148 -0.35098,1.15475 0.90504,1.46439 2.73377,0.12367 2.73377,-2.00425 z m 9.08079,-3.47844 c 1.17079,-3.28148 2.13781,-6.05069 2.14895,-6.15382 0.0112,-0.10313 -0.45828,-0.1875 -1.04315,-0.1875 -0.65993,0 -1.79819,2.20636 -3,5.81506 -2.18404,6.55807 -2.28293,7.17539 -1.08554,6.77626 0.46808,-0.15603 1.80896,-2.96853 2.97974,-6.25 z m 3.66921,6.17723 c 0,-0.12729 1.00895,-2.99604 2.24212,-6.375 1.66684,-4.56727 1.98127,-6.14355 1.22546,-6.14355 -0.58007,0 -1.86653,2.33503 -2.99573,5.4375 C 260.82901,520.57495 260.5909,522 261.75,522 c 0.4125,0 0.75,-0.10415 0.75,-0.23145 z m 45.52702,-2.32278 c 3.23156,-1.02565 3.08496,-6.07536 -0.20033,-6.89991 -3.2725,-0.82135 -4.07669,0.0527 -4.07669,4.4306 0,4.34726 0.63201,5.72527 1.85729,4.04959 0.42541,-0.58177 1.51428,-1.2929 2.41973,-1.58028 z M 306,515.5625 c 0,-2.34954 1.76135,-2.09238 2.11466,0.30875 0.15916,1.08165 -0.15574,1.62875 -0.9375,1.62875 C 306.4114,517.5 306,516.82288 306,515.5625 Z m -30.20518,2.9291 c 0.16544,-0.49692 -0.62763,-1.02195 -1.81285,-1.20012 -2.016,-0.30306 -2.00174,-0.32158 0.33053,-0.42911 1.8056,-0.0832 2.4375,-0.46234 2.4375,-1.46237 0,-3.22021 -3.68082,-4.19811 -5.58248,-1.48312 -1.50781,2.15271 -1.47563,2.52501 0.37859,4.37923 1.61378,1.61378 3.74387,1.7118 4.24871,0.1955 z M 272.625,514.5 c 0.25494,-0.4125 0.78111,-0.75 1.16926,-0.75 0.38816,0 0.70574,0.3375 0.70574,0.75 0,0.4125 -0.52617,0.75 -1.16927,0.75 -0.64309,0 -0.96067,-0.3375 -0.70573,-0.75 z m 7.875,1.76824 c 0,-3.57035 1.797,-2.95034 2.10778,0.72724 0.34818,4.12028 1.76301,3.35606 1.49581,-0.80798 -0.22637,-3.52789 -0.2541,-3.5625 -2.85359,-3.5625 -2.42897,0 -2.64295,0.18736 -2.86535,2.5089 -0.13218,1.37989 -0.0502,3.00441 0.18221,3.61003 0.71691,1.86825 1.93314,0.31067 1.93314,-2.47569 z m 10.81366,3.02652 c 0.9106,-0.34943 1.18634,-1.56968 1.18634,-5.25 0,-2.69651 -0.32821,-4.79476 -0.75,-4.79476 -0.4125,0 -0.75,0.675 -0.75,1.5 0,0.92419 -0.50383,1.50441 -1.3125,1.51148 -0.72187,0.006 -1.77656,0.30544 -2.34375,0.66471 -1.4826,0.93912 -1.27159,4.65609 0.33085,5.82782 1.53549,1.12278 1.9585,1.18564 3.63906,0.54075 z m -3.06179,-2.97018 c -0.54127,-1.41054 0.78596,-2.94874 1.93278,-2.23997 1.23623,0.76404 0.97757,3.41539 -0.33319,3.41539 -0.6317,0 -1.35151,-0.52894 -1.59959,-1.17542 z m 12.81179,2.97018 c 1.71935,-0.65978 1.45471,-2.9246 -0.50116,-4.28895 l -1.6875,-1.17714 1.6875,-0.0394 c 2.26546,-0.0528 2.17309,-1.5393 -0.0957,-1.5393 -2.02389,0 -3.63964,1.53264 -2.86143,2.71425 0.28578,0.43392 1.1946,1.17171 2.0196,1.63954 1.46752,0.83217 1.46442,0.85109 -0.14324,0.8734 -1.89958,0.0263 -2.93703,1.21492 -1.54893,1.77454 1.35643,0.54686 1.8019,0.55298 3.13083,0.043 z m 13.03993,-3.54089 c 0.18055,-2.76744 -0.0165,-3.50387 -0.9375,-3.50387 -0.90186,0 -1.16609,0.8639 -1.16609,3.8125 0,4.95592 1.77714,4.69519 2.10359,-0.30863 z m 3.75419,0.75065 c 0.36068,-4.26812 2.39222,-3.05219 2.39222,1.43182 0,0.99751 0.3375,1.81366 0.75,1.81366 0.4125,0 0.75,-1.48265 0.75,-3.29476 0,-3.48986 -0.71216,-4.20524 -4.18634,-4.20524 -1.68036,0 -1.81366,0.28021 -1.81366,3.8125 0,4.51478 1.73289,4.87819 2.10778,0.44203 z M 314.25,509.95573 c 0,-0.38815 -0.50625,-0.70573 -1.125,-0.70573 -1.15981,0 -1.49003,0.88497 -0.64539,1.72961 0.5992,0.5992 1.77039,-0.0781 1.77039,-1.02388 z m 0.99889,-5.52256 c 0.22516,-0.58676 1.1894,-1.17738 2.14275,-1.3125 1.48131,-0.20995 1.73336,-0.68191 1.73336,-3.24567 0,-2.92529 -0.07,-3.0058 -2.8125,-3.23278 l -2.8125,-0.23277 0,4.54527 c 0,4.26238 0.82126,5.89582 1.74889,3.47845 z m 0.26673,-3.16754 c -1.10328,-1.10328 -0.52306,-3.37705 0.79688,-3.12285 0.72187,0.13902 1.3125,0.89502 1.3125,1.67999 0,1.49216 -1.22331,2.32892 -2.10938,1.44286 z m 20.4864,1.98816 c -0.41361,-0.77285 -0.75202,-2.6308 -0.75202,-4.12879 0,-1.49799 0.33841,-3.35594 0.75202,-4.12879 0.47713,-0.89151 0.4888,-1.56787 0.0319,-1.85022 -0.39604,-0.24477 -1.27778,0.63343 -1.9594,1.95155 -1.35218,2.61484 -1.1237,7.41087 0.44299,9.29862 1.24629,1.50168 2.41726,0.60056 1.48447,-1.14237 z M 269.25,500.625 c 0,-1.78555 0.34561,-2.625 1.08073,-2.625 0.59441,0 1.28933,-0.3375 1.54427,-0.75 0.27044,-0.43757 -0.49221,-0.75 -1.83074,-0.75 -2.21913,0 -2.29426,0.11053 -2.29426,3.375 0,1.85625 0.3375,3.375 0.75,3.375 0.4125,0 0.75,-1.18125 0.75,-2.625 z m 9.6,1.725 c 0.495,-0.495 0.9,-1.60875 0.9,-2.475 0,-0.86625 -0.405,-1.98 -0.9,-2.475 -0.495,-0.495 -1.60875,-0.9 -2.475,-0.9 -0.86625,0 -1.98,0.405 -2.475,0.9 -0.495,0.495 -0.9,1.60875 -0.9,2.475 0,0.86625 0.405,1.98 0.9,2.475 0.495,0.495 1.60875,0.9 2.475,0.9 0.86625,0 1.98,-0.405 2.475,-0.9 z m -3.8972,-1.79268 C 274.38356,499.07389 274.99937,498 276.41926,498 c 0.65279,0 1.08074,0.74246 1.08074,1.875 0,2.09735 -1.81739,2.58417 -2.5472,0.68232 z m 11.22691,2.1187 C 288.5818,501.0312 287.7352,496.5 285.02578,496.5 c -0.85232,0 -1.51741,-0.61248 -1.66112,-1.52971 -0.54864,-3.50181 -1.75368,-1.52525 -1.96143,3.21721 l -0.22176,5.0625 2.09676,-0.0115 c 1.15323,-0.006 2.45889,-0.25944 2.90148,-0.5625 z M 283.5,499.875 c 0,-1.26667 0.34375,-1.88542 0.9375,-1.6875 0.51562,0.17188 0.9375,0.93125 0.9375,1.6875 0,0.75625 -0.42188,1.51562 -0.9375,1.6875 -0.59375,0.19792 -0.9375,-0.42083 -0.9375,-1.6875 z m 11.21236,2.29535 c 0.49281,-0.5938 0.78727,-2.02818 0.65434,-3.1875 -0.20269,-1.76767 -0.6342,-2.14571 -2.67381,-2.34246 -1.96965,-0.19001 -2.59042,0.11282 -3.26467,1.59262 -1.6702,3.66571 2.76615,6.97134 5.28414,3.93734 z m -3.19674,-0.90472 c -1.10328,-1.10328 -0.52306,-3.37705 0.79688,-3.12285 0.72187,0.13902 1.3125,0.89502 1.3125,1.67999 0,1.49216 -1.22331,2.32892 -2.10938,1.44286 z M 301.5,502.5 c 0,-0.4125 -0.50625,-0.75 -1.125,-0.75 -0.7,0 -1.125,-0.70833 -1.125,-1.875 0,-1.16667 0.425,-1.875 1.125,-1.875 0.61875,0 1.125,-0.3375 1.125,-0.75 0,-0.4125 -0.50625,-0.75 -1.125,-0.75 -0.61875,0 -1.125,-0.50625 -1.125,-1.125 0,-0.61875 -0.50625,-1.125 -1.125,-1.125 -1.40815,0 -1.59509,6.72991 -0.225,8.1 1.08986,1.08985 3.6,1.19444 3.6,0.15 z m 3.75,-0.4375 c 0,-0.65313 -0.40078,-1.05391 -0.89063,-0.89062 -1.39066,0.46355 -1.62132,2.07812 -0.29687,2.07812 0.65313,0 1.1875,-0.53437 1.1875,-1.1875 z m 5.86526,0.22484 c 0.92676,-1.11667 0.37515,-2.19156 -1.74026,-3.39113 -1.45857,-0.82711 -1.4534,-0.85123 0.1875,-0.8734 0.92813,-0.0125 1.6875,-0.36031 1.6875,-0.77281 0,-0.4125 -1.0125,-0.75 -2.25,-0.75 -2.78742,0 -3.10058,2.2237 -0.5625,3.99418 l 1.6875,1.17714 -1.6875,0.0394 c -0.92813,0.0216 -1.6875,0.3768 -1.6875,0.7893 0,1.08788 3.42436,0.92107 4.36526,-0.21266 z M 323.25,499.875 c 0,-2.5 -0.29167,-3.375 -1.125,-3.375 -0.83333,0 -1.125,0.875 -1.125,3.375 0,2.5 0.29167,3.375 1.125,3.375 0.83333,0 1.125,-0.875 1.125,-3.375 z m 3.75,0.75 c 0,-1.83333 0.33929,-2.625 1.125,-2.625 0.78571,0 1.125,0.79167 1.125,2.625 0,1.83333 0.33929,2.625 1.125,2.625 0.74299,0 1.125,-0.74318 1.125,-2.18866 0,-3.64729 -0.69239,-4.56134 -3.45524,-4.56134 -2.51601,0 -2.54476,0.0381 -2.54476,3.375 0,1.85625 0.3375,3.375 0.75,3.375 0.4125,0 0.75,-1.18125 0.75,-2.625 z m -3.75,-6.75 c 0,-0.61875 -0.31758,-1.125 -0.70574,-1.125 -0.94573,0 -1.62307,1.17119 -1.02387,1.77039 0.84464,0.84464 1.72961,0.51442 1.72961,-0.64539 z m -62.65904,-5.4375 c -1.05399,-2.42896 -1.25636,-6.13395 -0.45985,-8.41883 0.62957,-1.80599 0.58124,-2.26867 -0.23696,-2.26867 -2.45347,0 -3.24853,8.33938 -1.04787,10.99102 1.21247,1.46092 2.41922,1.25099 1.74468,-0.30352 z m 62.90715,-0.375 c -0.77369,-2.16532 -0.77369,-6.45968 0,-8.625 0.78894,-2.20798 -0.64752,-2.24397 -1.82399,-0.0457 -1.71307,3.20089 -0.57101,10.3582 1.65281,10.3582 0.48148,0 0.5462,-0.63797 0.17118,-1.6875 z m 4.8815,-0.22279 c 1.66753,-3.65983 0.45584,-10.08971 -1.90139,-10.08971 -0.82517,0 -0.8573,0.32455 -0.16091,1.62577 0.54685,1.0218 0.70024,3.25078 0.41288,6 -0.48315,4.6226 0.20053,5.64391 1.64942,2.46394 z m 4.63895,-0.0136 c 1.06281,-2.7954 0.89587,-7.31461 -0.33224,-8.99415 -1.55305,-2.12392 -2.22429,-0.85212 -1.19551,2.26512 0.65576,1.98699 0.67546,3.31398 0.0748,5.03718 -1.01424,2.90944 -1.02342,3.61567 -0.047,3.61567 0.42271,0 1.09771,-0.86571 1.5,-1.92382 z M 249.75,484.125 c 0,-2.5 -0.29167,-3.375 -1.125,-3.375 -0.83333,0 -1.125,0.875 -1.125,3.375 0,2.5 0.29167,3.375 1.125,3.375 0.83333,0 1.125,-0.875 1.125,-3.375 z m 3.75,0.75 c 0,-1.83333 0.33929,-2.625 1.125,-2.625 0.61875,0 1.125,-0.3375 1.125,-0.75 0,-0.4125 -0.50625,-0.75 -1.125,-0.75 -0.61875,0 -1.125,-0.3375 -1.125,-0.75 0,-0.4125 0.50625,-0.75 1.125,-0.75 0.61875,0 1.125,-0.50625 1.125,-1.125 0,-1.46963 -1.8277,-1.44016 -3.32143,0.0535 -1.62609,1.62611 -1.67031,9.32145 -0.0536,9.32145 0.78571,0 1.125,-0.79167 1.125,-2.625 z m 13.35563,-0.5625 c -0.21648,-2.99186 -0.38024,-3.20192 -2.66813,-3.42252 -1.36917,-0.13201 -2.4375,0.11452 -2.4375,0.5625 0,0.43864 0.675,0.79752 1.5,0.79752 0.825,0 1.5,0.3375 1.5,0.75 0,0.4125 -0.65508,0.75 -1.45574,0.75 -1.72591,0 -2.59081,1.14541 -2.00926,2.66092 0.25794,0.67217 1.44832,1.08908 3.10958,1.08908 l 2.69167,0 -0.23062,-3.1875 z M 263.25,485.25 c 0,-0.4125 0.3375,-0.75 0.75,-0.75 0.4125,0 0.75,0.3375 0.75,0.75 0,0.4125 -0.3375,0.75 -0.75,0.75 -0.4125,0 -0.75,-0.3375 -0.75,-0.75 z m 9.22762,0.5625 0.33195,-1.6875 0.55769,1.6875 c 0.30673,0.92812 0.99156,1.6875 1.52185,1.6875 0.93478,0 2.61089,-3.68291 2.61089,-5.73692 0,-1.82647 -1.45964,-1.06005 -1.98763,1.04366 l -0.51621,2.05674 -0.68558,-2.05674 c -0.37707,-1.13121 -0.98852,-2.05674 -1.35879,-2.05674 -0.37027,0 -0.90551,0.92553 -1.18942,2.05674 l -0.51621,2.05674 -0.68558,-2.05674 c -0.37707,-1.13121 -1.14322,-2.05674 -1.70256,-2.05674 -0.83626,0 -0.81263,0.59972 0.133,3.375 1.23174,3.61494 2.9444,4.44386 3.4866,1.6875 z M 285,486.75 c 0,-0.4125 -0.92813,-0.79596 -2.0625,-0.85213 -2.02076,-0.10008 -2.02456,-0.10895 -0.1875,-0.43852 2.65443,-0.47619 3.26608,-1.31077 2.29309,-3.12883 C 283.47848,479.40701 279,480.73689 279,484.125 c 0,0.86625 0.405,1.98 0.9,2.475 1.08694,1.08694 5.1,1.20498 5.1,0.15 z M 281.25,483 c 0,-0.4125 0.31758,-0.75 0.70573,-0.75 0.38816,0 0.91433,0.3375 1.16927,0.75 0.25494,0.4125 -0.0626,0.75 -0.70574,0.75 -0.64309,0 -1.16926,-0.3375 -1.16926,-0.75 z m 10.5,3.09148 c 0,-0.77468 -0.75937,-1.93823 -1.6875,-2.58566 l -1.6875,-1.17714 1.6875,-0.0394 c 2.26546,-0.0528 2.17309,-1.5393 -0.0957,-1.5393 -2.02389,0 -3.63964,1.53264 -2.86143,2.71425 0.28578,0.43392 1.1946,1.17171 2.0196,1.63954 1.39788,0.79269 1.35958,0.85215 -0.5625,0.8734 -1.13437,0.0125 -2.0625,0.36031 -2.0625,0.77281 0,0.4125 1.18125,0.75 2.625,0.75 2.06817,0 2.625,-0.29878 2.625,-1.40852 z m 7.53719,0.23871 c 1.64004,-1.97613 0.0281,-5.20519 -2.59852,-5.20519 -2.60643,0 -3.83301,1.70174 -3.15982,4.38391 0.39501,1.57387 0.94897,1.99109 2.64361,1.99109 1.17912,0 2.58075,-0.52642 3.11473,-1.16981 z m -4.12036,-1.01251 c -0.6323,-1.02308 0.39423,-3.17177 1.36308,-2.85313 1.34285,0.44165 1.51044,3.53545 0.19152,3.53545 -0.6231,0 -1.32267,-0.30704 -1.5546,-0.68232 z M 303.75,484.875 c 0,-1.44375 0.3375,-2.625 0.75,-2.625 0.4125,0 0.75,1.18125 0.75,2.625 0,1.83333 0.33929,2.625 1.125,2.625 0.78571,0 1.125,-0.79167 1.125,-2.625 0,-1.44375 0.3375,-2.625 0.75,-2.625 0.4125,0 0.75,1.18125 0.75,2.625 0,1.83333 0.33929,2.625 1.125,2.625 1.38898,0 1.56253,-4.51247 0.225,-5.85 -0.495,-0.495 -2.68875,-0.9 -4.875,-0.9 l -3.975,0 0,3.375 c 0,2.5 0.29167,3.375 1.125,3.375 0.78571,0 1.125,-0.79167 1.125,-2.625 z m 15,1.875 c 0,-0.4125 -0.92813,-0.80057 -2.0625,-0.86237 l -2.0625,-0.11237 2.1071,-0.31675 c 1.78166,-0.26783 2.07124,-0.62693 1.875,-2.32513 -0.26141,-2.26201 -2.9068,-3.14824 -4.77338,-1.59912 -1.10324,0.91561 -1.49216,4.5573 -0.58372,5.46574 0.79369,0.79369 5.5,0.57977 5.5,-0.25 z m -3.9,-3.9 c 0.7,-0.7 1.1,-0.7 1.8,0 0.7,0.7 0.5,0.9 -0.9,0.9 -1.4,0 -1.6,-0.2 -0.9,-0.9 z m -65.24375,-4.40625 c -0.14781,-0.44344 -0.58937,-0.80625 -0.98125,-0.80625 -0.39187,0 -0.83344,0.36281 -0.98125,0.80625 -0.14782,0.44344 0.29375,0.80625 0.98125,0.80625 0.6875,0 1.12907,-0.36281 0.98125,-0.80625 z m 11.71993,-20.92519 c 1.74469,-0.66333 1.92382,-1.11725 1.92382,-4.875 0,-4.06477 -0.041,-4.14356 -2.15817,-4.14356 -4.11249,0 -5.25441,4.68631 -1.59183,6.53267 l 1.875,0.94522 -2.0625,0.011 c -2.11469,0.0113 -2.8012,1.08799 -1.125,1.76435 0.51562,0.20806 0.99991,0.40493 1.07618,0.4375 0.0763,0.0326 1.00439,-0.26994 2.0625,-0.67223 z m -1.75875,-4.47688 C 258.46966,452.36322 258.9473,450 260.1822,450 c 1.15239,0 1.70686,1.3847 1.03511,2.58504 -0.39576,0.70718 -0.98196,0.86943 -1.64988,0.45664 z M 249.75,452.58073 c 0,-1.79398 0.34296,-2.58073 1.125,-2.58073 0.61875,0 1.125,-0.35992 1.125,-0.79981 0,-0.4399 -0.92813,-0.69303 -2.0625,-0.5625 -1.73255,0.19935 -2.10095,0.63866 -2.30285,2.74621 -0.13218,1.37989 -0.0502,3.00441 0.18221,3.61004 0.70982,1.84976 1.93314,0.32265 1.93314,-2.4132 z m 5.85359,-0.57686 c 0.18055,-2.76745 -0.0165,-3.50387 -0.9375,-3.50387 -0.90186,0 -1.16609,0.8639 -1.16609,3.8125 0,4.95592 1.77714,4.69519 2.10359,-0.30863 z M 267,452.9375 c 0,-3.93399 1.77499,-3.63589 2.11054,0.35446 0.14694,1.74727 0.57016,2.69089 1.125,2.50828 C 272.59189,455.02474 271.0573,448.5 268.51856,448.5 267.5,448.5 267,448.00611 267,447 c 0,-0.83333 -0.5,-1.5 -1.125,-1.5 -0.88158,0 -1.125,1.02778 -1.125,4.75 0,2.6125 0.225,4.975 0.5,5.25 1.16494,1.16494 1.75,0.30824 1.75,-2.5625 z m 10.10174,2.35013 c 0.24216,-0.3918 -0.24418,-1.07868 -1.08073,-1.52639 C 274.00751,452.68365 273.99253,450 276,450 c 0.825,0 1.5,-0.3375 1.5,-0.75 0,-0.4125 -0.675,-0.75 -1.5,-0.75 -0.83333,0 -1.5,-0.5 -1.5,-1.125 0,-0.61875 -0.3375,-1.125 -0.75,-1.125 -1.06532,0 -0.93368,7.76632 0.15,8.85 1.08016,1.08016 2.59525,1.16894 3.20174,0.18763 z M 294.75,453 c 0,-2.16667 0.3125,-3 1.125,-3 0.61875,0 1.125,-0.35992 1.125,-0.79981 0,-0.4399 -0.92813,-0.69303 -2.0625,-0.5625 -1.73255,0.19935 -2.10095,0.63866 -2.30285,2.74621 -0.27621,2.88337 0.22746,4.6161 1.34181,4.6161 0.42545,0 0.77354,-1.35 0.77354,-3 z m 8.37685,2.0625 c 1.79576,-1.44689 2.11879,-3.23496 0.89904,-4.9764 -1.33466,-1.9055 -3.04682,-2.02589 -4.90434,-0.34486 -1.76876,1.60071 -1.73379,2.89652 0.12845,4.75876 1.75157,1.75157 2.30197,1.83143 3.87685,0.5625 z m -2.87498,-2.48792 c -0.62509,-1.62897 0.96183,-3.16088 2.09771,-2.025 0.96003,0.96004 0.36529,3.20042 -0.84958,3.20042 -0.43839,0 -1.00005,-0.52894 -1.24813,-1.17542 z m 10.5743,2.69398 C 314.11682,454.01747 313.11729,448.5 309.6,448.5 c -0.868,0 -1.35,-0.55787 -1.35,-1.5625 0,-0.91477 -0.38863,-1.43443 -0.9375,-1.25355 -0.55394,0.18255 -1.03258,1.9632 -1.16991,4.35223 -0.18209,3.16793 0.0519,4.25116 1.08085,5.00354 1.56847,1.1469 1.24251,1.12619 3.60273,0.22884 z M 308.25,451.875 c 0,-1.94717 1.80705,-2.64311 2.43428,-0.9375 0.51626,1.40386 -0.1708,2.8125 -1.37178,2.8125 -0.63334,0 -1.0625,-0.75735 -1.0625,-1.875 z m 11.08312,2.95748 c 2.92257,-2.04706 1.76662,-6.33248 -1.70812,-6.33248 -3.20885,0 -4.57784,3.94002 -2.19643,6.32143 1.46414,1.46413 1.8285,1.46517 3.90455,0.011 z m -3.05849,-2.08799 c -0.52677,-1.37274 0.61444,-3.05608 1.64152,-2.42132 1.19599,0.73917 1.03058,3.42683 -0.21091,3.42683 -0.57462,0 -1.21839,-0.45248 -1.43061,-1.00551 z m 10.53822,1.94301 c 0.17168,-0.51563 -0.22222,-0.9375 -0.87535,-0.9375 -0.76667,0 -1.1875,-0.66447 -1.1875,-1.875 0,-1.16667 0.425,-1.875 1.125,-1.875 0.61875,0 1.125,-0.3375 1.125,-0.75 0,-0.4125 -0.50625,-0.75 -1.125,-0.75 -0.61875,0 -1.125,-0.50625 -1.125,-1.125 0,-0.61875 -0.50625,-1.125 -1.125,-1.125 -1.42479,0 -1.59601,7.47899 -0.20311,8.87189 1.1056,1.1056 2.95718,0.86841 3.39096,-0.43439 z m 3.93715,-0.23177 c 0,-0.38815 -0.50625,-0.70573 -1.125,-0.70573 -1.15981,0 -1.49003,0.88497 -0.64539,1.72961 0.5992,0.5992 1.77039,-0.0781 1.77039,-1.02388 z M 288,453 c 0,-0.4125 -1.35,-0.75 -3,-0.75 -1.65,0 -3,0.3375 -3,0.75 0,0.4125 1.35,0.75 3,0.75 1.65,0 3,-0.3375 3,-0.75 z m 0,-2.625 c 0,-0.8125 -0.83333,-1.125 -3,-1.125 -2.16667,0 -3,0.3125 -3,1.125 0,0.8125 0.83333,1.125 3,1.125 2.16667,0 3,-0.3125 3,-1.125 z m -32.25,-4.125 c 0,-0.4125 -0.50625,-0.75 -1.125,-0.75 -0.61875,0 -1.125,0.3375 -1.125,0.75 0,0.4125 0.50625,0.75 1.125,0.75 0.61875,0 1.125,-0.3375 1.125,-0.75 z m -5.54476,-7.93634 c -0.25039,-0.65249 -0.45524,-3.01499 -0.45524,-5.25 0,-3.11214 -0.26342,-4.06366 -1.125,-4.06366 -0.88158,0 -1.125,1.02778 -1.125,4.75 0,4.95593 0.28728,5.75 2.08024,5.75 0.67691,0 0.91027,-0.44295 0.625,-1.18634 z M 257.625,438.75 c 0.26289,-0.42537 -0.36722,-0.75 -1.45574,-0.75 -1.05559,0 -1.91926,-0.3375 -1.91926,-0.75 0,-0.4125 0.84375,-0.75 1.875,-0.75 2.34384,0 2.59977,-2.55934 0.375,-3.75 -3.27492,-1.75268 -6.29502,3.15498 -3.6,5.85 1.09169,1.09169 4.08428,1.1867 4.725,0.15 z m -3.525,-3.9 c 0.7,-0.7 1.1,-0.7 1.8,0 0.7,0.7 0.5,0.9 -0.9,0.9 -1.4,0 -1.6,-0.2 -0.9,-0.9 z m 7.65,2.025 c 0,-1.83333 0.33929,-2.625 1.125,-2.625 1.56873,0 1.41342,-2.063 -0.1875,-2.49051 -1.11405,-0.2975 -1.05863,-0.43211 0.36656,-0.89026 1.93078,-0.62068 1.54875,-1.86923 -0.57193,-1.86923 -1.98656,0 -2.98213,2.23701 -2.98213,6.70069 0,2.87716 0.27305,3.79931 1.125,3.79931 0.78571,0 1.125,-0.79167 1.125,-2.625 z m 8.25,1.96247 c 0,-0.36439 -0.675,-0.83904 -1.5,-1.05478 -2.01532,-0.52702 -1.96108,-3.23717 0.0755,-3.76973 C 270.26386,433.57143 269.87765,432 268.08073,432 267.48633,432 267,431.6625 267,431.25 c 0,-0.4125 -0.3375,-0.75 -0.75,-0.75 -0.82547,0 -1.05189,7.69811 -0.25,8.5 0.73965,0.73965 4,0.60718 4,-0.16253 z m 21.75,-1.96247 c 0,-1.83333 0.33929,-2.625 1.125,-2.625 1.20373,0 1.5305,-1.16087 0.50515,-1.79456 -0.34091,-0.21069 -1.35341,-0.19125 -2.25,0.0432 -1.36077,0.35585 -1.63015,0.96955 -1.63015,3.71382 0,2.42224 0.2961,3.28753 1.125,3.28753 0.78571,0 1.125,-0.79167 1.125,-2.625 z m 8.85,1.725 c 2.64021,-2.64021 -0.31738,-7.60681 -3.51176,-5.89722 -2.44514,1.3086 -2.96261,3.81571 -1.15967,5.61865 1.40364,1.40364 3.42578,1.52422 4.67143,0.27857 z m -3.08438,-1.08437 c -1.10328,-1.10328 -0.52306,-3.37705 0.79688,-3.12285 0.72187,0.13902 1.3125,0.89502 1.3125,1.67999 0,1.49216 -1.22331,2.32892 -2.10938,1.44286 z M 308.85,438.6 c 1.45717,-1.45717 1.0907,-4.94516 -0.6155,-5.8583 -0.83352,-0.44609 -1.84602,-0.60679 -2.25,-0.35712 -0.40855,0.2525 -0.7345,-0.42551 -0.7345,-1.52782 0,-1.25018 -0.34608,-1.86771 -0.9375,-1.67281 -0.96658,0.31853 -1.731,7.39366 -1.00364,9.28915 0.48585,1.2661 4.31425,1.35379 5.54114,0.1269 z m -3.6,-2.475 c 0,-1.94717 1.80705,-2.64311 2.43428,-0.9375 0.51626,1.40386 -0.1708,2.8125 -1.37178,2.8125 -0.63334,0 -1.0625,-0.75735 -1.0625,-1.875 z m 11.85,2.475 c 1.43197,-1.43198 1.04655,-4.1623 -0.76688,-5.43248 -2.07605,-1.45412 -2.44041,-1.45308 -3.90455,0.011 -2.38141,2.38143 -1.01242,6.32145 2.19643,6.32145 0.86625,0 1.98,-0.405 2.475,-0.9 z m -3.8972,-1.79268 c -0.56924,-1.48343 0.0466,-2.55732 1.46646,-2.55732 0.65279,0 1.08074,0.74246 1.08074,1.875 0,2.09735 -1.81739,2.58417 -2.5472,0.68232 z M 324,438.75 C 324,438.3375 323.52985,438 322.95524,438 321.99628,438 321,436.48468 321,435.02613 c 0,-0.33065 0.70896,-0.78658 1.57546,-1.01317 C 324.26386,433.57143 323.87765,432 322.08073,432 321.48633,432 321,431.6625 321,431.25 c 0,-0.4125 -0.3375,-0.75 -0.75,-0.75 -0.82547,0 -1.05189,7.69811 -0.25,8.5 0.78514,0.78514 4,0.58422 4,-0.25 z m 3.34297,0.0518 c 0.55466,-0.89744 -0.85622,-1.78667 -1.8552,-1.16926 -0.83877,0.51839 -0.28813,1.86744 0.76223,1.86744 0.36381,0 0.85564,-0.31418 1.09297,-0.69818 z M 280.5,437.25 c 0,-0.4125 -1.35,-0.75 -3,-0.75 -1.65,0 -3,0.3375 -3,0.75 0,0.4125 1.35,0.75 3,0.75 1.65,0 3,-0.3375 3,-0.75 z m 7.5,-1.875 c 0,-1.19192 -2.63424,-1.57358 -3.31035,-0.47961 -0.55385,0.89615 0.30063,1.60461 1.93535,1.60461 0.75625,0 1.375,-0.50625 1.375,-1.125 z m -7.5,-1.125 c 0,-0.4125 -1.35,-0.75 -3,-0.75 -1.65,0 -3,0.3375 -3,0.75 0,0.4125 1.35,0.75 3,0.75 1.65,0 3,-0.3375 3,-0.75 z m -51.91929,-9.1875 c 0.4204,-0.51563 1.19015,-2.37188 1.71055,-4.125 0.52039,-1.75312 1.399,-3.1875 1.95246,-3.1875 1.27086,0 1.33679,-1.48324 0.0688,-1.54754 -0.51562,-0.0262 -0.12091,-0.37394 0.87714,-0.77286 2.25048,-0.89954 1.01503,-2.58368 -1.34569,-1.83442 -1.12064,0.35568 -1.99656,1.90057 -3.12519,5.512 -0.86249,2.7598 -1.74267,5.43969 -1.95596,5.95532 -0.21329,0.51562 -0.0635,0.9375 0.33287,0.9375 0.39636,0 1.06464,-0.42188 1.48504,-0.9375 z m 65.00791,-0.75 c -0.78495,-2.25911 -0.81176,-8.11681 -0.0446,-9.75 0.44635,-0.95025 0.29607,-1.3125 -0.54448,-1.3125 -0.63854,0 -1.38524,0.36287 -1.65934,0.80637 -0.9025,1.46026 -0.61548,9.5832 0.38104,10.78393 1.447,1.74353 2.54844,1.43223 1.86741,-0.5278 z m -10.95751,-1.33117 c -0.79652,-2.28488 -0.59414,-5.98987 0.45985,-8.41883 0.39999,-0.92179 0.23259,-1.3125 -0.56235,-1.3125 -1.21584,0 -2.77861,3.62857 -2.77861,6.45163 0,2.38876 1.54118,5.54837 2.70637,5.54837 0.74896,0 0.78816,-0.509 0.17474,-2.26867 z m 4.44045,1.33117 c 1.49824,-1.85983 1.78282,-5.61086 0.63424,-8.35981 -1.23864,-2.96448 -3.23389,-3.88605 -2.19796,-1.01519 0.77373,2.14423 0.74119,7.2865 -0.0569,9 -0.70907,1.52227 0.47565,1.79639 1.62069,0.375 z m -47.54855,-1.3762 c 0.14883,-0.17122 0.45368,-1.74568 0.67743,-3.4988 0.51116,-4.00498 -1.28651,-4.5041 -2.02596,-0.5625 -0.27084,1.44375 -0.85881,2.625 -1.3066,2.625 -0.51159,0 -0.65584,-0.9755 -0.38816,-2.625 0.30666,-1.8898 0.14859,-2.625 -0.5644,-2.625 -1.7873,0 -2.67837,6.34771 -0.97782,6.96568 1.05852,0.38467 4.17322,0.1949 4.58551,-0.27938 z m 4.4745,-2.43147 c 0.90823,-3.84042 2.32596,-3.57882 1.70343,0.31431 -0.60708,3.79641 1.01232,3.77685 1.99725,-0.0242 0.87409,-3.37324 0.25807,-4.54502 -2.3894,-4.54502 -1.94761,0 -2.33972,0.36525 -3.01936,2.8125 -1.02643,3.69602 -0.99133,4.8798 0.13357,4.50483 0.50765,-0.16921 1.21618,-1.54734 1.57451,-3.0625 z m 10.06534,1.93267 c 0.18536,-0.55669 -0.34487,-0.9375 -1.30534,-0.9375 -2.13522,0 -1.74427,-2.35205 0.55937,-3.36535 2.0651,-0.90837 2.18771,-1.88465 0.23669,-1.88465 -3.10215,0 -5.04319,4.46038 -2.88168,6.62189 1.1056,1.1056 2.95718,0.86841 3.39096,-0.43439 z m 5.81543,0.55721 c 0.25673,-0.41542 -0.0608,-0.95778 -0.70575,-1.20525 -1.6932,-0.64974 -1.46148,-3.35433 0.32747,-3.82215 1.79129,-0.46843 2.00565,-1.71731 0.29476,-1.71731 -0.7632,0 -1.04691,-0.41262 -0.77354,-1.125 0.23744,-0.61875 0.11667,-1.125 -0.26837,-1.125 -1.90172,0 -3.81629,8.02431 -2.16422,9.07064 1.38606,0.87786 2.71918,0.84709 3.28965,-0.0759 z m 3.82038,-3.23266 c 0.71879,-2.81769 0.70647,-3.51205 -0.0623,-3.51205 -0.52704,0 -1.33581,1.49945 -1.79729,3.33211 -1.0471,4.15843 -1.04393,4.36119 0.0623,3.99244 0.49574,-0.16525 1.30453,-1.88088 1.79729,-3.8125 z m 6.17661,2.79091 c 2.52749,-1.77033 2.03871,-5.83665 -0.74025,-6.15828 -1.39083,-0.16097 -2.35053,0.28445 -3.1875,1.47938 -1.50445,2.1479 -1.50873,3.2076 -0.019,4.69737 1.46861,1.46861 1.82597,1.46694 3.9467,-0.0185 z M 267,420.04426 c 0,-1.73849 1.34636,-2.7479 2.33993,-1.75433 0.94149,0.94149 0.0262,3.21007 -1.29517,3.21007 C 267.47014,421.5 267,420.84492 267,420.04426 Z m 7.875,0.66315 c 1.0326,-3.00821 2.25839,-2.74143 1.98499,0.43202 -0.29292,3.3999 1.17529,3.39279 1.81344,-0.009 0.6546,-3.48933 0.0136,-4.88064 -2.2485,-4.88064 -2.019,0 -3.17833,1.52029 -3.4316,4.5 -0.33244,3.91123 0.53119,3.89169 1.88167,-0.0426 z m -9.78203,-5.90559 c 0.55466,-0.89744 -0.85622,-1.78667 -1.8552,-1.16926 C 262.399,414.15095 262.94964,415.5 264,415.5 c 0.36381,0 0.85564,-0.31418 1.09297,-0.69818 z m 16.06912,-8.23162 c -0.65052,-1.86608 -0.64035,-3.18526 0.0422,-5.46317 1.02847,-3.43275 0.54048,-4.54692 -1.06313,-2.42728 -1.32548,1.75202 -1.46809,7.03202 -0.26145,9.6803 1.23583,2.71235 2.32298,1.19505 1.28243,-1.78985 z m -71.28511,-1.2175 c 0.13859,-1.18615 0.78034,-2.54298 1.42612,-3.01518 1.51242,-1.10592 0.0624,-2.13396 -2.05981,-1.46039 -1.20064,0.38107 -1.49329,1.13772 -1.49329,3.86091 0,3.83179 1.6939,4.3213 2.12698,0.61465 z m 8.69445,1.46873 c 0.64822,-0.64821 1.17857,-1.80536 1.17857,-2.57143 0,-1.62752 -1.91023,-3.75 -3.375,-3.75 -1.56135,0 -3.375,2.16487 -3.375,4.02857 0,3.24731 3.27088,4.5934 5.57143,2.29286 z m -3.30101,-1.42184 c -1.03678,-1.24923 -0.42959,-2.64959 1.14884,-2.64959 1.17085,0 1.50252,2.65079 0.41572,3.32248 -0.36576,0.22606 -1.06981,-0.0767 -1.56457,-0.67289 z m 11.52477,1.1886 c 1.74235,-1.92528 0.89399,-5.19939 -1.50313,-5.80102 -1.09931,-0.27591 -1.79206,-0.99821 -1.79206,-1.86848 0,-0.78028 -0.50625,-1.41869 -1.125,-1.41869 -0.88158,0 -1.125,1.02778 -1.125,4.75 0,2.6125 0.225,4.975 0.5,5.25 0.98279,0.98279 3.78969,0.47551 5.04518,-0.91181 z M 223.5,404.6875 c 0,-1.26038 0.4114,-1.9375 1.17716,-1.9375 0.78176,0 1.09666,0.5471 0.9375,1.62875 -0.35331,2.40113 -2.11466,2.65829 -2.11466,0.30875 z m 11.1,2.4125 c 1.44982,-1.44982 1.09135,-4.94482 -0.6,-5.85 -3.26274,-1.74617 -6.56642,2.55226 -4.07636,5.30374 1.49004,1.64648 3.35795,1.86467 4.67636,0.54626 z m -3.08438,-1.08437 c -1.10328,-1.10328 -0.52306,-3.37705 0.79688,-3.12285 0.72187,0.13902 1.3125,0.89502 1.3125,1.67999 0,1.49216 -1.22331,2.32892 -2.10938,1.44286 z m 9.98438,1.31461 c 0,-0.36837 -0.50625,-0.86402 -1.125,-1.10146 -0.61875,-0.23744 -1.125,-1.11729 -1.125,-1.95524 0,-0.85426 0.4942,-1.52354 1.125,-1.52354 0.61875,0 1.125,-0.50625 1.125,-1.125 0,-0.61875 -0.50625,-1.125 -1.125,-1.125 -0.61875,0 -1.125,-0.49566 -1.125,-1.10146 0,-0.67095 -0.43972,-0.93273 -1.125,-0.66976 -1.32197,0.50728 -1.54806,5.57934 -0.34862,7.82052 0.7717,1.44192 3.72362,2.06102 3.72362,0.78094 z m 3.75,-0.45524 c 0,-0.61875 -0.31758,-1.125 -0.70574,-1.125 -0.94573,0 -1.62307,1.17119 -1.02387,1.77039 0.84464,0.84464 1.72961,0.51442 1.72961,-0.64539 z m 7.34677,-4.3125 c 0.1497,-3.41745 -0.0559,-5.0625 -0.63272,-5.0625 -0.46996,0 -1.03099,0.675 -1.24674,1.5 -0.21574,0.825 -0.83504,1.5 -1.37621,1.5 -1.43564,0 -3.3411,2.13867 -3.3411,3.75 0,2.08186 2.17687,3.86178 4.40679,3.60322 1.88167,-0.21818 1.97796,-0.4508 2.18998,-5.29072 z M 248.75,406 c -0.94348,-0.94348 -0.49993,-3.25 0.625,-3.25 0.7,0 1.125,0.70833 1.125,1.875 0,1.8209 -0.7303,2.39471 -1.75,1.375 z m 7.75,-0.625 c 0,-1.83333 0.33929,-2.625 1.125,-2.625 0.61875,0 1.125,-0.50625 1.125,-1.125 0,-1.17753 -1.30373,-1.44104 -3.31366,-0.66976 -1.6409,0.62967 -1.69676,7.04476 -0.0613,7.04476 0.78571,0 1.125,-0.79167 1.125,-2.625 z m 5.25,-1.125 c 0,-2.0625 -0.3375,-3.75 -0.75,-3.75 -0.4125,0 -0.75,1.6875 -0.75,3.75 0,2.0625 0.3375,3.75 0.75,3.75 0.4125,0 0.75,-1.6875 0.75,-3.75 z m 6.90323,0.44 c 0.67472,-1.8205 1.02877,-3.508 0.78677,-3.75 -0.94718,-0.94717 -1.59379,-0.33828 -2.12122,1.9975 l -0.5504,2.4375 -1.01134,-2.4375 c -1.02421,-2.46851 -2.50704,-3.29899 -2.50704,-1.40409 0,1.9242 2.26417,6.46659 3.22329,6.46659 0.52423,0 1.5052,-1.4895 2.17994,-3.31 z m 7.72177,2.56 c 0.25494,-0.4125 -0.21148,-0.75 -1.03648,-0.75 -0.825,0 -1.70858,-0.3375 -1.96352,-0.75 -0.27044,-0.43757 0.49221,-0.75 1.83073,-0.75 2.65631,0 2.84407,-0.65485 0.88237,-3.07745 -1.24612,-1.53889 -1.64238,-1.63859 -3.375,-0.84916 -3.63189,1.6548 -2.18509,6.8298 1.93013,6.9038 0.69754,0.0125 1.47683,-0.31469 1.73177,-0.72719 z M 273,403.5 c 0,-0.4125 0.50625,-0.75 1.125,-0.75 0.61875,0 1.125,0.3375 1.125,0.75 0,0.4125 -0.50625,0.75 -1.125,0.75 -0.61875,0 -1.125,-0.3375 -1.125,-0.75 z m -11.1375,-4.875 c 0,-0.39188 -0.36281,-0.83344 -0.80625,-0.98125 -0.44344,-0.14781 -0.80625,0.29375 -0.80625,0.98125 0,0.6875 0.36281,1.12906 0.80625,0.98125 0.44344,-0.14781 0.80625,-0.58938 0.80625,-0.98125 z m 52.04022,-6.1875 c -1.12229,-2.90097 -1.28363,-5.48289 -0.48566,-7.77197 0.99888,-2.86541 0.39045,-3.87645 -1.10338,-1.83351 -1.23973,1.69544 -1.41181,7.3661 -0.2873,9.46728 0.97311,1.81827 2.57186,1.93602 1.87634,0.1382 z m 4.72689,-0.59779 c 1.66753,-3.65983 0.45584,-10.08971 -1.90139,-10.08971 -0.82488,0 -0.85722,0.32472 -0.16171,1.62427 0.52661,0.98398 0.71287,3.34921 0.47251,6 -0.42281,4.66291 0.1704,5.58241 1.59059,2.46544 z m 4.16515,0.72395 C 323.51493,390.68692 323.33547,390 322.125,390 c -0.7,0 -1.125,0.70833 -1.125,1.875 0,2.09471 1.09411,2.51453 1.79476,0.68866 z M 212.16841,389.8125 c 1.59979,-4.2764 1.69116,-5.0625 0.58844,-5.0625 -0.60183,0 -1.35083,0.92812 -1.66444,2.0625 l -0.5702,2.0625 -0.78088,-2.0625 c -0.96445,-2.54733 -3.10119,-2.8932 -2.31672,-0.375 1.25494,4.02847 1.85757,5.0625 2.95039,5.0625 0.63917,0 1.44621,-0.75938 1.79341,-1.6875 z m 8.18721,-1.5 c -0.21647,-2.99186 -0.38023,-3.20192 -2.66812,-3.42252 -1.36917,-0.13201 -2.4375,0.11452 -2.4375,0.5625 0,0.43864 0.675,0.79752 1.5,0.79752 0.825,0 1.5,0.3375 1.5,0.75 0,0.4125 -0.65508,0.75 -1.45574,0.75 -1.72591,0 -2.59081,1.14541 -2.00926,2.66092 0.25794,0.67217 1.44832,1.08908 3.10958,1.08908 l 2.69167,0 -0.23063,-3.1875 z M 216.75,389.25 c 0,-0.4125 0.3375,-0.75 0.75,-0.75 0.4125,0 0.75,0.3375 0.75,0.75 0,0.4125 -0.3375,0.75 -0.75,0.75 -0.4125,0 -0.75,-0.3375 -0.75,-0.75 z m 7.5,-0.375 c 0,-1.83333 0.33929,-2.625 1.125,-2.625 0.61875,0 1.125,-0.35992 1.125,-0.79981 0,-0.4399 -0.92813,-0.69303 -2.0625,-0.5625 -1.84554,0.21234 -2.08676,0.57261 -2.29313,3.42481 -0.17974,2.48434 0.0271,3.1875 0.9375,3.1875 0.835,0 1.16813,-0.7486 1.16813,-2.625 z m 9,0 c 0,-1.83333 0.33929,-2.625 1.125,-2.625 0.61875,0 1.125,-0.35992 1.125,-0.79981 0,-0.4399 -0.92813,-0.69303 -2.0625,-0.5625 -1.84554,0.21234 -2.08676,0.57261 -2.29313,3.42481 -0.17974,2.48434 0.0271,3.1875 0.9375,3.1875 0.835,0 1.16813,-0.7486 1.16813,-2.625 z m 8.85,1.725 c 0.495,-0.495 0.9,-1.60875 0.9,-2.475 0,-0.86625 -0.405,-1.98 -0.9,-2.475 -0.495,-0.495 -1.60875,-0.9 -2.475,-0.9 -0.86625,0 -1.98,0.405 -2.475,0.9 -0.495,0.495 -0.9,1.60875 -0.9,2.475 0,0.86625 0.405,1.98 0.9,2.475 0.495,0.495 1.60875,0.9 2.475,0.9 0.86625,0 1.98,-0.405 2.475,-0.9 z m -3.6,-2.475 c 0,-1.16667 0.425,-1.875 1.125,-1.875 0.7,0 1.125,0.70833 1.125,1.875 0,1.16667 -0.425,1.875 -1.125,1.875 -0.7,0 -1.125,-0.70833 -1.125,-1.875 z m 11.85,2.475 c 2.01484,-2.01484 0.53978,-5.85 -2.25,-5.85 -0.85,0 -1.35,-0.55555 -1.35,-1.5 0,-0.83333 -0.5,-1.5 -1.125,-1.5 -0.88462,0 -1.125,1.04167 -1.125,4.875 l 0,4.875 2.475,0 c 1.36125,0 2.88,-0.405 3.375,-0.9 z m -3.6,-2.475 c 0,-1.94717 1.80705,-2.64311 2.43428,-0.9375 0.51626,1.40386 -0.1708,2.8125 -1.37178,2.8125 -0.63334,0 -1.0625,-0.75735 -1.0625,-1.875 z m 12.03719,2.20519 c 1.64004,-1.97613 0.0281,-5.20519 -2.59852,-5.20519 -2.60643,0 -3.83301,1.70174 -3.15982,4.38391 0.39501,1.57387 0.94897,1.99109 2.64361,1.99109 1.17912,0 2.58075,-0.52642 3.11473,-1.16981 z m -4.12036,-1.01251 c -0.6323,-1.02308 0.39423,-3.17177 1.36308,-2.85313 1.34285,0.44165 1.51044,3.53545 0.19152,3.53545 -0.6231,0 -1.32267,-0.30704 -1.5546,-0.68232 z M 265.5,390.83747 c 0,-0.36439 -0.675,-0.83904 -1.5,-1.05478 -0.89745,-0.23469 -1.5,-1.02301 -1.5,-1.96248 0,-1.07021 0.47764,-1.57021 1.5,-1.57021 0.825,0 1.5,-0.3375 1.5,-0.75 0,-0.4125 -0.51684,-0.75 -1.14854,-0.75 -0.6317,0 -1.3428,-0.50625 -1.58024,-1.125 -0.23744,-0.61875 -0.73309,-1.125 -1.10146,-1.125 -0.76978,0 -0.92447,7.74529 -0.16976,8.5 0.73965,0.73965 4,0.60718 4,-0.16253 z m 20.80423,-0.8027 c 0.57615,-0.92256 0.64296,-1.63339 0.18041,-1.91927 -0.40405,-0.24971 -0.73464,-1.61536 -0.73464,-3.03477 0,-3.52133 -1.70778,-3.36792 -4.18537,0.37598 -2.15894,3.26237 -1.91799,4.54329 0.85463,4.54329 1.00691,0 1.83074,0.3375 1.83074,0.75 0,1.22813 1.07414,0.85414 2.05423,-0.71523 z M 282,387.46683 c 0,-0.15574 0.50625,-0.70331 1.125,-1.21683 0.92138,-0.76468 1.125,-0.71343 1.125,0.28317 0,0.66925 -0.50625,1.21683 -1.125,1.21683 -0.61875,0 -1.125,-0.12743 -1.125,-0.28317 z m 12,3.28317 c 0,-0.4125 -0.6851,-0.75 -1.52246,-0.75 -1.51307,0 -1.51262,-0.0133 0.0728,-2.15766 2.27404,-3.07581 1.70358,-4.96734 -1.49809,-4.96734 -1.51321,0 -2.69381,0.42475 -2.90001,1.04335 -0.26335,0.79004 0.13117,0.92314 1.62499,0.54821 2.52156,-0.63287 2.55398,0.50119 0.0978,3.42022 -2.55314,3.03423 -2.37286,3.61322 1.125,3.61322 1.65,0 3,-0.3375 3,-0.75 z m 5.00926,-0.5625 c 0.43964,-1.24844 2.45994,-5.92782 3.07619,-7.125 0.15925,-0.30938 -1.25732,-0.5625 -3.14795,-0.5625 -1.89063,0 -3.4375,0.3375 -3.4375,0.75 0,0.4125 0.84375,0.75 1.875,0.75 2.21018,0 2.17525,-0.15178 0.75,3.25932 -0.61875,1.48088 -1.125,3.04084 -1.125,3.46659 0,1.27788 1.51238,0.87262 2.00926,-0.53841 z m 9.96087,0.22349 c 1.20311,-1.44966 0.39345,-3.75286 -1.67413,-4.76235 l -1.671,-0.81585 1.6875,-0.50387 c 2.09144,-0.62448 2.21492,-1.82892 0.1875,-1.82892 -3.41719,0 -5.96575,5.73425 -3.6,8.1 1.23361,1.23361 3.97425,1.13144 5.07013,-0.18901 z M 305.25,388.875 c 0,-0.61875 0.50625,-1.125 1.125,-1.125 0.61875,0 1.125,0.50625 1.125,1.125 0,0.61875 -0.50625,1.125 -1.125,1.125 -0.61875,0 -1.125,-0.50625 -1.125,-1.125 z M 276,389.25 c 0,-0.4125 -1.35,-0.75 -3,-0.75 -1.65,0 -3,0.3375 -3,0.75 0,0.4125 1.35,0.75 3,0.75 1.65,0 3,-0.3375 3,-0.75 z m -0.18298,-2.8125 c 0.21262,-0.64722 -0.64026,-0.9375 -2.75452,-0.9375 -2.27488,0 -3.0625,0.30097 -3.0625,1.17028 0,0.89019 0.65924,1.11456 2.75452,0.9375 1.515,-0.12803 2.89312,-0.65466 3.0625,-1.17028 z M 323.25,385.875 c 0,-0.61875 -0.50625,-1.125 -1.125,-1.125 -1.17118,0 -1.48798,0.88702 -0.625,1.75 0.86297,0.86298 1.75,0.54618 1.75,-0.625 z M 425.96256,607.7444 C 401.19441,589.79581 383.62909,571.25599 368.88475,547.5 348.62846,514.86316 340.18292,488.60647 336.27892,446.13032 c -2.07818,-22.61077 -1.36167,-76.41427 1.04855,-78.73819 1.7429,-1.68049 37.39721,-7.48655 62.42253,-10.16508 16.48766,-1.76472 46.03408,-1.75721 62.625,0.0159 28.2223,3.0162 60.33667,8.37174 62.30494,10.39025 1.54501,1.58444 2.85466,31.02328 2.32965,52.3668 -0.89508,36.38821 -5.44234,65.34676 -13.77908,87.75 -3.28309,8.82263 -12.76737,27.99483 -18.55084,37.5 -14.26465,23.44407 -33.41992,43.98915 -57.57725,61.75477 -3.17492,2.33488 -5.89177,4.24523 -6.03744,4.24523 -0.14567,0 -2.44176,-1.57752 -5.10242,-3.5056 z m 13.40149,-13.99506 c 3.83455,-2.89467 8.50435,-7.72322 11.43187,-11.82051 l 1.39055,-1.94617 -3.40779,0.0712 c -2.83582,0.0593 -3.70578,-0.2752 -5.18332,-1.99257 -0.97655,-1.13505 -2.12687,-3.3288 -2.55626,-4.875 -0.99551,-3.58462 -1.05252,-120.76501 -0.0608,-125.06126 0.91143,-3.94865 4.80797,-7.53809 8.94102,-8.23636 4.15488,-0.70196 9.54605,1.88517 11.69315,5.61136 1.4743,2.55856 1.52207,4.17977 1.88758,64.06094 l 0.375,61.43594 6.375,-8.06261 c 6.66341,-8.42736 15.10872,-20.61301 21.35249,-30.80927 2.02079,-3.3 4.15607,-6.758 4.74508,-7.68443 l 1.07093,-1.68443 -2.81577,1.1765 c -3.59041,1.50017 -6.02394,0.87867 -7.46409,-1.90626 C 486.16423,520.14208 486,514.32173 486,481.67337 c 0,-41.87971 -0.0419,-42.33247 -4.53746,-49.11964 -4.79703,-7.24219 -12.62109,-11.0202 -24.06053,-11.61812 -6.60039,-0.34499 -7.58418,-0.21217 -11.41354,1.54097 -5.36685,2.45703 -11.02107,7.75443 -13.66335,12.80112 l -2.07465,3.96253 -2.24224,-4.48712 c -2.5949,-5.19285 -9.35243,-12.29225 -13.6581,-14.34908 -11.42236,-5.45647 -31.21575,2.21666 -37.23298,14.43378 -1.73898,3.53075 -1.74283,3.60822 -2.11715,42.53719 -0.3615,37.59571 -0.43033,39.09452 -1.91147,41.625 -1.94102,3.31613 -5.45497,3.93533 -8.70344,1.53364 -1.17429,-0.8682 -2.13509,-1.45788 -2.13509,-1.3104 0,1.01245 4.49384,10.99198 7.32952,16.27676 5.6778,10.58158 13.82206,21.74531 22.62613,31.01473 l 4.16935,4.38973 0.375,-62.17322 c 0.34841,-57.76366 0.46882,-62.31638 1.69795,-64.19179 2.19486,-3.34895 4.87887,-4.63945 9.64923,-4.63945 5.01769,0 7.75987,1.57558 9.83916,5.65331 1.2171,2.38691 1.31141,7.02765 1.3125,64.58537 7.5e-4,42.10748 -0.25563,62.6914 -0.7988,64.125 -1.47106,3.88253 -3.62641,5.48632 -7.37316,5.48632 l -3.41165,0 5.22988,5.33345 c 2.87644,2.9334 7.91805,7.47234 11.20359,10.08654 l 5.97369,4.75311 2.65131,-1.58123 c 1.45821,-0.86967 4.44637,-2.93631 6.64035,-4.59253 z m -4.80388,-181.54095 c 1.90309,-5.93539 3.87747,-11.1032 4.3875,-11.48403 0.51003,-0.38084 5.14608,-1.98966 10.30233,-3.57516 5.15625,-1.5855 9.64433,-3.11639 9.97351,-3.40198 0.32919,-0.28559 -3.38331,-1.43778 -8.25,-2.56044 -4.86668,-1.12266 -9.69226,-2.29625 -10.72351,-2.60799 -1.63592,-0.49452 -2.34285,-1.97253 -5.54408,-11.59122 -2.01798,-6.06344 -3.86475,-10.82874 -4.10393,-10.58956 -0.23917,0.23917 -2.13184,5.22559 -4.20593,11.08093 l -3.77106,10.64606 -10.875,2.68816 -10.875,2.68817 10.89719,3.53419 10.89719,3.53419 3.2721,9.52764 C 430.10937,422.23329 430.39697,423 430.78143,423 c 0.17521,0 1.87564,-4.85622 3.77874,-10.79161 z M 560.96256,607.7444 c -21.95314,-15.90865 -39.93751,-34.19706 -53.12138,-54.01947 -7.0683,-10.62742 -7.00029,-8.92611 -0.81217,-20.32044 2.95846,-5.44747 5.62471,-9.90449 5.925,-9.90449 1.44157,0 1.33629,1.21572 -0.35527,4.10214 -1.0168,1.73506 -1.84874,3.39365 -1.84874,3.68576 0,0.72027 7.55764,4.19562 9.14391,4.20477 0.87492,0.005 1.58132,-1.09879 2.27509,-3.55517 0.55341,-1.95937 1.3324,-3.54642 1.73109,-3.52677 0.39871,0.0197 2.66553,0.31167 5.03741,0.64892 l 4.3125,0.61319 0,3.66358 0,3.66358 4.6875,-0.0115 c 6.9503,-0.017 7.31395,-0.5004 5.40025,-7.17801 -0.38019,-1.32662 0.1017,-1.76922 3.16944,-2.91111 1.9898,-0.74066 3.93844,-1.63977 4.33031,-1.99802 1.24181,-1.13529 1.84336,-0.72715 3.38654,2.29773 0.82748,1.62201 1.86187,3.16997 2.29863,3.4399 0.77285,0.47764 8.97733,-5.1833 8.97733,-6.19418 0,-0.27863 -1.22479,-1.76088 -2.72175,-3.29391 l -2.72175,-2.78733 2.88311,-3.61929 c 1.58572,-1.99062 2.98666,-3.76733 3.11321,-3.94826 0.12655,-0.18092 1.75046,0.4097 3.6087,1.3125 1.85824,0.90281 3.5569,1.64146 3.77481,1.64146 0.56016,0 4.06367,-8.07074 4.06367,-9.36113 0,-0.97199 -4.15305,-2.62433 -6.6221,-2.63469 -0.68286,-0.003 -0.87278,-0.65417 -0.60264,-2.06668 0.21695,-1.13438 0.6081,-3.48017 0.86925,-5.21288 l 0.47479,-3.15037 3.87785,-0.22463 3.87785,-0.22462 -0.20408,-3 c -0.11223,-1.65 -0.38806,-4.13638 -0.61295,-5.52529 -0.3964,-2.44822 -0.49317,-2.51069 -3.17092,-2.04706 -1.51913,0.26303 -3.36262,0.55566 -4.09665,0.65029 -0.98681,0.12722 -1.81656,-1.00064 -3.18403,-4.32794 -1.01718,-2.475 -1.85099,-4.57015 -1.8529,-4.65589 -0.002,-0.0857 1.51538,-1.04599 3.37175,-2.13389 3.35025,-1.96338 3.36651,-1.99275 2.19779,-3.96912 -0.6476,-1.09511 -2.1458,-3.17235 -3.32936,-4.6161 l -2.1519,-2.625 -2.95666,2.8776 -2.95667,2.87759 -4.15709,-3.21651 -4.15709,-3.21652 1.81788,-3.10197 c 0.99983,-1.7061 1.81788,-3.34098 1.81788,-3.6331 0,-0.72242 -7.55992,-4.19564 -9.15225,-4.20477 -1.18659,-0.007 -2.83184,3.82041 -2.84357,6.61477 -0.003,0.68286 -0.65417,0.87278 -2.06668,0.60264 -1.13438,-0.21695 -3.49688,-0.61093 -5.25,-0.87552 l -3.1875,-0.48107 0,-4.05908 c 0,-2.74704 -0.30303,-4.0592 -0.9375,-4.05947 -0.73609,-3.1e-4 -0.95014,-7.69441 -0.99632,-35.8125 -0.0323,-19.69665 -0.36984,-37.8371 -0.75,-40.3121 l -0.69118,-4.5 -7.5,-1.81358 c -7.67228,-1.85525 -8.35579,-2.08437 -7.8125,-2.61887 0.17187,-0.16909 7.56875,-1.09015 16.4375,-2.04681 20.36461,-2.19668 48.01938,-2.3645 66.375,-0.40279 28.2223,3.0162 60.33667,8.37174 62.30494,10.39025 1.54501,1.58444 2.85466,31.02328 2.32965,52.3668 -0.89508,36.38821 -5.44234,65.34676 -13.77908,87.75 -3.28309,8.82263 -12.76737,27.99483 -18.55084,37.5 -14.26465,23.44407 -33.41992,43.98915 -57.57725,61.75477 -3.17492,2.33488 -5.89177,4.24523 -6.03744,4.24523 -0.14567,0 -2.44176,-1.57752 -5.10242,-3.5056 z M 610.5,495.75 c 0,-3.38644 0.1636,-3.7508 1.6875,-3.75826 0.92812,-0.005 2.92759,-0.2133 4.44326,-0.46392 2.70046,-0.44653 2.77431,-0.3937 3.6812,2.63326 1.05704,3.52805 1.84392,3.72283 6.50054,1.60912 3.57167,-1.62124 3.80302,-2.37659 1.75604,-5.73351 l -1.42585,-2.33832 3.259,-2.72418 c 1.79244,-1.49831 3.51615,-2.72419 3.83045,-2.72419 0.31429,0 1.6392,1.0349 2.94423,2.29979 l 2.37278,2.29979 2.72543,-3.71277 c 2.62374,-3.57427 3.34989,-5.3837 2.16292,-5.38962 -0.30937,-0.001 -1.63794,-0.65854 -2.95237,-1.46001 l -2.38987,-1.45721 1.61904,-3.97748 c 0.89049,-2.18762 1.67874,-4.08405 1.75168,-4.21428 0.073,-0.13024 1.56504,0.14892 3.3158,0.62035 3.91959,1.05543 4.4406,0.46261 4.45674,-5.07106 l 0.0115,-3.9375 -3.30046,0 -3.30045,0 -0.75796,-4.3125 c -0.41688,-2.37188 -0.53481,-4.52486 -0.26205,-4.7844 0.27276,-0.25954 1.77461,-0.88065 3.33746,-1.38025 2.42066,-0.7738 2.76744,-1.14826 2.34127,-2.5281 -0.80852,-2.61774 -3.29202,-7.24517 -3.88555,-7.23981 -0.301,0.003 -1.55976,0.6755 -2.79726,1.49506 -1.2375,0.81956 -2.43166,1.49234 -2.65368,1.49506 -0.22202,0.003 -1.69607,-1.54118 -3.27567,-3.43089 l -2.87199,-3.43582 2.33817,-2.41238 c 1.28599,-1.32681 2.33817,-2.6207 2.33817,-2.8753 0,-0.2546 -1.71962,-1.72523 -3.82138,-3.26807 -4.11832,-3.02313 -3.95632,-3.05931 -6.38175,1.42569 -0.83488,1.5438 -1.49262,1.9767 -2.41006,1.5862 -0.694,-0.29539 -2.44306,-0.97401 -3.88681,-1.50803 -2.56076,-0.9472 -2.62009,-1.06166 -2.42438,-4.67734 0.19554,-3.61249 0.14092,-3.71831 -2.15625,-4.17775 -1.29628,-0.25925 -3.49593,-0.47137 -4.88812,-0.47137 l -2.53125,0 0,3.75 c 0,3.38644 -0.1636,3.7508 -1.6875,3.75826 -0.92812,0.005 -2.92927,0.21358 -4.44698,0.46453 -2.71487,0.44889 -2.77294,0.40632 -3.59142,-2.63326 -0.95759,-3.55625 -1.82909,-3.76924 -6.5866,-1.60973 -3.60329,1.6356 -3.78924,2.24451 -1.71189,5.60574 l 1.47561,2.38759 -3.30596,2.76344 c -1.81827,1.51989 -3.5631,2.76343 -3.8774,2.76343 -0.31429,0 -1.6392,-1.0349 -2.94423,-2.29979 l -2.37278,-2.29979 -2.80242,3.81767 c -3.09341,4.21406 -2.94185,5.10707 1.1547,6.80392 1.23937,0.51336 2.15034,1.1403 2.02437,1.39319 -0.12597,0.25289 -0.89807,2.24699 -1.71577,4.43134 -1.35309,3.61452 -1.65528,3.93054 -3.36173,3.51544 -1.03125,-0.25085 -2.58846,-0.62873 -3.46046,-0.83974 -1.84446,-0.4463 -2.513,1.21633 -2.5293,6.29026 L 569.25,459 l 3.3154,0 c 3.61598,0 3.35943,-0.38236 4.60287,6.85993 0.4669,2.71944 0.4522,2.73787 -2.59542,3.25276 -1.68575,0.28481 -3.24134,0.80316 -3.45687,1.1519 -0.48759,0.78894 3.07753,8.98724 3.90525,8.98047 0.33207,-0.003 1.61627,-0.6755 2.85377,-1.49506 1.2375,-0.81956 2.43166,-1.49234 2.65368,-1.49506 0.22202,-0.003 1.69607,1.54118 3.27567,3.43088 l 2.87199,3.43583 -2.33817,2.41238 c -1.28599,1.32681 -2.33817,2.6207 -2.33817,2.8753 0,0.2546 1.71962,1.72523 3.82138,3.26807 4.11832,3.02313 3.95631,3.05931 6.38175,-1.42569 0.82566,-1.52675 1.50277,-1.97856 2.41006,-1.60817 0.694,0.28332 2.66643,1.00727 4.3832,1.60877 3.03469,1.06326 3.10239,1.15986 2.4375,3.47821 -1.42657,4.97416 -0.99162,5.36762 6.25361,5.65711 L 610.5,499.5 l 0,-3.75 z m -6.35267,-22.19577 c -11.07002,-4.05255 -13.67165,-19.17041 -4.66056,-27.08225 10.19298,-8.94957 26.01323,-1.55856 26.01323,12.15302 0,11.3425 -10.70501,18.82716 -21.35267,14.92923 z m 10.02854,-6.6409 C 617.14038,465.38033 619,462.18532 619,458.625 c 0,-9.14885 -12.03756,-12.90915 -17.01363,-5.31473 -1.54582,2.35924 -1.59537,7.32 -0.10194,10.20796 2.11292,4.08594 7.87678,5.67801 12.29144,3.3951 z m -8.74256,-45.45161 2.80833,-0.77992 -1.05822,-2.53267 -1.05822,-2.53266 3.07625,-2.03576 3.07624,-2.03577 1.75809,2.16503 1.75807,2.16503 2.65606,-2.85931 c 2.14569,-2.30987 2.48412,-3.06649 1.76125,-3.9375 C 619.719,408.48519 618.87133,408 618.32743,408 c -1.64983,0 -1.94196,-1.31871 -0.99345,-4.48457 0.85104,-2.84052 1.07058,-3.01543 3.78474,-3.01543 l 2.88128,0 0,-3.84586 0,-3.84585 -2.84417,0.4548 c -2.80943,0.44925 -2.85939,0.41378 -4.08888,-2.90356 l -1.24469,-3.35837 2.21387,-1.14484 c 1.21763,-0.62966 2.21387,-1.47863 2.21387,-1.8866 0,-0.40796 -1.12955,-1.9743 -2.51012,-3.48075 l -2.51011,-2.73901 -1.72544,2.33378 -1.72545,2.33379 -2.90726,-1.64626 c -2.69736,-1.5274 -2.89245,-1.86288 -2.70195,-4.64627 l 0.20533,-3 -3.5625,-0.22859 -3.5625,-0.22859 0,2.58478 c 0,2.20052 -0.30662,2.65792 -2.0625,3.07671 -1.13438,0.27056 -2.65994,0.66955 -3.39014,0.88665 -0.98482,0.29281 -1.61684,-0.29739 -2.44757,-2.28561 -0.61596,-1.47419 -1.29085,-2.68035 -1.49976,-2.68035 -0.73897,0 -6.35003,3.77624 -6.35003,4.27357 0,0.27762 0.70392,1.25403 1.56426,2.16983 1.7178,1.82851 1.35993,3.28525 -1.4266,5.80702 -1.40277,1.26948 -1.655,1.27913 -3.84432,0.14699 l -2.34304,-1.21163 -1.10016,2.63302 c -1.84711,4.42078 -1.50882,5.6812 1.52486,5.6812 l 2.625,0 0,3.71602 c 0,3.65307 -0.0445,3.72436 -2.625,4.20847 -2.9253,0.54879 -3.15954,1.34436 -1.53827,5.2246 1.17812,2.81964 2.23468,3.16101 4.49412,1.45206 1.96353,-1.48514 1.99708,-1.47342 4.39872,1.53652 l 2.10456,2.63763 -1.52279,2.13855 c -1.43863,2.02036 -1.45123,2.20331 -0.22819,3.31015 0.71202,0.64438 2.23998,1.53103 3.39544,1.97034 1.98116,0.75324 2.16506,0.64503 3.22815,-1.89929 0.92885,-2.22305 1.41698,-2.62034 2.77278,-2.25677 0.90501,0.24267 2.40485,0.44585 3.33298,0.45148 1.46704,0.009 1.6875,0.40216 1.6875,3.01024 0,3.35272 0.53728,3.57142 5.43331,2.21172 z m -9.62192,-15.27778 c -7.20113,-3.13537 -8.06946,-13.01145 -1.49642,-17.01968 4.50719,-2.74848 9.93972,-1.484 12.97501,3.02008 3.3376,4.95265 1.61457,11.16017 -3.77722,13.60813 -3.70441,1.68186 -4.62967,1.72889 -7.70137,0.39147 z m 6.27173,-5.35147 c 1.13988,-0.79841 1.66688,-1.93656 1.66688,-3.6 0,-3.02273 -1.15142,-4.23247 -4.02845,-4.23247 -4.46687,0 -6.52505,4.4465 -3.47155,7.5 1.80196,1.80196 3.58966,1.90385 5.83312,0.33248 z m 90.81447,205.06899 c -23.08874,-17.58483 -36.20757,-31.16515 -50.52902,-52.30648 l -6.28642,-9.28002 3.39628,-6.09498 c 9.54936,-17.1374 16.91459,-35.4803 20.1481,-50.1783 l 1.2833,-5.83332 2.04413,3.20832 c 9.33763,14.65574 33.99806,20.92993 53.88783,13.71033 l 5.01883,-1.82174 2.63219,2.39912 c 1.44771,1.31951 4.60438,4.26019 7.01481,6.53486 l 4.38264,4.13575 20.21564,-20.625 c 18.57675,-18.95299 23.1441,-24.33352 23.1441,-27.26483 0,-0.59103 -9.53438,-10.26084 -21.1875,-21.48849 l -21.1875,-20.4139 -7.5,7.89573 -7.5,7.89574 -4.02327,-1.42061 c -5.29899,-1.87106 -14.72176,-3.03811 -22.47538,-2.78368 l -6.24865,0.20504 -8.49642,-14.625 c -6.9894,-12.03093 -8.95293,-14.8587 -11.07018,-15.94257 l -2.57375,-1.31757 -0.55422,-14.43243 c -0.30484,-7.93784 -0.78011,-16.11993 -1.05619,-18.18243 l -0.50194,-3.75 -8.13077,-2.00577 c -4.47193,-1.10317 -8.26496,-2.13996 -8.42897,-2.30396 -0.38289,-0.3829 18.72271,-2.54239 32.30974,-3.65196 12.67195,-1.03483 38.32726,-0.4696 53.625,1.18146 24.58928,2.65387 58.37348,8.2287 60.05452,9.90979 1.9533,1.95323 2.93116,52.01498 1.41863,72.62044 -2.18858,29.81435 -7.32473,54.4807 -15.2898,73.42902 -13.03088,30.99937 -32.76754,59.26599 -54.77354,78.44598 -7.7109,6.72067 -24.20726,19.5 -25.17182,19.5 -0.31229,0 -3.72797,-2.40685 -7.5904,-5.34854 z M 217.40905,555.5625 c -0.31098,-0.64119 -0.23324,-25.31051 0.0797,-25.30197 0.44182,0.012 7.0081,11.8655 7.38405,13.32971 0.34662,1.34998 -6.94385,13.04424 -7.46379,11.97226 z M 525.375,509.23313 c -5.76512,-2.71135 -5.93168,-3.0034 -4.42998,-7.76733 l 1.31101,-4.15902 2.82724,2.55423 c 5.0564,4.56815 11.77507,4.45712 16.50497,-0.27277 4.59732,-4.59733 4.84192,-11.33771 0.58728,-16.18349 -3.47234,-3.95477 -9.13962,-5.12372 -14.46615,-2.98383 -1.31256,0.52731 -1.3757,0.30063 -0.8673,-3.11361 0.73525,-4.93776 1.40316,-5.55731 5.99116,-5.55731 10.85558,0 18.96071,7.42731 19.76669,18.11365 0.89158,11.82133 -7.9277,20.987 -20.04603,20.83337 -2.42417,-0.0308 -5.43859,-0.64542 -7.17889,-1.46389 z m 208.19936,-11.5331 -4.75731,-4.79998 3.59787,-3.44736 c 3.27877,-3.14161 3.71018,-3.3457 4.86432,-2.30123 1.16161,1.05124 2.32682,0.0554 14.07466,-12.02835 l 12.80828,-13.17448 -12.40358,-12.16181 c -6.82194,-6.689 -12.87725,-12.43176 -13.45624,-12.76168 -0.75729,-0.43153 -4.61583,3.04131 -13.74943,12.375 l -12.69672,12.97486 6.08002,6.14949 c 3.34401,3.38221 6.34676,5.98463 6.67276,5.78314 0.32601,-0.20148 -1.67452,-2.52384 -4.44562,-5.16079 l -5.03837,-4.79447 3.75,-3.83806 3.75,-3.83807 2.25,2.52674 c 1.2375,1.38971 2.65203,3.17818 3.14339,3.97438 0.79256,1.28425 0.89837,1.13192 0.9375,-1.34968 0.0242,-1.53853 -0.51138,-4.18562 -1.19031,-5.88244 l -1.23442,-3.0851 4.18673,-4.18673 4.18672,-4.18671 11.2977,10.71805 c 6.21374,5.89494 11.29769,10.88566 11.29769,11.0905 0,0.20485 -4.26405,4.8947 -9.47564,10.42191 -6.91972,7.33875 -9.72133,9.84555 -10.38649,9.29352 -0.69902,-0.58013 -0.47146,-1.64378 0.97844,-4.57351 1.44258,-2.9149 1.94905,-5.26519 2.14199,-9.93987 0.2521,-6.10789 0.25024,-6.11486 -0.7907,-2.96183 -3.63515,11.01099 -13.81906,19.39156 -28.2176,23.22089 -6.52527,1.73541 -19.63582,1.70192 -26.19645,-0.0669 C 673.47659,488.43334 661.2286,478.92171 662.51463,473.79774 663.29446,470.69066 666,447.56632 666,444.00823 c 0,-2.46284 0.81894,-5.15028 2.85644,-9.37373 l 2.85644,-5.921 4.64356,8.09282 c 2.55395,4.45104 4.64339,8.31237 4.64319,8.58074 -2e-4,0.26837 -1.65161,1.90995 -3.66979,3.64796 -2.01819,1.73801 -4.38052,4.62895 -5.24964,6.4243 -1.77456,3.66577 -2.18975,10.30214 -0.6427,10.27306 1.10836,-0.0208 20.09351,-5.76339 20.54426,-6.21414 0.25491,-0.25491 -9.5536,-18.13479 -17.53539,-31.96515 l -1.91714,-3.3219 -2.8525,5.5719 -2.85249,5.57191 -0.0371,-11.83743 c -0.0353,-11.27343 0.0551,-12.01926 1.89671,-15.65367 1.06361,-2.09893 2.19791,-3.52208 2.52065,-3.16257 0.32275,0.35952 7.44999,12.6086 15.8383,27.22019 l 15.25149,26.56652 17.41214,-17.94152 17.41215,-17.94152 7.37822,7.1418 c 4.05803,3.92799 13.25027,12.80237 20.42717,19.72085 l 13.04888,12.57906 -7.81095,8.02914 c -4.296,4.41603 -13.11083,13.51352 -19.5885,20.21665 -6.47763,6.70312 -11.88197,12.1875 -12.00962,12.1875 -0.12765,0 -2.37288,-2.15999 -4.9894,-4.79997 z m -20.79312,-13.94556 4.40623,-1.68238 -7.08355,-7.08356 -7.08355,-7.08355 -13.82269,3.92663 c -7.60247,2.15965 -13.97824,4.05221 -14.16837,4.2057 -0.52822,0.42642 3.68385,3.6537 7.54916,5.78416 5.72697,3.15656 10.75267,4.20483 18.67153,3.89456 5.03143,-0.19714 8.4197,-0.77352 11.53124,-1.96156 z M 690.75,483.31503 c -4.49387,-1.18339 -12.14342,-4.87029 -12.53363,-6.0409 -0.13403,-0.40213 3.6369,-1.85721 8.37985,-3.23353 l 8.62356,-2.50238 6.50153,5.90253 c 6.06929,5.51012 6.38194,5.93602 4.70261,6.40614 -3.12847,0.87579 -11.39344,0.59534 -15.67392,-0.53186 z M 673.5,461.42576 c 0,-1.53757 9.50404,-9.17576 11.4172,-9.17576 0.43878,0 3.08046,5.25377 2.76582,5.50065 -0.16941,0.13293 -3.00802,1.02244 -6.30802,1.97669 -3.3,0.95424 -6.42188,1.89207 -6.9375,2.08407 -0.51563,0.19199 -0.9375,0.0184 -0.9375,-0.38565 z m 27.57536,-8.51153 -1.94712,-3.28923 3.79297,-0.23041 c 5.17888,-0.31459 5.78897,0.6025 2.66702,4.00913 l -2.56576,2.79974 -1.94711,-3.28923 z M 711.375,442.71749 c -1.65,-0.61577 -6.20006,-1.24976 -10.11125,-1.40886 l -7.11125,-0.28926 -1.79554,-3.04039 c -0.98755,-1.67222 -1.56256,-3.27338 -1.27781,-3.55813 1.11837,-1.11837 18.00211,-0.47136 22.92085,0.87836 7.18264,1.97095 7.18271,1.97105 3.56349,5.46221 l -3.18849,3.07567 -3,-1.1196 z M 149.42897,375.55422 137.25,363.35845 l 0,-3.47739 0,-3.47739 10.3125,-0.55646 c 5.67187,-0.30606 15.54375,-0.35657 21.9375,-0.11226 13.13309,0.50185 42.07293,3.31902 42.95404,4.1814 0.31848,0.31171 -2.80547,1.15911 -6.94212,1.88312 -5.30232,0.92804 -7.71741,1.6865 -8.1864,2.57096 -0.36589,0.69001 -0.88575,4.96707 -1.15525,9.50457 -0.2695,4.5375 -0.67273,9.51562 -0.89606,11.0625 l -0.40606,2.8125 -16.6301,0 -16.6301,0 -12.17898,-12.19578 z M 257.25,241.875 l 0,-88.125 -47.4375,0.008 -47.4375,0.008 -21.94901,28.86164 -21.94901,28.86164 0.19901,21.56796 0.19901,21.56801 39.9375,0.19407 39.9375,0.19408 0,37.49342 0,37.49343 29.25,0 29.25,0 0,-88.125 z m -81,-17.48684 c 0,-0.67002 20.69888,-34.57199 21.81234,-35.72566 0.41755,-0.43264 0.68766,6.56397 0.68766,17.8125 l 0,18.525 -11.25,0 c -6.1875,0 -11.25,-0.27533 -11.25,-0.61184 z M 417,310.5 l 0,-19.5 -43.875,0 -43.875,0 0,-18 0,-18 43.875,0 43.875,0 0,-21.97746 0,-21.97746 -21.80403,-28.64754 -21.80403,-28.64754 -47.19597,0 -47.19597,0 0,20.625 0,20.625 12.5625,0.15875 c 6.90937,0.0873 14.08125,0.19739 15.9375,0.24461 1.85625,0.0473 14.76562,0.14453 28.6875,0.21624 l 25.3125,0.1304 0,14.625 0,14.625 -41.25,0 -41.25,0 0,52.5 0,52.5 69,0 69,0 0,-19.5 z m 123,-15.03155 0,-34.53155 22.52288,-52.87804 c 12.38759,-29.08293 22.32392,-53.19999 22.08074,-53.59346 -0.27554,-0.44583 -27.55634,-0.7154 -72.39789,-0.7154 l -71.95573,0 0,18.375 0,18.375 26.4375,0.018 c 23.87959,0.0162 44.00586,0.53463 44.7018,1.15141 0.24697,0.21887 -14.56245,35.05131 -23.0849,54.29674 l -3.8044,8.59108 0,37.72139 0,37.72138 27.75,0 27.75,0 0,-34.53154 z m 187.22175,19.82249 15.27825,-14.70906 0,-37.79094 0,-37.79094 -35.0625,-0.15875 c -34.55721,-0.15646 -39.06325,-0.203 -44.625,-0.46086 L 660,224.25 660,210 l 0,-14.25 24.9375,-0.1304 c 13.71563,-0.0717 26.45625,-0.16902 28.3125,-0.21624 1.85625,-0.0472 9.19688,-0.1573 16.3125,-0.24461 L 742.5,195 l 0,-20.63055 0,-20.63055 -47.75646,0.19305 -47.75645,0.19305 -21.96516,28.875 -21.96514,28.875 -0.0284,59.0625 L 603,330 l 54.47175,0 54.47176,0 15.27824,-14.70906 z M 657.75,273 l 0,-18 17.25,0 17.25,0 0,18 0,18 -17.25,0 -17.25,0 0,-18 z"
       id="path4140"
       inkscape:connector-curvature="0" />
  </g>
</svg>
