<?xml version="1.0" encoding="UTF-8" standalone="no"?>
<!-- Created with Inkscape (http://www.inkscape.org/) -->

<svg
   xmlns:dc="http://purl.org/dc/elements/1.1/"
   xmlns:cc="http://creativecommons.org/ns#"
   xmlns:rdf="http://www.w3.org/1999/02/22-rdf-syntax-ns#"
   xmlns:svg="http://www.w3.org/2000/svg"
   xmlns="http://www.w3.org/2000/svg"
   xmlns:sodipodi="http://sodipodi.sourceforge.net/DTD/sodipodi-0.dtd"
   xmlns:inkscape="http://www.inkscape.org/namespaces/inkscape"
   id="svg2"
   version="1.1"
   inkscape:version="0.91 r13725"
   width="1500"
   height="586.20001"
   viewBox="0 0 1500 586.20001"
   sodipodi:docname="adgnew.svg">
  <metadata
     id="metadata8">
    <rdf:RDF>
      <cc:Work
         rdf:about="">
        <dc:format>image/svg+xml</dc:format>
        <dc:type
           rdf:resource="http://purl.org/dc/dcmitype/StillImage" />
        <dc:title></dc:title>
      </cc:Work>
    </rdf:RDF>
  </metadata>
  <defs
     id="defs6" />
  <sodipodi:namedview
     pagecolor="#ffffff"
     bordercolor="#666666"
     borderopacity="1"
     objecttolerance="10"
     gridtolerance="10"
     guidetolerance="10"
     inkscape:pageopacity="0"
     inkscape:pageshadow="2"
     inkscape:window-width="2560"
     inkscape:window-height="1371"
     id="namedview4"
     showgrid="false"
     inkscape:zoom="0.5"
     inkscape:cx="251.5187"
     inkscape:cy="520.17522"
     inkscape:window-x="0"
     inkscape:window-y="27"
     inkscape:window-maximized="1"
     inkscape:current-layer="svg2" />
  <g
     id="g4138">
    <path
       style="fill:#8a9295"
       d="m 228.3,571.32133 c -32.90756,-1.33347 -58.76181,-7.27668 -81.74398,-18.79071 -24.58082,-12.31497 -43.23479,-31.4364 -53.874257,-55.2243 -0.945528,-2.11404 -1.782753,-3.90729 -1.860498,-3.98505 -0.191121,-0.19113 -1.013241,4.36452 -1.872966,10.37874 -2.171946,15.19392 -2.438754,31.13412 -0.765768,45.75 0.302187,2.64 0.511563,4.84191 0.465285,4.89315 -0.147978,0.16386 -5.077422,-5.98302 -7.412487,-9.24315 -12.325731,-17.20869 -20.180715,-37.45857 -23.623284,-60.9 -1.458525,-9.93153 -1.643034,-13.00239 -1.649295,-27.45 -0.0064,-14.75316 0.199848,-18.17928 1.814952,-30.15 4.804074,-35.60652 16.958352,-72.81939 36.891141,-112.95 C 112.21336,278.3277 133.2709,245.97298 162.42064,209.55 c 18.31814,-22.88875 36.19395,-42.80246 57.91181,-64.51391 15.3755,-15.37095 27.84628,-26.9232 42.91755,-39.75649 8.36944,-7.126627 25.35,-20.909483 25.35,-20.576195 0,0.06372 -2.4577,2.192769 -5.46155,4.731223 -25.53141,21.575732 -50.33273,45.416342 -72.23845,69.440212 -33.12767,36.33092 -62.9956,76.91738 -84.97823,115.47393 -28.923637,50.73076 -44.8393,96.28894 -48.839281,139.80124 -0.339924,3.69774 -0.760194,22.32525 -0.527946,23.4 0.09741,0.45075 0.377601,0.11496 1.126464,-1.35 3.468036,-6.78435 12.637017,-22.63608 17.959971,-31.05 C 101.87111,395.30215 113.7,378.04081 113.7,378.79735 c 0,0.15783 -0.26568,1.73298 -0.5904,3.5004 -3.60701,19.63257 -4.05498,41.79537 -1.1863,58.69092 5.12557,30.18786 19.66172,55.48107 42.01979,73.11531 11.02173,8.69304 26.27355,16.2885 42.0232,20.92773 8.09888,2.3856 21.38034,5.08659 28.28371,5.75193 l 2.1,0.20241 -2.86348,-2.96802 c -9.15932,-9.49371 -15.6043,-20.46174 -20.22417,-34.41729 -0.91429,-2.76189 -1.66235,-5.19534 -1.66235,-5.40771 0,-0.22974 2.22348,0.7161 5.4901,2.33544 19.91799,9.87372 42.27556,14.09484 71.9099,13.57665 18.27065,-0.3195 33.53763,-1.99995 52.43268,-5.77131 44.59974,-8.90196 91.18152,-26.82633 140.31732,-53.99325 6.92709,-3.82995 7.39899,-4.03983 12.45,-5.53761 19.854,-5.88729 43.93371,-15.06843 66.84573,-25.48707 8.77335,-3.98946 23.23341,-10.94298 28.50555,-13.70772 2.36568,-1.24059 4.34046,-2.21118 4.3884,-2.15688 0.30432,0.34476 -25.18104,19.77957 -36.88968,28.13163 -78.4854,55.98549 -165.09945,94.82712 -237.89979,106.68489 -2.63988,0.42996 -4.84521,0.82722 -4.90077,0.88275 -0.13764,0.13764 6.64227,2.32137 10.15056,3.26937 8.27286,2.23545 19.45077,4.1538 28.95,4.96833 2.145,0.18393 4.6425,0.41262 5.55,0.5082 l 1.65,0.17379 -2.85,0.87204 c -32.72841,10.01433 -63.06512,15.9249 -91.43338,17.81418 -6.44772,0.42942 -23.03953,0.76455 -27.96662,0.56487 z m 48,-84.89652 c -0.9075,-0.0581 -4.1475,-0.25281 -7.2,-0.43257 -15.82206,-0.9318 -32.67067,-3.73011 -46.65,-7.74786 -34.46429,-9.90534 -59.48203,-28.79286 -72.49816,-54.73362 -2.47012,-4.92285 -2.62183,-5.86494 -1.1572,-7.18575 1.04257,-0.9402 2.49095,-1.09179 3.52322,-0.36876 0.35824,0.25092 1.55639,1.97217 2.66254,3.825 18.69898,31.32117 58.07104,49.59816 113.00869,52.46001 8.86249,0.46167 28.09299,0.14226 37.11091,-0.61638 21.62772,-1.81944 41.87511,-5.33955 64.34421,-11.18652 l 7.19418,-1.87209 -4.04418,-0.65139 c -8.46396,-1.36329 -21.82995,-4.82073 -23.10813,-5.97747 -1.21287,-1.09764 -1.00509,-3.55971 0.37554,-4.44984 0.3786,-0.24411 5.81838,-1.54878 12.08838,-2.89926 52.42173,-11.29104 108.58932,-35.6844 160.14258,-69.54933 5.97159,-3.92271 11.1123,-7.22661 11.42379,-7.34205 0.7233,-0.26799 27.07242,-2.59914 29.2779,-2.59026 1.12623,0.005 1.88022,0.17937 2.3577,0.54666 0.93138,0.7164 1.27821,2.34078 0.73389,3.43713 -0.73425,1.47897 -18.78987,14.54043 -32.48586,23.50032 -14.832,9.70305 -32.65056,20.09724 -48.45,28.26255 -0.66,0.3411 -1.0875,0.62613 -0.94998,0.63342 1.05732,0.0561 16.9275,-4.57983 28.27149,-8.25849 4.79682,-1.55553 9.15057,-2.82825 9.675,-2.82825 1.05297,0 2.00559,0.77196 2.47446,2.0052 0.42513,1.1181 -0.12363,2.51172 -1.29708,3.29418 -0.53565,0.35718 -5.49639,3.11391 -11.02389,6.12609 -59.15253,32.23491 -126.88932,55.08813 -184.35,62.19654 -14.71665,1.82058 -21.92259,2.29077 -36.9,2.40774 -7.095,0.0554 -13.6425,0.0532 -14.55,-0.005 z m -133.41789,-77.7498 c -1.66481,-1.83429 -5.84802,-13.8657 -7.43187,-21.375 -6.61291,-31.35294 2.26868,-70.23588 24.9712,-109.32198 1.71612,-2.95458 3.5911,-6.10807 4.16662,-7.00776 0.57552,-0.89969 1.00451,-1.6777 0.9533,-1.7289 -0.19419,-0.1942 -9.06426,8.04803 -15.69136,14.58071 -3.795,3.74093 -7.19488,6.95384 -7.55528,7.13981 -1.75576,0.90595 -4.11472,-0.48525 -4.11472,-2.42668 0,-1.76661 9.59753,-18.47401 16.97989,-29.55862 37.52279,-56.34047 103.55156,-113.63612 175.29011,-152.10582 6.6,-3.53924 12.2025,-6.55831 12.45,-6.70904 1.72524,-1.050707 -15.51534,3.82244 -28.32273,8.00559 -4.77,1.55797 -8.84739,2.83268 -9.06087,2.83268 -0.8172,0 -1.97886,-0.75055 -2.3889,-1.54351 -0.64239,-1.24227 -0.51927,-2.24724 0.3975,-3.24411 0.4863,-0.52879 4.95111,-3.09305 10.875,-6.245829 57.62532,-30.66892 120.30336,-52.115347 174.6,-59.742562 18.30357,-2.571159 33.04809,-3.503694 51,-3.225555 24.7806,0.383943 44.35017,3.125535 63.48699,8.894181 34.27356,10.331499 58.84695,29.782113 71.4693,56.570235 1.01403,2.15206 1.84371,4.27618 1.84371,4.72026 0,1.05203 -1.39536,2.57286 -2.55,2.77928 -1.53066,0.27364 -2.51859,-0.65914 -4.65,-4.39042 -11.61102,-20.326339 -31.19091,-35.056846 -59.25,-44.575429 -20.90313,-7.091043 -45.10467,-10.392873 -72.56571,-9.90018 -26.39142,0.473505 -50.90793,3.788484 -79.53429,10.754151 -4.125,1.00374 -7.60095,1.915698 -7.72434,2.026578 -0.12339,0.110877 1.22661,0.446025 3,0.744771 7.11435,1.198482 20.70063,4.604064 22.89543,5.739045 1.70163,0.879951 1.8567,3.507894 0.27645,4.684716 -0.49959,0.372036 -4.32975,1.307187 -11.54754,2.81937 -28.24869,5.918337 -58.25556,15.688108 -86.18016,28.058928 -42.8112,18.96571 -86.01126,45.13537 -118.70974,71.91182 -4.13056,3.38246 -7.6451,6.27721 -7.8101,6.43277 -0.165,0.15556 1.5225,-0.66713 3.75,-1.82819 9.79531,-5.10571 35.11803,-16.24023 36.93454,-16.24029 0.96168,-3e-5 2.3106,1.01663 2.69687,2.03258 0.69715,1.83364 0.23702,2.29342 -9.4252,9.41812 -23.742,17.5068 -45.27321,37.22582 -62.18293,56.94927 -12.70073,14.81409 -24.09723,30.86481 -32.90992,46.35 -5.30678,9.32481 -6.89005,12.37231 -9.55829,18.39789 -7.00354,15.81586 -10.83057,29.82241 -11.94077,43.70212 l -0.31195,3.9 -4.20289,8.4 c -7.70173,15.39288 -12.75824,29.42481 -15.89175,44.1 -0.84556,3.96 -1.61158,7.49871 -1.70226,7.86381 -0.52967,2.13252 -3.3905,2.93988 -4.82334,1.36119 z m 507.07575,-70.5 c 0.1176,-1.60875 0.25158,-2.96763 0.29769,-3.01971 0.0461,-0.0521 0.67125,0.0829 1.38918,0.3 0.94293,0.28512 3.5991,0.39471 9.56823,0.39471 9.78747,0 9.53205,0.0728 10.28733,-2.93394 0.26589,-1.05852 0.56847,-2.1462 0.67242,-2.4171 0.15939,-0.41529 -0.0393,-0.38718 -1.26684,0.17925 -1.33887,0.61782 -1.87773,0.67014 -6.70587,0.65121 -6.02196,-0.0237 -7.30782,-0.28632 -9.03396,-1.84581 -1.43676,-1.29801 -2.06604,-2.67648 -2.06604,-4.52583 0,-1.5105 2.66496,-12.12642 3.58008,-14.26131 0.31788,-0.74157 1.0749,-1.89834 1.68228,-2.57067 1.69341,-1.87437 3.06321,-2.19015 10.19532,-2.35029 6.79173,-0.15249 8.28525,0.0704 8.94819,1.33572 l 0.41409,0.79029 0.3633,-1.10076 0.36327,-1.10076 6.75174,0 c 3.71346,0 6.69969,0.10125 6.63606,0.225 -1.54347,3.00219 -2.37243,5.66166 -5.30937,17.03337 -3.74655,14.50647 -4.24431,15.83286 -6.32496,16.85451 -2.26602,1.11264 -4.63896,1.28247 -17.95299,1.28484 l -12.70299,0.003 0.21384,-2.925 z m 22.89759,-12.48468 c 0.86607,-0.78378 3.7587,-11.43627 3.58524,-13.20306 -0.11961,-1.21809 -1.06917,-1.67718 -3.4806,-1.68285 -2.2011,-0.005 -3.45864,0.53586 -4.09185,1.76031 -0.55416,1.07163 -3.16824,11.04693 -3.16824,12.08997 0,1.39758 0.91731,1.74714 4.27131,1.62765 1.67418,-0.0596 2.47824,-0.2247 2.88414,-0.59202 z m 193.11582,12.48468 c 0.11412,-1.60875 0.24363,-2.96763 0.28782,-3.01971 0.0442,-0.0521 0.66771,0.0829 1.38564,0.3 0.94293,0.28512 3.5991,0.39471 9.56823,0.39471 9.81636,0 9.49182,0.0957 10.33134,-3.04794 0.30141,-1.12863 0.60864,-2.21937 0.68271,-2.42385 0.0827,-0.2283 -0.42717,-0.1125 -1.32114,0.3 -1.33887,0.61782 -1.87773,0.67014 -6.70587,0.65121 -6.02196,-0.0237 -7.30782,-0.28632 -9.03396,-1.84581 -1.43451,-1.29597 -2.06604,-2.67624 -2.06604,-4.51554 0,-1.76529 2.83446,-12.67539 3.79779,-14.61807 1.89954,-3.83064 3.31809,-4.3872 11.65989,-4.57449 6.79173,-0.15249 8.28525,0.0704 8.94819,1.33572 l 0.41409,0.79029 0.3633,-1.10076 0.36327,-1.10076 6.75174,0 c 3.71346,0 6.69969,0.10125 6.63606,0.225 -1.54347,3.00219 -2.37243,5.66166 -5.30937,17.03337 -2.04081,7.90194 -3.64854,13.52412 -4.1538,14.52573 -1.70079,3.37161 -2.97567,3.60393 -19.81425,3.61068 l -12.99312,0.005 0.20748,-2.925 z m 23.06559,-12.72126 c 0.75042,-0.8724 3.57255,-11.62785 3.41394,-13.01085 -0.13413,-1.1697 -1.12104,-1.63293 -3.49071,-1.63848 -2.2011,-0.005 -3.45864,0.53586 -4.09185,1.76031 -0.55416,1.07163 -3.16824,11.04693 -3.16824,12.08997 0,1.40403 0.91518,1.74774 4.32531,1.62453 2.09631,-0.0757 2.45007,-0.17271 3.01155,-0.82548 z m 433.77784,12.75507 c 0.1132,-1.61118 0.2551,-2.97864 0.3153,-3.03882 0.06,-0.0602 0.6968,0.0682 1.4147,0.2853 0.943,0.28515 3.5998,0.39471 9.5722,0.39471 7.0023,0 8.3752,-0.0719 8.9748,-0.46986 0.5141,-0.34125 0.8887,-1.1325 1.3686,-2.89065 l 0.6607,-2.42079 -1.3855,0.6366 c -1.2494,0.57405 -1.9013,0.6351 -6.6355,0.62154 -6.1255,-0.0177 -7.3233,-0.27507 -9.1619,-1.96983 -1.4235,-1.31214 -2.0412,-2.72571 -2.0127,-4.60632 0.02,-1.32189 2.4743,-11.0214 3.448,-13.62633 0.3342,-0.89412 1.1481,-2.21202 1.8087,-2.92872 1.9123,-2.07459 3.2143,-2.34564 11.2673,-2.34564 l 6.6994,0 0.868,0.97122 0.868,0.97122 0.2515,-0.97122 0.2515,-0.97122 6.794,-0.0806 6.794,-0.0806 -1.0348,2.18058 c -0.7149,1.5066 -2.0546,6.12156 -4.3343,14.93061 -1.8147,7.0125 -3.5916,13.38555 -3.9485,14.16231 -0.8338,1.81473 -1.8399,2.7444 -3.7082,3.42654 -1.3549,0.4947 -2.8467,0.55746 -15.4206,0.64854 l -13.9207,0.10083 0.206,-2.92941 z m 21.9185,-12.06933 c 0.5445,-0.11688 1.0832,-0.53466 1.4049,-1.08951 0.7705,-1.32942 3.3801,-11.93814 3.1561,-12.83064 -0.2682,-1.06851 -1.5882,-1.50999 -4.092,-1.36851 -3.2097,0.18138 -3.3597,0.40185 -5.2995,7.79061 -1.9948,7.59819 -1.9738,7.66836 2.2973,7.68222 0.9075,0.003 2.0474,-0.0799 2.5332,-0.18417 z M 358.8,340.33027 c 0,-0.0934 1.77582,-6.94461 3.94629,-15.225 3.20835,-12.24006 3.95163,-15.46197 3.975,-17.23026 l 0.0288,-2.175 6.525,0 6.525,0 0,0.92667 0,0.92667 0.89691,-0.75471 c 1.1754,-0.98904 3.06342,-1.21206 8.64477,-1.02114 3.06735,0.10494 4.83765,0.30576 5.8197,0.66021 2.63163,0.94983 4.41276,3.81549 3.97278,6.39174 -0.30096,1.76217 -3.10458,12.38871 -3.61992,13.72056 -1.53858,3.9762 -4.03113,4.95516 -12.56424,4.93467 -5.67192,-0.0135 -6.95979,-0.24783 -7.96167,-1.44792 l -0.76563,-0.91713 -0.9969,4.05957 c -0.72843,2.96643 -0.96048,4.49868 -0.86166,5.69019 l 0.13521,1.63062 -6.84966,0 c -3.76734,0 -6.84969,-0.0764 -6.84969,-0.16974 z m 24.01575,-14.71269 c 0.65622,-0.65619 4.04511,-13.06566 3.76644,-13.79187 -0.26061,-0.67911 -1.53858,-1.0257 -3.78219,-1.0257 -2.61351,0 -3.492,0.34038 -4.04712,1.56819 -0.75666,1.67343 -3.21045,11.96163 -3.02712,12.69201 0.24606,0.98043 1.4709,1.34271 4.16733,1.23261 1.82967,-0.0747 2.47011,-0.22269 2.92266,-0.67524 z M 398.1,331.31791 c 0,-0.10017 0.40695,-1.03479 0.90432,-2.07699 0.4974,-1.04217 1.9341,-5.78646 3.19269,-10.54287 1.79073,-6.76749 2.29356,-9.12099 2.31234,-10.82304 l 0.024,-2.175 5.82672,0 5.82672,0 -0.18633,1.99536 -0.18633,1.99536 0.96243,-1.25223 c 1.6593,-2.15895 2.92359,-2.5641 8.39847,-2.69145 2.59875,-0.0605 4.72458,0.005 4.72407,0.14652 -0.003,0.41364 -2.01582,7.92318 -2.16537,8.07273 -0.075,0.075 -0.59697,-0.10053 -1.16001,-0.39 -0.82335,-0.4233 -1.79718,-0.52629 -4.97595,-0.52629 -5.58819,0 -5.20956,-0.39546 -7.35129,7.67817 -1.28559,4.84629 -1.7088,6.95544 -1.725,8.59683 l -0.0216,2.175 -7.2,0 c -3.96,0 -7.2,-0.082 -7.2,-0.1821 z m 35.00448,-0.13125 c -3.57003,-0.59961 -5.88807,-2.77275 -6.13461,-5.75112 -0.1035,-1.2504 0.22542,-2.94885 1.55613,-8.03553 1.88772,-7.21593 2.54742,-8.61603 4.76073,-10.10436 2.24904,-1.51233 3.6423,-1.65963 14.40615,-1.5231 7.9263,0.10053 9.92814,0.21126 11.16924,0.61791 1.7109,0.56058 2.88951,1.64118 3.57198,3.27492 0.82122,1.96599 0.64056,3.70179 -1.06278,10.20963 l -0.29445,1.125 -10.46769,0 -10.46772,0 -0.4197,1.875 c -0.46848,2.09271 -0.39567,2.77425 0.33279,3.11577 0.75099,0.35208 14.27997,0.48555 16.84545,0.1662 1.2375,-0.15405 2.28993,-0.24621 2.33871,-0.20481 0.0488,0.0414 -0.40413,1.30659 -1.0065,2.81154 l -1.09518,2.7363 -11.2935,-0.0353 c -6.21144,-0.0195 -11.94402,-0.14454 -12.73905,-0.27807 z m 16.88796,-16.11165 c 0.17634,-0.61875 0.4017,-1.68519 0.50073,-2.36982 0.25095,-1.73442 -0.31572,-1.9881 -4.14876,-1.85733 -3.66489,0.12504 -3.79956,0.2529 -4.62768,4.3935 l -0.19173,0.95865 4.0734,0 4.0734,0 0.32064,-1.125 z m 19.92819,16.1259 c -2.48154,-0.36387 -3.61842,-0.86505 -4.71462,-2.07843 -1.27743,-1.41396 -1.83099,-3.01323 -1.60431,-4.63497 0.30516,-2.18298 3.17823,-12.88722 3.86028,-14.3823 0.79011,-1.7319 2.47128,-3.32778 4.04178,-3.83673 0.7998,-0.2592 4.62705,-0.40797 12.66252,-0.49227 l 11.51625,-0.12078 -0.20721,1.89729 c -0.114,1.04352 -0.2811,2.38026 -0.37134,2.97054 l -0.16413,1.07325 -1.53531,-0.39825 c -1.88433,-0.48879 -11.38968,-0.54651 -12.73557,-0.0773 -1.17402,0.40926 -1.4256,1.04505 -3.23313,8.17077 -1.61928,6.38376 -1.62207,6.3603 0.80979,6.83016 1.76277,0.34059 8.34867,0.33195 10.74315,-0.0141 1.06632,-0.15411 1.99725,-0.2217 2.06874,-0.15024 0.0715,0.0715 -0.38073,1.34778 -1.00488,2.83623 l -1.13487,2.70627 -8.73387,-0.0374 c -4.80366,-0.0207 -9.42213,-0.13833 -10.26327,-0.26166 z M 492.3,331.36717 c 0,-0.0731 0.2688,-0.58842 0.5973,-1.14522 0.91689,-1.554 1.63758,-3.87054 3.94083,-12.66726 1.80117,-6.87915 2.10402,-8.38821 2.00274,-9.97968 l -0.11931,-1.875 6.83922,0 c 3.76158,0 6.83922,0.0839 6.83922,0.18636 0,0.10251 -1.24158,4.92876 -2.75904,10.725 -2.21346,8.4546 -2.76222,10.96875 -2.775,12.71364 l -0.0159,2.175 -7.275,0 c -4.00125,0 -7.275,-0.0598 -7.275,-0.13284 z m 18.52767,-0.0642 c -0.12771,-0.22701 0.3333,-5.55309 0.49536,-5.72283 0.0367,-0.0384 0.53028,0.0731 1.09683,0.24789 1.22406,0.37758 14.40753,0.74619 16.00035,0.44736 0.76146,-0.14286 1.21059,-0.43422 1.43769,-0.93267 0.66624,-1.46223 0.18135,-1.5897 -6.45147,-1.69581 -7.02264,-0.11235 -7.80126,-0.32805 -9.0837,-2.51634 -0.95613,-1.63155 -0.99162,-3.34011 -0.13857,-6.67389 1.03335,-4.03845 1.73307,-5.61207 3.00744,-6.76338 1.95111,-1.76271 2.22879,-1.79571 16.1334,-1.91766 l 12.675,-0.11118 0,3.05031 0,3.05028 -0.825,-0.20877 c -2.29722,-0.5814 -4.67709,-0.75294 -10.46676,-0.75453 -5.90631,-0.003 -6.39039,0.0394 -7.05,0.59805 -0.69501,0.58863 -0.69738,0.60822 -0.12591,1.05 0.46824,0.36201 1.64382,0.45054 6,0.45189 5.90025,0.003 7.16013,0.21 8.59914,1.42083 1.95894,1.64835 2.17566,3.43065 0.97314,8.00313 -1.51032,5.74275 -2.5719,7.27734 -5.75772,8.32311 -1.89009,0.62043 -2.64891,0.66222 -14.18691,0.78135 -6.70449,0.0692 -12.25404,0.012 -12.33231,-0.12714 z M 543.9,331.23079 c 0,-0.14805 0.40326,-1.08198 0.89616,-2.0754 0.51744,-1.04292 1.86501,-5.46135 3.18891,-10.45578 1.78716,-6.74214 2.29887,-9.12924 2.3205,-10.8246 l 0.0279,-2.175 6.68334,0 c 5.40528,0 6.68334,0.0773 6.68334,0.40434 0,0.22239 -1.215,5.09547 -2.7,10.8291 -2.13246,8.23347 -2.7,10.86006 -2.7,12.49566 l 0,2.0709 -7.2,0 c -4.05108,0 -7.2,-0.11775 -7.2,-0.26922 z m 25.35,0.006 c -0.825,-0.11718 -1.93176,-0.44313 -2.45949,-0.72438 -1.73667,-0.92553 -3.09051,-3.34263 -3.09051,-5.51772 0,-1.33029 2.85654,-12.69954 3.66009,-14.56743 0.87858,-2.04234 2.84532,-3.69246 4.98855,-4.18548 1.9326,-0.44454 21.56169,-0.5691 23.54427,-0.1494 1.42476,0.30162 3.42039,2.06178 4.14738,3.65805 0.85467,1.87662 0.68007,3.67845 -0.97074,10.01694 -2.19978,8.44635 -2.98737,9.82614 -6.2025,10.8666 -1.88193,0.60903 -2.69022,0.6582 -12.06705,0.73431 -5.5275,0.0448 -10.725,-0.0144 -11.55,-0.13149 z m 15.33963,-5.58984 c 0.45852,-0.62703 0.82413,-1.85133 2.49798,-8.36433 1.12716,-4.38591 1.18893,-4.82331 0.77112,-5.46096 -0.56781,-0.86658 -1.83855,-1.11747 -4.94538,-0.97638 -1.92453,0.0874 -2.52219,0.23064 -3.01395,0.72243 -0.43065,0.43065 -1.09914,2.52744 -2.24385,7.0383 -2.05362,8.09247 -2.17677,7.82781 3.56676,7.66527 2.45409,-0.0695 3.04119,-0.17829 3.36732,-0.62433 z M 599.7,331.31791 c 0,-0.10017 0.40812,-1.03725 0.90693,-2.08242 0.49881,-1.04517 1.94211,-5.78949 3.20733,-10.5429 1.84911,-6.94722 2.30142,-9.06924 2.30574,-10.81758 l 0.005,-2.175 6.54303,0 6.54303,0 -0.19803,0.825 -0.198,0.825 0.81645,-0.75 c 0.81591,-0.74949 0.82083,-0.75 7.01733,-0.75 6.94032,0 7.8036,0.16686 9.69243,1.87329 1.46838,1.3266 2.21934,3.62163 1.9281,5.89272 -0.10821,0.84369 -0.94209,4.42059 -1.85313,7.94868 -1.23498,4.78266 -1.6365,6.84345 -1.57818,8.1 l 0.0782,1.68531 -7.25832,0.0803 c -3.99204,0.0442 -7.25829,0.007 -7.25829,-0.0836 0,-0.0901 0.41589,-0.98778 0.92421,-1.99473 0.8877,-1.75854 4.77048,-15.80127 4.77414,-17.2665 0.003,-0.97227 -0.86493,-1.28556 -3.55911,-1.28556 -2.68551,0 -3.75411,0.29352 -4.21689,1.15827 -0.1728,0.32283 -1.19349,3.94902 -2.26824,8.05824 -1.46583,5.60433 -1.95411,7.97253 -1.95411,9.47736 l 0,2.00613 -7.2,0 c -3.96,0 -7.2,-0.082 -7.2,-0.1821 z m 89.1,-0.0512 c 0,-0.12828 0.2067,-0.52833 0.4593,-0.88899 0.84291,-1.20345 1.85868,-4.36236 3.93189,-12.22776 1.69095,-6.41508 2.05623,-8.2128 2.0574,-10.125 l 0,-2.325 5.775,0 5.775,0 0,1.854 0,1.854 1.10679,-1.29303 c 1.66458,-1.94469 2.52216,-2.19786 7.96821,-2.35251 4.34067,-0.12324 4.725,-0.0917 4.725,0.38775 0,0.28704 -0.43644,2.19555 -0.96987,4.24113 -0.7833,3.00378 -1.05744,3.68157 -1.425,3.52341 -1.91292,-0.82296 -2.88033,-0.98973 -5.8098,-1.00158 -3.62085,-0.0147 -4.97265,0.38997 -5.55219,1.66194 -0.18699,0.4104 -1.09854,3.67764 -2.02569,7.26054 -1.37487,5.31309 -1.65576,6.80478 -1.52325,8.08935 l 0.16245,1.575 -7.32834,0 c -4.03056,0 -7.32831,-0.10497 -7.32831,-0.23325 z m 27.3,0.0512 c 0,-0.10017 0.41058,-1.04241 0.91239,-2.09388 0.50328,-1.05453 1.93524,-5.78199 3.19341,-10.5429 1.78497,-6.75411 2.28609,-9.10413 2.30427,-10.80612 l 0.0231,-2.175 6.68334,0 c 5.6841,0 6.68334,0.066 6.68334,0.44157 0,0.24288 -1.215,5.14461 -2.7,10.89276 -2.08965,8.08857 -2.7,10.90491 -2.7,12.45843 l 0,2.00724 -7.2,0 c -3.96,0 -7.2,-0.082 -7.2,-0.1821 z m 18.06567,-0.0429 c 1.44903,-2.8185 2.34204,-5.51988 4.29045,-12.97887 1.97391,-7.55652 2.28825,-9.09708 2.18547,-10.71105 l -0.12003,-1.88508 6.57672,0 6.57672,0 -0.17472,0.87357 -0.17472,0.8736 0.69957,-0.69957 c 0.95313,-0.95313 2.46867,-1.12833 8.62389,-0.99687 4.86786,0.10395 5.29704,0.16008 6.70098,0.87636 0.91761,0.46818 1.84944,1.26255 2.4,2.046 0.85335,1.21431 0.89916,1.43085 0.88389,4.17879 -0.0141,2.53824 -0.2142,3.62457 -1.61121,8.74812 -1.20483,4.41867 -1.59327,6.34545 -1.58757,7.875 l 0.007,2.025 -7.17135,0 c -4.76403,0 -7.17132,-0.10473 -7.17132,-0.31194 0,-0.17157 0.28326,-0.86721 0.62949,-1.54584 0.97818,-1.91739 1.3707,-3.18666 3.30744,-10.6947 2.18694,-8.47785 2.25972,-8.15007 -1.80843,-8.14311 -2.83422,0.005 -3.88866,0.36294 -4.4301,1.50438 -0.19338,0.40767 -1.19802,3.91371 -2.23251,7.79121 -1.47702,5.53608 -1.88205,7.51707 -1.8861,9.225 l -0.005,2.175 -7.31232,0 c -4.02177,0 -7.26027,-0.10125 -7.19664,-0.225 z m 46.35378,-0.0862 c -2.18148,-0.36696 -4.05528,-1.40469 -4.93398,-2.73249 -1.26486,-1.91133 -1.21737,-3.29688 0.32259,-9.40629 2.50074,-9.92133 2.99667,-10.96902 5.85555,-12.37014 1.6197,-0.79386 1.90335,-0.83088 7.17297,-0.93633 7.11447,-0.14235 8.6235,0.0432 9.6972,1.19262 0.95406,1.02132 0.72984,1.42923 2.08104,-3.78615 0.67542,-2.60706 0.88866,-3.99304 0.77307,-5.025 l -0.15963,-1.425 6.87645,0 c 5.37288,0 6.84705,0.082 6.74202,0.375 -0.0739,0.20625 -1.89903,7.1925 -4.05576,15.525 -3.22155,12.44649 -3.9087,15.47121 -3.85065,16.95 l 0.0707,1.8 -6.5055,0.0808 -6.50547,0.0808 0,-0.90585 c 0,-1.07634 -0.18375,-1.11966 -1.09965,-0.2592 -0.37857,0.35565 -1.3323,0.75261 -2.11935,0.88212 -1.82628,0.30051 -8.49027,0.2748 -10.36155,-0.04 z m 12.76929,-4.98357 c 1.48359,-0.24516 1.61769,-0.53517 3.32079,-7.18125 1.59279,-6.21552 1.67448,-7.09101 0.72372,-7.75695 -0.77076,-0.53985 -4.51407,-0.64956 -5.77725,-0.16929 -1.03443,0.3933 -1.33104,1.17321 -3.04965,8.01942 -1.55094,6.17817 -1.55571,6.60762 -0.078,7.02114 0.95544,0.26733 3.44055,0.30156 4.86036,0.0669 z M 810.6,331.2337 c 0,-0.14649 0.40134,-1.12524 0.89187,-2.175 1.39428,-2.98386 5.45091,-18.84435 5.45652,-21.33369 l 0.005,-2.025 6.72351,0 c 4.15293,0 6.72354,0.11148 6.72354,0.29157 0,0.16038 -1.23678,5.05413 -2.74842,10.875 -2.16312,8.32962 -2.74731,11.01465 -2.74326,12.60843 l 0.005,2.025 -7.15677,0 c -3.96759,0 -7.15659,-0.11868 -7.15659,-0.26631 z m 18,0.15279 c 0,-0.0683 0.46521,-1.11696 1.03377,-2.33034 0.64824,-1.38336 1.89063,-5.50356 3.33126,-11.04768 1.9128,-7.36128 2.27646,-9.13179 2.17206,-10.575 l -0.12537,-1.73346 6.57666,0 6.57666,0 -0.1923,0.76623 -0.1923,0.7662 0.93525,-0.6912 c 0.90543,-0.66915 1.13319,-0.69123 7.13481,-0.69123 6.07863,0 6.23253,0.0156 7.89393,0.7944 1.34601,0.63105 1.86822,1.09101 2.53971,2.2368 1.44792,2.47068 1.35558,3.92454 -0.77919,12.2688 -1.52499,5.96091 -1.81254,7.47105 -1.67085,8.775 l 0.17115,1.575 -7.37763,0 c -4.05768,0 -7.32558,-0.10125 -7.26195,-0.225 1.40535,-2.73354 2.30487,-5.38002 3.81303,-11.21823 1.00173,-3.87768 1.8213,-7.40703 1.8213,-7.84299 0,-1.1073 -0.7638,-1.41447 -3.50529,-1.40967 -2.98944,0.005 -3.6225,0.18603 -4.13745,1.18185 -0.23028,0.44532 -1.31397,4.2231 -2.40819,8.39505 -1.52889,5.82915 -1.97133,7.97706 -1.91097,9.27717 l 0.0785,1.69182 -7.25832,0.0803 c -3.99204,0.0442 -7.25829,0.0246 -7.25829,-0.0439 z m 96.66096,-0.20397 c -5.15853,-0.91419 -6.79038,-4.10175 -5.16828,-10.09548 0.73476,-2.71497 1.93758,-4.86543 3.17487,-5.67612 1.53228,-1.00398 4.1808,-1.29816 11.74689,-1.30467 7.01505,-0.006 7.27575,-0.0273 7.59384,-0.62172 0.49035,-0.9162 0.23751,-1.87122 -0.60828,-2.29758 -1.5138,-0.76314 -16.26357,-0.46443 -18.96129,0.384 -0.39231,0.12336 -0.18825,-0.54096 0.87702,-2.85507 l 1.38825,-3.01587 11.78325,0 c 7.52829,0 12.34608,0.12072 13.3419,0.33426 3.1962,0.68547 5.37693,3.89553 4.94019,7.27203 -0.10983,0.84903 -0.93534,4.38981 -1.8345,7.86837 -1.18641,4.58988 -1.63482,6.87504 -1.63482,8.33121 l 0,2.00655 -6.075,-0.0812 -6.075,-0.0812 -0.32961,-1.01979 c -0.20025,-0.6195 -0.4143,-0.88278 -0.54537,-0.67071 -0.11865,0.192 -0.78033,0.64242 -1.47036,1.00098 -1.10607,0.57471 -1.80537,0.6609 -5.90466,0.72777 -2.5575,0.0417 -5.36505,-0.0509 -6.23904,-0.20574 z m 14.14572,-5.55141 c 0.18882,-0.31962 0.70416,-1.89735 1.14519,-3.5061 l 0.80187,-2.925 -3.71517,0 c -4.44882,0 -4.55655,0.0691 -5.40312,3.46887 -0.84084,3.37659 -0.39561,3.76344 4.17123,3.62427 2.25873,-0.0688 2.7081,-0.168 3,-0.66204 z m 15.79332,5.6868 c 0,-0.10017 0.41142,-1.04418 0.91428,-2.09781 0.50283,-1.05363 1.94769,-5.79792 3.21075,-10.54287 1.85331,-6.96234 2.29686,-9.04695 2.29842,-10.80222 l 0.003,-2.175 6.54303,0 6.54303,0 -0.19803,0.825 -0.198,0.825 0.81645,-0.75 c 0.81591,-0.74949 0.82083,-0.75 7.01733,-0.75 6.92703,0 7.8054,0.16845 9.67215,1.85496 1.51419,1.368 2.22372,3.45621 1.95651,5.75829 -0.1077,0.92772 -0.94323,4.57335 -1.85673,8.10144 -1.24017,4.78959 -1.64112,6.84162 -1.58271,8.1 l 0.0782,1.68531 -7.25832,0.0803 c -3.99204,0.0442 -7.25829,0.007 -7.25829,-0.0836 0,-0.0901 0.41868,-0.9933 0.93042,-2.00703 0.8952,-1.77342 4.76889,-15.78732 4.76937,-17.2542 0,-1.05633 -0.97929,-1.35159 -4.10895,-1.23843 -2.4762,0.0895 -2.91195,0.18618 -3.36522,0.74631 -0.86703,1.07145 -4.31829,14.55153 -4.46289,17.43156 l -0.12429,2.475 -7.16922,0 c -3.94308,0 -7.16922,-0.082 -7.16922,-0.1821 z m 46.3399,-0.14115 c -3.21196,-0.53841 -5.19112,-2.06736 -5.85169,-4.52058 -0.40587,-1.50729 -0.38382,-1.63311 1.69125,-9.64287 2.74464,-10.59444 3.24244,-11.03064 12.83144,-11.24445 6.9318,-0.15456 8.0965,-0.007 9.2744,1.1703 0.4883,0.48828 0.9162,0.84798 0.951,0.79932 0.035,-0.0487 0.5046,-1.78704 1.0441,-3.86304 0.7053,-2.71374 0.9513,-4.2526 0.8753,-5.47542 l -0.1057,-1.70083 6.825,3e-4 c 3.7537,2.2e-4 6.825,0.0586 6.825,0.12967 0,0.0711 -1.7787,6.92235 -3.9527,15.225 -3.2421,12.38166 -3.9567,15.4878 -3.975,17.27637 l -0.022,2.18064 -6.45,-0.0806 -6.45,-0.0806 -0.094,-0.81963 -0.094,-0.81963 -0.8655,0.6399 c -0.4761,0.35196 -1.5136,0.74649 -2.3057,0.87675 -1.8649,0.30672 -8.2069,0.27507 -10.1501,-0.0506 z m 12.7429,-4.9683 c 0.5268,-0.10536 1.1461,-0.47892 1.3762,-0.8301 0.643,-0.98133 3.5005,-12.50058 3.2995,-13.30125 -0.2283,-0.90978 -1.2589,-1.2771 -3.5833,-1.2771 -2.3259,0 -3.596,0.41799 -4.0063,1.31856 -0.621,1.36299 -3.3674,12.73635 -3.1882,13.20321 0.3359,0.87537 3.7084,1.36539 6.1021,0.88668 z m 30.0172,5.0583 c 0,-0.12828 0.2067,-0.52833 0.4593,-0.88899 0.8612,-1.22952 1.8766,-4.42188 4.0324,-12.67776 1.8165,-6.95637 2.1367,-8.544 2.0421,-10.125 l -0.1122,-1.875 6.5732,0 6.5733,0 -0.1327,0.90405 -0.1327,0.90402 0.6506,-0.61119 c 1.0992,-1.03266 2.4387,-1.19694 9.7447,-1.1952 7.8079,0.003 9.0635,0.19167 9.8528,1.48947 l 0.5195,0.85434 0.4887,-0.8514 c 0.7086,-1.23462 2.065,-1.49052 7.9116,-1.49241 7.0972,-0.003 9.15,0.69846 10.6482,3.6351 1.154,2.26203 1.0789,3.14808 -0.9244,10.91322 -1.3886,5.38209 -1.8569,7.71129 -1.8547,9.225 l 0,2.025 -7.1713,0 c -3.9762,0 -7.1713,-0.11865 -7.1713,-0.26631 0,-0.14649 0.4041,-1.12995 0.898,-2.18547 1.1078,-2.36727 4.2237,-13.95465 4.2978,-15.98238 0.048,-1.30719 -0.035,-1.53027 -0.6958,-1.87059 -0.889,-0.45801 -4.7281,-0.52182 -5.845,-0.0972 -1.056,0.40149 -1.297,1.07145 -3.4446,9.57534 -1.3804,5.46636 -1.8297,7.74858 -1.7716,9 l 0.078,1.67658 -7.2583,0.0803 c -3.9921,0.0442 -7.2583,0.006 -7.2583,-0.085 0,-0.0909 0.3188,-0.80205 0.7085,-1.58031 0.9303,-1.85799 1.3787,-3.2976 3.1508,-10.11504 2.0497,-7.88517 1.9907,-7.49994 1.2602,-8.23047 -0.5208,-0.52083 -0.9948,-0.61953 -2.9748,-0.61953 -2.8174,0 -4.0454,0.37398 -4.4994,1.37025 -0.1855,0.40719 -1.2318,4.21422 -2.3252,8.46006 -1.6416,6.37533 -1.9596,7.99398 -1.8256,9.29469 l 0.1621,1.575 -7.3283,0 c -4.0306,0 -7.3283,-0.10497 -7.3283,-0.23325 z m 67.261,-0.0842 c -5.1586,-0.91419 -6.7904,-4.10175 -5.1683,-10.09548 0.7347,-2.71497 1.9376,-4.86543 3.1748,-5.67612 1.5323,-1.00398 4.1808,-1.29816 11.7469,-1.30467 7.0151,-0.006 7.2758,-0.0273 7.5939,-0.62172 0.4903,-0.9162 0.2375,-1.87122 -0.6083,-2.29758 -1.0897,-0.54936 -14.7614,-0.5199 -17.4,0.0375 -1.0725,0.22653 -1.9657,0.39249 -1.9848,0.36873 -0.019,-0.0237 0.5746,-1.35942 1.3195,-2.96817 l 1.3543,-2.925 11.7907,0 c 7.5338,0 12.3535,0.12069 13.3494,0.33426 3.1981,0.68586 5.3796,3.89877 4.9377,7.27203 -0.1113,0.84903 -0.9368,4.38702 -1.8345,7.86216 -1.1864,4.59222 -1.6323,6.86832 -1.6323,8.33121 l 0,2.01276 -6.075,-0.0812 -6.075,-0.0812 -0.3296,-1.01979 c -0.2003,-0.6195 -0.4143,-0.88278 -0.5454,-0.67071 -0.1186,0.192 -0.7803,0.64242 -1.4703,1.00098 -1.1061,0.57471 -1.8054,0.6609 -5.9047,0.72777 -2.5575,0.0417 -5.365,-0.0509 -6.239,-0.20574 z m 14.1457,-5.55141 c 0.1888,-0.31962 0.7041,-1.89735 1.1452,-3.5061 l 0.8018,-2.925 -3.7151,0 c -4.4488,0 -4.5566,0.0691 -5.4031,3.46887 -0.8409,3.37659 -0.3957,3.76344 4.1712,3.62427 2.2587,-0.0688 2.7081,-0.168 3,-0.66204 z m 23.7139,5.5698 c -2.4815,-0.36387 -3.6184,-0.86505 -4.7146,-2.07843 -1.2977,-1.43637 -1.8307,-3.00741 -1.5976,-4.7085 0.3249,-2.36994 3.2589,-13.13433 3.9634,-14.54097 0.8349,-1.66704 2.4137,-3.11106 3.945,-3.60813 0.7846,-0.2547 4.6758,-0.40503 12.6495,-0.48867 l 11.5162,-0.12078 -0.2072,1.89729 c -0.114,1.04352 -0.2811,2.38026 -0.3713,2.97054 l -0.1641,1.07325 -1.5354,-0.39825 c -1.8699,-0.48507 -11.3893,-0.54663 -12.7214,-0.0823 -1.2091,0.4215 -1.5783,1.34484 -3.2706,8.18058 -1.5664,6.32703 -1.5691,6.29883 0.6703,6.81834 1.5279,0.35445 8.4353,0.34989 10.906,-0.007 1.0663,-0.15411 1.9926,-0.22641 2.0583,-0.16065 0.066,0.0658 -0.3872,1.34205 -1.0065,2.83623 l -1.126,2.71668 -8.7323,-0.0374 c -4.8028,-0.0207 -9.4205,-0.13833 -10.2617,-0.26166 z m 22.1451,0.0741 c 1.5941,-3.10068 2.4084,-5.71695 5.5046,-17.68416 2.875,-11.1123 3.4588,-13.73312 3.3777,-15.16312 l -0.098,-1.72882 6.8452,6e-4 c 6.3789,6e-4 6.8345,0.0363 6.6883,0.52555 -0.3841,1.28556 -2.2835,9.07704 -2.2835,9.36744 0,0.18879 0.4051,0.10407 0.975,-0.20394 0.7644,-0.41307 1.8929,-0.55032 5.2236,-0.63528 7.1035,-0.18117 9.6855,0.50928 11.4092,3.05091 1.64,2.41809 1.6077,3.14892 -0.5061,11.46321 -1.3686,5.3826 -1.866,7.87056 -1.8578,9.29178 l 0.011,1.94088 -7.1776,0 c -3.9476,0 -7.1775,-0.11598 -7.1775,-0.25776 0,-0.14175 0.4549,-1.2555 1.011,-2.475 1.2488,-2.73885 4.5489,-15.48936 4.283,-16.54854 -0.2726,-1.0863 -1.5785,-1.50525 -4.2686,-1.36941 -2.0048,0.10122 -2.3719,0.21063 -2.9459,0.87795 -0.9971,1.15914 -4.5275,15.05388 -4.5094,17.74776 l 0.014,2.025 -7.3169,0 c -4.0242,0 -7.2648,-0.10125 -7.2011,-0.225 z m 38.9343,-0.0413 c 0,-0.14649 0.4016,-1.12524 0.8925,-2.175 1.3971,-2.98803 5.4766,-18.84855 5.4871,-21.33369 l 0.01,-2.025 6.7059,0 c 4.4997,0 6.7059,0.10404 6.7059,0.3162 0,0.17391 -1.2363,5.06766 -2.7474,10.875 -2.1614,8.30637 -2.7465,10.99077 -2.7433,12.5838 l 0,2.025 -7.1567,0 c -3.9679,0 -7.1569,-0.11868 -7.1569,-0.26631 z m 18,0.15279 c 0,-0.0683 0.4669,-1.11696 1.0376,-2.33034 0.6567,-1.39629 1.8799,-5.44848 3.3319,-11.03862 1.915,-7.37232 2.2735,-9.12054 2.1683,-10.575 l -0.1261,-1.74252 6.5767,0 6.5766,0 -0.1923,0.76623 -0.1923,0.7662 0.9353,-0.6912 c 0.9054,-0.66915 1.1332,-0.69123 7.1348,-0.69123 l 6.1995,0 1.8,0.9 c 1.5507,0.77538 1.9178,1.12848 2.6506,2.55 0.7712,1.49622 0.8367,1.85973 0.7024,3.9 -0.089,1.34562 -0.7799,4.60137 -1.7202,8.1 -1.177,4.37979 -1.5776,6.3966 -1.5941,8.025 l -0.022,2.175 -7.3084,0 c -4.0195,0 -7.2562,-0.10125 -7.1926,-0.225 1.4275,-2.77656 2.3205,-5.40096 3.8258,-11.24313 0.9947,-3.86037 1.8085,-7.37703 1.8085,-7.81482 0,-0.47988 -0.2304,-0.91926 -0.5803,-1.10649 -0.723,-0.38697 -5.1224,-0.40875 -6.1178,-0.0303 -0.9358,0.35577 -1.2442,1.20294 -3.3923,9.31971 -1.2299,4.6473 -1.7253,7.07886 -1.7726,8.7 l -0.066,2.25 -7.2357,0.0803 c -3.9796,0.0442 -7.2357,0.0246 -7.2357,-0.0439 z m 38.7,-0.11973 c 0,-0.12828 0.2067,-0.52833 0.4593,-0.88899 0.8567,-1.22313 1.8701,-4.40706 4.0349,-12.67776 1.8296,-6.98973 2.1418,-8.53644 2.0434,-10.125 l -0.116,-1.875 6.8392,0 c 3.7616,0 6.8392,0.0748 6.8392,0.1662 0,0.0914 -1.2413,4.91766 -2.7585,10.725 -2.2094,8.45691 -2.7619,10.99176 -2.775,12.7338 l -0.016,2.175 -7.275,0 c -4.0013,0 -7.275,-0.10497 -7.275,-0.23325 z m 18.3,-0.0237 c 0,-0.14715 0.3293,-0.8583 0.7318,-1.58031 0.8311,-1.49097 1.8017,-4.75317 4.2289,-14.2128 1.3672,-5.32821 1.6635,-6.90351 1.5381,-8.175 l -0.1555,-1.575 6.5841,0 6.584,0 -0.198,0.825 -0.198,0.825 0.8163,-0.75 c 0.8157,-0.74949 0.8205,-0.75 7.0173,-0.75 6.9272,0 7.8056,0.16845 9.6723,1.85496 1.5498,1.4001 2.2189,3.43332 1.9427,5.90292 -0.1133,1.01316 -0.8936,4.40712 -1.7341,7.54212 -1.0864,4.05234 -1.547,6.3504 -1.5933,7.95 l -0.065,2.25 -7.2357,0.0803 c -3.9797,0.0442 -7.2357,0.0246 -7.2357,-0.0439 0,-0.0683 0.4669,-1.11696 1.0375,-2.33034 0.9824,-2.0889 4.6625,-15.49833 4.6625,-16.98909 0,-1.03683 -0.9959,-1.33248 -4.1092,-1.21992 -2.4701,0.0893 -2.9126,0.18702 -3.3618,0.74223 -0.2846,0.35163 -1.4311,4.1376 -2.5478,8.41326 -1.6134,6.17718 -2.0134,8.14089 -1.9475,9.56064 l 0.083,1.78674 -7.2583,0.0803 c -4.112,0.0456 -7.2583,-0.0356 -7.2583,-0.18717 z M 500.63496,303.43492 c -0.0973,-0.0973 0.072,-1.07871 0.37623,-2.18091 0.30423,-1.10223 0.70137,-2.57781 0.88254,-3.27906 l 0.3294,-1.275 6.29415,0 6.29415,0 -0.17019,0.675 c -0.0936,0.37125 -0.47586,1.89 -0.84945,3.375 l -0.67926,2.7 -6.15033,0.0809 c -3.38271,0.0445 -6.22995,0 -6.32724,-0.0959 z M 552,303.26647 c 0,-0.18342 0.36345,-1.73592 0.80766,-3.45 l 0.80766,-3.11646 6.24234,0 c 4.28187,0 6.24234,0.10207 6.24234,0.32501 0,0.50539 -1.17996,5.14471 -1.50057,5.89999 -0.28392,0.66876 -0.34347,0.675 -6.44301,0.675 -4.31688,0 -6.15642,-0.0997 -6.15642,-0.33354 z m 172.2,0.004 c 0,-0.18105 0.36936,-1.73355 0.82083,-3.45 l 0.82083,-3.12066 6.22917,0 c 4.27242,0 6.22917,0.10209 6.22917,0.32501 0,0.50539 -1.17996,5.14471 -1.50057,5.89999 -0.28392,0.66876 -0.34347,0.675 -6.44301,0.675 -4.2681,0 -6.15642,-0.10098 -6.15642,-0.32919 z m 94.5,-0.16476 c 0,-0.27837 0.35673,-1.83363 0.79272,-3.4561 l 0.79272,-2.94995 6.28113,0 6.2811,0 -0.18543,0.84431 c -0.102,0.46437 -0.48399,1.98312 -0.84885,3.37501 l -0.66339,2.53068 -6.225,0.0811 c -5.67222,0.0739 -6.225,0.0361 -6.225,-0.42504 z m 399.9,0.0303 c 0,-0.26169 0.3596,-1.81692 0.7992,-3.45609 l 0.7992,-2.98029 6.2746,0 6.2747,0 -0.1855,0.84431 c -0.102,0.46437 -0.4839,1.98312 -0.8488,3.37501 l -0.6634,2.53068 -6.225,0.0811 c -5.5174,0.0719 -6.225,0.027 -6.225,-0.39471 z m 56.9317,0.29535 c -0.099,-0.0991 0.067,-1.08048 0.3684,-2.18091 0.3016,-1.10046 0.7002,-2.57457 0.8857,-3.27582 l 0.3373,-1.275 6.2942,0 6.2941,0 -0.1702,0.675 c -0.094,0.37125 -0.4758,1.89 -0.8494,3.375 l -0.6793,2.7 -6.1503,0.0809 c -3.3827,0.0445 -6.2314,-1.2e-4 -6.3305,-0.0992 z m -54.2164,-26.13844 c 0.022,-2.0878 0.4909,-7.89955 0.6501,-8.05874 0.074,-0.0745 1.204,0.1582 2.51,0.517 2.2491,0.6179 3.0168,0.6536 14.5246,0.67541 11.0222,0.0209 12.2801,-0.0272 13.5514,-0.51775 0.7707,-0.29744 1.5398,-0.70766 1.7091,-0.91161 0.2842,-0.34251 2.1395,-6.75088 2.1395,-7.39023 0,-0.15544 -0.6413,0.0377 -1.425,0.42919 -2.1411,1.0695 -4.4183,1.36343 -10.563,1.36343 -7.2058,0 -10.119,-0.35318 -12.5174,-1.51757 -3.8483,-1.86822 -5.7093,-5.14625 -5.4138,-9.53595 0.2274,-3.37921 4.4032,-18.98727 5.9117,-22.09648 1.5935,-3.28464 3.4055,-5.02355 6.33,-6.07473 2.2212,-0.79835 2.2567,-0.80094 12.4681,-0.90877 11.95,-0.1262 12.3385,-0.0722 13.5812,1.88737 l 0.8382,1.32168 0.3665,-1.63777 0.3665,-1.63778 10.7823,0 10.7822,0 -0.7101,1.125 c -1.3252,2.09958 -2.6039,5.4353 -3.7901,9.88673 -0.6504,2.44105 -2.9989,11.45827 -5.2189,20.03827 -2.22,8.58 -4.32,16.3425 -4.6667,17.25 -0.9921,2.597 -2.513,4.43765 -4.3687,5.2872 -3.6898,1.68926 -3.9384,1.70628 -26.778,1.83272 l -21.075,0.11668 0.015,-1.4433 z m 35.3509,-22.46479 c 0.9494,-0.37988 1.299,-0.75184 1.7991,-1.91433 0.7891,-1.83432 4.8347,-17.59502 4.8347,-18.83486 0,-2.16031 -1.0684,-2.81006 -4.9483,-3.0094 -4.0667,-0.20893 -6.1347,0.56685 -7.2475,2.71875 -0.6438,1.24487 -4.9055,17.69107 -4.8996,18.90785 0.01,1.19366 0.2313,1.54955 1.3522,2.13407 1.2607,0.65736 7.4649,0.65594 9.1094,-0.002 z m 25.8349,19.44649 c 0,-0.12375 2.1596,-2.5875 4.7976,-5.475 l 4.7964,-5.25 -3.626,-0.0845 c -2.6929,-0.0627 -3.5927,-0.17852 -3.4967,-0.45 0.071,-0.20104 0.9253,-3.43679 1.8981,-7.19054 l 1.7688,-6.825 10.3124,0 c 8.1214,0 10.2841,0.0797 10.1787,0.375 -0.074,0.20625 -0.9116,3.41415 -1.862,7.12865 l -1.7282,6.75365 -7.9843,5.62135 -7.9844,5.62135 -3.5357,0 c -1.9447,0 -3.5353,-0.10125 -3.5347,-0.225 z M 260.1,263.31365 c 0,-0.0475 0.8456,-0.95875 1.87912,-2.025 1.03351,-1.06626 2.36999,-2.54615 2.96995,-3.28865 1.4258,-1.76454 31.15093,-45.81355 31.15093,-46.16187 0,-0.3622 -1.7812,-1.69581 -3.11357,-2.33117 -0.59754,-0.28495 -1.08643,-0.62808 -1.08643,-0.76252 0,-0.32872 28.72113,-0.31477 28.92435,0.014 0.0879,0.14217 2.26227,10.36842 4.83201,22.725 6.16488,29.64393 5.73708,27.92838 7.57698,30.38431 l 0.76248,1.0178 0.74808,-1.4678 c 1.82358,-3.57812 2.79828,-6.83884 7.7922,-26.06779 5.28672,-20.35639 5.29803,-20.4069 5.29056,-23.62501 l -0.007,-3.225 10.59039,0 c 9.24597,0 10.59042,0.0575 10.59042,0.45311 0,0.24921 -2.77281,11.21796 -6.16182,24.375 -5.3319,20.69998 -6.1668,24.24514 -6.19905,26.3219 -0.0204,1.32 0.0614,2.70375 0.18204,3.075 l 0.21927,0.675 -24.35232,0 c -23.07414,0 -24.3411,-0.0276 -24.13848,-0.525 1.29579,-3.18149 1.31484,-4.70245 0.13518,-10.8 l -0.65292,-3.375 -12.79095,0.007 -12.79095,0.007 -3.37046,5.01762 c -3.69762,5.50473 -4.27951,6.65477 -4.27951,8.45799 l 0,1.20963 -7.35,0 c -4.0425,0 -7.35,-0.0389 -7.35,-0.0863 z M 306,239.61193 c 0,-0.49841 -3.86304,-19.77498 -3.98796,-19.89989 -0.0517,-0.0517 -3.16163,4.49198 -6.91099,10.09701 L 288.28401,240 l 8.858,0 C 304.18758,240 306,239.9206 306,239.61193 Z m 55.5,23.64589 c 0,-0.0782 0.54924,-1.23146 1.22055,-2.56279 1.80036,-3.57045 1.96458,-4.1268 7.56984,-25.64503 l 5.15769,-19.8 -0.003,-3.375 -0.003,-3.375 10.56036,0 c 5.80821,0 10.6164,0.10125 10.68489,0.225 0.0685,0.12375 -2.63844,10.8225 -6.01539,23.775 l -6.13992,23.55 -0.0419,3.6748 -0.0419,3.6748 -11.475,2e-4 c -6.31125,1.1e-4 -11.475,-0.0638 -11.475,-0.14198 z m 48.6,-0.0124 c 0,-0.085 0.39858,-0.86125 0.88572,-1.725 1.60308,-2.84236 2.41914,-5.56259 7.761,-25.87045 l 5.2872,-20.1 0.008,-3.548 0.008,-3.54798 22.5,0.13217 c 23.72514,0.13938 25.00881,0.21196 27.88479,1.5767 1.44681,0.68655 3.36831,2.86062 4.31709,4.88456 0.71238,1.51966 0.79563,2.04091 0.77493,4.85255 -0.0222,3.03065 -0.16665,3.70127 -3.80919,17.7 -4.17042,16.02736 -4.60311,17.45153 -5.93127,19.52126 -2.13369,3.32507 -5.33712,5.41431 -9.14565,5.96471 -2.12241,0.30672 -50.5407,0.45951 -50.5407,0.15948 z m 38.95128,-9.84407 c 0.63588,-0.34545 1.2069,-1.00874 1.56462,-1.81745 0.73209,-1.65505 7.77993,-28.67376 7.99083,-30.63393 0.13089,-1.21622 0.0466,-1.64189 -0.44577,-2.25 l -0.6072,-0.75 -6.51489,0 -6.51489,0 -4.60359,17.7 c -2.53197,9.735 -4.60737,17.88035 -4.61199,18.10078 -0.007,0.32523 1.19337,0.38134 6.3666,0.29769 5.45967,-0.0883 6.51876,-0.1812 7.37628,-0.64709 z m 27.00579,8.42362 c 1.69395,-2.96084 2.7024,-6.08318 6.08019,-18.825 3.37053,-12.71452 3.37998,-12.75982 3.39633,-16.275 l 0.0165,-3.525 10.74522,0 c 10.0929,0 10.73574,0.0319 10.58934,0.525 -1.14402,3.85346 -8.40021,32.6155 -8.65026,34.2879 -0.23865,1.59602 -0.24735,2.72325 -0.0294,3.825 l 0.30885,1.5621 -11.67885,0 -11.67885,0 0.90111,-1.575 z m 39.13809,1.13503 c -5.45847,-1.2187 -8.42931,-4.28952 -8.71668,-9.01003 -0.10173,-1.67103 0.0628,-2.83539 0.80547,-5.7 1.75125,-6.75508 3.67512,-9.66449 7.24947,-10.96321 1.86003,-0.67584 2.29467,-0.70141 14.73129,-0.86659 14.18091,-0.18835 13.56999,-0.0941 14.01393,-2.16202 0.11904,-0.5545 0.0901,-1.29705 -0.0642,-1.6501 -0.59244,-1.35526 -1.26141,-1.44124 -12.06444,-1.55049 -10.52148,-0.1064 -15.86859,0.18748 -18.16728,0.9985 -0.70197,0.24767 -1.33866,0.38797 -1.41486,0.31177 -0.0762,-0.0762 0.79698,-2.13639 1.94037,-4.5782 l 2.07894,-4.43966 20.0814,0 20.08143,0 1.5681,0.70898 c 3.17238,1.43429 5.52531,5.09115 5.72076,8.89102 0.12546,2.43903 -0.10398,3.54028 -3.37512,16.2 -2.25207,8.7157 -2.32044,9.08292 -2.16411,11.625 l 0.1614,2.625 -9.69552,0 -9.69552,0 -0.1809,-0.675 c -0.0995,-0.37125 -0.18273,-1.03828 -0.18498,-1.4823 -0.006,-1.16652 -0.39807,-1.2406 -1.34346,-0.25381 -0.45717,0.47716 -1.52406,1.18071 -2.37093,1.56345 -1.46961,0.6642 -1.89489,0.69875 -9.33972,0.75885 -5.73627,0.0463 -8.29077,-0.0466 -9.65484,-0.35116 z m 22.52382,-8.40491 c 0.47682,-0.5145 1.03467,-2.06862 1.80375,-5.025 0.61239,-2.35407 1.18191,-4.51637 1.26558,-4.80512 0.14073,-0.48569 -0.23688,-0.52488 -5.04309,-0.52333 -6.192,0.002 -7.1928,0.21043 -7.8708,1.63927 -0.80415,1.69461 -2.06976,6.93831 -1.86834,7.74087 0.34143,1.36035 1.66254,1.70378 6.58323,1.71136 4.34586,0.007 4.45386,-0.009 5.12967,-0.73805 z m 24.78102,8.6733 c 0,-0.0944 0.32982,-0.73562 0.7329,-1.425 1.65255,-2.82619 2.73312,-6.20098 6.04077,-18.86614 3.51522,-13.45991 4.07991,-16.47419 3.48678,-18.61229 l -0.31209,-1.125 10.50834,0 10.50834,0 -0.19677,0.825 c -0.10821,0.45375 -0.27507,1.095 -0.3708,1.425 -0.12399,0.42751 0.13995,0.2797 0.91812,-0.51412 0.60069,-0.61276 1.59666,-1.26233 2.21328,-1.44348 0.75993,-0.22325 5.22873,-0.29925 13.87113,-0.23588 14.06325,0.10311 13.45893,0.0185 14.7507,2.06576 l 0.6993,1.10829 1.03179,-1.20432 c 1.70745,-1.99294 1.90638,-2.02625 12.10413,-2.02625 10.09983,0 11.16291,0.14606 13.80246,1.89626 2.54928,1.69033 4.41162,5.35523 4.41162,8.68155 0,0.87177 -1.17087,6.0633 -2.88021,12.77055 -2.82648,11.09097 -2.8776,11.35337 -2.74179,14.07664 l 0.13839,2.775 -11.50818,0 c -6.32952,0 -11.50821,-0.0695 -11.50821,-0.15454 0,-0.085 0.39573,-0.86125 0.87939,-1.725 0.48366,-0.86375 1.27701,-2.58296 1.76301,-3.82046 1.07706,-2.7426 6.07239,-22.07404 6.13962,-23.75975 0.0939,-2.35547 -2.10162,-3.18912 -7.54575,-2.86515 -2.95626,0.17593 -3.93597,0.53555 -4.62177,1.69651 -0.26658,0.45127 -1.85946,6.14351 -3.53976,12.64944 -3.11418,12.05765 -3.5676,14.74534 -2.89401,17.15395 l 0.2307,0.825 -11.5557,0 c -6.35565,0 -11.55573,-0.11102 -11.55573,-0.24672 0,-0.1357 0.40173,-0.98845 0.89274,-1.89499 1.48305,-2.73818 2.24406,-5.10724 4.95492,-15.42497 2.95575,-11.24978 3.23901,-12.94666 2.31522,-13.87045 -0.79245,-0.79245 -3.22809,-1.10163 -6.81975,-0.8657 -3.4704,0.22796 -4.17909,0.50522 -4.89915,1.91663 -0.31932,0.62589 -1.90941,6.20008 -3.53358,12.38709 -2.89122,11.01364 -2.95311,11.31976 -2.95671,14.62419 l -0.004,3.37508 -11.475,-8e-5 c -6.31125,-4e-5 -11.475,-0.0773 -11.475,-0.17165 z m 105.7587,-0.3243 c -4.2588,-0.91492 -6.64116,-2.6768 -8.20515,-6.06812 -1.31406,-2.84942 -1.14006,-4.40385 1.71675,-15.33601 1.35822,-5.1975 2.78862,-10.15444 3.17862,-11.01542 0.7935,-1.75168 3.03216,-4.30536 4.70247,-5.36414 0.60576,-0.38398 1.91775,-0.97317 2.91552,-1.30929 1.73214,-0.58351 2.51382,-0.61115 17.28627,-0.61115 16.66545,0 18.45009,0.13487 21.44682,1.62071 1.60935,0.79795 3.38166,3.00576 4.1175,5.12929 0.87573,2.52713 0.6705,5.02137 -0.94413,11.475 l -1.44483,5.775 -16.443,0 -16.44297,0 -0.51762,1.725 c -0.28467,0.94875 -0.57807,2.46783 -0.65196,3.37574 -0.11553,1.41941 -0.0416,1.73471 0.52767,2.25 0.64068,0.57997 1.08834,0.59926 13.90566,0.59926 7.28403,0 14.08182,-0.10731 15.1062,-0.23848 l 1.86249,-0.23848 -1.74855,4.28848 -1.74858,4.28848 -18.26394,0.0517 c -15.23379,0.0431 -18.61092,-0.0228 -20.35524,-0.39758 z m 27.69006,-26.89871 c 0.88605,-3.57544 0.72621,-4.19928 -1.21041,-4.72452 -1.58232,-0.42914 -8.80707,-0.2378 -9.72726,0.25762 -0.72102,0.38817 -1.3479,1.78798 -2.05806,4.59546 -0.26655,1.05381 -0.55497,2.15494 -0.64092,2.44694 -0.14664,0.49812 0.24708,0.52591 6.37533,0.45 l 6.5316,-0.0809 0.72972,-2.94458 z M 731.4,263.06527 c -4.43193,-0.51292 -6.54999,-1.68025 -8.54538,-4.70962 -1.01613,-1.5427 -1.70943,-4.39201 -1.47348,-6.05565 0.1053,-0.7425 1.32264,-5.75309 2.70516,-11.13465 1.38255,-5.38156 2.5137,-9.87031 2.5137,-9.975 0,-0.10469 -1.8225,-0.19035 -4.05,-0.19035 -2.2275,0 -4.04349,-0.10125 -4.03551,-0.225 0.008,-0.12375 0.44742,-1.845 0.97659,-3.825 l 0.96207,-3.6 4.18248,-0.15 4.18245,-0.15 0.93081,-3.75 c 0.91692,-3.69417 0.94395,-3.75121 1.81596,-3.83143 1.97157,-0.18138 19.18995,-1.20876 19.25238,-1.14874 0.037,0.0356 -0.45003,2.04814 -1.08225,4.47241 l -1.14951,4.40776 7.91298,0 7.91298,0 -0.20433,0.825 c -0.11235,0.45375 -0.56586,2.175 -1.00776,3.825 l -0.80346,3 -7.92858,0.0798 -7.92858,0.0798 -2.63262,10.27023 c -1.44795,5.64863 -2.62665,10.64762 -2.61936,11.10887 0.0177,1.11767 1.14162,2.18809 2.75376,2.6226 1.89381,0.51043 11.04033,0.22243 12.99549,-0.40918 0.81732,-0.26403 1.52415,-0.44193 1.57074,-0.39533 0.0466,0.0466 -0.43149,2.10039 -1.06239,4.564 l -1.14708,4.47927 -11.37363,0.0378 c -6.25551,0.0208 -12.38613,-0.0794 -13.62363,-0.22257 z m 40.05,0.12547 c -4.49478,-0.59615 -7.63167,-2.56276 -9.37227,-5.87576 -0.72285,-1.37587 -0.82098,-1.89123 -0.8121,-4.26498 0.009,-2.40606 0.28107,-3.72875 2.49939,-12.15 1.45647,-5.52904 2.82036,-10.07237 3.28716,-10.95 1.61913,-3.04413 4.6506,-5.44807 7.99782,-6.34219 2.26257,-0.60439 30.99027,-0.58133 34.17195,0.0274 3.06447,0.58633 4.60488,1.32091 5.98686,2.85498 1.74561,1.93774 2.38449,3.62862 2.49747,6.60979 0.0849,2.24033 -0.078,3.24222 -1.34157,8.25 l -1.4382,5.7 -16.50801,0.0775 -16.50801,0.0775 -0.69411,2.84154 c -0.84837,3.47314 -0.621,4.45717 1.14312,4.94718 1.5066,0.41848 24.66381,0.40117 27.38133,-0.0205 1.15815,-0.17969 2.16885,-0.26359 2.24601,-0.18644 0.0772,0.0772 -0.63624,2.04668 -1.58532,4.37672 l -1.7256,4.23644 -18.16296,-0.045 c -9.98964,-0.0247 -18.56796,-0.0987 -19.06296,-0.16432 z m 26.21316,-26.62988 c 0.8025,-3.1996 0.80355,-4.11695 0.006,-4.83936 -0.56031,-0.50725 -1.12524,-0.5715 -5.025,-0.5715 -4.97229,0 -5.83863,0.15809 -6.51387,1.18863 -0.4524,0.69045 -1.92987,5.57811 -1.92987,6.38427 0,0.29105 1.46352,0.3771 6.41316,0.3771 l 6.41316,0 0.63684,-2.53914 z m 18.40107,26.61414 c 3.03372,-5.9756 3.16761,-6.37073 6.735,-19.875 3.48492,-13.19205 3.52677,-13.38993 3.53871,-16.72507 l 0.012,-3.37508 9.18339,8e-5 9.18342,7e-5 -0.0937,0.675 c -0.0515,0.37125 -0.15735,1.72073 -0.23517,2.99884 l -0.14148,2.32383 1.34847,-1.79384 c 2.83002,-3.76468 4.27182,-4.20383 13.8021,-4.20383 6.56619,0 7.03314,0.0356 6.89094,0.525 -0.0839,0.28875 -0.84861,3.225 -1.69935,6.525 -0.85074,3.3 -1.58064,6.03573 -1.62204,6.07938 -0.0414,0.0437 -0.66954,-0.25136 -1.39587,-0.65561 -1.90149,-1.05826 -4.7139,-1.44578 -9.63198,-1.32719 -4.67502,0.11274 -6.07914,0.51364 -7.19196,2.05342 -0.29814,0.4125 -1.70859,5.1375 -3.13437,10.5 -2.48508,9.34665 -2.59377,9.88963 -2.62731,13.125 l -0.035,3.375 -11.49999,0 c -6.32502,0 -11.4486,-0.10125 -11.38578,-0.225 z m 76.67883,-0.0797 c -3.54804,-0.42831 -5.2572,-1.08397 -6.70269,-2.57129 -0.71817,-0.73893 -1.6848,-2.11538 -2.14806,-3.05878 -0.74973,-1.52674 -0.8403,-2.02854 -0.82413,-4.56528 0.0171,-2.66076 0.28248,-3.86391 3.99867,-18.11994 2.18925,-8.39846 4.3071,-16.00851 4.70631,-16.9112 1.1295,-2.554 3.21252,-5.25023 4.98039,-6.44657 2.21547,-1.49925 5.12526,-2.3151 9.39645,-2.63461 4.42176,-0.33077 42.95832,-0.37874 43.15917,-0.0537 0.0795,0.12868 -0.0842,2.52493 -0.3639,5.325 -0.41646,4.16979 -0.58872,5.07235 -0.95187,4.98776 -0.24387,-0.0568 -1.3209,-0.31013 -2.3934,-0.56294 -2.47992,-0.58458 -26.33193,-0.92812 -29.55885,-0.42574 -2.17869,0.33919 -3.38724,1.15164 -4.01967,2.70221 -0.34386,0.84311 -7.37118,27.88351 -7.695,29.60957 -0.2841,1.5145 0.0702,2.476 1.15656,3.13837 0.855,0.52131 1.50537,0.58774 5.61696,0.57376 5.25021,-0.0179 6.46599,-0.29188 7.24059,-1.63195 0.28611,-0.495 1.18515,-3.3975 1.99788,-6.45 l 1.47765,-5.55 -3.82698,-0.0835 c -2.3811,-0.0519 -4.57548,0.0704 -5.80806,0.32391 -1.0896,0.22407 -1.98108,0.36012 -1.98108,0.30233 0,-0.0578 0.55677,-2.3298 1.23726,-5.04891 L 912.67452,231 l 17.06274,0 c 9.38451,0 17.06274,0.0705 17.06274,0.15666 0,0.0862 -0.53985,1.23036 -1.19964,2.54265 -1.64574,3.27322 -2.3211,5.41702 -4.82001,15.30069 -2.16912,8.57924 -2.59266,11.45447 -1.99962,13.575 l 0.2307,0.825 -8.7057,0 -8.70573,0 0,-2.16291 0,-2.16292 -0.975,1.41625 c -0.61545,0.89399 -1.47282,1.66394 -2.325,2.08792 -1.3194,0.65644 -1.60158,0.67266 -12.45,0.71547 -6.105,0.0241 -12.00312,-0.0652 -13.10694,-0.19846 z m 50.45694,0.0579 c 0,-0.1357 0.39432,-0.97945 0.8763,-1.875 1.64229,-3.05163 2.42052,-5.52703 5.73417,-18.23896 3.47673,-13.33758 4.04148,-16.20757 3.58059,-18.19555 -0.15219,-0.65657 -0.27996,-1.29502 -0.28389,-1.41877 -0.004,-0.12375 4.17861,-0.225 9.29457,-0.225 l 9.30177,0 -0.17685,2.625 c -0.0973,1.44375 -0.23343,2.8275 -0.30252,3.075 -0.0691,0.2475 0.17535,0.045 0.54327,-0.45 0.36789,-0.495 1.32444,-1.59987 2.12562,-2.45527 2.28885,-2.44374 2.91294,-2.58742 11.83197,-2.72412 4.7886,-0.0734 7.575,-0.009 7.575,0.17577 0,0.23976 -1.05345,4.35798 -3.02118,11.81076 l -0.29232,1.10713 -1.4307,-0.74227 c -1.99605,-1.03559 -4.86408,-1.40611 -9.78531,-1.26417 -3.62649,0.1046 -4.39932,0.21519 -5.49111,0.78581 -0.69882,0.36524 -1.45836,0.9661 -1.68786,1.33522 -0.2295,0.36913 -1.59435,5.18889 -3.03303,10.71058 -2.65506,10.19041 -3.1212,13.08479 -2.47776,15.38556 l 0.2307,0.825 -11.5557,0 C 948.40008,263.4 943.2,263.28898 943.2,263.15328 Z m 42.6,0.10902 c 0,-0.0757 0.58986,-1.32448 1.31079,-2.775 1.71636,-3.45323 1.99566,-4.36666 5.76027,-18.8373 3.26415,-12.54705 3.72429,-15.20752 3.04821,-17.625 l -0.2307,-0.825 10.80573,0 c 6.2966,0 10.8057,0.114 10.8057,0.27318 0,0.15026 -1.9196,7.60901 -4.2659,16.575 l -4.2658,16.30182 -0.01,3.525 -0.01,3.525 -11.47503,0 c -6.31125,0 -11.475,-0.062 -11.475,-0.1377 z m 28.5,-0.002 c 0,-0.0768 0.4661,-0.98806 1.0357,-2.025 1.6741,-3.04732 2.3191,-5.1046 5.858,-18.68532 3.4103,-13.08714 3.9626,-16.07705 3.3668,-18.225 l -0.3121,-1.125 10.5079,0 c 9.4895,0 10.4901,0.0463 10.3245,0.47787 -0.1008,0.26283 -0.2693,0.83658 -0.3743,1.275 -0.185,0.77233 -0.1558,0.76253 0.9385,-0.31507 0.7991,-0.78697 1.4914,-1.16559 2.3672,-1.29481 0.6808,-0.10043 5.2878,-0.13887 10.2378,-0.0854 8.5457,0.0923 9.0855,0.13166 10.6941,0.77981 3.7539,1.51256 5.9422,4.62387 6.1921,8.80421 0.1826,3.05396 -0.1695,4.88933 -2.8698,14.9584 -2.2311,8.31954 -2.2933,8.64501 -2.3047,12.075 l -0.012,3.525 -11.475,0 c -6.3112,0 -11.475,-0.0541 -11.475,-0.12024 0,-0.0661 0.5369,-1.17003 1.1931,-2.45313 1.5932,-3.11542 2.2495,-5.20785 5.1142,-16.30647 2.8962,-11.22037 3.0139,-11.9387 2.0934,-12.77016 -0.6028,-0.54451 -1.0856,-0.6 -5.2208,-0.6 -5.1729,0 -5.7096,0.17528 -6.5596,2.14244 -0.2751,0.63666 -1.8192,6.15256 -3.4313,12.25756 -2.872,10.87599 -2.9313,11.16811 -2.9351,14.47507 l -0,3.37508 -11.475,-8e-5 c -6.3112,-4e-5 -11.475,-0.0629 -11.475,-0.13975 z m 72.1716,-0.31693 c -5.74,-1.17447 -8.8401,-4.78943 -8.4844,-9.89339 0.2345,-3.36509 5.0327,-21.27928 6.3928,-23.86744 1.3595,-2.58726 3.1417,-4.21373 5.6128,-5.12249 1.7711,-0.65136 2.3298,-0.68797 12.0552,-0.79009 11.4101,-0.1198 12.2023,-0.0252 13.6562,1.63062 0.4927,0.56115 0.8958,1.17758 0.8958,1.36984 0,1.12278 0.6949,-0.85408 1.9757,-5.62044 1.3201,-4.91291 1.4521,-5.70444 1.4627,-8.77501 l 0.012,-3.37501 10.5573,10e-6 c 5.8065,0 10.6188,0.10126 10.6941,0.22501 0.075,0.12375 -2.6857,11.0925 -6.1355,24.375 -6.4205,24.72073 -6.8369,26.70066 -6.1671,29.325 l 0.2488,0.975 -10.3738,0 -10.3738,0 0,-1.53491 0,-1.53491 -1.2157,1.0983 c -0.6686,0.60406 -1.5799,1.25437 -2.025,1.44512 -1.2817,0.54927 -16.1741,0.60459 -18.7878,0.0698 z m 22.012,-8.02349 c 0.4035,-0.20418 0.9673,-0.77594 1.2529,-1.27057 0.8004,-1.38606 5.1084,-18.65126 5.003,-20.05079 -0.067,-0.89561 -0.2983,-1.34383 -0.9365,-1.81855 -0.76,-0.56526 -1.2532,-0.62999 -4.8,-0.62999 -4.6149,0 -5.5492,0.32192 -6.2791,2.16347 -0.8763,2.21126 -5.0582,19.03158 -4.9667,19.97706 0.1543,1.59487 1.414,2.00933 6.0928,2.00458 2.4962,-0.002 4.164,-0.13758 4.6336,-0.37521 z m 26.3735,6.9051 c 1.7297,-3.02343 2.7302,-6.17598 6.2077,-19.56114 3.4645,-13.33502 3.5004,-13.50824 3.3796,-16.27118 l -0.1221,-2.79256 10.7591,0 c 10.1063,0 10.7495,0.0319 10.6025,0.525 -0.086,0.28875 -2.0746,7.8825 -4.4189,16.875 -4.1777,16.02486 -4.2627,16.41414 -4.2771,19.575 l -0.015,3.225 -11.5086,0 -11.5086,0 0.9011,-1.575 z m 27.9429,1.34031 c 0,-0.12915 0.4623,-1.1079 1.0274,-2.175 1.707,-3.22353 2.1156,-4.53861 5.7342,-18.45274 3.5317,-13.57997 4.0059,-16.19442 3.3577,-18.51245 l -0.2307,-0.825 10.3557,0 c 8.1136,0 10.3557,0.0816 10.3557,0.37698 0,0.20734 -0.1336,0.84859 -0.2968,1.425 l -0.2969,1.04802 0.7969,-1.01124 c 1.3965,-1.77195 1.8288,-1.83954 11.7122,-1.83142 4.914,0.004 9.5139,0.14097 10.222,0.3043 5.9236,1.36637 8.9072,6.2434 7.8861,12.89035 -0.1899,1.23641 -1.4162,6.36551 -2.7249,11.39801 -2.4927,9.58447 -2.9438,12.21494 -2.4567,14.325 l 0.2943,1.275 -11.6384,0 -11.6384,0 1.4577,-2.925 c 1.6103,-3.2311 2.4388,-5.97367 5.6973,-18.85878 2.1328,-8.43382 2.1913,-8.76017 1.705,-9.50242 -0.6363,-0.97114 -2.6059,-1.2619 -7.0214,-1.03654 -3.375,0.17225 -4.2757,0.52318 -5.0064,1.95057 -0.5965,1.16545 -6.1527,22.58271 -6.5075,25.08445 -0.2655,1.87165 -0.2043,3.24411 0.2123,4.76272 0.1354,0.49342 -0.5521,0.525 -11.4262,0.525 -6.3636,0 -11.5702,-0.10566 -11.5702,-0.23481 z m 172.4965,-2.09019 c 0.6527,-1.27875 1.4688,-3.135 1.8135,-4.125 1.0609,-3.047 10.7888,-40.659 11.1374,-43.06173 0.2243,-1.5457 0.2335,-2.7056 0.029,-3.66376 -0.1645,-0.77112 -0.2265,-1.47459 -0.1378,-1.56327 0.2163,-0.21632 23.9147,-0.20782 24.1311,0.009 0.093,0.0934 -0.4069,1.34219 -1.1118,2.775 -1.7457,3.54791 -1.851,3.90589 -7.56,25.70511 l -5.0282,19.2 -0.01,3.525 -0.01,3.525 -12.2202,0 -12.2201,0 1.1868,-2.325 z m 30.4651,-1.05676 c 1.441,-2.99667 2.0274,-4.90118 5.1495,-16.725 3.4874,-13.20678 3.5235,-13.37775 3.5312,-16.71824 l 0.01,-3.375 10.3075,0 10.3075,0 -0.1812,0.72213 c -0.1,0.39717 -0.2696,0.97092 -0.3776,1.275 -0.1337,0.37632 0.1294,0.2474 0.8237,-0.40373 0.561,-0.52613 1.4001,-1.09988 1.8646,-1.275 0.5264,-0.19847 4.2065,-0.3184 9.7705,-0.3184 9.3811,0 10.549,0.13301 13.2508,1.50903 2.4013,1.22294 4.2445,3.98437 4.7485,7.11394 0.4469,2.77467 -0.056,5.65607 -2.7332,15.67703 -2.3537,8.80825 -2.4457,9.27606 -2.4631,12.525 l -0.018,3.375 -11.5,0 c -6.325,0 -11.454,-0.10125 -11.3978,-0.225 0.056,-0.12375 0.558,-1.10073 1.1152,-2.17107 0.5571,-1.07034 1.329,-2.78541 1.7151,-3.81127 0.719,-1.91032 6.0184,-22.13998 6.1542,-23.49266 0.2311,-2.30355 -1.0994,-2.84179 -6.4867,-2.62411 -3.914,0.15816 -4.9034,0.453 -5.6193,1.67468 -0.2577,0.43969 -1.8608,6.06443 -3.5624,12.49943 -2.9917,11.31389 -3.0942,11.80643 -3.1053,14.925 l -0.011,3.225 -11.458,0 -11.4581,0 1.6262,-3.38176 z m 71.0312,2.93773 c -3.4036,-0.61969 -4.7465,-1.26183 -6.3826,-3.05192 -2.0048,-2.19353 -2.8281,-4.40926 -2.6027,-7.00405 0.093,-1.0725 1.3209,-6.38292 2.7283,-11.80094 2.8084,-10.8119 3.6839,-13.019 6.0176,-15.17015 0.8477,-0.78143 1.9885,-1.42257 3.3418,-1.87821 2.0418,-0.68738 2.1697,-0.69237 20.1298,-0.78437 l 18.075,-0.0926 0,0.69709 c 0,0.94032 -0.8953,8.12453 -1.0292,8.2584 -0.058,0.0585 -0.8971,-0.13796 -1.8635,-0.43647 -1.5327,-0.4734 -2.9265,-0.54276 -10.9073,-0.54276 -10.2957,0 -10.4727,0.0321 -11.5831,2.10169 -0.3536,0.65907 -1.6836,5.30446 -2.9554,10.32308 -2.5373,10.01221 -2.5386,10.0317 -0.6995,11.0358 0.8909,0.4864 1.9024,0.53943 10.288,0.53943 6.4851,0 9.6581,-0.11104 10.4831,-0.36687 0.6507,-0.20177 1.2454,-0.30467 1.3214,-0.22865 0.076,0.076 -0.6616,2.06361 -1.6391,4.41687 l -1.7773,4.27865 -14.394,0.0494 c -10.7481,0.0369 -14.9405,-0.0501 -16.5513,-0.3434 z M 488.2944,218.77906 c 0.1143,-0.45598 0.76017,-2.92156 1.43523,-5.47906 l 1.22739,-4.65 9.82149,-0.0791 9.82149,-0.0791 -0.0258,0.67911 c -0.0141,0.3735 -0.58791,2.83909 -1.275,5.47909 l -1.24926,4.8 -9.98172,0.0791 -9.98175,0.0791 0.20787,-0.82905 z m 510.40839,0.44594 c 0.003,-0.3214 1.23363,-5.21812 2.37611,-9.45 l 0.3442,-1.275 9.7207,0 c 5.3465,0 9.7864,0.1062 9.8666,0.23599 0.08,0.1298 -0.4742,2.6273 -1.232,5.55 l -1.3778,5.31401 -9.8503,0 c -7.6817,0 -9.84967,-0.0825 -9.84751,-0.375 z m 148.39161,-0.44594 c 0.1143,-0.45598 0.7602,-2.92156 1.4352,-5.47906 l 1.2274,-4.65 9.8215,-0.0791 9.8215,-0.0791 -0.026,0.67911 c -0.014,0.3735 -0.5879,2.83909 -1.275,5.47909 l -1.2493,4.8 -9.9817,0.0791 -9.9817,0.0791 0.2078,-0.82905 z m -492.54612,-35.18462 -0.90558,-0.90557 0.10365,-4.15766 0.10365,-4.15767 4.26933,-8.66177 c 7.61592,-15.45151 11.81304,-27.46729 15.07203,-43.14908 1.69653,-8.1635 1.76904,-8.41054 2.71704,-9.25758 0.81273,-0.72618 1.15074,-0.84156 2.04165,-0.69699 1.54548,0.2508 2.20677,1.10962 3.95937,5.14188 4.21047,9.6873 6.90411,20.4049 7.8156,31.09722 0.55875,6.55427 0.1911,19.43923 -0.74178,25.9966 -0.43557,3.06161 -0.93222,5.48889 -1.20984,5.91259 -0.25905,0.39533 -0.97776,0.86092 -1.5972,1.03464 -1.05267,0.29524 -27.53784,2.709 -29.72427,2.70897 -0.71034,-1e-5 -1.25916,-0.2611 -1.90365,-0.90558 z M 288.9,84.486733 c 0,-0.0623 0.23625,-0.298545 0.525,-0.525 0.47582,-0.373161 0.48643,-0.36255 0.11327,0.113268 -0.39191,0.499725 -0.63827,0.658644 -0.63827,0.411732 z"
       id="path4144"
       inkscape:connector-curvature="0" />
    <path
       style="fill:#0a1766"
       d="m 277.65,486.2869 c -63.26142,-2.12229 -108.64106,-24.53724 -127.67865,-63.06597 -1.13924,-2.30562 -2.07135,-4.5735 -2.07135,-5.03976 0,-1.16385 1.1227,-2.36529 2.40009,-2.56839 1.50444,-0.23922 2.32803,0.53355 4.61632,4.33149 9.61276,15.95445 24.08051,28.24254 43.83359,37.22973 33.94358,15.44358 80.40216,19.52028 131.80818,11.56614 14.19096,-2.19582 26.79033,-4.92354 45.14709,-9.77427 0.63543,-0.16791 1.09734,-0.36324 1.02651,-0.43407 -0.0708,-0.0708 -1.8057,-0.38997 -3.85527,-0.7092 -8.64153,-1.34592 -21.94284,-4.81665 -23.28237,-6.07509 -0.95772,-0.8997 -0.9678,-2.88933 -0.0192,-3.76839 0.83322,-0.77208 0.74973,-0.75045 13.58004,-3.51552 51.47781,-11.09403 108.87318,-36.16797 159.69396,-69.76449 l 10.59903,-7.00677 14.75097,-1.30734 c 8.11305,-0.71904 15.1839,-1.22979 15.71301,-1.13502 1.77789,0.31851 2.69445,2.35002 1.79268,3.97341 -0.43191,0.77751 -9.67848,7.69713 -18.9315,14.16729 -19.383,13.55352 -39.30636,25.55577 -62.72319,37.78575 -0.99,0.51705 -1.53,0.87552 -1.2,0.79659 6.98244,-1.6701 19.42524,-5.31162 29.95593,-8.76693 6.40602,-2.10195 8.88087,-2.79075 9.52134,-2.65008 1.75116,0.3846 2.6631,2.76762 1.62585,4.24851 -0.66264,0.94602 -20.70423,11.7762 -32.40312,17.51016 -62.28204,30.52608 -126.41145,49.33791 -181.95,53.37351 -11.20648,0.81432 -20.39233,0.98643 -31.95,0.59871 z m -133.8,-77.05914 c -1.02414,-0.43857 -1.49217,-1.242 -3.24915,-5.57775 -6.58915,-16.26018 -8.67318,-34.93017 -6.06123,-54.3 2.54458,-18.87027 9.85465,-40.87824 20.17843,-60.75001 2.58387,-4.97355 8.46253,-15.3115 9.97979,-17.55 1.74475,-2.57413 1.6542,-2.74803 -0.47466,-0.91147 -3.48516,3.00664 -10.4906,9.5911 -16.17318,15.20129 -2.97,2.93217 -5.77771,5.47184 -6.23935,5.64373 -1.02417,0.38133 -2.69206,-0.21455 -3.1865,-1.13843 -0.72869,-1.36155 -0.3245,-2.30469 5.16419,-12.05021 C 168.34719,234.18906 208.85677,190.49219 261,151.36104 c 21.96093,-16.48069 45.55611,-31.51825 70.5,-44.93068 7.3425,-3.9481 13.08,-7.106352 12.75,-7.018347 -0.33,0.08801 -1.5045,0.365298 -2.61,0.616207 -4.04865,0.91888 -19.20774,5.3879 -27.11586,7.99397 -4.46922,1.4728 -8.53476,2.67781 -9.03453,2.67781 -1.17786,0 -2.39106,-0.96834 -2.64144,-2.10836 -0.42669,-1.94273 0.11694,-2.34724 10.95183,-8.14912 53.73702,-28.775177 113.57163,-49.944449 165.6,-58.5887 32.53737,-5.405916 62.6265,-6.295725 91.20189,-2.697057 22.77339,2.867991 44.40414,9.384024 60.41925,18.200667 19.81749,10.909929 34.76751,26.198601 43.49688,44.48221 1.93473,4.05225 2.08278,4.47805 2.01654,5.799 -0.0872,1.73841 -2.62791,2.77293 -4.16538,1.69605 -0.36537,-0.25592 -1.63092,-2.11217 -2.81229,-4.125 C 658.7265,86.757043 642.26415,73.430407 618.45,63.837547 600.93372,56.781604 581.61354,52.750354 558.3,51.286954 c -8.26113,-0.518553 -26.69259,-0.445167 -35.1,0.139752 -23.77347,1.653969 -49.81626,6.031344 -72.75,12.228102 -1.15311,0.311577 -0.99489,0.362367 4.05,1.300101 8.48805,1.577733 19.86474,4.455858 21.8832,5.536095 1.36479,0.730425 1.62948,2.795772 0.52311,4.08201 -0.64233,0.746745 -1.55883,0.99087 -12.375,3.29631 -36.01338,7.676151 -70.61412,19.931356 -106.37775,37.677836 -36.49428,18.10904 -70.21586,39.5334 -98.09667,62.32385 -4.56121,3.72845 -8.25641,6.8188 -8.21155,6.86745 0.0449,0.0487 2.29176,-1.05427 4.99311,-2.45093 11.73808,-6.06887 35.33876,-16.30888 36.76367,-15.95125 1.87089,0.46956 2.81065,2.75537 1.75339,4.26481 -0.24446,0.34903 -4.51881,3.64336 -9.49854,7.32076 -41.30277,30.50091 -73.46691,65.59693 -95.11754,103.78786 -5.17897,9.13551 -6.6107,11.90134 -9.2832,17.93342 -6.87911,15.52671 -10.43463,28.5855 -11.79885,43.33509 l -0.40958,4.42821 -3.89639,7.60005 c -7.57812,14.78139 -13.07425,30.06519 -16.30001,45.3276 -1.16402,5.50743 -1.74284,7.66662 -2.19159,8.1753 -0.68053,0.77145 -2.09661,1.10943 -3.00981,0.71838 z M 1221.4099,277.875 c 0.083,-0.28875 0.242,-2.36234 0.3541,-4.60798 l 0.2039,-4.08298 1.841,0.62013 c 1.7164,0.57814 2.6741,0.62785 14.1411,0.73403 12.7454,0.11801 14.5811,-0.008 16.0047,-1.09662 0.5328,-0.40752 0.9537,-1.44754 1.725,-4.26294 0.5612,-2.04815 1.0203,-3.81913 1.0203,-3.93551 0,-0.11638 -0.9112,0.22006 -2.025,0.74764 l -2.025,0.95923 -7.2897,0.10244 c -4.1321,0.0581 -8.3213,-0.0364 -9.6713,-0.21809 -4.0752,-0.54844 -6.8261,-2.43078 -8.3424,-5.7084 -1.3319,-2.8788 -1.1436,-4.69823 1.5446,-14.92776 2.6659,-10.14463 3.121,-11.46752 4.8097,-13.97974 2.8133,-4.18521 5.9655,-5.01159 19.1332,-5.01599 9.9553,-0.003 11.1461,0.25986 12.2047,2.69754 l 0.456,1.05 0.5633,-1.875 0.5634,-1.875 10.5177,0 10.5178,0 -0.8059,1.37516 c -1.7471,2.98124 -2.7839,6.40991 -7.837,25.91799 -5.5595,21.46257 -6.1026,23.11353 -8.2384,25.04308 -1.3043,1.17841 -3.8383,2.05974 -7.3108,2.54273 -1.4502,0.2017 -9.7239,0.32104 -22.2568,0.32104 -18.8559,0 -19.9403,-0.0288 -19.7982,-0.525 z m 34.5401,-22.60649 c 1.4828,-0.40546 2.1706,-0.99827 2.7414,-2.36242 0.5114,-1.22252 4.4848,-16.37601 4.7832,-18.2423 0.2384,-1.49118 -0.2952,-2.50048 -1.7086,-3.23135 -0.7381,-0.38173 -1.6746,-0.45981 -4.5721,-0.38124 -3.248,0.0881 -3.7506,0.1749 -4.6257,0.79907 -0.54,0.38514 -1.2443,1.21475 -1.5651,1.84357 -0.595,1.16631 -5.1031,18.07394 -5.1031,19.13919 0,0.88378 1.1176,2.12484 2.1939,2.43623 1.3511,0.39092 6.4256,0.39044 7.8561,-6e-4 z m 31.4769,13.56534 c 2.7352,-2.95138 4.9731,-5.44888 4.9731,-5.55 0,-0.10111 -1.62,-0.18385 -3.6,-0.18385 -1.98,0 -3.5953,-0.10125 -3.5897,-0.225 0.01,-0.12375 0.7939,-3.195 1.7515,-6.825 l 1.7413,-6.6 10.0984,-0.079 c 5.5542,-0.0434 10.0953,0.0241 10.0914,0.15 -0.021,0.68064 -3.5657,13.66752 -3.7839,13.86312 -0.1424,0.12772 -3.6581,2.61353 -7.8126,5.52404 l -7.5535,5.29183 -3.6445,0 -3.6446,0 4.9731,-5.36615 z m -1024.586,-8.37202 c 2.81334,-2.95807 2.51526,-2.53355 20.47395,-29.15797 12.47729,-18.49803 13.02713,-19.37101 12.54226,-19.91318 -0.27891,-0.31186 -1.18211,-1.02363 -2.00711,-1.58171 l -1.5,-1.0147 14.22489,0.0779 14.22492,0.0779 4.89585,23.55 c 2.69271,12.9525 5.16192,24.42934 5.48718,25.50409 0.58401,1.92978 2.22213,4.79591 2.7411,4.79591 0.33516,0 1.91865,-3.11413 2.89635,-5.69607 0.88035,-2.32481 10.75218,-40.39316 11.20359,-43.20393 0.28359,-1.76578 0.22215,-3.10356 -0.21009,-4.575 -0.14484,-0.49306 0.49608,-0.525 10.53621,-0.525 10.04331,0 10.6806,0.0318 10.52784,0.525 -0.0894,0.28875 -2.89305,11.055 -6.23031,23.925 -6.02511,23.23567 -6.06783,23.42265 -6.08262,26.625 l -0.015,3.225 -23.9571,0 c -22.69938,0 -23.94564,-0.0276 -23.73894,-0.525 0.82941,-1.99598 1.07157,-3.35528 0.89526,-5.025 -0.18411,-1.74337 -1.2186,-7.55912 -1.5342,-8.625 -0.14499,-0.48963 -1.01814,-0.52415 -12.96024,-0.51245 l -12.80478,0.0125 -3.36506,5.01245 c -3.69553,5.50473 -4.70927,7.47933 -4.51596,8.79642 l 0.1271,0.86604 -7.18213,0 -7.18214,0 2.5091,-2.63818 z M 306.20493,239.325 c -0.0881,-0.37125 -0.98694,-4.86 -1.99746,-9.975 -1.01055,-5.115 -1.90359,-9.49399 -1.98453,-9.7311 -0.11466,-0.33592 -7.42075,10.28299 -13.45509,19.5561 l -0.53686,0.825 9.06703,0 9.06702,0 -0.16011,-0.675 z M 361.8,262.92843 c 0,-0.0944 0.32784,-0.73562 0.72852,-1.425 0.40068,-0.68939 1.15599,-2.33343 1.67847,-3.65343 1.16607,-2.94596 11.32053,-42.17691 11.56755,-44.69034 0.0978,-0.99531 0.0454,-2.38341 -0.11646,-3.08466 l -0.2943,-1.275 10.61811,0 c 5.83995,0 10.61811,0.0541 10.61811,0.12017 0,0.0661 -2.79219,10.89985 -6.20487,24.075 -6.05418,23.37304 -6.20535,24.02952 -6.225,27.02983 l -0.0201,3.075 -11.175,0 c -6.14625,0 -11.175,-0.0772 -11.175,-0.17157 z m 48.64896,-0.0438 c 0.0579,-0.12904 0.54213,-1.07252 1.07595,-2.09662 0.53382,-1.0241 1.29915,-2.8466 1.70067,-4.05 1.44525,-4.33128 11.01828,-41.74496 11.18079,-43.69716 0.0912,-1.09496 0.0255,-2.49709 -0.14613,-3.11584 l -0.31188,-1.125 21.05082,0.005 c 21.03972,0.005 25.03491,0.15599 28.06287,1.05919 2.12055,0.63255 4.24488,2.6167 5.47347,5.11231 0.91047,1.84943 0.92727,1.96198 0.78858,5.2815 -0.13104,3.13605 -0.41781,4.45502 -3.80292,17.49181 -2.01366,7.755 -3.97458,15.00666 -4.35759,16.1148 -1.35639,3.92442 -4.15443,6.96375 -7.78536,8.45679 -1.50468,0.61872 -1.92528,0.62971 -27.28143,0.71302 -14.16426,0.0465 -25.7058,-0.021 -25.64784,-0.15 z m 38.40837,-9.15154 c 0.74964,-0.33016 1.30839,-0.8818 1.7298,-1.70783 0.52821,-1.03538 7.146,-25.68621 8.13987,-30.32049 0.3705,-1.72761 0.01,-3.10347 -0.94842,-3.61622 -0.62946,-0.33687 -13.47669,-0.39741 -13.48245,-0.0635 -0.003,0.12375 -2.08908,8.24564 -4.63767,18.04864 -2.54856,9.80301 -4.55556,17.95014 -4.46001,18.10475 0.10287,0.16644 2.69808,0.23241 6.36264,0.16174 4.86237,-0.0938 6.42627,-0.22389 7.29624,-0.60705 z m 27.36975,8.08309 c 1.62657,-2.77553 2.7435,-6.26779 6.06594,-18.96617 3.50133,-13.38202 4.06248,-16.37999 3.46743,-18.525 l -0.31209,-1.125 10.62582,0 c 7.02348,0 10.62582,0.10375 10.62582,0.30603 0,0.16832 -1.89171,7.60205 -4.20384,16.51939 -3.92043,15.12033 -4.96701,19.76811 -4.66878,20.73373 0.0664,0.21497 0.1965,0.8296 0.28917,1.36585 l 0.16845,0.975 -11.40516,0 -11.40513,0 0.75237,-1.28383 z m 38.20473,0.82588 c -3.69381,-0.91377 -5.78424,-2.5758 -7.1646,-5.6963 -0.86601,-1.95776 -0.80439,-4.62917 0.20064,-8.69575 1.39956,-5.66309 3.30726,-9.05293 5.74605,-10.2102 2.77584,-1.31723 3.66495,-1.40267 16.64859,-1.59981 12.04497,-0.18289 12.52941,-0.2124 12.96555,-0.78999 0.61053,-0.80855 0.92436,-2.53754 0.56706,-3.12397 -0.15951,-0.26181 -0.75243,-0.71629 -1.31757,-1.00995 -0.94695,-0.49205 -2.05107,-0.52723 -14.07753,-0.44853 -12.29031,0.0804 -13.14843,0.12123 -14.74098,0.70087 l -1.69095,0.61548 1.04715,-2.26695 c 0.57591,-1.24682 1.52496,-3.3132 2.10897,-4.59195 l 1.06182,-2.325 18.63198,0.005 c 19.95606,0.006 21.32418,0.0933 23.88141,1.5305 1.45647,0.81859 2.80365,2.46162 3.79647,4.63018 0.61902,1.35213 0.75357,2.09891 0.74187,4.11789 -0.015,2.59359 -0.42765,4.48492 -3.74511,17.16623 -1.82352,6.97057 -2.18445,9.27682 -1.74894,11.175 l 0.29253,1.275 -9.7032,0 -9.70323,0 -0.20073,-1.77418 -0.20073,-1.77417 -1.06233,1.06236 c -0.58431,0.58429 -1.68192,1.34892 -2.43918,1.69917 -1.28844,0.59594 -1.91604,0.64058 -9.77682,0.69536 -6.40176,0.0446 -8.80872,-0.0426 -10.11819,-0.3665 z m 23.34081,-7.9779 c 1.0434,-1.04393 3.6087,-10.4134 2.92314,-10.67647 -0.23148,-0.0888 -2.82723,-0.10472 -5.76834,-0.0353 -7.18632,0.16962 -7.00287,0.0361 -8.57667,6.24464 -0.7803,3.07834 -0.78249,3.11743 -0.21639,3.88132 0.92877,1.25331 2.18967,1.52367 6.73422,1.44393 3.99879,-0.0702 4.14144,-0.0951 4.90404,-0.85812 z m 25.07952,8.21085 c 0.0562,-0.12375 0.52308,-1.035 1.03755,-2.025 1.53171,-2.94761 2.27691,-5.37484 5.80257,-18.9 3.40518,-13.06291 3.82209,-15.37235 3.20889,-17.775 l -0.24882,-0.975 10.34667,0 10.3467,0 -0.41928,1.575 c -0.23061,0.86625 -0.4209,1.63951 -0.42285,1.71836 -0.003,0.0788 0.41358,-0.36273 0.92343,-0.98126 1.84323,-2.23615 1.30467,-2.1621 15.723,-2.1621 9.55005,0 13.11489,0.0957 13.72749,0.36853 0.45513,0.20269 1.21404,0.97803 1.68648,1.72298 l 0.85896,1.35445 0.78726,-1.18961 c 1.45068,-2.19213 1.68585,-2.24204 11.0979,-2.35559 9.29817,-0.11217 11.31192,0.0964 13.99149,1.44903 2.75358,1.39 4.59315,4.12355 5.05689,7.5143 0.33366,2.43988 0.20928,3.08558 -2.82909,14.68591 -2.45898,9.38827 -2.63352,10.25247 -2.65119,13.125 l -0.0189,3.075 -11.20365,0 c -6.162,0 -11.15766,-0.10125 -11.1015,-0.225 0.0562,-0.12375 0.52308,-1.035 1.03755,-2.025 0.51444,-0.99 1.28199,-2.76531 1.70562,-3.94514 1.00914,-2.81041 5.90469,-21.95591 5.90469,-23.092 0,-0.48364 -0.19713,-1.16079 -0.43806,-1.50476 -0.79743,-1.13849 -1.9311,-1.36079 -6.40692,-1.25633 -3.95745,0.0924 -4.25406,0.14105 -4.97151,0.81588 -0.99777,0.93848 -1.43268,2.34445 -4.69638,15.18235 -2.70165,10.62706 -3.15372,13.26789 -2.6064,15.225 l 0.2307,0.825 -11.37111,0 -11.37111,0 1.03023,-1.94012 c 1.49862,-2.82227 2.16327,-4.91292 5.03004,-15.82207 3.24732,-12.35732 3.22782,-12.22666 2.00538,-13.44909 l -0.94242,-0.94242 -4.61532,0.10185 c -5.19675,0.11468 -5.48721,0.22654 -6.49656,2.50185 -0.29277,0.66 -1.84983,6.195 -3.46017,12.3 -2.76552,10.48465 -2.92881,11.27047 -2.94546,14.175 l -0.0177,3.075 -11.20365,0 c -6.162,0 -11.15766,-0.10125 -11.1015,-0.225 z m 104.89515,-0.23683 c -3.70173,-0.90033 -5.88054,-2.48879 -7.39071,-5.38817 -0.67314,-1.29243 -0.78108,-1.87362 -0.77994,-4.2 0,-2.42171 0.25794,-3.67398 2.49114,-12.15 2.57757,-9.7831 3.1791,-11.35993 5.21649,-13.67455 1.56537,-1.77834 4.81524,-3.36369 7.72074,-3.76633 1.38423,-0.19182 7.66215,-0.25877 16.63416,-0.17738 11.71236,0.10623 14.78406,0.219 16.40403,0.60216 3.65262,0.86397 5.23089,2.03502 6.76029,5.0161 0.7668,1.49462 0.8451,1.93251 0.83145,4.65 -0.0129,2.54633 -0.20784,3.72588 -1.28979,7.8 -0.70107,2.64 -1.34463,5.03625 -1.43013,5.325 -0.14559,0.49172 -1.19703,0.525 -16.58529,0.525 l -16.42986,0 -0.69807,2.78058 c -0.53691,2.13858 -0.62991,2.98707 -0.40278,3.675 0.58749,1.77945 0.71628,1.79446 15.40098,1.79411 9.66951,-2.4e-4 13.67619,-0.10138 14.53314,-0.36687 0.6507,-0.20161 1.22817,-0.32151 1.28322,-0.26645 0.0551,0.0551 -0.63588,1.90765 -1.53543,4.11687 l -1.63554,4.01676 -18.69768,0.0512 c -15.01428,0.0411 -19.03314,-0.0304 -20.40042,-0.36298 z M 695.98326,236.475 c 0.38574,-1.60875 0.76314,-3.09081 0.83865,-3.29348 0.0755,-0.20266 -0.27066,-0.77641 -0.76923,-1.275 L 695.14614,231 l -4.50354,0 c -2.47695,0 -4.84278,0.12898 -5.25738,0.28661 -1.08249,0.41157 -1.70127,1.52265 -2.48967,4.47039 -1.07973,4.03709 -1.71207,3.643 5.84541,3.643 l 6.54093,0 0.70137,-2.925 z M 730.05,262.6662 c -3.92847,-0.61289 -5.82249,-1.95579 -7.54065,-5.34642 -1.49493,-2.9501 -1.40055,-3.86121 1.63101,-15.74478 l 2.69772,-10.575 -4.01904,0 c -2.88183,0 -4.01904,-0.0999 -4.01904,-0.35302 0,-0.19417 0.42234,-1.94917 0.93852,-3.9 l 0.93849,-3.54698 4.11525,0 4.11525,0 0.94392,-3.64766 c 0.51915,-2.00621 0.98997,-3.69373 1.04625,-3.75003 0.16362,-0.1636 19.47108,-1.33354 19.61598,-1.18863 0.0721,0.0721 -0.35154,1.94971 -0.94131,4.17255 -0.5898,2.22285 -1.07235,4.1253 -1.07235,4.22766 0,0.10236 3.51,0.18611 7.8,0.18611 5.59077,0 7.8,0.0959 7.8,0.33845 0,0.18615 -0.42615,1.94115 -0.94698,3.9 L 762.20604,231 l -7.89462,0 -7.89465,0 -0.44286,1.575 c -1.26516,4.49969 -4.97301,19.32164 -4.96725,19.85637 0.009,0.83223 0.81924,1.78489 2.09334,2.46125 0.9102,0.48317 1.749,0.55614 6.3,0.54806 3.98163,-0.007 5.68179,-0.13096 7.03722,-0.51277 0.98298,-0.2769 1.83315,-0.45752 1.88928,-0.40139 0.0872,0.0872 -0.69759,3.41912 -1.75452,7.44848 l -0.29511,1.125 -11.91342,-0.0297 c -7.89582,-0.0197 -12.72282,-0.15595 -14.31345,-0.40411 z m 39.56661,-0.0127 c -3.58476,-0.7798 -5.8632,-2.4397 -7.30257,-5.32014 -1.55601,-3.11388 -1.39761,-4.70106 1.62849,-16.31589 1.58262,-6.07446 2.84718,-10.31855 3.34944,-11.24138 1.0584,-1.94459 3.60519,-4.32483 5.60907,-5.24224 2.70393,-1.2379 5.2965,-1.39447 20.79282,-1.25573 13.09764,0.11726 14.55609,0.18068 16.63692,0.72343 2.83995,0.74073 4.22133,1.58005 5.38557,3.27225 2.36802,3.44178 2.44743,6.12952 0.41928,14.19004 l -1.4433,5.73618 -16.43778,0 -16.43778,0 -0.51816,1.725 c -0.28497,0.94875 -0.525,2.51833 -0.53337,3.48795 -0.0138,1.59211 0.0668,1.82469 0.83127,2.4 0.82332,0.6196 1.1643,0.63971 12.45,0.7341 10.51926,0.088 16.04466,-0.14038 17.57124,-0.72619 0.32625,-0.12519 -0.0514,1.09708 -1.25016,4.04642 l -1.71759,4.2258 -18.6,-0.0204 c -14.28984,-0.0157 -19.02486,-0.11281 -20.43339,-0.41921 z M 797.37027,238.275 c 1.4829,-5.68595 1.4733,-5.55871 0.49338,-6.53863 C 797.14476,231.01751 797.01606,231 792.44874,231 c -5.40834,0 -6.1077,0.2105 -6.84819,2.06114 -0.41643,1.04077 -1.70055,5.69521 -1.70055,6.16385 0,0.0963 2.96481,0.17501 6.58845,0.17501 l 6.58842,0 0.2934,-1.125 z m 19.77096,23.25 c 1.62105,-2.88402 2.46471,-5.55852 5.96667,-18.91554 2.84496,-10.85103 3.48237,-13.66814 3.50925,-15.50946 0.018,-1.2375 -0.071,-2.62125 -0.19788,-3.075 l -0.2307,-0.825 9.16272,0 9.16275,0 -0.17571,2.475 c -0.0967,1.36125 -0.23739,2.77875 -0.31275,3.15 -0.21732,1.07069 0.24261,0.78013 1.35099,-0.85351 1.39212,-2.05175 3.14361,-3.48811 4.96032,-4.06786 2.11122,-0.67371 15.76431,-0.98822 15.7608,-0.36305 -0.003,0.36868 -2.81832,11.29312 -3.13839,12.17397 -0.0937,0.2579 -0.64101,0.12626 -1.87086,-0.45 -1.67106,-0.78297 -1.96152,-0.81833 -7.49388,-0.91224 -5.21325,-0.0885 -5.88207,-0.0417 -7.09968,0.49694 -0.73935,0.32705 -1.58517,0.96228 -1.87959,1.41162 -0.62505,0.95397 -5.38791,18.78399 -5.85819,21.93051 -0.21528,1.44054 -0.22344,2.59421 -0.0249,3.525 l 0.29508,1.38362 -11.38563,0 -11.38566,0 0.88527,-1.575 z m 74.79444,1.27194 c -4.03566,-0.60242 -5.69904,-1.61929 -7.46874,-4.56587 -1.32894,-2.21274 -1.65039,-4.34412 -1.13262,-7.50999 0.2223,-1.35909 2.10747,-9.01247 4.18929,-17.00751 4.23501,-16.2642 4.81119,-17.82092 7.66599,-20.71153 1.82076,-1.84363 2.99349,-2.49449 6.16041,-3.41909 2.01921,-0.58952 2.98017,-0.61691 24.975,-0.71195 19.50303,-0.0843 22.875,-0.0367 22.875,0.32304 0,0.71466 -0.91848,9.62445 -1.00062,9.70659 -0.0425,0.0425 -0.81351,-0.14462 -1.71333,-0.41583 -1.39527,-0.42054 -3.77733,-0.50977 -16.18605,-0.6063 -11.42346,-0.0889 -14.80506,-0.0289 -15.73704,0.27915 -2.25312,0.74473 -2.49405,1.36731 -6.47868,16.74235 -4.51857,17.43519 -4.29303,16.41323 -3.85563,17.46918 0.61065,1.4742 1.77159,1.84979 6.11694,1.97893 6.12021,0.1819 7.69893,-0.39829 8.68449,-3.19161 0.5352,-1.51692 2.86992,-10.31049 2.86992,-10.80936 0,-0.4986 -6.843,-0.44173 -9.3,0.0773 -1.0725,0.22656 -2.00523,0.35977 -2.07273,0.29602 -0.10122,-0.0956 0.86805,-4.06267 2.13678,-8.74545 l 0.26415,-0.975 16.92069,0 16.92066,0 -1.17756,2.30261 c -1.59222,3.11341 -2.58696,6.26284 -5.07108,16.05517 -2.11839,8.35075 -2.47095,10.54021 -2.03166,12.61722 l 0.23793,1.125 -8.5761,0 -8.5761,0 0.20388,-2.25 c 0.11466,-1.26537 0.0873,-2.24561 -0.0625,-2.23997 -0.14649,0.006 -0.67137,0.71427 -1.16637,1.575 -1.61025,2.80001 -1.38291,2.75786 -15.15,2.80893 -6.5175,0.0242 -12.57645,-0.0645 -13.46433,-0.19702 z m 52.34625,-1.6041 c 1.67277,-3.15018 2.30829,-5.18245 5.82996,-18.64284 3.46422,-13.24074 4.04067,-16.4202 3.34095,-18.42737 L 953.1312,223.2 l 9.16719,0 9.16719,0 -0.21621,3.375 -0.21618,3.375 1.27905,-1.90618 c 0.70347,-1.0484 1.82061,-2.29848 2.4825,-2.77796 2.21643,-1.60558 3.56823,-1.84128 11.42457,-1.99199 6.37188,-0.12224 7.14957,-0.0861 6.99183,0.32501 -0.0976,0.2544 -0.87318,3.13747 -1.72344,6.40683 -0.85029,3.26936 -1.57179,5.972 -1.60338,6.00586 -0.0316,0.0339 -0.79476,-0.30363 -1.6959,-0.75 -1.57227,-0.7788 -1.86156,-0.81559 -7.16502,-0.91111 -6.26721,-0.11287 -7.58607,0.1166 -8.98899,1.56405 -0.83457,0.86106 -1.18524,1.94748 -3.64521,11.2941 -2.63793,10.02262 -2.7186,10.42694 -2.61666,13.11639 l 0.10518,2.775 -11.30424,0 -11.30427,0 1.01271,-1.90716 z m 41.86809,1.68216 c 0.055,-0.12375 0.59628,-1.2375 1.20285,-2.475 1.56387,-3.19049 1.93758,-4.42547 5.63583,-18.62441 3.32697,-12.77352 3.77478,-15.23615 3.20046,-17.60059 l -0.23682,-0.975 10.70597,0 c 8.9382,0 10.6799,0.0678 10.5483,0.41074 -0.087,0.2259 -2.0896,7.81965 -4.4509,16.875 -4.1618,15.96014 -4.2935,16.55842 -4.2995,19.53932 l -0.01,3.07505 -11.19998,-5e-5 c -6.16002,-3e-5 -11.15502,-0.10131 -11.1,-0.22506 z m 28.50249,0 c 0.056,-0.12375 0.5886,-1.17 1.1829,-2.325 1.5601,-3.03225 1.9595,-4.34132 5.6783,-18.61022 3.4065,-13.0706 3.8567,-15.58657 3.2056,-17.91478 l -0.2307,-0.825 10.2382,0 10.2382,0 -0.1825,0.75 c -0.1004,0.4125 -0.2624,1.12125 -0.36,1.575 l -0.1775,0.825 0.8039,-0.98094 c 1.6512,-2.01491 1.6762,-2.01906 12.1511,-2.01906 9.053,0 9.5247,0.0282 11.228,0.67092 2.4491,0.92417 3.9177,2.01201 4.9239,3.64729 1.2723,2.06774 1.6582,3.51944 1.6434,6.18179 -0.017,2.987 -0.2247,3.98272 -3.0399,14.55 -2.1162,7.94393 -2.2787,8.76798 -2.2916,11.625 l -0.014,3.075 -11.175,0 c -6.1462,0 -11.175,-0.0772 -11.175,-0.17157 0,-0.0944 0.3293,-0.73562 0.7316,-1.425 0.4024,-0.68939 1.1406,-2.27758 1.6404,-3.52933 1.2633,-3.16397 6.7203,-24.46569 6.4962,-25.3586 -0.3652,-1.45497 -1.2156,-1.66689 -6.2676,-1.5619 -5.0441,0.10481 -5.4079,0.22355 -6.3668,2.07771 -0.6718,1.29918 -6.4347,23.73598 -6.6265,25.7995 -0.098,1.05555 -0.038,2.42544 0.1329,3.04419 l 0.3115,1.125 -11.4008,0 c -6.2705,0 -11.3548,-0.10125 -11.2984,-0.225 z m 70.7925,-0.3771 c -3.4973,-0.92948 -5.4446,-2.48674 -6.7115,-5.36702 -1.1213,-2.54935 -0.8782,-4.44296 1.9879,-15.48088 3.4106,-13.13532 4.3851,-15.09878 8.4286,-16.98228 2.7035,-1.25932 5.7767,-1.53939 15.5216,-1.41452 7.9816,0.10226 8.5496,0.14638 9.6928,0.75289 0.7042,0.37361 1.4576,1.09581 1.7932,1.71909 0.3184,0.59115 0.661,1.07482 0.7613,1.07482 0.2882,0 3.2217,-11.65203 3.4364,-13.65 0.1065,-0.99 0.062,-2.37375 -0.099,-3.075 l -0.2925,-1.275 10.6181,0 c 5.8399,0 10.6181,0.0914 10.6181,0.20308 0,0.1117 -2.8503,11.21356 -6.3339,24.67081 -6.2217,24.03434 -6.3316,24.51165 -6.2038,26.94692 l 0.1302,2.47919 -10.1463,0 -10.1462,0 0,-1.56685 0,-1.56686 -0.8546,0.93568 c -1.8368,2.01099 -1.9992,2.04102 -11.4454,2.11499 -7.6625,0.06 -8.7789,0.006 -10.755,-0.51906 z m 23.3082,-7.46408 c 1.0845,-0.59391 1.6443,-2.21502 4.1058,-11.88959 2.5333,-9.95646 2.5823,-10.55332 0.9497,-11.56976 -0.8563,-0.53316 -1.3971,-0.58771 -5.0629,-0.5107 -3.6172,0.076 -4.2046,0.16081 -4.95,0.71474 -1.1344,0.84294 -1.6773,2.46403 -4.3279,12.92191 l -2.2179,8.75042 0.7335,0.78116 c 0.4034,0.42963 1.1459,0.9087 1.65,1.06461 1.3228,0.4091 8.2578,0.20926 9.1197,-0.26279 z m 26.4511,6.4547 c 1.5489,-2.74437 2.6338,-6.19797 6.0438,-19.23852 3.3399,-12.77238 3.9004,-15.80531 3.3124,-17.925 l -0.3121,-1.125 10.6258,0 c 6.2983,0 10.6258,0.11285 10.6258,0.2771 0,0.1524 -1.8913,7.58316 -4.2029,16.51281 -3.9196,15.14127 -4.9679,19.80377 -4.6697,20.76924 0.066,0.21497 0.1965,0.8296 0.2892,1.36585 l 0.1684,0.975 -11.395,0 -11.3951,0 0.9094,-1.61148 z m 28.8473,-0.62786 c 1.6613,-3.17038 1.9911,-4.23051 5.6973,-18.31066 3.4302,-13.03171 4.026,-16.35598 3.3032,-18.42937 l -0.3209,-0.92063 10.3401,0 10.3401,0 -0.1996,0.825 c -0.1098,0.45375 -0.3149,1.13754 -0.4557,1.51953 -0.4125,1.11865 -0.323,1.08611 1.0189,-0.37041 1.0735,-1.16522 1.5304,-1.43056 2.891,-1.67902 2.5467,-0.46506 16.0064,-0.36472 18.3733,0.13698 3.7998,0.80541 6.1941,2.55955 7.579,5.55268 0.5381,1.16291 0.6275,1.89876 0.6033,4.96524 -0.026,3.28281 -0.1513,4.06258 -1.4241,8.85 -3.4366,12.92671 -3.818,14.57297 -3.8568,16.65 -0.022,1.155 0.059,2.40375 0.1802,2.775 l 0.2195,0.675 -11.4328,0 -11.4329,0 0.7524,-1.28383 c 1.5807,-2.69721 2.6996,-6.09515 5.2578,-15.96617 3.2516,-12.54638 3.3122,-12.82792 2.9181,-13.54045 -0.6497,-1.17466 -1.1419,-1.29022 -5.5376,-1.30001 -5.2264,-0.0116 -6.1261,0.26726 -6.9531,2.15533 -0.3096,0.70682 -1.8853,6.28013 -3.5017,12.38513 -2.8332,10.70118 -2.9391,11.21588 -2.9497,14.325 l -0.011,3.225 -11.2859,0 -11.2859,0 1.1734,-2.23934 z m 171.0674,0.96434 c 1.6074,-2.75369 2.7738,-6.60753 7.8922,-26.07559 l 5.3107,-20.19941 0.014,-3.375 0.014,-3.375 11.925,0 c 6.5588,0 11.925,0.0505 11.925,0.11222 0,0.0617 -0.3277,0.70296 -0.7282,1.425 -1.61,2.90251 -2.76,6.73661 -7.8759,26.25694 -5.229,19.95186 -5.335,20.41687 -5.3404,23.4309 l -0.01,3.07505 -11.9376,-5e-5 -11.9376,-6e-5 0.7442,-1.275 z m 30.1853,-0.33648 c 1.5275,-2.70646 2.529,-5.90413 6.0379,-19.27877 2.9015,-11.05889 3.3763,-13.19584 3.3909,-15.25975 0.01,-1.32 -0.093,-2.70375 -0.2283,-3.075 l -0.2452,-0.675 10.3408,0 10.3409,0 -0.4207,1.39768 c -0.609,2.02366 -0.5277,2.16622 0.4652,0.81606 1.4562,-1.98011 1.648,-2.01921 10.5552,-2.15167 8.6989,-0.12936 11.4338,0.11709 13.909,1.25342 2.19,1.00536 3.3156,2.08782 4.3446,4.1781 1.8613,3.78074 1.6232,6.22619 -1.9181,19.70641 -2.3999,9.13526 -2.7951,11.40998 -2.3328,13.425 l 0.2925,1.275 -11.3719,0 -11.3718,0 1.0603,-2.10553 c 0.5832,-1.15805 1.3356,-2.80397 1.6721,-3.65759 0.7884,-2.00028 6.2724,-23.23203 6.274,-24.2901 0,-0.51758 -0.2889,-1.03137 -0.8145,-1.44474 -0.7676,-0.60387 -1.0916,-0.63596 -5.5194,-0.54678 -5.1943,0.10462 -5.6037,0.2459 -6.4409,2.22299 -0.2162,0.51054 -1.7577,6.14386 -3.4256,12.5185 -3.0427,11.62915 -3.52,14.32474 -2.9178,16.47825 l 0.2307,0.825 -11.4083,0 -11.4082,0 0.9094,-1.61148 z m 70.7638,1.16156 c -3.8815,-0.77619 -6,-2.41206 -7.5408,-5.82273 -1.022,-2.26221 -0.6677,-4.84547 2.1402,-15.6041 1.3532,-5.18472 2.7403,-10.0775 3.0825,-10.87286 0.9064,-2.10713 2.4469,-4.14147 3.8491,-5.08325 2.6308,-1.76685 3.5354,-1.84526 22.9048,-1.98557 l 17.6539,-0.12788 -0.1677,0.84815 c -0.092,0.46649 -0.3115,2.19816 -0.4871,3.84816 -0.4932,4.6328 -0.394,4.41422 -1.7297,3.80899 -0.9634,-0.43654 -2.4683,-0.52283 -10.5733,-0.60627 -10.2432,-0.10545 -11.2837,0.0118 -12.2433,1.37981 -0.7867,1.12155 -1.0475,1.99413 -3.5166,11.76747 -2.4241,9.59475 -2.4241,9.59373 -0.2283,10.68455 1.9856,0.98643 17.6149,0.93831 21.294,-0.0656 0.6004,-0.16382 0.5099,0.17227 -1.0714,3.97603 l -1.7272,4.15497 -14.8286,0.0482 c -11.2515,0.0366 -15.3067,-0.0474 -16.8105,-0.34814 z M 488.4,219.13493 c 0,-0.18274 1.58655,-6.28616 2.27709,-8.75993 l 0.43968,-1.575 9.76182,0 c 9.15429,0 9.75249,0.0327 9.61143,0.525 -0.0827,0.28875 -0.63702,2.415 -1.23177,4.725 -0.59478,2.31 -1.15278,4.43625 -1.24005,4.725 -0.14682,0.48595 -0.88239,0.525 -9.88842,0.525 -5.35137,0 -9.72978,-0.0743 -9.72978,-0.16507 z m 511.6696,-4.85993 c 0.7272,-2.76375 1.3241,-5.12625 1.3263,-5.25 0,-0.12375 4.4073,-0.225 9.7891,-0.225 9.1709,0 9.7764,0.0329 9.6489,0.525 -0.075,0.28875 -0.6599,2.65125 -1.3002,5.25 l -1.1641,4.725 -9.8111,0 -9.81113,0 1.32223,-5.025 z m 147.1304,4.83889 c 0,-0.24517 2.0498,-8.08511 2.4418,-9.33889 l 0.3047,-0.975 9.747,0 c 9.1402,0 9.7376,0.0327 9.5962,0.525 -0.083,0.28875 -0.6395,2.415 -1.2369,4.725 -0.5975,2.31 -1.1553,4.43625 -1.2397,4.725 -0.1421,0.48606 -0.8753,0.525 -9.8833,0.525 -5.3514,0 -9.7298,-0.0838 -9.7298,-0.18611 z M 655.31487,184.02516 c -1.48779,-0.73421 -1.67652,-1.51631 -1.43553,-5.94944 l 0.21321,-3.92179 3.87591,-7.77992 c 7.45056,-14.95509 12.50109,-29.38909 15.52191,-44.36013 0.82524,-4.08987 1.64058,-7.69803 1.81191,-8.01813 0.66972,-1.25137 3.01788,-1.63083 4.15071,-0.67075 0.34071,0.28875 1.31706,2.14128 2.16969,4.11674 7.76679,17.99531 9.99786,35.96384 7.15302,57.60826 -0.63492,4.83049 -0.966,5.85611 -2.08362,6.45424 -0.33435,0.17893 -6.7131,0.85429 -14.175,1.50079 -7.4619,0.6465 -14.17458,1.24434 -14.91708,1.32852 -0.88599,0.10047 -1.67142,-0.006 -2.28513,-0.30839 z"
       id="path4142"
       inkscape:connector-curvature="0" />
    <path
       style="fill:#0c0f10"
       d="m 279.6,486.27043 c -25.03141,-0.66807 -47.79003,-4.52574 -66.86573,-11.33394 -29.61078,-10.56822 -51.30601,-28.4703 -62.81783,-51.83487 -1.83125,-3.71673 -2.06759,-4.38489 -1.88854,-5.33931 0.39482,-2.10459 3.01974,-2.83029 4.55209,-1.2585 0.3465,0.35541 1.61276,2.26113 2.81391,4.23495 1.20115,1.97382 3.40998,5.21382 4.90851,7.2 3.37707,4.47603 10.85128,12.00174 15.49097,15.59769 38.5028,29.84121 106.47221,37.36872 181.44812,20.09511 9.40611,-2.16705 21.0057,-5.23155 19.80225,-5.23155 -0.0859,0 -1.89717,-0.2679 -4.02501,-0.59532 -5.26893,-0.81075 -12.46497,-2.42994 -18.09024,-4.07046 -5.184,-1.51185 -6.0285,-2.05596 -6.0285,-3.88422 0,-0.62703 0.25866,-1.31034 0.675,-1.78326 0.60882,-0.69153 1.8261,-1.01556 12.41454,-3.30462 52.69773,-11.39247 108.88368,-35.81715 160.4103,-69.73227 l 11.04984,-7.27308 15.04362,-1.32687 c 8.274,-0.72978 15.31656,-1.2441 15.65016,-1.14291 1.64256,0.49821 2.42523,2.50302 1.51782,3.88788 -1.01055,1.5423 -19.52685,14.86992 -32.14866,23.1399 -14.87283,9.74487 -34.35483,21.0939 -49.76262,28.9887 -0.825,0.42273 -1.3875,0.77487 -1.24998,0.78255 1.10283,0.0616 19.45815,-5.30169 30.40836,-8.88513 l 8.75838,-2.86617 1.14162,0.55764 c 1.41897,0.69312 1.99806,2.35632 1.27125,3.65121 -0.96603,1.7211 -32.74059,18.2115 -51.01434,26.47548 -47.39625,21.43416 -97.91985,36.50649 -142.16529,42.41112 -12.13674,1.61967 -23.09826,2.51076 -33.6,2.73138 -4.0425,0.0849 -8.025,0.18831 -8.85,0.22971 -0.825,0.0414 -4.8075,-0.0129 -8.85,-0.12084 z M 144.08098,409.28908 c -1.06841,-0.20637 -1.73222,-1.33437 -3.63865,-6.18315 -3.38471,-8.60859 -5.288,-16.4043 -6.36922,-26.08791 -0.87109,-7.80153 -0.68029,-18.83415 0.4707,-27.21801 3.2772,-23.87127 12.28987,-48.43833 26.85414,-73.20001 1.69836,-2.8875 3.47361,-5.81432 3.94499,-6.50405 0.47138,-0.68973 0.85706,-1.34232 0.85706,-1.45021 0,-0.61795 -9.52349,8.11811 -17.8667,16.38942 -5.79754,5.74758 -6.05979,5.9645 -7.2,5.9553 -1.69798,-0.0137 -2.8333,-1.10519 -2.8333,-2.72394 0,-1.367 10.86145,-20.01637 17.12646,-29.40654 37.67501,-56.46836 103.40093,-113.3801 175.79952,-152.22392 6.94572,-3.72657 12.92007,-6.893129 13.27629,-7.036802 1.24143,-0.500658 -0.1647,-0.293925 -3.19791,0.470172 -6.19011,1.55935 -19.76946,5.59096 -27.19773,8.0748 -4.20387,1.40568 -8.07759,2.55577 -8.60829,2.55577 -1.90488,0 -3.02076,-1.78135 -2.3802,-3.7996 0.26856,-0.8462 0.11838,-0.75562 10.38186,-6.26203 45.33576,-24.322899 96.31158,-43.720692 141.82125,-53.967147 23.15808,-5.214021 41.56959,-7.86792 63.77151,-9.192252 8.01084,-0.477843 31.97946,-0.20313 39.50724,0.452805 38.54262,3.358425 67.66125,13.354503 89.1,30.586959 11.73147,9.429747 20.90394,20.893021 26.93994,33.668045 2.2875,4.84147 2.41347,6.2565 0.63861,7.17432 -2.14518,1.10931 -3.08664,0.41165 -5.79582,-4.29492 C 657.90393,84.950809 638.13189,70.192063 610.05,60.702892 573.19425,48.248932 523.2222,47.512828 471.3,58.659061 c -6.9162,1.484715 -21.40281,4.975797 -21.68007,5.224614 -0.12654,0.113553 1.49346,0.506298 3.6,0.872766 7.59336,1.320987 21.20046,4.68411 23.13012,5.716827 1.38654,0.742062 1.67556,2.798487 0.57336,4.079862 -0.61986,0.720615 -1.60743,0.983076 -11.775,3.129282 -36.14616,7.62987 -71.52717,20.188222 -107.99841,38.333618 -36.00291,17.91239 -69.14282,38.99976 -96.96417,61.6996 -4.65529,3.79832 -8.40886,6.96135 -8.34126,7.02894 0.0676,0.0676 2.05396,-0.89066 4.41416,-2.12945 10.40595,-5.46177 34.7761,-16.11512 36.86424,-16.11512 0.57394,0 1.33817,0.20638 1.6983,0.45862 0.7795,0.54599 1.17957,2.31195 0.74156,3.2733 -0.17192,0.3773 -4.40517,3.70822 -9.40724,7.40204 -35.54133,26.2458 -63.65447,55.06015 -85.14243,87.26604 -7.17404,10.75238 -15.32599,25.16263 -19.39162,34.27867 -7.01708,15.73386 -10.77675,29.61372 -12.12214,44.7522 l -0.31824,3.58083 -3.86849,7.51917 c -7.47397,14.52711 -13.02694,29.9205 -16.2377,45.0126 -0.84171,3.9564 -1.71631,7.55304 -1.94356,7.99248 -0.22725,0.43947 -0.84243,0.94866 -1.36706,1.13154 -0.52464,0.18288 -0.96749,0.31413 -0.98412,0.29166 -0.0166,-0.0225 -0.33129,-0.099 -0.69925,-0.17007 z M 654.57729,183.42416 c -0.7035,-0.75047 -0.72465,-0.90506 -0.64653,-4.725 l 0.0808,-3.94916 4.03818,-8.25 c 7.55115,-15.42702 12.3729,-29.29675 15.48759,-44.55 1.78407,-8.7369 1.96884,-9.15 4.09293,-9.15 1.64172,0 2.358,0.91878 4.32678,5.55 4.37796,10.29847 6.53733,19.10109 7.58535,30.9215 0.24765,2.79317 0.45177,6.5635 0.45363,8.3785 0.007,7.16564 -1.55577,22.08759 -2.42319,23.13274 -0.21897,0.26387 -0.70836,0.5977 -1.0875,0.74185 -0.76773,0.2919 -27.15297,2.67541 -29.61651,2.67541 -1.29492,0 -1.68945,-0.13357 -2.29152,-0.77584 z"
       id="path4140"
       inkscape:connector-curvature="0" />
  </g>
</svg>
