<?xml version="1.0" encoding="UTF-8" standalone="no"?>
<!-- Created with Inkscape (http://www.inkscape.org/) -->

<svg
   xmlns:dc="http://purl.org/dc/elements/1.1/"
   xmlns:cc="http://creativecommons.org/ns#"
   xmlns:rdf="http://www.w3.org/1999/02/22-rdf-syntax-ns#"
   xmlns:svg="http://www.w3.org/2000/svg"
   xmlns="http://www.w3.org/2000/svg"
   xmlns:xlink="http://www.w3.org/1999/xlink"
   xmlns:sodipodi="http://sodipodi.sourceforge.net/DTD/sodipodi-0.dtd"
   xmlns:inkscape="http://www.inkscape.org/namespaces/inkscape"
   width="255.46907mm"
   height="186.11848mm"
   viewBox="0 0 255.46907 186.11848"
   version="1.1"
   id="svg1811"
   inkscape:version="0.92.4 (5da689c313, 2019-01-14)"
   sodipodi:docname="automation-direct.svg">
  <defs
     id="defs1805">
    <linearGradient
       gradientTransform="matrix(0.35277776,0,0,0.35277776,-799.463,-1346.7544)"
       id="linear-gradient-39"
       x1="2492.6899"
       y1="4179.3901"
       x2="2491.3501"
       y2="4195.8599"
       xlink:href="#linear-gradient-27" />
    <linearGradient
       id="linear-gradient-27"
       x1="2168.8101"
       y1="4183.3999"
       x2="2161.3501"
       y2="4274.73"
       gradientUnits="userSpaceOnUse">
      <stop
         offset="0"
         stop-color="#f1f9fd"
         id="stop1818" />
      <stop
         offset="0.31"
         stop-color="#fafdff"
         id="stop1820" />
      <stop
         offset="0.65"
         stop-color="#e1ecf7"
         id="stop1822" />
      <stop
         offset="1"
         stop-color="#c1d7ec"
         id="stop1824" />
    </linearGradient>
    <linearGradient
       gradientTransform="matrix(0.35277776,0,0,0.35277776,-799.463,-1346.7544)"
       id="linear-gradient-38"
       x1="2108.25"
       y1="4045.1699"
       x2="2142.4299"
       y2="4045.1699"
       xlink:href="#linear-gradient-37" />
    <linearGradient
       id="linear-gradient-37"
       x1="2457.6799"
       y1="4044.74"
       x2="2489.2"
       y2="4044.74"
       gradientUnits="userSpaceOnUse">
      <stop
         offset="0"
         stop-color="#c4c9cd"
         id="stop1897" />
      <stop
         offset="1"
         stop-color="#dadfe2"
         id="stop1899" />
    </linearGradient>
    <linearGradient
       gradientTransform="matrix(0.35277776,0,0,0.35277776,-799.463,-1346.7544)"
       inkscape:collect="always"
       xlink:href="#linear-gradient-37"
       id="linearGradient3457"
       gradientUnits="userSpaceOnUse"
       x1="2457.6799"
       y1="4044.74"
       x2="2489.2"
       y2="4044.74" />
    <clipPath
       id="clip-path-8"
       transform="translate(-67.77 -107.36)">
      <path
         class="cls-1"
         d="m 2650.19,4031.49 -0.53,0.1 c -48.44,11.4 -188.32,19.28 -348,19.59 -152.74,0.31 -288.6,-7.46 -344.89,-18.66 a 11,11 0 0 0 -9.33,2.38 15.36,15.36 0 0 0 -5.37,11.9 v 105.64 c 0,7.72 5,14.67 11.62,16.16 31.41,6.83 90.16,14.22 147.13,18.12 2.08,0.14 3.84,2.44 3.84,5 v 91.52 c 0,6.63 5.14,12.47 11.47,13 h 0.61 c 139.39,10.91 281.28,11.21 379.52,0.81 h 0.42 c 6.38,-0.56 11.52,-6.41 11.52,-13 v -92 c 0,-2.56 1.81,-4.91 3.88,-5 58.81,-3.92 120.7,-11.53 140.92,-17.31 6.42,-1.68 11.11,-8.43 11.11,-16 v -107.85 a 15.22,15.22 0 0 0 -4.74,-11.4 11.7,11.7 0 0 0 -9.18,-3 z m 3.58,9.18 a 7,7 0 0 1 2,5.22 v 107.82 c 0,3.7 -2.24,7.3 -5,8 -19.81,5.67 -81,13.15 -139.23,17 -6.43,0.35 -11.68,6.33 -11.68,13.32 v 92 c 0,2.34 -1.82,4.56 -3.89,4.74 0.13,0 -0.26,0 -0.26,0 h -0.28 c -97.8,10.36 -239.19,10 -378.24,-0.82 h -0.41 c -2,-0.18 -3.84,-2.39 -3.84,-4.74 v -91.52 c 0,-7 -5.09,-12.87 -11.58,-13.32 -56.6,-3.86 -114.9,-11.2 -145.9,-17.94 -2.81,-0.63 -5.1,-4.24 -5.1,-8 V 4046.8 a 7,7 0 0 1 2.29,-5.44 2.81,2.81 0 0 1 2.42,-0.7 c 57.69,11.48 191,19.14 346.58,18.84 159.82,-0.32 300.25,-8.25 349.57,-19.75 a 3.37,3.37 0 0 1 2.55,0.92 z"
         id="path1894"
         inkscape:connector-curvature="0"
         style="fill:none" />
    </clipPath>
    <linearGradient
       gradientTransform="matrix(0.35277776,0,0,0.35277776,-799.463,-1346.7544)"
       id="linear-gradient-36"
       x1="2261.1101"
       y1="3668.4099"
       x2="1969.88"
       y2="4069.25"
       xlink:href="#linear-gradient-34" />
    <linearGradient
       id="linear-gradient-34"
       x1="2431.3701"
       y1="3851.3799"
       x2="2173.5"
       y2="4206.3101"
       gradientUnits="userSpaceOnUse">
      <stop
         offset="0"
         stop-color="#a7aeb2"
         id="stop1863" />
      <stop
         offset="0.27"
         stop-color="#e2e3e4"
         id="stop1865" />
      <stop
         offset="0.32"
         stop-color="#e0e1e2"
         id="stop1867" />
      <stop
         offset="0.34"
         stop-color="#d8dbdd"
         id="stop1869" />
      <stop
         offset="0.36"
         stop-color="#cbcfd3"
         id="stop1871" />
      <stop
         offset="0.38"
         stop-color="#b8c0c6"
         id="stop1873" />
      <stop
         offset="0.44"
         stop-color="#d7d8da"
         id="stop1875" />
      <stop
         offset="0.51"
         stop-color="#acb4ba"
         id="stop1877" />
      <stop
         offset="0.69"
         stop-color="#dddfe0"
         id="stop1879" />
      <stop
         offset="0.76"
         stop-color="#d9dcdd"
         id="stop1881" />
      <stop
         offset="0.84"
         stop-color="#ced2d4"
         id="stop1883" />
      <stop
         offset="0.91"
         stop-color="#bcc1c5"
         id="stop1885" />
      <stop
         offset="0.97"
         stop-color="#a2a9af"
         id="stop1887" />
      <stop
         offset="1"
         stop-color="#959ea5"
         id="stop1889" />
    </linearGradient>
    <linearGradient
       gradientTransform="matrix(0.35277776,0,0,0.35277776,-799.463,-1346.7544)"
       id="linear-gradient-35"
       x1="2632.8301"
       y1="3997.52"
       x2="2374.28"
       y2="4353.3799"
       xlink:href="#linear-gradient-34" />
    <linearGradient
       gradientTransform="matrix(0.35277776,0,0,0.35277776,-799.463,-1346.7544)"
       inkscape:collect="always"
       xlink:href="#linear-gradient-34"
       id="linearGradient3455"
       gradientUnits="userSpaceOnUse"
       x1="2431.3701"
       y1="3851.3799"
       x2="2173.5"
       y2="4206.3101" />
    <linearGradient
       gradientTransform="matrix(0.35277776,0,0,0.35277776,-799.463,-1346.7544)"
       id="linear-gradient-33"
       x1="2434.04"
       y1="3853.03"
       x2="2174.3799"
       y2="4210.4102"
       gradientUnits="userSpaceOnUse">
      <stop
         offset="0"
         stop-color="#bbc1c5"
         id="stop1832" />
      <stop
         offset="0.27"
         stop-color="#fff"
         id="stop1834" />
      <stop
         offset="0.32"
         stop-color="#fdfdfd"
         id="stop1836" />
      <stop
         offset="0.34"
         stop-color="#f5f6f7"
         id="stop1838" />
      <stop
         offset="0.36"
         stop-color="#e8ebed"
         id="stop1840" />
      <stop
         offset="0.38"
         stop-color="#d5dade"
         id="stop1842" />
      <stop
         offset="0.38"
         stop-color="#d1d7db"
         id="stop1844" />
      <stop
         offset="0.44"
         stop-color="#ececed"
         id="stop1846" />
      <stop
         offset="0.51"
         stop-color="#cad0d4"
         id="stop1848" />
      <stop
         offset="0.69"
         stop-color="#fff"
         id="stop1850" />
      <stop
         offset="0.76"
         stop-color="#fbfcfc"
         id="stop1852" />
      <stop
         offset="0.82"
         stop-color="#f0f2f3"
         id="stop1854" />
      <stop
         offset="0.89"
         stop-color="#dee1e3"
         id="stop1856" />
      <stop
         offset="0.95"
         stop-color="#c4c9cd"
         id="stop1858" />
      <stop
         offset="1"
         stop-color="#a8b0b6"
         id="stop1860" />
    </linearGradient>
    <linearGradient
       gradientTransform="matrix(0.35277776,0,0,0.35277776,-799.463,-1346.7544)"
       id="linear-gradient-32"
       x1="2468.0901"
       y1="4185.1001"
       x2="2460.8"
       y2="4274.29"
       xlink:href="#linear-gradient-27" />
    <linearGradient
       gradientTransform="matrix(0.35277776,0,0,0.35277776,-799.463,-1346.7544)"
       id="linear-gradient-31"
       x1="2409.0801"
       y1="4200.3999"
       x2="2402.6201"
       y2="4279.54"
       xlink:href="#linear-gradient-27" />
    <linearGradient
       gradientTransform="matrix(0.35277776,0,0,0.35277776,-799.463,-1346.7544)"
       id="linear-gradient-30"
       x1="2336.47"
       y1="4201.4902"
       x2="2329.97"
       y2="4281.04"
       xlink:href="#linear-gradient-27" />
    <linearGradient
       gradientTransform="matrix(0.35277776,0,0,0.35277776,-799.463,-1346.7544)"
       id="linear-gradient-29"
       x1="2273.6001"
       y1="4200.1802"
       x2="2267.1001"
       y2="4279.8501"
       xlink:href="#linear-gradient-27" />
    <linearGradient
       gradientTransform="matrix(0.35277776,0,0,0.35277776,-799.463,-1346.7544)"
       id="linear-gradient-28"
       x1="2229.01"
       y1="4184.3901"
       x2="2221.3701"
       y2="4277.96"
       xlink:href="#linear-gradient-27" />
    <linearGradient
       gradientTransform="matrix(0.35277776,0,0,0.35277776,-799.463,-1346.7544)"
       inkscape:collect="always"
       xlink:href="#linear-gradient-27"
       id="linearGradient3453"
       gradientUnits="userSpaceOnUse"
       x1="2168.8101"
       y1="4183.3999"
       x2="2161.3501"
       y2="4274.73" />
    <linearGradient
       gradientTransform="matrix(0.35277776,0,0,0.35277776,-799.463,-1346.7544)"
       id="linear-gradient-26"
       x1="2608.5601"
       y1="4072.28"
       x2="2608.5601"
       y2="4159.6001"
       xlink:href="#linear-gradient-17" />
    <linearGradient
       id="linear-gradient-17"
       x1="2001.12"
       y1="4054.3701"
       x2="2001.12"
       y2="4161.6802"
       gradientUnits="userSpaceOnUse">
      <stop
         offset="0"
         stop-color="#fff"
         id="stop1800" />
      <stop
         offset="0.43"
         stop-color="#fafdff"
         id="stop1802" />
      <stop
         offset="0.7"
         stop-color="#e1ecf7"
         id="stop1804" />
      <stop
         offset="1"
         stop-color="#c1d7ec"
         id="stop1806" />
    </linearGradient>
    <linearGradient
       gradientTransform="matrix(0.35277776,0,0,0.35277776,-799.463,-1346.7544)"
       id="linear-gradient-25"
       x1="2534.3799"
       y1="4080.3799"
       x2="2534.3799"
       y2="4165.1201"
       xlink:href="#linear-gradient-17" />
    <linearGradient
       gradientTransform="matrix(0.35277776,0,0,0.35277776,-799.463,-1346.7544)"
       id="linear-gradient-24"
       x1="2479.55"
       y1="4066.8"
       x2="2479.55"
       y2="4167.9302"
       xlink:href="#linear-gradient-17" />
    <linearGradient
       gradientTransform="matrix(0.35277776,0,0,0.35277776,-799.463,-1346.7544)"
       id="linear-gradient-23"
       x1="2436.97"
       y1="4072.9299"
       x2="2436.97"
       y2="4168.96"
       xlink:href="#linear-gradient-17" />
    <linearGradient
       gradientTransform="matrix(0.35277776,0,0,0.35277776,-799.463,-1346.7544)"
       id="linear-gradient-22"
       x1="2378.1599"
       y1="4086.4299"
       x2="2378.1599"
       y2="4172.6602"
       xlink:href="#linear-gradient-17" />
    <linearGradient
       gradientTransform="matrix(0.35277776,0,0,0.35277776,-799.463,-1346.7544)"
       id="linear-gradient-21"
       x1="2287.6399"
       y1="4087.3101"
       x2="2287.6399"
       y2="4171.6802"
       xlink:href="#linear-gradient-17" />
    <linearGradient
       gradientTransform="matrix(0.35277776,0,0,0.35277776,-799.463,-1346.7544)"
       id="linear-gradient-20"
       x1="2195.29"
       y1="4086.8101"
       x2="2195.29"
       y2="4171.48"
       xlink:href="#linear-gradient-17" />
    <linearGradient
       gradientTransform="matrix(0.35277776,0,0,0.35277776,-799.463,-1346.7544)"
       id="linear-gradient-19"
       x1="2137.1599"
       y1="4073.0901"
       x2="2137.1599"
       y2="4169.4399"
       xlink:href="#linear-gradient-17" />
    <linearGradient
       gradientTransform="matrix(0.35277776,0,0,0.35277776,-799.463,-1346.7544)"
       id="linear-gradient-18"
       x1="2076.05"
       y1="4081.47"
       x2="2076.05"
       y2="4166.5"
       xlink:href="#linear-gradient-17" />
    <linearGradient
       gradientTransform="matrix(0.35277776,0,0,0.35277776,-799.463,-1346.7544)"
       inkscape:collect="always"
       xlink:href="#linear-gradient-17"
       id="linearGradient3451"
       gradientUnits="userSpaceOnUse"
       x1="2001.12"
       y1="4054.3701"
       x2="2001.12"
       y2="4161.6802" />
    <linearGradient
       gradientTransform="matrix(0.35277776,0,0,0.35277776,-799.463,-1346.7544)"
       id="linear-gradient-16"
       x1="2561.99"
       y1="3900.46"
       x2="2065.98"
       y2="4289.6899"
       gradientUnits="userSpaceOnUse">
      <stop
         offset="0.21"
         stop-color="#22aae2"
         id="stop1793" />
      <stop
         offset="0.5"
         stop-color="#2084b6"
         id="stop1795" />
      <stop
         offset="1"
         stop-color="#1b3d63"
         id="stop1797" />
    </linearGradient>
    <linearGradient
       gradientTransform="matrix(0.35277776,0,0,0.35277776,-799.463,-1346.7544)"
       id="linear-gradient-15"
       x1="2299.53"
       y1="4326.3901"
       x2="2299.53"
       y2="4295.8701"
       gradientUnits="userSpaceOnUse">
      <stop
         offset="0.54"
         stop-color="#304855"
         id="stop1782" />
      <stop
         offset="0.63"
         stop-color="#1c333f"
         id="stop1784" />
      <stop
         offset="0.73"
         stop-color="#0d242f"
         id="stop1786" />
      <stop
         offset="0.85"
         stop-color="#051b26"
         id="stop1788" />
      <stop
         offset="1"
         stop-color="#021823"
         id="stop1790" />
    </linearGradient>
    <linearGradient
       gradientTransform="matrix(0.35277776,0,0,0.35277776,-799.463,-1346.7544)"
       id="linear-gradient-14"
       x1="2262.97"
       y1="4333.6699"
       x2="2333.5801"
       y2="4408.3301"
       xlink:href="#linear-gradient-12" />
    <linearGradient
       id="linear-gradient-12"
       x1="1994.9399"
       y1="3919.45"
       x2="2143.04"
       y2="4076.05"
       gradientUnits="userSpaceOnUse">
      <stop
         offset="0"
         stop-color="#00b5f0"
         id="stop1773" />
      <stop
         offset="0.48"
         stop-color="#fffffb"
         id="stop1775" />
      <stop
         offset="1"
         stop-color="#00b5f0"
         id="stop1777" />
    </linearGradient>
    <linearGradient
       id="linear-gradient-13"
       x1="-476.89999"
       y1="3917.78"
       x2="-327.03"
       y2="4076.25"
       gradientTransform="matrix(-0.35277776,0,0,0.35277776,-48.75192,-1346.7544)"
       xlink:href="#linear-gradient-12" />
    <linearGradient
       gradientTransform="matrix(0.35277776,0,0,0.35277776,-799.463,-1346.7544)"
       inkscape:collect="always"
       xlink:href="#linear-gradient-12"
       id="linearGradient3449"
       gradientUnits="userSpaceOnUse"
       x1="1994.9399"
       y1="3919.45"
       x2="2143.04"
       y2="4076.05" />
    <linearGradient
       gradientTransform="matrix(0.35277776,0,0,0.35277776,-799.463,-1346.7544)"
       id="linear-gradient-11"
       x1="2531.55"
       y1="3925.1599"
       x2="2534.55"
       y2="4058.75"
       gradientUnits="userSpaceOnUse">
      <stop
         offset="0"
         stop-color="#2a6086"
         id="stop1762" />
      <stop
         offset="0.33"
         stop-color="#2b6082"
         id="stop1764" />
      <stop
         offset="0.66"
         stop-color="#065a7f"
         id="stop1766" />
      <stop
         offset="0.87"
         stop-color="#023d63"
         id="stop1768" />
      <stop
         offset="1"
         stop-color="#003258"
         id="stop1770" />
    </linearGradient>
    <linearGradient
       gradientTransform="matrix(0.35277776,0,0,0.35277776,-799.463,-1346.7544)"
       id="linear-gradient-10"
       x1="2476.8899"
       y1="4355.8398"
       x2="2321.71"
       y2="4058.99"
       gradientUnits="userSpaceOnUse">
      <stop
         offset="0"
         stop-color="#2a6086"
         id="stop1755" />
      <stop
         offset="0.33"
         stop-color="#2b6082"
         id="stop1757" />
      <stop
         offset="1"
         stop-color="#00557b"
         id="stop1759" />
    </linearGradient>
    <linearGradient
       gradientTransform="matrix(0.35277776,0,0,0.35277776,-799.463,-1346.7544)"
       id="linear-gradient-9"
       x1="2341.1499"
       y1="4432.96"
       x2="2050.6899"
       y2="3877.29"
       gradientUnits="userSpaceOnUse">
      <stop
         offset="0"
         stop-color="#286fad"
         id="stop1748" />
      <stop
         offset="0.33"
         stop-color="#2b6082"
         id="stop1750" />
      <stop
         offset="1"
         stop-color="#006183"
         id="stop1752" />
    </linearGradient>
    <linearGradient
       gradientTransform="matrix(0.35277776,0,0,0.35277776,-799.463,-1346.7544)"
       id="linear-gradient-8"
       x1="2058.6299"
       y1="3928.3301"
       x2="2063.52"
       y2="4052.8401"
       gradientUnits="userSpaceOnUse">
      <stop
         offset="0"
         stop-color="#5575b0"
         id="stop1739" />
      <stop
         offset="0.42"
         stop-color="#5172ab"
         id="stop1741" />
      <stop
         offset="0.75"
         stop-color="#4a6ca3"
         id="stop1743" />
      <stop
         offset="1"
         stop-color="#002743"
         id="stop1745" />
    </linearGradient>
    <linearGradient
       gradientTransform="matrix(0.35277776,0,0,0.35277776,-799.463,-1346.7544)"
       id="linear-gradient-7"
       x1="2323.46"
       y1="4319.02"
       x2="2251.3601"
       y2="4375.6001"
       gradientUnits="userSpaceOnUse">
      <stop
         offset="0.21"
         stop-color="#00b7eb"
         id="stop1726" />
      <stop
         offset="0.32"
         stop-color="#01b1e5"
         id="stop1728" />
      <stop
         offset="0.47"
         stop-color="#05a1d3"
         id="stop1730" />
      <stop
         offset="0.64"
         stop-color="#0b87b6"
         id="stop1732" />
      <stop
         offset="0.83"
         stop-color="#13638d"
         id="stop1734" />
      <stop
         offset="1"
         stop-color="#1b3d63"
         id="stop1736" />
    </linearGradient>
    <linearGradient
       gradientTransform="matrix(0.35277776,0,0,0.35277776,-799.463,-1346.7544)"
       id="linear-gradient-6"
       x1="2581.95"
       y1="3944.1599"
       x2="2300.5"
       y2="4165.02"
       xlink:href="#linear-gradient" />
    <linearGradient
       id="linear-gradient"
       x1="1923.6801"
       y1="4002.97"
       x2="2350.1201"
       y2="4342.2998"
       gradientUnits="userSpaceOnUse">
      <stop
         offset="0.21"
         stop-color="#00b7eb"
         id="stop1708" />
      <stop
         offset="0.49"
         stop-color="#098fbf"
         id="stop1710" />
      <stop
         offset="1"
         stop-color="#1b3d63"
         id="stop1712" />
    </linearGradient>
    <linearGradient
       id="linear-gradient-5"
       x1="-90.68"
       y1="3920.01"
       x2="224.64999"
       y2="4170.9399"
       gradientTransform="matrix(-0.35277776,0,0,0.35277776,88.891383,-1346.7544)"
       xlink:href="#linear-gradient" />
    <linearGradient
       gradientTransform="matrix(0.35277776,0,0,0.35277776,-799.463,-1346.7544)"
       id="linear-gradient-4"
       x1="1990.28"
       y1="3920.1201"
       x2="2305.7"
       y2="4171.1201"
       xlink:href="#linear-gradient" />
    <linearGradient
       gradientTransform="matrix(0.35277776,0,0,0.35277776,-799.463,-1346.7544)"
       id="linear-gradient-3"
       x1="1990.49"
       y1="3920.01"
       x2="2305.8201"
       y2="4170.9399"
       gradientUnits="userSpaceOnUse">
      <stop
         offset="0.21"
         stop-color="#00aadb"
         id="stop1716" />
      <stop
         offset="0.52"
         stop-color="#0a82af"
         id="stop1718" />
      <stop
         offset="1"
         stop-color="#1b3d63"
         id="stop1720" />
    </linearGradient>
    <linearGradient
       gradientTransform="matrix(0.35277776,0,0,0.35277776,-799.463,-1346.7544)"
       id="linear-gradient-2"
       x1="2359.5801"
       y1="4107.4502"
       x2="2481.79"
       y2="4204.6899"
       xlink:href="#linear-gradient" />
    <linearGradient
       gradientTransform="matrix(0.35277776,0,0,0.35277776,-799.463,-1346.7544)"
       inkscape:collect="always"
       xlink:href="#linear-gradient"
       id="linearGradient3447"
       gradientUnits="userSpaceOnUse"
       x1="1923.6801"
       y1="4002.97"
       x2="2350.1201"
       y2="4342.2998" />
  </defs>
  <sodipodi:namedview
     id="base"
     pagecolor="#ffffff"
     bordercolor="#666666"
     borderopacity="1.0"
     inkscape:pageopacity="0.0"
     inkscape:pageshadow="2"
     inkscape:zoom="0.13341116"
     inkscape:cx="1338.0924"
     inkscape:cy="445.89792"
     inkscape:document-units="mm"
     inkscape:current-layer="layer1"
     showgrid="false"
     fit-margin-top="0"
     fit-margin-left="0"
     fit-margin-right="0"
     fit-margin-bottom="0"
     inkscape:window-width="1189"
     inkscape:window-height="712"
     inkscape:window-x="2744"
     inkscape:window-y="442"
     inkscape:window-maximized="0" />
  <metadata
     id="metadata1808">
    <rdf:RDF>
      <cc:Work
         rdf:about="">
        <dc:format>image/svg+xml</dc:format>
        <dc:type
           rdf:resource="http://purl.org/dc/dcmitype/StillImage" />
        <dc:title></dc:title>
      </cc:Work>
    </rdf:RDF>
  </metadata>
  <g
     inkscape:label="Layer 1"
     inkscape:groupmode="layer"
     id="layer1"
     transform="translate(114.56263,-35.136139)">
    <g
       id="g7424">
      <path
         style="fill:none;stroke-width:0.35277775"
         inkscape:connector-curvature="0"
         id="path2151"
         d="m 81.020902,169.32927 v 0 0 c 0,0 -0.0071,-0.004 0,0 z"
         class="cls-1" />
      <path
         inkscape:connector-curvature="0"
         id="path2153"
         d="m 81.010318,169.31869 a 0.20108333,0.20108333 0 0 1 -0.0635,-0.127 0.16933333,0.16933333 0 0 0 0.0635,0.127 z"
         style="stroke-width:0.35277775" />
      <path
         inkscape:connector-curvature="0"
         id="path2155"
         d="m 71.164291,75.684416 h -0.197553 c -18.252724,0.726723 -37.697838,1.09361 -57.795588,1.09361 -20.9938004,0 -41.98055,-0.381 -60.64249,-1.100667 h -0.0317 l 0.56797,0.419807 c 18.54553,0.705556 39.3100196,1.0795 60.10627,1.0795 20.10834,0 39.553448,-0.370417 57.809698,-1.09714 h 0.197556 z"
         style="stroke-width:0.35277775" />
      <path
         style="fill:none;stroke-width:0.35277775"
         inkscape:connector-curvature="0"
         id="path2157"
         d="m 81.010318,169.31869 a 0.20108333,0.20108333 0 0 1 -0.0635,-0.127 0.16933333,0.16933333 0 0 0 0.0635,0.127 z"
         class="cls-1" />
      <path
         style="fill:none;stroke-width:0.35277775"
         inkscape:connector-curvature="0"
         id="path2159"
         d="m 81.020902,169.32927 v 0 0 c 0,0 -0.0071,-0.004 0,0 z"
         class="cls-1" />
      <path
         inkscape:connector-curvature="0"
         id="path2161"
         d="m 139.71959,77.469472 -0.0353,-0.05292 -0.16933,-0.261057 a 6.2088887,6.2088887 0 0 0 -1.93675,-1.799166 l -6.90033,-3.802944 a 2.966861,2.966861 0 0 0 -1.86267,-0.433917 c -6.15244,1.019527 -15.31408,1.996721 -26.51125,2.822221 l -0.20461,0.41275 h 0.11642 c 11.26419,-0.83961 20.46111,-1.82386 26.65236,-2.843387 a 2.5470555,2.5470555 0 0 1 1.60866,0.381 l 6.91092,3.81 a 5.7573331,5.7573331 0 0 1 1.80269,1.67922 l 0.13759,0.20814 c 0.0282,0.04233 0.0494,0.08114 0.0494,0.08114 a 5.4680554,5.4680554 0 0 1 0.78669,2.87161 v 38.036508 c 0,2.59644 -1.5875,4.89302 -3.77472,5.46452 -7.12611,2.03906 -28.92778,4.72017 -49.674638,6.10306 -0.8255,0.0459 -1.552221,0.97014 -1.552221,1.97203 v 32.45555 c 0,2.23661 -1.742723,4.20864 -3.880556,4.39914 h -0.137583 c -34.663942,3.66889 -84.6984124,3.56305 -133.868582,-0.28222 h -0.2293 c -2.11667,-0.1905 -3.84881,-2.16253 -3.84881,-4.39914 v -32.28622 c 0,-1.00895 -0.70555,-1.91206 -1.53811,-1.97203 -19.61797,-1.33703 -40.46713,-3.90525 -51.87597,-6.38528 -2.24719,-0.50447 -3.94053,-2.87161 -3.94053,-5.50686 V 80.866722 a 5.5174444,5.5174444 0 0 1 0.63853,-2.582333 5.2422777,5.2422777 0 0 1 1.7392,-2.010833 l 8.27969,-4.04989 a 2.5011944,2.5011944 0 0 1 1.80975,-0.39864 c 5.25639,0.79728 14.43567,1.89089 23.09636,2.547057 h 0.11289 l -0.20108,-0.41275 c -8.61484,-0.656167 -17.72356,-1.742724 -22.9482,-2.532944 a 2.8680833,2.8680833 0 0 0 -2.06727,0.448027 l -7.94456,3.880556 -0.35278,0.169334 a 5.6444444,5.6444444 0 0 0 -1.88383,2.17311 5.9054997,5.9054997 0 0 0 -0.68439,2.758723 v 37.267441 c 0,2.82222 1.83092,5.34811 4.2545,5.89492 11.42647,2.46944 32.2968,5.0553 51.93241,6.39586 0.62442,0.0423 1.17123,0.77964 1.17123,1.57339 v 32.28622 c 0,2.43769 1.89441,4.58611 4.23333,4.79425 h 0.22225 c 49.1842796,3.8488 99.2505,3.95464 133.917965,0.28575 a 0.18697222,0.18697222 0 0 1 -0.09525,-0.0282 0.6808611,0.6808611 0 0 0 0.232834,0.0212 c 2.3495,-0.20461 4.233333,-2.35655 4.233333,-4.79425 v -32.45555 c 0,-0.79022 0.564446,-1.54164 1.181806,-1.57339 20.757442,-1.38642 42.612022,-4.07458 49.741662,-6.11717 2.35303,-0.61736 4.064,-3.07622 4.064,-5.84905 V 80.545693 a 5.8666944,5.8666944 0 0 0 -0.80786,-3.076221 z M 81.020902,169.32927 c 0,0 0,0 0,0 a 0.16933333,0.16933333 0 0 1 -0.0635,-0.127 0.20108333,0.20108333 0 0 0 0.0635,0.127 z"
         style="stroke-width:0.35277775" />
      <path
         style="fill:url(#linearGradient3447);stroke-width:0.35277775"
         inkscape:connector-curvature="0"
         id="path2163"
         d="m -95.64668,35.136139 c 26.14789,64.6183 63.09784,130.337271 107.45611,186.118491 V 129.21844 C -24.43848,109.74158 -66.90587,72.262472 -95.64668,35.136139 Z"
         class="cls-39" />
      <path
         style="fill:url(#linear-gradient-2);stroke-width:0.35277775"
         inkscape:connector-curvature="0"
         id="path2165"
         d="m 11.80943,129.21844 v 92.03619 C 56.167708,165.47341 93.117652,99.754439 119.26554,35.136139 90.521208,72.262472 48.05735,109.74158 11.80943,129.21844 Z"
         class="cls-40" />
      <path
         style="fill:url(#linear-gradient-3);stroke-width:0.35277775"
         inkscape:connector-curvature="0"
         id="path2167"
         d="m -95.64668,35.136139 c 28.74081,37.126333 71.2082,74.605441 107.45611,94.082301 V 111.48783 C -18.57179,99.207639 -65.01145,64.790639 -95.64668,35.136139 Z"
         class="cls-41" />
      <path
         style="fill:url(#linear-gradient-4);stroke-width:0.35277775"
         inkscape:connector-curvature="0"
         id="path2169"
         d="M 10.79696,127.52864 V 112.11578 C -17.48876,100.4988 -57.51846,71.087722 -85.90295,45.557194 c 28.00702,33.206972 64.66769,64.406636 96.69991,81.971446 z"
         class="cls-42" />
      <path
         style="fill:url(#linear-gradient-5);stroke-width:0.35277775"
         inkscape:connector-curvature="0"
         id="path2171"
         d="M 119.26554,35.136139 C 90.521208,72.262472 48.05735,109.74158 11.80943,129.21844 V 111.48783 C 42.19065,99.207639 88.630318,64.790639 119.26554,35.136139 Z"
         class="cls-43" />
      <path
         style="fill:url(#linear-gradient-6);stroke-width:0.35277775"
         inkscape:connector-curvature="0"
         id="path2173"
         d="m 12.8219,112.11578 v 15.41286 C 44.86118,109.96383 81.514791,78.764166 109.52182,45.557194 81.137318,71.087722 41.10763,100.49528 12.8219,112.11578 Z"
         class="cls-44" />
      <path
         style="fill:url(#linear-gradient-7);stroke-width:0.35277775"
         inkscape:connector-curvature="0"
         id="path2175"
         d="m 10.77226,165.72389 -31.39722,9.23572 q 15.1518096,22.67302 31.39722,43.32816 z"
         class="cls-45" />
      <path
         style="fill:url(#linear-gradient-8);stroke-width:0.35277775"
         inkscape:connector-curvature="0"
         id="path2177"
         d="m -91.88606,41.514361 q 8.52311,20.510498 18.28799,40.682332 l 20.8527,0.754946 A 395.78492,395.78492 0 0 1 -91.88606,41.514361 Z"
         class="cls-46" />
      <path
         style="fill:url(#linear-gradient-9);stroke-width:0.35277775"
         inkscape:connector-curvature="0"
         id="path2179"
         d="m -45.43582,89.527416 q -3.69358,-3.245557 -7.30955,-6.575777 l -20.8527,-0.754946 q 11.99445,24.832027 25.75278,48.835027 13.02808,22.71889 27.20622,43.92789 l 31.39722,-9.23572 V 129.79347 C -6.8419304,120.26142 -26.25882,106.35492 -45.43582,89.527416 Z"
         class="cls-47" />
      <path
         style="fill:url(#linear-gradient-10);stroke-width:0.35277775"
         inkscape:connector-curvature="0"
         id="path2181"
         d="M 69.051154,89.527416 C 49.87768,106.35492 30.45726,120.26142 12.8466,129.79347 v 88.4943 c 20.91266,-26.55711 40.625888,-55.89058 58.610498,-87.25605 q 12.943416,-22.57778 24.38047,-46.002221 l -22.955247,1.090084 q -1.905,1.7145 -3.831167,3.407833 z"
         class="cls-48" />
      <path
         style="fill:url(#linear-gradient-11);stroke-width:0.35277775"
         inkscape:connector-curvature="0"
         id="path2183"
         d="M 72.882321,86.119583 95.837568,85.029499 Q 106.3574,63.510056 115.50493,41.514361 c -12.36133,15.24 -26.927528,30.487055 -42.622609,44.605222 z"
         class="cls-49" />
      <path
         style="fill:url(#linearGradient3449);stroke-width:0.35277775"
         inkscape:connector-curvature="0"
         id="path2185"
         d="m -95.2304,35.503028 c 8.65011,9.355666 34.417,38.301081 52.59564,54.539442 C -61.34257,76.626333 -86.22751,47.857305 -95.2304,35.503028 Z"
         class="cls-50" />
      <path
         style="fill:url(#linear-gradient-13);stroke-width:0.35277775"
         inkscape:connector-curvature="0"
         id="path2187"
         d="M 119.26554,35.136139 C 110.61543,44.491805 83.913681,73.804109 65.735041,90.04247 84.442848,76.626333 110.26265,47.493944 119.26554,35.136139 Z"
         class="cls-51" />
      <path
         style="fill:url(#linear-gradient-14);stroke-width:0.35277775"
         inkscape:connector-curvature="0"
         id="path2189"
         d="M 11.1956,220.11869 C 10.49004,207.9408 10.13726,178.11344 10.13726,171.40361 h 2.29659 c -0.35631,20.65866 -0.35631,37.23922 -1.23825,48.71508 z"
         class="cls-52" />
      <path
         style="fill:url(#linear-gradient-15);stroke-width:0.35277775"
         inkscape:connector-curvature="0"
         id="path2191"
         d="m -26.0401,168.50025 c 2.11667,3.97933 5.61623,8.42433 7.25312,10.99961 8.42786,-4.9142 23.1739696,-7.25664 30.19424,-7.25664 7.02028,0 23.17398,3.2773 30.66345,7.48947 l 7.48947,-10.76678 z"
         class="cls-53" />
      <path
         style="fill:none;stroke:#231f20;stroke-width:0.35277775"
         inkscape:connector-curvature="0"
         id="path2193"
         d="m -58.25576,128.76336 c -20.97264,-1.15006 -40.73525,-3.97933 -51.68194,-6.35 -1.65806,-0.37394 -2.95275,-2.20839 -2.95275,-4.27214 V 80.866722 c 0,-2.19075 1.61572,-3.979333 3.429,-3.601863 22.07683,4.392084 73.17316,6.70278 121.96233,6.614584 52.331051,-0.102304 104.54569,-2.582334 123.11944,-6.95325 1.80975,-0.194027 3.27377,1.411113 3.27377,3.6195 v 38.036497 c 0,2.02142 -1.2453,3.82764 -2.85397,4.23334 -7.73994,2.21544 -30.33889,4.78366 -49.388885,6.05719 -1.520471,0.0811 -2.755194,1.53106 -2.755194,3.23497 v 32.45556 c 0,1.59808 -1.210027,3.00214 -2.705806,3.13266 a 1.5381111,1.5381111 0 0 1 -0.179917,0 c -39.338248,4.16631 -90.3534384,3.10092 -133.702778,-0.28927 h -0.14463 c -1.49578,-0.13406 -2.70581,-1.53812 -2.70581,-3.1362 v -32.28622 c 0,-1.68981 -1.21708,-3.12914 -2.72344,-3.23497"
         class="cls-54" />
      <path
         style="fill:url(#linear-gradient-16);stroke-width:0.35277775"
         inkscape:connector-curvature="0"
         id="path2195"
         d="m -58.25576,128.76336 c -20.21769,-1.37936 -40.73525,-3.97933 -51.68194,-6.35 -1.65806,-0.37394 -2.95275,-2.20839 -2.95275,-4.27214 V 80.866722 c 0,-2.19075 1.61572,-3.979333 3.429,-3.601863 22.07683,4.392084 73.17316,6.70278 121.96233,6.614584 52.331051,-0.102304 104.54569,-2.582334 123.11944,-6.95325 1.80975,-0.194027 3.27377,1.411113 3.27377,3.6195 v 38.036497 c 0,2.02142 -1.2453,3.82764 -2.85397,4.23334 -7.73994,2.21544 -30.33889,4.78366 -49.388885,6.05719 -1.520471,0.0811 -2.755194,1.53106 -2.755194,3.23497 v 32.45556 c 0,1.59808 -1.210027,3.00214 -2.705806,3.13266 a 1.5381111,1.5381111 0 0 1 -0.179917,0 c -39.338248,4.16631 -90.3534384,3.10092 -133.702778,-0.28927 h -0.14463 c -1.49578,-0.13406 -2.70581,-1.53812 -2.70581,-3.1362 v -32.28622 c 0,-1.68981 -1.21708,-3.12914 -2.72344,-3.23497"
         class="cls-55" />
      <path
         style="opacity:0.23999999;fill:#24214a;stroke-width:0.35277775"
         inkscape:connector-curvature="0"
         id="path2197"
         d="m -83.40529,88.617249 5.77145,34.999081 -10.23056,-1.35114 -0.54328,-6.24064 -3.66888,-0.4833 -0.56445,6.09247 -10.20586,-1.76389 5.00592,-33.161108 z m -5.24228,21.279551 q -0.70555,-5.88433 -1.54516,-14.594411 -1.49225,9.680221 -1.92617,14.135801 z"
         class="cls-56" />
      <path
         style="opacity:0.23999999;fill:#24214a;stroke-width:0.35277775"
         inkscape:connector-curvature="0"
         id="path2199"
         d="m -52.9394,97.352029 v 27.915301 l -9.97303,-0.59267 0.16228,-2.32127 a 5.997222,5.997222 0 0 1 -2.48708,1.99672 7.4083331,7.4083331 0 0 1 -3.39372,0.51153 8.8194441,8.8194441 0 0 1 -3.62656,-0.889 5.17525,5.17525 0 0 1 -2.11667,-1.92617 6.4029164,6.4029164 0 0 1 -0.85019,-2.3883 43.68447,43.68447 0 0 1 -0.16933,-4.84364 V 96.022049 l 9.81427,0.58209 v 18.965331 c 0,2.18722 0.0882,3.2385 0.18698,3.66889 a 1.2629444,1.2629444 0 0 0 1.32997,0.90311 c 0.58561,-0.0212 1.16064,-0.35278 1.20297,-0.90311 0.0318,-0.43392 0.11994,-1.41111 0.11994,-3.71475 V 96.769939 Z"
         class="cls-56" />
      <path
         style="opacity:0.23999999;fill:#24214a;stroke-width:0.35277775"
         inkscape:connector-curvature="0"
         id="path2201"
         d="m -38.85298,93.478529 v 4.44147 l 2.64936,0.0917 v 4.445001 l -2.64936,-0.0917 v 15.875 q 0,2.77283 0.33161,3.10092 c 0.21872,0.22225 1.13241,0.35277 2.74461,0.41275 v 4.51555 l -3.93347,-0.13758 a 31.690027,31.690027 0 0 1 -4.75545,-0.4057 5.5350831,5.5350831 0 0 1 -2.50825,-1.21003 3.8135277,3.8135277 0 0 1 -1.34761,-2.05316 q -0.26811,-1.143 -0.26811,-5.33047 v -15.12006 l -2.04964,-0.0705 v -4.423841 l 2.04964,0.0706 v -4.445 z"
         class="cls-56" />
      <path
         style="opacity:0.23999999;fill:#24214a;stroke-width:0.35277775"
         inkscape:connector-curvature="0"
         id="path2203"
         d="m -12.60279,107.96711 v 6.88622 q 0,3.78884 -0.43039,5.55625 a 7.521222,7.521222 0 0 1 -1.84855,3.30553 8.4031664,8.4031664 0 0 1 -3.63362,2.26483 16.284222,16.284222 0 0 1 -5.09411,0.73025 20.425833,20.425833 0 0 1 -5.44336,-0.62441 7.6305831,7.6305831 0 0 1 -3.4678,-1.88384 7.1508054,7.1508054 0 0 1 -1.76389,-3.05152 q -0.52917,-1.78859 -0.52917,-5.36575 v -7.2002 q 0,-3.91936 0.95956,-6.12069 a 7.3871664,7.3871664 0 0 1 3.45369,-3.527781 q 2.49061,-1.3335 6.37822,-1.3335 a 16.287749,16.287749 0 0 1 5.59859,0.85725 9.0910831,9.0910831 0 0 1 3.61244,2.233081 7.761111,7.761111 0 0 1 1.73567,2.82222 q 0.47625,1.46756 0.47272,4.45206 z m -9.73667,-2.11667 q 0,-2.16605 -0.254,-2.72344 c -0.17286,-0.37395 -0.53622,-0.56445 -1.09008,-0.56445 a 1.1218333,1.1218333 0 0 0 -1.11125,0.56445 q -0.27869,0.56092 -0.27869,2.72344 v 12.7 q 0,1.9932 0.27869,2.59645 a 1.0795,1.0795 0 0 0 1.09008,0.60325 c 0.55386,0 0.92075,-0.18345 1.09714,-0.55034 0.17639,-0.36688 0.26811,-1.15711 0.26811,-2.37419 z"
         class="cls-56" />
      <path
         style="opacity:0.23999999;fill:#24214a;stroke-width:0.35277775"
         inkscape:connector-curvature="0"
         id="path2205"
         d="m -0.01568037,98.554999 -0.17286,2.670531 a 7.4647777,7.4647777 0 0 1 2.68816997,-2.398891 7.7399444,7.7399444 0 0 1 3.556,-0.80081 7.076722,7.076722 0 0 1 6.1206904,3.199701 8.3819997,8.3819997 0 0 1 2.76578,-2.398891 8.1138887,8.1138887 0 0 1 7.52475,0.25753 4.7095833,4.7095833 0 0 1 2.08491,2.596441 c 0.30339,1.01953 0.45862,2.68464 0.45862,4.98122 v 20.37997 h -9.398 v -18.73602 c 0,-2.39536 -0.0917,-3.88056 -0.2787,-4.45559 a 1.2241389,1.2241389 0 0 0 -1.30528,-0.85725 c -0.70555,0 -1.15358,0.28575 -1.35466,0.8502 -0.20109,0.56444 -0.30692,2.05316 -0.30692,4.46264 V 127.0418 H 2.9723496 v -18.27036 q 0,-4.12044 -0.22931,-4.93889 c -0.15169,-0.55033 -0.57502,-0.82902 -1.26647,-0.82902 a 1.5486944,1.5486944 0 0 0 -1.10771997,0.43391 1.5733888,1.5733888 0 0 0 -0.508,1.05834 c -0.0317,0.41627 -0.0494,1.30527 -0.0494,2.65641 v 19.9002 H -9.5936104 V 98.565579 Z"
         class="cls-56" />
      <path
         style="opacity:0.23999999;fill:#24214a;stroke-width:0.35277775"
         inkscape:connector-curvature="0"
         id="path2207"
         d="m 36.97307,109.30414 -9.14047,0.22225 v -1.90853 q 0,-3.29847 0.85019,-5.10822 c 0.5715,-1.2065 1.70745,-2.28953 3.42195,-3.245561 1.7145,-0.95603 3.937,-1.46403 6.67102,-1.53105 q 4.93889,-0.11995 7.40834,1.37583 2.46944,1.495781 3.00214,3.750031 0.50094,2.25425 0.50447,9.31686 v 14.30161 l -9.48267,0.2293 v -2.54 a 6.1030554,6.1030554 0 0 1 -2.28247,2.36009 6.9214997,6.9214997 0 0 1 -3.33375,0.85019 8.7065554,8.7065554 0 0 1 -4.64961,-1.16416 q -2.11667,-1.2312 -2.11667,-5.55978 v -2.34597 q 0,-3.20675 1.12184,-4.39561 1.12183,-1.18887 5.57388,-2.84692 4.7625,-1.79211 5.09764,-2.38478 0.33514,-0.59267 0.33514,-2.36361 c 0,-1.48167 -0.12347,-2.44828 -0.35278,-2.89278 a 1.2241389,1.2241389 0 0 0 -1.20297,-0.64205 c -0.63853,0 -1.03716,0.21519 -1.18886,0.59619 -0.15169,0.381 -0.23283,1.36525 -0.23283,2.94922 z m 2.66347,3.83469 q -2.27541,1.5875 -2.63878,2.63172 a 9.648472,9.648472 0 0 0 -0.35277,2.99156 c 0,1.48519 0.1023,2.43769 0.31397,2.86456 0.21167,0.42686 0.63147,0.63147 1.25589,0.61736 0.62441,-0.0141 0.97719,-0.1905 1.15711,-0.53623 0.17992,-0.34572 0.27164,-1.23472 0.27164,-2.67405 z"
         class="cls-56" />
      <path
         style="opacity:0.23999999;fill:#24214a;stroke-width:0.35277775"
         inkscape:connector-curvature="0"
         id="path2209"
         d="m 63.036291,92.822359 v 4.58611 l 2.649363,-0.10583 v 4.586111 l -2.649363,0.10583 v 15.55045 q 0,2.86808 0.331613,3.175 c 0.215194,0.21166 1.132417,0.28222 2.74461,0.21872 v 4.67078 l -3.933473,0.15875 a 30.47647,30.47647 0 0 1 -4.74486,-0.0282 5.0235554,5.0235554 0 0 1 -2.511777,-1.05833 3.5912777,3.5912777 0 0 1 -1.35114,-2.02142 q -0.264583,-1.16416 -0.264583,-5.49627 v -14.74964 l -2.049641,0.0811 v -4.586111 l 2.049641,-0.0847 v -4.58611 z"
         class="cls-56" />
      <path
         style="opacity:0.23999999;fill:#24214a;stroke-width:0.35277775"
         inkscape:connector-curvature="0"
         id="path2211"
         d="m 77.754181,90.980859 v 4.43794 l -9.994193,0.38806 v -4.437943 z m 0,6.16656 v 28.066991 l -9.994193,0.54681 V 97.538999 Z"
         class="cls-56" />
      <path
         style="opacity:0.23999999;fill:#24214a;stroke-width:0.35277775"
         inkscape:connector-curvature="0"
         id="path2213"
         d="m 103.20357,105.3495 v 6.88622 c 0,2.52942 -0.14464,4.38503 -0.43039,5.57742 a 7.8810554,7.8810554 0 0 1 -1.84856,3.36903 8.8194441,8.8194441 0 0 1 -3.633606,2.40241 16.721666,16.721666 0 0 1 -5.094112,0.92075 20.510499,20.510499 0 0 1 -5.443361,-0.4198 7.3271944,7.3271944 0 0 1 -3.467806,-1.76389 6.8438887,6.8438887 0 0 1 -1.763887,-2.9845 q -0.529167,-1.76389 -0.529167,-5.34811 v -7.19314 q 0,-3.91936 0.959554,-6.15597 a 7.761111,7.761111 0 0 1 3.453696,-3.665371 q 2.494137,-1.41111 6.378221,-1.57338 a 16.016111,16.016111 0 0 1 5.598583,0.64911 8.6042497,8.6042497 0 0 1 3.608915,2.09902 7.3095554,7.3095554 0 0 1 1.7392,2.772841 q 0.47625,1.44639 0.47272,4.42736 z m -9.736668,-1.76389 q 0,-2.159 -0.257527,-2.71286 c -0.169334,-0.35278 -0.529167,-0.54328 -1.086557,-0.52211 a 1.1606389,1.1606389 0 0 0 -1.11125,0.60325 q -0.278693,0.57855 -0.278693,2.73403 v 12.7 c 0,1.32997 0.09172,2.19427 0.278693,2.58586 a 1.0265833,1.0265833 0 0 0 1.086557,0.56444 1.143,1.143 0 0 0 1.100666,-0.59267 c 0.17639,-0.37041 0.268111,-1.16769 0.268111,-2.38477 z"
         class="cls-56" />
      <path
         style="opacity:0.23999999;fill:#24214a;stroke-width:0.35277775"
         inkscape:connector-curvature="0"
         id="path2215"
         d="m 115.46965,94.191139 -0.17286,2.54353 a 8.1985554,8.1985554 0 0 1 2.58233,-2.59292 8.5760277,8.5760277 0 0 1 3.52778,-1.18886 c 1.66511,-0.20461 3.02331,-0.0318 4.08517,0.51505 a 3.8805554,3.8805554 0 0 1 2.04258,2.31423 q 0.45508,1.48872 0.45508,5.097631 v 19.27931 l -9.77194,1.19239 v -19.05 c 0,-1.89442 -0.0741,-3.040951 -0.21167,-3.439581 -0.13758,-0.39864 -0.53269,-0.55387 -1.17828,-0.47625 -0.64558,0.0776 -1.09713,0.37394 -1.27,0.87136 -0.17286,0.49741 -0.25752,1.785051 -0.25752,3.855861 v 18.6055 l -9.77195,1.18886 V 95.401169 Z"
         class="cls-56" />
      <path
         style="opacity:0.23999999;fill:#24214a;stroke-width:0.35277775"
         inkscape:connector-curvature="0"
         id="path2217"
         d="m -45.22415,129.95222 7.54944,0.40569 q 7.33778,0.39864 9.94128,1.12889 c 1.73214,0.49036 3.05506,1.21003 3.95817,2.16253 a 6.3499997,6.3499997 0 0 1 1.69686,3.11503 c 0.22578,1.12536 0.35278,3.69358 0.35278,6.93914 v 11.99444 q 0,4.58611 -0.49389,6.11364 a 4.2015833,4.2015833 0 0 1 -1.72861,2.31422 7.2284164,7.2284164 0 0 1 -3.03742,1.02659 30.942137,30.942137 0 0 1 -5.43278,0 l -12.7,-0.81845 z m 10.20586,6.65339 v 22.49664 c 1.44639,0.0917 2.33539,-0.10584 2.67053,-0.59972 0.33514,-0.49389 0.50094,-1.87678 0.50094,-4.15925 v -13.28562 a 15.815027,15.815027 0 0 0 -0.16933,-2.99155 1.5522222,1.5522222 0 0 0 -0.762,-1.00895 c -0.41275,-0.2293 -1.15711,-0.381 -2.25425,-0.45155 z"
         class="cls-56" />
      <path
         style="opacity:0.23999999;fill:#24214a;stroke-width:0.35277775"
         inkscape:connector-curvature="0"
         id="path2219"
         d="m -8.3588704,131.15166 v 4.44148 L -18.38482,135.37089 v -4.43795 z m 0,6.17009 v 28.71258 L -18.38482,165.81561 v -28.71258 z"
         class="cls-56" />
      <path
         style="opacity:0.23999999;fill:#24214a;stroke-width:0.35277775"
         inkscape:connector-curvature="0"
         id="path2221"
         d="m 4.9902396,137.6075 -0.35278,3.88055 c 1.41111,-2.61408 3.47486,-4.15572 6.1700804,-4.23333 v 9.85661 c -1.7638904,-0.0564 -3.2243904,0.25047 -4.0498904,0.66322 a 2.853972,2.853972 0 0 0 -1.41111,1.76389 q -0.28575,1.12536 -0.28575,5.21406 v 11.75102 l -9.76841,-0.30691 v -28.71258 z"
         class="cls-56" />
      <path
         style="opacity:0.23999999;fill:#24214a;stroke-width:0.35277775"
         inkscape:connector-curvature="0"
         id="path2223"
         d="m 34.46129,152.59703 h -12.5095 v 6.30413 q 0,1.9685 0.30339,2.54353 a 1.1959166,1.1959166 0 0 0 1.16064,0.56797 q 1.05833,0 1.43228,-0.75847 c 0.23989,-0.50447 0.35278,-1.48519 0.35278,-2.93511 v -3.84528 h 9.25336 v 2.14842 a 17.705916,17.705916 0 0 1 -0.37042,4.14161 8.2232497,8.2232497 0 0 1 -1.74272,3.09033 8.427861,8.427861 0 0 1 -3.47486,2.46945 14.608527,14.608527 0 0 1 -5.27403,0.82197 16.675805,16.675805 0 0 1 -5.42925,-0.81139 8.8194441,8.8194441 0 0 1 -3.66536,-2.21897 7.8210831,7.8210831 0 0 1 -1.81328,-3.10797 q -0.508,-1.69334 -0.50447,-4.93889 v -8.46667 q 0,-3.79941 1.12889,-5.99722 a 7.4083331,7.4083331 0 0 1 3.70064,-3.36903 14.139333,14.139333 0 0 1 5.91255,-1.17122 q 4.08517,0 6.73806,1.41111 a 8.0680277,8.0680277 0 0 1 3.72533,3.73592 q 1.05833,2.32833 1.05833,6.54755 z m -9.76841,-4.74134 v -2.11666 q 0,-2.24367 -0.254,-2.89984 a 1.0089444,1.0089444 0 0 0 -1.05834,-0.65616 c -0.64911,0 -1.05833,0.18697 -1.21003,0.55386 -0.15169,0.36689 -0.23283,1.3723 -0.23283,3.00214 v 2.11666 z"
         class="cls-56" />
      <path
         style="opacity:0.23999999;fill:#24214a;stroke-width:0.35277775"
         inkscape:connector-curvature="0"
         id="path2225"
         d="m 58.647738,147.72516 -9.172228,0.19756 v -3.33022 q 0,-1.74272 -0.30339,-2.35656 a 1.1288889,1.1288889 0 0 0 -1.13241,-0.59619 1.1571111,1.1571111 0 0 0 -1.10772,0.56797 c -0.1905,0.35278 -0.28223,1.17828 -0.28223,2.43769 v 13.58195 a 4.826,4.826 0 0 0 0.42686,2.30011 1.3158611,1.3158611 0 0 0 1.25589,0.74083 1.3335,1.3335 0 0 0 1.31586,-0.8255 c 0.22578,-0.53622 0.35278,-1.54869 0.35278,-3.03389 v -3.41488 l 8.653641,-0.18698 a 40.69997,40.69997 0 0 1 -0.278693,5.16114 7.9727777,7.9727777 0 0 1 -1.608667,3.55953 8.695972,8.695972 0 0 1 -3.548943,2.80105 14.19225,14.19225 0 0 1 -5.408088,1.03364 q -4.10986,0.0917 -6.51933,-1.12536 a 7.0096944,7.0096944 0 0 1 -3.40078,-3.48191 q -1.00189,-2.26131 -0.99836,-6.46642 v -8.17386 c 0,-2.4377 0.27164,-4.28978 0.81845,-5.54214 0.5468,-1.25236 1.70744,-2.38831 3.48544,-3.40431 1.778,-1.016 3.94405,-1.54869 6.49111,-1.60161 2.54706,-0.0529 4.699001,0.381 6.494641,1.31234 1.795637,0.93133 2.988027,2.11666 3.58422,3.59127 0.596197,1.47462 0.881947,3.54895 0.881947,6.25475 z"
         class="cls-56" />
      <path
         style="opacity:0.23999999;fill:#24214a;stroke-width:0.35277775"
         inkscape:connector-curvature="0"
         id="path2227"
         d="m 72.060348,131.56794 v 4.64256 l 2.667,-0.1517 v 4.64256 l -2.667,0.15169 v 15.71625 c 0,1.93323 0.211666,2.91042 0.465666,3.07622 0.384527,0.25753 1.266474,0.14817 2.88925,0.0564 v 4.72017 l -4.233333,0.47977 a 30.815137,30.815137 0 0 1 -4.790723,0.0177 4.9706387,4.9706387 0 0 1 -2.525887,-1.03011 3.5277777,3.5277777 0 0 1 -1.358196,-2.02142 q -0.271637,-1.17122 -0.268111,-5.54919 v -14.90839 l -2.067276,0.11642 v -4.64256 l 2.067276,-0.11641 v -4.64256 z"
         class="cls-56" />
      <path
         style="fill:#292e3e;stroke-width:0.35277775"
         inkscape:connector-curvature="0"
         id="path2229"
         d="m -85.16918,84.729639 5.83848,35.411831 -1.22767,1.27706 -9.1052,-2.64231 -0.55033,-6.31472 -3.71475,-0.49036 -0.56797,6.16655 -1.47461,1.24531 -8.85472,-3.01978 3.52777,-32.889471 1.55928,-0.673806 z m -5.29166,21.519441 q -0.70556,-5.95841 -1.56281,-14.767277 -1.50636,9.793117 -1.95086,14.301617 z"
         class="cls-57" />
      <path
         style="fill:#292e3e;stroke-width:0.35277775"
         inkscape:connector-curvature="0"
         id="path2231"
         d="m -54.69976,93.566719 v 28.243391 l -0.82903,1.30528 -9.26394,-1.90147 0.1658,-2.3495 a 6.0748331,6.0748331 0 0 1 -2.5153,2.02141 7.538861,7.538861 0 0 1 -3.43606,0.51859 8.9429164,8.9429164 0 0 1 -3.66889,-0.90312 5.266972,5.266972 0 0 1 -2.15194,-1.94733 6.491111,6.491111 0 0 1 -0.86078,-2.41653 44.74986,44.74986 0 0 1 -0.16933,-4.90361 l -1.19592,-18.189221 1.19592,-0.8255 9.92716,0.58914 v 19.191111 c 0,2.21192 0.0917,3.27731 0.1905,3.71475 a 1.27,1.27 0 0 0 1.34762,0.91017 c 0.58913,-0.0212 1.17122,-0.35278 1.21708,-0.91017 0.0318,-0.44097 0.11994,-1.42875 0.11994,-3.76061 l -0.9913,-18.136311 0.9913,-0.83961 z"
         class="cls-57" />
      <path
         style="fill:#292e3e;stroke-width:0.35277775"
         inkscape:connector-curvature="0"
         id="path2233"
         d="m -40.17943,89.781416 v 4.490863 l 2.67759,0.0917 v 4.49086 l -0.81845,0.80081 -1.85914,-0.89253 v 16.079611 q 0,2.80458 0.33161,3.13619 0.33161,0.33161 2.77989,0.41981 v 4.58611 l -0.81139,1.18886 -3.175,-1.32997 a 32.720137,32.720137 0 0 1 -4.81189,-0.40922 5.6444444,5.6444444 0 0 1 -2.54,-1.22414 3.8805554,3.8805554 0 0 1 -1.36525,-2.07786 q -0.27163,-1.15359 -0.26811,-5.39398 V 98.438559 l -2.07433,-0.0706 -1.05833,-3.77473 1.05833,-0.70555 2.07433,0.0705 -1.02305,-3.845273 1.02305,-0.645583 z"
         class="cls-57" />
      <path
         style="fill:#292e3e;stroke-width:0.35277775"
         inkscape:connector-curvature="0"
         id="path2235"
         d="m -13.43887,104.57339 v 6.96736 q 0,3.83822 -0.43745,5.6268 a 7.602361,7.602361 0 0 1 -1.86619,3.34081 8.5125277,8.5125277 0 0 1 -3.67595,2.29306 16.580555,16.580555 0 0 1 -5.15761,0.7373 20.880916,20.880916 0 0 1 -5.50686,-0.62794 7.761111,7.761111 0 0 1 -3.50661,-1.90853 7.2495831,7.2495831 0 0 1 -1.78505,-3.08681 q -0.53623,-1.80975 -0.5327,-5.43277 v -7.28487 q 0,-3.96522 0.97014,-6.191251 a 7.443611,7.443611 0 0 1 3.4925,-3.58069 q 2.52589,-1.35114 6.45583,-1.35114 a 16.492361,16.492361 0 0 1 5.66561,0.86783 9.172222,9.172222 0 0 1 3.65125,2.26131 7.8210831,7.8210831 0 0 1 1.76389,2.871611 q 0.4692,1.48167 0.4692,4.49792 z m -9.85309,-2.14842 q 0,-2.18369 -0.25752,-2.755191 c -0.17287,-0.37748 -0.53975,-0.56798 -1.10067,-0.56798 a 1.1359444,1.1359444 0 0 0 -1.12536,0.56798 q -0.28222,0.571501 -0.2787,2.755191 v 12.8517 q 0,2.01436 0.2787,2.62819 a 1.0900833,1.0900833 0 0 0 1.10419,0.61031 c 0.56092,0 0.93134,-0.18698 1.11125,-0.55739 0.17992,-0.37042 0.26811,-1.17123 0.26811,-2.40242 z"
         class="cls-57" />
      <path
         style="fill:#292e3e;stroke-width:0.35277775"
         inkscape:connector-curvature="0"
         id="path2237"
         d="m -0.17090037,94.783799 -0.17286,2.70228 a 7.5459164,7.5459164 0 0 1 2.71990997,-2.42711 7.8210831,7.8210831 0 0 1 3.59834,-0.80786 7.157861,7.157861 0 0 1 6.1912504,3.23497 8.5019444,8.5019444 0 0 1 2.80105,-2.42711 7.443611,7.443611 0 0 1 3.46075,-0.80786 q 2.50825,0 4.1522,1.05833 a 4.7695554,4.7695554 0 0 1 2.11666,2.62467 q 0.46214,1.55222 0.46214,5.044721 v 20.64456 h -9.50736 v -18.95475 q 0,-3.64067 -0.28222,-4.5085 a 1.2417777,1.2417777 0 0 0 -1.32645,-0.878421 c -0.70555,0 -1.16416,0.28928 -1.36877,0.857251 -0.20461,0.56797 -0.30692,2.07786 -0.30692,4.51908 v 18.96534 H 2.8594596 v -18.48556 c 0,-2.77989 -0.0811,-4.45205 -0.23283,-5.00944 -0.1517,-0.557391 -0.57856,-0.846671 -1.28411,-0.846671 a 1.5804444,1.5804444 0 0 0 -1.12536997,0.44097 1.6016111,1.6016111 0 0 0 -0.51152,1.058341 q -0.0494,0.635 -0.0494,2.68816 v 20.1542 l -0.2152,1.33702 -9.29216003,-1.33702 -0.3527796,-27.957641 0.3527796,-0.86431 z"
         class="cls-57" />
      <path
         style="fill:#292e3e;stroke-width:0.35277775"
         inkscape:connector-curvature="0"
         id="path2239"
         d="m 36.99424,105.92453 -8.73831,1.00541 -0.508,-0.78316 v -1.92617 q 0,-3.34081 0.86078,-5.171721 0.86078,-1.83092 3.46075,-3.28084 2.59997,-1.44991 6.75217,-1.55222 4.98122,-0.11994 7.50358,1.41111 2.52236,1.53106 3.03741,3.79236 0.508,2.278951 0.508,9.429751 v 14.46389 l -8.87941,1.29822 -0.70556,-1.05833 v -2.56822 a 6.1771387,6.1771387 0 0 1 -2.31069,2.3883 6.9955831,6.9955831 0 0 1 -3.37608,0.86078 8.8194441,8.8194441 0 0 1 -4.70606,-1.17827 q -2.13783,-1.24884 -2.13783,-5.62681 v -2.37419 q 0,-3.24203 1.13594,-4.445 1.13595,-1.20298 5.64445,-2.8822 4.81541,-1.82033 5.15408,-2.413 c 0.22578,-0.39511 0.35278,-1.19239 0.35278,-2.39183 0,-1.49931 -0.127,-2.46945 -0.35278,-2.924531 a 1.2453055,1.2453055 0 0 0 -1.21708,-0.65264 c -0.64559,0 -1.05834,0.21872 -1.2065,0.60325 -0.14817,0.384531 -0.23637,1.382891 -0.23637,2.984501 z m 2.69522,3.88055 q -2.29658,1.60867 -2.667,2.66347 a 9.711972,9.711972 0 0 0 -0.35278,3.02684 q 0,2.25072 0.32103,2.89983 c 0.21519,0.43039 0.635,0.63853 1.27,0.62089 0.635,-0.0177 0.9913,-0.1905 1.17122,-0.53975 0.17992,-0.34925 0.27164,-1.24883 0.27164,-2.70581 z"
         class="cls-57" />
      <path
         style="fill:#292e3e;stroke-width:0.35277775"
         inkscape:connector-curvature="0"
         id="path2241"
         d="m 63.636014,89.206386 1.090084,0.821973 -1.090084,3.82764 2.677584,-0.10936 1.135943,0.89605 -1.135943,3.75003 -2.677584,0.10936 v 15.733891 q 0,2.90336 0.331611,3.22086 c 0.22225,0.2152 1.146529,0.28575 2.776363,0.21872 l 1.143,1.28412 -1.143,3.44311 -3.979334,0.16227 a 31.217304,31.217304 0 0 1 -4.808363,-0.0564 c -0.959553,-0.13053 -1.481666,0.24342 -2.215443,-0.35278 a 6.2300554,6.2300554 0 0 1 -1.689807,-2.77989 q -0.26811,-1.17475 -0.26811,-5.55977 V 98.890139 l -1.178277,1.05833 -0.896054,-0.98072 v -4.62492 l 2.074331,-0.0847 v -4.646086 z"
         class="cls-57" />
      <path
         style="fill:#292e3e;stroke-width:0.35277775"
         inkscape:connector-curvature="0"
         id="path2243"
         d="m 79.324041,87.206139 1.0795,0.652637 -1.0795,3.838223 -9.196916,1.12889 -0.913694,-0.73378 v -4.49086 z m 0,6.24416 1.0795,0.75495 -1.0795,27.643671 -9.196916,1.76388 -0.913694,-1.22413 V 93.831299 Z"
         class="cls-57" />
      <path
         style="fill:#292e3e;stroke-width:0.35277775"
         inkscape:connector-curvature="0"
         id="path2245"
         d="m 104.7064,101.83936 v 6.96736 q 0,3.83822 -0.43744,5.64445 a 7.9480831,7.9480831 0 0 1 -1.8662,3.41136 8.9146941,8.9146941 0 0 1 -3.679469,2.43064 16.841611,16.841611 0 0 1 -5.154083,0.93133 20.514027,20.514027 0 0 1 -5.50686,-0.42686 7.3448331,7.3448331 0 0 1 -3.506613,-1.76389 6.9109164,6.9109164 0 0 1 -1.785054,-3.01625 q -0.532696,-1.79564 -0.532696,-5.41514 v -7.28486 q 0,-3.965221 0.97014,-6.226531 a 7.856361,7.856361 0 0 1 3.4925,-3.71122 q 2.525889,-1.439333 6.455833,-1.591029 a 16.294805,16.294805 0 0 1 5.66561,0.656166 8.759472,8.759472 0 0 1 3.651252,2.116663 7.4471387,7.4471387 0 0 1 1.76389,2.82223 q 0.46919,1.4358 0.46919,4.455581 z m -9.849552,-1.78153 c 0,-1.456971 -0.0882,-2.370661 -0.25753,-2.748141 -0.169333,-0.37747 -0.53975,-0.5468 -1.104193,-0.52564 a 1.1818055,1.1818055 0 0 0 -1.125361,0.61031 q -0.278696,0.58208 -0.282223,2.765781 v 12.85169 c 0,1.34409 0.09525,2.21897 0.282223,2.61761 a 1.0583333,1.0583333 0 0 0 1.104194,0.56798 1.1571111,1.1571111 0 0 0 1.11125,-0.5962 q 0.26811,-0.56797 0.27164,-2.413 z"
         class="cls-57" />
      <path
         style="fill:#292e3e;stroke-width:0.35277775"
         inkscape:connector-curvature="0"
         id="path2247"
         d="m 118.02023,90.367026 1.36173,0.758473 c 0,0 0.0494,-0.169333 1.0795,-0.807863 a 8.6430554,8.6430554 0 0 1 3.56305,-1.20297 q 2.52942,-0.310446 4.13456,0.52211 c 1.05833,0.55739 1.96497,0.864307 2.27541,1.866194 0.31045,1.001889 0.25048,3.199699 0.25048,5.644449 v 19.508611 l -8.4067,2.44475 -1.48167,-1.23825 V 98.576169 c 0,-1.91559 -0.0705,-3.07975 -0.21519,-3.48192 -0.14464,-0.40217 -0.53975,-0.56092 -1.18886,-0.48331 -0.64911,0.0776 -1.10772,0.37748 -1.28411,0.88195 -0.17639,0.50447 -0.26106,1.80622 -0.26106,3.90172 v 18.824221 l -8.61836,2.46945 -1.27353,-1.26648 V 91.601749 Z"
         class="cls-57" />
      <path
         style="fill:#292e3e;stroke-width:0.35277775"
         inkscape:connector-curvature="0"
         id="path2249"
         d="m -47.42901,126.84778 0.96308,-1.10067 7.64117,0.40922 q 7.40833,0.40217 10.05769,1.143 2.64936,0.74083 4.00403,2.18722 a 6.395861,6.395861 0 0 1 1.71803,3.15384 c 0.2293,1.13594 0.35278,3.73591 0.35278,7.02027 v 12.1285 q 0,4.65667 -0.50448,6.18773 c -0.33161,1.02305 -0.60325,2.64936 -1.43227,3.175 -0.82903,0.52563 -2.16606,0.0423 -3.38667,0.19755 a 31.66886,31.66886 0 0 1 -5.49628,0 l -12.85169,-0.8255 z m 11.28889,5.64444 v 22.76122 q 2.19075,0.14464 2.70228,-0.60325 0.51152,-0.74789 0.50447,-4.20864 v -13.44436 a 16.206611,16.206611 0 0 0 -0.16934,-3.02683 1.6016111,1.6016111 0 0 0 -0.76905,-1.02306 q -0.60325,-0.36336 -2.26483,-0.46919 z"
         class="cls-57" />
      <path
         style="fill:#292e3e;stroke-width:0.35277775"
         inkscape:connector-curvature="0"
         id="path2251"
         d="m -8.9691804,127.15116 v 4.49087 l -0.35278,1.19591 -9.7860496,-1.41111 -0.52211,-3.37255 0.52211,-1.11831 z m 0,6.24064 v 29.03714 l -0.35278,1.69333 -9.7860496,-1.91558 -0.52211,-27.83416 0.51152,-1.22414 z"
         class="cls-57" />
      <path
         style="fill:#292e3e;stroke-width:0.35277775"
         inkscape:connector-curvature="0"
         id="path2253"
         d="m 4.3622896,133.50116 -0.35277,3.92642 c 1.43227,-2.64936 3.52777,-4.20511 6.2406304,-4.27919 v 9.97302 c -1.7991604,-0.0564 -3.2631904,0.25753 -4.0992704,0.67381 a 2.8751387,2.8751387 0 0 0 -1.41111,1.78506 q -0.29281,1.13594 -0.29281,5.27402 v 11.89214 l -0.13758,1.70039 -9.74373,-2.01083 -0.29986,-27.83064 0.29986,-1.22414 z"
         class="cls-57" />
      <path
         style="fill:#292e3e;stroke-width:0.35277775"
         inkscape:connector-curvature="0"
         id="path2255"
         d="M 34.71882,148.67061 H 22.06115 v 6.35 q 0,1.99319 0.30692,2.57175 a 1.2065,1.2065 0 0 0 1.17475,0.57503 c 0.70556,0 1.20297,-0.25753 1.44639,-0.76553 0.24342,-0.508 0.35278,-1.50283 0.35278,-2.97039 v -3.88056 h 9.36625 l 0.35277,1.50284 a 21.385388,21.385388 0 0 1 -0.73025,4.86128 8.3537777,8.3537777 0 0 1 -1.76388,3.12913 8.5619164,8.5619164 0 0 1 -3.52778,2.49414 q -2.11667,0.82903 -5.33753,0.82903 a 16.848666,16.848666 0 0 1 -5.49275,-0.81844 8.8970554,8.8970554 0 0 1 -3.71122,-2.24367 7.9445554,7.9445554 0 0 1 -1.83445,-3.14678 q -0.51152,-1.71097 -0.51152,-4.98828 v -8.56897 q 0,-3.84528 1.143,-6.07483 a 7.538861,7.538861 0 0 1 3.7465,-3.40783 14.322777,14.322777 0 0 1 5.97958,-1.18181 q 4.13103,0 6.81919,1.41111 2.68817,1.41111 3.7712,3.78178 1.0795,2.35655 1.08303,6.62517 z m -9.87778,-4.79778 v -2.14136 c 0,-1.51694 -0.0882,-2.49414 -0.25753,-2.93511 a 1.0195277,1.0195277 0 0 0 -1.05833,-0.66322 c -0.65969,0 -1.05833,0.18697 -1.22414,0.56091 -0.1658,0.37395 -0.23283,1.38995 -0.23283,3.03742 v 2.14136 z"
         class="cls-57" />
      <path
         style="fill:#292e3e;stroke-width:0.35277775"
         inkscape:connector-curvature="0"
         id="path2257"
         d="m 59.723708,143.90811 -8.664218,1.59808 -0.61031,-1.41111 v -3.37255 c 0,-1.17123 -0.10231,-1.9685 -0.31044,-2.38478 a 1.1324166,1.1324166 0 0 0 -1.14653,-0.59972 1.1712222,1.1712222 0 0 0 -1.11831,0.5715 c -0.1905,0.37041 -0.28575,1.19591 -0.28575,2.46944 v 13.75833 a 4.917722,4.917722 0 0 0 0.43039,2.32834 1.4640277,1.4640277 0 0 0 2.6035,-0.0847 c 0.23283,-0.54328 0.35278,-1.56633 0.35278,-3.06917 v -3.45722 l 8.755944,-0.1905 c 0,0 0.786694,0.81845 0.762,1.49578 -0.04939,1.23472 -0.931333,2.97744 -1.058333,3.72886 a 8.1138887,8.1138887 0 0 1 -1.629833,3.60186 8.8194441,8.8194441 0 0 1 -3.58775,2.82222 14.375694,14.375694 0 0 1 -5.475108,1.05834 q -4.16278,0.0917 -6.59342,-1.13948 a 7.0873054,7.0873054 0 0 1 -3.44311,-3.52777 q -1.00895,-2.28953 -1.00895,-6.54403 v -8.27264 q 0,-3.69711 0.8255,-5.60917 0.8255,-1.91205 3.52778,-3.44311 2.69875,-1.53458 6.56872,-1.62278 3.869978,-0.0882 6.572254,1.32998 2.719917,1.41111 3.623027,3.63361 0.903113,2.2225 0.910167,6.33236 z"
         class="cls-57" />
      <path
         style="fill:#292e3e;stroke-width:0.35277775"
         inkscape:connector-curvature="0"
         id="path2259"
         d="m 73.118681,127.38047 0.977194,1.12889 -0.977194,3.57011 2.69875,-0.15522 1.058333,1.31939 -1.058333,3.37961 -2.69875,0.15169 v 15.90322 c 0,1.95439 0.215194,3.46428 0.472723,3.63362 0.388054,0.26105 1.280584,0.14816 2.921,0.0529 l 1.03011,1.05834 -1.03011,3.17499 -4.268613,0.48684 a 30.58936,30.58936 0 0 1 -4.843637,0.0177 c -0.966613,-0.11642 -1.633363,0.5715 -2.370666,0 -0.737307,-0.5715 -1.386417,-2.28953 -1.566334,-3.07975 -0.179916,-0.79022 -0.268113,-2.65995 -0.268113,-5.61622 V 137.3218 l -1.308803,1.41111 -0.783167,-1.28764 v -4.68489 l 2.09197,-0.11994 v -4.69548 z"
         class="cls-57" />
      <line
         style="fill:#666666;stroke:#000000;stroke-width:0.127px;stroke-linecap:round;stroke-linejoin:round"
         id="line2261"
         y2="134.56651"
         x2="9.4952345"
         y1="134.77821"
         x1="9.3188581"
         class="cls-58" />
      <path
         style="fill:url(#linearGradient3451);stroke-width:0.35277775"
         inkscape:connector-curvature="0"
         id="path2263"
         d="m -86.49915,85.431666 5.93372,35.983334 -10.49866,-1.38642 -0.56092,-6.41703 -3.77472,-0.50094 -0.57856,6.26886 -10.49514,-1.80269 5.15056,-34.106558 z m -5.39044,21.872224 q -0.72672,-6.05014 -1.5875,-15.00717 -1.53459,9.95892 -1.98261,14.53445 z"
         class="cls-59" />
      <path
         style="fill:url(#linear-gradient-18);stroke-width:0.35277775"
         inkscape:connector-curvature="0"
         id="path2265"
         d="m -55.52879,94.413389 v 28.702001 l -10.25525,-0.60678 0.16581,-2.38831 a 6.1065831,6.1065831 0 0 1 -2.55411,2.05317 7.679972,7.679972 0 0 1 -3.4925,0.52917 9.0910831,9.0910831 0 0 1 -3.72886,-0.91722 5.3339997,5.3339997 0 0 1 -2.1837,-1.97909 6.536972,6.536972 0 0 1 -0.87489,-2.46944 45.0215,45.0215 0 0 1 -0.17286,-4.98475 V 93.030499 l 10.08945,0.59972 v 19.501561 c 0,2.24719 0.0917,3.33022 0.19402,3.77472 a 1.2911666,1.2911666 0 0 0 1.36525,0.92428 c 0.59973,-0.0212 1.19239,-0.35278 1.23825,-0.92428 0.0318,-0.44803 0.11995,-1.45345 0.11995,-3.82058 V 93.803079 Z"
         class="cls-60" />
      <path
         style="fill:url(#linear-gradient-19);stroke-width:0.35277775"
         inkscape:connector-curvature="0"
         id="path2267"
         d="m -41.04021,90.430526 v 4.564943 l 2.71992,0.0952 v 4.56495 l -2.71992,-0.0953 v 16.340661 c 0,1.89795 0.10937,2.96334 0.33514,3.175 0.22578,0.21167 1.1677,0.35278 2.82223,0.42686 v 4.64256 l -4.04637,-0.14111 a 32.808333,32.808333 0 0 1 -4.88597,-0.41981 5.6903054,5.6903054 0 0 1 -2.58233,-1.24178 3.937,3.937 0 0 1 -1.38642,-2.11666 q -0.27516,-1.17122 -0.27516,-5.48217 V 99.200479 l -2.11667,-0.0741 v -4.56495 l 2.11667,0.0741 v -4.564946 z"
         class="cls-61" />
      <path
         style="fill:url(#linear-gradient-20);stroke-width:0.35277775"
         inkscape:connector-curvature="0"
         id="path2269"
         d="m -13.59762,105.59997 v 7.08731 q 0,3.90172 -0.4445,5.715 a 7.697611,7.697611 0 0 1 -1.89795,3.39725 8.6606944,8.6606944 0 0 1 -3.73591,2.33186 16.838083,16.838083 0 0 1 -5.23875,0.74789 21.247805,21.247805 0 0 1 -5.59859,-0.63853 7.856361,7.856361 0 0 1 -3.56305,-1.94028 7.4083331,7.4083331 0 0 1 -1.81328,-3.13619 q -0.54681,-1.8415 -0.54328,-5.52098 v -7.40833 q 0,-4.03225 0.98778,-6.293551 0.98778,-2.26131 3.55247,-3.63714 2.56117,-1.37231 6.55814,-1.37231 a 16.728722,16.728722 0 0 1 5.75733,0.88195 9.3168608,9.3168608 0 0 1 3.71123,2.29658 7.8986944,7.8986944 0 0 1 1.78858,2.917471 c 0.32103,1.00542 0.47978,2.52589 0.47978,4.572 z m -10.01184,-2.18369 c 0,-1.48167 -0.0882,-2.413 -0.26105,-2.80106 -0.17286,-0.38805 -0.55034,-0.57855 -1.12184,-0.57855 a 1.1535833,1.1535833 0 0 0 -1.143,0.57855 c -0.1905,0.38806 -0.28222,1.31939 -0.28222,2.80106 v 13.05277 c 0,1.36525 0.0917,2.25778 0.28222,2.67053 a 1.1077222,1.1077222 0 0 0 1.12184,0.62089 c 0.5715,0 0.94544,-0.1905 1.12889,-0.56797 0.18344,-0.37747 0.27516,-1.18886 0.27516,-2.44122 z"
         class="cls-62" />
      <path
         style="fill:url(#linear-gradient-21);stroke-width:0.35277775"
         inkscape:connector-curvature="0"
         id="path2271"
         d="m -0.38257037,95.648109 -0.17639,2.74814 a 7.6411664,7.6411664 0 0 1 2.76577997,-2.46945 7.9092777,7.9092777 0 0 1 3.65478,-0.82197 7.2778054,7.2778054 0 0 1 6.2935504,3.28789 8.5901387,8.5901387 0 0 1 2.84692,-2.46944 7.5353331,7.5353331 0 0 1 3.52778,-0.82198 7.6094164,7.6094164 0 0 1 4.23333,1.08656 4.854222,4.854222 0 0 1 2.14136,2.667 q 0.47272,1.576921 0.4692,5.125861 v 20.955 h -9.65906 v -19.26519 q 0,-3.69711 -0.28928,-4.58611 a 1.2594166,1.2594166 0 0 0 -1.34408,-0.88195 c -0.70556,0 -1.18181,0.29281 -1.39347,0.87489 -0.21167,0.58208 -0.31045,2.11667 -0.31045,4.58611 v 19.26519 H 2.7148196 v -18.78541 q 0,-4.23333 -0.23636,-5.09058 -0.23636,-0.85725 -1.30175,-0.85373 a 1.6051388,1.6051388 0 0 0 -1.13946997,0.44803 1.6333611,1.6333611 0 0 0 -0.52211,1.08656 q -0.0494,0.64558 -0.0494,2.73402 v 20.46111 H -10.19333 V 95.648109 Z"
         class="cls-63" />
      <path
         style="fill:url(#linear-gradient-22);stroke-width:0.35277775"
         inkscape:connector-curvature="0"
         id="path2273"
         d="m 37.65393,106.69005 -9.398,0.22931 v -1.96144 q 0,-3.3902 0.87489,-5.252871 0.87489,-1.86266 3.52778,-3.33375 2.64583,-1.47813 6.86153,-1.57691 5.05883,-0.127 7.62705,1.41111 2.56822,1.53811 3.08328,3.855861 0.51858,2.31775 0.51858,9.58144 v 14.70378 l -9.74725,0.23636 v -2.61055 a 6.2794444,6.2794444 0 0 1 -2.3495,2.42711 7.1613887,7.1613887 0 0 1 -3.429,0.87489 8.9570274,8.9570274 0 0 1 -4.78014,-1.19945 q -2.17311,-1.26294 -2.17664,-5.715 v -2.413 q 0,-3.29494 1.15712,-4.51908 1.15711,-1.22414 5.72911,-2.93158 c 3.26672,-1.22767 5.00944,-2.04611 5.24227,-2.44828 0.23284,-0.40217 0.35278,-1.21356 0.35278,-2.43064 0,-1.524 -0.12347,-2.51883 -0.35278,-2.97392 a 1.2629444,1.2629444 0 0 0 -1.23825,-0.663221 c -0.65616,0 -1.05833,0.222251 -1.22413,0.613831 -0.16581,0.39159 -0.23989,1.41112 -0.23989,3.03037 z m 2.74108,3.94406 q -2.33891,1.63689 -2.71286,2.70933 a 9.8777774,9.8777774 0 0 0 -0.37041,3.0727 c 0,1.52753 0.10583,2.50825 0.32455,2.94922 0.21872,0.44097 0.64559,0.64911 1.28764,0.63147 0.64206,-0.0176 1.00895,-0.19403 1.19239,-0.5468 0.18344,-0.35278 0.27869,-1.27 0.27869,-2.75167 z"
         class="cls-64" />
      <path
         style="fill:url(#linear-gradient-23);stroke-width:0.35277775"
         inkscape:connector-curvature="0"
         id="path2275"
         d="m 64.726098,90.028359 v 4.72369 l 2.723443,-0.10936 v 4.72017 l -2.723443,0.11289 v 15.987891 q 0,2.95275 0.352777,3.27378 0.352779,0.32102 2.822223,0.22225 v 4.80483 l -4.042834,0.16228 a 31.36547,31.36547 0 0 1 -4.8895,-0.0565 5.203472,5.203472 0 0 1 -2.578806,-1.09008 3.7041667,3.7041667 0 0 1 -1.389944,-2.07786 q -0.275166,-1.19592 -0.271639,-5.64445 V 99.888449 l -2.116667,0.0882 v -4.72369 l 2.116667,-0.0882 v -4.72369 z"
         class="cls-65" />
      <path
         style="fill:url(#linear-gradient-24);stroke-width:0.35277775"
         inkscape:connector-curvature="0"
         id="path2277"
         d="m 80.403541,87.858776 v 4.564944 l -10.26936,0.402169 v -4.564946 z m 0,6.350003 V 123.066 l -10.26936,0.55739 V 94.603889 Z"
         class="cls-66" />
      <path
         style="fill:url(#linear-gradient-25);stroke-width:0.35277775"
         inkscape:connector-curvature="0"
         id="path2279"
         d="m 106.02579,102.9118 v 7.07673 q 0,3.90172 -0.44097,5.73616 a 8.092722,8.092722 0 0 1 -1.90147,3.46428 9.0804997,9.0804997 0 0 1 -3.735919,2.46945 17.060333,17.060333 0 0 1 -5.23875,0.94191 20.753916,20.753916 0 0 1 -5.598583,-0.43039 7.4824164,7.4824164 0 0 1 -3.563057,-1.80622 7.0555554,7.0555554 0 0 1 -1.80975,-3.06917 q -0.543277,-1.82033 -0.543277,-5.4998 v -7.40833 q 0,-4.03225 0.98425,-6.332371 a 7.9904164,7.9904164 0 0 1 3.552471,-3.76766 q 2.561167,-1.46403 6.55814,-1.619253 a 16.608777,16.608777 0 0 1 5.757335,0.666753 8.8794164,8.8794164 0 0 1 3.71122,2.159 7.5282777,7.5282777 0 0 1 1.78858,2.85397 q 0.48331,1.49578 0.47978,4.564941 z m -10.008305,-1.80975 c 0,-1.485191 -0.08819,-2.413001 -0.264583,-2.794001 -0.176388,-0.381 -0.546804,-0.55738 -1.118304,-0.53622 a 1.1994444,1.1994444 0 0 0 -1.143,0.62089 c -0.1905,0.39511 -0.28575,1.32997 -0.28575,2.822221 v 13.05278 c 0,1.36525 0.09525,2.25425 0.28575,2.65995 a 1.0583333,1.0583333 0 0 0 1.118304,0.57855 1.1853333,1.1853333 0 0 0 1.132416,-0.60678 c 0.179917,-0.38452 0.275167,-1.20297 0.275167,-2.46944 z"
         class="cls-67" />
      <path
         style="fill:url(#linear-gradient-26);stroke-width:0.35277775"
         inkscape:connector-curvature="0"
         id="path2281"
         d="m 119.45604,91.167833 -0.17639,2.617606 a 8.4454997,8.4454997 0 0 1 2.65642,-2.666996 8.8476664,8.8476664 0 0 1 3.6195,-1.22414 q 2.57175,-0.310444 4.20158,0.532696 a 3.9758054,3.9758054 0 0 1 2.11667,2.37772 q 0.46566,1.53458 0.46919,5.24228 v 19.826111 l -10.05064,1.22414 V 99.493389 c 0,-1.94734 -0.0741,-3.12914 -0.21872,-3.52778 -0.14464,-0.39864 -0.54681,-0.5715 -1.2065,-0.49036 -0.65969,0.0811 -1.12889,0.38453 -1.30881,0.89605 -0.17991,0.51153 -0.26458,1.83445 -0.26458,3.965231 v 19.13114 l -10.05064,1.22413 V 92.420193 Z"
         class="cls-68" />
      <path
         style="fill:url(#linearGradient3453);stroke-width:0.35277775"
         inkscape:connector-curvature="0"
         id="path2283"
         d="m -47.42901,126.84778 7.76111,0.41627 q 7.54592,0.40923 10.23056,1.16064 2.68463,0.75142 4.06752,2.2225 a 6.5122777,6.5122777 0 0 1 1.74625,3.20322 c 0.23284,1.15712 0.35278,3.79942 0.35278,7.1367 v 12.32605 q 0,4.73075 -0.51153,6.2865 a 4.3109444,4.3109444 0 0 1 -1.76389,2.37773 7.348361,7.348361 0 0 1 -3.12208,1.05833 31.309027,31.309027 0 0 1 -5.588,0 l -13.05278,-0.83961 z m 10.49514,6.84036 v 23.13164 q 2.23308,0.14111 2.74461,-0.61384 0.51153,-0.75494 0.51505,-4.27919 v -13.66309 a 16.227777,16.227777 0 0 0 -0.17286,-3.07269 1.6121944,1.6121944 0 0 0 -0.78316,-1.04069 c -0.40923,-0.23637 -1.17475,-0.39159 -2.30364,-0.46214 z"
         class="cls-69" />
      <path
         style="fill:url(#linear-gradient-28);stroke-width:0.35277775"
         inkscape:connector-curvature="0"
         id="path2285"
         d="m -9.3254804,128.26241 v 4.56495 L -19.63365,132.60158 v -4.56494 z m 0,6.35 v 29.52398 L -19.63365,163.91061 v -29.52397 z"
         class="cls-70" />
      <path
         style="fill:url(#linear-gradient-29);stroke:#000000;stroke-width:0.127px;stroke-linecap:round;stroke-linejoin:round"
         inkscape:connector-curvature="0"
         id="path2287"
         d="m 4.2211796,134.71825 -0.35278,3.98991 c 1.45698,-2.68816 3.57012,-4.27213 6.3500004,-4.34622 v 10.13531 c -1.8273804,-0.0565 -3.3125804,0.25753 -4.1627704,0.68439 a 2.921,2.921 0 0 0 -1.44286,1.81327 q -0.29634,1.15359 -0.29634,5.36223 v 12.08263 l -10.04358,-0.3175 V 134.5983 Z"
         class="cls-71" />
      <path
         style="fill:url(#linear-gradient-30);stroke-width:0.35277775"
         inkscape:connector-curvature="0"
         id="path2289"
         d="M 35.0716,150.13111 H 22.20932 v 6.46994 q 0,2.02847 0.31044,2.61409 a 1.2276666,1.2276666 0 0 0 1.19592,0.58561 q 1.09361,0 1.46756,-0.77964 0.37394,-0.77964 0.37394,-3.01625 v -3.95464 h 9.525 v 2.20839 a 17.942277,17.942277 0 0 1 -0.38453,4.25803 8.3502497,8.3502497 0 0 1 -1.79211,3.175 8.6359997,8.6359997 0 0 1 -3.57011,2.53647 15.060083,15.060083 0 0 1 -5.42219,0.84314 17.187333,17.187333 0 0 1 -5.58448,-0.83256 9.0064164,9.0064164 0 0 1 -3.76766,-2.28247 8.0186387,8.0186387 0 0 1 -1.8662,-3.19264 q -0.51858,-1.74272 -0.51858,-5.07294 v -8.70656 q 0,-3.9123 1.16064,-6.17008 a 7.6446944,7.6446944 0 0 1 3.80647,-3.46781 14.534444,14.534444 0 0 1 6.07836,-1.20297 q 4.20159,0 6.92856,1.45344 2.72697,1.45345 3.83116,3.84175 1.10067,2.39184 1.10067,6.73453 z m -10.04359,-4.87539 v -2.17664 q 0,-2.30717 -0.26458,-2.9845 A 1.0336389,1.0336389 0 0 0 23.7051,139.4243 c -0.67028,0 -1.08303,0.1905 -1.24531,0.56798 -0.16228,0.37747 -0.23636,1.41111 -0.23636,3.0868 v 2.17664 z"
         class="cls-72" />
      <path
         style="fill:url(#linear-gradient-31);stroke-width:0.35277775"
         inkscape:connector-curvature="0"
         id="path2291"
         d="m 60.485708,145.30158 -9.426218,0.20461 v -3.42547 q 0,-1.78858 -0.3175,-2.42358 a 1.1465277,1.1465277 0 0 0 -1.16417,-0.61031 1.1818055,1.1818055 0 0 0 -1.13595,0.58208 q -0.2928,0.56445 -0.28927,2.50473 v 13.96647 c 0,1.05833 0.14464,1.84503 0.43744,2.36714 a 1.3511388,1.3511388 0 0 0 1.29117,0.762 1.36525,1.36525 0 0 0 1.35114,-0.8502 q 0.35277,-0.8255 0.35277,-3.11855 v -3.52778 l 8.900588,-0.19403 a 42.079333,42.079333 0 0 1 -0.28575,5.29167 8.2267777,8.2267777 0 0 1 -1.658054,3.6583 8.9464441,8.9464441 0 0 1 -3.647723,2.8822 14.633222,14.633222 0 0 1 -5.559781,1.05833 q -4.23333,0.0917 -6.70277,-1.15711 a 7.2178331,7.2178331 0 0 1 -3.49956,-3.58069 q -1.02658,-2.32834 -1.02306,-6.64986 v -8.40317 q 0,-3.76414 0.83962,-5.70089 0.83961,-1.93675 3.58422,-3.49956 2.74461,-1.5628 6.67455,-1.64747 3.929948,-0.0847 6.678088,1.35114 2.765776,1.43581 3.683,3.69006 0.91722,2.25425 0.91722,6.46994 z"
         class="cls-73" />
      <path
         style="fill:url(#linear-gradient-32);stroke-width:0.35277775"
         inkscape:connector-curvature="0"
         id="path2293"
         d="m 74.095875,128.50936 v 4.77308 l 2.741083,-0.15522 v 4.77308 l -2.741083,0.15523 v 16.16075 c 0,1.98613 0.218723,2.99155 0.47625,3.175 0.398639,0.26458 1.305279,0.14816 2.970389,0.0529 v 4.85775 l -4.335639,0.49389 a 31.623,31.623 0 0 1 -4.938887,0.0177 5.1329167,5.1329167 0 0 1 -2.596447,-1.05833 3.6265554,3.6265554 0 0 1 -1.41111,-2.07787 q -0.275167,-1.20649 -0.275167,-5.70794 v -15.33172 l -2.116666,0.11994 v -4.77308 l 2.116666,-0.11994 v -4.77309 z"
         class="cls-74" />
      <path
         style="fill:none;stroke-width:0.35277775"
         inkscape:connector-curvature="0"
         id="path2295"
         d="m 135.52154,75.998389 -0.11642,0.01765 C 118.27423,80.051818 68.881821,82.835235 12.49735,82.948122 -41.42121,83.053955 -89.3884,80.309345 -109.27801,76.351178 a 3.3866667,3.3866667 0 0 0 -2.85397,0.733777 4.8753887,4.8753887 0 0 0 -1.69333,3.785307 V 118.1377 c 0,2.46945 1.58397,4.71311 3.683,5.18584 11.05605,2.40241 31.74999,5.00591 51.82305,6.37822 v 0 c 1.01953,0.0705 1.84855,1.10419 1.84855,2.30011 v 32.28622 c 0,2.07081 1.59809,3.88056 3.56306,4.06753 h 0.19756 c 46.1715496,3.61244 96.75635,4.20864 133.801548,0.28575 h 0.179917 c 1.961443,-0.17286 3.559527,-2.00025 3.559527,-4.06753 v -32.45556 c 0,-1.19239 0.853723,-2.2472 1.869723,-2.30012 20.125975,-1.34408 42.220445,-3.98286 49.597025,-6.09247 2.03906,-0.53269 3.52778,-2.69875 3.52778,-5.14702 V 80.545693 a 4.8365833,4.8365833 0 0 0 -1.49578,-3.630084 3.5736387,3.5736387 0 0 0 -2.80811,-0.91722 z m 1.5628,2.31422 a 2.9915554,2.9915554 0 0 1 0.87489,2.236613 v 38.036498 c 0,1.55928 -0.94897,3.02683 -2.159,3.34081 -7.26722,2.08138 -29.22763,4.69547 -49.216022,6.02897 -1.993194,0.10936 -3.626556,1.98261 -3.626556,4.16983 v 32.45556 c 0,1.10419 -0.850194,2.11666 -1.855611,2.20133 h -0.10936 -0.08467 c -36.946411,3.9123 -87.3971614,3.31611 -133.515801,-0.28928 h -0.13758 c -1.00189,-0.0882 -1.85209,-1.09714 -1.85209,-2.20133 v -32.28622 c 0,-2.19781 -1.57691,-4.02873 -3.59127,-4.16984 v 0 c -19.98486,-1.36525 -40.56945,-3.95464 -51.54436,-6.35 -1.24178,-0.27869 -2.21897,-1.76388 -2.21897,-3.35491 V 80.866722 a 3.0374167,3.0374167 0 0 1 1.00541,-2.331863 1.5345833,1.5345833 0 0 1 1.29822,-0.352776 c 20.31295,4.042833 67.30295,6.741583 122.15283,6.632223 56.444445,-0.109363 105.92858,-2.90689 123.2535,-6.960307 a 1.7427222,1.7427222 0 0 1 1.32644,0.455084 z"
         class="cls-1" />
      <path
         style="fill:url(#linear-gradient-33);stroke-width:0.35277775"
         inkscape:connector-curvature="0"
         id="path2297"
         d="m 128.83287,71.317026 c -6.01839,0.998363 -15.07066,1.982613 -26.63119,2.84339 -0.48331,1.023056 -0.95956,2.04611 -1.44639,3.069167 -5.408082,1.259416 -18.196276,1.894416 -22.196776,2.151943 -2.928056,0 -8.417276,-0.148167 -11.895666,-0.44097 q 2.074333,-1.502834 4.14514,-3.037417 c -16.852197,0.670277 -36.300838,1.0795 -57.636838,1.0795 -20.7609704,0 -41.72655,-0.377473 -60.38497,-1.09714 q 2.23661,1.658057 4.48028,3.28436 c -3.10797,0.236363 -9.17222,0.17639 -12.3825,0.17639 -3.52778,-0.261056 -15.16944,-1.104193 -21.97805,-2.024943 -0.50095,-1.058334 -0.99131,-2.09903 -1.4852,-3.150307 -8.36789,-0.631473 -17.63889,-1.718027 -23.08225,-2.54 a 2.6564167,2.6564167 0 0 0 -1.92264,0.416277 l -8.31497,4.056946 a 3.0868054,3.0868054 0 0 1 2.06728,-0.264583 c 22.14033,4.406194 73.52947,6.702777 122.46327,6.61811 52.489808,-0.102306 104.42222,-2.550583 123.063,-6.93914 a 7.8845831,7.8845831 0 0 1 2.3495,0.35278 l -7.47536,-4.15925 a 2.822222,2.822222 0 0 0 -1.73567,-0.395113 z"
         class="cls-75" />
      <path
         style="fill:url(#linearGradient3455);stroke-width:0.35277775"
         inkscape:connector-curvature="0"
         id="path2299"
         d="m 68.906514,77.296609 1.901474,-1.39347 c -16.852197,0.670277 -36.300838,1.0795 -57.636838,1.0795 -20.7609704,0 -41.72655,-0.377473 -60.38497,-1.09714 0.63148,0.465667 1.26295,0.924277 1.89442,1.386417 18.17864,0.677333 38.4527796,1.037167 58.5223,1.037167 20.5352,0 39.292391,-0.384527 55.703614,-1.012474 z"
         class="cls-76" />
      <path
         style="fill:url(#linear-gradient-35);stroke-width:0.35277775"
         inkscape:connector-curvature="0"
         id="path2301"
         d="m 139.01404,76.845056 c -0.61736,-0.17639 -2.49414,-1.411113 -2.97392,-1.358197 -0.38453,0.09172 -0.70555,0 -1.09714,0.102307 l -4.58611,-2.54 a 2.7657777,2.7657777 0 0 0 -1.74272,-0.405694 c -5.99722,0.994834 -15.03892,1.979084 -26.57475,2.839861 -0.15522,0.03528 -0.32103,0.0635 -0.49389,0.08819 l 0.66675,-1.41111 c 11.56053,-0.860777 20.61281,-1.845027 26.6312,-2.84339 a 2.822222,2.822222 0 0 1 1.76388,0.409223 l 6.95678,3.834694 a 4.3109444,4.3109444 0 0 1 1.44992,1.284113 z"
         class="cls-77" />
      <path
         style="fill:url(#linear-gradient-36);stroke-width:0.35277775"
         inkscape:connector-curvature="0"
         id="path2303"
         d="m -113.08801,77.268389 c 0.70556,-0.331613 2.20839,-1.38289 3.22439,-1.471083 a 4.8154167,4.8154167 0 0 1 1.23472,0.21872 l 5.34106,-2.645833 a 2.663472,2.663472 0 0 1 1.91911,-0.416277 c 5.44336,0.8255 14.68614,1.908527 23.03286,2.543527 h 0.38453 l -0.62795,-1.3335 c -8.36789,-0.631471 -17.63889,-1.718027 -23.08225,-2.54 a 2.6564167,2.6564167 0 0 0 -1.92264,0.416279 l -8.31497,4.064 a 4.2933054,4.2933054 0 0 0 -1.17475,1.164167"
         class="cls-78" />
      <g
         id="g2309"
         clip-path="url(#clip-path-8)"
         class="cls-79"
         transform="matrix(0.35277777,0,0,0.35277777,-775.55526,-1308.8802)">
        <path
           style="fill:#ffffff;stroke:#c1c3c5;stroke-width:3px"
           inkscape:connector-curvature="0"
           id="path2305"
           transform="translate(-67.77,-107.36)"
           d="m 2650.19,4031.49 -0.53,0.1 c -48.44,11.4 -188.32,19.28 -348,19.59 -152.74,0.31 -288.6,-7.46 -344.89,-18.66 a 11,11 0 0 0 -9.33,2.38 15.36,15.36 0 0 0 -5.37,11.9 v 105.64 c 0,7.72 5,14.67 11.62,16.16 31.41,6.83 90.16,14.22 147.13,18.12 2.08,0.14 3.84,2.44 3.84,5 v 91.52 c 0,6.63 5.14,12.47 11.47,13 h 0.61 c 139.39,10.91 281.28,11.21 379.52,0.81 h 0.42 c 6.38,-0.56 11.52,-6.41 11.52,-13 v -92 c 0,-2.56 1.81,-4.91 3.88,-5 58.81,-3.92 120.7,-11.53 140.92,-17.31 6.42,-1.68 11.11,-8.43 11.11,-16 v -107.85 a 15.22,15.22 0 0 0 -4.74,-11.4 11.7,11.7 0 0 0 -9.18,-3 z m 3.58,9.18 a 7,7 0 0 1 2,5.22 v 107.82 c 0,3.7 -2.24,7.3 -5,8 -19.81,5.67 -81,13.15 -139.23,17 -6.43,0.35 -11.68,6.33 -11.68,13.32 v 92 c 0,2.34 -1.82,4.56 -3.89,4.74 0.13,0 -0.26,0 -0.26,0 h -0.28 c -97.8,10.36 -239.19,10 -378.24,-0.82 h -0.41 c -2,-0.18 -3.84,-2.39 -3.84,-4.74 v -91.52 c 0,-7 -5.09,-12.87 -11.58,-13.32 -56.6,-3.86 -114.9,-11.2 -145.9,-17.94 -2.81,-0.63 -5.1,-4.24 -5.1,-8 V 4046.8 a 7,7 0 0 1 2.29,-5.44 2.81,2.81 0 0 1 2.42,-0.7 c 57.69,11.48 191,19.14 346.58,18.84 159.82,-0.32 300.25,-8.25 349.57,-19.75 a 3.37,3.37 0 0 1 2.55,0.92 z"
           class="cls-80" />
        <path
           style="fill:none;stroke:#797b7d;stroke-width:0.75px"
           inkscape:connector-curvature="0"
           id="path2307"
           transform="translate(-67.77,-107.36)"
           d="m 2650.19,4031.49 -0.53,0.1 c -48.44,11.4 -188.32,19.28 -348,19.59 -152.74,0.31 -288.6,-7.46 -344.89,-18.66 a 11,11 0 0 0 -9.33,2.38 15.36,15.36 0 0 0 -5.37,11.9 v 105.64 c 0,7.72 5,14.67 11.62,16.16 31.41,6.83 90.16,14.22 147.13,18.12 2.08,0.14 3.84,2.44 3.84,5 v 91.52 c 0,6.63 5.14,12.47 11.47,13 h 0.61 c 139.39,10.91 281.28,11.21 379.52,0.81 h 0.42 c 6.38,-0.56 11.52,-6.41 11.52,-13 v -92 c 0,-2.56 1.81,-4.91 3.88,-5 58.81,-3.92 120.7,-11.53 140.92,-17.31 6.42,-1.68 11.11,-8.43 11.11,-16 v -107.85 a 15.22,15.22 0 0 0 -4.74,-11.4 11.7,11.7 0 0 0 -9.18,-3 z m 3.58,9.18 a 7,7 0 0 1 2,5.22 v 107.82 c 0,3.7 -2.24,7.3 -5,8 -19.81,5.67 -81,13.15 -139.23,17 -6.43,0.35 -11.68,6.33 -11.68,13.32 v 92 c 0,2.34 -1.82,4.56 -3.89,4.74 0.13,0 -0.26,0 -0.26,0 h -0.28 c -97.8,10.36 -239.19,10 -378.24,-0.82 h -0.41 c -2,-0.18 -3.84,-2.39 -3.84,-4.74 v -91.52 c 0,-7 -5.09,-12.87 -11.58,-13.32 -56.6,-3.86 -114.9,-11.2 -145.9,-17.94 -2.81,-0.63 -5.1,-4.24 -5.1,-8 V 4046.8 a 7,7 0 0 1 2.29,-5.44 2.81,2.81 0 0 1 2.42,-0.7 c 57.69,11.48 191,19.14 346.58,18.84 159.82,-0.32 300.25,-8.25 349.57,-19.75 a 3.37,3.37 0 0 1 2.55,0.92 z"
           class="cls-81" />
      </g>
      <path
         style="fill:none;stroke-width:0.35277775"
         inkscape:connector-curvature="0"
         id="path2311"
         d="m 61.314738,81.614609 c -15.091838,0.486834 -31.527748,0.76553 -48.609248,0.79728 -18.4926104,0.0388 -36.28672,-0.261056 -52.48275,-0.82903"
         class="cls-1" />
      <path
         style="fill:#bfc7cc;stroke-width:0.35277775"
         inkscape:connector-curvature="0"
         id="path2313"
         d="m -42.75471,79.173389 c -0.43038,0.03528 -0.75847,0.116417 -1.24177,0.144637 v 0.01765 l -3.69711,1.95439 0.91722,0.0388 z"
         class="cls-82" />
      <path
         style="fill:#e9eaeb;stroke-width:0.35277775"
         inkscape:connector-curvature="0"
         id="path2315"
         d="m 78.674931,79.374472 c -0.49036,0 -1.075973,0 -1.689806,0 l 1.375833,1.580444 1.806223,-0.08467 -1.23825,-1.516943 z"
         class="cls-83" />
      <path
         style="fill:url(#linearGradient3457);stroke-width:0.35277775"
         inkscape:connector-curvature="0"
         id="path2317"
         d="m 68.119821,79.053443 0.01765,0.01765 3.954639,2.151944 q 3.175,-0.127 6.268861,-0.26811 l -1.375834,-1.580444 c -2.596443,-0.03528 -6.09247,-0.137583 -8.865304,-0.321029 z"
         class="cls-84" />
      <path
         style="fill:#bfc7cc;stroke-width:0.35277775"
         inkscape:connector-curvature="0"
         id="path2319"
         d="m 68.119821,79.053443 c -0.47978,-0.03175 -1.012473,-0.07408 -1.439333,-0.10936 l 4.501443,2.31775 0.910167,-0.03881 -3.95464,-2.151943 z"
         class="cls-82" />
      <path
         style="fill:#b1bbc1;stroke-width:0.35277775"
         inkscape:connector-curvature="0"
         id="path2321"
         d="m 101.00576,79.642583 -1.411108,-2.166057 c -5.182304,0.95603 -14.463888,1.516946 -19.215804,1.799167 l 1.217083,1.524 c 6.928554,-0.338667 13.43025,-0.726721 19.409829,-1.15711 z"
         class="cls-85" />
      <path
         style="fill:#cbd1d5;stroke-width:0.35277775"
         inkscape:connector-curvature="0"
         id="path2323"
         d="m 102.23696,79.557916 -1.47461,-2.321277 c -0.35278,0.08114 -0.75142,0.162277 -1.171225,0.239887 l 1.411105,2.166057 z"
         class="cls-86" />
      <path
         style="fill:#c9d0d5;stroke-width:0.35277775"
         inkscape:connector-curvature="0"
         id="path2325"
         d="m 80.364735,79.275693 -1.44286,0.07761 1.23825,1.516943 1.41111,-0.07056 z"
         class="cls-87" />
      <path
         style="fill:#e9eaeb;stroke-width:0.35277775"
         inkscape:connector-curvature="0"
         id="path2327"
         d="m -55.10193,80.937276 1.41111,-1.55575 h -1.68627 l -0.29281,-0.01765 -1.27706,1.474611 z"
         class="cls-83" />
      <path
         style="fill:url(#linear-gradient-38);stroke-width:0.35277775"
         inkscape:connector-curvature="0"
         id="path2329"
         d="m -47.69359,81.290056 3.67241,-1.957917 v -0.01765 c -2.80105,0.179917 -7.05555,0.04939 -9.67669,0.08114 l -1.41111,1.55575 q 3.64772,0.169333 7.41539,0.338667 z"
         class="cls-88" />
      <path
         style="fill:#b1bbc1;stroke-width:0.35277775"
         inkscape:connector-curvature="0"
         id="path2331"
         d="m -57.96648,80.796166 1.25589,-1.47814 c -5.00945,-0.352777 -14.13581,-1.058333 -19.81553,-1.8415 l -0.62089,2.116667 c 5.91961,0.4445 12.34369,0.850196 19.18053,1.202973 z"
         class="cls-85" />
      <path
         style="fill:#cbd1d5;stroke-width:0.35277775"
         inkscape:connector-curvature="0"
         id="path2333"
         d="m -77.08351,79.589666 1.15006,-2.010833 a 8.9781941,8.9781941 0 0 0 -1.05834,-0.109361 l -1.3088,2.024944 z"
         class="cls-86" />
      <path
         style="fill:#c9d0d5;stroke-width:0.35277775"
         inkscape:connector-curvature="0"
         id="path2335"
         d="m -56.93284,80.852609 1.27705,-1.47461 c -0.41275,-0.02469 -0.508,-0.02469 -1.05833,-0.05997 l -1.25589,1.47814 z"
         class="cls-87" />
      <path
         style="fill:#797b7d;stroke-width:0.35277775"
         inkscape:connector-curvature="0"
         id="path2337"
         d="m -42.75471,79.173389 c -1.86972,0.705554 -9.17222,0.564444 -12.34722,0.564444 -3.52778,-0.261057 -18.32327,-1.456974 -22.04508,-2.469444 6.79803,0.92075 18.45028,1.763887 21.97805,2.024944 3.175,-0.0071 9.29923,0.105833 12.41425,-0.119944 z"
         class="cls-89" />
      <path
         style="fill:#797b7d;stroke-width:0.35277775"
         inkscape:connector-curvature="0"
         id="path2339"
         d="m 66.662848,78.933499 c 2.963333,0.606777 8.403166,0.705557 12.022666,0.751417 3.996971,-0.257527 17.81175,-0.87136 22.073306,-2.469444 -5.570362,1.224137 -18.030472,1.852084 -22.030972,2.116667 -2.928057,0 -8.593667,-0.105833 -12.065,-0.39864 z"
         class="cls-89" />
      <path
         inkscape:connector-curvature="0"
         id="path2341"
         d="m 79.687402,126.84778 a 3.203222,3.203222 0 1 1 -3.174998,3.175 3.1538333,3.1538333 0 0 1 3.174998,-3.175 z m 0,0.49741 a 2.7093333,2.7093333 0 1 0 2.568223,2.70934 2.6281944,2.6281944 0 0 0 -2.568223,-2.70934 z m -0.596194,4.55436 h -0.56797 v -3.55952 a 6.378222,6.378222 0 0 1 1.005414,-0.0847 1.8803055,1.8803055 0 0 1 1.107723,0.26811 0.85724997,0.85724997 0 0 1 0.328083,0.73731 0.89252774,0.89252774 0 0 1 -0.705556,0.86783 v 0.0282 c 0.310446,0.0565 0.522112,0.35278 0.596196,0.86431 a 2.917472,2.917472 0 0 0 0.225777,0.87841 h -0.596194 a 2.6140833,2.6140833 0 0 1 -0.23989,-0.90664 0.67027777,0.67027777 0 0 0 -0.769056,-0.62441 h -0.39511 z m 0,-1.97202 h 0.409223 c 0.469194,0 0.867833,-0.16934 0.867833,-0.61031 0,-0.31044 -0.229306,-0.62442 -0.867833,-0.62442 a 2.7551944,2.7551944 0 0 0 -0.409223,0.0282 z"
         style="stroke-width:0.35277775" />
      <path
         style="fill:url(#linear-gradient-39);stroke-width:0.35277775"
         inkscape:connector-curvature="0"
         id="path2343"
         d="m 79.687402,127.37694 a 3.203222,3.203222 0 1 1 -3.174998,3.175 3.1538333,3.1538333 0 0 1 3.174998,-3.175 z m 0,0.49742 a 2.7093333,2.7093333 0 1 0 2.568223,2.71286 2.6281944,2.6281944 0 0 0 -2.568223,-2.71286 z m -0.596194,4.55436 h -0.56797 v -3.55953 a 6.378222,6.378222 0 0 1 1.005414,-0.0847 1.8803055,1.8803055 0 0 1 1.107723,0.26811 0.85724997,0.85724997 0 0 1 0.328083,0.7373 0.88899997,0.88899997 0 0 1 -0.705556,0.86784 v 0.0282 c 0.310446,0.0564 0.522112,0.35278 0.596196,0.8643 a 2.917472,2.917472 0 0 0 0.225777,0.87842 h -0.596194 a 2.6140833,2.6140833 0 0 1 -0.23989,-0.90664 0.67027777,0.67027777 0 0 0 -0.769056,-0.62442 h -0.39511 z m 0,-1.97203 h 0.409223 c 0.469194,0 0.867833,-0.16933 0.867833,-0.6103 0,-0.31045 -0.229306,-0.62442 -0.867833,-0.62442 a 2.7551944,2.7551944 0 0 0 -0.409223,0.0282 z"
         class="cls-90" />
    </g>
  </g>
</svg>
