<?xml version="1.0" encoding="UTF-8" standalone="no"?>
<!-- Created with Inkscape (http://www.inkscape.org/) -->

<svg
   xmlns:dc="http://purl.org/dc/elements/1.1/"
   xmlns:cc="http://creativecommons.org/ns#"
   xmlns:rdf="http://www.w3.org/1999/02/22-rdf-syntax-ns#"
   xmlns:svg="http://www.w3.org/2000/svg"
   xmlns="http://www.w3.org/2000/svg"
   xmlns:sodipodi="http://sodipodi.sourceforge.net/DTD/sodipodi-0.dtd"
   xmlns:inkscape="http://www.inkscape.org/namespaces/inkscape"
   id="svg3336"
   version="1.1"
   inkscape:version="0.91 r13725"
   width="286.20001"
   height="100.8"
   viewBox="0 0 286.20001 100.8"
   sodipodi:docname="avx.svg">
  <metadata
     id="metadata3342">
    <rdf:RDF>
      <cc:Work
         rdf:about="">
        <dc:format>image/svg+xml</dc:format>
        <dc:type
           rdf:resource="http://purl.org/dc/dcmitype/StillImage" />
        <dc:title />
      </cc:Work>
    </rdf:RDF>
  </metadata>
  <defs
     id="defs3340" />
  <sodipodi:namedview
     pagecolor="#ffffff"
     bordercolor="#666666"
     borderopacity="1"
     objecttolerance="10"
     gridtolerance="10"
     guidetolerance="10"
     inkscape:pageopacity="0"
     inkscape:pageshadow="2"
     inkscape:window-width="2560"
     inkscape:window-height="1371"
     id="namedview3338"
     showgrid="false"
     inkscape:zoom="5.6568543"
     inkscape:cx="148.97879"
     inkscape:cy="41.418701"
     inkscape:window-x="0"
     inkscape:window-y="27"
     inkscape:window-maximized="1"
     inkscape:current-layer="svg3336" />
  <path
     inkscape:connector-curvature="0"
     id="path3360"
     d="m 67.725002,98.692464 c -0.673593,-0.413493 -0.661887,-1.231665 0.075,-5.242464 0.883425,-4.808388 0.918369,-4.65 -1.025865,-4.65 l -1.625868,0 0.471375,-1.2 0.471372,-1.2 2.147154,0 c 1.377156,0 2.355222,0.152145 2.727357,0.424254 0.572427,0.418569 0.571107,0.477873 -0.09843,4.425 -0.373248,2.20041 -0.676038,4.131039 -0.672864,4.290288 0.0032,0.159246 1.268502,-1.798254 2.811847,-4.35 L 75.812154,86.55 77.05608,86.45775 c 0.684156,-0.05074 1.243923,-0.0091 1.243923,0.09247 0,0.462417 -6.140319,10.593162 -6.877519,11.347029 -0.914523,0.935202 -2.806554,1.342122 -3.697482,0.795219 z m 8.850001,-0.176391 C 75.736182,98.09364 75.602964,97.873161 75.621204,96.93753 75.632874,96.339387 76.075146,94.8375 76.604055,93.6 l 0.961653,-2.25 1.293243,-0.09352 c 1.479297,-0.10698 1.473927,-0.213516 0.154788,3.070248 -0.392556,0.977196 -0.713736,1.888446 -0.713736,2.025 0,0.136551 1.001001,0.248277 2.224449,0.248277 l 2.224449,0 1.03776,-1.425 c 0.570768,-0.78375 1.472652,-2.20125 2.004189,-3.15 0.953703,-1.70229 0.984249,-1.725 2.319888,-1.725 1.160619,0 1.325037,0.07406 1.153983,0.519822 -0.10971,0.285903 0.04102,1.709568 0.33495,3.163698 l 0.534423,2.643879 1.31685,-0.0887 1.31685,-0.0887 0.947949,-2.55 0.947952,-2.55 1.42029,-0.09152 1.42029,-0.09152 -0.634713,1.591524 c -1.114836,2.79543 -1.480095,3.93099 -1.316907,4.094175 0.08748,0.08748 0.52767,0.03267 0.978201,-0.121797 0.630972,-0.216336 1.117872,-0.883872 2.11953,-2.905854 l 1.30038,-2.625 1.301114,0 1.30111,0 -1.02649,2.545659 c -0.56457,1.400112 -1.0265,2.615112 -1.0265,2.7 0,0.08489 0.99748,0.154341 2.21662,0.154341 l 2.21661,0 0.19033,-1.014582 c 0.24622,-1.312446 1.71936,-3.337068 2.85563,-3.924654 1.02574,-0.53043 2.21271,-0.59325 3.02233,-0.159954 0.37572,0.201084 0.62371,0.201084 0.74798,0 0.17633,-0.285309 2.5505,-0.444744 2.5505,-0.171276 0,0.07124 -0.405,1.227954 -0.9,2.570466 -0.495,1.342512 -0.9,2.499222 -0.9,2.570466 0,0.07124 0.79306,0.129534 1.76235,0.129534 l 1.76235,0 1.13782,-3.075 c 1.38349,-3.738975 2.29124,-5.615706 3.03006,-6.264516 0.91946,-0.807444 1.86284,-0.958704 2.67211,-0.428448 1.54092,1.00965 0.69681,3.653628 -2.3933,7.496493 -0.91926,1.143189 -1.67139,2.121939 -1.67139,2.175 0,0.05306 0.86894,0.09647 1.93096,0.09647 l 1.93097,0 17.2014,-18.225 c 9.46077,-10.02375 19.08593,-20.25 21.38924,-22.725 2.30331,-2.475 4.56429,-4.818312 5.0244,-5.207358 1.23929,-1.047885 1.50538,-1.699158 1.15525,-2.827524 -0.16471,-0.530817 -0.7335,-2.585118 -1.26398,-4.565118 -0.53048,-1.98 -1.0826,-3.83625 -1.22693,-4.125 -0.22683,-0.453801 -0.72471,-0.525 -3.67126,-0.525 l -3.40884,0 -2.2806,3.886485 c -1.25433,2.137566 -2.2806,3.969492 -2.2806,4.070946 0,0.101454 -0.4081,0.777615 -0.90689,1.502577 -0.49879,0.724962 -1.24941,1.964286 -1.66806,2.754054 -0.41864,0.789765 -1.25929,2.257311 -1.86811,3.261213 -0.60882,1.003902 -1.66754,2.759931 -2.35271,3.902283 -3.61688,6.03027 -6.28828,8.396604 -10.80812,9.57387 -2.00167,0.52137 -5.38833,0.588759 -6.59189,0.131169 -0.51821,-0.197025 -3.88206,-0.307809 -8.86953,-0.292107 l -8.0347,0.0253 0,-4.807896 0,-4.807893 -2.79396,0 -2.79395,0 -3.28513,4.725 -3.28513,4.725 -8.776769,0.07954 -8.776773,0.07954 3.159633,-4.729539 3.159636,-4.729542 -1.028433,-0.15 -1.02843,-0.15 1.345596,-3.9 c 0.740076,-2.145 1.53597,-4.486236 1.768653,-5.202744 0.232683,-0.716511 0.71385,-2.100261 1.069257,-3.075 L 91.580397,43.5 l 3.086931,0 3.086931,0 7.617501,-10.725 7.61749,-10.725 10.33038,-0.0866 c 10.87387,-0.09116 14.22694,0.13805 16.10452,1.100872 3.3691,1.727675 4.00446,4.431829 2.79013,11.875075 -0.32208,1.974138 -0.54613,3.628806 -0.4979,3.677034 0.0482,0.04823 2.37124,-3.659475 5.16225,-8.239344 l 5.07455,-8.327034 10.64841,0 c 11.85581,0 12.62858,0.09789 14.68797,1.860659 1.65389,1.415663 2.52276,3.027151 3.42609,6.354292 0.42034,1.548225 0.81717,2.867859 0.88183,2.932524 0.0647,0.06466 6.02534,-6.635816 13.24595,-14.889953 L 207.9718,3.3 l 13.79077,0 13.79078,0 -0.70167,0.8329314 c -0.38592,0.4581123 -10.49349,11.0893626 -22.46127,23.6249996 -11.96778,12.535639 -22.54002,23.623174 -23.49387,24.638971 -1.65043,1.757619 -1.72446,1.902645 -1.53139,3 0.28669,1.629426 2.20301,9.117621 2.54073,9.928098 l 0.28126,0.675 10.34286,0 10.34285,0 -2.15,3.375 c -4.96455,7.793199 -10.42981,11.319048 -18.97049,12.238593 -7.34337,0.790635 -12.47052,-1.247574 -14.69892,-5.843289 -0.40544,-0.836166 -1.04458,-2.633031 -1.4203,-3.99303 -0.37572,-1.360002 -0.75063,-2.468685 -0.83313,-2.463744 -0.0825,0.0049 -6.4275,6.67857 -14.1,14.830284 l -13.95,14.821302 -12.09271,0.01743 c -7.31246,0.01056 -12.0251,-0.09195 -11.92167,-0.259296 0.0979,-0.158463 -0.30367,-0.145665 -0.93967,0.02994 -1.49371,0.412434 -3.12114,0.108843 -3.72778,-0.695397 l -0.49627,-0.657918 -0.81639,0.642171 c -1.27959,1.006527 -2.73633,1.158891 -3.77042,0.394353 l -0.86522,-0.639681 -0.98494,0.600513 c -1.46806,0.895071 -2.77583,0.793671 -3.5671,-0.276591 l -0.65013,-0.879342 -1.55811,0.879342 c -1.92538,1.086621 -4.254621,1.224084 -5.090517,0.300429 -0.51729,-0.571602 -0.535893,-0.571614 -1.471497,-0.0012 -1.358682,0.828465 -3.057657,0.761934 -3.905532,-0.15294 l -0.679302,-0.732978 -0.881373,0.581001 c -0.719409,0.474234 -1.418889,0.581364 -3.806376,0.582978 -1.60875,0.0012 -2.925,-0.07223 -2.925,-0.162921 0,-0.09069 0.205968,-0.563193 0.457704,-1.05 0.351207,-0.679158 0.665322,-0.885102 1.35,-0.885102 0.672468,0 0.892296,-0.138579 0.892296,-0.5625 0,-0.905214 -0.358083,-2.4375 -0.569625,-2.4375 -0.107046,0 -0.798921,0.800328 -1.5375,1.778511 -1.438092,1.904616 -2.744229,2.881098 -3.477411,2.599749 -0.249408,-0.09571 -0.820833,0.01596 -1.269834,0.248145 -1.392675,0.72018 -2.805783,0.825933 -3.87063,0.289668 z M 109.76893,95.83956 c 1.02935,-1.172373 1.1454,-1.688214 0.50025,-2.223645 -0.60085,-0.49866 -1.41974,-0.0036 -2.10792,1.274226 -0.58535,1.086936 -0.47136,2.009859 0.24825,2.009859 0.23559,0 0.84732,-0.477198 1.35942,-1.06044 z m 38.59233,-6.689796 c 2.79881,-2.942631 9.61125,-10.052667 15.13875,-15.800085 l 10.05,-10.449849 0.25783,1.325085 c 1.87138,9.617409 3.02638,12.313068 5.90493,13.781598 3.73825,1.907112 11.50403,1.240377 16.57567,-1.423113 2.25691,-1.185267 5.67587,-4.164675 6.60353,-5.754552 L 203.43393,69.9 l -8.54926,0 c -4.70209,0 -8.61919,-0.113157 -8.70466,-0.251457 -0.0855,-0.138303 -1.04981,-3.73494 -2.14296,-7.992525 l -1.98755,-7.741065 2.07772,-2.132478 C 186.14237,49.71423 224.18131,9.8352123 226.00875,7.875 l 0.90896,-0.975 -9.28385,0.00724 -9.28385,0.00724 -14.65938,16.792756 C 185.62797,32.943261 178.94038,40.5 178.82932,40.5 c -0.21078,0 -0.60647,-1.343151 -2.16535,-7.35 -1.14524,-4.412995 -1.7202,-5.587409 -3.17964,-6.494768 -1.12272,-0.698016 -1.23562,-0.706113 -11.03432,-0.791353 l -9.9,-0.08612 -4.47993,7.436122 c -7.18583,11.92761 -14.09998,23.156214 -14.19822,23.057973 -0.0499,-0.04994 0.57753,-3.585288 1.39439,-7.856328 C 136.9804,39.452919 138.3,31.23426 138.3,29.520969 c 0,-1.407835 -0.58391,-2.340425 -1.89321,-3.023731 -0.78926,-0.411905 -2.42757,-0.540485 -9.35679,-0.734353 -4.62,-0.129259 -9.59847,-0.140037 -11.06327,-0.02395 l -2.66327,0.211066 -7.53673,10.703166 -7.536727,10.703166 -2.85,0.09683 -2.85,0.09683 -1.104969,3.15 c -1.487538,4.240617 -1.498239,4.15083 0.507696,4.26003 l 1.652727,0.08997 -3.160539,4.73247 -3.160539,4.732467 4.860462,-0.08247 4.860462,-0.08247 3.293697,-4.725 3.29369,-4.725 5.35366,0 5.35365,0 0,4.8 0,4.8 4.35,0 4.35,0 0,-15.6 0,-15.6 3.15,0 3.15,0 0,0.950754 c 0,0.522912 -1.02277,6.623226 -2.27283,13.55625 -1.49273,8.278899 -2.20843,12.948786 -2.0852,13.605663 0.24798,1.321881 1.72453,2.963739 3.06242,3.405282 0.63212,0.208617 2.03816,0.298791 3.4156,0.219051 3.07944,-0.178266 5.68772,-1.413111 7.59843,-3.597339 0.73831,-0.843996 3.11249,-4.516938 5.27595,-8.1621 C 146.45783,49.632402 149.6729,44.22 151.43897,41.25 l 3.21104,-5.4 5.62841,-0.08163 c 5.60374,-0.08127 5.62968,-0.07864 5.91817,0.6 0.15938,0.374898 1.10687,3.625224 2.10554,7.222944 1.76654,6.363999 1.80129,6.559548 1.28182,7.214007 -0.59068,0.744174 -12.76326,13.741014 -27.53395,29.398392 -5.28,5.596962 -10.45468,11.103294 -11.4993,12.236292 L 128.6514,94.5 l 7.31056,0 7.31056,0 5.08874,-5.350236 z M 108.05,47.175 c 0.15444,-0.347469 5.69279,-8.587725 5.9885,-8.91 0.14967,-0.163122 0.2615,1.729215 0.2615,4.425 l 0,4.71 -3.175,0 c -1.74625,0 -3.13,-0.10125 -3.075,-0.225 z m 13.12008,44.089782 C 122.25,89.137827 122.43932,88.5 121.99073,88.5 c -0.21693,0 -0.56908,0.37125 -0.78256,0.825 -0.48229,1.025115 -1.80817,4.341219 -1.80817,4.522341 0,0.308064 1.16667,-1.394115 1.77008,-2.582559 z M 78.675003,89.801316 c -0.603942,-0.243696 -0.454587,-1.837611 0.205278,-2.190762 0.862431,-0.461559 2.03043,-0.375963 2.237625,0.163983 0.285651,0.744396 0.22422,0.98334 -0.417903,1.625463 -0.581388,0.581388 -1.250235,0.71394 -2.025,0.401316 z m 2.087649,-5.644638 -0.959634,-0.807477 -1.011918,0.625398 c -1.392984,0.860913 -4.141596,0.874902 -4.991097,0.0254 -0.33,-0.33 -0.6,-0.73314 -0.6,-0.895866 0,-0.162729 0.632328,-2.052729 1.405176,-4.2 L 76.010355,75 l 1.740447,0 1.740447,0 -0.623637,1.575 c -2.165919,5.470059 -2.196834,5.625 -1.122342,5.625 1.034847,0 2.340936,-1.617069 3.513447,-4.35 l 1.158378,-2.7 1.692996,-0.09002 1.692996,-0.09002 -0.635022,1.590015 C 84.818805,77.434491 84.21177,78.99375 83.819103,80.025 l -0.713943,1.875 2.811807,0 2.811807,0 0.32169,-1.277544 c 0.427584,-1.69809 1.866624,-3.798327 3.231465,-4.716225 1.31148,-0.882009 3.13833,-0.952389 4.019595,-0.154854 0.664038,0.600948 0.391428,1.067634 2.251224,-3.853932 0.551301,-1.458906 1.065036,-2.715228 1.141638,-2.791827 0.0766,-0.0766 0.805104,-0.09795 1.618894,-0.04745 l 1.47962,0.09183 -2.17576,6 c -1.196678,3.3 -2.185082,6.16875 -2.196455,6.375 -0.01476,0.267489 0.604221,0.375 2.158985,0.375 l 2.17967,0 1.3487,-3.375 1.3487,-3.375 1.69642,-0.08922 1.69641,-0.08922 -1.32478,3.359229 c -0.72863,1.847577 -1.32479,3.406476 -1.32479,3.46422 0,0.05774 1.1475,0.104988 2.55,0.104988 l 2.55,0 0.007,-1.125 c 0.006,-1.09566 0.75722,-3.02997 1.55726,-4.012026 1.25553,-1.541163 4.23434,-2.25213 6.02246,-1.437411 1.70593,0.777276 2.21738,3.544533 1.08676,5.880084 -1.66714,3.443856 -6.19979,4.665729 -8.13501,2.19297 l -0.68927,-0.880722 -1.4269,0.928188 c -2.38834,1.553589 -5.83308,1.435476 -6.59009,-0.225966 -0.35618,-0.781743 -0.68037,-0.907836 -1.00085,-0.389283 -0.34389,0.556428 -3.223927,1.763127 -4.215487,1.766235 -0.513999,0.0015 -1.280784,-0.269424 -1.70397,-0.602301 l -0.769425,-0.605229 -1.112895,0.755229 c -1.87479,1.272267 -4.356234,0.86973 -5.175843,-0.839619 l -0.396678,-0.827292 -1.01595,0.627894 c -1.957275,1.20966 -2.989503,1.607226 -4.497705,1.732296 -1.314759,0.109032 -1.650672,0.01674 -2.480343,-0.681369 z M 94.134966,82.03179 c 1.364445,-0.955695 2.020902,-3.27999 1.134213,-4.015875 -0.553644,-0.459483 -1.405605,-0.02868 -2.228367,1.126773 -1.639797,2.302881 -0.891156,4.279665 1.094154,2.889102 z m 22.811784,-1.685874 c 0.85014,-1.713189 0.54106,-2.744112 -0.77615,-2.588895 -1.09871,0.129468 -2.39317,2.566539 -1.87625,3.53241 0.24787,0.463158 0.57428,0.620157 1.15083,0.553548 0.61999,-0.07162 0.96484,-0.415434 1.50157,-1.497063 z m -57.257926,2.470545 c 0.666147,-0.980946 1.211178,-1.858446 1.211178,-1.95 0,-0.09155 -0.27,-0.166461 -0.6,-0.166461 -0.718797,0 -0.709104,0.127083 -0.1218,-1.596558 C 60.634364,77.76468 60.708566,77.7 61.788239,77.7 c 1.114683,0 1.176558,-0.06365 4.083045,-4.2 l 2.951211,-4.2 1.888755,0 1.888753,0 0,7.65 0,7.65 -1.650001,0 -1.65,0 0,-1.95 0,-1.95 -2.084841,0 -2.084844,0 -1.39149,1.95 -1.391493,1.95 -1.934844,0 -1.934844,0 1.211178,-1.783539 z m 9.60039,-6.841461 -0.0108,-1.725 -0.671808,0.820395 c -0.369495,0.451218 -0.912273,1.227468 -1.206171,1.725 L 66.866081,77.7 l 1.216959,0 1.216962,0 -0.0108,-1.725 z m 37.382216,-2.946429 c -0.65979,-0.659796 -0.58721,-1.419756 0.20357,-2.131572 1.01384,-0.912591 1.72376,-1.066824 2.51727,-0.546888 0.8724,0.571617 0.89984,1.324749 0.086,2.359431 -0.71528,0.909327 -2.06328,1.062546 -2.8068,0.319029 z"
     style="fill:#964040" />
  <g
     id="g4140"
     style="fill:#999999">
    <path
       style="fill:#999999"
       d="m 99.300003,99.100557 c -0.2475,-0.09837 -0.691722,-0.38961 -0.987159,-0.647202 -0.487746,-0.425271 -0.616191,-0.421671 -1.396287,0.03914 C 96.444036,98.771625 95.443311,99 94.69272,99 93.604758,99 93.218712,98.854773 92.789007,98.28384 l -0.539004,-0.716157 -0.9,0.641157 c -0.748107,0.532953 -1.418964,0.658425 -3.975,0.743466 -1.69125,0.05627 -3.075,0.02709 -3.075,-0.06482 0,-0.09192 0.227505,-0.644208 0.505563,-1.227306 0.401871,-0.842736 0.678759,-1.060179 1.35,-1.060179 0.783069,0 0.844437,-0.08592 0.844437,-1.182294 0,-0.650262 -0.127917,-1.261353 -0.284259,-1.357977 -0.156342,-0.09663 -0.840243,0.560712 -1.519779,1.460751 C 83.792364,97.379538 82.843083,98.1 81.797196,98.1 c -0.398157,0 -1.241826,0.216396 -1.874826,0.480879 -2.061723,0.861444 -4.635915,0.02304 -4.612872,-1.502376 0.0052,-0.345675 0.520326,-1.843503 1.144677,-3.328503 1.075503,-2.558049 1.186911,-2.705055 2.119065,-2.796138 1.83261,-0.17907 1.874616,-0.02163 0.755091,2.830059 -0.565581,1.440663 -1.028328,2.663643 -1.028328,2.717733 0,0.05409 0.97875,0.09308 2.175,0.08665 l 2.175,-0.0117 0.97905,-1.331061 c 0.538479,-0.732084 1.415979,-2.142072 1.95,-3.133308 0.970704,-1.801785 0.971304,-1.802247 2.359893,-1.807239 l 1.388943,-0.005 0.169449,1.725 c 0.09319,0.94875 0.261978,2.36625 0.375072,3.15 l 0.205623,1.425 1.266474,0 1.266474,0 1.022979,-2.775 1.022979,-2.775 1.461243,-0.09306 c 1.674432,-0.106635 1.64955,-0.384627 0.295446,3.300909 -0.466359,1.269315 -0.767655,2.38812 -0.669543,2.486232 0.09811,0.09811 0.534195,0.01626 0.969075,-0.181881 0.751623,-0.342462 1.555629,-1.692225 2.702655,-4.5372 0.414897,-1.029072 0.552936,-1.125 1.618885,-1.125 0.64091,0 1.24501,0.0797 1.34243,0.177123 0.18064,0.180639 -0.12258,1.145877 -1.24017,3.947877 l -0.6282,1.575 2.20728,0 2.20728,0 0.20072,-1.255236 c 0.15312,-0.957594 0.5433,-1.597812 1.64548,-2.7 1.29277,-1.292769 1.58499,-1.444764 2.77763,-1.444764 0.73307,0 1.49485,0.162 1.69285,0.36 0.28,0.279999 0.36,0.279999 0.36,0 0,-0.226668 0.5,-0.36 1.35,-0.36 0.7425,0 1.35,0.109161 1.35,0.24258 0,0.133416 -0.40358,1.348416 -0.89684,2.7 l -0.89685,2.45742 1.72707,0 1.72706,0 1.34478,-3.656109 c 2.08307,-5.66331 3.13645,-6.949854 5.25499,-6.418137 1.10612,0.27762 1.5214,1.385079 1.07638,2.870448 -0.35493,1.184634 -1.93689,3.621027 -3.89831,6.003813 l -1.01173,1.229073 2.00365,-0.08954 2.00364,-0.08954 18.97258,-20.1 18.97258,-20.1 -6.4645,-0.08565 c -5.92004,-0.07844 -6.49679,-0.04054 -6.84793,0.45 -0.21089,0.294606 -1.16889,1.75065 -2.12889,3.23565 -3.12921,4.840494 -5.99894,6.918537 -10.88319,7.880787 -2.04492,0.402873 -2.69181,0.418914 -4.1154,0.102054 -1.15542,-0.257175 -4.27198,-0.363171 -9.86409,-0.33549 l -8.175,0.04047 0,-4.968912 0,-4.968909 -2.775,0.01149 -2.775,0.01149 -3.39187,4.938498 -3.391871,4.93851 -8.683128,0 c -4.775721,0 -8.683128,-0.114027 -8.683128,-0.253395 0,-0.139365 1.422561,-2.366865 3.161247,-4.95 L 88.822497,57.6 l -1.066962,0 c -0.987897,0 -1.053033,-0.0555 -0.878985,-0.748959 L 87.064527,56.102082 44.807264,56.026041 2.5500001,55.95 2.4550734,55.125 2.3601467,54.3 l 42.7699293,0 c 25.773534,0 42.769927,-0.109467 42.769927,-0.275463 0,-0.151506 0.08168,-0.488316 0.181509,-0.748464 0.164343,-0.42828 -2.494941,-0.48024 -28.125001,-0.549537 L 31.650001,52.65 31.555075,51.825 31.460149,51 l 28.665901,0 28.665901,0 0.454026,-1.086636 c 0.249714,-0.597651 0.454026,-1.272651 0.454026,-1.5 C 89.700003,48.064332 83.630382,48 50.700002,48 L 11.7,48 l 0,-0.74889 0,-0.748887 L 51.066467,46.42611 90.432933,46.35 90.930654,45 l 0.497718,-1.35 3.159666,-0.15 3.159663,-0.15 7.745439,-10.921524 7.74544,-10.921526 11.45622,0.207132 c 7.8601,0.142112 11.93249,0.330672 12.97346,0.600697 3.05122,0.791475 4.99239,2.907319 5.32011,5.798812 0.0911,0.804146 -0.10989,3.27678 -0.45672,5.617467 -0.34074,2.299584 -0.58255,4.218039 -0.53735,4.263234 0.0452,0.0452 2.2935,-3.557529 4.99623,-8.006058 L 151.90458,21.9 l 10.55003,0 c 11.33577,0 12.25848,0.100983 14.5046,1.587393 1.72376,1.14073 2.76298,2.935152 3.78394,6.5337 l 0.92886,3.273921 13.189,-15.13668 13.189,-15.1366794 13.875,-0.010827 c 7.63125,-0.00595 13.875,0.060835 13.875,0.1484214 0,0.087587 -9.25321,9.841337 -20.56268,21.675 L 194.67466,46.35 l 33.76267,0.07629 33.76268,0.07629 0,0.748713 0,0.748713 -34.61179,0 -34.6118,0 -1.31321,1.425 -1.3132,1.425 45.975,0.07595 45.975,0.07596 0,0.899043 0,0.899046 -46.89771,0 -46.8977,0 -0.70459,0.75 -0.70459,0.75 33.05229,0 33.0523,0 0,0.9 0,0.9 -32.81987,0 -32.81987,0 1.22236,4.8 1.22236,4.8 10.47961,0 c 9.46838,0 10.46189,0.04616 10.29603,0.478392 -0.10097,0.263118 -1.1839,1.993257 -2.40651,3.844755 -3.90731,5.917188 -7.90699,9.056889 -13.83528,10.860552 -2.41798,0.735663 -3.15723,0.819528 -7.33883,0.832557 -4.14119,0.0129 -4.83531,-0.05939 -6.34345,-0.660633 -3.74561,-1.493253 -5.38598,-3.410637 -6.97834,-8.15682 -0.5611,-1.672428 -1.08645,-3.10704 -1.16744,-3.188028 -0.081,-0.08099 -6.40529,6.476523 -14.05401,14.572251 l -13.90676,14.719503 -14.02179,-0.01557 -14.02178,-0.01557 -0.52822,-0.701856 -0.52822,-0.701856 -0.83904,0.596589 c -0.46148,0.328125 -1.37809,0.668892 -2.03692,0.757257 -0.97294,0.1305 -1.33587,0.03102 -1.93281,-0.52977 -0.67727,-0.636267 -0.77642,-0.652899 -1.26363,-0.21198 -1.00832,0.912513 -2.11865,1.152903 -3.21304,0.695637 -0.5537,-0.231354 -1.09337,-0.693585 -1.19925,-1.027185 -0.18645,-0.587448 -0.23693,-0.579171 -1.60391,0.262926 -1.40528,0.865701 -3.40465,1.329909 -4.261397,0.9894 z M 109.77823,95.809542 C 110.58614,94.782453 110.60944,93.6 109.82178,93.6 109.08522,93.6 108,94.964409 108,95.890458 c 0,0.979185 0.97941,0.93462 1.77823,-0.08092 z M 130.8,93.39 c 0,-0.6105 -0.10327,-0.98175 -0.22949,-0.825 -0.12622,0.15675 -0.55475,0.65625 -0.95229,1.11 l -0.7228,0.825 0.95229,0 c 0.89814,0 0.95229,-0.06312 0.95229,-1.11 z m -9.64459,-2.295615 c 0.55298,-1.079064 0.93923,-2.137986 0.85834,-2.353161 -0.12342,-0.328281 -2.31375,3.843483 -2.31375,4.40682 0,0.493851 0.54143,-0.270132 1.45541,-2.053659 z M 182.92599,68.025 c -0.071,-8.096307 -0.2038,-11.31222 -0.51971,-12.586155 -0.38541,-1.554231 -0.37765,-1.762737 0.0847,-2.273622 0.45291,-0.500463 0.5085,-1.46931 0.50424,-8.788845 l -0.005,-8.226378 -0.82021,0.924231 c -0.45112,0.508326 -1.39559,1.575441 -2.09884,2.371365 -0.70325,0.795924 -1.33602,1.389753 -1.40616,1.319616 -0.0701,-0.07013 -0.8087,-2.673342 -1.64125,-5.784906 -1.64956,-6.164981 -2.09887,-7.186249 -3.60954,-8.204287 C 172.58523,26.217226 172.0028,26.1 170.05564,26.1 l -2.35563,0 0,7.437606 0,7.437609 1.29786,4.671279 1.29787,4.671279 -1.29787,1.373652 -1.29786,1.373649 0,7.819719 0,7.819719 2.9484,-3.055341 2.9484,-3.055341 0.51907,2.678085 c 1.36067,7.020291 2.69796,10.602318 4.45475,11.932338 0.80824,0.611892 3.2732,1.591347 4.21506,1.674852 0.12962,0.01149 0.19276,-4.872855 0.1403,-10.854105 z M 130.8,45.647616 l 0,-19.452383 -6.075,-0.196828 c -3.34125,-0.108256 -7.2225,-0.196345 -8.625,-0.195753 l -2.55,0.0011 -2.7737,3.973135 -2.77371,3.973137 -0.001,6.591753 c -10e-4,5.63517 0.0577,6.505878 0.405,6 0.22346,-0.325464 1.64096,-2.402346 3.15,-4.61529 l 2.74361,-4.023541 0,4.848537 0,4.848537 -3.15,0 -3.15,0 0,3.6 0,3.6 3.15,0 3.15,0 0,4.95 0,4.95 4.2,0 4.2,0 0,-15.75 0,-15.75 3.11327,0 c 2.36319,0 3.20083,0.105507 3.47671,0.437919 0.28966,0.34902 -0.0987,3.018711 -1.91327,13.150953 -1.25219,6.992169 -2.27671,13.28181 -2.27671,13.976979 0,1.322097 0.53464,2.65746 1.32738,3.315372 0.65139,0.540603 2.56194,1.189878 3.54762,1.20561 L 130.8,65.1 l 0,-19.452384 z M 88.79541,63.525 c -0.0047,-0.999303 -0.118401,-0.943449 -0.916008,0.45 -0.244107,0.426462 -0.185916,0.525 0.310047,0.525 0.489774,0 0.609645,-0.192876 0.605961,-0.975 z m 74.4046,-9.975 0.70458,-0.75 -7.14422,0 c -6.4522,0 -7.18282,0.05085 -7.54275,0.525 -0.21919,0.28875 -0.40282,0.62625 -0.40807,0.75 -0.005,0.12375 3.07192,0.225 6.83816,0.225 l 6.84771,0 0.70459,-0.75 z m 3.54964,-3.764157 c 0.54981,-0.639855 0.9131,-1.303428 0.8073,-1.474608 C 167.43241,48.109722 164.72813,48 159.88606,48 l -7.47853,0 -0.69988,1.125 c -0.38494,0.61875 -0.7996,1.29375 -0.92147,1.5 -0.17504,0.296226 1.37339,0.369666 7.37112,0.349605 l 7.59271,-0.02538 0.99964,-1.16337 z M 166.31402,43.875 c -0.40108,-1.44375 -0.87684,-3.19875 -1.05724,-3.9 l -0.328,-1.275 -3.55293,0 -3.55293,0 -2.15379,3.675 c -1.18459,2.02125 -2.21021,3.77625 -2.27916,3.9 -0.069,0.12375 2.97483,0.225 6.76396,0.225 l 6.88933,0 -0.72924,-2.625 z m 57.89229,-34.2 2.43045,-2.475 -6.06838,0 -6.06837,0 0.009,6.225 0.009,6.225 3.62852,-3.75 c 1.99569,-2.0625 4.72223,-4.86375 6.05898,-6.225 z M 67.365629,98.315952 c -0.403503,-0.615825 -0.374622,-1.087053 0.289608,-4.725 0.405798,-2.222523 0.739377,-4.142202 0.741288,-4.265952 0.0018,-0.12375 -0.663555,-0.225 -1.478817,-0.225 -0.815262,0 -1.556868,-0.120657 -1.648008,-0.268131 -0.09114,-0.147471 0.0377,-0.754971 0.28632,-1.35 L 66.008054,86.4 l 2.335974,0 c 1.41687,0 2.477619,0.141645 2.695974,0.36 0.493431,0.493431 0.43296,1.956339 -0.226938,5.49 -0.30813,1.65 -0.534867,3.026007 -0.503856,3.057795 0.03101,0.03178 1.267876,-1.957482 2.748589,-4.420599 l 2.692206,-4.478391 1.449468,-0.0044 1.449468,-0.0044 -0.592263,0.975 c -0.325746,0.53625 -1.500741,2.5275 -2.611104,4.425 -3.205461,5.477823 -3.772041,6.298281 -4.670077,6.762675 -1.314684,0.679848 -2.876814,0.56682 -3.409866,-0.246723 z m 10.923607,-8.93607 c -0.396918,-0.741651 0.23442,-1.92 1.191444,-2.22375 0.854838,-0.271314 1.819323,0.34254 1.819323,1.157928 0,1.505622 -2.333328,2.33163 -3.010767,1.065822 z M 90.910392,84.80847 c -0.571788,-0.197157 -1.32297,-0.779988 -1.669296,-1.295178 -0.579318,-0.86178 -0.676137,-0.901149 -1.210389,-0.492192 -2.490405,1.906335 -6.032136,2.451003 -7.534521,1.158705 L 79.65891,83.45961 78.754455,84.104805 c -1.851648,1.320879 -5.554452,0.629103 -5.554452,-1.037712 0,-0.579228 2.107953,-6.660846 2.677743,-7.725507 C 76.164225,74.806296 76.492728,74.7 77.860557,74.7 c 0.901695,0 1.639446,0.108879 1.639446,0.241956 0,0.133077 -0.54,1.627596 -1.2,3.321153 -0.66,1.69356 -1.2,3.204681 -1.2,3.358044 0,0.428748 1.292664,0.330561 1.979241,-0.150336 0.550884,-0.385854 1.659516,-2.520576 2.932062,-5.645817 0.451923,-1.109874 0.480471,-1.125 2.123388,-1.125 0.915921,0 1.665309,0.108879 1.665309,0.241956 0,0.133077 -0.54,1.627596 -1.2,3.321153 -0.66,1.69356 -1.2,3.137181 -1.2,3.208044 0,0.07087 1.199976,0.128847 2.666613,0.128847 l 2.666613,0 0.187044,-0.997032 c 0.255297,-1.360851 1.694601,-3.554955 2.970291,-4.527972 1.374429,-1.048326 2.839899,-1.281501 4.066761,-0.647067 0.924183,0.477915 0.957363,0.472623 1.212135,-0.193281 C 97.313529,74.858091 97.870071,73.4025 98.406222,72 c 0.536151,-1.4025 1.108116,-2.71875 1.271034,-2.925 0.331144,-0.41922 2.799464,-0.517182 3.044424,-0.120828 0.0864,0.139797 -0.32279,1.591047 -0.90931,3.225 -0.58652,1.633956 -1.58616,4.422078 -2.221409,6.195828 l -1.155003,3.225 2.202672,0 2.20268,0 0.33478,-0.975 c 0.18413,-0.53625 0.77108,-2.019489 1.30435,-3.296085 L 105.45,75.00783 107.1617,75.0039 108.87339,75 l -0.40932,1.125 c -0.22513,0.61875 -0.75914,2.039331 -1.18669,3.156849 -0.42756,1.117515 -0.77738,2.096265 -0.77738,2.175 0,0.07873 0.99102,0.143151 2.20226,0.143151 l 2.20227,0 0.36429,-1.627845 c 0.87324,-3.902043 4.27426,-6.139644 7.36749,-4.847214 3.58092,1.496205 2.28609,7.518045 -2.00167,9.309144 -2.09871,0.876681 -4.19008,0.393984 -5.02116,-1.158909 -0.36127,-0.675036 -0.477,-0.722109 -0.88939,-0.36177 -2.30351,2.012739 -6.1455,2.321049 -7.49794,0.601689 l -0.55654,-0.707526 -1.7959,0.926217 c -2.18064,1.124643 -3.720783,1.208412 -4.733049,0.257439 l -0.711879,-0.668778 -0.937407,0.788778 C 93.975801,84.545052 93.372867,84.9 93.151521,84.9 c -0.221346,0 -0.582237,0.06006 -0.801981,0.13347 -0.219747,0.07341 -0.867363,-0.02784 -1.439148,-0.225 z m 3.135507,-2.95884 C 95.723571,80.529975 96.120726,78 94.650216,78 c -1.126587,0 -2.774844,2.719641 -2.387637,3.939624 0.233313,0.735108 0.768723,0.70809 1.78332,-0.08999 z m 22.493071,-0.891222 c 0.59856,-0.711351 0.77013,-1.206513 0.70166,-2.025 -0.0775,-0.926397 -0.19758,-1.083408 -0.82868,-1.083408 -1.26207,0 -2.75524,3.006711 -1.91194,3.849999 0.45111,0.451116 1.29302,0.144906 2.03896,-0.741591 z M 58.68335,84.225 c 0.120318,-0.20625 0.600786,-0.939324 1.067706,-1.629054 C 60.737024,81.139488 60.768614,81 60.112502,81 c -0.523182,0 -0.470409,-0.825399 0.158247,-2.475 0.264609,-0.694338 0.493752,-0.827241 1.446828,-0.839142 1.111149,-0.01389 1.189029,-0.0942 4.145109,-4.275 L 68.87537,69.15 l 1.937316,0 1.937317,0 0.08006,7.725 0.08006,7.725 -1.955065,0 -1.955064,0 0,-1.8 0,-1.8 -2.025,0.0073 -2.025,0.0072 -1.2,1.78551 -1.2,1.78551 -2.042706,0.0072 c -1.552275,0.0055 -1.990182,-0.08279 -1.823946,-0.367755 z m 10.316652,-8.075001 c 0,-0.852498 -0.04562,-1.493748 -0.101385,-1.425 -0.05576,0.06875 -0.534747,0.766251 -1.064412,1.550001 l -0.963027,1.425 1.064412,0 1.064412,0 0,-1.550001 z M 106.56,73.14 c -1.35507,-1.355076 1.1506,-3.89766 2.91206,-2.954955 0.81849,0.438039 0.83363,1.909272 0.0279,2.714955 -0.67183,0.671829 -2.36958,0.81042 -2.94,0.24 z"
       id="path3362"
       inkscape:connector-curvature="0" />
    <path
       inkscape:connector-curvature="0"
       id="path4183"
       d="m 112.81684,24.591098 c -1.97528,2.309327 -3.53426,4.979563 -5.34717,7.429644 -1.48431,1.534855 -0.72941,3.7671 -0.90729,5.667366 0.0941,2.98423 -0.18755,6.018341 0.30412,8.969347 -0.65932,1.304738 -0.16318,2.938324 -0.31764,4.375914 0.15157,1.465348 -0.35285,3.132789 0.36142,4.451232 1.1288,1.088849 2.90318,0.381175 4.3204,0.584143 1.37734,-0.2863 2.03127,0.150812 1.68214,1.59099 0.0899,2.433651 -0.18598,4.91889 0.14665,7.318313 0.65194,1.555686 2.68015,0.819187 4.00484,0.990192 2.08624,-0.122105 4.24401,0.263056 6.27799,-0.229603 0.9773,-0.715099 0.64831,-1.993735 0.70193,-3.033861 0.98007,2.677027 4.12473,3.940464 6.79207,3.746006 1.80216,-0.282274 1.26886,-2.443503 1.33966,-3.75015 0,-12.120943 -1e-5,-24.241885 0,-36.362828 -0.13293,-1.700855 -2.06268,-1.566184 -3.32227,-1.620872 -5.1309,-0.177768 -10.28229,-0.305934 -15.40583,-0.295955 -0.21034,0.05671 -0.42068,0.113414 -0.63102,0.170122 z m 12.61605,9.910888 c 0.81579,0.0017 1.63173,0.01106 2.44691,0.04419 -1.07167,7.804614 -2.6522,15.562128 -3.83557,23.394255 0,-7.812817 0,-15.625633 0,-23.43845 0.46289,0 0.92577,0 1.38866,0 z m -12.52007,8.13449 c 0,1.120507 0,2.241013 0,3.361519 -0.68086,-0.21267 -3.14455,0.518889 -2.14281,-0.584928 0.71402,-1.049993 1.42561,-2.101642 2.14177,-3.150169 3.5e-4,0.124526 6.9e-4,0.249052 0.001,0.373578 z"
       style="fill:#999999" />
    <path
       inkscape:connector-curvature="0"
       id="path4185"
       d="m 88.394721,61.574716 c -1.270052,0.352828 -2.168508,1.911767 -1.927971,3.191993 0.467707,1.728517 3.093558,1.437371 3.560048,-0.158478 0.624494,-1.25771 0.08731,-3.268033 -1.632077,-3.033515 z"
       style="fill:#999999" />
    <path
       inkscape:connector-curvature="0"
       id="path4187"
       d="m 167.00718,24.834166 c -1.25518,1.113898 -0.50268,2.984774 -0.7078,4.45567 0.0367,4.044935 -0.0732,8.099773 0.0545,12.138551 0.77768,2.82817 1.59053,5.633629 2.31847,8.474579 -0.98257,1.325475 -2.7977,2.378664 -2.37178,4.282 0.0386,4.808446 -0.0542,9.635588 0.0658,14.432459 0.13316,1.487521 2.19375,1.675567 2.89834,0.488521 1.15481,-1.195332 2.30689,-2.393295 3.46418,-3.586209 0.88644,3.937531 1.51787,8.127243 3.81382,11.542965 1.36439,1.884574 3.7043,2.660113 5.86436,3.207875 1.38297,0.141877 1.97147,-1.336365 1.849,-2.488171 0.0804,-7.167993 0.19817,-14.355436 -0.32664,-21.509704 0.0441,-0.969132 -0.69877,-2.009688 0.0341,-2.828334 0.59238,-2.084616 0.24643,-4.317806 0.39798,-6.462317 -0.0425,-3.561327 0.24741,-7.149379 -0.14041,-10.694344 -0.26445,-1.487652 -2.29226,-1.613446 -2.96764,-0.360159 -0.6262,0.726103 -1.24543,1.458372 -1.88578,2.17212 -1.11731,-3.546953 -1.70275,-7.317401 -3.4399,-10.63664 -1.28864,-2.486364 -4.31888,-2.92782 -6.84008,-2.849143 -0.7098,-0.0089 -1.41135,-0.06721 -2.08058,0.220281 z"
       style="fill:#999999" />
    <path
       inkscape:connector-curvature="0"
       id="path4189"
       d="m 129.74113,91.5249 c -0.97045,0.907771 -2.5468,2.254701 -1.69316,3.666389 0.8117,0.968133 2.33697,0.725958 3.42606,0.422608 1.04818,-0.899052 0.77429,-2.523232 0.47232,-3.714037 -0.55114,-0.709486 -1.4458,-0.864796 -2.20522,-0.37496 z"
       style="fill:#999999" />
    <path
       inkscape:connector-curvature="0"
       id="path4191"
       d="m 213.84713,6.0992886 c -1.24707,1.1175334 -0.49718,2.9823809 -0.70192,4.4522174 0.0642,3.0453 -0.12907,6.126894 0.0978,9.149254 0.28201,1.478003 2.31574,1.365755 2.96939,0.201738 3.75506,-3.89669 7.62213,-7.708711 11.32866,-11.6370918 0.93522,-1.1357566 -0.35506,-2.7094317 -1.68447,-2.3957201 -3.79141,0.033257 -7.60146,-0.065718 -11.3814,0.048885 -0.20934,0.060239 -0.41868,0.1204786 -0.62803,0.1807179 z"
       style="fill:#999999" />
  </g>
  <path
     inkscape:connector-curvature="0"
     id="path3358"
     d="m 67.82,98.476518 -0.70758,-0.572964 0.668577,-3.876777 C 68.148716,91.894551 68.520557,89.84625 68.607311,89.475 68.756519,88.836486 68.6741,88.8 67.082525,88.8 c -0.925389,0 -1.682523,-0.04735 -1.682523,-0.105234 0,-0.05788 0.148206,-0.530376 0.329349,-1.05 L 66.058697,86.7 l 2.488557,0 c 1.954113,0 2.526282,0.09831 2.664225,0.457785 0.148023,0.385749 -0.572157,5.369247 -1.181391,8.174949 L 69.852626,96.15 70.428344,95.440878 c 0.316644,-0.390018 1.643554,-2.512953 2.948689,-4.717629 2.370111,-4.003677 2.374326,-4.008516 3.49797,-4.015878 0.61875,-0.004 1.120215,0.09388 1.114368,0.217629 -0.02808,0.594261 -6.309165,10.786257 -6.929476,11.244105 -1.145673,0.845613 -2.425302,0.967029 -3.239895,0.307413 z m 25.826707,0.213426 C 93.259896,98.529594 92.872899,98.128761 92.786718,97.799199 92.592027,97.054698 92.649477,97.048785 91.321461,97.95 90.336768,98.618232 89.90928,98.7 87.400434,98.7 l -2.815839,0 0.454968,-0.87981 c 0.30669,-0.593073 0.724731,-0.910833 1.282704,-0.975 0.943674,-0.108522 1.192575,-0.982305 0.757779,-2.660235 l -0.25365,-0.97887 -1.596672,2.006565 c -0.878169,1.10361 -1.979904,2.204739 -2.448297,2.446956 -1.085061,0.561105 -1.352652,0.558189 -0.881424,-0.0096 0.535971,-0.645804 0.08936,-0.55449 -0.967017,0.197721 -1.219248,0.868182 -3.574068,1.090935 -4.578105,0.433062 -1.029942,-0.674844 -0.967746,-1.531215 0.330723,-4.553754 L 77.771205,91.2 l 1.164399,0 c 0.640419,0 1.164399,0.04126 1.164399,0.0917 0,0.05044 -0.4725,1.263483 -1.05,2.695659 -0.5775,1.432176 -1.05,2.673411 -1.05,2.758299 0,0.08489 1.010526,0.154341 2.245614,0.154341 l 2.245611,0 1.285689,-1.638102 c 0.70713,-0.900954 1.664364,-2.385954 2.127186,-3.3 C 86.709474,90.371346 86.796138,90.3 87.922803,90.3 c 1.12662,0 1.177515,0.04189 1.184535,0.975 0.004,0.53625 0.149979,1.5825 0.324324,2.325 0.174345,0.7425 0.319545,1.78875 0.322665,2.325 0.0056,0.967245 0.01743,0.975 1.483101,0.975 1.337958,0 1.506156,-0.07788 1.781766,-0.825 1.905255,-5.164707 1.726554,-4.875 3.007035,-4.875 0.645576,0 1.173774,0.104328 1.173774,0.231843 0,0.127515 -0.405,1.283613 -0.9,2.569107 -0.495,1.285497 -0.9,2.463666 -0.9,2.618157 0,0.154491 0.3255,0.280893 0.723333,0.280893 0.958146,0 1.975557,-1.250361 3.023235,-3.715452 C 99.978036,91.228182 100.00642,91.2 101.14501,91.2 c 0.63525,0 1.15499,0.06399 1.15499,0.142191 0,0.0782 -0.405,1.16172 -0.9,2.407809 -1.27003,3.197118 -1.28824,3.15 1.21771,3.15 2.41814,0 2.46673,0.24306 0.27103,1.355706 -1.83902,0.931902 -3.460025,0.969801 -4.383245,0.10248 -0.635994,-0.597483 -0.73272,-0.609351 -1.400475,-0.171822 -0.955164,0.625848 -2.589336,0.863808 -3.458313,0.50358 z m 12.500803,-0.0015 c -0.27638,-0.161256 -0.64745,-0.732399 -0.82462,-1.26921 -0.59699,-1.808916 0.64935,-4.443642 2.62814,-5.555781 1.38834,-0.780294 2.07883,-0.829323 2.96253,-0.210357 0.40957,0.286878 0.71583,0.341931 0.83445,0.15 0.22983,-0.371871 2.25199,-0.40683 2.25199,-0.03893 0,0.145356 -0.3375,1.160937 -0.75,2.256849 -1.0736,2.852298 -1.06422,2.878869 1.01668,2.878869 l 1.76668,0 1.12352,-3.075 c 1.43814,-3.936084 2.68535,-6.419451 3.42202,-6.813705 0.78476,-0.419991 2.21865,-0.393747 2.6611,0.04871 1.05184,1.051839 -0.0555,3.79989 -2.96591,7.360329 -0.97575,1.193679 -1.77409,2.239929 -1.77409,2.325 0,0.08507 0.91125,0.154068 2.025,0.15333 l 2.025,-0.0012 20.55,-21.808431 c 11.30251,-11.994633 21.50926,-22.82778 22.68167,-24.073659 l 2.13167,-2.265231 -0.37512,-1.2 c -0.20631,-0.66 -0.73606,-2.55 -1.17721,-4.2 -0.44116,-1.65 -0.93967,-3.442809 -1.1078,-3.984024 l -0.30569,-0.984021 -3.63198,0.08402 -3.63199,0.08402 -2.37058,4.05 c -1.30382,2.2275 -2.81547,4.7925 -3.35921,5.7 -0.54374,0.9075 -1.25721,2.1225 -1.58547,2.7 -5.09928,8.970888 -6.95823,11.653095 -9.5785,13.820493 -2.82211,2.334348 -8.69261,3.700485 -11.39526,2.651817 -0.54708,-0.21228 -3.72373,-0.312771 -9.01953,-0.28533 l -8.175,0.04236 0,-4.81467 0,-4.814673 -2.84003,0 -2.84003,0 -3.33843,4.8 -3.338435,4.8 -8.521536,0 c -4.686846,-1.8e-5 -8.521536,-0.07075 -8.521536,-0.157194 0,-0.08645 1.35,-2.17572 3,-4.642824 1.65,-2.467104 3,-4.556376 3,-4.642824 0,-0.08644 -0.419634,-0.157176 -0.932523,-0.157176 -1.22427,0 -1.45734,0.918801 2.948886,-11.625 l 0.764007,-2.175 3.042378,0 3.042381,0 7.762318,-10.95 7.76231,-10.95 6.33012,0.02734 c 3.48157,0.01504 9.03012,0.121408 12.33012,0.236383 5.60615,0.195324 6.09847,0.258921 7.5,0.968858 3.33655,1.690097 3.92308,3.97704 2.86624,11.17576 -0.35964,2.449704 -0.60958,4.498314 -0.55543,4.55247 0.0542,0.05415 2.39138,-3.671999 5.19383,-8.280339 l 5.09537,-8.378798 10.83728,-8.4e-4 c 8.93003,-6.9e-4 11.06468,0.0794 12.1294,0.455049 2.96502,1.046121 4.40467,2.988005 5.73901,7.741141 0.4634,1.65066 0.87956,3.038229 0.92482,3.083484 0.0453,0.04526 6.0194,-6.725081 13.27589,-15.045196 L 208.05001,3.3078315 221.8425,3.3039159 235.63499,3.3 233.51044,5.475 c -1.16851,1.19625 -9.59228,10.005 -18.71949,19.575 -9.12722,9.57 -19.03529,19.946841 -22.01794,23.05965 -2.98265,3.112806 -5.51943,5.825955 -5.63729,6.02922 -0.17877,0.308322 0.53634,3.393741 2.48833,10.73613 l 0.29908,1.125 10.33844,0 c 5.68614,0 10.33844,0.07166 10.33844,0.159249 0,0.564564 -4.87517,7.415517 -6.26364,8.802126 -4.47206,4.466085 -10.19266,6.647787 -17.38775,6.63129 -3.67111,-0.0084 -5.17341,-0.292524 -7.45548,-1.409943 -2.9017,-1.420821 -4.43084,-3.691953 -5.87907,-8.731809 L 172.89593,68.951823 158.7078,83.975913 144.51966,99 132.54213,99 c -8.68132,0 -11.92104,-0.0914 -11.77226,-0.332139 0.13319,-0.215508 0.008,-0.273183 -0.3573,-0.164247 -1.61195,0.481074 -2.27515,0.522264 -3.24663,0.201645 C 116.43633,98.464467 116.1,98.171496 116.1,97.776735 c 0,-0.734058 -0.051,-0.72765 -1.37854,0.173265 -1.54708,1.049877 -3.2314,1.11066 -4.05781,0.146436 -0.47453,-0.553659 -0.5106,-0.549573 -1.48328,0.168054 -1.03856,0.766221 -2.17429,0.925026 -3.03286,0.424074 z m 3.69742,-2.736654 c 1.05431,-1.128645 1.08986,-2.446998 0.0699,-2.592555 -1.17792,-0.168102 -2.81284,2.542638 -2.01484,3.340644 0.42218,0.422172 1.09264,0.164286 1.94493,-0.748089 z m 43.40945,-11.771928 c 5.57197,-5.791422 12.35043,-12.858369 15.06324,-15.704322 2.71281,-2.845953 4.99989,-5.173728 5.08239,-5.172834 0.0825,9e-4 0.45262,1.554471 0.82251,3.452394 0.84987,4.360884 2.03122,7.952961 3.10138,9.430278 0.51954,0.717201 1.489,1.471521 2.57926,2.006871 1.662,0.81609 1.94355,0.857514 5.79685,0.85287 5.87397,-0.0071 10.06338,-1.346028 13.81103,-4.414056 1.48661,-1.217016 4.18897,-4.332429 4.18897,-4.829244 0,-0.106017 -3.94037,-0.228546 -8.75638,-0.272289 L 186.18725,69.45 185.7985,67.95 c -0.2138,-0.825 -1.11706,-4.309485 -2.00723,-7.7433 l -1.6185,-6.2433 22.23862,-23.261163 C 216.64263,17.908596 226.69501,7.3193307 226.75001,7.1705358 226.80806,7.0134873 222.94705,6.9 217.54597,6.9 l -9.30403,0 -14.61309,16.725 c -8.03719,9.19875 -14.69538,16.700388 -14.79596,16.670307 -0.10059,-0.03008 -0.876,-2.643195 -1.72314,-5.80692 -1.54583,-5.77304 -1.99149,-6.774398 -3.52478,-7.91985 -0.79226,-0.591853 -1.26569,-0.622258 -10.97405,-0.704779 l -10.14607,-0.08624 -9.10742,14.978576 c -5.00909,8.238216 -9.14776,14.941689 -9.19706,14.896605 -0.0493,-0.04508 0.5868,-3.709131 1.41355,-8.14233 2.84309,-15.245277 3.20722,-17.996111 2.58067,-19.495661 -0.31622,-0.756816 -0.78378,-1.190322 -1.71945,-1.59419 -1.13673,-0.49065 -2.53236,-0.57862 -12.08514,-0.761757 L 113.55,25.451712 105.78817,36.425856 98.026329,47.4 l -2.788359,0 -2.788359,0 -1.118892,3.375 c -0.61539,1.85625 -1.180995,3.54375 -1.256901,3.75 -0.100911,0.274197 0.355767,0.375 1.698888,0.375 l 1.836897,0 -3.020427,4.516191 c -1.661238,2.483904 -3.09534,4.711404 -3.186897,4.95 C 87.261333,64.733487 87.973353,64.8 92.046291,64.8 l 4.810482,0 3.396617,-4.943268 3.39661,-4.943271 5.16757,-0.0067 5.16757,-0.0067 0.0824,4.875 0.0824,4.875 4.35,0 4.35,0 0.0777,-15.675 0.0777,-15.675 3.00673,0 c 2.37674,0 3.04242,0.09295 3.17698,0.443634 0.0936,0.243999 -0.85742,6.217749 -2.11345,13.275 -1.25604,7.057251 -2.28138,13.303866 -2.27854,13.881366 0.0105,2.132154 1.94264,3.92742 4.70172,4.368615 1.54438,0.246954 4.69112,-0.352053 6.4009,-1.218459 2.78171,-1.409601 4.49175,-3.762549 11.84425,-16.29723 L 154.63789,36 l 5.71024,0 5.71024,0 1.94582,6.975 c 1.0702,3.83625 1.94582,7.061874 1.94582,7.168056 0,0.221913 -19.99987,21.594117 -38.32501,40.954767 -1.60875,1.699659 -2.925,3.235866 -2.925,3.413799 0,0.224115 2.21575,0.304245 7.21177,0.260808 l 7.21176,-0.0627 10.13085,-10.529865 z M 111.01975,42.9 c 1.67848,-2.475 3.1032,-4.5 3.16603,-4.5 0.0628,0 0.11422,2.025 0.11422,4.5 l 0,4.5 -3.16602,0 -3.16603,0 3.0518,-4.5 z m 10.00217,48.811809 C 122.15594,89.674911 122.6378,88.2 122.16926,88.2 c -0.16268,0 -0.44621,0.181248 -0.63006,0.402777 -0.37316,0.449625 -2.1392,4.623825 -2.1392,5.056188 0,0.591054 0.62967,-0.164877 1.62192,-1.947156 z m -42.196917,-2.03829 c -1.141404,-0.659475 -0.07895,-2.521512 1.325259,-2.322627 0.726003,0.102828 1.096485,1.244562 0.627456,1.933674 -0.354465,0.520788 -1.373298,0.723726 -1.952715,0.388953 z m 2.781168,-5.108331 c -0.409107,-0.163227 -0.985539,-0.51552 -1.280961,-0.782874 -0.497223,-0.449982 -0.623307,-0.437664 -1.697016,0.165795 -2.233875,1.255506 -5.14209,0.635817 -5.115957,-1.090119 0.0067,-0.444396 0.590268,-2.36049 1.296759,-4.25799 l 1.284525,-3.45 1.553241,-0.09068 c 0.854283,-0.04987 1.552491,0.01764 1.551576,0.15 -9e-4,0.132372 -0.540918,1.629018 -1.2,3.325875 -0.659085,1.696857 -1.198335,3.215607 -1.198335,3.375 0,0.159393 0.394479,0.289803 0.876624,0.289803 1.224258,0 2.707899,-1.819218 3.859176,-4.732068 L 82.451946,75.15 83.975973,75.05932 c 0.838218,-0.04987 1.52403,0.02514 1.52403,0.166701 0,0.141561 -0.45609,1.397367 -1.013532,2.790678 C 82.760784,82.330017 82.584348,81.9 86.079786,81.9 c 2.9802,0 3.020217,-0.0095 3.020217,-0.713364 0,-1.706376 1.897182,-4.556073 3.629634,-5.45196 1.081125,-0.559071 2.69481,-0.556356 3.438027,0.0058 0.320286,0.24225 0.653949,0.44475 0.741477,0.45 0.08752,0.0052 0.758412,-1.610466 1.490862,-3.590466 l 1.331727,-3.6 1.43414,0 c 0.78877,0 1.43413,0.07831 1.43413,0.174012 0,0.09571 -0.39272,1.276956 -0.87271,2.625 -0.48,1.348044 -1.48675,4.172238 -2.237243,6.275988 l -1.364526,3.825 2.396659,0 c 2.01287,0 2.42593,-0.08407 2.5795,-0.525 0.10057,-0.28875 0.72055,-1.84125 1.37774,-3.45 l 1.19489,-2.925 1.46285,0 c 0.80456,0 1.46284,0.06291 1.46284,0.139803 0,0.07689 -0.53925,1.528143 -1.19833,3.225 -0.65908,1.696857 -1.19908,3.186447 -1.2,3.310197 -9e-4,0.12375 1.14583,0.225 2.54833,0.225 l 2.55,0 0,-0.790194 c 0,-2.225736 1.65834,-4.930536 3.49293,-5.697075 2.09359,-0.874758 4.26162,-0.393831 5.20581,1.15479 1.04933,1.721049 0.60264,4.064232 -1.1437,5.999574 -1.29126,1.431009 -2.55407,2.032905 -4.26512,2.032905 -1.53961,0 -2.26006,-0.378681 -2.83474,-1.489998 l -0.45104,-0.872211 -1.50571,1.013268 c -1.95573,1.316106 -3.76806,1.608267 -5.30852,0.855768 -0.62695,-0.306255 -1.26444,-0.840297 -1.41664,-1.186761 -0.27535,-0.62679 -0.28284,-0.625866 -1.5,0.185049 -2.434232,1.621773 -4.341686,1.826466 -5.570381,0.597771 -0.575802,-0.575802 -0.591198,-0.573984 -1.480872,0.174627 -1.825737,1.536255 -4.943943,1.087842 -5.314356,-0.764229 C 89.1072,82.610979 88.965372,82.2 88.892487,82.2 c -0.07288,0 -0.588033,0.347439 -1.144776,0.772086 -1.173921,0.895395 -3.751386,1.936485 -4.725927,1.908897 -0.36948,-0.01047 -1.006506,-0.152565 -1.415613,-0.315795 z M 94.768926,81.43956 c 0.701544,-0.799014 0.931077,-1.349328 0.931077,-2.232294 0,-1.324656 -0.313473,-1.644225 -1.35615,-1.382529 -0.909087,0.228165 -2.24385,2.444964 -2.24385,3.726621 0,0.846507 0.09355,0.948642 0.868923,0.948642 0.61908,0 1.136634,-0.304908 1.8,-1.06044 z m 21.296014,0.271233 C 116.8125,81.187182 117.6,79.60167 117.6,78.62019 c 0,-0.329493 -0.27905,-0.748425 -0.62011,-0.930957 -0.83357,-0.446112 -1.98392,0.307806 -2.55495,1.674465 -0.54485,1.304019 -0.53543,1.782948 0.0465,2.364873 0.58897,0.588969 0.7295,0.5874 1.59351,-0.01779 z m -57.264938,2.722746 c 0,-0.09155 0.545031,-0.969054 1.211178,-1.95 C 61.214456,80.711637 61.217513,80.7 60.47939,80.7 l -0.742968,0 0.45999,-1.35 c 0.431721,-1.267029 0.5274,-1.350516 1.55679,-1.358394 1.067577,-0.0082 1.176885,-0.122076 4.102395,-4.275 L 68.861192,69.45 l 1.869405,-0.08932 1.869406,-0.08931 0,7.664313 0,7.664316 -1.650001,0 -1.65,0 0,-1.95 0,-1.95 -2.177382,0 -2.177385,0 -1.322349,1.95 -1.322349,1.95 -1.750269,0 c -0.962646,0 -1.750266,-0.07491 -1.750266,-0.166461 z m 10.5,-8.383539 c 0,-1.0725 -0.04956,-1.95 -0.110133,-1.95 -0.1,0 -0.573228,0.685236 -2.123637,3.075 L 66.530996,78 l 1.384503,0 1.384503,0 0,-1.95 z M 107.025,73.17597 c -0.76305,-0.444438 -0.67889,-1.93416 0.14176,-2.50896 0.93325,-0.653673 2.24252,-0.59709 2.62273,0.113349 0.43935,0.820926 -0.10009,2.062482 -1.05364,2.42502 -0.94299,0.358527 -1.0479,0.356724 -1.71085,-0.0294 z"
     style="fill:#7b0000" />
</svg>
