<?xml version="1.0" encoding="UTF-8" standalone="no"?>
<!-- Created with Inkscape (http://www.inkscape.org/) -->

<svg
   xmlns:dc="http://purl.org/dc/elements/1.1/"
   xmlns:cc="http://creativecommons.org/ns#"
   xmlns:rdf="http://www.w3.org/1999/02/22-rdf-syntax-ns#"
   xmlns:svg="http://www.w3.org/2000/svg"
   xmlns="http://www.w3.org/2000/svg"
   xmlns:sodipodi="http://sodipodi.sourceforge.net/DTD/sodipodi-0.dtd"
   xmlns:inkscape="http://www.inkscape.org/namespaces/inkscape"
   width="210mm"
   height="190mm"
   viewBox="0 0 744.09449 673.22817"
   id="svg4295"
   version="1.1"
   inkscape:version="0.91 r13725"
   sodipodi:docname="bbq.svg">
  <defs
     id="defs4297" />
  <sodipodi:namedview
     id="base"
     pagecolor="#ffffff"
     bordercolor="#666666"
     borderopacity="1.0"
     inkscape:pageopacity="0.0"
     inkscape:pageshadow="2"
     inkscape:zoom="0.35"
     inkscape:cx="-125"
     inkscape:cy="520"
     inkscape:document-units="px"
     inkscape:current-layer="layer1"
     showgrid="false"
     inkscape:window-width="2560"
     inkscape:window-height="1371"
     inkscape:window-x="0"
     inkscape:window-y="27"
     inkscape:window-maximized="1" />
  <metadata
     id="metadata4300">
    <rdf:RDF>
      <cc:Work
         rdf:about="">
        <dc:format>image/svg+xml</dc:format>
        <dc:type
           rdf:resource="http://purl.org/dc/dcmitype/StillImage" />
        <dc:title></dc:title>
      </cc:Work>
    </rdf:RDF>
  </metadata>
  <g
     inkscape:label="Layer 1"
     inkscape:groupmode="layer"
     id="layer1"
     transform="translate(0,-379.13409)">
    <g
       transform="translate(-877.11584,-4762.4648)"
       style="font-style:normal;font-weight:normal;font-size:40px;line-height:125%;font-family:sans-serif;letter-spacing:0px;word-spacing:0px;fill:#000000;fill-opacity:1;stroke:none;stroke-width:1px;stroke-linecap:butt;stroke-linejoin:miter;stroke-opacity:1"
       id="flowRoot4844">
      <path
         inkscape:connector-curvature="0"
         d="m 939.3593,5386.2935 c -7.77,2.22 -12.4875,10.8225 -9.7125,19.1475 8.88,27.75 34.965,47.73 65.49,47.73 38.0175,0 69.0975,-30.8025 69.0975,-68.82 l 0,-110.1675 c 0,-8.6025 -6.9375,-15.2625 -15.2625,-15.2625 -8.6025,0 -15.54,6.66 -15.54,15.2625 l 0,110.1675 c 0,20.8125 -17.205,38.0175 -38.295,38.0175 -16.9275,0 -31.3575,-11.1 -36.3525,-26.3625 -2.4975,-8.0475 -11.1,-12.4875 -19.425,-9.7125 z"
         style="font-style:normal;font-variant:normal;font-weight:bold;font-stretch:normal;font-size:277.5px;line-height:89.99999762%;font-family:Quicksand;-inkscape-font-specification:'Quicksand, Bold';text-align:center;writing-mode:lr-tb;text-anchor:middle"
         id="path4889" />
      <path
         inkscape:connector-curvature="0"
         d="m 1124.1049,5453.171 c 0,0 0.2775,-0.2775 0.2775,-0.2775 0,0 0,0.2775 0.555,0.2775 l 89.91,0 c 8.0475,0 15.2625,-6.9375 15.2625,-15.2625 0,-8.6025 -7.215,-15.54 -15.2625,-15.54 l -75.2025,0 0,-51.06 64.6575,0 c 8.325,0 15.2625,-6.9375 15.2625,-15.54 0,-8.0475 -6.9375,-15.2625 -15.2625,-15.2625 l -64.6575,0 0,-50.7825 75.2025,0 c 8.0475,0 15.2625,-6.9375 15.2625,-15.54 0,-8.6025 -7.215,-15.2625 -15.2625,-15.2625 l -89.91,0 c -0.555,0 -0.555,0 -0.555,0 0,0 -0.2775,0 -0.2775,0 -8.6025,0 -15.2625,6.66 -15.2625,15.2625 l 0,163.725 c 0,8.325 6.66,15.2625 15.2625,15.2625 z"
         style="font-style:normal;font-variant:normal;font-weight:bold;font-stretch:normal;font-size:277.5px;line-height:89.99999762%;font-family:Quicksand;-inkscape-font-specification:'Quicksand, Bold';text-align:center;writing-mode:lr-tb;text-anchor:middle"
         id="path4891" />
      <path
         inkscape:connector-curvature="0"
         d="m 1288.8705,5453.171 c 0,0 0,0 0,0 0,0 0,0 0,0 l 32.745,0 c 53.5575,0 96.8475,-43.5675 96.8475,-97.4025 0,-53.28 -43.29,-96.8475 -96.8475,-96.8475 l -32.745,0 c 0,0 0,0 0,0 0,0 0,0 0,0 -8.6025,0 -15.2625,6.66 -15.2625,15.2625 l 0,163.725 c 0,8.325 6.66,15.2625 15.2625,15.2625 z m 15.54,-163.4475 17.205,0 c 36.63,0 66.045,29.6925 66.045,66.045 0,36.9075 -29.415,66.3225 -66.045,66.6 l -17.205,0 0,-132.645 z"
         style="font-style:normal;font-variant:normal;font-weight:bold;font-stretch:normal;font-size:277.5px;line-height:89.99999762%;font-family:Quicksand;-inkscape-font-specification:'Quicksand, Bold';text-align:center;writing-mode:lr-tb;text-anchor:middle"
         id="path4893" />
      <path
         inkscape:connector-curvature="0"
         d="m 1465.2912,5434.0235 c 11.1,8.88 27.75,18.87 49.395,19.1475 13.5975,0 26.085,-4.1625 36.075,-11.1 9.99,-7.215 17.4825,-18.5925 17.4825,-32.19 0,-6.3825 -1.9425,-12.765 -5.2725,-18.315 -4.7175,-7.77 -12.21,-13.0425 -19.7025,-16.3725 -8.0475,-3.885 -16.65,-6.3825 -25.8075,-8.0475 l -0.2775,0 -0.2775,-0.2775 c -9.435,-1.665 -16.65,-4.1625 -20.2575,-6.66 -1.9425,-1.11 -2.775,-2.22 -3.0525,-2.775 -0.555,-0.8325 -0.555,-1.11 -0.555,-2.22 0,-1.3875 0.8325,-3.885 4.44,-6.3825 3.6075,-2.775 9.7125,-4.995 16.65,-4.995 8.88,0 16.65,4.44 25.53,10.2675 6.9375,4.7175 16.095,2.775 20.535,-3.885 4.1625,-6.9375 2.22,-16.095 -4.44,-20.535 -8.88,-6.105 -22.4775,-15.2625 -41.625,-15.2625 -12.765,0 -24.42,3.6075 -34.1325,10.2675 -9.1575,6.9375 -16.3725,17.76 -16.3725,30.525 0,6.3825 1.665,12.4875 4.7175,17.4825 4.995,7.4925 11.655,12.4875 19.1475,16.095 7.215,3.33 15.54,5.55 24.1425,7.215 l 0.2775,0 c 9.99,1.9425 18.315,4.995 22.2,7.77 2.22,1.3875 3.33,2.4975 3.6075,3.33 0.555,0.8325 0.8325,1.3875 0.8325,2.775 0,2.22 -1.11,4.995 -4.995,8.325 -4.44,2.775 -11.3775,5.2725 -18.87,5.2725 -10.8225,0.2775 -23.31,-6.105 -30.525,-12.21 -6.105,-5.2725 -15.8175,-4.44 -20.8125,2.22 -4.995,6.105 -4.1625,15.54 1.9425,20.535 z"
         style="font-style:normal;font-variant:normal;font-weight:bold;font-stretch:normal;font-size:277.5px;line-height:89.99999762%;font-family:Quicksand;-inkscape-font-specification:'Quicksand, Bold';text-align:center;writing-mode:lr-tb;text-anchor:middle"
         id="path4895" />
      <path
         inkscape:connector-curvature="0"
         d="m 1020.0424,5702.921 c 0.2775,0 0.2775,-0.2775 0.8325,-0.2775 0,0 0,0.2775 0.2775,0.2775 l 49.1175,0 c 32.745,0 59.385,-26.64 59.385,-59.6625 0,-21.09 -11.3775,-39.6825 -28.0275,-50.2275 6.66,-8.88 10.545,-19.7025 10.545,-31.635 0,-29.1375 -23.5875,-52.725 -52.725,-52.725 l -38.295,0 c -0.2775,0 -0.2775,0 -0.2775,0 -0.555,0 -0.555,0 -0.8325,0 -8.325,0 -15.2625,6.66 -15.2625,15.2625 l 0,163.725 c 0,8.325 6.9375,15.2625 15.2625,15.2625 z m 15.54,-163.4475 23.865,0 c 12.21,0 21.9225,9.7125 21.9225,21.9225 0,12.21 -9.7125,22.4775 -21.9225,22.4775 l -23.865,0 0,-44.4 z m 0,75.2025 34.6875,0 c 15.8175,0.2775 28.5825,12.765 28.5825,28.5825 0,16.095 -12.765,28.5825 -28.5825,28.86 l -34.6875,0 0,-57.4425 z"
         style="font-style:normal;font-variant:normal;font-weight:bold;font-stretch:normal;font-size:277.5px;line-height:89.99999762%;font-family:Quicksand;-inkscape-font-specification:'Quicksand, Bold';text-align:center;writing-mode:lr-tb;text-anchor:middle"
         id="path4897" />
      <path
         inkscape:connector-curvature="0"
         d="m 1165.2963,5702.921 c 0.2775,0 0.2775,-0.2775 0.8325,-0.2775 0,0 0,0.2775 0.2775,0.2775 l 49.1175,0 c 32.745,0 59.385,-26.64 59.385,-59.6625 0,-21.09 -11.3775,-39.6825 -28.0275,-50.2275 6.66,-8.88 10.545,-19.7025 10.545,-31.635 0,-29.1375 -23.5875,-52.725 -52.725,-52.725 l -38.295,0 c -0.2775,0 -0.2775,0 -0.2775,0 -0.555,0 -0.555,0 -0.8325,0 -8.325,0 -15.2625,6.66 -15.2625,15.2625 l 0,163.725 c 0,8.325 6.9375,15.2625 15.2625,15.2625 z m 15.54,-163.4475 23.865,0 c 12.21,0 21.9225,9.7125 21.9225,21.9225 0,12.21 -9.7125,22.4775 -21.9225,22.4775 l -23.865,0 0,-44.4 z m 0,75.2025 34.6875,0 c 15.8175,0.2775 28.5825,12.765 28.5825,28.5825 0,16.095 -12.765,28.5825 -28.5825,28.86 l -34.6875,0 0,-57.4425 z"
         style="font-style:normal;font-variant:normal;font-weight:bold;font-stretch:normal;font-size:277.5px;line-height:89.99999762%;font-family:Quicksand;-inkscape-font-specification:'Quicksand, Bold';text-align:center;writing-mode:lr-tb;text-anchor:middle"
         id="path4899" />
      <path
         inkscape:connector-curvature="0"
         d="m 1513.767,5707.361 c -5.55,-6.9375 -15.54,-8.325 -22.4775,-2.775 -11.3775,8.6025 -19.1475,10.545 -27.195,10.545 -8.88,0 -19.425,-3.6075 -31.08,-9.99 l 6.3825,-2.4975 c 11.655,-5.55 22.2,-13.0425 30.8025,-21.9225 17.76,-18.87 28.305,-44.4 28.305,-72.4275 0,-27.75 -10.545,-53.0025 -28.305,-71.595 -16.9275,-19.1475 -41.625,-30.8025 -68.82,-30.8025 -27.195,0 -51.615,11.655 -69.375,30.8025 -16.9275,18.5925 -27.75,43.845 -27.75,71.595 0,28.0275 10.8225,53.5575 27.75,72.4275 9.1575,8.6025 19.7025,15.8175 30.8025,21.09 l -0.8325,0.555 c -7.77,3.885 -11.655,13.0425 -7.4925,21.3675 0.8325,2.775 2.4975,4.44 3.885,6.3825 0.2775,0 0.2775,0 0.555,0.2775 0.8325,0.2775 1.3875,0.2775 1.665,0.555 4.1625,3.33 10.545,3.885 16.095,0.8325 1.11,-0.8325 10.545,-4.7175 19.7025,-4.7175 5.55,0 11.3775,1.11 16.9275,4.1625 14.985,8.88 31.3575,16.65 50.7825,16.65 0,0 0.8325,0 0.8325,0 14.7075,0 30.525,-5.8275 45.7875,-17.4825 7.4925,-6.105 8.6025,-16.095 3.0525,-23.0325 z m -176.7675,-99.0675 c 0,-19.7025 7.215,-37.185 19.1475,-49.395 11.3775,-12.765 27.195,-20.2575 45.2325,-20.2575 17.76,0 33.5775,7.4925 45.7875,20.2575 11.9325,12.21 19.1475,29.6925 19.1475,49.395 0,19.7025 -7.215,37.185 -19.1475,49.95 -12.21,12.4875 -28.0275,19.98 -45.7875,19.98 -18.0375,0 -33.855,-7.4925 -45.2325,-19.98 -11.9325,-12.765 -19.1475,-30.2475 -19.1475,-49.95 z"
         style="font-style:normal;font-variant:normal;font-weight:bold;font-stretch:normal;font-size:277.5px;line-height:89.99999762%;font-family:Quicksand;-inkscape-font-specification:'Quicksand, Bold';text-align:center;writing-mode:lr-tb;text-anchor:middle"
         id="path4901" />
    </g>
  </g>
</svg>
