<?xml version="1.0" encoding="UTF-8" standalone="no"?>
<!-- Created with Inkscape (http://www.inkscape.org/) -->

<svg
   xmlns:dc="http://purl.org/dc/elements/1.1/"
   xmlns:cc="http://creativecommons.org/ns#"
   xmlns:rdf="http://www.w3.org/1999/02/22-rdf-syntax-ns#"
   xmlns:svg="http://www.w3.org/2000/svg"
   xmlns="http://www.w3.org/2000/svg"
   xmlns:sodipodi="http://sodipodi.sourceforge.net/DTD/sodipodi-0.dtd"
   xmlns:inkscape="http://www.inkscape.org/namespaces/inkscape"
   id="svg3039"
   version="1.1"
   inkscape:version="0.91 r13725"
   width="5894"
   height="1346"
   sodipodi:docname="Boeing_logo_blue (copy).svg">
  <metadata
     id="metadata3045">
    <rdf:RDF>
      <cc:Work
         rdf:about="">
        <dc:format>image/svg+xml</dc:format>
        <dc:type
           rdf:resource="http://purl.org/dc/dcmitype/StillImage" />
        <dc:title />
      </cc:Work>
    </rdf:RDF>
  </metadata>
  <defs
     id="defs3043" />
  <sodipodi:namedview
     pagecolor="#ffffff"
     bordercolor="#666666"
     borderopacity="1"
     objecttolerance="10"
     gridtolerance="10"
     guidetolerance="10"
     inkscape:pageopacity="0"
     inkscape:pageshadow="2"
     inkscape:window-width="779"
     inkscape:window-height="1196"
     id="namedview3041"
     showgrid="false"
     inkscape:zoom="0.1767767"
     inkscape:cx="2747.1668"
     inkscape:cy="543.82603"
     inkscape:window-x="375"
     inkscape:window-y="144"
     inkscape:window-maximized="0"
     inkscape:current-layer="svg3039" />
  <path
     style="fill:#0053a1;fill-opacity:1"
     d="m 120,1344.5541 c -29.256251,-6.134 -53.261251,-25.1682 -67.493091,-53.5172 -5.36493,-10.6865 -10.94809,-28.4854 -13.65669,-43.5369 -2.10879,-11.7184 -2.3354,-15.859 -2.29854,-42 0.0421,-29.8806 0.66142,-37.3064 5.50429,-66 9.42026,-55.8143 31.82145,-124.7156 64.339871,-197.89575 l 6.61912,-14.8959 -2.47414,-3.1041 C 87.366849,894.52885 75.131059,877.00835 61.924049,853.98955 29.962756,798.28355 10.967278,740.45835 2.3050074,672.50005 0.03415938,654.68446 -0.27174962,589.48176 1.8264564,570.5 c 4.661749,-42.17325 15.6364076,-86.94097 30.6433326,-125 6.23605,-15.81521 24.64443,-53.16575 33.02126,-67 21.59429,-35.66277 42.918741,-62.91632 72.001161,-92.02055 C 213.36666,210.54811 307.73264,164.96337 417,151.45951 c 17.97738,-2.22175 68.46837,-3.09088 89.06113,-1.53307 60.18115,4.55261 121.78564,21.40606 173.97465,47.59511 l 8.53579,4.28335 5.96421,-5.00046 C 749.46446,150.75167 827.66622,92.651197 887.30716,53.583767 c 37.69567,-24.69231 85.24659,-53.89919009 86.87049,-53.35789009 0.5096,0.16987 -4.3844,4.79901999 -10.8755,10.28700009 -33.90355,28.66385 -85.91224,75.25603 -122.76643,109.980713 -29.7033,27.98699 -84.22301,81.36193 -96.74809,94.71664 l -11.71238,12.48816 7.13844,4.87748 c 28.63638,19.56637 63.32095,50.7923 87.23133,78.53287 63.104,73.21262 100.50134,158.98894 112.21923,257.39126 2.5447,21.36931 2.5707,80.7057 0.045,101.50005 -6.1308,50.4662 -17.98319,95.3268 -36.1764,136.9257 -2.50023,5.7168 -4.41679,10.5233 -4.25903,10.681 0.15777,0.1578 8.82329,3.4905 19.25671,7.4061 123.23677,46.2495 271.84887,77.9003 450.46987,95.9391 39.3283,3.9718 78.5231,7.2916 136.5,11.5615 75.7645,5.58 99.8587,8.0423 117.1264,11.9698 7.6464,1.7391 13.3736,4.7012 13.3736,6.9167 0,1.9418 -5.7521,2.3049 -57,3.5977 -264.9913,6.685 -612.90205,20.4675 -732.95349,29.036 -15.09941,1.0777 -27.76885,1.6235 -28.15432,1.2129 -0.38547,-0.4106 -4.18485,-7.3846 -8.44306,-15.4979 l -7.7422,-14.7513 -8.60347,8.2555 c -38.71447,37.14845 -92.42672,71.51435 -144.69472,92.57775 -102.50396,41.308 -217.04036,45.4321 -322.5404,11.6137 -40.23738,-12.8982 -85.7558,-35.3392 -121.32845,-59.816 -6.02805,-4.1478 -11.11058,-7.391 -11.2945,-7.207 -0.18392,0.1839 -3.27116,8.8268 -6.86054,19.2065 -11.97417,34.6268 -20.02886,65.9978 -24.48732,95.3722 -2.68045,17.6601 -3.21086,49.014 -1.03193,61 3.39397,18.6697 10.05588,33.6359 19.43566,43.6629 7.89242,8.437 15.3092,13.1291 27.17515,17.1919 18.38749,6.2957 42.33101,5.4619 69.77313,-2.4297 49.43062,-14.2148 115.67749,-53.9192 180.54767,-108.2093 6.21348,-5.2001 11.51135,-9.2406 11.77304,-8.9789 0.51453,0.5146 -13.23454,20.4401 -22.7996,33.0418 -68.36932,90.0749 -161.97731,162.1598 -242.77067,186.9508 -22.10023,6.7814 -29.68135,7.9513 -54,8.3337 -16.34399,0.2569 -24.2784,-0.019 -29,-1.0091 z m 374.5,-312.5678 c 86.63758,-5.4509 167.09467,-36.48395 234.5,-90.44885 12.13166,-9.7126 33.9361,-29.6523 39.03597,-35.6974 l 3.93129,-4.66 -61.98363,-116.2107 C 675.89263,721.05345 648,668.31605 648,667.77525 c 0,-0.5409 2.1375,0.8761 4.75,3.1489 39.72888,34.562 69.9622,56.6863 110.77956,81.0669 20.38955,12.1789 51.74156,29.0146 69.61491,37.3826 l 11.64448,5.4517 5.05209,-11.835 c 40.21654,-94.211 44.74973,-196.05924 13.03153,-292.78227 -28.42413,-86.6779 -86.35571,-162.9412 -162.58728,-214.03598 l -9.21471,-6.17623 -19.195,20.75207 C 508.35832,467.5294 366.39082,659.40841 271.04389,832.50005 251.0487,868.79905 216,939.57155 216,943.64805 c 0,1.3804 12.44637,10.968 26,20.028 30.29899,20.2535 65.29754,37.15825 100.87747,48.72495 35.35868,11.4949 66.00804,17.1502 108.12253,19.9504 10.79087,0.7175 28.6792,0.5673 43.5,-0.3651 z M 166.98002,821.50005 C 237.78078,694.64495 336.18103,558.79304 445.44975,437.04316 499.43219,376.89461 572.02824,304.23206 628.28096,254.0445 634.72643,248.29397 640,243.29557 640,242.93692 640,241.23336 605.60929,228.33991 585.63418,222.55459 472.67052,189.83733 350.58411,206.87501 251.1734,269.23001 197.19243,303.08938 149.00573,352.03928 116.76867,405.7635 56.354939,506.44515 41.225289,623.79754 74.087269,736.81975 c 12.25497,42.1485 35.880081,89.838 62.162441,125.4809 l 5.01465,6.8006 8.6719,-16.3006 c 4.76955,-8.9654 12.43924,-23.0506 17.04376,-31.3006 z m 1221.06688,-50.25 c 0.026,-0.4125 82.3049,-109.875 182.8426,-243.25005 l 182.7957,-242.5 276.9074,0 276.9074,0 7.3346,2.67921 c 16.7418,6.11551 29.98,17.51774 37.0119,31.87886 5.4992,11.23085 7.1535,18.2707 7.1535,30.44193 0,10.98727 -1.5335,18.43585 -5.7606,27.98031 -3.0355,6.85397 -57.4334,79.83178 -70.4568,94.52173 -25.7211,29.01248 -64.9896,53.62609 -102.7826,64.42443 -5.225,1.49291 -10.0846,2.90204 -10.7991,3.1314 -0.8313,0.26686 -0.067,1.49886 2.1224,3.42116 12.0641,10.59243 18.6809,30.60551 15.7434,47.61767 -2.0584,11.921 -6.2502,18.58992 -38.2818,60.9033 -31.5439,41.66905 -44.3098,56.32245 -60.2849,69.19785 -26.9543,21.7244 -61.1985,38.3968 -93,45.2788 -24.064,5.2075 -9.7293,4.9829 -319.25,5.0038 -158.5375,0.011 -288.2289,-0.3179 -288.2031,-0.7304 z M 1855,667.60245 c 8.7222,-2.8468 18.1773,-8.23486 23.7083,-13.51028 7.7294,-7.37227 42.1217,-53.66933 42.8829,-57.7265 1.4106,-7.51938 -2.5369,-15.19157 -9.2624,-18.00164 -2.6205,-1.09494 -13.8745,-1.36281 -57.0467,-1.35786 l -53.7821,0.006 -33.5,44.51551 c -18.425,24.48353 -34.1368,45.43507 -34.9152,46.55897 l -1.4152,2.0434 58.9152,-0.3663 c 53.3485,-0.3317 59.4349,-0.536 64.4152,-2.1615 z m 144.1153,-195.0394 c 8.9756,-1.90252 20.0516,-7.67095 26.698,-13.90442 8.1102,-7.60625 37.7982,-47.55812 38.4032,-51.68007 1.0206,-6.95424 -1.9676,-13.02777 -8.3132,-16.8963 -3.3335,-2.0322 -4.5156,-2.07486 -57.605,-2.07852 l -54.2016,-0.004 -32.0484,42.46696 c -17.6266,23.35683 -32.0483,42.70683 -32.0483,43 0,0.29317 25.3125,0.52523 56.25,0.51568 44.3921,-0.0137 57.6446,-0.31297 62.8653,-1.41959 z m 315.3969,297.8228 c -11.1767,-2.7019 -20.2033,-8.0046 -29.535,-17.3502 -13.6583,-13.6789 -19.3463,-27.412 -19.2742,-46.5356 0.045,-11.9727 2.0226,-20.2689 7.1507,-30 2.0953,-3.9761 53.2743,-72.76424 118.4736,-159.2368 121.1701,-160.70552 124.7989,-165.25117 144.9975,-181.6322 34.357,-27.86352 76.1845,-45.21535 119.5312,-49.58669 6.8611,-0.69192 86.0287,-1.04436 234.59,-1.04436 219.8995,0 224.3831,0.0381 231.9445,1.972 11.5695,2.95898 20.8848,8.29557 29.7046,17.01733 8.5635,8.46831 13.5843,16.72429 17.0345,28.01067 1.8535,6.0633 2.2779,9.70294 2.2154,19 -0.089,13.18184 -2.7267,23.29641 -8.6071,33 -3.9179,6.46509 -225.4299,300.44985 -233.5792,310.00005 -29.7136,34.8213 -70.7402,60.195 -115.6587,71.5315 -26.9707,6.8069 -13.2786,6.4774 -265.3417,6.3851 -195.0667,-0.071 -228.5155,-0.2905 -233.6461,-1.5308 z m 354.9497,-103.7513 c 8.5481,-2.9661 19.0952,-9.42607 24.1784,-14.80907 4.4592,-4.72219 179.7183,-237.68443 181.7118,-241.53956 0.9064,-1.75263 1.638,-4.44645 1.6259,-5.98626 -0.034,-4.38643 -3.4205,-10.76611 -7.1115,-13.39859 L 2866.5,388.5 l -44.358,-0.28016 c -49.0366,-0.30971 -50.7612,-0.14557 -62.9958,5.9955 -3.4946,1.75409 -9.2141,5.91072 -12.7101,9.23696 -4.1078,3.90841 -37.3767,47.25802 -94.0499,122.5477 -48.2315,64.075 -88.5228,117.85 -89.5362,119.5 -5.382,8.76282 0.5144,20.78425 11.5806,23.61035 1.6882,0.4311 21.9694,0.672 45.0694,0.5354 l 42,-0.2485 7.9619,-2.7627 z m 355.6923,100.8828 C 3026.9944,765.05195 3109.5,655.48977 3208.5,524.0459 l 180,-238.98885 267.3724,-0.0285 c 213.7486,-0.0228 267.1793,0.22217 266.4091,1.22147 -0.5299,0.6875 -17.977,23.8625 -38.7714,51.5 l -37.808,50.25 -133.6011,0.0464 -133.601,0.0464 -32.1301,42.70357 -32.1301,42.70358 132.9622,0.25366 c 82.3168,0.15703 132.8357,0.61124 132.6301,1.19246 -0.1826,0.51634 -17.4321,23.67253 -38.3321,51.45819 l -38,50.51938 -133.6288,0.0382 -133.6288,0.0381 -34.6815,46.25 -34.6815,46.24999 132.97,0.5 132.97,0.5 -38.1597,50.7385 -38.1597,50.7384 -267.3458,0.012 -267.3458,0.012 3.3458,-4.4826 z m 682.0391,2.636 C 3707.912,769.13775 3790.4,659.5757 3890.5,526.68217 l 182,-241.62461 133.8067,-0.0288 c 130.2621,-0.028 133.7721,0.0205 132.5,1.83153 -0.7187,1.02316 -83.2067,110.58767 -183.3067,243.47668 l -182,241.61638 -133.8067,0.023 c -129.9094,0.023 -133.7686,-0.03 -132.5,-1.8233 z m 478.7852,-57.9033 C 4210.7335,679.38755 4293.2029,569.925 4369.2438,469 L 4507.5,285.5 l 104.6588,-0.25459 104.6588,-0.2546 2.8928,12.26388 c 1.591,6.74513 14.3446,61.89681 28.3412,122.55929 l 25.4484,110.29542 2.5,-2.97841 c 1.375,-1.63812 43,-56.77711 92.5,-122.53107 l 90,-119.55267 88.7997,-0.0236 c 73.9606,-0.0197 88.666,0.20032 88,1.31651 -0.4398,0.73706 -82.9222,110.31206 -183.2942,243.5 l -182.4945,242.15989 -105.6881,0 c -99.7923,0 -105.7169,-0.098 -106.2035,-1.75 -0.2835,-0.9625 -12.9358,-55.5095 -28.1162,-121.21548 -15.1804,-65.70599 -27.6913,-119.53608 -27.802,-119.62242 -0.1106,-0.0863 -41.3364,54.4606 -91.6129,121.21543 l -91.4116,121.37247 -88.8537,0 -88.8536,0 45.0091,-59.75 z M 5035,769.63585 c -9.1984,-2.7681 -13.7422,-5.0876 -21.732,-11.0936 -19.0554,-14.3242 -28.563,-39.9697 -23.9077,-64.4879 0.8819,-4.6452 3.123,-11.6202 4.98,-15.5 2.3882,-4.9895 36.8028,-51.39891 117.575,-158.55435 62.8092,-83.325 117.8249,-155.61051 122.2571,-160.63446 28.1428,-31.89986 68.6748,-56.65257 110.2687,-67.34066 C 5371.746,285.00854 5351.7439,285.5 5610,285.5 l 232.5,0 7.3346,2.67921 c 16.7418,6.11551 29.98,17.51774 37.0119,31.87886 5.4992,11.23085 7.1535,18.2707 7.1535,30.44193 0,21.14024 -2.831,26.78586 -34.3758,68.55219 l -25.262,33.44781 -133.2895,0.25366 c -114.2418,0.21741 -133.2123,0.0525 -132.7494,-1.15368 0.297,-0.77403 7.2603,-10.387 15.4741,-21.36215 15.6397,-20.89773 16.8453,-23.3262 14.9635,-30.14156 -1.4207,-5.14525 -3.6229,-7.98523 -7.8738,-10.15388 -3.5976,-1.83536 -6.2123,-1.94239 -47.4529,-1.94239 -48.5723,0 -50.2226,0.1761 -62.6361,6.68379 -3.7286,1.95469 -9.1642,6.02066 -12.2519,9.16482 -8.4428,8.59711 -183.3315,240.95727 -184.7043,245.40139 -2.0345,6.58577 1.746,14.82635 8.4964,18.51995 2.8602,1.5651 7.3095,1.7301 46.6617,1.7301 38.1164,0 44.2716,-0.2136 49.7347,-1.7254 11.7895,-3.2627 23.0016,-10.37414 30.2653,-19.19646 1.925,-2.33805 26.45,-34.69814 54.5,-71.91131 l 51,-67.66031 164.3333,-0.003 c 90.3834,-0.002 164.1834,0.36747 164,0.82062 -0.1833,0.45314 -17.6583,23.83025 -38.8333,51.94914 l -38.5,51.12524 -31,0.0609 -31,0.0609 -29.5,39.15205 c -30.9097,41.02303 -44.4994,56.64403 -60.4629,69.50063 -27.029,21.7684 -61.2236,38.4193 -93.0371,45.3039 -23.8765,5.167 -14.4301,4.9867 -259.5,4.9502 l -228.5,-0.034 -7.5,-2.257 z"
     id="path3051"
     inkscape:connector-curvature="0" />
</svg>
