<?xml version="1.0" encoding="UTF-8" standalone="no"?>
<!-- Created with Inkscape (http://www.inkscape.org/) -->

<svg
   xmlns:dc="http://purl.org/dc/elements/1.1/"
   xmlns:cc="http://creativecommons.org/ns#"
   xmlns:rdf="http://www.w3.org/1999/02/22-rdf-syntax-ns#"
   xmlns:svg="http://www.w3.org/2000/svg"
   xmlns="http://www.w3.org/2000/svg"
   xmlns:xlink="http://www.w3.org/1999/xlink"
   xmlns:sodipodi="http://sodipodi.sourceforge.net/DTD/sodipodi-0.dtd"
   xmlns:inkscape="http://www.inkscape.org/namespaces/inkscape"
   width="239.65971mm"
   height="91.162331mm"
   viewBox="0 0 239.65971 91.162328"
   version="1.1"
   id="svg1811"
   inkscape:version="0.92.4 (5da689c313, 2019-01-14)"
   sodipodi:docname="brusters.svg">
  <defs
     id="defs1805">
    <linearGradient
       gradientTransform="matrix(0.35277776,0,0,0.35277776,-799.463,-1346.7544)"
       id="linear-gradient-39"
       x1="2492.6899"
       y1="4179.3901"
       x2="2491.3501"
       y2="4195.8599"
       xlink:href="#linear-gradient-27" />
    <linearGradient
       id="linear-gradient-27"
       x1="2168.8101"
       y1="4183.3999"
       x2="2161.3501"
       y2="4274.73"
       gradientUnits="userSpaceOnUse">
      <stop
         offset="0"
         stop-color="#f1f9fd"
         id="stop1818" />
      <stop
         offset="0.31"
         stop-color="#fafdff"
         id="stop1820" />
      <stop
         offset="0.65"
         stop-color="#e1ecf7"
         id="stop1822" />
      <stop
         offset="1"
         stop-color="#c1d7ec"
         id="stop1824" />
    </linearGradient>
    <linearGradient
       gradientTransform="matrix(0.35277776,0,0,0.35277776,-799.463,-1346.7544)"
       id="linear-gradient-38"
       x1="2108.25"
       y1="4045.1699"
       x2="2142.4299"
       y2="4045.1699"
       xlink:href="#linear-gradient-37" />
    <linearGradient
       id="linear-gradient-37"
       x1="2457.6799"
       y1="4044.74"
       x2="2489.2"
       y2="4044.74"
       gradientUnits="userSpaceOnUse">
      <stop
         offset="0"
         stop-color="#c4c9cd"
         id="stop1897" />
      <stop
         offset="1"
         stop-color="#dadfe2"
         id="stop1899" />
    </linearGradient>
    <clipPath
       id="clip-path-8"
       transform="translate(-67.77 -107.36)">
      <path
         class="cls-1"
         d="m 2650.19,4031.49 -0.53,0.1 c -48.44,11.4 -188.32,19.28 -348,19.59 -152.74,0.31 -288.6,-7.46 -344.89,-18.66 a 11,11 0 0 0 -9.33,2.38 15.36,15.36 0 0 0 -5.37,11.9 v 105.64 c 0,7.72 5,14.67 11.62,16.16 31.41,6.83 90.16,14.22 147.13,18.12 2.08,0.14 3.84,2.44 3.84,5 v 91.52 c 0,6.63 5.14,12.47 11.47,13 h 0.61 c 139.39,10.91 281.28,11.21 379.52,0.81 h 0.42 c 6.38,-0.56 11.52,-6.41 11.52,-13 v -92 c 0,-2.56 1.81,-4.91 3.88,-5 58.81,-3.92 120.7,-11.53 140.92,-17.31 6.42,-1.68 11.11,-8.43 11.11,-16 v -107.85 a 15.22,15.22 0 0 0 -4.74,-11.4 11.7,11.7 0 0 0 -9.18,-3 z m 3.58,9.18 a 7,7 0 0 1 2,5.22 v 107.82 c 0,3.7 -2.24,7.3 -5,8 -19.81,5.67 -81,13.15 -139.23,17 -6.43,0.35 -11.68,6.33 -11.68,13.32 v 92 c 0,2.34 -1.82,4.56 -3.89,4.74 0.13,0 -0.26,0 -0.26,0 h -0.28 c -97.8,10.36 -239.19,10 -378.24,-0.82 h -0.41 c -2,-0.18 -3.84,-2.39 -3.84,-4.74 v -91.52 c 0,-7 -5.09,-12.87 -11.58,-13.32 -56.6,-3.86 -114.9,-11.2 -145.9,-17.94 -2.81,-0.63 -5.1,-4.24 -5.1,-8 V 4046.8 a 7,7 0 0 1 2.29,-5.44 2.81,2.81 0 0 1 2.42,-0.7 c 57.69,11.48 191,19.14 346.58,18.84 159.82,-0.32 300.25,-8.25 349.57,-19.75 a 3.37,3.37 0 0 1 2.55,0.92 z"
         id="path1894"
         inkscape:connector-curvature="0"
         style="fill:none" />
    </clipPath>
    <linearGradient
       gradientTransform="matrix(0.35277776,0,0,0.35277776,-799.463,-1346.7544)"
       id="linear-gradient-36"
       x1="2261.1101"
       y1="3668.4099"
       x2="1969.88"
       y2="4069.25"
       xlink:href="#linear-gradient-34" />
    <linearGradient
       id="linear-gradient-34"
       x1="2431.3701"
       y1="3851.3799"
       x2="2173.5"
       y2="4206.3101"
       gradientUnits="userSpaceOnUse">
      <stop
         offset="0"
         stop-color="#a7aeb2"
         id="stop1863" />
      <stop
         offset="0.27"
         stop-color="#e2e3e4"
         id="stop1865" />
      <stop
         offset="0.32"
         stop-color="#e0e1e2"
         id="stop1867" />
      <stop
         offset="0.34"
         stop-color="#d8dbdd"
         id="stop1869" />
      <stop
         offset="0.36"
         stop-color="#cbcfd3"
         id="stop1871" />
      <stop
         offset="0.38"
         stop-color="#b8c0c6"
         id="stop1873" />
      <stop
         offset="0.44"
         stop-color="#d7d8da"
         id="stop1875" />
      <stop
         offset="0.51"
         stop-color="#acb4ba"
         id="stop1877" />
      <stop
         offset="0.69"
         stop-color="#dddfe0"
         id="stop1879" />
      <stop
         offset="0.76"
         stop-color="#d9dcdd"
         id="stop1881" />
      <stop
         offset="0.84"
         stop-color="#ced2d4"
         id="stop1883" />
      <stop
         offset="0.91"
         stop-color="#bcc1c5"
         id="stop1885" />
      <stop
         offset="0.97"
         stop-color="#a2a9af"
         id="stop1887" />
      <stop
         offset="1"
         stop-color="#959ea5"
         id="stop1889" />
    </linearGradient>
    <linearGradient
       gradientTransform="matrix(0.35277776,0,0,0.35277776,-799.463,-1346.7544)"
       id="linear-gradient-35"
       x1="2632.8301"
       y1="3997.52"
       x2="2374.28"
       y2="4353.3799"
       xlink:href="#linear-gradient-34" />
    <linearGradient
       gradientTransform="matrix(0.35277776,0,0,0.35277776,-799.463,-1346.7544)"
       id="linear-gradient-33"
       x1="2434.04"
       y1="3853.03"
       x2="2174.3799"
       y2="4210.4102"
       gradientUnits="userSpaceOnUse">
      <stop
         offset="0"
         stop-color="#bbc1c5"
         id="stop1832" />
      <stop
         offset="0.27"
         stop-color="#fff"
         id="stop1834" />
      <stop
         offset="0.32"
         stop-color="#fdfdfd"
         id="stop1836" />
      <stop
         offset="0.34"
         stop-color="#f5f6f7"
         id="stop1838" />
      <stop
         offset="0.36"
         stop-color="#e8ebed"
         id="stop1840" />
      <stop
         offset="0.38"
         stop-color="#d5dade"
         id="stop1842" />
      <stop
         offset="0.38"
         stop-color="#d1d7db"
         id="stop1844" />
      <stop
         offset="0.44"
         stop-color="#ececed"
         id="stop1846" />
      <stop
         offset="0.51"
         stop-color="#cad0d4"
         id="stop1848" />
      <stop
         offset="0.69"
         stop-color="#fff"
         id="stop1850" />
      <stop
         offset="0.76"
         stop-color="#fbfcfc"
         id="stop1852" />
      <stop
         offset="0.82"
         stop-color="#f0f2f3"
         id="stop1854" />
      <stop
         offset="0.89"
         stop-color="#dee1e3"
         id="stop1856" />
      <stop
         offset="0.95"
         stop-color="#c4c9cd"
         id="stop1858" />
      <stop
         offset="1"
         stop-color="#a8b0b6"
         id="stop1860" />
    </linearGradient>
    <linearGradient
       gradientTransform="matrix(0.35277776,0,0,0.35277776,-799.463,-1346.7544)"
       id="linear-gradient-32"
       x1="2468.0901"
       y1="4185.1001"
       x2="2460.8"
       y2="4274.29"
       xlink:href="#linear-gradient-27" />
    <linearGradient
       gradientTransform="matrix(0.35277776,0,0,0.35277776,-799.463,-1346.7544)"
       id="linear-gradient-31"
       x1="2409.0801"
       y1="4200.3999"
       x2="2402.6201"
       y2="4279.54"
       xlink:href="#linear-gradient-27" />
    <linearGradient
       gradientTransform="matrix(0.35277776,0,0,0.35277776,-799.463,-1346.7544)"
       id="linear-gradient-30"
       x1="2336.47"
       y1="4201.4902"
       x2="2329.97"
       y2="4281.04"
       xlink:href="#linear-gradient-27" />
    <linearGradient
       gradientTransform="matrix(0.35277776,0,0,0.35277776,-799.463,-1346.7544)"
       id="linear-gradient-29"
       x1="2273.6001"
       y1="4200.1802"
       x2="2267.1001"
       y2="4279.8501"
       xlink:href="#linear-gradient-27" />
    <linearGradient
       gradientTransform="matrix(0.35277776,0,0,0.35277776,-799.463,-1346.7544)"
       id="linear-gradient-28"
       x1="2229.01"
       y1="4184.3901"
       x2="2221.3701"
       y2="4277.96"
       xlink:href="#linear-gradient-27" />
    <linearGradient
       gradientTransform="matrix(0.35277776,0,0,0.35277776,-799.463,-1346.7544)"
       id="linear-gradient-26"
       x1="2608.5601"
       y1="4072.28"
       x2="2608.5601"
       y2="4159.6001"
       xlink:href="#linear-gradient-17" />
    <linearGradient
       id="linear-gradient-17"
       x1="2001.12"
       y1="4054.3701"
       x2="2001.12"
       y2="4161.6802"
       gradientUnits="userSpaceOnUse">
      <stop
         offset="0"
         stop-color="#fff"
         id="stop1800" />
      <stop
         offset="0.43"
         stop-color="#fafdff"
         id="stop1802" />
      <stop
         offset="0.7"
         stop-color="#e1ecf7"
         id="stop1804" />
      <stop
         offset="1"
         stop-color="#c1d7ec"
         id="stop1806" />
    </linearGradient>
    <linearGradient
       gradientTransform="matrix(0.35277776,0,0,0.35277776,-799.463,-1346.7544)"
       id="linear-gradient-25"
       x1="2534.3799"
       y1="4080.3799"
       x2="2534.3799"
       y2="4165.1201"
       xlink:href="#linear-gradient-17" />
    <linearGradient
       gradientTransform="matrix(0.35277776,0,0,0.35277776,-799.463,-1346.7544)"
       id="linear-gradient-24"
       x1="2479.55"
       y1="4066.8"
       x2="2479.55"
       y2="4167.9302"
       xlink:href="#linear-gradient-17" />
    <linearGradient
       gradientTransform="matrix(0.35277776,0,0,0.35277776,-799.463,-1346.7544)"
       id="linear-gradient-23"
       x1="2436.97"
       y1="4072.9299"
       x2="2436.97"
       y2="4168.96"
       xlink:href="#linear-gradient-17" />
    <linearGradient
       gradientTransform="matrix(0.35277776,0,0,0.35277776,-799.463,-1346.7544)"
       id="linear-gradient-22"
       x1="2378.1599"
       y1="4086.4299"
       x2="2378.1599"
       y2="4172.6602"
       xlink:href="#linear-gradient-17" />
    <linearGradient
       gradientTransform="matrix(0.35277776,0,0,0.35277776,-799.463,-1346.7544)"
       id="linear-gradient-21"
       x1="2287.6399"
       y1="4087.3101"
       x2="2287.6399"
       y2="4171.6802"
       xlink:href="#linear-gradient-17" />
    <linearGradient
       gradientTransform="matrix(0.35277776,0,0,0.35277776,-799.463,-1346.7544)"
       id="linear-gradient-20"
       x1="2195.29"
       y1="4086.8101"
       x2="2195.29"
       y2="4171.48"
       xlink:href="#linear-gradient-17" />
    <linearGradient
       gradientTransform="matrix(0.35277776,0,0,0.35277776,-799.463,-1346.7544)"
       id="linear-gradient-19"
       x1="2137.1599"
       y1="4073.0901"
       x2="2137.1599"
       y2="4169.4399"
       xlink:href="#linear-gradient-17" />
    <linearGradient
       gradientTransform="matrix(0.35277776,0,0,0.35277776,-799.463,-1346.7544)"
       id="linear-gradient-18"
       x1="2076.05"
       y1="4081.47"
       x2="2076.05"
       y2="4166.5"
       xlink:href="#linear-gradient-17" />
    <linearGradient
       gradientTransform="matrix(0.35277776,0,0,0.35277776,-799.463,-1346.7544)"
       id="linear-gradient-16"
       x1="2561.99"
       y1="3900.46"
       x2="2065.98"
       y2="4289.6899"
       gradientUnits="userSpaceOnUse">
      <stop
         offset="0.21"
         stop-color="#22aae2"
         id="stop1793" />
      <stop
         offset="0.5"
         stop-color="#2084b6"
         id="stop1795" />
      <stop
         offset="1"
         stop-color="#1b3d63"
         id="stop1797" />
    </linearGradient>
    <linearGradient
       gradientTransform="matrix(0.35277776,0,0,0.35277776,-799.463,-1346.7544)"
       id="linear-gradient-15"
       x1="2299.53"
       y1="4326.3901"
       x2="2299.53"
       y2="4295.8701"
       gradientUnits="userSpaceOnUse">
      <stop
         offset="0.54"
         stop-color="#304855"
         id="stop1782" />
      <stop
         offset="0.63"
         stop-color="#1c333f"
         id="stop1784" />
      <stop
         offset="0.73"
         stop-color="#0d242f"
         id="stop1786" />
      <stop
         offset="0.85"
         stop-color="#051b26"
         id="stop1788" />
      <stop
         offset="1"
         stop-color="#021823"
         id="stop1790" />
    </linearGradient>
    <linearGradient
       gradientTransform="matrix(0.35277776,0,0,0.35277776,-799.463,-1346.7544)"
       id="linear-gradient-14"
       x1="2262.97"
       y1="4333.6699"
       x2="2333.5801"
       y2="4408.3301"
       xlink:href="#linear-gradient-12" />
    <linearGradient
       id="linear-gradient-12"
       x1="1994.9399"
       y1="3919.45"
       x2="2143.04"
       y2="4076.05"
       gradientUnits="userSpaceOnUse">
      <stop
         offset="0"
         stop-color="#00b5f0"
         id="stop1773" />
      <stop
         offset="0.48"
         stop-color="#fffffb"
         id="stop1775" />
      <stop
         offset="1"
         stop-color="#00b5f0"
         id="stop1777" />
    </linearGradient>
    <linearGradient
       id="linear-gradient-13"
       x1="-476.89999"
       y1="3917.78"
       x2="-327.03"
       y2="4076.25"
       gradientTransform="matrix(-0.35277776,0,0,0.35277776,-48.75192,-1346.7544)"
       xlink:href="#linear-gradient-12" />
    <linearGradient
       gradientTransform="matrix(0.35277776,0,0,0.35277776,-799.463,-1346.7544)"
       id="linear-gradient-11"
       x1="2531.55"
       y1="3925.1599"
       x2="2534.55"
       y2="4058.75"
       gradientUnits="userSpaceOnUse">
      <stop
         offset="0"
         stop-color="#2a6086"
         id="stop1762" />
      <stop
         offset="0.33"
         stop-color="#2b6082"
         id="stop1764" />
      <stop
         offset="0.66"
         stop-color="#065a7f"
         id="stop1766" />
      <stop
         offset="0.87"
         stop-color="#023d63"
         id="stop1768" />
      <stop
         offset="1"
         stop-color="#003258"
         id="stop1770" />
    </linearGradient>
    <linearGradient
       gradientTransform="matrix(0.35277776,0,0,0.35277776,-799.463,-1346.7544)"
       id="linear-gradient-10"
       x1="2476.8899"
       y1="4355.8398"
       x2="2321.71"
       y2="4058.99"
       gradientUnits="userSpaceOnUse">
      <stop
         offset="0"
         stop-color="#2a6086"
         id="stop1755" />
      <stop
         offset="0.33"
         stop-color="#2b6082"
         id="stop1757" />
      <stop
         offset="1"
         stop-color="#00557b"
         id="stop1759" />
    </linearGradient>
    <linearGradient
       gradientTransform="matrix(0.35277776,0,0,0.35277776,-799.463,-1346.7544)"
       id="linear-gradient-9"
       x1="2341.1499"
       y1="4432.96"
       x2="2050.6899"
       y2="3877.29"
       gradientUnits="userSpaceOnUse">
      <stop
         offset="0"
         stop-color="#286fad"
         id="stop1748" />
      <stop
         offset="0.33"
         stop-color="#2b6082"
         id="stop1750" />
      <stop
         offset="1"
         stop-color="#006183"
         id="stop1752" />
    </linearGradient>
    <linearGradient
       gradientTransform="matrix(0.35277776,0,0,0.35277776,-799.463,-1346.7544)"
       id="linear-gradient-8"
       x1="2058.6299"
       y1="3928.3301"
       x2="2063.52"
       y2="4052.8401"
       gradientUnits="userSpaceOnUse">
      <stop
         offset="0"
         stop-color="#5575b0"
         id="stop1739" />
      <stop
         offset="0.42"
         stop-color="#5172ab"
         id="stop1741" />
      <stop
         offset="0.75"
         stop-color="#4a6ca3"
         id="stop1743" />
      <stop
         offset="1"
         stop-color="#002743"
         id="stop1745" />
    </linearGradient>
    <linearGradient
       gradientTransform="matrix(0.35277776,0,0,0.35277776,-799.463,-1346.7544)"
       id="linear-gradient-7"
       x1="2323.46"
       y1="4319.02"
       x2="2251.3601"
       y2="4375.6001"
       gradientUnits="userSpaceOnUse">
      <stop
         offset="0.21"
         stop-color="#00b7eb"
         id="stop1726" />
      <stop
         offset="0.32"
         stop-color="#01b1e5"
         id="stop1728" />
      <stop
         offset="0.47"
         stop-color="#05a1d3"
         id="stop1730" />
      <stop
         offset="0.64"
         stop-color="#0b87b6"
         id="stop1732" />
      <stop
         offset="0.83"
         stop-color="#13638d"
         id="stop1734" />
      <stop
         offset="1"
         stop-color="#1b3d63"
         id="stop1736" />
    </linearGradient>
    <linearGradient
       gradientTransform="matrix(0.35277776,0,0,0.35277776,-799.463,-1346.7544)"
       id="linear-gradient-6"
       x1="2581.95"
       y1="3944.1599"
       x2="2300.5"
       y2="4165.02"
       xlink:href="#linear-gradient" />
    <linearGradient
       id="linear-gradient"
       x1="1923.6801"
       y1="4002.97"
       x2="2350.1201"
       y2="4342.2998"
       gradientUnits="userSpaceOnUse">
      <stop
         offset="0.21"
         stop-color="#00b7eb"
         id="stop1708" />
      <stop
         offset="0.49"
         stop-color="#098fbf"
         id="stop1710" />
      <stop
         offset="1"
         stop-color="#1b3d63"
         id="stop1712" />
    </linearGradient>
    <linearGradient
       id="linear-gradient-5"
       x1="-90.68"
       y1="3920.01"
       x2="224.64999"
       y2="4170.9399"
       gradientTransform="matrix(-0.35277776,0,0,0.35277776,88.891383,-1346.7544)"
       xlink:href="#linear-gradient" />
    <linearGradient
       gradientTransform="matrix(0.35277776,0,0,0.35277776,-799.463,-1346.7544)"
       id="linear-gradient-4"
       x1="1990.28"
       y1="3920.1201"
       x2="2305.7"
       y2="4171.1201"
       xlink:href="#linear-gradient" />
    <linearGradient
       gradientTransform="matrix(0.35277776,0,0,0.35277776,-799.463,-1346.7544)"
       id="linear-gradient-3"
       x1="1990.49"
       y1="3920.01"
       x2="2305.8201"
       y2="4170.9399"
       gradientUnits="userSpaceOnUse">
      <stop
         offset="0.21"
         stop-color="#00aadb"
         id="stop1716" />
      <stop
         offset="0.52"
         stop-color="#0a82af"
         id="stop1718" />
      <stop
         offset="1"
         stop-color="#1b3d63"
         id="stop1720" />
    </linearGradient>
    <linearGradient
       gradientTransform="matrix(0.35277776,0,0,0.35277776,-799.463,-1346.7544)"
       id="linear-gradient-2"
       x1="2359.5801"
       y1="4107.4502"
       x2="2481.79"
       y2="4204.6899"
       xlink:href="#linear-gradient" />
  </defs>
  <sodipodi:namedview
     id="base"
     pagecolor="#ffffff"
     bordercolor="#666666"
     borderopacity="1.0"
     inkscape:pageopacity="0.0"
     inkscape:pageshadow="2"
     inkscape:zoom="0.13341116"
     inkscape:cx="-607.60724"
     inkscape:cy="528.22561"
     inkscape:document-units="mm"
     inkscape:current-layer="layer1"
     showgrid="false"
     fit-margin-top="0"
     fit-margin-left="0"
     fit-margin-right="0"
     fit-margin-bottom="0"
     inkscape:window-width="1189"
     inkscape:window-height="712"
     inkscape:window-x="2744"
     inkscape:window-y="442"
     inkscape:window-maximized="0" />
  <metadata
     id="metadata1808">
    <rdf:RDF>
      <cc:Work
         rdf:about="">
        <dc:format>image/svg+xml</dc:format>
        <dc:type
           rdf:resource="http://purl.org/dc/dcmitype/StillImage" />
        <dc:title></dc:title>
      </cc:Work>
    </rdf:RDF>
  </metadata>
  <g
     inkscape:label="Layer 1"
     inkscape:groupmode="layer"
     id="layer1"
     transform="translate(-400.23706,-151.87483)">
    <g
       id="g7585">
      <path
         style="fill:#060606;stroke-width:0.35277775"
         inkscape:connector-curvature="0"
         id="path2407"
         d="m 639.88619,193.59536 c -0.39863,0.99131 -0.74436,2.01084 -1.21002,2.97392 -2.09198,4.34269 -5.5245,7.47536 -9.40506,10.16 -4.28272,2.96333 -8.93939,5.21758 -13.75833,7.14022 a 2.1836944,2.1836944 0 0 1 -0.33161,0.0564 l -1.14653,-1.53458 c 0.35278,-0.16228 0.70556,-0.3175 1.02658,-0.45861 5.34106,-2.20487 10.58334,-4.62492 15.0495,-8.35731 a 28.758444,28.758444 0 0 0 4.67784,-4.83658 c 3.70416,-4.98475 3.59127,-10.54806 -0.0882,-15.57161 -2.7693,-3.77825 -6.50522,-6.39586 -10.50925,-8.65717 -6.81567,-3.85233 -14.14991,-6.43114 -21.64996,-8.58308 -12.84464,-3.69359 -25.9715,-5.9055 -39.22184,-7.45772 -10.80911,-1.26648 -21.66055,-1.92617 -32.54022,-2.22603 q -18.21391,-0.49742 -36.3855,0.65969 c -17.30728,1.11478 -34.46639,3.32317 -51.31505,7.56709 -8.4067,2.11666 -16.65817,4.71311 -24.41222,8.66422 -4.61787,2.3495 -8.98173,5.07294 -12.31548,9.14752 -4.52614,5.53509 -4.58611,11.71575 -0.10936,17.28611 a 25.82686,25.82686 0 0 0 3.23144,3.31259 c 4.43089,3.85233 9.63084,6.40644 15.00365,8.61483 2.73402,1.12183 5.55272,2.03553 8.32908,3.04447 a 2.5505833,2.5505833 0 0 1 0.77258,0.39511 c -2.05669,0.10231 -4.00755,0.75848 -6.1595,-0.10583 -6.05014,-2.42711 -11.99444,-5.03767 -17.28611,-8.89705 a 29.54161,29.54161 0 0 1 -6.67103,-6.51934 c -4.26861,-5.88433 -4.30389,-12.88344 -0.0776,-18.79247 2.82222,-3.95816 6.61458,-6.81919 10.75619,-9.24983 7.52123,-4.40972 15.66334,-7.30956 24.00653,-9.69081 10.25878,-2.92805 20.70806,-4.93889 31.27375,-6.40644 a 330.95845,330.95845 0 0 1 35.96216,-3.07622 c 6.78744,-0.19755 13.58194,-0.39864 20.36939,-0.2928 a 368.81152,368.81152 0 0 1 38.80555,2.55411 c 10.64684,1.29822 21.21253,3.03036 31.62653,5.64444 8.59719,2.14842 17.04269,4.75192 25.04722,8.61483 5.36222,2.58939 10.42105,5.64445 14.40391,10.20234 a 18.580805,18.580805 0 0 1 4.03578,7.1755 1.5310555,1.5310555 0 0 0 0.22578,0.35277 z"
         class="cls-93" />
      <path
         style="fill:#ed3127;stroke-width:0.35277775"
         inkscape:connector-curvature="0"
         id="path2409"
         d="m 496.74309,182.17595 5.0412,5.42219 a 7.951611,7.951611 0 0 1 6.50169,-3.39372 7.648222,7.648222 0 0 1 4.99533,1.76389 c 3.28084,2.63525 4.19453,7.55297 2.11667,11.40177 -2.07786,3.84881 -5.82789,5.13292 -10.8585,3.49956 2.15547,4.36386 2.01789,8.509 -0.90664,12.34722 a 10.251722,10.251722 0 0 1 -6.99205,4.08517 c -6.23711,0.84666 -11.66989,-3.27378 -12.50598,-9.4615 -0.75141,-5.55978 2.94923,-11.72281 10.27289,-12.39661 0.0423,-0.0494 0.11642,-0.0952 0.11642,-0.14464 -0.0388,-2.99156 -0.12347,-5.99722 -0.11642,-8.97114 0,-2.27542 -1.59455,-3.12914 -3.31964,-3.75003 -1.22413,-0.43744 -2.56822,-0.5468 -3.86291,-0.79022 -0.30692,-0.06 -0.62442,-0.0741 -0.97014,-0.11289 -0.0917,-1.54164 -0.17992,-3.00919 -0.28575,-4.74839 l 7.20725,2.82222 c 0,-1.76388 -0.11289,-3.74297 0.0423,-5.70088 a 12.484805,12.484805 0 0 1 0.94192,-3.71475 c 0.98425,-2.38478 2.90689,-3.4537 5.44689,-3.88056 2.921,-0.48683 5.51391,-1.89442 7.85636,-3.7218 0.16933,-0.13406 0.33161,-0.2787 0.57855,-0.48331 -0.20814,1.18181 -0.56092,2.25072 -0.5468,3.31611 0.0247,1.82386 0.35277,3.63714 0.41275,5.461 a 24.750888,24.750888 0 0 1 -0.26106,4.39561 c -0.18344,1.17475 -0.92781,1.9297 -2.20486,2.25778 -1.83092,0.46567 -3.59833,1.1818 -5.41514,1.72508 -1.59103,0.49036 -2.49061,1.71097 -3.28436,2.77284 z m 4.32506,14.9225 c -1.05834,-2.45181 -1.23472,-4.80131 -0.43392,-7.19314 a 0.65969444,0.65969444 0 0 0 -0.0177,-0.37748 c -0.75494,-2.57175 -2.21544,-4.58611 -4.3568,-5.842 0.28222,3.937 0.5715,7.95162 0.85372,11.88156 z m -10.45281,1.71802 -0.27869,-0.26458 c -1.03364,0.98072 -2.11667,1.905 -3.08681,2.95275 a 3.7076944,3.7076944 0 0 0 -0.84666,3.06211 c 0.0952,0.74789 0.39511,1.43933 1.21708,1.524 0.82197,0.0847 1.41111,-0.39864 1.67217,-1.17828 a 3.0233054,3.0233054 0 0 0 0.15169,-1.03364 c -0.0564,-1.78858 0.18344,-3.50661 1.17122,-5.06236 z m 14.78845,-26.81111 c -1.68628,1.55575 -3.13267,2.86103 -4.53673,4.21217 -0.21872,0.21167 -0.24341,0.62442 -0.44097,1.1818 1.65806,-0.63147 3.01978,-1.18533 4.4062,-1.65805 a 1.3088055,1.3088055 0 0 0 1.00189,-1.44286 21.544138,21.544138 0 0 0 -0.43039,-2.27895 z m -3.38667,20.70453 c -0.18697,1.50989 0,2.93864 1.00189,4.06047 a 4.6213887,4.6213887 0 0 0 1.93675,1.10067 1.11125,1.11125 0 0 0 1.53458,-0.762 c 0.254,-0.83256 -0.1905,-1.36525 -0.91722,-1.524 a 4.840111,4.840111 0 0 1 -3.556,-2.86103 z"
         class="cls-94" />
      <path
         style="fill:#050505;stroke-width:0.35277775"
         inkscape:connector-curvature="0"
         id="path2411"
         d="m 448.87468,192.72047 c 0,0.60678 0,1.21003 0,1.81681 0,2.57528 0,5.15408 0.0212,7.72936 a 10.142361,10.142361 0 0 0 0.13405,1.34408 c 0.26811,1.85209 0.83609,2.40242 2.76578,2.66348 v 1.76388 h -10.82323 v -1.71802 c 2.24367,-0.49036 2.84339,-1.11831 2.87161,-3.49603 0.0706,-5.73264 0.06,-11.46528 0.067,-17.20145 0,-2.3495 -0.0282,-4.699 -0.0459,-7.05555 0,-0.0952 0,-0.19403 -0.0177,-0.28928 -0.15522,-2.24014 -0.70555,-2.88572 -2.88219,-3.29847 v -1.76389 c 3.88056,0 7.69056,-0.067 11.50761,0 4.82953,0.10583 6.93561,2.61408 7.4295,7.51769 a 14.351,14.351 0 0 1 -0.11289,3.75003 c -0.46566,2.86456 -1.82033,5.13997 -4.74486,6.2477 1.2065,2.51177 2.40947,4.9918 3.59128,7.48594 0.88194,1.86267 1.66158,3.77825 2.63525,5.588 0.45155,0.83961 1.34761,1.42875 1.86972,2.24014 0.35278,0.52564 0.35278,1.24883 0.56445,2.01436 h -1.24884 c -1.44639,0 -2.89278,-0.0494 -4.33211,0.0247 -0.70555,0.0388 -1.05833,-0.13406 -1.34055,-0.82197 q -2.37067,-5.64445 -4.85423,-11.25361 a 17.427222,17.427222 0 0 0 -1.67216,-2.82223 c -0.23284,-0.35278 -0.70556,-0.50094 -1.09009,-0.74083 z m 0.0635,-2.70933 c 2.59997,0.37747 4.31094,-0.39864 5.02002,-2.49767 a 14.393333,14.393333 0 0 0 -0.0282,-9.3733 c -0.6103,-1.82386 -1.87677,-2.54353 -3.7853,-2.5012 -0.8255,0.0176 -1.23825,0.30692 -1.23472,1.19592 0,4.30742 -0.0212,8.61483 -0.0353,12.92225 a 1.1641666,1.1641666 0 0 0 0.0635,0.254 z"
         class="cls-95" />
      <path
         style="fill:#040404;stroke-width:0.35277775"
         inkscape:connector-curvature="0"
         id="path2413"
         d="m 584.25315,206.60228 v 1.71803 h -10.58334 v -1.67217 c 2.29659,-0.67381 2.76578,-1.17122 2.77989,-3.70769 0.0459,-8.02217 0,-16.04081 0,-24.05945 a 5.4504164,5.4504164 0 0 0 -0.0811,-0.95955 c -0.32456,-1.88384 -0.79022,-2.33539 -2.71992,-2.6035 v -1.82739 c 0.64206,0 1.3335,0 2.02142,0 2.44122,0 4.88244,-0.0423 7.32719,0 a 27.869444,27.869444 0 0 1 3.556,0.23989 c 2.16606,0.31044 3.7712,1.47813 4.61786,3.52777 a 12.7,12.7 0 0 1 0.14817,9.96245 6.427611,6.427611 0 0 1 -3.91936,3.81353 c 0.83608,1.79211 1.651,3.52777 2.46944,5.27402 1.21709,2.6282 2.41653,5.26698 3.64067,7.88811 a 5.2105277,5.2105277 0 0 0 1.89089,2.2472 c 0.37394,0.24694 0.29281,1.18886 0.43392,1.89442 h -6.39234 c -1.32644,-3.175 -2.65994,-6.40292 -4.04283,-9.62025 -0.60678,-1.41112 -1.27706,-2.82223 -1.97556,-4.18395 a 5.8843331,5.8843331 0 0 0 -1.04069,-1.37936 0.97013887,0.97013887 0 0 0 -0.76906,-0.19403 c -0.11288,0.0177 -0.23636,0.4057 -0.23636,0.62442 0,3.12208 0.0353,6.24769 0.06,9.36978 0,0.1905 0.0247,0.38452 0.0423,0.57502 0.18345,2.08845 0.74084,2.71287 2.77284,3.0727 z m -2.82223,-16.28775 c 2.86103,0.39158 4.54731,-0.70556 5.19642,-3.38667 a 14.439194,14.439194 0 0 0 0.35278,-2.667 c 0.10583,-2.00025 0.0459,-3.99344 -0.67734,-5.89491 -0.70555,-1.82387 -2.24366,-2.71992 -4.01813,-2.42712 -0.55739,0.0952 -0.86784,0.32103 -0.86784,0.92781 0.0212,4.46617 0.0176,8.92881 0.0176,13.462 z"
         class="cls-96" />
      <path
         style="fill:#040304;stroke-width:0.35277775"
         inkscape:connector-curvature="0"
         id="path2415"
         d="m 434.55543,190.0182 c 0.31044,0.11288 0.49036,0.18697 0.6738,0.23636 4.00403,1.10772 6.12422,3.70064 6.35,7.83872 a 16.255999,16.255999 0 0 1 -0.0706,2.98803 c -0.61736,4.71311 -3.34786,7.24252 -8.14564,7.57414 -1.08655,0.0741 -2.18722,0 -3.28083,0 h -7.96572 v -1.78859 c 2.22955,-0.4833 2.83986,-1.09361 2.86103,-3.45016 0.067,-7.53534 0.0564,-15.0742 0.067,-22.60953 0,-0.74084 -0.0176,-1.48167 -0.0847,-2.21897 -0.19403,-2.08492 -0.77964,-2.70581 -2.85045,-3.02331 V 173.674 c 0.93486,0.0564 1.85561,0.16581 2.77284,0.15875 2.11666,0 4.23333,-0.127 6.35,-0.11289 a 15.409333,15.409333 0 0 1 3.24908,0.32809 c 3.50308,0.78316 5.48569,3.13266 5.70441,6.70277 a 14.298083,14.298083 0 0 1 -0.0847,3.27378 c -0.50447,3.12914 -2.37772,5.06236 -5.54566,5.9937 z m -4.65667,1.71097 c 0.10583,3.90878 0.20108,7.85283 0.33161,11.79336 a 3.58775,3.58775 0 0 0 0.35278,1.19592 c 0.72319,1.73213 2.65994,2.11666 3.88055,0.67733 a 5.4468887,5.4468887 0 0 0 1.09361,-2.11667 16.379472,16.379472 0 0 0 0.0282,-8.19855 c -0.70908,-2.8187 -2.60702,-3.95111 -5.68677,-3.34081 z m 0.0988,-2.76931 c 2.14136,0.35278 3.73592,-0.31044 4.29331,-1.99319 a 13.169194,13.169194 0 0 0 -0.0882,-8.78417 c -0.51506,-1.41111 -1.66864,-2.05317 -3.09034,-1.98967 -0.75141,0.0353 -1.1183,0.38453 -1.1183,1.13948 0.003,3.85939 0.003,7.70466 0.003,11.62755 z"
         class="cls-97" />
      <path
         style="fill:#050505;stroke-width:0.35277775"
         inkscape:connector-curvature="0"
         id="path2417"
         d="m 567.4327,197.3595 h -1.13947 c -0.21872,-1.05833 -0.38806,-2.11667 -0.67381,-3.175 -0.51152,-1.87325 -1.50636,-2.54353 -3.47838,-2.46944 -0.0388,0.0494 -0.10937,0.0988 -0.10937,0.14816 0.0423,3.52778 0.0353,7.08025 0.15875,10.61509 0.0564,1.55222 0.61737,2.92805 2.37067,3.35844 1.89089,0.46567 4.07811,-0.127 4.87186,-1.68628 0.762,-1.48872 1.1042,-3.175 1.60867,-4.8013 a 9.711972,9.711972 0 0 0 0.21167,-1.13947 h 1.16416 v 10.11061 h -18.10103 v -1.71803 c 2.02142,-0.35278 2.55412,-0.92781 2.75873,-3.02331 q 0.12347,-1.24883 0.11994,-2.50472 0,-10.87261 -0.0494,-21.74169 a 9.9836108,9.9836108 0 0 0 -0.0988,-1.25236 c -0.23989,-1.95087 -0.80433,-2.51884 -2.74814,-2.74109 v -1.76389 h 16.83456 v 9.17223 h -1.14653 c -0.17286,-0.87842 -0.31044,-1.79212 -0.53975,-2.68464 -0.85019,-3.31259 -2.99508,-4.65314 -6.35,-4.01814 -0.58208,0.10936 -1.05833,0.28222 -1.05833,1.016 0,3.92994 0,7.85636 -0.0177,11.7863 a 0.8854722,0.8854722 0 0 0 0.0811,0.26459 c 1.72861,0.254 3.02683,-0.43392 3.556,-2.06728 a 30.885694,30.885694 0 0 0 0.70555,-3.46075 h 1.05833 z"
         class="cls-95" />
      <path
         style="fill:#050505;stroke-width:0.35277775"
         inkscape:connector-curvature="0"
         id="path2419"
         d="m 460.06479,175.2862 v -1.72509 h 10.90789 v 1.76389 c -2.13431,0.35278 -2.86456,1.00189 -2.89984,3.175 q -0.13758,8.59367 -0.0564,17.18733 a 29.150027,29.150027 0 0 0 0.61736,5.83142 c 0.56092,2.6035 2.0955,3.88056 4.28625,4.0252 2.58233,0.15875 4.46264,-0.99484 5.5245,-3.37962 0.84667,-1.89088 1.05833,-3.90877 1.05833,-5.94077 q 0,-7.82814 -0.0917,-15.65275 a 8.3431944,8.3431944 0 0 0 -0.43391,-2.74461 c -0.27517,-0.74084 -0.77964,-1.66512 -1.41111,-1.94028 -1.19945,-0.51506 -1.23473,-1.26295 -1.02659,-2.30011 h 7.51064 a 5.7538054,5.7538054 0 0 1 -0.0212,1.23472 1.1183055,1.1183055 0 0 1 -0.52211,0.73025 c -1.26294,0.47978 -1.86972,1.44992 -2.05316,2.69875 a 21.928666,21.928666 0 0 0 -0.254,3.07622 c -0.0423,5.02356 0,10.04711 -0.0776,15.07067 a 20.743333,20.743333 0 0 1 -1.31939,7.36953 c -1.41111,3.63008 -3.98639,5.334 -7.90222,5.27402 -3.79942,-0.06 -6.38881,-1.89794 -7.6835,-5.49275 -0.90664,-2.5153 -1.17123,-5.13644 -1.18534,-7.7858 -0.0317,-5.47511 -0.0282,-10.93611 -0.0423,-16.42534 a 6.9920554,6.9920554 0 0 0 -0.0635,-0.76905 c -0.2928,-2.3495 -0.62441,-2.74108 -2.86102,-3.28083 z"
         class="cls-95" />
      <path
         style="fill:#060606;stroke-width:0.35277775"
         inkscape:connector-curvature="0"
         id="path2421"
         d="m 603.46542,205.65683 c -0.16227,0.98425 -0.29633,1.78859 -0.43391,2.61409 h -1.3582 V 197.3842 c 0.84314,-0.25048 1.22061,-0.0741 1.45697,0.87488 a 35.754027,35.754027 0 0 0 1.8027,5.58095 c 0.85725,1.97555 2.60703,2.95628 4.15925,2.67053 1.44992,-0.26811 2.69875,-1.89442 2.97391,-3.90525 0.45862,-3.35845 -0.55386,-6.07484 -3.45722,-8.001 a 27.65072,27.65072 0 0 1 -3.00566,-2.26131 c -3.07623,-2.70228 -3.82764,-6.2865 -3.67948,-10.16 0.0882,-2.34244 0.51153,-4.61433 1.87325,-6.604 1.78506,-2.59997 5.00592,-3.41842 7.53534,-1.86972 a 15.949083,15.949083 0 0 1 1.82386,1.52047 l 0.41628,-1.67922 h 1.44285 v 9.36978 c -1.11477,0.32455 -1.14299,0.254 -1.44285,-0.80786 a 33.782,33.782 0 0 0 -1.3582,-4.0005 5.4186664,5.4186664 0 0 0 -1.32644,-1.76389 c -1.69686,-1.57692 -3.88056,-1.07598 -4.79072,1.05833 a 6.3993887,6.3993887 0 0 0 1.85561,7.33425 c 1.00541,0.80433 2.05669,1.55222 3.09033,2.31775 3.00214,2.22603 4.81541,5.13292 5.14702,8.90411 0.254,2.92453 0.127,5.79614 -1.10067,8.51958 a 7.665861,7.665861 0 0 1 -3.49249,3.88056 c -2.56822,1.31586 -5.34811,0.65969 -7.3413,-1.72508 -0.2152,-0.26811 -0.43745,-0.54328 -0.79023,-0.98073 z"
         class="cls-93" />
      <path
         style="fill:#050505;stroke-width:0.35277775"
         inkscape:connector-curvature="0"
         id="path2423"
         d="m 529.68901,175.36733 0.43744,-1.83797 h 1.39348 v 9.48267 h -1.15712 c -0.22577,-0.9137 -0.33513,-1.89089 -0.70555,-2.7552 -0.54328,-1.25588 -1.09714,-2.58233 -1.96497,-3.60538 -1.76389,-2.0567 -4.29684,-1.43581 -5.17878,1.12888 a 6.314722,6.314722 0 0 0 1.98967,6.97442 c 1.10066,0.889 2.2613,1.70392 3.39019,2.56117 a 11.768666,11.768666 0 0 1 4.80836,8.46666 c 0.30692,2.99156 0.22225,5.95137 -1.09714,8.69598 a 9.7084441,9.7084441 0 0 1 -2.34244,3.11855 c -2.57881,2.20839 -6.02192,1.83445 -8.26911,-0.70555 -0.31045,-0.35278 -0.58914,-0.73025 -0.98778,-1.22414 -0.14817,0.93486 -0.27517,1.71803 -0.41275,2.58233 h -1.41111 v -10.89378 l 1.18533,-0.0564 c 0.35278,1.41111 0.61031,2.82222 1.10067,4.16983 a 13.521972,13.521972 0 0 0 1.81328,3.5807 c 1.8168,2.35655 4.6108,1.92969 5.84552,-0.77611 1.34409,-2.94923 0.47978,-6.82273 -2.01436,-8.88295 a 19.819055,19.819055 0 0 0 -2.02494,-1.47814 c -4.0887,-2.6035 -5.74675,-6.42761 -5.64445,-11.14777 0.0494,-2.24367 0.35278,-4.43089 1.43228,-6.44172 1.85914,-3.49603 5.99722,-4.45206 8.78064,-2.032 0.34925,0.27163 0.62089,0.62794 1.03364,1.07597 z"
         class="cls-95" />
      <path
         style="fill:#060606;stroke-width:0.35277775"
         inkscape:connector-curvature="0"
         id="path2425"
         d="m 548.81662,206.61286 c 0,0.35278 0,0.68792 0,1.0407 0,0.21872 -0.0212,0.43744 -0.0353,0.6738 h -10.97139 v -1.73214 c 0.16934,-0.0282 0.381,-0.067 0.58914,-0.0953 1.36878,-0.17991 2.02847,-0.73377 2.24367,-2.11666 a 21.57236,21.57236 0 0 0 0.24341,-3.27025 q 0,-11.28889 -0.0388,-22.60248 c 0,-0.762 0.31045,-1.76388 -0.65264,-2.11666 -1.19591,-0.43745 -2.56469,-0.62089 -3.52777,0.45155 a 8.1350554,8.1350554 0 0 0 -1.54164,2.72345 c -0.41981,1.23472 -0.57856,2.56116 -0.86431,3.90878 h -1.18886 v -9.94481 h 20.23886 v 9.93069 h -1.20297 a 8.8194441,8.8194441 0 0 0 -0.22578,-1.53105 c -0.44803,-1.41111 -0.82197,-2.84339 -1.4852,-4.13808 -0.76905,-1.49225 -2.27541,-1.82034 -3.83116,-1.62631 -0.32103,0.0388 -0.76906,0.58914 -0.82198,0.9525 a 16.404166,16.404166 0 0 0 -0.0423,2.50119 q 0,10.91848 0,21.82989 c 0,0.61384 0.0212,1.22414 0.067,1.83445 0.17992,2.39889 0.66322,2.91747 3.048,3.32669 z"
         class="cls-93" />
      <path
         style="fill:#ee342b;stroke-width:0.35277775"
         inkscape:connector-curvature="0"
         id="path2427"
         d="m 421.06873,219.88083 c 3.9617,-0.64205 7.90575,-1.45697 11.89214,-1.89089 a 82.73697,82.73697 0 0 1 20.97969,0.51506 78.002694,78.002694 0 0 1 30.40239,11.14778 c 0.26106,0.16227 0.58209,0.52211 0.5715,0.77611 -0.06,1.53105 -0.21166,3.05858 -0.35277,4.7378 -0.38806,-0.25753 -0.67734,-0.43039 -0.9525,-0.63147 a 80.19697,80.19697 0 0 0 -36.29025,-14.7708 81.572804,81.572804 0 0 0 -23.28334,0.067 c -0.4445,0.0635 -0.89252,0.10936 -1.34055,0.16581 l -0.47625,0.0811 -0.68792,0.10583 z"
         class="cls-98" />
      <path
         style="fill:#0a0a0a;stroke-width:0.35277775"
         inkscape:connector-curvature="0"
         id="path2429"
         d="m 599.35203,214.04589 3.3655,-0.35278 c 0.0529,0.39511 0.0988,0.75142 0.14817,1.12889 2.91042,-1.2453 2.97392,-1.23825 4.55083,0.58561 0.14464,-0.16933 0.28928,-0.32808 0.41981,-0.49741 1.45697,-1.82739 3.58069,-1.79917 4.58611,0.27163 a 20.298833,20.298833 0 0 1 1.50989,5.03414 c 0.35278,1.72861 0.35278,3.52778 0.5715,5.29167 0.0811,0.70555 -0.12347,1.53105 0.74788,2.00377 0.20814,0.11289 0.23636,0.56445 0.38453,0.96309 l -3.52777,0.75847 c 0.11641,-0.65969 0.21166,-1.16769 0.29633,-1.67569 a 1.7815277,1.7815277 0 0 0 0.0353,-0.47273 c -0.39158,-3.02683 -0.75847,-6.05719 -1.21003,-9.07344 -0.0988,-0.65969 -0.51858,-1.27 -0.79375,-1.91205 -1.05833,0.52564 -1.83091,2.18369 -1.67216,3.35491 0.26811,1.94381 0.50447,3.88056 0.84666,5.82789 0.12347,0.70555 0.52211,1.34408 0.77611,2.01789 a 3.266722,3.266722 0 0 1 0.0882,0.635 l -4.00755,0.2293 c 0.33514,-0.75847 0.59972,-1.3335 0.83961,-1.91558 a 1.0265833,1.0265833 0 0 0 0.0917,-0.53622 c -0.43392,-2.53295 -0.86078,-5.06942 -1.34761,-7.59178 -0.10936,-0.57503 -0.43745,-1.10772 -0.79022,-1.9685 -0.54681,0.68792 -1.13242,1.11478 -1.25942,1.651 a 19.755555,19.755555 0 0 0 -0.68086,4.42736 c 0,1.62631 0.35278,3.25967 0.55386,4.95653 0.93133,-0.0177 1.05833,0.56797 0.94897,1.39347 l -3.59833,1.05833 c 0.15875,-0.88194 0.33161,-1.53811 0.381,-2.20486 a 8.1138887,8.1138887 0 0 0 -0.14817,-1.53105 c -0.35278,-2.93864 -0.70555,-5.87728 -1.05833,-8.81945 -0.067,-0.49741 0.0423,-1.05833 -0.64911,-1.4111 -0.32103,-0.14817 -0.26811,-1.00189 -0.39864,-1.62631 z"
         class="cls-99" />
      <path
         style="fill:#080808;stroke-width:0.35277775"
         inkscape:connector-curvature="0"
         id="path2431"
         d="m 554.94084,227.45144 -6.27944,0.70556 c 0.47625,1.54516 0.84314,3.0233 1.41111,4.4203 0.17991,0.4445 0.90311,0.67381 1.37583,1.00189 a 9.7507774,9.7507774 0 0 0 0.73025,-1.36172 5.4151387,5.4151387 0 0 0 0.1517,-1.22767 c -1.25237,-0.28575 -0.84314,-1.38994 -1.32292,-2.25425 l 4.23333,0.39511 c -0.56797,1.97203 -0.91722,3.91231 -1.68628,5.66562 -0.67733,1.54516 -2.91747,1.72861 -4.23333,0.44097 a 7.221361,7.221361 0 0 1 -1.65453,-2.55059 19.438055,19.438055 0 0 1 -0.81139,-10.81969 6.0536664,6.0536664 0 0 1 0.73025,-1.86972 c 1.03717,-1.7392 3.175,-1.96145 4.58612,-0.51506 a 5.0835277,5.0835277 0 0 1 0.80786,1.05834 c 1.19944,2.14841 1.651,4.46616 1.96144,6.91091 z m -2.14842,-1.76389 c -0.635,-1.41111 -1.16416,-2.71638 -1.79211,-3.95816 -0.15522,-0.31397 -0.6738,-0.70556 -0.9278,-0.64559 a 1.36525,1.36525 0 0 0 -0.85725,0.87489 c -0.31045,1.50989 -0.49742,3.04447 -0.75142,4.71664 z"
         class="cls-100" />
      <path
         style="fill:#ee342b;stroke-width:0.35277775"
         inkscape:connector-curvature="0"
         id="path2433"
         d="m 508.35654,229.00719 a 9.1334164,9.1334164 0 0 1 1.53105,-5.17172 c 1.05834,-1.64394 3.30553,-1.71097 4.7872,-0.25047 1.20297,1.1818 1.71802,2.68816 1.92969,4.32153 0.35278,2.64936 0.64911,5.29166 1.03364,7.94808 a 23.367999,23.367999 0 0 0 0.65264,2.43064 3.6618333,3.6618333 0 0 1 0,0.7373 c -0.88195,0 -1.70745,0.0317 -2.52942,-0.0212 a 0.7761111,0.7761111 0 0 1 -0.51858,-0.49389 9.2851108,9.2851108 0 0 1 -0.14111,-1.43581 c -2.23309,0.8502 -4.30389,0.76906 -5.69031,-1.41111 a 3.443111,3.443111 0 0 1 0.19756,-4.08164 c 1.20297,-1.62983 2.86808,-1.92264 4.82247,-1.47461 a 8.3220277,8.3220277 0 0 0 -0.68439,-4.01461 c -0.27869,-0.65264 -0.72672,-1.17475 -1.5628,-0.96308 -0.58914,0.15169 -1.17123,1.21355 -1.05834,1.89441 0.24342,1.56986 0.24695,1.57692 -1.28411,1.82386 -0.46214,0.0741 -0.93133,0.10584 -1.48519,0.16228 z m 4.23333,6.10306 c 1.05833,0 2.13783,-0.48684 2.32833,-1.11125 a 1.1676944,1.1676944 0 0 0 -0.14816,-0.96661 c -0.64911,-0.70556 -1.50989,-0.77964 -2.40595,-0.55739 -1.03716,0.25753 -1.74625,0.90664 -1.59103,1.52753 0.24342,1.00541 1.15712,0.95955 1.81328,1.10772 z m 2.76931,1.85914 c -0.0212,-0.0177 -0.0459,-0.0564 -0.067,-0.0564 -0.0212,0 -0.0459,0.0423 -0.067,0.0635 l 0.0988,0.067 z"
         class="cls-98" />
      <path
         style="fill:#080808;stroke-width:0.35277775"
         inkscape:connector-curvature="0"
         id="path2435"
         d="m 589.74237,223.05583 -6.24064,0.70556 c 0.35278,1.36525 0.65969,2.63877 1.05833,3.88055 a 3.2561387,3.2561387 0 0 0 0.8502,1.25942 c 0.57502,0.5468 1.19591,0.38805 1.38994,-0.37395 0.19403,-0.762 0.60325,-1.57691 -0.0917,-2.42358 -0.28575,-0.35278 -0.15875,-1.04069 -0.23283,-1.67569 l 3.40783,0.27516 c -0.25047,1.23473 -0.4692,2.40948 -0.73025,3.57364 a 8.6712777,8.6712777 0 0 1 -0.49389,1.65453 c -0.74789,1.69686 -2.64936,2.27894 -4.16278,1.18533 a 4.7236944,4.7236944 0 0 1 -1.58397,-1.87677 23.530277,23.530277 0 0 1 -1.31233,-4.30742 17.854083,17.854083 0 0 1 0.0882,-7.56003 6.0501387,6.0501387 0 0 1 0.56444,-1.53105 c 1.09714,-2.07433 3.52778,-2.3107 4.99886,-0.47272 1.34409,1.6898 1.76389,3.75708 2.19075,5.79966 0.13406,0.59267 0.1905,1.19592 0.29986,1.88736 z m -6.48406,-0.77258 4.29331,-0.99836 c -0.58914,-1.36525 -1.0795,-2.63878 -1.69686,-3.84881 -0.17992,-0.35278 -0.75142,-0.79727 -1.05834,-0.74083 -0.30691,0.0564 -0.77964,0.60678 -0.86077,1.00894 -0.29281,1.43228 -0.44098,2.89278 -0.67734,4.57906 z"
         class="cls-100" />
      <path
         style="fill:#0a0a0a;stroke-width:0.35277775"
         inkscape:connector-curvature="0"
         id="path2437"
         d="m 596.59684,221.48597 c -0.40922,-1.51342 -0.68792,-2.78694 -1.10772,-4.01108 -0.2152,-0.63147 -0.73731,-1.09361 -1.524,-0.77964 a 1.6756944,1.6756944 0 0 0 -0.78317,2.01789 c 0.27164,0.61736 0.18697,1.03011 -0.56092,1.12889 l -2.46944,0.35277 c 0.16228,-0.74788 -0.35278,-1.56986 0.61736,-2.01083 0.10231,-0.0459 0.0529,-0.37042 0.11995,-0.5468 a 11.394722,11.394722 0 0 1 0.86783,-2.11667 c 0.99483,-1.55222 2.90336,-1.82033 4.37444,-0.65617 1.30881,1.03012 1.95792,2.46945 2.20134,4.064 0.40922,2.70581 0.762,5.41867 1.17827,8.11389 0.0494,0.30692 0.38806,0.55386 0.52212,0.86078 0.1905,0.44803 0.3175,0.92428 0.52563,1.54869 l -3.36902,0.38806 c -0.0529,-0.56797 -0.0988,-1.03717 -0.1517,-1.58397 -1.99672,0.84313 -3.84175,0.79375 -5.29166,-0.94192 a 3.316111,3.316111 0 0 1 -0.35278,-3.88056 c 1.04069,-1.94733 2.79047,-2.413 5.20347,-1.94733 z m -1.62631,2.11667 a 10.392833,10.392833 0 0 0 -1.76388,0.80433 c -0.66675,0.45156 -0.54681,1.23472 0.15522,1.63689 a 3.0233054,3.0233054 0 0 0 3.15736,-0.35278 c 0.59267,-0.55033 0.53269,-1.28411 -0.17992,-1.651 a 8.7735831,8.7735831 0 0 0 -1.36878,-0.43744 z"
         class="cls-99" />
      <path
         style="fill:#ee352b;stroke-width:0.35277775"
         inkscape:connector-curvature="0"
         id="path2439"
         d="m 508.13076,234.77864 c -0.32103,1.65805 -0.48683,3.28083 -1.34408,4.66019 -0.80081,1.29117 -2.92806,1.41111 -4.09575,0.254 a 6.395861,6.395861 0 0 1 -1.44639,-2.24014 16.732249,16.732249 0 0 1 -0.60325,-9.59555 5.1787777,5.1787777 0 0 1 0.45861,-1.26648 c 1.08655,-2.11666 3.56305,-2.29658 4.93889,-0.35277 1.13241,1.59455 1.45697,3.48191 1.79916,5.35164 0.0847,0.46919 0.12348,0.94544 0.19403,1.49577 l -5.40808,0.53975 c 0.40216,1.28059 0.70555,2.46945 1.17122,3.60186 0.10231,0.26459 0.64206,0.35278 0.98072,0.52917 a 3.6724167,3.6724167 0 0 0 0.14817,-1.1183 c -0.13406,-0.70556 -0.38806,-1.41112 -0.65617,-2.3495 z m -5.64445,-2.98803 3.04095,-0.68439 c -0.42686,-1.05833 -0.75847,-1.95439 -1.16417,-2.82222 -0.13405,-0.28575 -0.46919,-0.47978 -0.70555,-0.70556 -0.21873,0.29281 -0.55739,0.55739 -0.62795,0.88195 -0.23636,1.02658 -0.35278,2.06022 -0.5468,3.33022 z"
         class="cls-101" />
      <path
         style="fill:#0a0a0a;stroke-width:0.35277775"
         inkscape:connector-curvature="0"
         id="path2441"
         d="m 569.25656,231.38491 c -0.75847,1.56987 -1.72508,2.79753 -3.0868,3.60187 -1.25236,0.74083 -2.75872,0.28222 -3.88056,-1.00542 a 10.865555,10.865555 0 0 1 -2.30364,-4.93889 c -0.5468,-2.48708 -0.63852,-4.97064 0.0706,-7.44008 a 8.1844444,8.1844444 0 0 1 0.78317,-1.85561 c 1.23825,-2.09198 3.70064,-2.34245 5.36575,-0.56092 a 4.4485277,4.4485277 0 0 1 0.85019,1.16064 c 0.84667,1.88736 1.64042,3.79942 2.49061,5.78555 l -3.77472,1.18181 c 0.35278,-0.89606 -0.43744,-1.82033 0.64559,-2.36361 0.0564,-0.0282 0.0317,-0.32103 -0.0317,-0.45861 -0.49742,-1.10772 -0.90312,-2.27542 -1.5487,-3.29142 -0.70555,-1.12889 -1.66511,-1.00189 -2.27894,0.21167 -0.94545,1.85914 -0.92075,3.85233 -0.65617,5.85258 0.24694,1.83797 0.72672,3.60539 2.02847,5.02003 0.70556,0.76905 1.41111,0.72319 1.88031,-0.11289 0.0917,-0.16228 0,-0.43039 0,-0.64911 0,-0.21872 -0.10936,-0.4692 -0.0212,-0.56092 a 0.83608331,0.83608331 0 0 1 0.62794,-0.2293 c 0.89606,0.1658 1.76389,0.40216 2.83986,0.65263 z"
         class="cls-99" />
      <path
         style="fill:#090909;stroke-width:0.35277775"
         inkscape:connector-curvature="0"
         id="path2443"
         d="m 546.27662,229.16947 -3.44311,0.57856 c 0.0811,-0.61384 0.15169,-1.143 0.21872,-1.6757 0.0212,-0.17286 0.0988,-0.37747 0.0388,-0.52211 -0.45861,-1.08656 -0.82903,-2.23661 -1.44639,-3.22792 -0.79375,-1.26647 -1.81328,-1.13241 -2.44475,0.22578 -0.9525,2.04611 -0.96661,4.21217 -0.45861,6.32883 a 18.637249,18.637249 0 0 0 1.64747,4.064 1.8238611,1.8238611 0 0 0 1.44639,0.77964 c 0.59267,-0.0459 0.98778,-0.61383 0.78317,-1.36877 -0.0459,-0.16228 0.1658,-0.39159 0.27869,-0.63148 l 2.94217,0.70556 c -0.74084,1.4358 -1.56634,2.65642 -2.82222,3.47133 a 2.744611,2.744611 0 0 1 -3.46781,-0.47625 10.410472,10.410472 0 0 1 -2.04611,-2.9845 14.63675,14.63675 0 0 1 -0.63853,-10.08239 7.2495831,7.2495831 0 0 1 0.83256,-1.82738 c 1.19591,-1.83798 3.38666,-2.08492 4.97416,-0.57856 a 4.7977777,4.7977777 0 0 1 1.07598,1.34761 c 0.85725,1.89794 1.64747,3.81353 2.52941,5.87375 z"
         class="cls-102" />
      <path
         style="fill:#ee332a;stroke-width:0.35277775"
         inkscape:connector-curvature="0"
         id="path2445"
         d="m 519.5784,241.44261 c 0.10583,-1.08303 0.25753,-1.9685 0.26105,-2.85397 a 24.645055,24.645055 0 0 0 -0.21872,-2.68817 c -0.59267,-5.64444 -1.17828,-11.32064 -1.80269,-16.97567 -0.0776,-0.70555 -0.38453,-1.41111 -0.53975,-2.11666 -0.11995,-0.53975 0.13758,-0.8255 0.70555,-0.91722 0.8502,-0.14464 1.68981,-0.35278 2.70581,-0.55739 0,0.81492 0,1.52047 0,2.22602 0,0.22225 -0.0565,0.4445 -0.0353,0.66323 0.68439,6.62163 1.36525,13.23975 2.08492,19.85786 0.0564,0.53975 0.44802,1.04069 0.52563,1.58044 a 0.98424997,0.98424997 0 0 1 -0.47625,0.81492 c -0.94544,0.36336 -1.91205,0.59266 -3.21027,0.96661 z"
         class="cls-103" />
      <path
         style="fill:#090909;stroke-width:0.35277775"
         inkscape:connector-curvature="0"
         id="path2447"
         d="m 568.5369,217.18914 3.92289,-0.88547 c -0.0388,0.51858 -0.0741,0.96661 -0.12348,1.5875 a 7.507111,7.507111 0 0 1 0.81845,-0.52212 13.758333,13.758333 0 0 1 2.46944,-1.0301 c 1.25589,-0.29634 2.25425,0.26458 2.95628,1.34408 a 1.8168055,1.8168055 0 0 1 0.23283,0.4198 c 0.51506,1.6757 1.01953,3.35492 1.60161,5.2705 l -3.75708,-0.30691 c 0.27869,-0.56092 0.68086,-0.99131 0.65617,-1.41112 a 7.9304444,7.9304444 0 0 0 -0.5327,-2.54352 c -0.25047,-0.62089 -0.91369,-0.43745 -1.44639,-0.22931 -1.59808,0.62795 -3.175,3.24203 -3.05505,5.23522 0.15522,2.40595 0.40922,4.80836 0.62794,7.21078 0,0.18697 0.0494,0.50094 0.14817,0.53269 1.12536,0.37042 0.35278,1.17475 0.32456,1.73214 0,0.19756 -0.74437,0.39864 -1.17123,0.51153 a 15.285861,15.285861 0 0 1 -1.60866,0.254 c -0.0423,-0.70555 -0.77964,-1.39347 0.15169,-2.05317 0.0952,-0.0705 0,-0.42333 -0.0212,-0.64558 -0.35278,-4.0393 -0.70555,-8.07861 -1.0795,-12.11439 -0.0317,-0.31044 -0.33161,-0.58914 -0.47625,-0.89605 -0.22225,-0.45156 -0.41275,-0.89959 -0.63853,-1.4605 z"
         class="cls-102" />
      <path
         style="fill:#ee342b;stroke-width:0.35277775"
         inkscape:connector-curvature="0"
         id="path2449"
         d="m 499.56531,232.0058 c -1.19944,-0.06 -2.02847,-0.0953 -2.8575,-0.14111 a 4.7836667,4.7836667 0 0 1 -0.52916,-0.10583 c 0.0564,-0.35278 0,-0.74436 0.18344,-0.9525 0.62795,-0.75142 0.3175,-1.50989 0.0917,-2.25778 -0.35278,-1.16417 -0.98778,-1.45344 -2.04258,-0.80786 a 5.4998054,5.4998054 0 0 0 -2.77283,4.99533 c 0.0494,2.46945 0.39511,4.93889 0.58208,7.40834 0.0459,0.56797 0.90311,0.70555 0.61736,1.50283 -0.20814,0.59267 -0.25753,1.05833 -1.03364,1.09361 a 11.966222,11.966222 0 0 0 -1.71803,0.29633 c -0.38452,-5.75733 -0.35277,-11.48644 -1.85561,-17.19791 l 3.23497,-0.74789 c -0.0353,0.64205 -0.067,1.20297 -0.10936,1.96144 0.29634,-0.254 0.48331,-0.39158 0.64206,-0.55386 a 4.8789167,4.8789167 0 0 1 2.95628,-1.48872 2.695222,2.695222 0 0 1 2.71286,1.09008 4.758972,4.758972 0 0 1 0.75847,1.44286 c 0.40569,1.40759 0.73025,2.83987 1.13947,4.46264 z m -8.08566,-4.89302 c -0.0882,-0.067 -0.15875,-0.15523 -0.20109,-0.14464 -0.0423,0.0106 -0.12347,0.1023 -0.18344,0.15875 0.0529,0.0529 0.10936,0.15522 0.15169,0.14816 0.0423,-0.007 0.13406,-0.0882 0.23284,-0.16227 z"
         class="cls-98" />
      <path
         style="fill:#070707;stroke-width:0.35277775"
         inkscape:connector-curvature="0"
         id="path2451"
         d="m 594.64245,187.7075 a 2.4165277,2.4165277 0 0 1 0.58208,-2.26836 18.062222,18.062222 0 0 0 2.00731,-3.24556 c 0.21167,-0.41275 0.13758,-1.00188 0.0988,-1.50636 -0.0459,-0.58914 -0.3175,-0.87841 -1.03011,-0.7373 -0.96308,0.1905 -1.69333,-0.27164 -2.01083,-1.23825 a 7.856361,7.856361 0 0 1 0.10936,-5.37986 2.1519444,2.1519444 0 0 1 3.85586,-0.44803 c 3.27378,5.1435 1.45697,11.938 -3.27025,14.7073 a 2.1554722,2.1554722 0 0 1 -0.3422,0.11642 z"
         class="cls-104" />
      <path
         style="fill:#0c0c0c;stroke-width:0.35277775"
         inkscape:connector-curvature="0"
         id="path2453"
         d="m 537.21729,237.51619 -3.33728,0.44803 c 0.0247,-0.77964 -0.59267,-1.46403 0.15522,-2.11667 0.0741,-0.0635 0,-0.30691 0,-0.46566 -0.40922,-3.175 -0.8008,-6.38881 -1.2453,-9.57439 -0.067,-0.49389 -0.41628,-0.94545 -0.53623,-1.43934 -0.11994,-0.49388 0.10231,-0.82902 0.70556,-0.88547 a 15.391694,15.391694 0 0 0 1.68275,-0.35277 c 0.0564,0.27516 0.11994,0.51152 0.15169,0.74788 0.49389,3.73592 0.94898,7.47184 1.49931,11.19717 0.0917,0.79022 0.55033,1.51342 0.92428,2.44122 z"
         class="cls-105" />
      <path
         style="fill:#ee372e;stroke-width:0.35277775"
         inkscape:connector-curvature="0"
         id="path2455"
         d="m 535.4287,219.70444 a 2.7728333,2.7728333 0 0 1 -2.78341,2.73403 2.7623942,2.7623942 0 0 1 0.0564,-5.5245 2.7728333,2.7728333 0 0 1 2.72697,2.79047 z m -3.58069,-1.54869 c -0.79728,0.1023 -1.12536,0.66675 -1.19592,1.36172 -0.0247,0.22578 0.26459,0.48331 0.41275,0.72672 0.17992,-0.19402 0.45509,-0.35277 0.51859,-0.59266 a 11.916833,11.916833 0 0 0 0.24341,-1.50989 0.30338887,0.30338887 0 0 0 0.0776,-0.0529 c 0,0 0,-0.0353 0,-0.0529 z"
         class="cls-106" />
      <path
         style="fill:#303030;stroke-width:0.35277775"
         inkscape:connector-curvature="0"
         id="path2457"
         d="m 621.15369,204.53853 a 1.8520833,1.8520833 0 1 1 -1.80975,-1.85914 1.8273888,1.8273888 0 0 1 1.80975,1.85914 z m -2.64583,1.44286 h 1.41111 c -0.16933,-0.49036 -0.28222,-0.81492 -0.40216,-1.17122 l -0.81492,0.0423 c -0.067,0.36689 -0.11642,0.66675 -0.19756,1.12889 z m 1.51342,-0.49742 0.35278,0.10584 c 0.14463,-0.38806 0.40216,-0.78317 0.39511,-1.17123 -0.007,-0.38805 -0.31045,-0.6738 -0.47978,-1.01247 l -0.25047,0.12347 z"
         class="cls-107" />
      <path
         style="fill:#676767;stroke-width:0.35277775"
         inkscape:connector-curvature="0"
         id="path2459"
         d="m 618.90297,224.54808 c 1.44639,-0.49741 1.67217,-0.39511 2.14136,0.77611 l 0.78317,-1.23472 v 2.06375 h -1.63689 c -0.0247,-0.37747 -0.06,-0.89958 -0.0952,-1.43228 z"
         class="cls-108" />
      <path
         style="fill:#f37872;stroke-width:0.35277775"
         inkscape:connector-curvature="0"
         id="path2461"
         d="m 421.06873,219.88083 0.47625,0.30339 -4.85069,1.05833 -0.0776,-0.32102 z"
         class="cls-109" />
      <path
         style="fill:#303030;stroke-width:0.35277775"
         inkscape:connector-curvature="0"
         id="path2463"
         d="m 528.48956,214.80083 1.68628,1.51695 -1.05833,0.65616 c -0.28928,-0.70555 -0.55386,-1.3723 -0.82197,-2.02847 z"
         class="cls-107" />
      <path
         style="fill:#303030;stroke-width:0.35277775"
         inkscape:connector-curvature="0"
         id="path2465"
         d="m 529.11045,221.20728 -2.00377,0.70555 -0.10937,-0.15169 1.50989,-1.63689 z"
         class="cls-107" />
      <path
         style="fill:#0c0c0c;stroke-width:0.35277775"
         inkscape:connector-curvature="0"
         id="path2467"
         d="m 526.58809,217.94761 h 2.3107 c -0.0776,0.29986 -0.1517,0.58914 -0.26459,1.01247 z"
         class="cls-105" />
      <path
         style="fill:#f37872;stroke-width:0.35277775"
         inkscape:connector-curvature="0"
         id="path2469"
         d="m 422.2329,220.07839 0.47625,-0.0811 z"
         class="cls-109" />
    </g>
  </g>
</svg>
