<?xml version="1.0" encoding="UTF-8" standalone="no"?>
<!-- Created with Inkscape (http://www.inkscape.org/) -->

<svg
   xmlns:dc="http://purl.org/dc/elements/1.1/"
   xmlns:cc="http://creativecommons.org/ns#"
   xmlns:rdf="http://www.w3.org/1999/02/22-rdf-syntax-ns#"
   xmlns:svg="http://www.w3.org/2000/svg"
   xmlns="http://www.w3.org/2000/svg"
   xmlns:sodipodi="http://sodipodi.sourceforge.net/DTD/sodipodi-0.dtd"
   xmlns:inkscape="http://www.inkscape.org/namespaces/inkscape"
   id="svg2"
   version="1.1"
   inkscape:version="0.91 r13725"
   width="630"
   height="648.75"
   viewBox="0 0 630 648.75"
   sodipodi:docname="Cooler_Master_Logo_Slogan_Middle.svg">
  <metadata
     id="metadata8">
    <rdf:RDF>
      <cc:Work
         rdf:about="">
        <dc:format>image/svg+xml</dc:format>
        <dc:type
           rdf:resource="http://purl.org/dc/dcmitype/StillImage" />
        <dc:title></dc:title>
      </cc:Work>
    </rdf:RDF>
  </metadata>
  <defs
     id="defs6" />
  <sodipodi:namedview
     pagecolor="#ffffff"
     bordercolor="#666666"
     borderopacity="1"
     objecttolerance="10"
     gridtolerance="10"
     guidetolerance="10"
     inkscape:pageopacity="0"
     inkscape:pageshadow="2"
     inkscape:window-width="1920"
     inkscape:window-height="1017"
     id="namedview4"
     showgrid="false"
     inkscape:zoom="2.0578306"
     inkscape:cx="291.1753"
     inkscape:cy="350.48371"
     inkscape:window-x="-8"
     inkscape:window-y="-8"
     inkscape:window-maximized="1"
     inkscape:current-layer="svg2" />
  <path
     style="fill:#000000"
     d="m 189.06885,509.1654 c -7.1043,-5.99934 -2.87986,-15.4154 6.916,-15.4154 5.60145,0 7.06666,-0.9543 5.10125,-3.32249 -1.61369,-1.94437 -7.3361,-2.27785 -7.3361,-0.42751 0,0.6875 -1.44189,1.25 -3.2042,1.25 -2.862,0 -3.16236,-0.43385 -2.8125,-4.0625 l 0.3917,-4.0625 8.58476,-0.37298 C 208.40956,482.24373 210,483.73261 210,495.19374 c 0,6.77224 0.39095,8.55626 1.875,8.55626 1.17875,0 1.875,1.18915 1.875,3.20236 0,3.0807 -0.2731,3.1973 -7.1875,3.06878 -3.95313,-0.0735 -8.89612,0.21926 -10.98445,0.65053 -2.71931,0.56158 -4.56671,0.13408 -6.5092,-1.50627 z m 11.01332,-5.45938 c 3.81528,-2.04187 3.00889,-4.95602 -1.3714,-4.95602 -4.17626,0 -6.47272,3.27561 -3.58042,5.10701 2.19427,1.38941 2.06626,1.39331 4.95182,-0.15099 z m 56.57876,5.72178 C 251.6618,507.25321 250,504.15666 250,497.01599 250,486.25834 253.84246,482.5 264.84092,482.5 c 7.80405,0 11.40908,3.48148 11.40908,11.01806 l 0,5.23194 -8.75,0 c -4.8125,0 -8.75,0.45 -8.75,1 0,2.52651 3.54557,4 9.625,4 6.14687,0 6.625,0.21501 6.625,2.97921 0,2.03289 -0.89336,3.21863 -2.8125,3.73293 -4.63773,1.24286 -11.31399,0.79811 -15.52657,-1.03434 z M 267.5,491.1708 c 0,-2.15575 -0.6653,-2.51489 -4.05226,-2.1875 -2.66881,0.25798 -4.19374,1.13851 -4.46665,2.5792 -0.332,1.75252 0.47377,2.1875 4.05226,2.1875 3.67904,0 4.46665,-0.4548 4.46665,-2.5792 z m 44.02814,18.13332 c -2.44774,-1.71446 -2.77814,-3.05241 -2.77814,-11.25 0,-7.437 -0.37627,-9.30412 -1.875,-9.30412 -1.16666,0 -1.875,-1.18055 -1.875,-3.125 0,-1.88009 0.71386,-3.125 1.79197,-3.125 1.02567,0 1.96112,-1.47 2.1875,-3.4375 0.32958,-2.86431 1.07293,-3.50281 4.45803,-3.8292 3.78447,-0.36489 4.0625,-0.12964 4.0625,3.4375 0,3.25115 0.47175,3.8292 3.125,3.8292 2.5,0 3.125,0.625 3.125,3.125 0,2.5 -0.625,3.125 -3.125,3.125 -2.98611,0 -3.125,0.33334 -3.125,7.5 0,4.125 0.5625,7.57031 1.25,7.65625 0.6875,0.086 1.95312,0.22656 2.8125,0.3125 0.85937,0.086 1.74049,1.70312 1.95803,3.59375 0.37078,3.22241 0.0949,3.4375 -4.40937,3.4375 -2.6427,0 -6.05506,-0.87565 -7.58302,-1.94588 z m 65.16811,0.77322 C 372.05532,508.08874 370,503.74181 370,495.91505 370,485.93452 373.27451,482.5 382.79005,482.5 c 8.15605,0 11.65557,2.2346 13.58506,8.67465 3.11456,10.39551 -1.82889,18.73385 -11.60977,19.58271 -2.96469,0.25729 -6.59578,-0.0487 -8.06909,-0.68002 z m 10.87419,-8.95896 c 2.01297,-3.76127 0.4158,-10.79559 -2.67385,-11.77621 -3.85087,-1.22221 -6.14659,1.57063 -6.14659,7.47755 0,2.89499 0.375,5.63862 0.83334,6.09694 1.80721,1.80723 6.6398,0.71916 7.9871,-1.79828 z M 405,508.75 c -1.9786,-1.9786 -2.5,-4.16666 -2.5,-10.49126 0,-5.95024 -0.47889,-8.17504 -1.875,-8.71078 -1.03125,-0.39572 -1.875,-2.1434 -1.875,-3.88374 0,-2.96373 0.396,-3.16422 6.25,-3.16422 l 6.25,0 0,10.7042 0,10.7042 4.0625,-0.3917 c 3.96166,-0.38198 4.07187,-0.55459 4.44032,-6.9542 0.30287,-5.26046 -0.007,-6.5625 -1.5625,-6.5625 -1.32258,0 -1.94032,-1.19389 -1.94032,-3.75 0,-3.61111 0.20834,-3.75 5.625,-3.75 l 5.625,0 0,10.625 c 0,8.61111 0.35539,10.625 1.875,10.625 1.16666,0 1.875,1.18055 1.875,3.125 0,2.87037 -0.45834,3.125 -5.625,3.125 -3.09375,0 -5.625,-0.57695 -5.625,-1.2821 0,-0.73491 -1.57399,-0.46816 -3.68792,0.625 -4.97794,2.5742 -8.32016,2.39902 -11.31208,-0.5929 z m 54.0625,1.61784 c -2.26481,-0.43623 -2.8125,-1.37674 -2.8125,-4.82978 0,-3.7406 0.39897,-4.28806 3.125,-4.28806 1.71875,0 3.125,0.4969 3.125,1.10421 0,1.85454 5.24675,2.60169 7.98371,1.13691 2.32701,-1.24537 1.91434,-1.59737 -4.21543,-3.59566 C 458.7033,497.4293 456.25,494.95463 456.25,489.7899 c 0,-5.40825 4.29429,-7.48389 14.5597,-7.03742 l 8.5653,0.37252 0.3917,4.0625 c 0.36489,3.78447 0.12964,4.0625 -3.4375,4.0625 -2.10606,0 -3.8292,-0.5625 -3.8292,-1.25 0,-0.6875 -1.73438,-1.25 -3.85416,-1.25 -5.42064,0 -4.04984,2.54524 2.3958,4.4484 2.90817,0.85869 6.11351,2.2467 7.12297,3.08447 1.9144,1.58882 2.46777,8.33773 0.87875,10.71751 -2.47965,3.71359 -10.8551,5.12516 -19.98086,3.36746 z M 137.5,506.875 c 0,-1.71875 0.5625,-3.125 1.25,-3.125 0.74561,0 1.25,-4.79166 1.25,-11.875 0,-7.08334 -0.50439,-11.875 -1.25,-11.875 -0.6875,0 -1.25,-1.71558 -1.25,-3.81237 l 0,-3.81239 7.13939,0.37489 7.13938,0.37487 4.33245,10.96566 c 2.38285,6.03112 4.71358,10.53112 5.17939,10 0.46583,-0.53111 2.46571,-5.60629 4.44423,-11.27816 l 3.59727,-10.3125 6.58394,0 c 6.48216,0 6.58395,0.058 6.58395,3.75 0,2.0625 -0.5625,3.75 -1.25,3.75 -0.74561,0 -1.25,4.79166 -1.25,11.875 0,7.08334 0.50439,11.875 1.25,11.875 0.6875,0 1.25,1.40625 1.25,3.125 0,2.95455 -0.375,3.125 -6.875,3.125 -6.43679,0 -6.875,-0.19255 -6.875,-3.02084 0,-1.66145 0.59639,-3.21962 1.32529,-3.46259 0.78447,-0.26149 1.16705,-3.23706 0.9375,-7.29167 l -0.38779,-6.8499 -3.60068,10.37979 c -3.35017,9.65765 -3.82468,10.35335 -6.82069,10 -2.75204,-0.32459 -3.73657,-1.73623 -6.77421,-9.713 -1.9548,-5.13328 -3.80736,-9.5864 -4.11681,-9.89584 -0.30944,-0.30944 -0.56261,2.62489 -0.56261,6.52071 0,5.46297 0.42892,7.08334 1.875,7.08334 1.16666,0 1.875,1.18055 1.875,3.125 0,2.98611 -0.33334,3.125 -7.5,3.125 -7.16666,0 -7.5,-0.13889 -7.5,-3.125 z m 77.5,0 c 0,-1.94445 0.70834,-3.125 1.875,-3.125 1.54031,0 1.875,-2.20736 1.875,-12.36626 0,-9.83913 -0.38318,-12.5133 -1.875,-13.08578 -1.03125,-0.39572 -1.875,-2.1434 -1.875,-3.88374 0,-2.91686 0.43974,-3.16422 5.625,-3.16422 l 5.625,0 0,12.02746 0,12.02746 2.8125,-1.85741 c 1.88412,-1.2443 2.94056,-3.35769 3.20046,-6.40246 l 0.38795,-4.54505 7.42455,0 c 7.04832,0 7.42454,0.15539 7.42454,3.06635 0,2.27564 -1.12819,3.60171 -4.375,5.14242 -2.40625,1.14186 -4.375,2.30531 -4.375,2.58545 0,1.3063 6.70834,10.45578 7.66611,10.45578 0.59614,0 1.08389,1.40625 1.08389,3.125 0,2.99352 -0.32242,3.125 -7.66355,3.125 l -7.66355,0 0.67665,-4.16978 c 0.92141,-5.67796 -0.47298,-7.77111 -3.94059,-5.9153 -3.0743,1.64532 -3.52194,3.83508 -0.78396,3.83508 1.16666,0 1.875,1.18055 1.875,3.125 0,2.98611 -0.33334,3.125 -7.5,3.125 -7.16666,0 -7.5,-0.13889 -7.5,-3.125 z m 73.75,0 c 0,-1.94445 0.70834,-3.125 1.875,-3.125 1.53359,0 1.875,-2.13791 1.875,-11.74126 0,-9.28357 -0.39248,-11.89188 -1.875,-12.46078 -1.03125,-0.39572 -1.875,-2.1434 -1.875,-3.88374 0,-3.03405 0.30854,-3.16422 7.5,-3.16422 7.5,0 7.5,0 7.5,3.75 0,2.0625 -0.5625,3.75 -1.25,3.75 -0.74561,0 -1.25,4.79166 -1.25,11.875 0,7.08334 0.50439,11.875 1.25,11.875 0.6875,0 1.25,1.40625 1.25,3.125 0,2.98611 -0.33334,3.125 -7.5,3.125 -7.16666,0 -7.5,-0.13889 -7.5,-3.125 z m 58.75,0 c 0,-1.71875 0.5625,-3.125 1.25,-3.125 0.6875,0 1.25,-1.1157 1.25,-2.47932 C 350,497.62311 340.96991,480 339.10089,480 338.15546,480 337.5,478.46464 337.5,476.25 l 0,-3.75 8.125,0 c 7.8602,0 8.125,0.10312 8.125,3.16422 0,1.74034 -0.82764,3.48183 -1.83919,3.87 -1.56167,0.59928 -1.46354,1.44211 0.6504,5.58578 1.36928,2.684 2.75187,4.88 3.07242,4.88 1.37928,0 4.4195,-9.35729 3.175,-9.77213 -0.71976,-0.23991 -1.30863,-2.07683 -1.30863,-4.08203 0,-3.62269 0.0476,-3.64584 7.5,-3.64584 7.5,0 7.5,0 7.5,3.75 0,2.25448 -0.65175,3.75 -1.63425,3.75 -1.80719,0 -12.11575,18.47244 -12.11575,21.71084 0,1.12153 0.84375,2.03916 1.875,2.03916 1.16666,0 1.875,1.18055 1.875,3.125 0,2.98611 -0.33334,3.125 -7.5,3.125 -7.16666,0 -7.5,-0.13889 -7.5,-3.125 z m 85,0 c 0,-1.94445 0.70834,-3.125 1.875,-3.125 1.43489,0 1.875,-1.58236 1.875,-6.74126 0,-4.83913 -0.52906,-6.94429 -1.875,-7.46078 -1.03125,-0.39572 -1.875,-2.1434 -1.875,-3.88374 0,-2.95658 0.40329,-3.16422 6.14584,-3.16422 3.77777,0 6.36657,0.60205 6.71875,1.5625 0.45832,1.25 0.90416,1.25 2.22916,0 3.13884,-2.96116 6.15625,-1.88899 6.15625,2.1875 0,2.86338 -0.56691,3.75 -2.39776,3.75 -5.26057,0 -6.35224,1.31191 -6.35224,7.63374 0,3.36393 0.5625,6.11626 1.25,6.11626 0.6875,0 1.25,1.40625 1.25,3.125 0,2.98611 -0.33334,3.125 -7.5,3.125 -7.16666,0 -7.5,-0.13889 -7.5,-3.125 z m 51.25,-0.625 c 0,-3.45238 0.34722,-3.75 4.375,-3.75 4.02778,0 4.375,0.29762 4.375,3.75 0,3.45238 -0.34722,3.75 -4.375,3.75 -4.02778,0 -4.375,-0.29762 -4.375,-3.75 z M 291.81326,415.75455 C 270.8822,411.75999 239.58244,400.75076 195.625,381.92176 165.34351,368.95081 156.76646,364.31672 149.31827,356.90276 138.2554,345.89069 138.125,345.00932 138.125,281.25 c 0,-42.20031 0.38785,-55.91433 1.7322,-61.25 6.24952,-24.80396 18.73884,-33.92583 75.7678,-55.33876 29.84019,-11.20424 52.24167,-18.55064 70.39306,-23.08488 18.88906,-4.71851 39.07481,-4.71851 57.96388,0 29.42045,7.34928 85.4482,27.51459 110.69208,39.83994 17.96804,8.7729 26.00019,15.7486 31.48308,27.34215 5.79384,12.25109 6.57809,22.36219 6.06214,78.15781 -0.52145,56.39011 -0.79648,58.27526 -10.03256,68.76801 -6.28743,7.14289 -15.45422,12.19879 -46.41084,25.5977 -33.53298,14.51402 -65.69923,26.50841 -83.9607,31.30787 -12.66833,3.32947 -17.69624,3.99648 -33.06514,4.38647 -11.85058,0.3007 -21.1754,-0.12225 -26.93674,-1.22176 z M 343.75,404.42609 c 14.59631,-3.54508 38.80893,-12.02267 70.46961,-24.67362 51.51495,-20.58428 57.90193,-24.26535 64.13844,-36.96548 l 3.51695,-7.16199 0.38845,-50.86936 c 0.4108,-53.7973 -0.0714,-60.42383 -5.20205,-71.49837 -6.50696,-14.04513 -20.02885,-22.3655 -63.3114,-38.95712 -66.58507,-25.52426 -91.91984,-30.51656 -122.92865,-24.2235 -22.62695,4.59202 -89.54699,28.57577 -113.77155,40.77506 -9.89086,4.98096 -19.96196,13.85558 -23.42345,20.64066 -5.46415,10.71062 -6.08945,17.74672 -6.08835,68.50763 0.001,52.32476 0.59498,58.29187 6.72255,67.55126 5.71644,8.63812 15.57628,13.85282 59.48945,31.46295 39.4505,15.8205 61.95661,23.43345 78.75,26.63809 11.73998,2.2403 39.735,1.57049 51.25,-1.22621 z m -52.72431,-13.67234 c -12.41027,-3.3363 -20.13703,-13.81826 -22.0794,-29.95246 -0.9879,-8.2059 -0.93657,-8.45932 1.5788,-7.79393 1.42995,0.37826 5.56098,1.3539 9.18007,2.16806 6.39251,1.43809 6.60323,1.62448 7.38849,6.53525 2.0651,12.91438 15.40635,14.82198 15.40635,2.20288 0,-8.44625 -5.11899,-15.39488 -17.67509,-23.99258 -13.06835,-8.94846 -18.58345,-17.87873 -18.56794,-30.06599 0.0112,-8.38689 2.21304,-14.53785 7.16978,-20.02438 7.62521,-8.4402 16.48069,-11.29825 26.58045,-8.57866 10.72506,2.88796 18.7428,15.28276 18.7428,28.97493 0,5.37458 -0.48814,5.51855 -13.4375,3.96315 -5.62479,-0.67562 -6.5625,-1.17016 -6.5625,-3.46099 0,-3.96824 -3.4961,-8.22903 -6.75215,-8.22903 -6.63373,0 -9.25272,9.29625 -4.36835,15.50572 1.44623,1.83858 6.7094,6.09595 11.69594,9.46083 11.62122,7.84193 18.90627,16.11433 21.30535,24.19289 7.22152,24.3175 -8.30489,44.82054 -29.6051,39.09431 z m 48.67831,-43.48725 -0.329,-42.8915 -6.5625,0.34991 -6.5625,0.34993 0,-11.91243 0,-11.91241 22.5,0 22.5,0 0,9.85421 c 0,10.76922 -0.45044,11.33583 -9.04542,11.37873 l -3.42042,0.0171 -0.32958,40.81861 -0.32958,40.81862 -6.25,2.1235 c -3.4375,1.16792 -7.5082,2.5226 -9.046,3.01039 l -2.796,0.88688 -0.329,-42.8915 z m -83.12928,31.13179 c -7.31231,-2.45782 -7.84541,-2.90025 -8.52175,-7.07256 -1.8344,-11.31643 -1.78698,-11.22654 -6.58478,-12.48369 -12.14914,-3.18338 -11.11158,-3.47919 -12.06312,3.43925 l -0.85771,6.23635 -7.26357,-2.45295 c -5.54069,-1.87112 -7.14847,-2.95541 -6.77823,-4.57131 0.85585,-3.73546 14.24444,-78.22837 14.24444,-79.25479 0,-0.54373 4.21875,-0.98859 9.375,-0.98859 5.15625,0 9.375,0.39258 9.375,0.87239 0,0.90901 17.13161,93.10515 18.01312,96.94011 0.60004,2.6104 0.86192,2.62985 -8.9384,-0.66421 z m -15.81803,-54.08105 c -2.74313,-16.97856 -3.33969,-17.03847 -5.64948,-0.56724 -0.81947,5.84375 -1.76581,11.56705 -2.10296,12.71844 -0.6087,2.0787 1.3749,2.94421 7.70347,3.36134 L 243.29045,340 240.75669,324.31724 Z M 376.25,329.375 l 0,-48.125 21.875,0 21.875,0 0,8.75 0,8.75 -4.81664,0 c -2.64915,0 -8.27415,0.36139 -12.5,0.80307 L 395,300.35614 l 0,8.10668 0,8.1067 4.6875,-0.72481 c 2.57812,-0.39865 7.64062,-1.10551 11.25,-1.5708 l 6.5625,-0.84598 0,8.75127 0,8.75127 -5.0289,0.80417 c -2.7659,0.44227 -7.8284,1.40453 -11.25,2.13833 l -6.2211,1.33419 0,8.64641 c 0,6.09209 0.4616,8.64184 1.5625,8.6309 0.85937,-0.009 6.48437,-1.37718 12.5,-3.04145 l 10.9375,-3.0259 0,8.56262 0,8.56262 -20.93852,6.97883 c -11.51618,3.83835 -21.35993,6.97881 -21.875,6.97881 -0.51507,0 -0.93648,-21.65625 -0.93648,-48.125 z m -173.4375,30.30842 -6.5625,-2.51822 0,-21.29094 c 0,-11.71001 -0.30082,-20.9901 -0.6685,-20.62242 -0.56497,0.56496 -3.45894,10.9174 -9.41775,33.68956 -0.93895,3.58829 -1.6951,4.4356 -3.53012,3.95572 -1.93148,-0.50508 -3.06345,-4.21235 -6.54694,-21.4414 L 171.875,310.625 l -0.34459,18.97569 -0.34458,18.9757 -5.59292,-1.9057 L 160,344.765 l 0,-31.7575 0,-31.7575 8.04076,0 c 9.26302,0 8.08768,-1.77406 12.00799,18.125 1.48989,7.5625 2.86115,13.91335 3.04725,14.11301 0.1861,0.19967 2.16225,-6.97221 4.39144,-15.9375 l 4.05308,-16.30051 9.85474,0 9.85474,0 0,39.92623 c 0,21.95942 -0.42188,40.17355 -0.9375,40.47583 -0.51563,0.30228 -3.89063,-0.5836 -7.5,-1.96863 z m 223.4375,-38.29968 0,-40.13374 15.3125,0.005 c 13.16503,0.004 15.89416,0.3593 19.46004,2.53334 9.47087,5.7742 11.61369,22.05512 4.55539,34.61152 l -3.42702,6.09649 4.04035,10.96951 c 2.2222,6.03324 3.84762,11.12765 3.61205,11.32093 -1.66487,1.36594 -12.95777,4.29075 -13.64115,3.53299 -0.46843,-0.51946 -2.34682,-5.50344 -4.17417,-11.07554 -3.09964,-9.45163 -3.52921,-10.09156 -6.40523,-9.54178 -3.03941,0.58069 -3.08276,0.77008 -3.08276,13.4678 l 0,12.87883 -6.5625,2.15752 c -3.60938,1.18664 -7.26563,2.41703 -8.125,2.7342 -1.22952,0.45378 -1.5625,-7.97586 -1.5625,-39.55707 z m 27.12289,-9.51029 c 6.41074,-4.49026 4.05955,-15.62345 -3.29948,-15.62345 -6.89855,0 -7.57341,0.84732 -7.57341,9.50874 l 0,7.99126 4.09686,0 c 2.25329,0 5.30249,-0.84445 6.77603,-1.87655 z M 172.46415,271.1337 c -11.30868,-6.56054 -16.25441,-24.31785 -12.28204,-44.09779 3.12391,-15.55506 13.02436,-25.72326 25.08689,-25.76535 4.88324,-0.017 6.6875,0.67613 10.521,4.04194 4.65505,4.08714 9.93464,13.75374 8.64847,15.8348 -0.3802,0.61518 -3.4187,1.49361 -6.75222,1.95209 -5.61836,0.77272 -6.34124,0.55332 -9.89901,-3.00447 -4.68305,-4.68303 -8.35112,-3.91607 -12.16224,2.54307 -2.00096,3.39123 -2.5,6.48268 -2.5,15.48701 0,13.0222 1.93661,19.0291 6.50455,20.17559 4.27349,1.07257 8.8431,-1.73112 10.55999,-6.47908 1.34302,-3.71405 1.96701,-4.06532 8.40132,-4.7294 3.82281,-0.39455 7.16203,-0.50588 7.42049,-0.24742 0.25846,0.25846 -0.44084,3.60288 -1.554,7.43205 -4.67171,16.07012 -19.70021,23.98852 -31.9932,16.85696 z m 53.09251,1.41766 c -4.22789,-1.71226 -10.1157,-9.37643 -13.16465,-17.13641 -2.48369,-6.32133 -2.87441,-9.6152 -2.94064,-24.78995 -0.0575,-13.16576 0.45332,-19.20881 2.06233,-24.39953 6.69495,-21.59814 23.37567,-30.11173 34.865,-17.79457 2.48099,2.65976 5.84054,8.17901 7.46565,12.26501 2.65175,6.66724 2.95865,9.41598 2.9927,26.80409 0.043,21.96774 -1.73979,30.02945 -8.4379,38.15542 -5.84276,7.0883 -15.31029,9.94645 -22.84249,6.89594 z M 238.125,249.375 c 2.11539,-4.23078 2.5,-7.5 2.5,-21.25 0,-13.75 -0.38461,-17.01922 -2.5,-21.25 -3.47103,-6.94205 -7.78759,-6.97173 -11.15311,-0.0768 -3.04278,6.23384 -4.25045,27.76696 -2.05197,36.58701 3.17572,12.74049 8.59957,15.20069 13.20508,5.98968 z m 43.27535,22.23687 c -18.55088,-9.13875 -25.07102,-64.15826 -10.82086,-91.31053 4.08017,-7.77438 5.40806,-9.3503 11.17785,-13.26579 9.83072,-6.67131 20.68135,-3.39004 27.51065,8.31931 12.6688,21.7216 11.95944,69.48833 -1.31644,88.64541 -5.95674,8.59559 -17.71269,11.96574 -26.5512,7.6116 z M 292.935,250.63642 c 4.06842,-4.06842 5.19128,-10.93527 5.11179,-31.26142 -0.082,-20.97413 -1.47752,-28.38628 -5.85929,-31.12165 -6.72729,-4.19956 -11.33979,8.47316 -11.32738,31.12165 0.0139,25.25381 5.04834,38.28796 12.07488,31.26142 z M 326.25,216.25 c 0,-30.9375 0.38196,-56.25 0.84881,-56.25 0.46685,0 4.6856,1.23571 9.375,2.74604 l 8.52619,2.74605 0,42.12021 c 0,47.07167 -0.73206,43.6377 9.30277,43.6377 2.94157,0 7.95806,0.35771 11.14777,0.7949 l 5.79946,0.79491 0,9.83009 0,9.8301 -22.5,0 -22.5,0 0,-56.25 z m 50,8.125 c 0,-26.46875 0.33295,-48.125 0.73989,-48.125 0.40694,0 10.25069,3.127 21.875,6.94887 L 420,190.14776 l 0,8.67611 c 0,4.77188 -0.14063,8.67471 -0.3125,8.67298 -0.17188,-0.001 -5.55621,-1.40799 -11.9652,-3.125 -6.40899,-1.71702 -11.89336,-3.12185 -12.1875,-3.12185 -0.29414,0 -0.5348,3.59607 -0.5348,7.99126 0,9.04829 -0.60126,8.51575 12.1875,10.7944 l 9.0625,1.61473 0,8.71126 0,8.71126 -7.8125,-0.863 c -4.29688,-0.47464 -9.07813,-1.17077 -10.625,-1.54696 C 395.0992,236.0031 395,236.28662 395,244.70094 l 0,8.72196 4.6875,0.77479 c 2.57812,0.42613 8.20312,0.78098 12.5,0.78855 L 420,255 l 0,8.75 0,8.75 -21.875,0 -21.875,0 0,-48.125 z m 50,8.2172 0,-39.90779 15.05779,5.03713 c 8.28178,2.77041 16.74395,6.45592 18.80481,8.19002 10.59939,8.9188 13.01169,29.6189 4.39503,37.71385 l -3.02048,2.83758 4.25643,12.63911 c 2.34103,6.95151 4.25642,12.80984 4.25642,13.0185 0,0.20867 -3.1114,0.3794 -6.91423,0.3794 -4.41961,0 -7.10259,-0.56374 -7.43631,-1.5625 -0.28715,-0.85938 -2.02329,-6.48438 -3.8581,-12.5 C 448.8159,248.68209 448.13354,247.5 445.47767,247.5 442.53929,247.5 442.5,247.66491 442.5,260 l 0,12.5 -8.125,0 -8.125,0 0,-39.9078 z m 30.07199,-3.40655 c 2.40389,-6.3227 -2.22475,-12.88006 -10.38449,-14.71168 l -3.4375,-0.7716 0,8.68215 c 0,9.47769 0.16885,9.67648 8.46844,9.97048 3.34346,0.1185 4.32431,-0.46224 5.35355,-3.16935 z"
     id="path3340"
     inkscape:connector-curvature="0" />
</svg>
