<?xml version="1.0" encoding="UTF-8" standalone="no"?>
<!-- Created with Inkscape (http://www.inkscape.org/) -->

<svg
   xmlns:dc="http://purl.org/dc/elements/1.1/"
   xmlns:cc="http://creativecommons.org/ns#"
   xmlns:rdf="http://www.w3.org/1999/02/22-rdf-syntax-ns#"
   xmlns:svg="http://www.w3.org/2000/svg"
   xmlns="http://www.w3.org/2000/svg"
   xmlns:sodipodi="http://sodipodi.sourceforge.net/DTD/sodipodi-0.dtd"
   xmlns:inkscape="http://www.inkscape.org/namespaces/inkscape"
   version="1.1"
   id="svg4366"
   width="1200"
   height="1200"
   viewBox="0 0 1200 1200"
   sodipodi:docname="dominos_social_logosquare.svg"
   inkscape:version="0.92+devel unknown">
  <metadata
     id="metadata4372">
    <rdf:RDF>
      <cc:Work
         rdf:about="">
        <dc:format>image/svg+xml</dc:format>
        <dc:type
           rdf:resource="http://purl.org/dc/dcmitype/StillImage" />
        <dc:title></dc:title>
      </cc:Work>
    </rdf:RDF>
  </metadata>
  <defs
     id="defs4370" />
  <sodipodi:namedview
     pagecolor="#ffffff"
     bordercolor="#666666"
     inkscape:document-rotation="0"
     borderopacity="1"
     objecttolerance="10"
     gridtolerance="10"
     guidetolerance="10"
     inkscape:pageopacity="0"
     inkscape:pageshadow="2"
     inkscape:window-width="1920"
     inkscape:window-height="1016"
     id="namedview4368"
     showgrid="false"
     inkscape:zoom="0.725"
     inkscape:cx="698.2718"
     inkscape:cy="556.36726"
     inkscape:window-x="0"
     inkscape:window-y="0"
     inkscape:window-maximized="1"
     inkscape:current-layer="g4374" />
  <g
     inkscape:groupmode="layer"
     inkscape:label="Image"
     id="g4374">
    <g
       id="g4921">
      <path
         style="fill:#e01735"
         d="m 602.00258,516.50432 -75.49742,-75.50412 69.99742,-70.00403 c 38.49858,-38.50221 71.41543,-70.67726 73.14855,-71.5001 4.02703,-1.91193 9.67392,-1.91019 13.70824,0.004 1.7389,0.82516 32.9331,31.31266 69.32046,67.75 57.66296,57.74217 66.31793,66.79548 67.39778,70.49971 2.70954,9.29449 5.80549,5.69924 -71.90726,83.50422 L 677.5,592.00844 Z m 81.11093,-38.51831 c 12.15767,-2.28863 21.93295,-9.80912 27.27802,-20.98601 2.76788,-5.7878 3.10847,-7.48842 3.10847,-15.52103 0,-8.17395 -0.30804,-9.64675 -3.28057,-15.68482 -3.32046,-6.7448 -10.50555,-14.33939 -16.49789,-17.43815 -1.59707,-0.82587 -6.01276,-2.14984 -9.81265,-2.94214 -6.00893,-1.25289 -7.80626,-1.25343 -13.79792,-0.004 -12.65491,2.63863 -20.64664,8.8347 -26.34947,20.42902 -2.9889,6.0767 -3.2615,7.42619 -3.2615,16.14609 0,8.34423 0.33669,10.20074 2.73598,15.08619 3.21114,6.53853 10.39506,14.17121 16.17262,17.18288 3.73214,1.94545 12.72604,4.45562 16.70491,4.66229 0.88743,0.0461 4.03743,-0.37248 7,-0.93018 z"
         id="path4925"
         inkscape:connector-curvature="0" />
      <path
         style="fill:#01638f"
         d="m 414.5,913.6552 c -20.13027,-6.67167 -32.20813,-25.83388 -28.60575,-45.38466 2.42943,-13.185 10.66703,-23.96134 22.91354,-29.97526 C 413.99234,835.7493 415.48104,835.5 425.5,835.5 c 10.14325,0 11.46732,0.22887 17,2.93857 15.93032,7.80207 25.77075,26.24932 22.72856,42.60785 -2.57008,13.81991 -10.65063,24.44843 -22.97051,30.2136 -5.59842,2.61981 -8.14864,3.19435 -15.24075,3.43358 -5.16923,0.17437 -10.08966,-0.23382 -12.5173,-1.0384 z m 17.43834,-27.48247 c 6.54284,-3.50896 8.97806,-12.51747 5.10214,-18.87418 -6.84252,-11.22212 -25.02285,-6.34455 -25.03674,6.71705 C 411.99592,881.37237 418.3922,888 425.5,888 c 1.66716,0 4.56441,-0.82227 6.43834,-1.82727 z m 338.44434,27.87834 c -10.11962,-2.41587 -20.71879,-10.9258 -25.36631,-20.36625 -6.05113,-12.29161 -6.28084,-23.95995 -0.70835,-35.98124 8.2641,-17.82781 29.9465,-27.05413 48.68316,-20.71572 11.75046,3.97505 20.68586,12.45195 25.15011,23.8596 3.1027,7.92845 3.08632,20.41677 -0.0372,28.40463 -6.17718,15.79678 -20.93245,25.88478 -37.51059,25.64555 -3.9014,-0.0563 -8.49624,-0.43725 -10.21077,-0.84657 z m 16.63292,-27.88588 c 6.48573,-3.41524 8.9058,-12.50173 5.02488,-18.86664 -6.93695,-11.37699 -25.02364,-6.31934 -25.03674,7.00111 -0.0104,10.55714 10.57615,16.83417 20.01186,11.86553 z m 71.48427,27.87983 c -7.16233,-1.53164 -16.9156,-5.12535 -20.81354,-7.66901 l -3.81367,-2.48866 3.21119,-5.69367 C 841.205,890.88658 844.91929,885 845.40875,885 c 0.21102,0 3.72698,1.58773 7.81324,3.52829 11.9736,5.68624 23.16044,6.87642 28.35428,3.01666 1.8945,-1.40788 1.89334,-1.45912 -0.0763,-3.372 -1.39757,-1.35731 -5.61458,-2.59006 -14,-4.09258 -19.50397,-3.49476 -27.79541,-8.67838 -30.58908,-19.12362 -3.56998,-13.34774 4.07563,-24.02661 20.10395,-28.07983 13.29846,-3.3629 28.69367,-1.5993 41.16436,4.71559 2.57358,1.3032 4.96526,2.83226 5.31484,3.3979 0.80999,1.31059 -7.23199,15.97179 -9.16846,16.71488 -0.79898,0.3066 -4.0116,-0.73916 -7.13915,-2.32392 -7.25564,-3.67648 -19.73386,-4.69111 -22.58828,-1.8367 -2.81596,2.81597 -0.009,4.4524 10.27274,5.98829 13.79418,2.06064 20.51907,4.25304 25.11655,8.18831 5.62186,4.8121 7.29376,8.5057 7.36486,16.27061 0.10815,11.81087 -5.8809,19.83257 -18.08339,24.22079 -6.41764,2.30789 -23.72544,3.3386 -30.76907,1.83235 z M 275.4585,911.75 c -0.26331,-0.6875 -0.36168,-24.2 -0.21862,-52.25 l 0.26012,-51 27,-0.27813 c 30.80356,-0.3173 38.2325,0.61628 50,6.28339 20.63839,9.93925 31.16808,33.43631 25.98908,57.99474 -4.27837,20.28769 -18.54749,34.10103 -40.18649,38.90285 -9.40292,2.08657 -62.0665,2.37748 -62.84409,0.34715 z m 56.26979,-28.28094 c 10.04546,-4.19726 15.24511,-12.21711 15.26194,-23.53975 0.008,-5.19823 -0.56464,-7.70451 -2.74023,-11.99896 -4.69145,-9.26053 -10.70374,-11.91591 -27,-11.92477 L 307,836 v 24.5 24.5 h 10.53212 c 7.19426,0 11.69334,-0.48519 14.19617,-1.53094 z m 142.73847,28.30492 c -0.27072,-0.7055 -0.374,-17.70576 -0.22949,-37.77835 L 474.5,837.5 l 13.4223,-0.28023 c 14.50592,-0.30284 15.03387,-0.12516 15.06239,5.06919 l 0.0153,2.78895 2.25,-2.1645 c 6.15844,-5.92443 21.41122,-9.45796 30.34896,-7.03079 5.33427,1.44859 10.18913,4.86314 12.25234,8.61738 0.90678,1.65 1.74271,3.16901 1.8576,3.37557 0.1149,0.20656 1.41246,-1.05478 2.88348,-2.80299 3.90384,-4.63945 13.29513,-9.04394 20.77234,-9.74218 11.16169,-1.04229 19.98716,2.92277 24.37615,10.9516 1.5735,2.87843 1.75913,6.54192 1.75913,34.718 v 31.5 l -13.68434,0.27779 -13.68434,0.27779 -0.31566,-23.92489 c -0.28538,-21.62978 -0.49348,-24.12119 -2.16935,-25.97111 -3.78648,-4.17974 -12.00545,-3.59955 -16.47996,1.16335 -2.0248,2.1553 -2.14078,3.37556 -2.39705,25.22098 L 550.5,912.5 H 537 523.5 L 523,889 c -0.55179,-25.93427 -0.92059,-27.51928 -6.65348,-28.59477 -3.7136,-0.69668 -6.78791,0.1116 -10.57855,2.78127 l -2.73203,1.9241 -0.26797,23.6947 L 502.5,912.5 l -13.7705,0.27835 c -10.48704,0.21198 -13.88788,-0.0275 -14.26274,-1.00437 z m 137.22687,0.58631 c -0.98108,-0.98108 -0.83681,-72.5864 0.14938,-74.14052 0.60929,-0.96017 4.16789,-1.21017 14.23469,-1 L 639.5,837.5 v 37.5 37.5 l -13.55637,0.27696 c -7.45601,0.15233 -13.86851,-0.0352 -14.25,-0.41667 z m 40.77344,-0.5855 c -0.27089,-0.70594 -0.37431,-17.70657 -0.2298,-37.77916 L 652.5,837.5 h 13.5 13.5 l 0.31064,3.75464 0.31064,3.75464 3.24442,-2.47464 c 6.93459,-5.28927 12.43404,-6.98598 22.6343,-6.98321 12.89347,0.004 18.59717,3.0079 23.63303,12.44857 1.70532,3.19695 1.86697,6.14086 1.86697,34 v 30.5 l -13.4223,0.28023 c -10.0668,0.21017 -13.6254,-0.0398 -14.23469,-1 -0.44681,-0.70413 -0.81928,-11.23204 -0.8277,-23.39537 -0.0144,-20.74458 -0.14194,-22.27613 -2.05864,-24.71282 -3.80182,-4.83323 -13.94582,-4.50585 -18.74725,0.60505 -2.07961,2.21364 -2.18213,3.27522 -2.44012,25.26682 L 679.5,912.5 l -13.27019,0.27917 c -10.08502,0.21215 -13.38842,-0.0289 -13.76274,-1.00438 z M 911.45455,845.54545 C 906.21504,840.30595 909.70139,832 917.14014,832 921.62782,832 925,835.3722 925,839.85991 925,844.11537 921.18223,848 917,848 c -1.94837,0 -3.99822,-0.90731 -5.54545,-2.45455 z m 10.74606,-2.60021 c 3.72334,-5.01078 -1.97225,-11.73721 -7.72069,-9.11805 -4.57826,2.086 -5.19283,8.59071 -1.08022,11.43333 2.16751,1.49817 6.89052,0.25567 8.80091,-2.31528 z M 913,840.06739 c 0,-2.95502 0.46215,-4.0793 1.85912,-4.52268 3.48147,-1.10497 5.03924,0.34684 4.872,4.54064 -0.15813,3.96535 -1.31898,5.15224 -2.36729,2.42039 -0.31537,-0.82184 -0.98359,-1.24074 -1.48493,-0.9309 -0.50134,0.30985 -0.65263,0.98226 -0.33619,1.49426 C 915.85914,843.58109 915.41648,844 914.55902,844 913.41128,844 913,842.96254 913,840.06739 Z M 918,838 c 0,-0.55 -0.45,-1 -1,-1 -0.55,0 -1,0.45 -1,1 0,0.55 0.45,1 1,1 0.55,0 1,-0.45 1,-1 z m -97.00649,1.48787 c -1.22484,-2.28864 -1.10643,-2.76057 1.33102,-5.30472 1.47151,-1.53592 2.67547,-3.07057 2.67547,-3.41032 0,-0.33975 -1.49494,-1.1111 -3.32209,-1.71411 -1.82715,-0.60302 -4.86465,-2.68791 -6.75,-4.6331 -3.11408,-3.21291 -3.42791,-4.07492 -3.42791,-9.4155 0,-5.1567 0.36849,-6.27048 3,-9.06762 7.58716,-8.06471 19.64808,-7.69009 25.93268,0.80547 2.3578,3.1873 3.17083,11.29705 1.68555,16.81296 -1.33872,4.97164 -7.043,11.80123 -13.0257,15.59534 -5.49211,3.483 -6.39271,3.51987 -8.09902,0.3316 z M 619.5,829.83574 c -11.88199,-6.55551 -12.04812,-22.31803 -0.29966,-28.43075 3.96694,-2.064 11.68633,-1.77147 15.5588,0.58961 9.50739,5.79672 9.69585,20.48735 0.34298,26.73547 -3.75064,2.50558 -12.00456,3.09052 -15.60212,1.10567 z M 443.32174,675.75 c -60.38147,-60.4305 -68.27195,-68.67964 -68.86948,-72 -1.69514,-9.41964 -5.39412,-5.16883 71.35695,-82.00239 38.87204,-38.91382 70.98243,-70.63882 71.35642,-70.5 0.374,0.13881 34.52543,33.94048 75.89208,75.11482 l 75.21209,74.86243 -69.8849,69.95202 C 559.94821,709.6505 527.28485,741.77491 525.79966,742.56445 524.31447,743.354 520.49315,744 517.30784,744 h -5.79148 z m 144.99853,-41.11827 c 14.78521,-7.23372 23.57677,-23.91801 20.72686,-39.33462 -5.38118,-29.10946 -39.74164,-41.05211 -61.33405,-21.31785 -15.85137,14.48725 -16.25957,38.39853 -0.91444,53.56577 8.14702,8.05258 14.90162,10.56444 27.2822,10.14553 6.96613,-0.2357 9.64566,-0.8113 14.23943,-3.05883 z m -111.05264,-0.63067 c 11.18203,-4.18374 20.5789,-16.06246 22.57286,-28.53469 2.55955,-16.01006 -5.70131,-31.83275 -20.38308,-39.04135 C 474.07806,563.78382 472.52968,563.5 463.5,563.5 c -8.74771,0 -10.71337,0.33438 -15.6965,2.67018 -7.5832,3.55456 -14.24354,10.40867 -18.0791,18.60508 -2.71138,5.79407 -3.11696,7.7374 -3.06809,14.70071 0.0715,10.18344 2.79384,17.58392 9.01321,24.50135 10.81222,12.02579 26.28321,15.75378 41.59811,10.02374 z"
         id="path4923"
         inkscape:connector-curvature="0" />
    </g>
  </g>
</svg>
