<?xml version="1.0" encoding="UTF-8" standalone="no"?>
<!-- Created with Inkscape (http://www.inkscape.org/) -->

<svg
   xmlns:dc="http://purl.org/dc/elements/1.1/"
   xmlns:cc="http://creativecommons.org/ns#"
   xmlns:rdf="http://www.w3.org/1999/02/22-rdf-syntax-ns#"
   xmlns:svg="http://www.w3.org/2000/svg"
   xmlns="http://www.w3.org/2000/svg"
   xmlns:sodipodi="http://sodipodi.sourceforge.net/DTD/sodipodi-0.dtd"
   xmlns:inkscape="http://www.inkscape.org/namespaces/inkscape"
   width="120.37487mm"
   height="224.96638mm"
   viewBox="0 0 120.37487 224.96638"
   version="1.1"
   id="svg8027"
   inkscape:version="0.92.4 (5da689c313, 2019-01-14)"
   sodipodi:docname="gene-haas-foundation.svg">
  <defs
     id="defs8021">
    <clipPath
       id="clip-path-5"
       transform="translate(-67.77 -107.36)">
      <rect
         class="cls-1"
         x="1998.86"
         y="2203.6101"
         width="903.26001"
         height="1168.9301"
         id="rect1705"
         style="fill:none" />
    </clipPath>
    <clipPath
       id="clipPath8584"
       transform="translate(-67.77 -107.36)">
      <rect
         class="cls-1"
         x="1998.86"
         y="2203.6101"
         width="903.26001"
         height="1168.9301"
         id="rect8582"
         style="fill:none" />
    </clipPath>
    <clipPath
       id="clipPath8588"
       transform="translate(-67.77 -107.36)">
      <rect
         class="cls-1"
         x="1998.86"
         y="2203.6101"
         width="903.26001"
         height="1168.9301"
         id="rect8586"
         style="fill:none" />
    </clipPath>
  </defs>
  <sodipodi:namedview
     id="base"
     pagecolor="#ffffff"
     bordercolor="#666666"
     borderopacity="1.0"
     inkscape:pageopacity="0.0"
     inkscape:pageshadow="2"
     inkscape:zoom="0.35"
     inkscape:cx="286.07612"
     inkscape:cy="333.70474"
     inkscape:document-units="mm"
     inkscape:current-layer="layer1"
     showgrid="false"
     fit-margin-top="0"
     fit-margin-left="0"
     fit-margin-right="0"
     fit-margin-bottom="0"
     inkscape:window-width="748"
     inkscape:window-height="416"
     inkscape:window-x="2991"
     inkscape:window-y="219"
     inkscape:window-maximized="0" />
  <metadata
     id="metadata8024">
    <rdf:RDF>
      <cc:Work
         rdf:about="">
        <dc:format>image/svg+xml</dc:format>
        <dc:type
           rdf:resource="http://purl.org/dc/dcmitype/StillImage" />
        <dc:title></dc:title>
      </cc:Work>
    </rdf:RDF>
  </metadata>
  <g
     inkscape:label="Layer 1"
     inkscape:groupmode="layer"
     id="layer1"
     transform="translate(-3.3125628,-12.159663)">
    <g
       id="g8742">
      <g
         id="g2087"
         clip-path="url(#clip-path-5)"
         class="cls-34"
         transform="matrix(0.35277777,0,0,0.35277777,-777.61042,-828.65793)">
        <rect
           style="fill:#135eab"
           id="rect2083"
           height="576.34998"
           width="337.98999"
           y="2444.77"
           x="2216.8701"
           class="cls-35" />
        <polygon
           style="fill:#ffffff"
           id="polygon2085"
           points="2249.2,2973.9 2249.2,2977.92 2238.41,2977.92 2238.41,2986.93 2249.2,2986.93 2249.2,2990.95 2238.41,2990.95 2238.41,3003.94 2234.03,3003.94 2234.03,2973.9 "
           class="cls-33" />
      </g>
      <g
         id="g2149"
         clip-path="url(#clip-path-5)"
         class="cls-34"
         transform="matrix(0.35277777,0,0,0.35277777,-777.61042,-828.65793)">
        <g
           id="g2147"
           clip-path="url(#clip-path-5)"
           class="cls-34">
          <path
             style="fill:#ffffff"
             inkscape:connector-curvature="0"
             id="path2089"
             transform="translate(-67.77,-107.36)"
             d="m 2341.73,3111.86 a 15.59,15.59 0 1 1 15.63,-15.5 15.63,15.63 0 0 1 -15.63,15.5 m 0,-27.15 c -7.75,0 -11.24,6.78 -11.24,11.56 0,4.78 3.53,11.57 11.24,11.57 7.71,0 11.24,-6.74 11.24,-11.44 0,-5.32 -3.77,-11.69 -11.24,-11.69"
             class="cls-33" />
          <path
             style="fill:#ffffff"
             inkscape:connector-curvature="0"
             id="path2091"
             transform="translate(-67.77,-107.36)"
             d="m 2387.84,3101.59 a 10.11,10.11 0 0 1 -3.05,7.71 10.91,10.91 0 0 1 -14,0 10.11,10.11 0 0 1 -3.05,-7.71 v -20.33 h 4.39 v 20.21 c 0,5.56 4.06,6.37 5.68,6.37 1.62,0 5.68,-0.81 5.68,-6.37 v -20.21 h 4.39 z"
             class="cls-33" />
          <polygon
             style="fill:#ffffff"
             id="polygon2093"
             points="2351.45,2996.75 2351.45,2973.9 2355.83,2973.9 2355.83,3003.94 2351.28,3003.94 2336.43,2980.72 2336.35,2980.72 2336.35,3003.94 2331.96,3003.94 2331.96,2973.9 2336.75,2973.9 2351.36,2996.75 "
             class="cls-33" />
          <path
             style="fill:#ffffff"
             inkscape:connector-curvature="0"
             id="path2095"
             transform="translate(-67.77,-107.36)"
             d="m 2435.12,3081.26 h 9.74 c 6.25,0 10,2.39 12.26,5.52 a 17,17 0 0 1 3.08,9.58 c 0,4 -1.54,8.4 -3.77,10.59 -3.45,3.41 -7.51,4.34 -11.73,4.34 h -9.58 z m 4.38,26 h 5.24 c 5.28,0 11.08,-2.63 11.08,-10.91 0,-4.55 -2.8,-11.09 -11,-11.09 h -5.32 z"
             class="cls-33" />
          <path
             style="fill:#ffffff"
             inkscape:connector-curvature="0"
             id="path2097"
             transform="translate(-67.77,-107.36)"
             d="m 2488.62,3111.29 -3.32,-8.85 h -10.8 l -3.33,8.85 h -4.63 l 11.41,-30 h 3.93 l 11.41,30 z m -4.83,-12.86 -3.81,-11.49 h -0.09 l -3.85,11.49 z"
             class="cls-33" />
          <polygon
             style="fill:#ffffff"
             id="polygon2099"
             points="2436.89,3003.94 2436.89,2977.92 2431.13,2977.92 2431.13,2973.9 2447.04,2973.9 2447.04,2977.92 2441.28,2977.92 2441.28,3003.94 "
             class="cls-33" />
          <rect
             style="fill:#ffffff"
             id="rect2101"
             height="30.040001"
             width="4.3800001"
             y="2973.8999"
             x="2456.25"
             class="cls-33" />
          <path
             style="fill:#ffffff"
             inkscape:connector-curvature="0"
             id="path2103"
             transform="translate(-67.77,-107.36)"
             d="m 2554.42,3111.86 a 15.59,15.59 0 1 1 15.62,-15.5 15.63,15.63 0 0 1 -15.62,15.5 m 0,-27.15 c -7.75,0 -11.24,6.78 -11.24,11.56 0,4.78 3.53,11.57 11.24,11.57 7.71,0 11.24,-6.74 11.24,-11.44 0,-5.32 -3.77,-11.69 -11.24,-11.69"
             class="cls-33" />
          <polygon
             style="fill:#ffffff"
             id="polygon2105"
             points="2532.19,2996.75 2532.19,2973.9 2536.58,2973.9 2536.58,3003.94 2532.03,3003.94 2517.18,2980.72 2517.09,2980.72 2517.09,3003.94 2512.71,3003.94 2512.71,2973.9 2517.5,2973.9 2532.11,2996.75 "
             class="cls-33" />
          <path
             style="fill:#567cbc"
             inkscape:connector-curvature="0"
             id="path2107"
             transform="translate(-67.77,-107.36)"
             d="m 2531.44,2818.59 a 77.47,77.47 0 1 1 -77.46,-77.47 77.46,77.46 0 0 1 77.46,77.47"
             class="cls-36" />
          <path
             style="fill:#ffffff"
             inkscape:connector-curvature="0"
             id="path2109"
             transform="translate(-67.77,-107.36)"
             d="m 2599.22,2820.52 a 86.59,86.59 0 0 1 -8.84,-0.79 c -5.89,-0.78 -7.07,-5.11 -7.66,-10.8 -1,-8.25 -1,-23.77 -1,-42.63 v -34.58 c 0,-30.64 0,-36.14 0.4,-42.43 0.39,-6.87 2,-10.21 7.27,-11.2 a 29.15,29.15 0 0 1 4.91,-0.58 c 0.78,0 1.57,-0.4 1.57,-1.18 0,-1.18 -1,-1.58 -3.14,-1.58 -5.9,0 -18.27,0.6 -19.25,0.6 -0.98,0 -13.36,-0.59 -22.21,-0.59 -2.15,0 -3.14,0.39 -3.14,1.57 0,0.78 0.79,1.18 1.57,1.18 a 37,37 0 0 1 6.68,0.58 c 6.49,1.38 8.06,4.52 8.45,11.2 0.4,6.29 0.4,11.79 0.4,42.43 v 4.13 a 1,1 0 0 1 -1.18,1.18 h -83.3 a 1,1 0 0 1 -1.18,-1.18 v -4.13 c 0,-30.64 0,-36.14 0.4,-42.43 0.39,-6.87 2,-10.21 7.27,-11.2 a 29.15,29.15 0 0 1 4.91,-0.58 c 0.78,0 1.57,-0.4 1.57,-1.18 0,-1.18 -1,-1.58 -3.14,-1.58 -5.9,0 -71.74,-0.05 -80.58,-0.05 -2.16,0 -3.15,0.4 -3.15,1.57 0,0.79 0.79,1.18 1.58,1.18 a 37,37 0 0 1 6.67,0.59 c 7.86,2.16 8.84,4.32 8.84,20.24 v 33.39 a 7.15,7.15 0 0 1 -3.92,6.88 c -5.11,2.94 -15.33,4.12 -22.4,4.12 -18.07,0 -36,-5.89 -51.47,-21 -6.87,-6.68 -20.82,-26.71 -20.82,-54.41 0,-23 8,-40.86 19.45,-49.9 14.93,-11.79 29.66,-13 42,-13 25.34,0 41.25,8.45 46.16,15.92 a 30.18,30.18 0 0 1 4.13,13 c 0.19,1.77 0.39,2.95 1.37,2.95 1.38,0 1.77,-1 1.77,-4.13 0,-19.64 1.37,-25.14 1.37,-27.89 0,-0.79 -0.39,-1.57 -2.35,-1.77 a 98.7,98.7 0 0 1 -15.92,-2 c -3.73,-0.79 -17.67,-3.34 -30.05,-3.34 -15.13,0 -34.57,1.37 -52.25,12.37 -17.49,11 -32.81,33.2 -32.81,64.63 0,24.56 11.39,45.58 23.38,56 21.8,19.06 49.7,21 64.63,21 11.39,0 29.07,-2.16 41.64,-8.84 2.36,-1.38 2.56,-1.77 2.56,-10.61 v -22 c 0,-8.25 0,-14.15 0.39,-20.43 0.39,-6.88 2,-10.22 7.27,-11.2 1.06,-0.17 1.87,-0.31 2.58,-0.41 a 24.07,24.07 0 0 1 3.54,0.46 c 6.49,1.38 8.06,4.52 8.45,11.2 0.4,6.29 0.4,11.79 0.4,42.43 v 34.58 c 0,18.86 0,34.38 -1,42.63 -0.79,5.69 -1.77,10 -5.69,10.8 a 30.63,30.63 0 0 1 -5.9,0.79 c -1.18,0 -1.57,0.59 -1.57,1.18 0,1.18 1,1.57 3.14,1.57 5.9,0 18.27,-0.59 19.26,-0.59 0.99,0 13.35,0.59 24.16,0.59 2.16,0 3.14,-0.59 3.14,-1.57 0,-0.59 -0.39,-1.18 -1.57,-1.18 a 86.59,86.59 0 0 1 -8.84,-0.79 c -5.89,-0.78 -7.07,-5.11 -7.66,-10.8 -1,-8.25 -1,-23.77 -1,-42.63 v -20.63 a 1,1 0 0 1 1.18,-1.18 h 83.3 a 1.14,1.14 0 0 1 1.18,1.18 v 20.63 c 0,18.86 0,34.38 -1,42.63 -0.78,5.69 -1.77,10 -5.69,10.8 a 30.63,30.63 0 0 1 -5.9,0.79 c -1.18,0 -1.57,0.59 -1.57,1.18 0,1.18 1,1.57 3.15,1.57 5.89,0 18.26,-0.59 19.25,-0.59 0.99,0 13.35,0.59 24.16,0.59 2.16,0 3.14,-0.59 3.14,-1.57 0,-0.59 -0.39,-1.18 -1.57,-1.18"
             class="cls-33" />
          <line
             style="fill:#135eab"
             id="line2111"
             y2="2902.8"
             x2="2235.3501"
             y1="2742.97"
             x1="2327.03"
             class="cls-35" />
          <line
             style="fill:none;stroke:#567cbc;stroke-width:3.5px"
             id="line2113"
             y2="2902.8"
             x2="2235.3501"
             y1="2742.97"
             x1="2327.03"
             class="cls-37" />
          <line
             style="fill:#135eab"
             id="line2115"
             y2="2957.8999"
             x2="2235.3501"
             y1="2767.53"
             x1="2344.5601"
             class="cls-35" />
          <line
             style="fill:none;stroke:#567cbc;stroke-width:3.5px"
             id="line2117"
             y2="2957.8999"
             x2="2235.3501"
             y1="2767.53"
             x1="2344.5601"
             class="cls-37" />
          <line
             style="fill:#135eab"
             id="line2119"
             y2="2921.24"
             x2="2288.6399"
             y1="2781.78"
             x1="2368.3301"
             class="cls-35" />
          <line
             style="fill:none;stroke:#567cbc;stroke-width:3.5px"
             id="line2121"
             y2="2921.24"
             x2="2288.6399"
             y1="2781.78"
             x1="2368.3301"
             class="cls-37" />
          <line
             style="fill:#135eab"
             id="line2123"
             y2="2910.8999"
             x2="2328.49"
             y1="2783.26"
             x1="2400.8"
             class="cls-35" />
          <line
             style="fill:none;stroke:#567cbc;stroke-width:3.5px"
             id="line2125"
             y2="2910.8999"
             x2="2328.49"
             y1="2783.26"
             x1="2400.8"
             class="cls-37" />
          <line
             style="fill:#135eab"
             id="line2127"
             y2="2852.6201"
             x2="2233.8701"
             y1="2716.1201"
             x1="2314.3"
             class="cls-35" />
          <line
             style="fill:none;stroke:#567cbc;stroke-width:3.5px"
             id="line2129"
             y2="2852.6201"
             x2="2233.8701"
             y1="2716.1201"
             x1="2314.3"
             class="cls-37" />
          <path
             style="fill:#231f20"
             inkscape:connector-curvature="0"
             id="path2131"
             transform="translate(-67.77,-107.36)"
             d="m 2316,2502.62 c -1.83,-2 -5.5,-6 -12,-6 -9.11,0 -16.22,7.81 -16.22,17 a 16.72,16.72 0 0 0 16.28,16.75 c 1.24,0 10.88,-0.12 15.09,-10.89 h -20.42 v -5.86 h 27.69 a 22.51,22.51 0 1 1 -45,0 c 0,-12.6 9.76,-22.84 22.36,-22.84 a 22.42,22.42 0 0 1 19.64,11.84 z"
             class="cls-30" />
          <path
             style="fill:#231f20"
             inkscape:connector-curvature="0"
             id="path2133"
             transform="translate(-67.77,-107.36)"
             d="m 2342.22,2521.67 a 11.11,11.11 0 0 0 10.76,8.94 10.47,10.47 0 0 0 9.35,-5.51 h 6.16 a 16.72,16.72 0 0 1 -15.74,11.13 c -9.29,0 -16.69,-8 -16.69,-17.28 a 16.75,16.75 0 1 1 33.49,-0.42 29.9,29.9 0 0 1 -0.18,3.14 z m 21.18,-4.73 a 10.64,10.64 0 0 0 -21.18,0 z"
             class="cls-30" />
          <path
             style="fill:#231f20"
             inkscape:connector-curvature="0"
             id="path2135"
             transform="translate(-67.77,-107.36)"
             d="m 2401.75,2535.4 v -17.81 c 0,-2.55 0,-10.24 -8.16,-10.24 -5.15,0 -8.64,3.61 -8.64,10.18 v 17.87 h -6.16 v -32.78 h 5.74 v 3.49 h 0.12 a 11.64,11.64 0 0 1 9.59,-4.38 c 5.09,0 9.23,2.19 11.6,5.86 a 16,16 0 0 1 2.07,8.4 v 19.41 z"
             class="cls-30" />
          <path
             style="fill:#231f20"
             inkscape:connector-curvature="0"
             id="path2137"
             transform="translate(-67.77,-107.36)"
             d="m 2423.42,2521.67 a 11.13,11.13 0 0 0 10.77,8.94 10.48,10.48 0 0 0 9.35,-5.51 h 6.15 a 16.71,16.71 0 0 1 -15.74,11.13 c -9.29,0 -16.68,-8 -16.68,-17.28 a 16.75,16.75 0 1 1 33.49,-0.42 c 0,1.07 -0.12,2.73 -0.18,3.14 z m 21.18,-4.73 a 10.64,10.64 0 0 0 -21.18,0 z"
             class="cls-30" />
          <polygon
             style="fill:#58595b"
             id="polygon2139"
             points="2422.76,2403.13 2422.76,2384.26 2429.14,2384.26 2429.14,2428.04 2422.76,2428.04 2422.76,2408.99 2404.71,2408.99 2404.71,2428.04 2398.32,2428.04 2398.32,2384.26 2404.71,2384.26 2404.71,2403.13 "
             class="cls-38" />
          <path
             style="fill:#58595b"
             inkscape:connector-curvature="0"
             id="path2141"
             transform="translate(-67.77,-107.36)"
             d="m 2536.43,2535.4 v -5.09 h -0.12 a 12.55,12.55 0 0 1 -11.12,5.92 c -11.07,0 -17.4,-8.46 -17.4,-17.1 0,-8 5.62,-17.4 17.4,-17.4 4.55,0 8.75,1.89 11.12,5.5 h 0.12 v -4.61 h 6.15 v 32.78 z m -11.24,-28.05 c -7.58,0 -11.25,6.57 -11.25,11.72 0,5.91 4.68,11.54 11.19,11.54 a 11.45,11.45 0 0 0 11.42,-11.54 c 0,-7 -5,-11.72 -11.36,-11.72"
             class="cls-38" />
          <path
             style="fill:#58595b"
             inkscape:connector-curvature="0"
             id="path2143"
             transform="translate(-67.77,-107.36)"
             d="m 2580.58,2535.4 v -5.09 h -0.12 a 12.54,12.54 0 0 1 -11.12,5.92 c -11.07,0 -17.4,-8.46 -17.4,-17.1 0,-8 5.62,-17.4 17.4,-17.4 4.55,0 8.76,1.89 11.12,5.5 h 0.12 v -4.61 h 6.16 v 32.78 z m -11.24,-28.05 c -7.58,0 -11.24,6.57 -11.24,11.72 0,5.91 4.67,11.54 11.18,11.54 a 11.45,11.45 0 0 0 11.42,-11.54 c 0,-7 -5,-11.72 -11.36,-11.72"
             class="cls-38" />
          <path
             style="fill:#58595b"
             inkscape:connector-curvature="0"
             id="path2145"
             transform="translate(-67.77,-107.36)"
             d="m 2612.92,2511.31 c -0.35,-2.66 -2,-4 -4.2,-4 a 3.52,3.52 0 0 0 -3.84,3.49 c 0,2.72 2.36,3.43 5.08,4.26 2.55,0.77 9.88,2.84 9.88,10.65 0,5.8 -4,10.48 -11,10.48 -4.14,0 -11.6,-2.61 -11.6,-11.6 h 6.15 c 0.24,3.67 2.14,6 5.57,6 2.78,0 4.73,-1.72 4.73,-4.5 0,-2.78 -2.54,-3.91 -5.74,-5 -3.55,-1.3 -9.23,-2.9 -9.23,-9.88 0,-4.85 4.09,-9.47 10.3,-9.47 3.72,0 9.88,2.31 10.05,9.58 z"
             class="cls-38" />
        </g>
      </g>
    </g>
  </g>
</svg>
