<?xml version="1.0" encoding="UTF-8" standalone="no"?>
<!-- Created with Inkscape (http://www.inkscape.org/) -->

<svg
   xmlns:dc="http://purl.org/dc/elements/1.1/"
   xmlns:cc="http://creativecommons.org/ns#"
   xmlns:rdf="http://www.w3.org/1999/02/22-rdf-syntax-ns#"
   xmlns:svg="http://www.w3.org/2000/svg"
   xmlns="http://www.w3.org/2000/svg"
   xmlns:sodipodi="http://sodipodi.sourceforge.net/DTD/sodipodi-0.dtd"
   xmlns:inkscape="http://www.inkscape.org/namespaces/inkscape"
   width="702.25684mm"
   height="206.72424mm"
   viewBox="0 0 702.25684 206.72424"
   version="1.1"
   id="svg1811"
   inkscape:version="0.92.4 (5da689c313, 2019-01-14)"
   sodipodi:docname="haas.svg">
  <defs
     id="defs1805" />
  <sodipodi:namedview
     id="base"
     pagecolor="#ffffff"
     bordercolor="#666666"
     borderopacity="1.0"
     inkscape:pageopacity="0.0"
     inkscape:pageshadow="2"
     inkscape:zoom="0.13341116"
     inkscape:cx="1912.1993"
     inkscape:cy="551.41104"
     inkscape:document-units="mm"
     inkscape:current-layer="layer1"
     showgrid="false"
     fit-margin-top="0"
     fit-margin-left="0"
     fit-margin-right="0"
     fit-margin-bottom="0"
     inkscape:window-width="1189"
     inkscape:window-height="712"
     inkscape:window-x="2744"
     inkscape:window-y="442"
     inkscape:window-maximized="0" />
  <metadata
     id="metadata1808">
    <rdf:RDF>
      <cc:Work
         rdf:about="">
        <dc:format>image/svg+xml</dc:format>
        <dc:type
           rdf:resource="http://purl.org/dc/dcmitype/StillImage" />
        <dc:title></dc:title>
      </cc:Work>
    </rdf:RDF>
  </metadata>
  <g
     inkscape:label="Layer 1"
     inkscape:groupmode="layer"
     id="layer1"
     transform="translate(266.46174,-42.4474)">
    <g
       id="g2532">
      <path
         style="fill:#231f20;stroke-width:0.35277775"
         inkscape:connector-curvature="0"
         id="path2001"
         d="m 42.627785,204.64756 c 4.97769,0 7.50004,3.71122 7.50004,8.35025 0,4.54731 -2.52235,8.30439 -7.43654,8.30439 -4.91421,0 -7.40833,-3.75708 -7.40833,-8.30439 -0.0246,-4.61433 2.58585,-8.35025 7.34483,-8.35025 z m 5.99721,8.35025 c 0,-4.39561 -2.28246,-7.07672 -5.95488,-7.07672 -4.09223,0 -5.88787,3.4043 -5.88787,7.07672 0,3.73592 1.76389,7.03086 5.93373,7.03086 4.16983,0 5.90902,-3.3408 5.90902,-7.03086 z"
         class="cls-30" />
      <path
         style="fill:#231f20;stroke-width:0.35277775"
         inkscape:connector-curvature="0"
         id="path2003"
         d="m 59.603455,220.88592 v -15.82208 h 10.26935 v 1.28764 h -8.763 v 5.715 h 7.96573 V 213.34 h -7.96573 v 7.56003 z"
         class="cls-30" />
      <path
         style="fill:#231f20;stroke-width:0.35277775"
         inkscape:connector-curvature="0"
         id="path2005"
         d="m 78.551135,220.88592 v -15.82208 h 10.26584 v 1.28764 h -8.763 v 5.715 h 7.96573 V 213.34 h -7.96573 v 7.56003 z"
         class="cls-30" />
      <path
         style="fill:#231f20;stroke-width:0.35277775"
         inkscape:connector-curvature="0"
         id="path2007"
         d="m 98.179705,220.88592 v -15.82208 h 1.50635 v 15.82208 z"
         class="cls-30" />
      <path
         style="fill:#231f20;stroke-width:0.35277775"
         inkscape:connector-curvature="0"
         id="path2009"
         d="m 121.75231,209.657 c -0.6209,-2.70227 -2.30365,-3.73591 -5.02356,-3.73591 -3.85234,0 -5.51038,3.27378 -5.51038,7.00969 0,3.52778 1.30527,7.09789 5.64444,7.09789 2.7446,0 4.44852,-1.84503 5.04825,-4.34975 h 1.56633 c -0.70556,3.05506 -2.63173,5.62328 -6.90385,5.62328 -4.91421,0 -6.86154,-3.84528 -6.86154,-8.32908 0,-6.04309 3.175,-8.32556 7.40833,-8.32556 3.27379,0 5.66563,1.73567 6.17363,5.00944 z"
         class="cls-30" />
      <path
         style="fill:#231f20;stroke-width:0.35277775"
         inkscape:connector-curvature="0"
         id="path2011"
         d="m 133.59506,220.88592 v -15.82208 h 1.50283 v 15.82208 z"
         class="cls-30" />
      <path
         style="fill:#231f20;stroke-width:0.35277775"
         inkscape:connector-curvature="0"
         id="path2013"
         d="m 144.39712,220.88592 6.26179,-15.82208 h 1.70392 l 6.10658,15.82208 h -1.54868 l -1.83798,-4.96711 h -7.26369 l -1.88031,4.96711 z m 3.937,-6.24064 h 6.24063 l -3.11854,-8.30791 z"
         class="cls-30" />
      <path
         style="fill:#231f20;stroke-width:0.35277775"
         inkscape:connector-curvature="0"
         id="path2015"
         d="m 167.25712,220.88592 v -15.82208 h 1.50636 v 14.54855 h 8.54075 v 1.27353 z"
         class="cls-30" />
      <path
         style="fill:#231f20;stroke-width:0.35277775"
         inkscape:connector-curvature="0"
         id="path2017"
         d="m 198.9295,220.88592 v -15.82208 h 2.30364 l 5.22111,13.95236 h 0.0458 l 5.13291,-13.95236 h 2.27897 v 15.82208 h -1.50284 v -14.11111 h -0.0317 l -5.22113,14.11111 h -1.4111 l -5.24227,-14.11111 h -0.0458 v 14.11111 z"
         class="cls-30" />
      <path
         style="fill:#231f20;stroke-width:0.35277775"
         inkscape:connector-curvature="0"
         id="path2019"
         d="m 222.60793,220.88592 6.26182,-15.82208 h 1.70391 l 6.10659,15.82208 h -1.54869 l -1.83798,-4.96711 h -7.25665 l -1.88029,4.96711 z m 3.937,-6.24064 h 6.24065 l -3.12208,-8.2938 z"
         class="cls-30" />
      <path
         style="fill:#231f20;stroke-width:0.35277775"
         inkscape:connector-curvature="0"
         id="path2021"
         d="m 256.78506,209.657 c -0.6209,-2.70227 -2.30013,-3.73591 -5.02356,-3.73591 -3.85234,0 -5.5104,3.27378 -5.5104,7.00969 0,3.52778 1.30529,7.09789 5.64446,7.09789 2.74108,0 4.445,-1.84503 5.0447,-4.34975 h 1.56988 c -0.70556,3.05506 -2.63173,5.62328 -6.90388,5.62328 -4.91066,0 -6.86151,-3.84528 -6.86151,-8.32908 0,-6.04309 3.175,-8.32556 7.40833,-8.32556 3.27377,0 5.6656,1.73567 6.1736,5.00944 z"
         class="cls-30" />
      <path
         style="fill:#231f20;stroke-width:0.35277775"
         inkscape:connector-curvature="0"
         id="path2023"
         d="m 268.07393,220.88592 v -15.82208 h 1.50638 v 6.79097 h 9.4262 v -6.79097 h 1.50284 v 15.82208 h -1.50284 v -7.76111 h -9.4262 v 7.76111 z"
         class="cls-30" />
      <path
         style="fill:#231f20;stroke-width:0.35277775"
         inkscape:connector-curvature="0"
         id="path2025"
         d="m 291.24791,220.88592 v -15.82208 h 1.50284 v 15.82208 z"
         class="cls-30" />
      <path
         style="fill:#231f20;stroke-width:0.35277775"
         inkscape:connector-curvature="0"
         id="path2027"
         d="m 305.01331,207.08525 h -0.0423 v 13.80067 h -1.50638 v -15.82208 h 1.69333 l 9.20398,13.82183 h 0.0458 v -13.82183 h 1.50638 v 15.82208 h -1.76389 z"
         class="cls-30" />
      <path
         style="fill:#231f20;stroke-width:0.35277775"
         inkscape:connector-curvature="0"
         id="path2029"
         d="m 326.13058,220.88592 v -15.82208 h 10.58333 v 1.28764 h -9.0946 v 5.715 h 8.23029 V 213.34 h -8.20912 v 6.2865 h 9.31685 v 1.27353 z"
         class="cls-30" />
      <path
         style="fill:#231f20;stroke-width:0.35277775"
         inkscape:connector-curvature="0"
         id="path2031"
         d="m 357.64775,205.06384 h 11.59581 v 1.28764 h -5.04825 v 14.54855 h -1.50283 v -14.54855 h -5.04473 z"
         class="cls-30" />
      <path
         style="fill:#231f20;stroke-width:0.35277775"
         inkscape:connector-curvature="0"
         id="path2033"
         d="m 384.75873,204.64756 c 4.97768,0 7.50003,3.71122 7.50003,8.35025 0,4.54731 -2.52235,8.30439 -7.43301,8.30439 -4.91067,0 -7.40834,-3.75708 -7.40834,-8.30439 -0.0282,-4.61433 2.58234,-8.35025 7.34132,-8.35025 z m 5.9972,8.35025 c 0,-4.39561 -2.27893,-7.07672 -5.95487,-7.07672 -4.09223,0 -5.88433,3.4043 -5.88433,7.07672 0,3.73592 1.76387,7.03086 5.93018,7.03086 4.16632,0 5.90902,-3.3408 5.90902,-7.03086 z"
         class="cls-30" />
      <path
         style="fill:#231f20;stroke-width:0.35277775"
         inkscape:connector-curvature="0"
         id="path2035"
         d="m 408.61708,204.64756 c 4.97768,0 7.50358,3.71122 7.50358,8.35025 0,4.54731 -2.5259,8.30439 -7.43656,8.30439 -4.91067,0 -7.40834,-3.75708 -7.40834,-8.30439 -0.0282,-4.61433 2.58234,-8.35025 7.34132,-8.35025 z m 5.99723,8.35025 c 0,-4.39561 -2.27896,-7.07672 -5.95138,-7.07672 -4.09575,0 -5.88785,3.4043 -5.88785,7.07672 0,3.73592 1.7639,7.03086 5.93018,7.03086 4.16632,0 5.90905,-3.3408 5.90905,-7.03086 z"
         class="cls-30" />
      <path
         style="fill:#231f20;stroke-width:0.35277775"
         inkscape:connector-curvature="0"
         id="path2037"
         d="m 425.74798,220.88592 v -15.82208 h 1.50635 v 14.54855 h 8.54075 v 1.27353 z"
         class="cls-30" />
      <polygon
         style="fill:#ce0e2d"
         id="polygon2039"
         points="1403.46,2598.06 1403.46,2524.63 1373.32,2524.63 1373.32,2710.82 1403.46,2710.82 1403.46,2624.54 1525.36,2624.54 1525.36,2710.82 1555.41,2710.82 1555.41,2524.63 1525.36,2524.63 1525.36,2598.06 "
         class="cls-32"
         transform="matrix(0.35277777,0,0,0.35277777,-286.53152,-818.69372)" />
      <path
         style="fill:#ce0e2d;stroke-width:0.35277775"
         inkscape:connector-curvature="0"
         id="path2041"
         d="m 308.62223,132.2364 c 1.05833,5.17878 4.68135,5.93019 8.46666,5.93019 a 47.08172,47.08172 0 0 0 7.14727,-0.55033 l 0.41982,-0.0706 v -7.39422 l -0.60325,0.11994 a 17.670638,17.670638 0 0 1 -3.06917,0.35278 c -2.53648,0 -3.57013,-1.03364 -3.57365,-3.57011 v -25.54464 c 0,-12.181415 -13.99823,-14.001748 -22.34141,-14.001748 -15.26469,0 -22.90586,5.383387 -24.04886,16.933328 l -0.0565,0.55387 h 9.5603 v -0.48684 c 0.22225,-5.997221 4.8542,-8.932331 14.16753,-8.932331 9.23222,0 13.17274,2.176637 13.17625,7.284861 0,3.71475 -2.51176,4.63903 -7.78933,5.20347 l -10.32579,1.08656 c -14.99306,1.60514 -20.83154,5.88786 -20.83154,15.26822 0,4.45558 1.93675,14.81667 19.80496,14.81667 6.72745,0.0177 15.55044,-2.18723 19.89667,-6.99912 z m -6.08897,-4.67431 c -3.41135,2.33186 -8.01862,3.61597 -12.97516,3.61597 -6.30767,0 -10.54452,-2.82222 -10.54452,-7.01322 0,-4.2933 2.89277,-6.35 10.33285,-7.28839 l 10.23057,-1.27 c 4.07106,-0.508 6.67101,-1.03011 8.30791,-2.18722 v 4.93889 c 0.0106,3.57717 -1.89441,6.85447 -5.35165,9.20397 z"
         class="cls-32" />
      <path
         style="fill:#ce0e2d;stroke-width:0.35277775"
         inkscape:connector-curvature="0"
         id="path2043"
         d="m 383.524,130.28201 a 17.712972,17.712972 0 0 1 -3.07269,0.35278 c -2.53648,0 -3.57013,-1.03364 -3.57365,-3.57011 v -25.54464 c 0,-12.181419 -13.99823,-14.001752 -22.34141,-14.001752 -15.26469,0 -22.90586,5.383387 -24.04886,16.933332 l -0.0565,0.55386 h 9.5603 l 0.0212,-0.48683 c 0.21871,-5.997225 4.85069,-8.932335 14.16402,-8.932335 9.23219,0 13.17273,2.176637 13.17625,7.284865 0,3.71475 -2.51177,4.63902 -7.78581,5.20347 l -10.32934,1.08655 c -14.99303,1.60514 -20.81387,5.88787 -20.81387,15.26823 0,4.45558 1.93321,14.81666 19.80142,14.81666 6.70277,0 15.5222,-2.20486 19.87902,-7.01675 1.05833,5.17878 4.67783,5.9302 8.46667,5.9302 a 47.046444,47.046444 0 0 0 7.14726,-0.55034 l 0.42334,-0.0706 v -7.38716 z m -16.17134,-11.91683 c 0,3.57011 -1.905,6.83683 -5.36223,9.19691 -3.4572,2.36009 -8.0151,3.61597 -12.97162,3.61597 -6.31121,0 -10.54806,-2.82222 -10.54806,-7.01322 0,-4.2933 2.89631,-6.35 10.33285,-7.28839 l 10.23056,-1.27 c 4.07107,-0.508 6.67102,-1.03011 8.30792,-2.18722 z"
         class="cls-32" />
      <path
         style="fill:#ce0e2d;stroke-width:0.35277775"
         inkscape:connector-curvature="0"
         id="path2045"
         d="m 386.51556,121.68482 0.0423,0.53975 c 0.82196,11.31005 9.17221,17.04622 24.78617,17.04622 7.53179,0 13.45845,-1.36173 17.6177,-4.04284 4.45207,-2.87161 6.7028,-7.13669 6.7028,-12.6753 0,-7.34836 -5.40808,-11.51114 -17.018,-13.09158 l -12.85875,-1.72156 c -6.26181,-0.88194 -7.44715,-2.57528 -7.44715,-5.38692 0,-2.33891 1.27,-4.109858 3.77825,-5.270498 2.05317,-0.948973 4.9671,-1.471083 8.21267,-1.471083 9.7649,0 13.49023,4.339166 13.72306,8.399641 l 0.0246,0.47625 h 10.08943 l -0.0494,-0.55033 c -0.93839,-10.583338 -9.35214,-16.400645 -23.69963,-16.400645 -6.6675,0 -12.23785,1.43228 -16.10428,4.141613 -3.95465,2.77636 -6.04663,6.80861 -6.04663,11.669892 0,7.82108 6.70279,12.20964 13.30679,13.09158 l 14.94719,1.99319 c 7.13668,0.98073 8.53017,2.88573 8.53017,5.83848 0,1.27705 -0.45509,3.10091 -2.63525,4.55083 -2.36715,1.57692 -6.18774,2.37419 -11.34886,2.37419 -10.64683,0 -14.44273,-4.65313 -14.46389,-9.00641 v -0.50447 z"
         class="cls-32" />
      <polygon
         style="fill:#231f20"
         id="polygon2047"
         points="1373.37,2860.78 1393.09,2860.78 1393.09,2810.07 1460.81,2810.07 1460.8,2792.58 1393.09,2792.58 1393.09,2761.9 1464.12,2761.9 1464.11,2744.41 1373.37,2744.41 "
         class="cls-30"
         transform="matrix(0.35277777,0,0,0.35277777,-286.53152,-818.69372)" />
      <path
         style="fill:#231f20;stroke-width:0.35277775"
         inkscape:connector-curvature="0"
         id="path2049"
         d="m 246.36048,149.47312 -0.0423,0.46214 c -0.38454,4.58611 -4.14163,6.88269 -11.15838,6.88269 h -1.85208 v 5.38692 h 11.72633 v 28.321 h 6.9568 v -41.05275 z"
         class="cls-30" />
      <polygon
         style="fill:#231f20"
         id="polygon2051"
         points="1696.88,2761.9 1696.88,2744.41 1591.29,2744.41 1591.29,2761.9 1634.23,2761.9 1634.23,2860.78 1653.99,2860.78 1653.99,2761.9 "
         class="cls-30"
         transform="matrix(0.35277777,0,0,0.35277777,-286.53152,-818.69372)" />
      <path
         style="fill:#231f20;stroke-width:0.35277775"
         inkscape:connector-curvature="0"
         id="path2053"
         d="m 324.20793,159.11806 c -5.49979,0 -10.05768,1.66864 -13.1727,4.826 -2.82223,2.86103 -4.37798,6.90033 -4.37798,11.38414 0,9.84603 6.90033,16.20661 17.56481,16.20661 5.58094,0 12.61533,-2.68817 15.61042,-10.23056 l 0.27516,-0.70555 h -7.01323 l -0.13406,0.29633 c -2.03904,4.44147 -6.98852,4.91772 -9.02052,4.91772 -4.53673,0 -9.56382,-2.90336 -10.2729,-8.30086 h 26.98398 v -1.23119 c -0.014,-12.65414 -8.509,-17.16264 -16.44298,-17.16264 z m -0.27868,5.72206 c 5.04473,0 8.69598,2.77636 9.66258,7.28838 h -19.70617 c 0.97367,-4.38502 4.93184,-7.28838 10.033,-7.28838 z"
         class="cls-30" />
      <path
         style="fill:#231f20;stroke-width:0.35277775"
         inkscape:connector-curvature="0"
         id="path2055"
         d="m 378.24291,185.60109 a 10.69975,10.69975 0 0 1 -1.86266,0.21166 c -1.45344,0 -2.02142,-0.56444 -2.02142,-2.01788 v -15.81503 c 0,-7.71172 -8.79827,-8.86178 -14.03702,-8.86178 -9.56733,0 -14.36158,3.38667 -15.08125,10.66094 l -0.0565,0.55739 h 6.31825 l 0.0212,-0.48683 c 0.13055,-3.59833 2.93513,-5.34811 8.57605,-5.34811 5.58445,0 7.9657,1.29469 7.96925,4.32153 0,2.16252 -1.4323,2.68464 -4.64963,3.02683 l -6.39585,0.67381 c -9.2851,0.99836 -13.05277,3.79236 -13.05277,9.64494 0,2.82222 1.2206,9.36625 12.4601,9.36625 4.07107,0 9.39094,-1.30175 12.19907,-4.14514 0.78316,3.03389 3.11853,3.47486 5.35516,3.47486 a 29.442833,29.442833 0 0 0 4.45911,-0.35278 l 0.42333,-0.0705 v -4.97064 z m -10.17058,-7.18961 c 0,2.14136 -1.14652,4.10986 -3.23144,5.53508 -2.08491,1.42522 -4.89656,2.20486 -7.92691,2.20486 -3.79238,0 -6.35,-1.66864 -6.35,-4.15219 0,-2.56823 1.68627,-3.73945 6.23003,-4.32153 l 6.35,-0.78317 c 2.31424,-0.28928 3.88057,-0.58914 4.9389,-1.19591 z"
         class="cls-30" />
      <path
         style="fill:#231f20;stroke-width:0.35277775"
         inkscape:connector-curvature="0"
         id="path2057"
         d="m 434.09468,170.01537 c 0,-8.59014 -7.34129,-10.87967 -11.67342,-10.87967 -5.05528,0 -8.83708,1.61925 -11.8392,5.09411 -2.26131,-3.29142 -5.79967,-5.09411 -10.04006,-5.09411 -2.82224,0 -7.84225,0.62089 -11.10192,4.55436 v -3.55247 h -6.6181 v 30.39886 h 6.64985 v -17.44133 c 0,-2.55059 0.94192,-4.67784 2.72343,-6.15245 1.63338,-1.34761 3.91232,-2.09197 6.41705,-2.09197 2.99508,0 6.56167,1.12889 6.56519,6.50169 v 19.18406 h 6.6181 v -18.28447 c 0,-2.41653 0.89958,-4.30036 2.69171,-5.60564 1.59102,-1.15711 3.88054,-1.79564 6.43819,-1.79564 2.99508,0 6.56518,1.12889 6.56873,6.50169 v 19.18406 h 6.61103 z"
         class="cls-30" />
      <polygon
         style="fill:#231f20"
         id="polygon2059"
         points="1535.05,2747.08 1539.6,2747.08 1539.59,2757.57 1541.37,2757.57 1541.38,2747.08 1545.93,2747.08 1545.93,2745.53 1535.05,2745.53 "
         class="cls-30"
         transform="matrix(0.35277777,0,0,0.35277777,-286.53152,-818.69372)" />
      <polygon
         style="fill:#231f20"
         id="polygon2061"
         points="1547.24,2745.53 1547.23,2757.57 1549.02,2757.57 1549.03,2747.78 1549.06,2747.78 1553.72,2757.57 1555.3,2757.57 1559.99,2747.58 1560.02,2747.58 1560.01,2757.57 1561.8,2757.57 1561.81,2745.53 1559.33,2745.53 1554.51,2755.51 1549.75,2745.53 "
         class="cls-30"
         transform="matrix(0.35277777,0,0,0.35277777,-286.53152,-818.69372)" />
      <path
         style="fill:#ce0e2d;stroke-width:0.35277775"
         inkscape:connector-curvature="0"
         id="path2063"
         d="M 109.03114,70.313315 A 62.018331,62.018331 0 0 0 47.012805,132.33165 c 0,1.17828 0.0423,2.3495 0.10583,3.52778 h -8.23031 l -8.46667,14.35099 h 19.20875 A 62.018331,62.018331 0 1 0 109.02408,70.330955 Z M 64.916285,150.19278 h 15.875 l -7.76113,13.25386 a 47.776694,47.776694 0 0 1 -8.11387,-13.25386 z m 44.125445,29.75328 A 47.438027,47.438027 0 0 1 75.848865,166.42409 h 11.73692 L 127.66133,97.777065 H 111.38064 L 89.155635,135.84179 h -27.58723 c -0.0847,-1.16064 -0.14462,-2.32834 -0.14462,-3.52778 0,-26.25372 21.36069,-47.625001 47.625005,-47.625001 a 47.476833,47.476833 0 0 1 34.29352,14.629693 l -21.30425,36.494858 h -11.71575 l -8.46667,14.351 H 113.649 l -9.47209,16.22778 h 16.28071 l 31.69002,-54.28544 a 47.311027,47.311027 0 0 1 4.5085,20.193 c -0.0177,26.28899 -21.36775,47.64616 -47.625,47.64616 z"
         class="cls-32" />
      <path
         style="fill:#ce0e2d;stroke-width:0.35277775"
         inkscape:connector-curvature="0"
         id="path2065"
         d="m -74.356855,68.937482 a 0.89605554,0.89605554 0 0 0 -0.77259,-0.448028 h -23.05755 a 0.89252774,0.89252774 0 0 0 -0.76906,0.440971 l -6.081885,10.421057 h -20.9938 l 5.55978,-9.525 a 0.89252774,0.89252774 0 0 0 -0.76906,-1.340556 h -23.03991 a 0.89252774,0.89252774 0 0 0 -0.76906,0.440972 l -6.09953,10.424584 h -87.79228 a 5.2493333,5.2493333 0 0 0 -5.25639,5.23875 v 37.800138 h -9.38036 a 0.8854722,0.8854722 0 0 0 -0.76553,0.43745 l -11.99444,20.32352 a 0.88899997,0.88899997 0 0 0 0.76905,1.34055 h 21.35717 v 55.06509 h 28.92778 l 11.66636,-19.98486 h 8.5725 l -21.03967,36.03977 h -8.5478 l 4.97416,-8.52311 h -24.53922 v 10.795 a 5.2458054,5.2458054 0 0 0 5.25639,5.2317 h 143.933335 a 5.2422777,5.2422777 0 0 0 5.25638,-5.2317 v -30.77633 h -29.075935 a 1.6756944,1.6756944 0 0 0 -1.44992,0.82903 l -3.175,5.42219 h 10.88673 a 3.1961667,3.1961667 0 0 1 2.75872,4.80483 l -8.97114,15.35995 a 4.2121667,4.2121667 0 0 1 -3.63714,2.08844 h -23.53028 v -8.52311 h -7.64116 l 4.40619,-7.5318 h 3.23145 v -5.59506 l 7.24252,-12.42483 v 26.61003 h 12.96459 a 2.0108333,2.0108333 0 0 0 1.72155,-0.97367 l 3.80295,-6.30767 h -11.27125 a 3.2138054,3.2138054 0 0 1 -2.77636,-4.83658 l 8.48783,-14.53092 a 4.205111,4.205111 0 0 1 3.63714,-2.08844 h 32.377935 V 96.214259 l 15.40228,-26.387777 a 0.89605554,0.89605554 0 0 0 0.004,-0.889 z m -126.693085,97.662998 13.40556,-22.987 h -77.91097 l 11.99444,-20.32353 h 77.79455 l 31.48543,-53.907968 h 23.05755 l -5.83847,9.9695 v 0 l -50.93053,87.248998 z m -6.3253,49.03611 4.97416,-8.52311 h -6.19125 l 4.44147,-7.53181 h 6.14892 l 11.66636,-19.98486 h 8.54075 l -21.03614,36.03978 z m 12.88344,0 21.03614,-36.03978 h 8.38553 l -21.03967,36.03978 z m 33.45745,0 h -9.87778 v -8.52311 h -7.82109 l 4.43089,-7.53181 h 3.38667 v -5.85258 l 7.08731,-12.16731 v 23.25864 l 14.9613,-25.22361 h 8.87589 z m 29.15355,-49.03611 h -23.05755 l 13.40555,-22.987 h -16.69344 l 11.97681,-20.32353 h 16.58055 l 31.471305,-53.907968 h 23.06108 z"
         class="cls-32" />
      <path
         style="fill:#ffffff;stroke-width:0.35277775"
         inkscape:connector-curvature="0"
         id="path2067"
         d="m -118.82802,187.11803 h 29.065355 v -7.69761 H -122.1406 a 4.205111,4.205111 0 0 0 -3.63714,2.08845 l -8.48783,14.53091 a 3.2138054,3.2138054 0 0 0 2.77636,4.83659 h 11.26772 l -3.80295,6.30766 a 2.0108333,2.0108333 0 0 1 -1.72155,0.97367 h -12.96458 v -26.61003 l -7.24253,12.42483 v 5.59506 h -3.23145 l -4.40619,7.53181 h 7.64117 v 8.52311 h 23.54086 a 4.2121667,4.2121667 0 0 0 3.63714,-2.08845 l 8.97113,-15.35994 a 3.1961667,3.1961667 0 0 0 -2.75872,-4.80484 h -10.90789 l 3.175,-5.42219 a 1.6756944,1.6756944 0 0 1 1.46403,-0.82903 z"
         class="cls-33" />
      <polygon
         style="fill:#ffffff"
         id="polygon2069"
         points="284.02,2829.76 250.95,2886.41 233.52,2886.41 220.93,2907.76 238.49,2907.76 224.39,2931.92 248.62,2931.92 308.25,2829.76 "
         class="cls-33"
         transform="matrix(0.35277777,0,0,0.35277777,-286.53152,-818.69372)" />
      <polygon
         style="fill:#ffffff"
         id="polygon2071"
         points="235.1,2829.76 202.03,2886.41 120.01,2886.41 120.01,2907.76 189.57,2907.76 175.47,2931.92 199.7,2931.92 259.33,2829.76 "
         class="cls-33"
         transform="matrix(0.35277777,0,0,0.35277777,-286.53152,-818.69372)" />
      <polygon
         style="fill:#ffffff"
         id="polygon2073"
         points="320.54,2829.76 260.9,2931.92 284.67,2931.92 344.3,2829.76 "
         class="cls-33"
         transform="matrix(0.35277777,0,0,0.35277777,-286.53152,-818.69372)" />
      <polygon
         style="fill:#ffffff"
         id="polygon2075"
         points="415.38,2829.76 390.21,2829.76 347.81,2901.27 347.81,2835.34 327.72,2869.82 327.73,2886.41 318.14,2886.41 305.58,2907.76 327.75,2907.76 327.77,2931.92 355.74,2931.92 "
         class="cls-33"
         transform="matrix(0.35277777,0,0,0.35277777,-286.53152,-818.69372)" />
      <polygon
         style="fill:#ffffff"
         id="polygon2077"
         points="533.89,2517.38 444.69,2670.19 397.66,2670.19 363.7,2727.8 411.06,2727.8 373.02,2792.96 438.38,2792.96 599.25,2517.38 "
         class="cls-33"
         transform="matrix(0.35277777,0,0,0.35277777,-286.53152,-818.69372)" />
      <polygon
         style="fill:#ffffff"
         id="polygon2079"
         points="403.19,2517.38 313.98,2670.19 93.42,2670.19 59.46,2727.8 280.35,2727.8 242.31,2792.96 307.67,2792.96 468.55,2517.38 "
         class="cls-33"
         transform="matrix(0.35277777,0,0,0.35277777,-286.53152,-818.69372)" />
      <polygon
         style="fill:#ce0e2d"
         id="polygon2081"
         points="600.97,3027.02 598.85,3027.02 937.17,2441.03 957.29,2441.03 "
         class="cls-32"
         transform="matrix(0.35277777,0,0,0.35277777,-286.53152,-818.69372)" />
    </g>
  </g>
</svg>
