<?xml version="1.0" encoding="UTF-8" standalone="no"?>
<!-- Created with Inkscape (http://www.inkscape.org/) -->

<svg
   xmlns:dc="http://purl.org/dc/elements/1.1/"
   xmlns:cc="http://creativecommons.org/ns#"
   xmlns:rdf="http://www.w3.org/1999/02/22-rdf-syntax-ns#"
   xmlns:svg="http://www.w3.org/2000/svg"
   xmlns="http://www.w3.org/2000/svg"
   xmlns:sodipodi="http://sodipodi.sourceforge.net/DTD/sodipodi-0.dtd"
   xmlns:inkscape="http://www.inkscape.org/namespaces/inkscape"
   id="svg2"
   version="1.1"
   inkscape:version="0.91 r13725"
   width="260.10001"
   height="67.050003"
   viewBox="0 0 260.10001 67.050003"
   sodipodi:docname="hamrock pdf- new logo-black.svg">
  <metadata
     id="metadata8">
    <rdf:RDF>
      <cc:Work
         rdf:about="">
        <dc:format>image/svg+xml</dc:format>
        <dc:type
           rdf:resource="http://purl.org/dc/dcmitype/StillImage" />
        <dc:title></dc:title>
      </cc:Work>
    </rdf:RDF>
  </metadata>
  <defs
     id="defs6" />
  <sodipodi:namedview
     pagecolor="#ffffff"
     bordercolor="#666666"
     borderopacity="1"
     objecttolerance="10"
     gridtolerance="10"
     guidetolerance="10"
     inkscape:pageopacity="0"
     inkscape:pageshadow="2"
     inkscape:window-width="2560"
     inkscape:window-height="1371"
     id="namedview4"
     showgrid="false"
     inkscape:zoom="6.4811324"
     inkscape:cx="131.23688"
     inkscape:cy="39.182515"
     inkscape:window-x="0"
     inkscape:window-y="27"
     inkscape:window-maximized="1"
     inkscape:current-layer="svg2" />
  <path
     style="fill:#000000"
     d="M 12.414508,61.342143 C 11.382864,61.172698 10.233797,60.774945 9.3646487,60.286422 8.3470818,59.714478 6.9742597,58.24846 6.5132233,57.241423 5.6651723,55.389035 5.6907014,56.209816 5.7346054,32.208214 L 5.7750002,10.125 6.1318444,9.2250004 C 6.9562813,7.1456802 8.5814142,5.5395182 10.716069,4.69429 L 11.775,4.2750002 36.525001,4.233045 c 17.633256,-0.029891 25.038927,0.00598 25.754803,0.1247544 2.928835,0.4859306 5.347388,2.7710985 6.039232,5.7061616 0.331849,1.407832 0.341734,43.913738 0.01058,45.476513 -0.549378,2.592576 -2.328359,4.4868 -5.130434,5.462786 l -1.174175,0.408975 -24.450001,0.0233 c -13.4475,0.01281 -24.769722,-0.02921 -25.160493,-0.09339 z m 9.255249,-3.822077 c 1.770924,-0.461266 2.103151,-0.738019 8.452908,-7.041488 3.326216,-3.301966 6.183596,-6.222951 6.349734,-6.491076 l 0.30207,-0.4875 -0.30829,-0.4875 c -0.169559,-0.268125 -1.287803,-1.463361 -2.484986,-2.65608 -2.468958,-2.459753 -3.104022,-3.431819 -3.395383,-5.197164 -0.138495,-0.83913 -0.127703,-1.274802 0.0572,-2.309257 0.125346,-0.70125 0.198008,-1.305813 0.161472,-1.343475 -0.1329,-0.136992 -15.3831,15.23851 -15.952077,16.083145 -1.531593,2.273624 -1.680919,4.820429 -0.411034,7.010331 0.394523,0.680351 1.54627,1.882187 2.184086,2.279071 1.315257,0.818427 3.363716,1.078729 5.044301,0.640993 z m 34.760038,-0.0801 c 3.796941,-1.279096 5.401215,-5.460702 3.535323,-9.214964 -0.382101,-0.768804 -1.68586,-2.142619 -8.943711,-9.424296 -4.673022,-4.688364 -8.981996,-8.917724 -9.575496,-9.398578 -1.493561,-1.210084 -2.441524,-1.56057 -4.24591,-1.56982 -1.134891,-0.0058 -1.609464,0.06273 -2.331081,0.336732 -1.119964,0.425251 -2.218981,1.241155 -2.918488,2.166673 -1.47522,1.951863 -1.581293,4.895233 -0.258186,7.164289 0.336793,0.577581 3.000486,3.358398 8.881911,9.272451 8.180051,8.22543 9.790476,9.75187 10.875845,10.308652 1.4496,0.743628 3.41681,0.885393 4.979793,0.358861 z M 14.113454,48.262502 c 0.27699,-0.440908 3.052896,-3.36891 6.307203,-6.652785 3.264284,-3.29394 5.851312,-6.022985 5.901059,-6.225 0.04872,-0.197843 0.06939,-5.692216 0.04594,-12.209716 l -0.04265,-11.85 L 25.860625,10.35 C 25.069214,8.688364 23.446289,7.4243178 21.608626,7.038251 c -0.449006,-0.09433 -1.427756,-0.1446633 -2.175,-0.1118523 -1.129068,0.049577 -1.52649,0.1382586 -2.352132,0.5248602 -1.16211,0.5441514 -2.030798,1.2847208 -2.663462,2.2706425 -0.955393,1.4888506 -0.918031,0.6378776 -0.918031,20.9096146 0,10.130167 0.02671,18.418486 0.05936,18.418486 0.03265,0 0.28199,-0.354375 0.55409,-0.7875 z m 46.636548,-7.738661 c 0,-9.081278 -0.0092,-9.196671 -0.829521,-10.380363 -0.504669,-0.728238 -1.68144,-1.540983 -2.845479,-1.965251 -0.738453,-0.269151 -1.223092,-0.32803 -2.7,-0.32803 -2.05602,0 -3.027675,0.263539 -4.372691,1.185999 -1.504476,1.031824 -2.002309,2.206393 -2.002309,4.724175 l 0,1.612691 0.578652,0.72597 c 0.318258,0.399283 2.900133,3.022513 5.7375,5.829399 4.02243,3.979218 5.274498,5.308208 5.683848,6.033039 0.28875,0.511286 0.575625,0.931617 0.6375,0.934071 0.06188,0.0025 0.1125,-3.764811 0.1125,-8.3717 z M 57.041077,24.939004 c 1.328739,-0.623241 2.521057,-1.810702 3.134617,-3.121851 0.831107,-1.776036 0.74043,-4.30389 -0.212257,-5.917152 -0.765594,-1.296444 -2.088378,-2.352598 -3.575873,-2.855092 -1.380583,-0.466379 -3.451332,-0.37551 -4.657968,0.204401 -2.404349,1.155533 -3.729594,3.239298 -3.729594,5.864265 0,2.91321 1.721367,5.24012 4.575,6.184393 0.373613,0.123628 1.137671,0.183274 2.025,0.158082 1.239318,-0.03519 1.557398,-0.102561 2.441075,-0.517046 z M 126.42575,55.74221 c -1.30141,-0.279898 -2.21656,-0.92016 -2.71173,-1.897204 -0.22857,-0.451002 -0.45816,-1.140629 -0.51019,-1.532504 l -0.0946,-0.7125 0.59652,0 0.59652,0 0.18886,0.843945 c 0.33455,1.494927 1.64024,2.456055 3.33655,2.456055 2.4081,0 4.3198,-1.887568 3.48222,-3.438256 -0.40467,-0.749208 -1.06043,-1.132179 -2.96568,-1.731993 -0.91807,-0.289029 -1.95023,-0.695543 -2.29369,-0.903363 -1.63687,-0.990438 -1.68442,-3.821636 -0.0827,-4.927703 1.10436,-0.762638 1.65234,-0.913226 3.34283,-0.918623 1.47316,-0.0047 1.64832,0.02701 2.47001,0.447236 1.06175,0.543001 1.65421,1.390515 1.80719,2.585202 l 0.10084,0.7875 -0.60614,0 c -0.58967,0 -0.60887,-0.0162 -0.70692,-0.596506 -0.23547,-1.393737 -1.38384,-2.253494 -3.00999,-2.253494 -2.07187,0 -3.51548,1.126998 -3.3191,2.59115 0.14728,1.098054 0.62183,1.402315 4.02494,2.580621 2.00989,0.695913 2.83937,1.752499 2.62183,3.339657 -0.23295,1.699551 -1.49511,2.892354 -3.51315,3.320091 -0.97764,0.207218 -1.65292,0.19758 -2.75437,-0.03931 z m 23.19926,0.07566 c -1.20594,-0.315358 -2.19498,-1.231723 -2.48608,-2.303395 -0.24291,-0.89423 -0.0901,-2.854797 0.30348,-3.894714 0.40513,-1.070325 1.46497,-2.267093 2.44955,-2.766017 1.55795,-0.789466 3.53897,-0.558108 4.63883,0.541755 0.49069,0.490692 0.56922,0.662544 0.56922,1.24581 0,1.016496 -0.68906,1.153254 -1.06019,0.210417 -0.96207,-2.444047 -4.16537,-1.871925 -5.47696,0.978207 -0.5642,1.226034 -0.62459,3.027194 -0.12974,3.869562 0.45991,0.782904 1.17089,1.20051 2.04389,1.20051 1.02919,0 1.582,-0.280816 2.46873,-1.254067 0.62241,-0.68316 0.86095,-0.845933 1.23966,-0.845933 l 0.46893,0 -0.4494,0.890265 c -0.67224,1.331675 -1.75038,2.035556 -3.33135,2.174895 -0.43922,0.03871 -1.00107,0.01743 -1.24857,-0.04729 z m 9,-0.0081 c -1.15223,-0.280507 -2.18616,-1.210534 -2.46599,-2.21814 -0.34303,-1.23526 -0.14533,-3.185752 0.45162,-4.455729 1.17129,-2.491786 4.2384,-3.534342 6.30422,-2.142883 0.78679,0.529957 1.2007,1.420087 1.29412,2.783023 0.11949,1.743396 0.27683,1.673994 -3.79468,1.673994 l -3.36429,0 0,0.604818 c 0,1.082372 0.62919,2.165721 1.53004,2.634434 0.51476,0.267822 1.63529,0.271044 2.26838,0.0065 0.26881,-0.112323 0.78978,-0.55068 1.15767,-0.974126 0.46902,-0.539835 0.8197,-0.799204 1.17355,-0.867955 0.47846,-0.09296 0.49907,-0.07939 0.39693,0.261627 -0.59292,1.979715 -2.84763,3.206622 -4.95157,2.694418 z m 4.28485,-5.415016 c 0.70193,-0.375656 0.0508,-2.208998 -0.9961,-2.804756 -1.04303,-0.593541 -2.33705,-0.358822 -3.33615,0.605135 -0.6236,0.601659 -1.0154,1.238805 -1.14834,1.867398 l -0.1031,0.4875 2.64678,0 c 1.53764,0 2.76836,-0.06507 2.93691,-0.155277 z m 18.84027,5.346564 c -1.30536,-0.362313 -1.93936,-1.070298 -2.13025,-2.378787 l -0.10394,-0.7125 0.50454,0.0017 c 0.46817,0.0015 0.52614,0.05738 0.80453,0.774864 0.165,0.425259 0.4806,0.906433 0.70132,1.069278 0.49496,0.365151 1.70963,0.498097 2.41724,0.264565 1.09407,-0.361074 2.61834,-2.541448 2.89098,-4.135375 l 0.10263,-0.6 -0.50609,0.479898 c -0.69664,0.66061 -1.45857,0.945109 -2.53108,0.945109 -1.48787,0 -2.55177,-0.635835 -3.13304,-1.872429 -0.45853,-0.975478 -0.4416,-2.729416 0.0362,-3.752571 0.77872,-1.667453 1.78666,-2.317206 3.77181,-2.431442 1.0963,-0.06309 1.27128,-0.03231 2.02485,0.356195 1.45698,0.75115 1.90264,1.945164 1.75431,4.700247 -0.1275,2.368146 -0.90153,4.542251 -2.11952,5.953358 -1.02451,1.186947 -2.95425,1.762673 -4.48452,1.337929 z m 3.60261,-5.35083 c 1.48238,-0.560079 2.3931,-2.810714 1.78338,-4.407216 -0.89182,-2.335228 -3.98677,-2.306189 -5.2171,0.04895 -0.89703,1.717101 -0.30669,3.831785 1.23099,4.40958 0.39057,0.146762 1.76311,0.114788 2.20273,-0.05131 z m 16.92227,5.427412 c -1.15209,-0.301279 -2.12682,-1.167577 -2.49503,-2.217499 -0.32709,-0.932673 -0.2494,-3.493235 0.15171,-5.000366 0.90899,-3.415387 2.41071,-5.014932 4.89326,-5.212008 1.79433,-0.142442 3.03471,0.560161 3.44844,1.953351 0.32745,1.102659 0.31027,1.158657 -0.35558,1.158657 -0.56059,0 -0.58819,-0.02387 -0.74421,-0.643408 -0.25393,-1.008503 -1.07827,-1.606592 -2.21433,-1.606592 -1.53861,0 -3.44182,2.135042 -3.74395,4.2 l -0.0988,0.675 0.39652,-0.41113 c 0.56507,-0.585878 1.20071,-0.876647 2.12492,-0.972033 2.43076,-0.250878 4.1089,1.468401 3.92617,4.022422 -0.17092,2.388924 -1.66951,3.896795 -4.08027,4.105565 -0.41739,0.03615 -0.96139,0.01276 -1.20889,-0.05196 z m 1.83765,-0.942993 c 1.81593,-0.457255 2.95891,-2.949727 2.15524,-4.699872 -0.32772,-0.713673 -0.66223,-1.033488 -1.40607,-1.344279 -2.02356,-0.845499 -4.14973,0.757064 -4.15852,3.134421 -0.006,1.507415 0.77061,2.648379 2.0014,2.941967 0.66944,0.159685 0.64338,0.160282 1.40795,-0.03224 z m -70.08943,0.437628 c 0.0434,-0.185625 0.45089,-2.12625 0.90548,-4.3125 0.85991,-4.135474 0.94265,-4.35 1.67782,-4.35 0.2856,0 0.33476,0.06146 0.26996,0.3375 -0.14806,0.630731 -1.72648,8.059251 -1.72648,8.125338 0,0.202113 -0.52305,0.537162 -0.83858,0.537162 -0.30413,0 -0.35359,-0.05792 -0.2882,-0.3375 z m 3.15,0 c 0.0434,-0.185625 0.45089,-2.12625 0.90548,-4.3125 0.84439,-4.060842 0.95136,-4.35 1.60916,-4.35 0.24963,0 0.26877,0.07846 0.17382,0.7125 l -0.1067,0.7125 0.61355,-0.554014 c 0.97732,-0.882494 1.47662,-1.087646 2.65647,-1.091496 0.78432,-0.0026 1.17415,0.07152 1.54068,0.292765 0.60809,0.367061 1.08432,1.316517 1.08432,2.161824 0,0.893528 -1.20469,6.299174 -1.46092,6.555404 -0.11578,0.115785 -0.37573,0.210517 -0.57766,0.210517 -0.30396,0 -0.35365,-0.05808 -0.28876,-0.3375 0.47852,-2.060425 1.12734,-5.646733 1.12734,-6.231286 0,-2.790362 -3.83508,-2.058314 -4.94434,0.943786 -0.30322,0.82062 -0.57794,1.945052 -1.05361,4.3124 -0.19489,0.969921 -0.45351,1.3126 -0.99063,1.3126 -0.30413,0 -0.35359,-0.05792 -0.2882,-0.3375 z m 36.13207,0.075 c 0.0415,-0.144375 0.22102,-1.005 0.39888,-1.9125 0.17787,-0.9075 0.62005,-3.029014 0.98263,-4.714476 0.36258,-1.685461 0.63954,-3.084175 0.61547,-3.108253 -0.0241,-0.02408 -0.7476,0.1524 -1.60782,0.392173 -0.86024,0.239775 -1.59311,0.406899 -1.62861,0.37139 -0.0355,-0.03551 0.005,-0.216726 0.0896,-0.402699 0.10321,-0.226401 0.54498,-0.498098 1.33686,-0.822222 0.65047,-0.26625 1.50631,-0.752027 1.90185,-1.079506 0.71938,-0.595602 1.25455,-0.862693 1.41237,-0.704875 0.12015,0.120144 -0.38543,2.649233 -2.14001,10.705347 -0.26028,1.195074 -0.4972,1.538121 -1.06234,1.538121 -0.28533,0 -0.35643,-0.06245 -0.29889,-0.2625 z m 17.64471,0.213773 c 0,-0.0268 0.16639,-0.537939 0.36976,-1.135863 0.9531,-2.802249 3.21395,-6.460542 5.55606,-8.990306 l 0.85649,-0.925104 -3.32627,0 -3.32626,0 0.10026,-0.3375 c 0.20343,-0.684818 0.36751,-0.7125 4.22362,-0.7125 2.87526,0 3.64634,0.04087 3.64634,0.193284 0,0.404722 -0.5916,1.322295 -1.67852,2.60339 -1.95589,2.305326 -3.21625,4.372843 -4.46131,7.318383 -0.41615,0.984531 -0.84182,1.844122 -0.9459,1.910203 -0.18104,0.114921 -1.01427,0.177366 -1.01427,0.07601 z M 136.25777,44.587502 c 0.0429,-0.144375 0.12271,-0.449906 0.17737,-0.678957 0.10686,-0.44783 0.45826,-0.708543 0.955,-0.708543 0.36321,0 0.35262,-0.06412 0.14744,0.892617 -0.16213,0.755946 -0.16357,0.757383 -0.76011,0.757383 -0.49893,0 -0.5848,-0.04337 -0.5197,-0.2625 z m 62.49224,-8.212253 c 0,-0.289816 0.38101,-0.710079 0.94162,-1.038618 1.33398,-0.781762 2.05838,-1.889048 2.05838,-3.146342 l 0,-0.669346 -0.48651,0.13953 c -0.26759,0.07674 -0.76784,0.139528 -1.11167,0.139528 -1.53624,0 -1.91655,-2.193414 -0.50673,-2.92246 1.25654,-0.649787 2.73671,0.08759 3.24447,1.616298 0.64466,1.940871 -0.55317,4.303823 -2.73853,5.402352 -0.84242,0.423465 -1.40103,0.614471 -1.40103,0.479058 z m -39.0911,-4.627484 c -4.67145,-1.190073 -6.41806,-7.378183 -3.28659,-11.644107 1.7583,-2.395292 5.50518,-3.108441 8.15976,-1.553064 4.71459,2.762386 3.88604,11.23184 -1.26706,12.951824 -1.1778,0.393123 -2.63648,0.492366 -3.60611,0.245347 z m 2.83922,-1.008582 c 0.84205,-0.233824 1.68213,-1.068781 2.07601,-2.06334 0.29264,-0.738922 0.33699,-1.127074 0.33729,-2.950842 0,-2.25894 -0.20163,-3.337162 -0.90331,-4.821429 -1.12475,-2.37918 -3.85421,-2.999102 -5.37615,-1.221045 -0.84245,0.984196 -1.05696,1.830034 -1.05696,4.167474 0,1.813683 0.0438,2.158052 0.41968,3.3 0.56375,1.712685 1.33401,2.806766 2.34959,3.337308 0.85755,0.447984 1.27275,0.496539 2.15385,0.251874 z m 11.91376,1.05677 c -0.93303,-0.234485 -2.05666,-0.87906 -2.71728,-1.55879 -2.54017,-2.613648 -2.48505,-8.200854 0.10608,-10.750347 2.26587,-2.229473 6.22214,-2.372549 8.10092,-0.292965 1.00215,1.109265 1.0047,2.305437 0.006,2.779389 -1.01475,0.48153 -1.84989,-0.03773 -2.16845,-1.348239 -0.24793,-1.019994 -0.3801,-1.243421 -0.93615,-1.582466 -0.56356,-0.343626 -1.55634,-0.381207 -2.24524,-0.08499 -0.67566,0.290518 -1.53207,1.231225 -1.9277,2.117457 -0.40561,0.908619 -0.54699,2.913857 -0.29202,4.142049 0.38135,1.836903 1.61555,3.565466 2.94128,4.11939 0.65755,0.274748 1.88679,0.273561 2.5474,-0.0025 0.74457,-0.311106 1.99401,-1.536058 2.41584,-2.36851 0.80435,-1.587291 0.93455,-0.160083 0.13719,1.503729 -1.19578,2.495176 -3.70683,3.894961 -5.96779,3.326752 z m 68.25,0 c -0.93303,-0.234485 -2.05666,-0.87906 -2.71728,-1.55879 -2.54017,-2.613648 -2.48505,-8.200854 0.10608,-10.750347 2.26587,-2.229473 6.22214,-2.372549 8.10092,-0.292965 1.00215,1.109265 1.0047,2.305437 0.006,2.779389 -1.01475,0.48153 -1.84989,-0.03773 -2.16845,-1.348239 -0.24793,-1.019994 -0.3801,-1.243421 -0.93615,-1.582466 -0.56356,-0.343626 -1.55634,-0.381207 -2.24524,-0.08499 -0.67566,0.290518 -1.53207,1.231225 -1.9277,2.117457 -0.40561,0.908619 -0.54699,2.913857 -0.29202,4.142049 0.38135,1.836903 1.61555,3.565466 2.94128,4.11939 0.65755,0.274748 1.88679,0.273561 2.5474,-0.0025 0.74457,-0.311106 1.99401,-1.536058 2.41584,-2.36851 0.80435,-1.587291 0.93455,-0.160083 0.13719,1.503729 -1.19578,2.495176 -3.70683,3.894961 -5.96779,3.326752 z m 11.04629,0.04706 c -0.58167,-0.107331 -1.17635,-0.890818 -1.17635,-1.54983 0,-1.716766 2.53485,-2.134176 3.07223,-0.505897 0.39339,1.191969 -0.62028,2.291104 -1.89588,2.055727 z M 110.35275,31.65621 c -1.55782,-0.499829 -2.52621,-2.451951 -2.06484,-4.162401 0.41481,-1.537802 1.79439,-2.638464 4.95856,-3.956066 2.36563,-0.985078 2.50199,-1.126383 2.33979,-2.424578 -0.23523,-1.882764 -1.82626,-2.982784 -3.3016,-2.282691 -0.75206,0.356871 -1.03012,0.834575 -1.14784,1.971956 -0.11039,1.066537 -0.37792,1.477854 -1.05847,1.627326 -1.50001,0.32946 -1.75231,-2.063684 -0.36393,-3.452064 0.87341,-0.873414 1.9646,-1.202691 3.98558,-1.202691 1.77984,0 2.47217,0.184123 3.24553,0.863145 1.02089,0.896355 1.0214,0.899089 1.10443,5.976704 0.0791,4.836097 0.1171,5.085151 0.77637,5.085151 0.15927,0 0.53891,-0.169417 0.84364,-0.376485 0.65499,-0.445077 0.75642,-0.307608 0.35254,0.47778 -0.7363,1.431792 -2.51658,2.29058 -3.57459,1.724346 -0.37184,-0.199 -0.79792,-1.046725 -0.79792,-1.587537 0,-0.389223 -0.005,-0.387645 -0.80569,0.264695 -1.53236,1.248123 -3.32423,1.827948 -4.49156,1.45341 z m 3.8397,-2.023928 c 0.31209,-0.149136 0.76772,-0.458241 1.0125,-0.686899 l 0.44505,-0.415745 0,-2.499927 0,-2.499927 -0.3375,0.103191 c -2.19937,0.672456 -4.05489,1.907565 -4.4533,2.964291 -0.41841,1.109804 -0.0353,2.600903 0.8038,3.128795 0.56342,0.354442 1.67793,0.313122 2.52945,-0.09378 z m -28.392447,1.803434 c 0,-0.226643 0.546642,-0.535803 0.948215,-0.536276 0.262231,-3e-4 0.700222,-0.136786 0.973312,-0.303283 0.931241,-0.567762 0.928473,-0.540975 0.928473,-8.988302 0,-6.711233 -0.02994,-7.726616 -0.243592,-8.260582 -0.284351,-0.710661 -0.792138,-1.024186 -1.864472,-1.151188 -0.482692,-0.05717 -0.741936,-0.15919 -0.741936,-0.291978 0,-0.167368 0.769497,-0.204106 4.275,-0.204106 3.700001,0 4.275001,0.03026 4.275001,0.225 0,0.15317 -0.155631,0.226051 -0.4875,0.228294 -0.688721,0.0047 -1.690101,0.496848 -2.013306,0.989573 -0.242885,0.370275 -0.279579,0.834165 -0.321351,4.062569 l -0.04716,3.644564 4.659659,0 4.659653,0 -0.0121,-3.2625 c -0.007,-1.967615 -0.0817,-3.528541 -0.1875,-3.932796 -0.21496,-0.821329 -0.857185,-1.305471 -1.918503,-1.44626 -0.472827,-0.06272 -0.731923,-0.169901 -0.731923,-0.302769 0,-0.169337 0.742053,-0.205675 4.199996,-0.205675 3.45795,0 4.2,0.03634 4.2,0.205675 0,0.132868 -0.25909,0.240046 -0.73192,0.302769 -1.10027,0.145956 -1.70327,0.620754 -1.93272,1.521808 -0.29722,1.167204 -0.19522,15.430108 0.11464,16.031259 0.33575,0.651361 0.93585,1.021558 1.78883,1.103518 0.6179,0.05937 0.76117,0.126015 0.76117,0.354056 0,0.267865 -0.19511,0.280915 -4.2,0.280915 -4.099996,0 -4.199996,-0.0071 -4.199996,-0.3 0,-0.252853 0.100186,-0.300088 0.6375,-0.300561 0.784845,-7.5e-4 1.506026,-0.417826 1.867716,-1.080306 0.23261,-0.426043 0.27634,-0.962979 0.31733,-3.896587 0.0457,-3.272205 0.0357,-3.414323 -0.2625,-3.712501 -0.29914,-0.299139 -0.46306,-0.310045 -4.660046,-0.310045 l -4.35,0 9e-4,3.5625 c 4.5e-4,1.980174 0.06943,3.809469 0.155265,4.118535 0.208741,0.75159 0.874486,1.205235 1.892653,1.289669 0.659943,0.05473 0.801182,0.116053 0.801182,0.347871 0,0.268651 -0.194052,0.281425 -4.275001,0.281425 -2.35125,0 -4.275,-0.02893 -4.275,-0.06429 z m 35.192977,-0.153459 c 0.0459,-0.11976 0.33071,-0.297044 0.63279,-0.393965 1.26254,-0.405079 1.3745,-0.8467 1.37337,-5.417214 -0.001,-5.058392 -0.18762,-5.821077 -1.42239,-5.821077 -0.2695,0 -0.56491,-0.09025 -0.65646,-0.200559 -0.13334,-0.160659 0.13904,-0.32196 1.36913,-0.810788 1.51449,-0.601845 2.55658,-0.936181 2.92308,-0.937816 0.13642,-6e-4 0.1875,0.373471 0.1875,1.372939 l 0,1.373775 0.96671,-0.928275 c 2.04646,-1.965114 4.40855,-2.35395 5.93303,-0.976669 0.32051,0.289557 0.6971,0.825924 0.83688,1.19193 0.13978,0.366004 0.2956,0.664611 0.34626,0.66357 0.0507,-0.001 0.41362,-0.36849 0.80656,-0.816554 1.02344,-1.16701 2.36243,-1.806553 3.78231,-1.806553 1.33543,0 2.07492,0.357979 2.7278,1.320507 0.70325,1.036782 0.80046,1.785363 0.80046,6.164493 0,4.840284 0.0967,5.246789 1.33689,5.618352 0.32013,0.09591 0.62068,0.275022 0.66788,0.398019 0.0744,0.193991 -0.35094,0.223629 -3.20948,0.223629 -3.11788,0 -3.29529,-0.01509 -3.29529,-0.280249 0,-0.215262 0.14444,-0.299624 0.62288,-0.363797 0.38989,-0.05229 0.76863,-0.229197 1.0125,-0.472917 l 0.38962,-0.389368 0.0444,-4.042809 c 0.0494,-4.501255 -0.0155,-4.978454 -0.79221,-5.825413 -0.48067,-0.524136 -0.55015,-0.550224 -1.45348,-0.545781 -1.10461,0.0054 -2.23937,0.531926 -2.99062,1.387554 l -0.4463,0.508299 0.0441,4.176565 c 0.042,3.976488 0.0593,4.196821 0.36006,4.599408 0.17377,0.232561 0.56043,0.491437 0.85925,0.575277 0.29882,0.08384 0.66049,0.269616 0.8037,0.412834 0.2472,0.247196 0.0841,0.260397 -3.21703,0.260397 -2.9965,0 -3.46575,-0.03047 -3.3929,-0.220305 0.0465,-0.121168 0.39731,-0.308644 0.77959,-0.416614 0.50854,-0.143633 0.7892,-0.336018 1.0459,-0.71694 0.35017,-0.519617 0.35076,-0.528804 0.30321,-4.720886 -0.0525,-4.622798 -0.0719,-4.727198 -1.02878,-5.532387 -1.03548,-0.871304 -3.43596,-0.196403 -4.37711,1.230639 -0.23641,0.358462 -0.26489,0.832341 -0.26578,4.421442 -7.5e-4,3.274514 0.0406,4.100325 0.22316,4.453395 0.30169,0.583398 0.79028,0.901656 1.38423,0.901656 0.39162,0 0.49162,0.06102 0.49162,0.3 0,0.290897 -0.1,0.3 -3.29529,0.3 -2.81872,0 -3.28321,-0.03149 -3.21173,-0.217744 z m 23.10226,-0.0059 c 0.0472,-0.122997 0.34642,-0.30171 0.66494,-0.397142 0.31852,-0.09543 0.73341,-0.337737 0.92198,-0.538455 0.34239,-0.364453 0.34285,-0.371395 0.34285,-5.165847 l 0,-4.800903 -0.43835,-0.377051 c -0.35896,-0.308758 -0.53948,-0.360877 -0.99674,-0.28776 -0.42,0.06716 -0.58004,0.03287 -0.64575,-0.138358 -0.0637,-0.165971 0.1454,-0.332321 0.77174,-0.61398 1.29722,-0.583353 2.59585,-1.055933 3.202,-1.165227 l 0.54291,-0.09789 0.10717,1.369944 0.10717,1.369944 0.49657,-0.737365 c 1.28344,-1.905786 3.09349,-2.540162 4.17161,-1.462038 0.53124,0.531243 0.62133,1.036204 0.3003,1.68312 -0.41193,0.830046 -0.88521,0.908451 -2.08752,0.34582 -0.54439,-0.254751 -1.04952,-0.463182 -1.12252,-0.463182 -0.32501,0 -1.32767,1.122099 -1.62941,1.823514 -0.31653,0.735791 -0.32921,0.929284 -0.27767,4.236247 0.0456,2.927406 0.0942,3.539491 0.31288,3.943635 0.33039,0.610522 0.78923,0.930415 1.49811,1.044456 0.41748,0.06716 0.5625,0.162894 0.5625,0.37132 0,0.266288 -0.1784,0.280829 -3.4453,0.280829 -2.99147,0 -3.43398,-0.02946 -3.35947,-0.223629 z m 38.30477,-0.07638 c 0,-0.221014 0.1,-0.3 0.37981,-0.3 0.70815,0 1.36859,-0.386173 1.54989,-0.906247 0.11876,-0.340682 0.1703,-2.889861 0.1703,-8.423585 0,-6.663273 -0.0351,-8.00294 -0.219,-8.358552 -0.23139,-0.447472 -0.59427,-0.60621 -1.3935,-0.609568 -0.26813,-0.0011 -0.4875,-0.07339 -0.4875,-0.160582 0,-0.299029 3.69955,-1.791467 4.44079,-1.791467 0.17577,0 0.20921,1.057229 0.20921,6.616232 l 0,6.616232 1.3875,-1.244499 c 2.59882,-2.330981 3.1125,-2.875055 3.1125,-3.296691 0,-0.273764 -0.11385,-0.444995 -0.375,-0.563981 -0.20625,-0.09397 -0.375,-0.273558 -0.375,-0.399076 0,-0.196574 0.41017,-0.228216 2.95837,-0.228216 2.595,0 2.92112,0.0261 2.65502,0.212485 -0.16686,0.116868 -0.69156,0.313859 -1.16603,0.437757 -1.01175,0.264206 -1.26348,0.416994 -2.61055,1.584527 -2.02094,1.751565 -2.88681,2.642271 -2.88681,2.96961 0,0.310196 2.56513,3.701846 4.31349,5.703338 1.00635,1.152055 2.01313,1.842283 2.68722,1.842283 0.39928,0 0.49929,0.06009 0.49929,0.3 0,0.290697 -0.10001,0.3 -3.225,0.3 -2.94449,0 -3.225,-0.02234 -3.225,-0.256866 0,-0.141274 0.18333,-0.403048 0.4074,-0.581719 0.37494,-0.298958 0.39222,-0.358214 0.21673,-0.74334 -0.10486,-0.230168 -1.11507,-1.602348 -2.2449,-3.049292 l -2.05423,-2.630805 -0.0411,2.691243 c -0.0274,1.796298 0.017,2.831522 0.13362,3.113085 0.20481,0.494432 0.82953,0.857694 1.47502,0.857694 0.35745,0 0.45746,0.06558 0.45746,0.3 0,0.291111 -0.10001,0.3 -3.375,0.3 -3.275,0 -3.375,-0.0089 -3.375,-0.3 z m 30.45,0.01857 c 0,-0.233085 0.14278,-0.293267 0.83122,-0.350357 0.50927,-0.04223 0.98763,-0.185712 1.23506,-0.370444 0.76293,-0.569601 0.79387,-0.952859 0.74952,-9.279556 -0.0374,-7.021325 -0.0628,-7.690279 -0.30539,-8.06041 -0.38514,-0.587523 -0.87211,-0.855563 -1.74144,-0.958522 -0.50392,-0.05968 -0.76897,-0.161425 -0.76897,-0.29518 0,-0.167368 0.7695,-0.204106 4.275,-0.204106 3.5055,0 4.275,0.03674 4.275,0.204106 0,0.13431 -0.26856,0.235914 -0.78537,0.297122 -0.91659,0.108556 -1.43669,0.443214 -1.80189,1.159434 -0.23976,0.470171 -0.26225,1.184125 -0.26195,8.314338 0,7.4718 0.0126,7.820207 0.29313,8.280218 0.34235,0.561466 1.00688,0.944782 1.63791,0.944782 0.37752,0 0.91817,0.315449 0.91817,0.535715 0,0.03536 -1.92375,0.06429 -4.275,0.06429 -4.08095,0 -4.275,-0.01278 -4.275,-0.281425 z m 9.6,0.01023 c 0,-0.195558 0.17422,-0.310601 0.62472,-0.4125 0.40707,-0.09208 0.73369,-0.288851 0.9375,-0.564809 0.30147,-0.408178 0.31278,-0.594516 0.31278,-5.150487 l 0,-4.726989 -0.43835,-0.377051 c -0.35895,-0.308758 -0.53949,-0.360877 -0.99673,-0.28776 -0.42315,0.06767 -0.5799,0.03325 -0.64719,-0.142116 -0.0664,-0.172903 0.16666,-0.346095 0.92173,-0.685056 1.09656,-0.492271 2.37608,-0.940675 3.14804,-1.103226 l 0.4875,-0.102652 0,1.385694 0,1.385694 0.94194,-0.904496 c 2.55558,-2.453992 5.22979,-2.448264 6.52758,0.01398 l 0.40477,0.767961 0.0807,4.650001 c 0.0874,5.035134 0.13066,5.304754 0.91674,5.71125 0.22734,0.117562 0.58545,0.21375 0.79579,0.21375 0.28245,0 0.38246,0.07844 0.38246,0.3 0,0.290908 -0.10001,0.3 -3.3,0.3 -3.2,0 -3.3,-0.0091 -3.3,-0.3 0,-0.234419 0.1,-0.3 0.45745,-0.3 0.65072,0 1.27071,-0.364428 1.48013,-0.870024 0.12936,-0.312282 0.16687,-1.630251 0.13363,-4.694574 -0.043,-3.964913 -0.0674,-4.296815 -0.35131,-4.785403 -0.4191,-0.721156 -1.16598,-1.08886 -1.99835,-0.983826 -0.81043,0.102267 -1.93453,0.70155 -2.59567,1.383816 l -0.50088,0.51687 0,4.180678 c 0,4.016347 0.0125,4.197297 0.31576,4.603503 0.19722,0.264096 0.57198,0.49519 0.99825,0.615588 0.37538,0.106018 0.72054,0.291898 0.76703,0.413067 0.0728,0.189619 -0.37443,0.220305 -3.21075,0.220305 -3.0786,0 -3.29529,-0.01783 -3.29529,-0.271191 z"
     id="path4140"
     inkscape:connector-curvature="0" />
</svg>
