<?xml version="1.0" encoding="UTF-8" standalone="no"?>
<!-- Created with Inkscape (http://www.inkscape.org/) -->

<svg
   xmlns:dc="http://purl.org/dc/elements/1.1/"
   xmlns:cc="http://creativecommons.org/ns#"
   xmlns:rdf="http://www.w3.org/1999/02/22-rdf-syntax-ns#"
   xmlns:svg="http://www.w3.org/2000/svg"
   xmlns="http://www.w3.org/2000/svg"
   xmlns:sodipodi="http://sodipodi.sourceforge.net/DTD/sodipodi-0.dtd"
   xmlns:inkscape="http://www.inkscape.org/namespaces/inkscape"
   id="svg4858"
   version="1.1"
   inkscape:version="0.91 r13725"
   width="952.5"
   height="79.199997"
   viewBox="0 0 952.5 79.199997"
   sodipodi:docname="hawaiianair.svg">
  <metadata
     id="metadata4864">
    <rdf:RDF>
      <cc:Work
         rdf:about="">
        <dc:format>image/svg+xml</dc:format>
        <dc:type
           rdf:resource="http://purl.org/dc/dcmitype/StillImage" />
        <dc:title></dc:title>
      </cc:Work>
    </rdf:RDF>
  </metadata>
  <defs
     id="defs4862" />
  <sodipodi:namedview
     pagecolor="#ffffff"
     bordercolor="#666666"
     borderopacity="1"
     objecttolerance="10"
     gridtolerance="10"
     guidetolerance="10"
     inkscape:pageopacity="0"
     inkscape:pageshadow="2"
     inkscape:window-width="2560"
     inkscape:window-height="1371"
     id="namedview4860"
     showgrid="false"
     inkscape:zoom="1.4142136"
     inkscape:cx="380.88199"
     inkscape:cy="198.16622"
     inkscape:window-x="0"
     inkscape:window-y="27"
     inkscape:window-maximized="1"
     inkscape:current-layer="svg4858" />
  <path
     style="fill:#000000"
     d="m 654.00216,77.852304 c -0.93516,-0.995433 -1.1262,-3.313209 -0.48075,-5.832621 1.12683,-4.398522 4.17462,-9.46535 12.08211,-20.086043 3.01194,-4.045365 6.31545,-9.033642 5.98263,-9.033642 -0.0896,0 -0.87681,0.579222 -1.74948,1.287162 -0.87267,0.707937 -3.00417,2.356185 -4.73667,3.662775 -1.7325,1.306587 -4.905,3.810267 -7.05,5.563731 -7.01838,5.73729 -10.70028,7.786332 -13.99125,7.786332 -2.36232,0 -4.57692,-1.680987 -5.36649,-4.073451 -0.47646,-1.443693 -0.21801,-5.263812 0.46521,-6.876549 0.77244,-1.823226 3.42579,-5.766588 5.50815,-8.186034 1.36608,-1.587228 1.71879,-2.163318 1.32342,-2.16153 -0.29646,0.0012 -2.49081,0.407568 -4.87629,0.902733 l -4.33728,0.900294 -2.08221,2.11968 c -3.61686,3.68196 -8.27232,7.338912 -11.74326,9.224541 -2.26083,1.228221 -4.63125,1.850316 -7.05048,1.850316 -1.94847,0 -2.3934,0.09601 -2.86623,0.61845 -0.81303,0.898407 -4.28391,3.40776 -5.70129,4.121901 -3.13989,1.582014 -7.12359,1.965933 -9.84276,0.948567 -3.84816,-1.439787 -6.47766,-6.489453 -6.08673,-11.688918 0.42384,-5.63685 2.00994,-9.295662 5.44356,-12.557273 5.12454,-4.867803 11.56011,-7.962144 17.35068,-8.342512 3.27984,-0.215445 4.63443,0.124846 5.74344,1.442829 1.00059,1.189129 0.95847,1.904464 -0.17913,3.042052 -0.60282,0.602814 -0.80433,0.983814 -0.56292,1.064283 0.20682,0.06894 0.79278,0.497715 1.30215,0.952836 0.83493,0.745998 0.93771,1.032576 1.04379,2.909847 0.15318,2.711063 -0.46986,5.100629 -2.36388,9.066008 -0.94113,1.970394 -1.38885,3.233292 -1.20975,3.412389 0.58401,0.584004 3.56538,-0.114933 6.17901,-1.44858 4.5378,-2.315463 9.16392,-6.441879 7.22196,-6.441879 -0.85638,0 -1.37142,-0.912204 -1.37142,-2.428916 0,-3.5538 4.84281,-9.886006 9.15852,-11.975203 2.37453,-1.149498 3.92442,-0.04139 3.20781,2.293493 l -0.33258,1.083656 0.95811,-0.155427 c 0.52698,-0.08548 3.30126,-0.466542 6.16506,-0.846791 5.18688,-0.688703 5.21097,-0.689112 6.26511,-0.106088 2.08809,1.154902 3.15579,4.774513 1.9677,6.670831 -0.28062,0.447945 -2.31453,2.673666 -4.51977,4.946045 -4.33449,4.466451 -5.22513,5.880486 -5.26248,8.354943 -0.033,2.190405 0.63351,2.771892 2.96451,2.586201 2.74722,-0.21885 6.67572,-2.354733 12.98892,-7.061958 4.97676,-3.710775 7.79463,-6.901781 13.29954,-15.060785 3.70119,-5.485639 4.95231,-7.121405 7.41732,-9.697759 2.07078,-2.164296 2.88144,-2.602241 4.81698,-2.602241 2.96985,0 4.49145,1.324777 3.64797,3.176046 -0.18339,0.40249 -1.71927,2.222928 -3.41307,4.045418 -4.87419,5.244511 -6.16761,6.84403 -7.90329,9.7738 -0.89448,1.509897 -1.62636,2.823117 -1.62636,2.918271 0,0.09515 1.11375,-0.548886 2.475,-1.431201 11.00949,-7.135965 16.41756,-8.314025 18.08796,-3.940158 0.45312,1.186482 0.48075,1.614861 0.18645,2.889867 -0.90744,3.931224 -3.5109,7.583174 -9.78477,13.725389 -2.41989,2.369088 -4.33452,4.372686 -4.25478,4.452441 0.0798,0.07975 1.09998,0.136068 2.26713,0.125139 3.5067,-0.03283 7.97094,-1.833939 13.78881,-5.563098 1.90686,-1.222266 2.09175,-1.432875 2.29047,-2.60907 1.00479,-5.947338 5.2905,-10.921682 12.59373,-14.617385 6.22812,-3.15165 12.72675,-3.988454 15.14856,-1.950623 1.21101,1.018985 1.2879,2.838116 0.15144,3.582752 -0.95736,0.627294 -0.94155,0.76125 0.16437,1.390614 2.63076,1.497153 2.33721,6.297572 -0.77202,12.625526 -1.77183,3.606075 -1.74903,3.725805 0.64749,3.397326 1.94091,-0.266031 4.41735,-1.34349 7.01016,-3.05001 2.16984,-1.42812 5.1,-4.048605 5.1,-4.560987 0,-0.136683 -0.38421,-0.39354 -0.8538,-0.570789 -1.49247,-0.563346 -1.48281,-2.61191 0.0276,-5.842934 1.58733,-3.3957 6.2055,-7.886619 8.95821,-8.71135 1.07655,-0.322538 1.23882,-0.293101 1.92192,0.348661 0.80649,0.757644 0.93255,1.487454 0.42183,2.441772 -0.17838,0.333285 -0.26487,0.665427 -0.19218,0.738093 0.0727,0.07267 2.8557,-0.237123 6.1845,-0.688422 5.96334,-0.80847 6.06762,-0.81234 7.08768,-0.262998 1.21554,0.654618 2.5443,3.052614 2.5443,4.59171 0,1.620582 -0.75816,2.684568 -5.07768,7.126004 -2.24673,2.310108 -4.3353,4.728822 -4.6413,5.374923 -0.78639,1.660419 -0.80211,4.120683 -0.0317,4.973346 1.35267,1.497213 5.29008,0.287286 10.77156,-3.309987 2.26386,-1.48569 2.88195,-2.056128 3.33123,-3.07443 0.80028,-1.813857 5.24346,-6.148352 8.39793,-8.192465 7.19733,-4.663923 17.1918,-8.698157 22.38738,-9.03659 1.42305,-0.0927 2.94519,-0.07873 3.38256,0.03104 1.05405,0.264555 3.01572,2.063329 3.48456,3.19525 0.32334,0.780588 0.30171,0.984987 -0.15792,1.492887 -0.29292,0.323661 -0.98571,0.752334 -1.53957,0.952611 -0.55386,0.200277 -1.00617,0.43827 -1.00512,0.528873 0,0.0906 0.39645,0.389193 0.87867,0.663534 1.06737,0.607242 1.59549,2.200635 1.20186,3.626232 -0.14808,0.536268 -1.0884,1.987517 -2.08959,3.224999 -4.96707,6.139248 -5.47284,6.960081 -5.51517,8.950785 -0.0367,1.725609 1.05423,2.752332 2.91408,2.742594 1.78668,-0.0094 3.27339,-0.776472 7.94691,-4.100418 5.75748,-4.094898 8.25102,-6.077316 10.95762,-8.71155 2.04834,-1.993577 5.00373,-5.652302 5.00373,-6.19454 0,-0.295911 -3.86082,-0.213066 -5.96241,0.127941 -1.05183,0.170673 -1.95981,0.262932 -2.01771,0.205023 -0.29517,-0.295167 3.27987,-5.425508 4.97868,-7.144618 2.27109,-2.298227 3.36489,-2.765037 7.73115,-3.299532 l 2.92029,-0.357483 1.49982,-2.097407 c 3.34548,-4.678385 6.51249,-6.404541 9.70722,-5.290849 1.75992,0.613512 1.47096,2.1666 -1.00791,5.41727 l -1.06551,1.397247 1.13319,0.169723 c 0.62325,0.09335 1.77444,0.256165 2.55819,0.361816 0.78375,0.105651 1.425,0.246947 1.425,0.313991 0,0.06704 -0.31284,0.625465 -0.69522,1.240937 -0.38235,0.615471 -1.32441,2.281922 -2.09346,3.703223 -1.5654,2.893128 -3.21753,4.584771 -4.91931,5.037012 -0.62811,0.166914 -2.39421,0.396306 -3.92466,0.509763 l -2.78268,0.206283 -1.4397,1.98138 c -4.07238,5.604587 -6.36945,10.43912 -6.57684,13.841981 -0.13005,2.134131 -0.0908,2.316384 0.70119,3.257658 0.78456,0.932382 0.93762,0.988848 2.35983,0.870552 2.06532,-0.171792 6.23289,-2.259882 11.10321,-5.563095 l 3.88233,-2.633139 1.0767,-2.846292 c 3.03831,-8.031872 9.67221,-14.097975 15.4152,-14.095823 1.66227,6e-4 3.26316,0.836814 3.63081,1.896465 0.61461,1.771407 -2.33994,5.648352 -9.16023,12.020129 -1.71996,1.60683 -3.28983,3.284082 -3.48864,3.727224 -0.91425,2.037858 -0.18123,4.19013 1.76526,5.183157 1.0074,0.513933 1.64928,0.612735 3.40476,0.524088 1.8579,-0.09382 2.56068,-0.307947 4.97739,-1.516509 1.54773,-0.773997 3.86775,-2.159382 5.15559,-3.078636 1.28784,-0.919254 2.46513,-1.59498 2.61621,-1.501608 0.15105,0.09337 0.35142,-0.207009 0.44523,-0.667506 1.01166,-4.965879 2.20401,-7.305866 5.23194,-10.267589 5.05914,-4.948569 12.72732,-8.412048 18.61509,-8.407882 4.21578,0.003 6.405,2.341891 4.275,4.567348 -0.77868,0.813582 -0.79362,0.879564 -0.26616,1.175265 3.1011,1.738461 2.87901,6.840254 -0.58341,13.40165 -0.72735,1.378332 -1.23717,2.644065 -1.13292,2.812737 0.42009,0.679725 3.50463,-0.02415 6.45915,-1.473957 2.88615,-1.41627 2.93178,-1.455369 3.41205,-2.923746 1.69872,-5.193534 6.43344,-11.504252 10.04967,-13.39481 1.10304,-0.576666 1.76322,-0.693102 3.77766,-0.666258 2.61297,0.03482 3.55944,0.346299 3.85188,1.267632 0.37212,1.172496 -0.78843,2.807112 -5.211,7.339631 -2.47158,2.533005 -4.77183,5.061594 -5.11173,5.619087 -0.82329,1.350435 -0.81561,2.561163 0.018,2.825715 0.52665,0.167148 1.24722,-0.396432 4.125,-3.226278 5.44323,-5.352549 10.13796,-9.21815 16.50798,-13.592591 3.76698,-2.586976 5.94843,-3.743223 7.062,-3.743223 0.6465,0 0.90405,0.239601 1.37046,1.275 0.89718,1.991724 1.64628,5.498577 1.32306,6.193986 -0.15222,0.327474 -1.60356,2.018235 -3.22521,3.757248 -5.66712,6.077222 -7.10496,8.233613 -7.09695,10.643447 0.005,1.655802 0.18936,1.990791 1.3308,2.424765 1.75407,0.666897 5.23824,-0.642465 9.67605,-3.636297 1.18881,-0.801981 2.23506,-1.45815 2.325,-1.45815 0.09,0 0.16356,0.787113 0.16356,1.749141 l 0,1.749141 -3.32556,2.645118 c -9.57537,7.616151 -15.74862,9.940875 -18.72843,7.052748 -1.38657,-1.343943 -1.76139,-2.615655 -1.55913,-5.290107 0.20322,-2.687013 1.28952,-5.075631 4.48497,-9.861696 2.70537,-4.052049 2.7006,-4.044345 2.50356,-4.044345 -0.31953,0 -4.59534,3.757155 -7.47633,6.569442 -1.623,1.584306 -3.97404,4.095558 -5.22456,5.580558 -5.58075,6.627174 -7.33761,7.715268 -9.91758,6.142311 -1.29054,-0.786822 -1.77381,-2.011188 -2.23203,-5.654598 l -0.37491,-2.981145 -2.4,1.481892 c -3.01377,1.86087 -5.5392,2.66154 -8.39484,2.66154 l -2.18166,0 -2.15649,1.806165 c -5.72079,4.791462 -12.20616,5.870478 -16.21254,2.697387 -1.80975,-1.433355 -2.89539,-3.500535 -3.90093,-7.427802 l -0.32625,-1.274247 -2.31366,1.90944 c -7.05021,5.818515 -12.05064,8.58261 -15.5352,8.587383 -4.10838,0.0056 -6.98394,-3.214356 -7.52919,-8.431002 -0.10158,-0.972027 -0.27618,-1.767324 -0.38799,-1.767324 -0.11178,0 -0.7338,0.444183 -1.38225,0.987072 -10.44387,8.74374 -18.56844,12.641547 -22.72764,10.903719 -1.851,-0.7734 -3.19536,-3.070701 -3.19968,-5.467803 -0.003,-1.525785 1.11678,-5.427756 2.37612,-8.281566 0.64995,-1.472865 1.08816,-2.635968 0.9738,-2.584677 -0.38484,0.172584 -4.84809,3.667056 -9.14097,7.156851 -7.59558,6.174669 -10.46037,8.02728 -13.69407,8.855715 -1.54977,0.397038 -1.908,0.400539 -2.80107,0.02739 -1.09497,-0.457512 -2.20569,-1.968192 -2.48595,-3.381114 -0.26148,-1.318275 0.573,-4.751904 1.90551,-7.84059 0.65844,-1.52625 1.12572,-2.775 1.03839,-2.775 -0.0874,0 -1.5261,1.192074 -3.19722,2.649051 -3.32487,2.898843 -8.11266,6.567117 -10.6353,8.148531 -2.10099,1.317069 -4.3308,1.56663 -5.81298,0.650586 -1.67787,-1.036977 -4.21812,-5.140752 -5.01576,-8.102916 -0.24828,-0.922032 -0.44913,-1.211397 -0.70473,-1.015203 -0.19659,0.150924 -2.11245,1.681047 -4.25745,3.400272 -5.9562,4.773915 -8.94396,6.467913 -11.95593,6.778779 -2.20356,0.227424 -3.54801,-0.287484 -4.97064,-1.903683 -1.92129,-2.182701 -2.21742,-5.545743 -0.7893,-8.963742 0.91971,-2.201124 4.65312,-7.586061 6.63021,-9.56316 0.27891,-0.278898 0.4221,-0.592089 0.31821,-0.695979 -0.10392,-0.103893 -2.24337,0.239841 -4.75437,0.763848 l -4.56543,0.952743 -2.55639,2.509449 c -7.58172,7.442562 -13.17408,10.691427 -18.40347,10.691427 -2.04144,0 -2.12364,0.03029 -3.6717,1.352832 -2.56986,2.195502 -5.65338,3.938961 -7.97103,4.50693 -2.62941,0.644373 -5.61594,0.485286 -7.31016,-0.389391 -2.5527,-1.317888 -4.57584,-4.321968 -5.26299,-7.814811 -0.33552,-1.705335 -0.41613,-1.839759 -0.89361,-1.490001 -4.73643,3.469497 -11.14101,7.166958 -14.72457,8.500722 -1.8861,0.701988 -2.80929,0.846459 -6.15633,0.963426 -3.76815,0.131682 -4.01403,0.103251 -5.71713,-0.661056 -1.66635,-0.747816 -1.90497,-0.778629 -3.7488,-0.484077 -1.33413,0.213129 -2.47857,0.217965 -3.54882,0.015 -0.8688,-0.164766 -1.68393,-0.299574 -1.81143,-0.299574 -0.12747,0 -2.2353,3.874584 -4.68405,8.610188 -4.8636,9.405669 -5.9067,10.889811 -7.65351,10.889811 -0.72504,0 -1.25886,-0.228528 -1.7466,-0.747693 z M 605.56149,53.287801 c 0.81867,-0.450327 1.79088,-1.068588 2.16048,-1.373919 0.651,-0.537834 0.65694,-0.591054 0.19065,-1.707078 -0.35373,-0.846576 -0.44538,-1.772616 -0.34575,-3.49341 0.12219,-2.110755 0.30294,-2.677896 1.83432,-5.755614 0.93435,-1.877777 1.69881,-3.481181 1.69881,-3.563123 0,-0.264879 -4.06698,2.077485 -6.36324,3.664871 -4.8273,3.337122 -6.56859,5.858085 -6.78267,9.81972 -0.11043,2.043792 -0.0807,2.156433 0.74043,2.806512 1.2387,0.980661 4.72833,0.778425 6.86697,-0.397959 z m 111.4917,0.702444 c 0.60675,-0.168525 1.75425,-0.743868 2.55,-1.278543 1.58334,-1.063866 1.61835,-1.200027 1.01649,-3.95199 -0.48321,-2.209287 0.0183,-4.305267 1.93284,-8.079126 0.91224,-1.798175 1.6224,-3.305102 1.57806,-3.348719 -0.19542,-0.192315 -6.15375,3.472619 -8.07702,4.968131 -3.66582,2.850483 -5.05902,5.328234 -5.04897,8.97945 0.005,1.813863 0.13545,2.146059 1.04541,2.662065 0.7524,0.426651 3.54462,0.453849 5.00319,0.04873 z M 888.6,53.472274 c 0.7425,-0.365625 1.74144,-0.980349 2.21985,-1.36605 l 0.86985,-0.701274 -0.53586,-1.40316 c -0.93999,-2.46135 -0.54483,-4.70019 1.60356,-9.084897 1.00167,-2.044292 1.72476,-3.713891 1.60689,-3.710222 -0.11787,0.0037 -0.55179,0.270666 -0.96429,0.593328 -0.4125,0.322662 -0.86664,0.589659 -1.0092,0.593328 -0.50748,0.01305 -6.06717,3.83429 -7.60662,5.228096 -1.96572,1.779732 -3.37185,4.51512 -3.59691,6.997158 -0.27414,3.0231 0.49896,3.72471 3.96273,3.596313 1.43595,-0.05323 2.5269,-0.288057 3.45,-0.74262 z M 785.00991,53.41483 c 2.84979,-1.29378 5.98467,-3.687657 12.09009,-9.232287 4.53984,-4.122852 7.77534,-7.582544 7.09119,-7.582544 -0.87081,0 -8.48889,2.792292 -11.58288,4.245524 -6.36753,2.990811 -9.76116,5.411004 -10.68381,7.619268 -0.53871,1.289256 -0.57426,5.124774 -0.0495,5.336523 0.76791,0.309861 1.91169,0.168855 3.13491,-0.386484 z M 682.97625,50.024998 c 4.39092,-4.551288 6.80379,-8.110212 6.66111,-9.825 -0.13155,-1.581035 -0.96402,-1.5146 -4.21476,0.33636 -4.45449,2.536374 -6.8676,4.672293 -10.38111,9.18864 l -0.99192,1.275 1.45023,0.03238 c 1.12647,0.02514 4.33026,0.504693 5.50887,0.824556 0.0873,0.02367 0.97269,-0.800688 1.96758,-1.831938 z M 540.75,71.871045 c -4.12059,-0.968223 -6.1947,-2.058708 -8.44872,-4.442007 -6.63573,-7.0163 -5.2713,-18.786338 3.72591,-32.140906 6.42507,-9.536752 14.8047,-17.775519 25.12281,-24.70048 11.32329,-7.5995856 18.68448,-10.65147689 24.6105,-10.20329363 3.61401,0.27332765 6.0477,1.81228423 7.22004,4.56564143 0.77235,1.8140027 0.64842,5.1842112 -0.2898,7.8805372 -3.55938,10.229034 -17.01219,24.576798 -27.97689,29.838026 -2.22336,1.066845 -2.89302,1.251177 -4.59612,1.265118 -2.26518,0.01854 -3.28152,-0.467889 -4.23093,-2.024982 -1.12776,-1.849593 -0.49401,-4.379933 1.70835,-6.820817 2.08539,-2.311221 11.75988,-10.765167 12.54489,-10.962189 0.82758,-0.20771 1.65996,0.274198 1.65996,0.96104 0,0.227296 0.10926,0.413266 0.24276,0.413266 0.45666,0 6.91032,-6.30581 8.92155,-8.717159 2.3742,-2.846503 4.51371,-6.472927 4.7925,-8.123217 0.14622,-0.8654463 0.0634,-1.3866753 -0.31107,-1.9582302 -0.47421,-0.7237523 -0.63072,-0.7679534 -2.21142,-0.6246206 -6.95967,0.6310817 -24.05505,14.6537138 -34.04286,27.9239758 -3.13665,4.167501 -5.577,8.609942 -7.19577,13.09925 -0.83649,2.319774 -0.92067,2.888568 -0.93258,6.3 -0.0117,3.360084 0.0598,3.89037 0.68808,5.1 1.64607,3.169203 3.79272,4.537359 7.43286,4.737267 8.55015,0.46956 20.52927,-5.65743 36.64047,-18.740589 1.69098,-1.373172 3.14223,-2.496678 3.225,-2.496678 0.41595,0 0.079,2.864106 -0.4617,3.923862 -1.22883,2.4087 -6.77208,7.596684 -13.71963,12.840327 -8.19957,6.188616 -16.54233,10.752338 -22.56819,12.345467 -4.19316,1.10859 -8.78433,1.411245 -11.55,0.761391 z M 372.6,65.099998 c -0.33,-0.33 -0.6,-0.908955 -0.6,-1.286568 0,-2.947077 7.26309,-10.372119 12.64764,-12.929628 2.4321,-1.155189 2.80008,-1.460529 5.775,-4.79205 1.74753,-1.957035 3.17736,-3.681012 3.17736,-3.831057 0,-0.158298 -1.17423,-0.190266 -2.7975,-0.07616 -4.44903,0.312735 -5.96619,-0.557994 -5.007,-2.873645 0.43041,-1.039107 5.5365,-6.063096 7.59828,-7.476081 3.08529,-2.114456 7.47438,-3.536078 10.13382,-3.282352 0.7899,0.07536 1.0224,0.233995 1.0224,0.697543 0,0.511261 -0.33276,0.658909 -2.25,0.99831 -3.36222,0.595203 -3.75,0.740895 -3.75,1.408914 0,0.546738 0.24162,0.599448 3.11103,0.678669 2.34333,0.0647 3.27669,-0.02265 3.78234,-0.353961 0.36921,-0.241917 3.16383,-2.585051 6.21024,-5.206961 11.4186,-9.827405 18.76416,-15.590657 25.89639,-20.3179754 5.3034,-3.5151557 8.03082,-5.0377237 9.6531,-5.388793 1.10694,-0.23954754 2.50668,0.3660241 3.22869,1.3968368 0.54738,0.7815078 0.61062,2.7369056 0.13284,4.107509 -0.30357,0.8707664 -7.22685,13.1883876 -11.25057,20.0164806 -0.88773,1.506466 -1.61406,2.904266 -1.61406,3.106224 0,0.276456 0.58842,0.315109 2.38113,0.156416 2.41428,-0.21371 4.81887,0.0052 4.81887,0.438605 0,0.130644 -0.61623,1.030026 -1.36944,1.99863 -0.75318,0.968604 -2.1777,3.128322 -3.1656,4.799376 -2.04642,3.461561 -1.9341,3.402305 -6.46062,3.408416 l -2.44566,0.0033 -2.27043,3.854358 c -3.58395,6.084216 -3.99072,7.39506 -2.53635,8.173422 1.086,0.581205 2.58063,0.005 5.28099,-2.035962 1.4394,-1.08792 2.79792,-1.992387 3.0189,-2.009928 0.22098,-0.01755 0.73248,0.391266 1.1367,0.908454 l 0.73497,0.940347 -2.89062,2.659653 c -5.45379,5.018007 -9.32127,7.532553 -12.6474,8.22306 -3.4338,0.712851 -5.62929,-0.148947 -6.55506,-2.573058 -1.04541,-2.737371 0.30681,-6.941526 4.4838,-13.940346 l 1.70091,-2.85 -1.13256,-0.103758 c -0.62289,-0.05707 -4.91253,-0.008 -9.53253,0.109173 l -8.4,0.212934 -11.1,10.902153 c -12.1176,11.901618 -13.15929,12.729501 -16.017,12.729501 -1.13301,0 -1.68957,-0.156555 -2.133,-0.6 z m 48.81984,-34.378736 c 3.90882,-0.300363 6.30762,-0.607755 6.43809,-0.825001 0.11436,-0.190444 2.76258,-4.598762 5.88498,-9.796262 3.12237,-5.1975 5.63094,-9.502857 5.5746,-9.56746 -0.13608,-0.156056 -6.11724,4.336591 -11.4699,8.615447 C 423.85545,22.339252 414.3,30.740792 414.3,31.059575 c 0,0.201696 0.24183,0.190206 7.11984,-0.338313 z m -407.5979,32.20586 c -0.852403,-0.450762 -1.533967,-1.102692 -1.909652,-1.826619 -0.563558,-1.085952 -0.565755,-1.173948 -0.06222,-2.49243 0.511429,-1.339158 2.899738,-4.746369 5.460747,-7.790418 0.709053,-0.84279 1.289187,-1.61904 1.289187,-1.725 0,-0.105963 -1.04625,-0.19341 -2.325,-0.194331 -2.989361,-0.0021 -4.350257,-0.39462 -5.305717,-1.53012 -1.5470081,-1.838514 -0.801961,-4.792563 1.861655,-7.381302 1.312307,-1.275416 1.447255,-1.333979 2.601582,-1.129022 1.834204,0.325671 2.476239,0.236325 8.52943,-1.186959 3.073427,-0.722652 6.015317,-1.402446 6.537532,-1.51065 1.04598,-0.216729 7.164447,-6.45624 15.550518,-15.858156 5.062248,-5.675461 6.75,-7.974717 6.75,-9.195647 0,-1.4127532 -0.646308,-1.6617985 -4.173441,-1.6081729 -6.076254,0.092382 -16.083477,2.9546509 -26.148883,7.4791109 -3.075749,1.382567 -2.898126,1.245251 -2.236538,1.729016 0.401293,0.293433 0.494229,0.611823 0.3483,1.193251 -0.232033,0.924491 -1.288829,1.52532 -4.989438,2.836688 -1.4025,0.496997 -4.304126,1.862183 -6.4480572,3.033747 C 3.5792985,28.81531 2.1303805,28.979628 0.95239533,26.699999 0.05280242,24.959113 0.20603102,22.696775 1.4553986,19.273426 3.5725467,13.472303 5.6689902,12.045373 19.111009,7.2562587 29.231739,3.6504509 37.644297,1.5747378 45.466644,0.75327504 52.768842,-0.01356478 55.812711,0.29130893 58.35,2.0436714 c 2.501856,1.727891 3.634224,5.5016391 2.720757,9.0672426 -0.967656,3.777133 -2.890965,6.28936 -12.231396,15.976653 -3.307824,3.430661 -5.937645,6.31415 -5.844045,6.40775 0.0936,0.0936 1.831695,-0.05165 3.862434,-0.322779 2.030736,-0.271128 4.924644,-0.589614 6.430902,-0.707748 l 2.738649,-0.214791 7.581966,-9.45 C 75.167277,8.3943381 77.301459,5.9999998 78.583854,5.9999998 c 0.899658,0 1.516173,1.1557328 1.515909,2.8417517 -6e-4,2.9875515 -1.242855,4.7917835 -12.297102,17.8582475 -2.303238,2.7225 -4.191072,5.039733 -4.195185,5.149404 -0.0041,0.109671 1.038774,0.277293 2.317524,0.372492 3.848127,0.286482 6.335526,0.746187 7.665183,1.41663 0.692901,0.349374 1.319799,0.689862 1.39311,0.756642 0.07331,0.06678 -0.399189,0.551577 -1.05,1.077327 -2.669169,2.156256 -5.596839,5.239871 -7.385223,7.7786 -1.794444,2.547333 -1.947207,2.685237 -2.79807,2.525931 -0.495,-0.09268 -2.472807,-0.257169 -4.395129,-0.365532 l -3.495129,-0.197025 -1.516998,2.065887 c -3.092229,4.211085 -3.856707,7.026738 -2.944269,10.844037 l 0.448029,1.874397 -1.698252,0.473898 c -0.934038,0.260646 -2.756037,0.868416 -4.048884,1.350606 -2.993361,1.11642 -4.151475,1.136487 -4.977594,0.08625 -1.420641,-1.806051 -0.571365,-5.622735 2.707641,-12.168258 1.133055,-2.261796 1.961208,-4.163487 1.840341,-4.22598 -0.372432,-0.19257 -7.810239,0.637602 -11.846322,1.322226 l -3.826563,0.649086 -3.20138,3.560229 c -3.201333,3.560175 -3.823428,4.342875 -7.089876,8.92026 -2.545227,3.566715 -3.668122,4.13163 -5.883675,2.960019 z M 98.55,62.547316 c -1.528785,-0.770766 -2.395941,-2.369865 -2.340951,-4.31688 0.05166,-1.829112 1.142967,-5.466333 2.361768,-7.871517 0.423237,-0.835218 0.700953,-1.58715 0.617145,-1.670958 -0.0838,-0.08381 -1.237152,0.803514 -2.56299,1.971828 -3.80304,3.351189 -8.115948,6.704979 -10.667925,8.295555 -1.934766,1.205889 -2.648769,1.484703 -4.064319,1.587093 -1.639032,0.118557 -1.774305,0.07265 -2.970822,-1.008339 -1.531731,-1.383825 -3.357885,-4.417197 -4.234677,-7.0341 -0.519084,-1.549275 -0.618936,-2.37066 -0.485898,-3.997008 0.212055,-2.592297 1.077762,-4.131528 3.924051,-6.976992 7.918155,-7.915853 26.988498,-15.505561 31.933768,-12.709158 1.26402,0.714763 2.82885,2.75464 2.68523,3.500398 -0.0907,0.470733 -1.58291,1.675584 -2.43376,1.965021 -0.21112,0.07182 0.0393,0.460797 0.60418,0.938292 2.12498,1.796406 1.57196,3.724509 -2.46076,8.579447 -2.99154,3.60147 -4.05404,5.477157 -4.05404,7.156791 0,1.579128 0.74519,2.4393 2.29309,2.646918 2.12898,0.285555 4.08717,-0.696573 9.73273,-4.881432 2.47543,-1.834953 2.58991,-1.972341 2.93742,-3.525219 0.59146,-2.64288 2.21433,-5.611556 4.66326,-8.530364 3.48843,-4.157757 7.43433,-7.695593 10.02151,-8.985123 2.18696,-1.09005 2.20796,-1.09385 4.18003,-0.756049 3.64812,0.624895 4.47842,2.17005 2.89986,5.396503 -0.98958,2.022642 -6.9777,8.183129 -11.26371,11.58794 -2.75376,2.187585 -2.9082,2.372274 -3.375,4.035945 -0.84863,3.024492 -0.57273,4.85409 0.73198,4.85409 0.56745,0 4.99924,-3.069963 8.37515,-5.801583 3.26928,-2.64534 9.631,-9.081557 13.16977,-13.323992 1.68627,-2.021568 3.49231,-3.896062 4.01342,-4.165543 0.88319,-0.456711 1.05493,-0.453445 2.53053,0.04813 0.87066,0.29595 1.7982,0.775852 2.06119,1.06645 0.43873,0.484788 0.42969,0.635496 -0.10957,1.827453 -0.32325,0.714498 -1.69301,3.05409 -3.04391,5.19909 -3.74769,5.950712 -6.02421,10.693781 -6.23188,12.98396 -0.13988,1.542648 -0.0744,1.981425 0.36852,2.47089 0.29623,0.327333 0.77229,0.595149 1.05792,0.595149 0.85835,0 3.90251,-2.226939 6.13769,-4.490004 l 2.1,-2.126193 0.008,-1.866903 c 0.007,-1.471743 0.21679,-2.311395 0.99282,-3.9669 1.78639,-3.810854 6.03215,-8.660105 9.21602,-10.525976 1.1687,-0.684903 1.45985,-0.744165 2.18345,-0.444438 1.37979,0.57153 2.00378,1.956348 1.96926,4.370415 -0.0399,2.786322 -0.78855,4.63854 -3.56826,8.827616 l -2.2443,3.382212 0.67129,0.5805 c 1.65244,1.428951 3.8775,1.589958 6.34719,0.459294 1.40655,-0.643938 1.75323,-0.977277 2.44406,-2.349999 1.07159,-2.129349 4.99088,-5.965787 8.35224,-8.175689 9.72954,-6.396624 22.77435,-10.690778 26.54817,-8.739259 1.00288,0.518609 2.59539,2.269762 2.8802,3.167113 0.25595,0.806421 -0.4738,1.659297 -1.84356,2.154606 -1.00935,0.364986 -1.35504,0.843606 -0.6093,0.843606 0.57621,0 1.62521,1.2186 1.85858,2.159067 0.34671,1.397217 -0.43145,2.887484 -3.37954,6.472274 -3.2154,3.909831 -4.74377,6.725232 -4.42896,8.158545 0.44038,2.005056 2.90307,2.686617 5.48046,1.51674 0.70303,-0.319107 2.92205,-1.747575 4.93114,-3.174372 2.0091,-1.426797 3.82409,-2.659863 4.03331,-2.740149 0.20921,-0.08028 0.60024,-0.910101 0.86895,-1.844037 1.14618,-3.98376 5.00066,-9.783764 8.17021,-12.294095 3.07698,-2.437014 7.84799,-3.700347 9.92271,-2.627466 1.33248,0.689049 1.73523,1.657005 1.29744,3.118203 -0.3582,1.19559 -4.38959,6.270254 -6.11942,7.70306 -0.54042,0.447627 -2.22819,2.030844 -3.7506,3.518259 -3.03961,2.969757 -3.44693,3.832875 -2.81079,5.956128 0.75236,2.511162 4.57043,3.439557 8.342,2.028432 1.85412,-0.693714 5.58087,-2.815857 8.03585,-4.575891 0.82447,-0.591084 1.59175,-1.074699 1.70507,-1.074699 0.11332,0 0.26227,0.37125 0.33101,0.825 0.10931,0.721545 0.13186,0.69333 0.17988,-0.225 0.0302,-0.5775 0.49735,-2.212644 1.03813,-3.633657 2.14964,-5.648684 6.38017,-10.785683 10.48966,-12.737273 4.61388,-2.191119 8.6072,-1.510493 8.6072,1.467024 0,1.384383 -2.54046,4.5552 -7.78386,9.715241 l -5.24471,5.161332 0,1.655151 c 0,1.414875 0.12539,1.786032 0.86377,2.556732 1.16338,1.214307 2.54842,1.619655 4.93224,1.443471 2.44862,-0.180972 4.64169,-1.180593 9.27767,-4.228845 3.02179,-1.986888 3.45688,-2.386035 4.17775,-3.832632 0.93373,-1.873761 3.88224,-4.921314 6.67714,-6.901445 4.67001,-3.308607 11.55341,-6.759096 17.01547,-8.52947 4.17991,-1.354797 6.23387,-1.7288 8.72219,-1.588198 1.70283,0.09622 2.27598,0.26804 3.17076,0.950517 1.24131,0.946782 2.07216,2.348334 1.93479,3.263709 -0.0791,0.527046 -0.72603,1.018395 -2.48085,1.884222 -0.18654,0.09204 -0.13797,0.232398 0.1206,0.348441 1.10718,0.496923 1.81704,1.59351 1.81704,2.806944 0,1.632987 -0.37695,2.290487 -3.43908,5.998736 -4.36164,5.281941 -5.28924,7.865526 -3.396,9.458601 0.86181,0.725154 1.1361,0.794271 2.56635,0.646656 1.86531,-0.192516 2.56611,-0.573138 7.4736,-4.059087 3.43884,-2.442741 3.684,-2.684817 4.14813,-4.09617 1.67085,-5.080911 6.56622,-11.540897 10.18134,-13.435421 1.54764,-0.811056 5.73945,-0.862839 6.92574,-0.08556 1.65729,1.085892 0.87312,2.450238 -4.67838,8.139725 -2.44395,2.504706 -4.72161,5.010138 -5.06151,5.567631 -0.98931,1.622778 -0.73266,2.963622 0.56727,2.963622 0.13113,0 1.16634,-0.962811 2.30046,-2.139582 7.38405,-7.661603 21.94323,-18.560417 24.79392,-18.560417 1.05018,0 1.29564,0.409558 2.32773,3.883749 l 0.91446,3.07812 -0.75786,0.993606 c -0.41682,0.546483 -2.18871,2.523813 -3.93756,4.394063 -4.55733,4.873755 -6.18861,7.449933 -6.18861,9.773211 0,3.533775 4.52148,2.955429 11.01891,-1.409445 1.23897,-0.832317 2.31756,-1.513305 2.39688,-1.513305 0.0793,0 0.14421,0.781413 0.14421,1.736472 0,1.676937 -0.0439,1.773174 -1.2807,2.806992 -9.70827,8.115129 -16.79541,11.362821 -20.03373,9.180516 -1.13487,-0.764796 -2.04486,-2.163279 -2.3829,-3.662091 -0.57054,-2.529714 1.18281,-6.975867 4.92384,-12.48585 1.25652,-1.850706 2.22864,-3.420891 2.16021,-3.489306 -0.17631,-0.176316 -4.35513,3.442602 -7.49034,6.486732 -1.4595,1.417095 -3.96996,4.129035 -5.5788,6.026535 -5.25792,6.201288 -6.99993,7.253715 -9.49158,5.734296 -1.28478,-0.78345 -1.90143,-2.275653 -2.277,-5.51004 -0.17718,-1.525842 -0.36477,-2.822085 -0.41688,-2.88054 -0.0521,-0.05846 -1.71426,1.257324 -3.69372,2.923962 -8.811,7.418493 -14.04598,10.041288 -16.64414,8.338911 -2.50715,-1.642752 -2.62554,-4.620507 -0.40139,-10.095771 0.76548,-1.884393 1.35345,-3.464505 1.30659,-3.511359 -0.0469,-0.04685 -1.22465,0.891996 -2.61732,2.086329 -8.2308,7.058592 -12.34317,9.814212 -14.6463,9.814212 -0.6961,0 -1.66105,-0.204477 -2.14434,-0.454395 -1.65461,-0.85563 -4.25077,-4.952193 -5.08299,-8.020605 -0.21257,-0.78375 -0.43808,-1.425 -0.50115,-1.425 -0.0631,0 -1.42926,1.093395 -3.03601,2.429769 -3.72135,3.095148 -8.64881,6.367296 -10.82777,7.190334 -3.32709,1.256703 -6.22183,1.080354 -8.35051,-0.508719 -1.30227,-0.972156 -2.70432,-3.976161 -3.13238,-6.711384 -0.19366,-1.2375 -0.39415,-2.301351 -0.44552,-2.364114 -0.0514,-0.06276 -0.87455,0.556929 -1.82928,1.377093 -10.32386,8.868663 -16.93014,11.142774 -20.88394,7.188972 -1.46814,-1.468143 -2.2195,-3.162555 -2.67676,-6.036429 -0.19825,-1.246038 -0.43127,-2.265417 -0.51782,-2.265288 -0.0865,1.26e-4 -1.64237,1.237203 -3.45737,2.749056 -8.93444,7.442178 -13.69771,9.990915 -16.49078,8.823894 C 198.12861,62.059003 196.8,59.924518 196.8,58.46167 c 0,-1.549239 0.72246,-4.030215 2.04706,-7.029765 0.65139,-1.475049 1.13922,-2.731206 1.08408,-2.791464 -0.0551,-0.06026 -1.49095,1.099557 -3.1907,2.57736 -4.11624,3.578775 -9.439,7.580976 -11.40589,8.57613 -1.06735,0.54003 -2.0663,0.806067 -3.02671,0.806067 -1.28406,0 -1.58324,-0.140022 -2.86908,-1.342779 -1.59897,-1.495647 -2.80098,-3.510867 -3.80082,-6.37221 -0.36701,-1.050333 -0.74751,-1.897119 -0.84554,-1.881747 -0.098,0.01536 -1.05008,0.423258 -2.11566,0.906411 -3.9282,1.781133 -6.56253,1.946001 -9.42868,0.590088 -1.04606,-0.494871 -1.9508,-0.899763 -2.01052,-0.899763 -0.0597,0 -1.63385,1.369662 -3.49806,3.043692 -4.21093,3.781341 -6.04815,5.149344 -8.4268,6.274638 -3.36959,1.594089 -5.91765,1.052322 -7.42411,-1.578507 -0.68315,-1.193046 -0.73688,-1.577322 -0.71608,-5.121591 l 0.0225,-3.831765 -3.77249,3.859533 c -2.07488,2.122743 -4.56558,4.383576 -5.5349,5.024073 -1.52418,1.007133 -2.03749,1.180086 -3.79761,1.279539 -2.54027,0.143538 -3.76922,-0.253593 -5.50041,-1.777449 -1.49319,-1.314357 -3.37457,-4.697304 -3.68218,-6.620991 -0.10125,-0.633144 -0.26808,-1.148358 -0.37074,-1.144917 -0.10266,0.0035 -1.87416,1.427454 -3.93666,3.164478 -8.04488,6.775341 -13.53881,9.642651 -16.049997,8.376585 z M 84.863889,53.242852 c 2.050371,-0.954474 5.070954,-3.135192 8.884887,-6.414465 3.686088,-3.169347 9.686814,-8.947487 10.106434,-9.731546 0.28065,-0.524394 0.22975,-0.559065 -0.54791,-0.373209 -1.95052,0.466167 -8.849195,3.022451 -11.440808,4.239359 -5.974437,2.805333 -9.42675,5.361705 -10.401843,7.702371 -0.550536,1.321533 -0.616614,4.462671 -0.104649,4.974636 0.558129,0.558129 1.739415,0.424236 3.503889,-0.397146 z M 185.30992,53.41483 c 1.94738,-0.884094 4.71527,-2.83758 8.48291,-5.986962 4.2429,-3.546657 11.3794,-10.587125 10.89516,-10.74854 -0.19587,-0.06529 -1.98359,0.431217 -3.97272,1.103349 -9.74499,3.292859 -16.89308,7.444814 -18.35406,10.660925 -0.63158,1.390305 -0.75741,4.640193 -0.20121,5.196396 0.51761,0.517614 1.69997,0.433092 3.14992,-0.225168 z m 95.92572,0.160503 c 1.52049,-0.635301 5.20921,-3.199524 8.33723,-5.795637 3.61103,-2.996997 11.53749,-10.769333 11.2629,-11.043914 -0.2637,-0.263727 -7.23174,2.09241 -11.02687,3.728576 -3.88309,1.67409 -8.85492,4.727256 -10.22508,6.279144 -1.5304,1.733367 -2.28602,5.157567 -1.47327,6.676218 0.37493,0.700554 1.66689,0.764886 3.12509,0.155613 z m 168.96092,7.18707 c -2.07027,-0.738156 -3.63759,-2.782488 -4.49739,-5.866209 -1.11735,-4.007376 -0.90336,-6.654879 0.909,-11.246196 3.03342,-7.684754 9.63003,-13.649999 15.09474,-13.649999 2.73237,0 4.25181,1.466133 3.59187,3.465834 -0.66813,2.024406 -3.31497,5.099085 -9.19236,10.678202 -3.40992,3.236871 -3.70242,3.649731 -3.70242,5.225829 0,2.667069 2.15103,4.179717 5.66157,3.981354 1.78617,-0.100929 2.53338,-0.334737 4.89807,-1.532631 C 467.87538,49.32838 475.8,43.527949 475.8,42.420058 c 0,-0.195258 -0.33543,-0.439206 -0.74544,-0.542106 -0.9003,-0.225963 -1.20219,-1.195956 -0.94842,-3.047372 0.49089,-3.581451 4.71663,-8.92397 8.75832,-11.072948 1.73679,-0.923462 2.3463,-0.946866 3.17139,-0.121771 0.53055,0.530526 0.60519,0.859751 0.45063,1.987377 -0.18447,1.345842 -0.1818,1.35084 0.63915,1.191006 0.45339,-0.08828 3.13695,-0.465672 5.96346,-0.838647 4.42611,-0.584055 5.27274,-0.622785 6.10233,-0.279157 2.09166,0.866398 3.33249,4.51225 2.25471,6.624931 -0.28863,0.565746 -2.30172,2.851128 -4.47354,5.078627 -4.33113,4.442136 -5.32842,6.004638 -5.36463,8.405115 -0.0335,2.218788 0.62439,2.804007 2.94435,2.61921 2.04849,-0.163173 4.90965,-1.47072 8.45913,-3.865833 1.18881,-0.80217 2.23506,-1.458492 2.325,-1.458492 0.09,0 0.16356,0.79101 0.16356,1.757802 l 0,1.757802 -3.675,2.974266 c -6.02043,4.872489 -8.2353,6.307011 -11.00445,7.127394 -3.11466,0.922737 -5.15322,0.499785 -6.8376,-1.418637 -1.97115,-2.245014 -2.08608,-6.157668 -0.29121,-9.914166 1.06236,-2.223408 4.00206,-6.420615 5.85492,-8.359461 1.34451,-1.406895 1.30245,-1.408995 -4.44666,-0.221997 l -4.35,0.898128 -2.08536,2.142975 c -3.99693,4.107381 -15.40308,13.067781 -19.68657,15.465327 -3.20373,1.793166 -6.36183,2.315703 -8.78151,1.452972 z M 239.55371,27.836075 c -2.50803,-1.453954 -2.60032,-4.644286 -0.20869,-7.214447 1.6924,-1.818733 3.87143,-2.914649 5.80331,-2.918698 1.19498,-0.0025 1.51128,0.1313 2.175,0.920087 0.90896,1.080234 0.99036,2.242957 0.29906,4.271801 -0.52532,1.541747 -2.71987,4.181619 -4.0465,4.867651 -1.00494,0.519669 -3.18395,0.559545 -4.02218,0.07361 z m 25.76063,0.01533 C 264.50531,27.459418 263.4,25.509658 263.4,24.474517 c 0,-4.284794 7.23123,-8.713967 9.76432,-5.980711 2.5347,2.734978 -1.68905,9.746887 -5.83446,9.685889 -0.75893,-0.01117 -1.66591,-0.158897 -2.01552,-0.328289 z m 199.49153,-0.09102 C 463.97394,27.177676 463.2,25.497621 463.2,24.274378 c 0,-2.31256 2.57175,-5.297953 5.36976,-6.233433 2.82852,-0.945678 5.13333,0.205519 5.1273,2.560977 -0.006,2.225455 -2.45046,6.089746 -4.53462,7.167498 -1.07958,0.558277 -3.55395,0.553143 -4.35657,-0.009 z m 403.75917,-0.02859 C 867.60372,27.058462 867,25.721593 867,24.266254 c 0,-4.162458 6.68754,-8.270835 9.50826,-5.841245 0.74007,0.63744 0.83727,0.919744 0.80484,2.337255 -0.0586,2.561653 -2.08524,5.811367 -4.37319,7.012461 -1.08285,0.568446 -3.53637,0.544366 -4.37487,-0.04294 z"
     id="path5408"
     inkscape:connector-curvature="0" />
</svg>
