<?xml version="1.0" encoding="UTF-8" standalone="no"?>
<!-- Created with Inkscape (http://www.inkscape.org/) -->

<svg
   xmlns:dc="http://purl.org/dc/elements/1.1/"
   xmlns:cc="http://creativecommons.org/ns#"
   xmlns:rdf="http://www.w3.org/1999/02/22-rdf-syntax-ns#"
   xmlns:svg="http://www.w3.org/2000/svg"
   xmlns="http://www.w3.org/2000/svg"
   xmlns:sodipodi="http://sodipodi.sourceforge.net/DTD/sodipodi-0.dtd"
   xmlns:inkscape="http://www.inkscape.org/namespaces/inkscape"
   version="1.1"
   id="svg7388"
   width="1736"
   height="456"
   viewBox="0 0 1736 456"
   sodipodi:docname="Kona-Ice-logo-textonly.svg"
   inkscape:version="0.92.2 5c3e80d, 2017-08-06">
  <metadata
     id="metadata7394">
    <rdf:RDF>
      <cc:Work
         rdf:about="">
        <dc:format>image/svg+xml</dc:format>
        <dc:type
           rdf:resource="http://purl.org/dc/dcmitype/StillImage" />
        <dc:title></dc:title>
      </cc:Work>
    </rdf:RDF>
  </metadata>
  <defs
     id="defs7392" />
  <sodipodi:namedview
     pagecolor="#ffffff"
     bordercolor="#666666"
     borderopacity="1"
     objecttolerance="10"
     gridtolerance="10"
     guidetolerance="10"
     inkscape:pageopacity="0"
     inkscape:pageshadow="2"
     inkscape:window-width="1927"
     inkscape:window-height="1080"
     id="namedview7390"
     showgrid="false"
     inkscape:zoom="0.74654378"
     inkscape:cx="794.42251"
     inkscape:cy="87.75431"
     inkscape:window-x="-3"
     inkscape:window-y="0"
     inkscape:window-maximized="0"
     inkscape:current-layer="svg7388" />
  <g
     id="g7941">
    <path
       style="fill:#71aadb;stroke-width:0.31999999"
       d="m 239.06351,404.77866 c -29.99507,-28.1448 -54.57182,-51.13703 -54.615,-51.09383 -0.0432,0.0432 -0.39463,13.03776 -0.78098,28.87683 -0.38636,15.83908 -0.7936,28.89056 -0.905,29.0033 -0.16414,0.16608 -71.8847,0.69258 -132.20253,0.9705 l -12.32,0.0567 -0.405309,-14.18413 c -0.222918,-7.80124 -0.346752,-14.24265 -0.275187,-14.31424 0.07157,-0.0716 26.317958,-0.28515 58.325309,-0.47465 32.007357,-0.18951 58.284487,-0.43331 58.393627,-0.54186 0.10915,-0.10851 0.51265,-13.1528 0.89667,-28.98733 0.38403,-15.83449 0.73697,-28.82873 0.78431,-28.87606 0.0652,-0.0652 75.20945,70.29533 105.1169,98.42499 l 4.08673,3.84381 34.05847,-36.31581 c 18.73217,-19.97369 34.51269,-36.83974 35.06779,-37.48016 l 1.00931,-1.16435 3.81367,1.62797 c 24.9088,10.63302 51.68627,14.51753 78.80771,11.43235 33.03766,-3.75814 62.11174,-17.45946 86.47674,-40.75254 l 3.07904,-2.94359 0.18867,1.37671 c 0.10377,0.75718 1.05107,10.4487 2.10509,21.5367 1.05404,11.088 2.05817,21.30093 2.23142,22.69536 0.17322,1.39446 0.27987,2.56016 0.23699,2.59046 -6.4239,4.5393 -18.90365,11.14564 -27.43795,14.5248 -22.07354,8.73997 -46.77222,12.10554 -71.68,9.76746 -15.51053,-1.45597 -30.59616,-5.33213 -45.23446,-11.62266 -2.08698,-0.89683 -3.93949,-1.54096 -4.11671,-1.43145 -0.17721,0.10953 -15.37296,16.27245 -33.76832,35.9176 -18.39535,19.64512 -34.11084,36.39139 -34.9233,37.21392 L 293.6,455.95098 Z m 604.02161,47.17059 c -0.37757,-1.25994 -7.5641,-32.85594 -7.48694,-32.91683 0.045,-0.0355 27.15382,-6.5914 60.24182,-14.56858 33.088,-7.97722 60.2249,-14.55389 60.30422,-14.61482 0.0793,-0.0609 -1.0272,-5.39539 -2.45888,-11.85436 -1.43171,-6.45895 -2.53238,-11.81431 -2.44592,-11.90074 0.0865,-0.0865 29.47031,0.67366 65.29748,1.68918 35.8272,1.01552 65.2017,1.78496 65.2768,1.70992 0.1862,-0.1863 -0.4602,-98.94119 -0.8549,-130.61302 -0.5337,-42.80796 -1.2015,-69.45818 -1.9365,-77.28 -2.1322,-22.69069 -9.0658,-45.53215 -19.476,-64.16 -2.193,-3.92409 -7.6195,-12.35305 -9.9898,-15.517069 -1.0137,-1.353222 -0.8858,-1.282813 2.1925,1.206835 6.6615,5.38762 14.3338,12.853495 19.9675,19.430234 3.8088,4.44634 8.2612,10.33688 8.4322,11.15601 0.079,0.37619 3.1194,32.14799 6.7574,70.60399 4.1657,44.03387 8.7656,95.21377 12.4245,138.24 l 5.8098,68.32 2.5498,0.0405 2.5498,0.0405 0.091,3.55949 c 0.069,2.72535 -0.01,3.56211 -0.32,3.57063 -0.2258,0.006 -29.6043,-0.8121 -65.2855,-1.81828 -35.6813,-1.00617 -64.9371,-1.7672 -65.01284,-1.69113 -0.0758,0.076 1.0297,5.42656 2.45661,11.89005 1.42688,6.46348 2.53065,11.80214 2.4528,11.86371 -0.0779,0.0615 -31.67757,7.72102 -70.22157,17.02105 -38.544,9.30004 -70.31811,16.97053 -70.60915,17.04557 -0.31616,0.0815 -0.60023,-0.10077 -0.70573,-0.45286 z m 723.04098,-32.6057 c -67.4706,-3.22553 -122.7581,-5.94886 -122.861,-6.05184 -0.103,-0.10297 0.2109,-4.08502 0.6976,-8.84905 0.4866,-4.764 0.8207,-8.72596 0.7423,-8.80432 -0.078,-0.0784 -1.9313,0.36156 -4.1177,0.97763 -28.1801,7.94041 -59.8787,8.23273 -88.5094,0.81619 -22.745,-5.89187 -43.0851,-16.4544 -62.1579,-32.27824 -4.1417,-3.43619 -17.0248,-16.01363 -18.8246,-18.37802 l -1.1754,-1.54409 -0.099,0.96355 c -0.085,0.82771 0.7219,17.99264 2.6558,56.50698 0.2557,5.09427 0.4255,9.30185 0.3771,9.35017 -0.1859,0.18595 -149.349,7.55927 -149.5174,7.39085 -0.2058,-0.20573 -2.6909,-28.82301 -2.5187,-29.00294 0.096,-0.10045 130.9526,-6.73376 133.2316,-6.7537 l 0.7696,-0.007 -0.2185,-5.36 c -0.3255,-7.98307 -2.7022,-56.48106 -2.9129,-59.44 l -0.1824,-2.56 0.7026,0.96 c 1.3587,1.85666 14.5552,14.96544 18.3059,18.18416 22.6354,19.42531 48.7313,31.67139 77.8061,36.51235 24.4589,4.07245 50.9482,2.7041 74.0717,-3.82624 2.3096,-0.65225 4.2551,-1.13014 4.3233,-1.06195 0.068,0.0682 -0.2854,4.08118 -0.7857,8.91782 -0.5002,4.83661 -0.8709,8.83396 -0.8237,8.88295 0.2018,0.20928 247.7137,11.83286 247.8999,11.64179 0.1131,-0.11597 5.0472,-27.28288 10.9648,-60.37088 5.9175,-33.088 10.8405,-60.556 10.9399,-61.04 l 0.1806,-0.88 h 11.4946 c 8.9877,0 11.4924,0.0872 11.4846,0.4 -0.01,0.22 -3.0715,17.463 -6.8135,38.31777 l -6.8036,37.91775 2.4993,0.72157 c 15.5506,4.48947 25.6811,22.06925 21.6962,37.65021 -1.4441,5.6462 -4.2373,10.57385 -8.2923,14.62883 -6.3138,6.31385 -14.6833,9.51715 -24.0107,9.18982 l -3.0185,-0.10595 -0.5647,3.2 c -0.3106,1.76 -0.8024,4.532 -1.093,6.16 l -0.5284,2.96 -1.1704,-0.0359 c -0.6437,-0.0198 -56.3736,-2.67498 -123.8443,-5.90055 z m 141.8867,-17.90672 c 4.8833,-1.23715 9.3321,-4.41725 12.0474,-8.61174 3.9345,-6.07789 3.9127,-14.79949 -0.052,-20.93427 -2.5689,-3.97447 -6.0569,-6.67008 -10.6151,-8.20356 -3.6328,-1.22214 -8.5101,-1.30547 -12.1127,-0.20691 -6.8714,2.09533 -11.9388,7.17392 -13.948,13.97875 -0.7521,2.5473 -0.7511,7.33376 0,9.9009 1.9827,6.75754 7.2621,12.00867 14.0146,13.93933 2.5812,0.73801 8.0171,0.80809 10.6641,0.1375 z m -9.1975,-4.93469 c -2.5549,-0.81689 -4.3481,-1.94179 -6.1271,-3.84374 -6.2834,-6.71747 -4.8302,-18.0824 2.9433,-23.01699 6.0532,-3.84263 14.8282,-1.94554 18.8485,4.07488 1.9695,2.94937 2.48,4.73686 2.48,8.68371 0,3.94685 -0.5105,5.73434 -2.48,8.68371 -3.3156,4.96503 -9.9286,7.25251 -15.6647,5.41843 z m 1.6647,-8.22672 v -3.40457 l 1.6439,0.19469 c 1.9791,0.2344 2.7309,0.84774 3.1687,2.58528 0.1814,0.72006 0.5527,1.92118 0.8251,2.66918 l 0.4952,1.36 h 3.0509 c 3.0117,0 3.0482,-0.009 2.8444,-0.72 -0.1135,-0.396 -0.4346,-1.69485 -0.7134,-2.8863 -0.5747,-2.45533 -1.4355,-3.91216 -2.8911,-4.89312 l -1.0011,-0.67463 1.0667,-0.38576 c 1.6113,-0.58265 3.0308,-2.36809 3.0302,-3.81133 0,-1.88969 -0.9042,-3.29488 -2.711,-4.2168 -1.5138,-0.77244 -1.8493,-0.81206 -6.88,-0.81206 -2.9087,0 -5.8285,0.11453 -6.4885,0.2545 l -1.2,0.25449 v 8.73216 c 0,4.80272 0.096,8.82819 0.2133,8.94551 0.1174,0.11734 1.4134,0.21334 2.88,0.21334 h 2.6667 z m 0.32,-9.03472 V 376.96 h 1.5568 c 1.9598,0 3.2432,0.8927 3.2432,2.25584 0,1.2032 -1.1188,1.95187 -3.2182,2.1536 l -1.5818,0.152 z M 615.58842,415.68298 c -40.26637,-1.89172 -73.26077,-3.49424 -73.3209,-3.56122 -0.2233,-0.24864 -2.87315,-26.82278 -2.69267,-27.00326 0.10317,-0.1032 28.02729,1.10867 62.0536,2.69305 34.0263,1.58439 61.89949,2.84717 61.94045,2.80621 0.041,-0.0409 -1.35709,-7.05469 -3.10679,-15.58611 L 657.2809,359.52 654.73117,338.24 c -1.40231,-11.704 -2.60483,-21.69823 -2.67226,-22.2094 -0.11401,-0.86456 -0.0913,-0.88688 0.32519,-0.32 0.24627,0.33517 7.267,11.84658 15.60166,25.58092 l 15.15389,24.97149 1.18345,10.06851 c 1.02816,8.7473 1.62,12.20934 4.51018,26.38346 1.8297,8.97324 3.32672,16.35324 3.32672,16.4 0,0.15824 -3.2729,0.0115 -76.57158,-3.432 z M 258.72,403.22726 c -3.696,-3.48614 -30.696,-28.82537 -60,-56.30937 l -53.28,-49.97094 -0.20263,5.20653 c -0.11145,2.86358 -0.53844,19.28815 -0.94886,36.49903 -0.41042,17.21091 -0.8458,31.45367 -0.9675,31.65059 -0.24817,0.40154 -119.915649,1.28666 -120.378512,0.89037 -0.427813,-0.3663 -9.609036,-342.011066 -9.203451,-342.47192 0.24612,-0.279659 131.807873,-5.112129 132.221173,-4.856692 0.15713,0.09711 0.27978,16.612435 0.27978,37.673548 V 99.03904 l 39.92,-39.881882 39.92,-39.88188 36.72767,29.88236 c 20.20021,16.4353 36.83221,29.880941 36.96,29.879204 0.12778,-0.0016 2.17633,-1.821268 4.55233,-4.043396 23.09715,-21.601369 48.11658,-33.295769 79.36,-37.093891 5.8281,-0.708496 21.87555,-0.979222 28.43875,-0.479769 30.16589,2.295584 56.14551,12.825337 78.92125,31.987436 6.50294,5.471175 15.90448,15.218644 21.44029,22.229159 l 2.23971,2.836384 0.24922,-23.298941 c 0.13708,-12.814416 0.32396,-23.373661 0.41526,-23.464986 0.0913,-0.09133 29.3552,-1.06294 65.03078,-2.159142 57.80868,-1.776285 64.90525,-1.94033 65.23712,-1.508019 0.2048,0.26679 13.3088,24.191094 29.12,53.16512 l 28.74762,52.680043 0.21696,-2.38342 c 0.1193,-1.31088 1.40243,-28.80742 2.85139,-61.10342 1.44896,-32.296 2.71991,-58.821391 2.82435,-58.945315 0.19824,-0.235182 112.36743,3.498776 112.61754,3.748884 0.0786,0.0786 -0.22224,9.325957 -0.66858,20.549673 -0.4463,11.223718 -0.79126,20.427427 -0.76656,20.452691 0.0246,0.02525 1.5569,-1.321642 3.4049,-2.99312 14.04605,-12.704375 29.59645,-21.759015 48,-27.94929 23.02941,-7.746237 50.30445,-10.651648 73.2983,-7.807936 27.0698,3.347799 51.23088,13.786554 72.4617,31.30696 5.1634,4.261047 15.2813,14.472263 19.2201,19.397453 17.8969,22.37862 27.793,47.7104 31.0029,79.36 2.5941,25.57792 3.6389,77.08674 3.0758,151.6391 -0.1707,22.59351 -0.3955,41.16429 -0.4996,41.26839 -0.1944,0.1944 -119.25853,-3.10016 -119.464,-3.3056 -0.0628,-0.0628 -0.39658,-7.28461 -0.74182,-16.04851 -0.34522,-8.76388 -0.68957,-15.99626 -0.76525,-16.07191 -0.0757,-0.0757 -3.82989,0.35095 -8.34269,0.9481 -5.53446,0.73232 -8.25629,1.2191 -8.36237,1.49555 -0.0865,0.22541 2.09795,13.09594 4.85437,28.60115 2.75638,15.50525 4.96909,28.22624 4.91709,28.26893 -0.43712,0.35885 -117.49533,28.32691 -117.68749,28.1184 -0.24525,-0.26614 -3.99952,-16.52419 -13.80352,-59.7769 -2.63091,-11.60681 -4.82192,-21.14176 -4.86893,-21.1888 -0.047,-0.047 -0.43027,6.31786 -0.85165,14.14413 -0.4214,7.82627 -0.84646,14.3584 -0.94454,14.51587 -0.2183,0.35028 -112.98256,-2.07344 -113.30947,-2.43545 -0.12538,-0.13885 -12.5744,-20.62845 -27.66451,-45.53245 -15.09012,-24.904 -27.50711,-45.352 -27.59328,-45.44 -0.32448,-0.33131 0.98048,17.03332 2.16227,28.77227 2.32118,23.05661 3.97651,36.05531 8.08662,63.50088 2.20227,14.70595 3.18467,22.07722 2.95415,22.1657 -0.39229,0.15053 -123.04573,-5.52375 -123.2226,-5.70061 -0.21849,-0.2185 -7.83158,-77.31751 -7.83158,-79.31175 0,-0.21278 -1.14035,1.10721 -2.53414,2.93331 -19.40231,25.42078 -42.85284,42.83534 -69.78586,51.82359 -19.61814,6.54707 -43.14218,8.61712 -64.98922,5.71882 C 365.74317,350.62858 350.404,345.88733 337.28,339.17949 l -3.68,-1.8809 -1.33664,1.35069 c -0.73517,0.74291 -15.96875,16.97472 -33.85244,36.07072 -17.88369,19.096 -32.6182,34.74829 -32.74336,34.78285 -0.12516,0.0346 -3.25156,-2.78944 -6.94756,-6.27559 z M 409.37491,236.99157 c 7.65885,-2.27844 13.13008,-6.69592 18.84439,-15.215 5.0472,-7.52456 8.70054,-17.18792 9.41849,-24.91268 0.5625,-6.05242 -2.82726,-17.11236 -7.65702,-24.9829 -5.58288,-9.09783 -10.44269,-13.97499 -16.91085,-16.97126 -3.6055,-1.6702 -6.13514,-2.2683 -10.53651,-2.49123 -12.08381,-0.61206 -21.18938,4.62556 -29.44794,16.93884 -4.37427,6.52186 -7.20464,13.24325 -8.65894,20.56266 -0.81914,4.12266 -0.80851,6.87907 0.0425,11.04 3.51367,17.17978 14.79546,32.09086 27.11018,35.83134 3.61363,1.09761 5.0672,1.26122 10.1808,1.1459 4.04029,-0.0911 5.24554,-0.24079 7.61491,-0.94567 z m 521.28019,-6.5565 c 7.88432,-0.85725 14.42989,-1.65339 14.5457,-1.76921 0.11584,-0.11583 -0.18902,-5.05886 -0.67747,-10.98453 -1.75741,-21.32086 -2.47331,-25.68118 -5.14243,-31.32057 -2.70439,-5.71387 -5.9802,-9.55255 -9.72445,-11.39532 -2.00672,-0.98764 -2.31031,-1.04402 -5.49031,-1.01975 -4.00278,0.0305 -6.1752,0.72699 -8.41353,2.69725 -1.79303,1.57828 -3.76106,5.28235 -4.88096,9.18658 l -0.82992,2.89322 1.46125,11.63863 c 1.76441,14.05355 4.4119,31.6542 4.75859,31.63547 0.0321,-0.002 6.50925,-0.70453 14.39353,-1.56177 z M 256.19038,219.28 c -0.68348,-6.95331 -0.82047,-10.92712 -0.82517,-23.93604 -0.006,-16.76756 0.44828,-24.07661 2.08685,-33.57145 0.24179,-1.40112 0.41,-2.56874 0.37378,-2.59471 -0.0362,-0.026 -7.21915,8.5966 -15.96208,19.16127 l -15.89624,19.20848 12.85624,10.22842 c 7.07093,5.62564 13.79224,10.9932 14.93624,11.92793 1.144,0.93472 2.2066,1.70773 2.36135,1.7178 0.15538,0.0101 0.18629,-0.94878 0.069,-2.1417 z m 501.47256,176.72381 c -25.13337,-0.56647 -45.82329,-1.15904 -45.97753,-1.31687 -0.45712,-0.46768 -16.95075,-27.76825 -16.84192,-27.87712 0.19395,-0.19392 106.91977,2.22064 107.13638,2.42388 0.22839,0.21424 6.34013,26.67289 6.34013,27.44726 0,0.33802 -0.57072,0.42912 -2.48,0.3959 -1.364,-0.0237 -23.04368,-0.50662 -48.17706,-1.07305 z m 793.94266,-17.74048 c -61.3769,-2.93997 -111.6821,-5.43322 -111.7895,-5.54058 -0.1074,-0.10736 0.3618,-5.68093 1.0427,-12.38569 0.7574,-7.45946 1.1104,-12.1376 0.9095,-12.05418 -18.1445,7.53386 -29.8063,10.64208 -47.2083,12.58234 -7.0387,0.7848 -25.9466,0.78316 -32.96,-0.003 -19.5332,-2.18916 -35.5482,-6.7898 -51.5961,-14.82199 -28.5189,-14.27376 -54.0358,-39.53604 -70.908,-70.20003 l -1.3205,-2.4 -0.01,1.25952 c 0,0.69273 1.1515,22.70556 2.5682,48.91738 1.4168,26.21184 2.5013,47.73257 2.41,47.8239 -0.1815,0.1815 -125.0736,6.49811 -125.2377,6.33408 -0.1762,-0.17622 -32.1954,-350.874336 -32.0486,-351.020781 0.2179,-0.217502 135.9244,-10.916811 136.11,-10.731134 0.1453,0.145298 6.89,107.092855 6.9238,109.787615 0.01,0.80199 0.437,-0.0509 1.7071,-3.41058 8.5686,-22.664563 21.5391,-42.580208 39.3995,-60.495843 20.1265,-20.188771 43.5948,-33.776284 68.7687,-39.815196 15.7606,-3.780778 24.8798,-4.897071 39.8713,-4.880692 4.664,0.0051 10.424,0.170564 12.8,0.367707 29.2221,2.424631 54.7244,11.83344 77.3206,28.526651 l 2.9206,2.157623 0.1755,-1.330125 c 0.097,-0.731568 0.5026,-4.823536 0.9024,-9.093258 0.3999,-4.269721 0.8301,-7.929989 0.9562,-8.133926 0.2549,-0.412561 230.6633,-16.967386 231.0817,-16.603209 0.2534,0.220508 -18.9134,148.194518 -19.2419,148.553608 -0.1073,0.11734 -5.8111,-0.12912 -12.6751,-0.54767 -34.6247,-2.11134 -72.5091,-3.97407 -81.017,-3.98348 l -1.977,-0.002 -0.1731,1.68 c -0.095,0.924 -0.2255,2.508 -0.2894,3.52 l -0.1161,1.84 h 25.5463 c 20.3701,0 25.5463,0.0819 25.5463,0.40434 0,0.43415 -14.5966,90.39207 -14.8948,91.79574 l -0.1785,0.84008 30.5766,0.23887 c 21.0031,0.16409 30.5767,0.34415 30.5767,0.5751 0,0.63917 -22.1186,125.14936 -22.2779,125.40718 -0.088,0.14227 -0.2594,0.24266 -0.381,0.22304 -0.1216,-0.0195 -50.4386,-2.44109 -111.8155,-5.38102 z m -412.3073,-35.88899 c 2.9914,-1.98138 5.4375,-6.00445 6.6189,-10.88608 1.2961,-5.35511 1.2219,-7.28877 -1.2585,-32.76826 -3.9751,-40.83246 -9.453,-96.65819 -15.8703,-161.73268 -3.4263,-34.74498 -6.1934,-63.206379 -6.149,-63.24756 0.044,-0.04118 3.6086,7.462557 7.9206,16.674979 4.312,9.212423 7.9345,16.649821 8.0499,16.527561 0.1155,-0.12226 2.459,-8.997801 5.2078,-19.72341 2.7488,-10.725613 5.0492,-19.552429 5.1119,-19.615152 0.063,-0.06272 3.1059,5.522422 6.7625,12.411427 4.2245,7.958749 6.7341,12.368573 6.8833,12.095149 0.1291,-0.236672 2.5743,-6.118314 5.4339,-13.070314 2.8595,-6.952 5.2872,-12.738685 5.3949,-12.859302 0.1077,-0.120615 6.3118,19.002652 13.7869,42.496142 7.4751,23.4935 13.689,42.8739 13.8087,43.06756 0.1197,0.19366 0.2726,-24.7616 0.3397,-55.456141 0.067,-30.694544 0.074,-55.875558 0.015,-55.957814 -0.059,-0.08226 -20.7278,1.47272 -45.9308,3.455501 -25.2031,1.982784 -45.9318,3.598083 -46.0638,3.589558 -0.132,-0.0085 -0.24,0.455088 -0.24,1.030259 0,0.575171 2.8108,30.635171 6.2461,66.799997 13.7221,144.45435 21.5939,227.50368 21.5939,227.8207 0,0.5864 0.8093,0.36068 2.3383,-0.65212 z m 330.2299,-1.43719 c 2.9327,-0.75993 5.5908,-2.24621 7.7844,-4.35254 3.0282,-2.90787 4.6181,-6.37792 5.2528,-11.46461 0.5088,-4.07776 7.3109,-76.11417 20.0021,-211.829 2.2131,-23.665941 4.0898,-43.095022 4.1706,-43.175733 0.161,-0.161014 20.9983,-1.705824 21.0875,-1.563357 0.03,0.04845 1.2567,5.70409 2.7253,12.56809 1.4686,6.864 2.766,12.752029 2.8831,13.084506 0.1575,0.446678 1.5821,-1.951728 5.4566,-9.186244 2.884,-5.384912 5.2718,-9.76094 5.3063,-9.724505 0.034,0.03643 0.8793,11.514243 1.8774,25.506243 0.9982,13.992 1.915,25.70254 2.0374,26.02343 0.1383,0.36244 3.2291,-11.03078 8.1596,-30.07752 4.3654,-16.863523 7.977,-30.700908 8.0259,-30.749747 0.082,-0.08187 42.6551,-3.143017 46.5393,-3.34632 l 1.7165,-0.08984 3.1239,10.173773 c 1.7182,5.595574 3.178,10.227798 3.244,10.293833 0.066,0.06604 1.7649,-4.699113 3.7752,-10.589216 2.0102,-5.890105 3.7452,-10.765065 3.8556,-10.833248 0.4935,-0.305008 15.4239,-1.19446 15.6545,-0.932592 0.1393,0.1581 0.8024,11.15945 1.4738,24.44745 0.6714,13.288 1.3082,24.262987 1.4152,24.388867 0.107,0.12588 4.2845,-11.322118 9.2833,-25.439997 4.9988,-14.117878 9.3673,-26.411059 9.7078,-27.318179 0.51,-1.358845 0.9373,-1.86552 2.4264,-2.877011 2.7489,-1.867354 8.9429,-8.233293 11.0079,-11.31368 1.8267,-2.72488 3.0218,-5.114576 2.5637,-5.126195 -0.6846,-0.01734 -186.1786,13.217814 -186.2618,13.289955 -0.1321,0.114544 0.5431,-6.787542 -13.6629,139.676237 -6.9563,71.72 -13.078,134.75443 -13.6037,140.07651 -0.5258,5.32208 -0.9559,9.96608 -0.9559,10.32 0,0.81223 1.1742,0.85427 3.9282,0.14064 z m 178.7005,-22.15781 6.7857,-19.46067 1.6502,-9.51523 c 0.9077,-5.23338 1.5974,-9.56444 1.5328,-9.62459 -0.065,-0.0602 -19.4494,-0.21532 -43.0774,-0.34483 l -42.96,-0.23546 v 0.97257 c 0,2.77169 1.4606,7.85369 3.1246,10.87139 1.1574,2.09904 4.4467,5.26227 6.5129,6.26342 3.2998,1.59881 5.031,1.8718 12.9937,2.04897 6.4996,0.14461 7.4487,0.23051 7.5715,0.68521 0.077,0.28593 0.6932,4.08381 1.3689,8.43973 0.6756,4.35591 1.3191,7.91991 1.43,7.92 0.1109,8e-5 2.1436,-3.77985 4.517,-8.39985 l 4.3154,-8.4 3.643,-0.1979 c 2.0036,-0.10885 7.1769,-0.21685 11.4961,-0.24 l 7.8531,-0.0421 2.0591,19.36 c 1.1325,10.648 2.1352,19.36 2.2283,19.36 0.093,0 3.2229,-8.75731 6.9551,-19.46066 z m -189.3373,-20.89847 1.6688,-1.31912 -24.2793,-24.28088 C 1422.9273,258.92639 1411.9022,248 1411.7807,248 c -0.1215,0 -1.6338,0.95994 -3.3608,2.13319 -5.967,4.05385 -13.0978,7.03201 -20.3382,8.49418 -3.1107,0.62821 -4.5832,0.72736 -10.8017,0.72736 -6.2185,0 -7.691,-0.0992 -10.8017,-0.72736 -5.2414,-1.05849 -8.941,-2.34502 -13.9983,-4.86802 -5.6154,-2.80139 -9.4623,-5.54433 -14.3604,-10.23935 l -3.8392,-3.68 1.5465,2.88 c 7.6651,14.27435 18.2102,25.06164 30.055,30.74555 12.9617,6.2198 28.079,7.17369 41.9581,2.64751 3.9142,-1.27649 10.6209,-4.66608 13.895,-7.0226 l 2.695,-1.93971 16.0246,16.02462 c 8.8135,8.81355 16.1919,16.02463 16.3963,16.02463 0.2044,0 1.1226,-0.59361 2.0405,-1.31913 z M 1269.1233,269.04 c -6.5868,-12.73123 -11.3966,-27.55841 -13.7282,-42.32 -2.2987,-14.55258 -2.5329,-30.85923 -0.6551,-45.6 1.5256,-11.97605 5.1571,-25.73207 9.5786,-36.28381 1.0032,-2.39391 1.0773,-2.4845 1.4406,-1.76 0.2106,0.42009 3.1648,8.28781 6.5649,17.48381 3.4001,9.196 6.2693,16.72 6.3761,16.72 0.1067,0 1.32,-14.94 2.6961,-33.2 1.3761,-18.26 2.6062,-33.344 2.7335,-33.52 3.1877,-4.40673 14.9907,-17.12 15.8941,-17.12 0.4389,0 0.331,-0.269456 10.7307,26.8107 4.7555,12.38309 7.235,18.45891 7.3784,18.08 0.1187,-0.31389 1.0945,-13.8187 2.1683,-30.0107 1.0739,-16.192 2.0349,-30.170342 2.1354,-31.062979 l 0.1828,-1.622983 3.2503,-1.803737 c 7.0551,-3.915296 14.9921,-7.430234 21.9702,-9.729664 6.9247,-2.281843 21.1046,-5.408359 21.3487,-4.707184 0.6294,1.807533 5.8293,12.766547 6.0575,12.766547 0.168,0 2.4415,-2.331347 5.0521,-5.180771 l 4.7466,-5.180768 2.1244,2.780768 c 1.1685,1.529424 3.9012,5.127517 6.0726,7.99576 2.1715,2.868243 4.0588,5.172243 4.194,5.12 0.1352,-0.05224 3.2392,-3.591975 6.8979,-7.866067 3.6586,-4.274093 6.7465,-7.658093 6.8619,-7.52 0.1154,0.138092 1.9942,7.62927 4.1751,16.647062 2.1809,9.017792 4.0561,16.289792 4.1672,16.16 0.1111,-0.129792 2.0446,-7.291984 4.2967,-15.915984 2.252,-8.624 4.1896,-15.787885 4.3057,-15.919744 0.5213,-0.592093 11.5073,3.601334 19.3154,7.37281 l 5.6958,2.751196 3.081,-3.080947 c 2.419,-2.418969 3.0042,-3.173417 2.7238,-3.511321 -0.1965,-0.236708 -2.0871,-1.718333 -4.2014,-3.2925 -18.4435,-13.731942 -39.5096,-21.947097 -62.915,-24.534921 -6.0096,-0.664455 -25.0091,-0.565226 -30.88,0.161273 -12.8413,1.58906 -22.3754,3.93801 -32.9525,8.118596 -16.2708,6.430985 -29.9533,15.605667 -43.5443,29.19814 -16.288,16.289786 -27.4464,33.414088 -34.9983,53.710398 -10.0064,26.89311 -11.7385,59.82193 -4.6745,88.86702 4.3521,17.89491 12.1693,34.75598 23.1412,49.9137 1.7223,2.37946 3.1887,4.3263 3.2584,4.3263 0.07,0 -0.8602,-1.908 -2.0667,-4.24 z m 189.2668,-87.31297 c 3.9655,-40.91969 7.2099,-74.82383 7.2099,-75.34252 0,-0.83829 -2.978,2.03479 -26.8017,25.85718 l -26.8017,26.80027 -6.0783,-5.80752 c -8.1536,-7.79033 -11.4248,-10.04011 -17.2859,-11.88852 -3.8603,-1.21741 -7.3186,-1.61968 -12.1189,-1.40967 -6.8879,0.30135 -11.8886,1.94707 -17.3794,5.71961 -9.3824,6.44623 -18.4212,20.44218 -21.6634,33.54414 -1.4721,5.94865 -1.8117,9.40834 -1.3034,13.28011 1.2252,9.33475 4.6988,18.56178 9.9848,26.5232 9.3258,14.04615 19.7123,19.95434 33.9309,19.30111 4.5521,-0.20914 7.9725,-0.93822 11.5407,-2.46001 5.0796,-2.1663 7.7736,-4.21629 15.4316,-11.74256 l 5.9354,-5.83321 19.0108,19.01285 c 10.4559,10.45707 19.0486,18.97508 19.0948,18.92892 0.046,-0.0462 3.3283,-33.56368 7.2938,-74.48338 z m -93.7368,40.45576 c -7.4225,-5.82694 -13.6199,-16.59536 -15.8341,-27.51306 -0.7888,-3.88919 -0.8193,-5.57243 -0.1651,-9.11438 1.9439,-10.52387 8.5276,-22.39341 15.5914,-28.10904 4.3167,-3.49282 8.2507,-4.9035 13.6745,-4.9035 5.2119,0 9.4464,1.38352 13.1186,4.28624 0.889,0.70275 5.9471,5.45847 11.2401,10.56826 l 9.6235,9.29054 4.1833,-4.10392 c 2.3008,-2.25717 10.8188,-10.77725 18.9289,-18.93352 8.824,-8.87422 14.7846,-14.63803 14.8428,-14.35259 0.053,0.26235 -0.999,11.83166 -2.3387,25.70959 l -2.4358,25.23259 -7.4195,7.44064 c -4.0806,4.09235 -7.524,7.40435 -7.6518,7.36 -0.1279,-0.0444 -4.5778,-4.25664 -9.8888,-9.36064 -5.311,-5.104 -10.3912,-9.84172 -11.2894,-10.52826 -2.1425,-1.63754 -5.6227,-3.2363 -8.1001,-3.72107 -3.0082,-0.58863 -9.3459,-0.24777 -11.8444,0.63703 -9.2579,3.27848 -19.2326,17.26191 -21.994,30.83307 -0.8023,3.94287 -0.8985,5.94377 -0.4069,8.45923 0.2494,1.276 0.3677,2.31991 0.2628,2.3198 -0.1048,-1.1e-4 -1.0486,-0.67376 -2.0973,-1.49701 z M 1608.88,206.20692 c 2.332,-0.10515 4.2446,-0.21273 4.2501,-0.23905 0.3367,-1.5889 2.7086,-19.14255 2.6011,-19.25004 -0.087,-0.0868 -8.146,-0.15783 -17.9092,-0.15783 h -17.7513 l 0.1739,3.6 c 0.4361,9.02677 4.4264,14.82535 11.1718,16.23432 1.3458,0.28111 8.8625,0.20045 17.4636,-0.1874 z m 38.08,39.31331 c -4.708,-0.0499 -8.5594,-0.12433 -8.5587,-0.16546 0.01,-0.48149 11.8025,-72.62244 11.8852,-72.69772 0.1091,-0.0993 15.2964,0.77209 35.1535,2.0169 5.192,0.32548 9.4723,0.56867 9.5118,0.54042 0.039,-0.0283 4.3423,-32.65904 9.5618,-72.51286 5.2195,-39.853833 9.525,-72.503283 9.5677,-72.55434 0.1143,-0.13655 21.6877,-1.684877 21.8074,-1.565126 0.1283,0.128265 -22.8012,174.919606 -22.9668,175.075936 -0.067,0.0633 -2.1379,-0.0201 -4.6019,-0.18532 -16.0921,-1.0789 -39.7153,-2.40112 -39.8978,-2.23313 -0.1198,0.11026 -1.8252,10.06395 -3.7899,22.11931 -1.9646,12.05537 -3.6391,22.02737 -3.721,22.16 -0.082,0.13264 -1.3286,0.20761 -2.7702,0.16661 -1.4416,-0.041 -6.4731,-0.11535 -11.1811,-0.16522 z M 157.44,55.476486 v -14.44079 l 2.64,-0.193098 c 4.71583,-0.344934 25.51889,-0.950371 25.72071,-0.748556 0.10788,0.107884 0.11118,0.52686 0.007,0.931056 -0.10386,0.404195 -6.52915,7.070288 -14.27844,14.813539 L 157.44,69.917274 Z"
       id="path7949"
       inkscape:connector-curvature="0" />
    <path
       style="fill:#6c6d70;stroke-width:0.31999999"
       d="m 285.43425,448.22045 c -4.31516,-4.08125 -28.79516,-27.06807 -54.4,-51.08186 L 184.48,353.47718 l -0.20598,3.34141 c -0.11329,1.83779 -0.44569,14.50141 -0.73867,28.14141 -0.29298,13.64 -0.59786,25.24157 -0.6775,25.78128 l -0.14481,0.98125 -72.01373,0.41485 c -39.60756,0.22819 -72.101192,0.32742 -72.208078,0.22051 -0.16153,-0.16151 -1.091194,-28.09143 -0.940294,-28.24919 C 37.577914,384.08054 63.88,383.88653 96,383.67766 c 32.12,-0.20886 58.4256,-0.40339 58.4569,-0.43225 0.0313,-0.0288 0.35814,-12.50695 0.72632,-27.72896 0.36819,-15.22205 0.70259,-28.26666 0.74311,-28.988 L 156,325.2169 l 54.53396,51.15155 c 29.99368,28.13334 54.57676,51.15155 54.62906,51.15155 0.0523,0 15.095,-16.02 33.42819,-35.6 18.3332,-19.58 34.14511,-36.42957 35.13759,-37.44346 l 1.80451,-1.84345 3.55683,1.57232 c 25.06352,11.07949 54.07072,14.87894 83.14986,10.89129 30.50781,-4.18358 57.32397,-17.14464 81.27082,-39.28064 2.10694,-1.94761 3.87081,-3.50112 3.91971,-3.45219 0.0853,0.0853 4.08605,40.82643 4.4687,45.50634 l 0.1856,2.27021 -3.8024,2.39756 c -18.68867,11.78384 -38.61561,18.69133 -62.20243,21.56192 -5.7097,0.69488 -23.49331,0.98996 -29.6,0.49111 -17.85165,-1.45824 -35.61274,-5.9065 -49.94771,-12.50941 l -2.58768,-1.19194 -35.01232,37.38519 C 309.67554,438.8367 293.776,455.65574 293.6,455.65046 c -0.176,-0.005 -3.85059,-3.34876 -8.16575,-7.43001 z m 557.75903,4.04112 c -0.004,-0.14387 -1.70909,-7.65475 -3.78976,-16.69088 -2.44838,-10.63299 -3.65968,-16.47293 -3.43331,-16.5529 0.19238,-0.068 27.20579,-6.60595 60.02979,-14.52886 32.824,-7.92291 59.83923,-14.46563 60.03386,-14.53936 0.23491,-0.089 -0.52845,-4.09587 -2.27124,-11.92183 -1.4438,-6.48326 -2.49644,-11.83795 -2.3392,-11.89929 0.15725,-0.0614 29.51101,0.71894 65.23058,1.73398 35.7196,1.01507 65.0419,1.74835 65.1607,1.62951 0.1188,-0.11882 0.043,-26.26378 -0.1686,-58.09989 -0.6451,-97.07953 -1.415,-139.09655 -2.7842,-151.95641 -3.0389,-28.54151 -12.913,-54.9799 -28.6516,-76.71564 l -1.3903,-1.92 2.71,2.21839 c 9.9938,8.180909 18.5788,17.04841 25.8115,26.6608 l 2.7082,3.59919 6.6954,70.48081 c 4.393,46.2435 8.6761,93.76826 12.4552,138.19947 3.1678,37.24528 5.7597,68.02528 5.7597,68.4 0,0.63728 0.1625,0.68134 2.5129,0.68134 h 2.5128 l 0.2199,3.40061 c 0.1209,1.87033 0.1704,3.45005 0.11,3.51049 -0.1022,0.10221 -118.71563,-3.16553 -127.0356,-3.49974 -2.068,-0.0831 -3.76,-0.0256 -3.76,0.12771 0,0.15331 1.14896,5.49479 2.55325,11.86992 1.40429,6.37517 2.48246,11.66199 2.39593,11.74848 -0.0865,0.0865 -31.65548,7.76589 -70.15324,17.06522 -38.49776,9.29936 -70.24794,16.98723 -70.55594,17.08419 -0.308,0.0969 -0.56301,0.0586 -0.56672,-0.0853 z m 723.69182,-32.96221 c -67.9332,-3.24637 -123.5661,-5.95366 -123.6287,-6.01622 -0.062,-0.0626 0.2592,-3.72109 0.715,-8.13008 0.4557,-4.40896 0.8286,-8.437 0.8286,-8.95114 v -0.93482 l -2,0.62868 c -3.5357,1.11139 -13.3822,3.40953 -18.16,4.23849 -10.6724,1.85175 -18.5444,2.5008 -30.08,2.48013 -22.1933,-0.0398 -41.4876,-3.64166 -61.4373,-11.46915 -5.1346,-2.01459 -16.9501,-7.88941 -21.9227,-10.90019 -7.7186,-4.67341 -14.4007,-9.45428 -21.6178,-15.46688 -3.9374,-3.28036 -16.2131,-15.28324 -18.7959,-18.37818 l -1.3352,-1.6 0.1661,2.08 c 0.091,1.144 0.74,13.96 1.4415,28.48 0.7015,14.52 1.3908,28.632 1.5319,31.36 0.1411,2.728 0.1739,5.05181 0.073,5.164 -0.1839,0.20429 -149.1363,7.74995 -149.3219,7.56435 -0.2012,-0.20121 -2.507,-28.70966 -2.3359,-28.88077 0.098,-0.0978 30.2407,-1.6807 66.9841,-3.5175 36.7435,-1.83683 66.847,-3.3825 66.8966,-3.43488 0.076,-0.0806 -1.3705,-30.43763 -2.8087,-58.92723 l -0.4015,-7.95204 1.0987,1.39203 c 1.9752,2.50263 14.1714,14.46743 18.265,17.91841 26.4482,22.2967 55.9151,34.52073 91.04,37.76701 5.8633,0.54188 23.6212,0.54729 29.44,0.009 11.7328,-1.08551 23.7364,-3.39239 34.7437,-6.67722 0.4452,-0.13286 0.3976,0.88109 -0.4086,8.71699 -0.5018,4.87703 -0.8378,8.94189 -0.7467,9.03299 0.1739,0.17392 247.8714,11.99456 248.0231,11.8362 0.1065,-0.1112 21.9085,-121.73294 21.9085,-122.21591 0,-0.34554 22.4911,-0.30157 22.8179,0.0446 0.083,0.088 -2.9203,17.29268 -6.6742,38.23262 -3.7538,20.93996 -6.7836,38.11416 -6.7329,38.16488 0.051,0.0508 0.9291,0.31024 1.9518,0.57661 10.1852,2.65293 19.0392,11.78695 22.0098,22.70589 3.1784,11.68294 -1.3315,24.85664 -11.0048,32.14573 -6.3428,4.77939 -13.7214,6.98288 -21.5275,6.42877 -1.5676,-0.1113 -2.5608,-0.0571 -2.6281,0.14329 -0.059,0.17722 -0.5563,2.90941 -1.104,6.07155 -1.0035,5.79322 -1.1239,6.28282 -1.5269,6.21159 -0.1216,-0.0214 -55.8028,-2.6952 -123.736,-5.94157 z m 142.5428,-18.19469 c 6.0032,-1.89638 10.5907,-6.41545 12.7093,-12.51977 0.7502,-2.16157 0.8694,-3.00925 0.8694,-6.1849 0,-3.17021 -0.1198,-4.0248 -0.8641,-6.16909 -3.0201,-8.6999 -11.0652,-14.08662 -20.2675,-13.57046 -14.453,0.81072 -23.5013,15.60947 -17.2542,28.21955 2.9822,6.01965 8.623,10.02637 15.6992,11.15117 2.0295,0.32262 6.6377,-0.14615 9.1079,-0.9265 z m -9.7479,-4.43555 c -8.9467,-2.21686 -13.404,-12.21152 -9.3076,-20.87037 1.8336,-3.87574 4.5491,-6.28224 8.4477,-7.4864 5.0837,-1.57017 10.5834,-0.0925 14.2517,3.82925 3.0161,3.22442 4.4988,8.08182 3.8151,12.49856 -1.3211,8.53498 -9.1683,14.0208 -17.2069,12.02896 z m 0.8,-8.18912 v -3.2 h 1.6 c 1.9292,0 2.6889,0.62381 3.1943,2.62314 0.1915,0.75728 0.5287,1.88086 0.7495,2.49686 l 0.4014,1.12 3.2637,0.0912 3.2637,0.0911 -0.3107,-0.81744 c -0.171,-0.44956 -0.5331,-1.77564 -0.8047,-2.94681 -0.5852,-2.52336 -1.418,-3.98042 -2.7611,-4.83079 l -0.9819,-0.62172 1.0167,-0.35444 c 0.5592,-0.19491 1.438,-0.8054 1.9529,-1.3566 1.8344,-1.96372 0.9928,-5.38672 -1.6609,-6.75578 -1.7675,-0.91184 -5.8881,-1.26051 -10.3344,-0.87443 -2.106,0.18288 -3.946,0.40473 -4.0888,0.49299 -0.1428,0.0883 -0.2597,4.184 -0.2597,9.1016 V 391.68 h 2.88 2.88 z m 0.32,-9.44 v -2.08 h 1.2592 c 1.6546,0 2.7765,0.44982 3.2285,1.2945 0.8735,1.63209 -0.4448,2.8655 -3.0628,2.8655 H 1700.8 Z M 616.82442,415.65456 c -40.64256,-1.90781 -74.05114,-3.52845 -74.24128,-3.60141 -0.31485,-0.1208 -3.28036,-26.66259 -3.00932,-26.93363 0.0597,-0.0597 27.94973,1.18627 61.97799,2.76867 34.02825,1.58243 61.93664,2.81005 62.01862,2.72807 0.082,-0.082 -1.30694,-7.2562 -3.08649,-15.94269 L 657.24835,358.88 654.70416,337.62506 c -1.3993,-11.69024 -2.54416,-21.47542 -2.54416,-21.74485 0,-0.57322 -0.2617,-0.99624 17.29008,27.94747 l 13.57616,22.38768 1.32739,10.89232 c 1.14215,9.37222 1.75715,12.98275 4.40688,25.87146 1.69373,8.23849 3.07949,15.25849 3.07949,15.6 0,0.39257 -0.20589,0.60675 -0.56,0.58249 -0.308,-0.0211 -33.81299,-1.59929 -74.45558,-3.50707 z M 211.00035,358.36509 C 180.92616,330.15987 153.872,304.77084 150.88,301.94502 l -5.44,-5.13784 -0.22809,1.91641 c -0.12546,1.05403 -0.59657,17.60352 -1.04691,36.77667 -0.45036,19.17312 -0.85171,34.88896 -0.89191,34.92409 -0.12972,0.11338 -120.280201,0.83587 -120.372149,0.72387 C 22.752832,370.96778 13.769917,35.566742 13.761837,29.915403 L 13.76,28.630806 78.48,26.300477 c 35.596,-1.28168 65.332,-2.323611 66.08,-2.315402 L 145.92,24 v 37.67952 37.67952 l 39.96252,-39.961565 c 28.88768,-28.886978 40.08377,-39.888689 40.4,-39.698592 0.24062,0.144636 16.89699,13.640138 37.01416,29.990003 l 36.57668,29.727031 3.74332,-3.631821 c 15.07585,-14.626813 33.1797,-25.605046 52.61977,-31.908794 24.49542,-7.943036 54.05683,-8.890499 79.92355,-2.561603 29.20883,7.146627 55.14211,24.123443 75.51043,49.431725 l 3.11095,3.865424 0.20851,-6.905424 C 515.10458,83.90744 515.19878,73.348 515.1992,64.24 V 47.68 l 0.72,-0.0019 c 0.396,-9.6e-4 28.728,-0.864384 62.96,-1.918426 34.232,-1.054044 63.248,-1.912006 64.48,-1.906579 l 2.24,0.0099 28.95229,53.100282 c 15.92374,29.205153 29.04051,52.996013 29.14838,52.868563 0.10787,-0.12745 1.43469,-27.64307 2.94851,-61.145821 1.5138,-33.502758 2.83552,-60.997261 2.93716,-61.098896 0.23379,-0.233811 111.93721,3.495741 112.2304,3.747148 0.11923,0.102218 -0.13568,8.825851 -0.56644,19.385851 -0.43075,10.56 -0.74428,19.763568 -0.69673,20.452371 l 0.0864,1.252374 3.04,-2.810355 c 17.97818,-16.620083 40.83888,-27.928864 67.58797,-33.434554 5.15904,-1.061868 13.5327,-2.317507 19.77203,-2.964838 6.28003,-0.651552 26.78659,-0.549725 32.64,0.162077 17.59805,2.140009 31.45523,6.15088 45.9519,13.300486 37.90133,18.692531 64.15073,51.440701 74.16153,92.522437 3.9373,16.15734 5.3861,32.28758 6.6827,74.4 0.285,9.25644 0.3942,32.18051 0.3709,77.84632 -0.018,35.59947 -0.1012,64.79457 -0.1847,64.878 -0.1882,0.18822 -119.22959,-3.18163 -119.41654,-3.38045 -0.0744,-0.0791 -0.41078,-7.30352 -0.74755,-16.05421 -0.33674,-8.75069 -0.67683,-15.97494 -0.75574,-16.05385 -0.12356,-0.12352 -16.95914,2.03334 -17.18544,2.20169 -0.0456,0.0339 2.13827,12.57639 4.85305,27.8721 2.71479,15.29571 4.9841,28.15725 5.04291,28.58115 0.10676,0.76909 -0.0218,0.80186 -58.59548,14.95085 -32.28637,7.79907 -58.76061,14.12201 -58.83162,14.05097 -0.13757,-0.13756 -8.40291,-36.1199 -14.8143,-64.49257 -2.12775,-9.416 -3.92778,-17.18 -4.00013,-17.25335 -0.0723,-0.0733 -0.13149,0.1778 -0.13149,0.55802 0,1.9488 -1.63152,28.6735 -1.75824,28.80022 -0.0814,0.0814 -24.59517,-0.38096 -54.47491,-1.02755 -29.87978,-0.64659 -55.2632,-1.17152 -56.40759,-1.16649 l -2.08076,0.009 -3.22695,-5.36 c -1.77481,-2.948 -14.26646,-23.565 -27.75923,-45.81553 L 635.84,262.28895 v 2.21552 c 0,5.91845 2.14502,28.81026 4.81171,51.38556 0.88032,7.4525 3.19834,24.24933 5.15114,37.32632 1.9528,13.07703 3.49792,23.81786 3.43357,23.86861 -0.0643,0.0507 -27.04496,-1.17322 -59.95696,-2.71987 -32.912,-1.54663 -60.59325,-2.81949 -61.51389,-2.82858 -1.46784,-0.0144 -1.69392,-0.10515 -1.83645,-0.73651 -0.22704,-1.00589 -5.04298,-49.45142 -6.50595,-65.44621 -0.66435,-7.26342 -1.32541,-13.21476 -1.46899,-13.2252 -0.14362,-0.0104 -1.27495,1.32435 -2.51405,2.96621 -5.96688,7.90615 -15.34656,17.99219 -22.88387,24.60718 -19.06346,16.73072 -41.06205,27.42964 -65.3568,31.78599 -13.87863,2.48857 -29.83972,2.96189 -44.00874,1.30502 -15.94269,-1.86432 -30.14563,-6.01929 -44.26378,-12.94915 -2.8728,-1.41011 -5.28028,-2.56384 -5.34992,-2.56384 -0.0942,0 -66.39182,70.64506 -67.66646,72.10365 -0.12672,0.14499 -24.83656,-22.81335 -54.91075,-51.01856 z m 631.77303,10.08029 c 3.12784,-3.31648 4.34566,-9.67821 3.15724,-16.49309 -0.25814,-1.48035 -0.6976,-3.3352 -0.97657,-4.12192 -1.23482,-3.48215 -13.37984,-58.48787 -18.26211,-82.71037 -10.01181,-49.67166 -12.50448,-74.54431 -9.54074,-95.2 1.70518,-11.88417 4.89795,-22.56333 9.73594,-32.56469 5.58137,-11.53815 11.73958,-20.17741 20.9359,-29.3707 20.68182,-20.675013 47.90768,-31.933445 83.21696,-34.411864 6.52586,-0.458064 17.67949,-0.216896 23.84,0.515472 22.95459,2.728876 42.26176,10.870521 60.621,25.563254 3.1293,2.504418 12.4398,11.522788 15.2262,14.748528 l 1.382,1.6 -1.2289,-2.24 C 1023.4998,100.30812 1011.8271,87.123517 998.57766,77.273494 972.80678,58.114682 943.02547,50.947094 907.68,55.396803 c -29.86646,3.759946 -54.0968,14.865843 -72.50221,33.231152 -18.97213,18.930805 -29.41853,42.002935 -31.648,69.898515 -0.42115,5.26968 -0.424,16.18142 -0.005,21.50706 2.03187,25.86285 13.62026,85.2421 33.59197,172.12647 1.7801,7.744 3.39306,14.836 3.58435,15.76 0.19133,0.924 0.49095,1.68 0.66589,1.68 0.17491,0 0.80806,-0.51958 1.40698,-1.15462 z M 549.43517,336.80243 c 1.83747,-0.9311 3.98704,-3.23261 4.86806,-5.21213 1.11463,-2.50438 1.08003,-5.93779 -0.18781,-18.6303 -4.18105,-41.85759 -5.30553,-61.7437 -5.31987,-94.08 -0.0131,-29.87357 0.69968,-130.693574 0.9257,-130.91257 0.10931,-0.105916 20.64675,-0.795276 45.63875,-1.531916 24.992,-0.73664 45.98346,-1.441984 46.64768,-1.567431 L 643.21533,84.64 641.71677,82.08 c -2.28938,-3.910982 -4.7424,-7.10049 -7.62938,-9.92 -2.79616,-2.730822 -5.00509,-4.211155 -8.23817,-5.520886 -3.60941,-1.462173 -5.10583,-1.5144 -22.32922,-0.779357 -8.712,0.371801 -26.856,1.125165 -40.32,1.674137 -13.464,0.548973 -24.92429,1.060503 -25.46733,1.136736 l -0.98733,0.138605 -0.21289,29.995383 C 535.98826,175.47837 535.91149,213.99926 536.28454,223.2 c 0.90976,22.43754 2.62384,46.78757 5.32743,75.68 1.35094,14.4375 3.6712,37.56134 3.84829,38.35293 0.15126,0.67603 0.28771,0.73053 1.33641,0.53379 0.6424,-0.12051 1.82973,-0.55443 2.6385,-0.96429 z M 46.140272,335.96925 c 2.055949,-1.04887 4.295754,-3.63357 5.864816,-6.76794 2.313309,-4.62105 3.466854,-9.42991 3.980806,-16.59507 0.356474,-4.96966 -0.504742,-34.29997 -5.58903,-190.34515 C 49.436717,92.792694 48.684637,68.658573 48.725571,68.629706 48.766509,68.600842 59.528,68.256547 72.64,67.864608 c 25.826957,-0.77201 29.88199,-0.991424 32.99539,-1.78535 4.8121,-1.227101 9.37317,-4.178461 12.86441,-8.324263 1.9099,-2.267984 5.13465,-8.276969 5.5356,-10.314995 l 0.2046,-1.04 -1.56,-0.01402 c -0.858,-0.0077 -20.74986,0.672867 -44.204131,1.5124 l -42.644128,1.526422 0.183091,4.6476 c 0.100701,2.55618 0.896058,30.9276 1.767462,63.047608 3.019389,111.29483 5.706864,208.50608 5.916186,214 0.234368,6.15132 0.163882,6.01136 2.441792,4.84924 z M 983.82106,312.24 c -0.0866,-4.092 -0.2416,-10.77918 -0.34445,-14.8604 l -0.18701,-7.4204 -1.71568,0.75876 c -5.25162,2.32252 -8.8823,6.4552 -9.90304,11.27232 -0.5665,2.67347 -0.61795,10.59244 -0.0944,14.52501 l 0.37648,2.82783 4.50352,0.098 c 2.47693,0.0539 5.18266,0.12967 6.01274,0.16844 l 1.50925,0.0705 z M 322.58544,303.76957 323.8792,303.2 313.2196,294.72116 c -5.86278,-4.66335 -32.32161,-25.72615 -58.7974,-46.8062 -34.21063,-27.23855 -48.2368,-38.22815 -48.48,-37.98443 -0.19621,0.19664 -0.3422,1.67747 -0.3422,3.47111 0,3.03439 0.0403,3.20896 1.3457,5.82326 0.74013,1.48231 2.10813,3.62329 3.04,4.75773 1.28947,1.56981 10.4106,9.02634 38.1743,31.20756 52.35811,41.8304 56.47551,45.09237 58.12357,46.04783 1.88286,1.09158 6.23414,2.68591 8.38355,3.07178 2.31995,0.41647 6.37333,0.13993 7.91832,-0.54023 z m 98.2216,-25.19038 c 11.32886,-1.50841 20.35674,-5.93304 28.75216,-14.09166 11.2527,-10.93532 19.29411,-26.3703 21.92704,-42.08753 1.61642,-9.64912 1.56448,-19.99447 -0.14698,-29.28 -1.90252,-10.32209 -5.9254,-20.23151 -11.7454,-28.93195 -2.5018,-3.74001 -6.82192,-9.3678 -7.03668,-9.16664 -0.0456,0.0427 0.34365,1.01821 0.86493,2.16786 2.32451,5.12661 4.58247,12.99957 5.62432,19.61073 0.70803,4.49292 0.96954,14.81165 0.50359,19.87218 -1.33994,14.55253 -6.44416,27.94066 -15.23776,39.96782 -9.04727,12.37414 -19.80263,19.60164 -33.19936,22.30966 -3.0929,0.6252 -4.55034,0.72421 -10.4729,0.7115 -5.89888,-0.0127 -7.35914,-0.11779 -10.24,-0.73716 -9.92698,-2.13427 -17.9553,-6.39529 -25.40554,-13.484 l -3.19504,-3.04 1.69274,3.2 c 1.96672,3.71794 5.61498,9.33875 7.99651,12.32 2.63056,3.29302 7.93287,8.50311 11.07133,10.87879 10.77994,8.15991 24.35194,11.6305 38.24704,9.7804 z m 536.31296,-7.96307 24.48,-3.2618 -0.0853,-2.23716 c -0.65213,-17.09839 -3.61162,-57.55548 -4.75168,-64.95716 -1.83764,-11.93076 -6.68439,-22.50057 -13.63818,-29.7423 l -2.47523,-2.5777 0.49549,1.44 c 0.94934,2.75893 2.3198,8.50304 2.82492,11.84 1.01578,6.71049 2.73319,28.73449 4.01757,51.52 0.35216,6.248 0.71021,12.26637 0.79565,13.37416 0.10918,1.41529 0.0396,2.05253 -0.23392,2.14323 -0.38179,0.12659 -59.84445,6.56308 -60.62928,6.56277 -0.64077,-2.6e-4 -0.46992,1.11917 0.59053,3.86898 2.47385,6.41492 7.42528,11.36264 13.65216,13.64191 3.06281,1.1211 5.65213,1.63739 8.23731,1.64248 1.232,0.003 13.256,-1.46341 26.72,-3.25741 z m -653.73781,-2.73186 c -6.55915,-13.08467 -10.73305,-27.2842 -12.7115,-43.24426 -0.73183,-5.90361 -0.8331,-25.50421 -0.16286,-31.52 2.93602,-26.35242 12.09469,-48.60374 28.38404,-68.96 15.44899,-19.3061 34.44871,-33.108586 55.20432,-40.103626 19.66986,-6.629116 43.22461,-7.977123 64.78381,-3.707497 25.03046,4.957088 46.73626,17.921955 65.04448,38.851123 4.55581,5.20799 4.51456,5.17769 2.61427,1.92 -5.55977,-9.53127 -12.0872,-17.97957 -20.60589,-26.669712 C 475.67357,83.984515 466.76224,77.277763 455.2,71.320429 443.09386,65.082851 431.40986,61.524061 416.8,59.624317 c -3.61021,-0.46944 -6.71664,-0.582714 -16,-0.583431 -12.04109,-9.6e-4 -14.19414,0.152205 -22.78163,1.62032 -24.63197,4.211069 -46.56624,16.43682 -64.83682,36.138794 -20.31294,21.90436 -31.69002,46.2524 -35.28813,75.52 -0.70311,5.71922 -0.96493,21.21032 -0.46699,27.62979 2.00309,25.82367 10.22141,48.10449 25.24798,68.45021 1.33236,1.804 2.46479,3.28 2.5165,3.28 0.0517,0 -0.76221,-1.70808 -1.80872,-3.79574 z M 734.71318,247.76 c -0.0166,-0.57983 8.08212,-178.80608 8.12733,-178.858803 0.0278,-0.03234 8.25597,0.229475 18.28496,0.581811 21.12227,0.742064 23.1384,0.704477 26.07837,-0.486163 4.07738,-1.65128 7.56198,-5.214663 9.81069,-10.032439 1.23043,-2.636252 2.2871,-6.329456 1.9168,-6.699734 -0.19498,-0.194998 -68.73427,-2.73279 -68.89111,-2.550819 -0.0218,0.02538 -1.83024,39.510409 -4.01859,87.744507 -2.92064,64.37488 -3.91171,88.46319 -3.72653,90.57418 0.5737,6.53881 2.85306,12.52582 6.08362,15.97932 2.15971,2.30873 6.36426,4.79658 6.33446,3.74814 z M 407.43005,237.58526 c 3.26851,-0.68755 6.85574,-2.1859 9.69782,-4.05069 9.65299,-6.33365 18.38823,-21.3276 20.43088,-35.06943 0.39936,-2.68683 0.40071,-3.51361 0.01,-6.13721 -1.01382,-6.80661 -3.48288,-13.75863 -6.99232,-19.68793 -5.08659,-8.59391 -10.72985,-14.52924 -16.65635,-17.51839 -8.31942,-4.19607 -19.75536,-3.8303 -27.75014,0.88757 -7.99946,4.72063 -16.00234,15.42469 -19.87264,26.58021 -2.34314,6.75368 -3.08996,11.97876 -2.32839,16.29061 2.72298,15.41669 11.76071,29.89279 22.35539,35.80762 2.60871,1.45637 7.14746,2.95468 10.15578,3.35255 2.88666,0.38178 7.97811,0.17027 10.95005,-0.45491 z M 931.2,230.51962 c 7.656,-0.8159 14.01853,-1.5726 14.13898,-1.68154 0.47334,-0.4282 -2.19261,-29.68095 -3.10957,-34.12012 -1.87178,-9.06193 -6.96647,-17.15696 -12.50887,-19.87554 -1.72614,-0.84668 -2.16956,-0.92242 -5.40054,-0.92242 -4.43923,0 -6.22544,0.5689 -8.5999,2.73902 -2.09949,1.91884 -3.7066,4.86976 -4.8801,8.96079 l -0.8639,3.01171 0.72512,6.40424 c 0.66665,5.88809 3.38508,25.34434 4.68403,33.52424 0.49401,3.11107 0.61072,3.44015 1.22048,3.44154 0.37085,9.6e-4 6.93827,-0.66602 14.59427,-1.48192 z M 256.4974,220.72 c -0.58662,-3.5551 -0.89123,-10.00993 -1.02312,-21.68 -0.19315,-17.09102 0.3049,-26.2124 1.99743,-36.58111 0.282,-1.72762 0.45282,-3.20103 0.3796,-3.27425 -0.0732,-0.0732 -0.98626,0.90828 -2.02898,2.18111 -1.04271,1.27284 -8.1228,9.83077 -15.73354,19.01763 -7.61074,9.18685 -13.8762,16.84631 -13.92325,17.02102 -0.0834,0.30955 29.74311,24.30988 30.24896,24.3403 0.13998,0.008 0.17728,-0.4527 0.0829,-1.0247 z M 188.8,119.2 c 28.24759,-28.248 51.43874,-51.36 51.53588,-51.36 0.0971,0 7.43879,5.899331 16.31475,13.109622 8.87597,7.210295 16.24274,13.005008 16.37061,12.877143 0.12786,-0.127866 0.46468,-1.138858 0.74848,-2.24665 0.56448,-2.203392 0.33808,-4.229926 -0.69598,-6.229571 -0.91499,-1.769398 -5.80345,-6.20937 -12.91374,-11.728976 -7.43779,-5.773837 -31.01439,-23.897962 -32.03793,-24.628627 -0.58544,-0.417927 -3.24737,2.167613 -40.85232,39.68 C 165.14542,110.74283 146.33496,129.664 145.46874,130.72 c -4.50158,5.4878 -7.8243,12.47046 -9.36482,19.68 -0.71895,3.36468 -0.81124,12.84562 -0.15419,15.84 0.594,2.70703 1.07987,4.32 1.3013,4.32 0.10434,0 23.30138,-23.112 51.54897,-51.36 z m 572.16,276.78544 c -25.432,-0.57805 -46.92128,-1.09926 -47.75395,-1.15824 L 711.6921,394.72 703.24906,380.8 c -4.64368,-7.656 -8.4264,-13.93917 -8.40605,-13.96262 0.0205,-0.0234 24.14822,0.48057 53.61753,1.12 l 53.58052,1.16262 3.1246,13.6 c 1.71853,7.48 3.13127,13.78 3.13946,14 0.008,0.22 -0.23712,0.38122 -0.54512,0.35824 -0.308,-0.023 -21.368,-0.51472 -46.8,-1.0928 z m 788.6484,-17.95696 c -60.3634,-2.89578 -109.7776,-5.2928 -109.8093,-5.32675 -0.032,-0.034 0.4991,-5.46173 1.1796,-12.06173 0.6804,-6.6 1.2425,-12.16595 1.2492,-12.3688 0.01,-0.20659 -1.3601,0.23411 -3.1079,1.00205 -29.3902,12.91309 -66.8492,15.79981 -99.3339,7.65497 -16.8705,-4.22992 -30.6677,-10.35107 -45.3861,-20.13577 -21.8732,-14.54112 -41.4363,-35.95901 -54.3297,-59.4806 -1.341,-2.44648 -2.4767,-4.31848 -2.5238,-4.16 -0.047,0.15848 1.1123,22.32015 2.5764,49.24815 1.4642,26.928 2.6475,48.98154 2.6296,49.00787 -0.087,0.12871 -125.0011,6.28877 -125.111,6.16979 -0.2123,-0.22979 -32.1826,-350.50325 -32.0073,-350.678573 0.2835,-0.283463 135.6167,-10.898021 135.8223,-10.652923 0.108,0.12861 1.6728,24.281836 3.4775,53.673836 1.8046,29.392 3.3614,54.26951 3.4595,55.28336 l 0.1784,1.84337 1.6605,-4.40337 c 8.0103,-21.2419 19.5467,-39.616547 35.7689,-56.970886 20.8005,-22.252096 46.2405,-37.393886 73.5187,-43.757993 14.9648,-3.491347 24.5413,-4.638417 38.6655,-4.631317 27.4152,0.01378 51.8174,6.154033 74.4545,18.734711 3.6711,2.04025 13.9981,8.768445 17.1987,11.205216 1.0658,0.811463 1.5572,1.028119 1.6481,0.726576 0.071,-0.236317 0.5095,-4.455411 0.9741,-9.375763 0.4645,-4.920352 0.8763,-8.97783 0.9151,-9.016617 0.1313,-0.131211 230.3952,-16.466826 230.7723,-16.371673 0.266,0.06712 -2.4154,21.471391 -9.2832,74.10374 -5.3114,40.705146 -9.7463,74.098516 -9.8553,74.207486 -0.109,0.10898 -5.3487,-0.11271 -11.6439,-0.49264 -36.0207,-2.17393 -62.1202,-3.48844 -75.0459,-3.7797 l -9.2,-0.20731 v 1.41141 c 0,0.77627 -0.094,2.3834 -0.2063,3.5714 l -0.204,2.16 h 25.6717 25.6717 l -0.1795,0.88 c -0.8651,4.24198 -14.9102,92.02783 -14.7495,92.18873 0.1161,0.11619 13.7953,0.28327 30.3982,0.37127 16.6029,0.088 30.2566,0.232 30.3417,0.32 0.085,0.088 -4.8351,28.312 -10.9336,62.72 l -11.0881,62.56 -2.24,0.0468 c -1.232,0.0256 -51.6283,-2.32253 -111.9916,-5.21827 z M 1651.8329,355.28 c 0,-0.132 3.1836,-18.85651 7.0834,-41.61 3.8997,-22.7535 7.0349,-41.4214 6.967,-41.48422 -0.068,-0.0628 -22.7677,-0.25067 -50.4441,-0.41743 -27.6764,-0.16676 -50.3974,-0.37987 -50.4911,-0.47356 -0.2298,-0.22984 3.0977,-36.50567 3.3786,-36.83296 0.1219,-0.14199 10.7903,-0.55316 23.7075,-0.91372 12.9172,-0.36056 23.5112,-0.67777 23.5422,-0.7049 0.031,-0.0271 1.7286,-11.78396 3.7724,-26.12628 2.0437,-14.34231 3.7984,-26.54493 3.8992,-27.11693 l 0.1832,-1.04 h -25.3156 c -23.9019,0 -25.3148,-0.0313 -25.3021,-0.56 0.034,-1.4049 4.0633,-42.34156 4.1775,-42.44107 0.071,-0.0618 21.585,-0.28917 47.809,-0.5053 26.224,-0.21614 47.7335,-0.44509 47.7988,-0.50879 0.2187,-0.21318 15.1126,-105.500092 14.9474,-105.665282 -0.1273,-0.127353 -200.8297,13.971744 -201.0384,14.122701 -0.057,0.04106 -23.791,244.633791 -23.789,245.156971 0,0.17558 -11.2098,-10.89106 -24.9121,-24.59252 l -24.9133,-24.91176 -2.3667,2.13938 c -9.651,8.724 -22.3283,12.93931 -36.0467,11.9858 -16.4234,-1.14153 -29.458,-9.42024 -40.3572,-25.63223 -6.3054,-9.37895 -10.619,-20.65991 -12.3997,-32.4279 -0.8156,-5.39018 -0.8305,-17.9965 -0.027,-23.2 1.3631,-8.8316 3.5628,-15.97028 7.2529,-23.5383 4.0153,-8.23488 10.2263,-16.9358 15.7198,-22.022 9.9496,-9.21175 20.4445,-13.40112 33.5716,-13.40112 11.9382,0 21.7983,3.51024 30.72,10.93646 1.496,1.24524 2.7923,2.26428 2.8806,2.26452 0.088,2.4e-4 13.4084,-13.25719 29.6,-29.460949 l 29.4394,-29.461389 -1.6,-1.444659 c -8.2476,-7.446822 -19.2688,-14.860569 -29.7274,-19.99703 -14.2383,-6.992762 -28.45,-11.026941 -45.7105,-12.975565 -6.8861,-0.777409 -24.6449,-0.776599 -31.5381,0.0016 -32.5295,3.671651 -58.8664,16.254653 -81.8353,39.098592 -27.859,27.707456 -43.1195,60.58986 -45.9277,98.96202 -0.7831,10.70064 -0.1334,27.55192 1.465,37.99798 3.9013,25.49622 14.1056,49.07119 30.0548,69.43571 5.9215,7.5608 16.1821,18.33144 22.9155,24.05467 18.6173,15.82423 39.27,25.70418 62.7037,29.99653 16.5689,3.03495 36.1902,3.03603 52.8,0.003 19.117,-3.49091 37.1634,-11.06816 52.56,-22.06869 2.068,-1.47754 3.76,-2.55513 3.76,-2.39463 0,0.16049 -0.8664,9.10679 -1.9253,19.88067 -1.0589,10.77388 -1.839,19.67526 -1.7336,19.78083 0.2096,0.20985 184.831,8.24669 190.9389,8.31184 2.068,0.0221 3.7568,-0.0679 3.7529,-0.19991 z m -471.3965,-7.90605 c 25.76,-1.30902 46.8876,-2.43129 46.9502,-2.49389 0.2171,-0.21708 -19.2363,-312.836466 -19.4822,-313.082362 -0.2277,-0.227658 -106.3555,7.986763 -106.6214,8.252619 -0.096,0.09626 28.4518,301.775633 29.1339,307.869683 l 0.2059,1.84 1.4886,-0.003 c 0.8187,-0.003 22.565,-1.07402 48.325,-2.38304 z M 1458.5621,181.6 c 3.8995,-40.48 7.1666,-74.248 7.2603,-75.04 l 0.1702,-1.44 -26.9963,26.94102 -26.9963,26.94103 -6.3068,-6.03196 c -8.3298,-7.96668 -11.596,-10.14148 -18.0317,-12.00648 -9.4315,-2.73312 -20.0915,-1.12214 -28.0149,4.2337 -7.7915,5.26665 -15.7428,15.87613 -19.9529,26.62325 -1.4489,3.69859 -3.1746,10.36832 -3.7044,14.31684 -0.4733,3.52851 -0.1084,7.12034 1.3159,12.95345 4.0185,16.45615 15.2989,31.71721 27.1818,36.77387 8.8479,3.7651 19.7424,3.56856 28.4161,-0.51263 4.243,-1.99644 6.7439,-3.96195 13.5111,-10.61873 l 6.5742,-6.46694 19.0258,19.02941 c 15.038,15.0408 19.0711,18.91148 19.2419,18.46678 0.1189,-0.30943 3.4066,-33.68261 7.306,-74.16261 z m -94.4269,40.05315 c -7.9052,-6.52057 -14.0576,-18.1198 -15.6759,-29.55389 -0.3514,-2.4825 -0.3307,-3.22926 0.1667,-6.02644 0.7126,-4.00686 2.6138,-9.87435 4.353,-13.43429 4.3949,-8.99563 11.8113,-16.86297 17.9464,-19.03758 2.7785,-0.98484 9.0671,-1.2487 12.2109,-0.51235 2.5207,0.59042 5.5593,2.02047 7.5012,3.53028 0.7467,0.58051 5.762,5.28675 11.1451,10.4583 5.3831,5.17155 9.9379,9.4567 10.1217,9.52257 0.1838,0.0659 8.8287,-8.35814 19.2108,-18.72 18.2096,-18.17412 18.8706,-18.79453 18.708,-17.55975 -0.093,0.704 -1.2205,12.25686 -2.5063,25.67303 l -2.3379,24.39304 -7.4302,7.42521 -7.4303,7.42521 -6.608,-6.37825 c -14.7967,-14.28223 -16.1222,-15.38948 -20.094,-16.78546 -2.6042,-0.91528 -6.372,-1.3701 -9.279,-1.12008 -7.8299,0.67339 -13.7373,4.96683 -20.0434,14.5673 -5.0019,7.61522 -8.3388,17.69394 -7.8928,23.84 0.1021,1.408 0.2774,2.884 0.3896,3.28 0.3071,1.08465 -0.183,0.8877 -2.4556,-0.98685 z M 1638.5546,244.72 c 0.092,-0.396 2.6886,-16.344 5.7709,-35.44 3.0823,-19.096 5.69,-35.13666 5.7948,-35.64591 l 0.1907,-0.9259 4.5245,0.22337 c 2.4885,0.12285 12.5124,0.71157 22.2755,1.30826 9.763,0.5967 17.8082,1.02769 17.8781,0.95777 0.07,-0.0699 4.3974,-32.71399 9.6166,-72.54236 9.1537,-69.853076 9.5133,-72.418666 10.1628,-72.51236 2.154,-0.310741 20.7836,-1.533567 20.9404,-1.374505 0.2123,0.21544 -22.6188,174.408225 -22.8957,174.685115 -0.1533,0.15327 -35.9734,-1.85814 -42.2955,-2.37502 l -2.2823,-0.18659 -0.3251,1.87406 c -0.1788,1.03074 -1.8158,11.05384 -3.6377,22.27355 l -3.3126,20.39949 -11.2861,6.4e-4 -11.2861,6.4e-4 0.1668,-0.72 z M 157.44,55.278653 V 40.96 l 1.04,-0.0071 c 0.572,-0.0039 6.368,-0.217194 12.88,-0.473997 15.27793,-0.602486 14.56,-0.606553 14.56,0.08243 0,0.31343 -6.2891,6.849264 -14.24,14.798653 l -14.24,14.237302 v -14.31865 z"
       id="path7947"
       inkscape:connector-curvature="0" />
    <path
       style="fill:#2e65ae;stroke-width:0.31999999"
       d="m 223.01064,369.54355 c -23.30385,-21.85507 -50.33572,-47.21398 -60.07083,-56.35316 -9.7351,-9.13918 -17.741,-16.56577 -17.7909,-16.50354 -0.0499,0.0622 -0.48926,16.67315 -0.97636,36.91315 -0.48709,20.24 -0.90518,36.81386 -0.92909,36.83082 -0.17024,0.12064 -120.065851,0.69347 -120.185116,0.5742 C 22.769886,370.71654 13.65343,29.119903 13.926892,28.846442 14.053276,28.720057 140.37226,24.031367 144.24,24.009499 L 145.92,24 v 37.6 c 0,20.68 0.10817,37.6 0.24038,37.6 0.13221,0 18.07205,-17.928 39.86632,-39.84 21.79428,-21.912 39.72662,-39.84 39.84966,-39.84 0.12304,0 15.12319,12.113037 33.33368,26.917862 18.21048,14.804823 34.80218,28.286864 36.87045,29.960096 l 3.76049,3.042234 3.30884,-3.186989 c 23.37383,-22.513046 51.28042,-35.417747 82.82173,-38.298825 21.37968,-1.95289 41.5504,0.162508 60.1737,6.310691 11.61446,3.834336 21.27206,8.577894 32.09475,15.764118 11.83546,7.858701 22.20742,17.288768 32.08794,29.173968 1.79379,2.157735 3.49638,4.281735 3.78355,4.72 0.28717,0.438263 0.63437,0.796845 0.77155,0.796845 0.13718,0 0.30061,-10.500016 0.3632,-23.333366 0.0626,-12.833354 0.18576,-23.39888 0.27376,-23.478951 0.088,-0.08007 29.31578,-1.036467 64.95062,-2.125331 58.6177,-1.791126 64.82551,-1.932042 65.15677,-1.479027 0.20138,0.275398 13.29821,24.223811 29.1041,53.218697 31.06729,56.990978 28.89622,53.043438 29.06713,52.851308 0.0652,-0.0733 1.37383,-27.70933 2.908,-61.41333 1.53418,-33.704 2.83719,-61.328378 2.89556,-61.387507 0.13996,-0.141742 112.16963,3.681807 112.27235,3.831833 0.0436,0.06362 -0.28839,9.367751 -0.73767,20.675847 -0.44928,11.308096 -0.76649,20.560096 -0.70492,20.56 0.0616,-9.6e-5 1.42956,-1.242141 3.04,-2.760099 5.06652,-4.77561 12.40006,-10.409738 18.76806,-14.418967 19.18064,-12.07591 41.0464,-19.174384 68,-22.075411 7.29104,-0.784739 25.8696,-0.789606 32.73594,-0.0086 30.96889,3.522624 56.76118,15.165872 79.97866,36.104285 18.6617,16.829763 32.5612,39.733489 39.614,65.276299 5.7106,20.68156 7.3732,42.48358 8.1966,107.4823 0.3561,28.11748 0.082,113.6026 -0.3653,114.0138 -0.1724,0.1584 -119.05542,-3.18656 -119.18182,-3.35338 -0.0419,-0.0552 -0.33053,-7.22842 -0.6415,-15.94042 -0.31098,-8.712 -0.67242,-15.95529 -0.8032,-16.09619 -0.21405,-0.23062 -16.94743,1.88359 -17.24237,2.17853 -0.0677,0.0677 2.13206,12.81805 4.88835,28.33414 2.75632,15.51607 4.95939,28.36724 4.89578,28.55808 -0.0909,0.27271 -117.00938,28.76234 -117.25917,28.57264 -0.0766,-0.0581 -9.73373,-42.255 -14.98282,-65.4672 -2.04969,-9.064 -3.77094,-16.52428 -3.82499,-16.5784 -0.16122,-0.1614 -0.4568,4.209 -1.16454,17.2184 -0.36864,6.776 -0.7065,12.35924 -0.75079,12.40717 -0.12598,0.13642 -108.21168,-2.17046 -110.79037,-2.36461 l -2.29756,-0.17296 -27.62244,-45.57153 c -15.19235,-25.06434 -27.72208,-45.573 -27.84384,-45.5748 -0.12176,-0.002 -0.15753,0.96873 -0.0795,2.15673 0.078,1.188 0.29191,4.464 0.47527,7.28 0.69405,10.65984 2.47635,28.22963 4.95232,48.81936 0.60448,5.02666 2.67753,19.71136 4.60681,32.63271 1.92928,12.92131 3.4458,23.55533 3.36999,23.6311 -0.24631,0.24634 -122.53415,-5.50115 -122.84487,-5.77363 -0.29401,-0.25782 -5.25036,-48.72918 -7.08713,-69.30954 -0.50656,-5.676 -0.99539,-10.31352 -1.08627,-10.30561 -0.0909,0.008 -1.16477,1.38587 -2.38644,3.06213 -7.0647,9.69355 -18.46784,21.52225 -28.36832,29.42707 -19.49296,15.56368 -42.70041,25.43149 -66.85046,28.4248 -9.61334,1.19152 -22.57114,1.53177 -31.55354,0.82854 -18.37961,-1.43891 -35.68419,-6.19939 -51.18876,-14.08192 l -4.18231,-2.1263 -33.84708,36.10566 c -18.6159,19.85808 -33.95508,36.10563 -34.08706,36.10563 -0.13199,0 -19.30676,-17.88141 -42.61061,-39.73645 z m 619.76274,-1.09817 c 3.12784,-3.31648 4.34566,-9.67821 3.15724,-16.49309 -0.25814,-1.48035 -0.6976,-3.3352 -0.97657,-4.12192 -1.23482,-3.48215 -13.37984,-58.48787 -18.26211,-82.71037 -10.01181,-49.67166 -12.50448,-74.54431 -9.54074,-95.2 1.70518,-11.88417 4.89795,-22.56333 9.73594,-32.56469 5.58137,-11.53815 11.73958,-20.17741 20.9359,-29.3707 20.68182,-20.675013 47.90768,-31.933445 83.21696,-34.411864 6.52586,-0.458064 17.67949,-0.216896 23.84,0.515472 22.95459,2.728876 42.26176,10.870521 60.621,25.563254 3.1293,2.504418 12.4398,11.522788 15.2262,14.748528 l 1.382,1.6 -1.2289,-2.24 C 1023.4998,100.30812 1011.8271,87.123517 998.57766,77.273494 972.80678,58.114682 943.02547,50.947094 907.68,55.396803 c -29.86646,3.759946 -54.0968,14.865843 -72.50221,33.231152 -18.97213,18.930805 -29.41853,42.002935 -31.648,69.898515 -0.42115,5.26968 -0.424,16.18142 -0.005,21.50706 2.03187,25.86285 13.62026,85.2421 33.59197,172.12647 1.7801,7.744 3.39306,14.836 3.58435,15.76 0.19133,0.924 0.49095,1.68 0.66589,1.68 0.17491,0 0.80806,-0.51958 1.40698,-1.15462 z M 549.43517,336.80243 c 1.83747,-0.9311 3.98704,-3.23261 4.86806,-5.21213 1.11463,-2.50438 1.08003,-5.93779 -0.18781,-18.6303 -4.18105,-41.85759 -5.30553,-61.7437 -5.31987,-94.08 -0.0131,-29.87357 0.69968,-130.693574 0.9257,-130.91257 0.10931,-0.105916 20.64675,-0.795276 45.63875,-1.531916 24.992,-0.73664 45.98346,-1.441984 46.64768,-1.567431 L 643.21533,84.64 641.71677,82.08 c -2.28938,-3.910982 -4.7424,-7.10049 -7.62938,-9.92 -2.79616,-2.730822 -5.00509,-4.211155 -8.23817,-5.520886 -3.60941,-1.462173 -5.10583,-1.5144 -22.32922,-0.779357 -8.712,0.371801 -26.856,1.125165 -40.32,1.674137 -13.464,0.548973 -24.92429,1.060503 -25.46733,1.136736 l -0.98733,0.138605 -0.21289,29.995383 C 535.98826,175.47837 535.91149,213.99926 536.28454,223.2 c 0.90976,22.43754 2.62384,46.78757 5.32743,75.68 1.35094,14.4375 3.6712,37.56134 3.84829,38.35293 0.15126,0.67603 0.28771,0.73053 1.33641,0.53379 0.6424,-0.12051 1.82973,-0.55443 2.6385,-0.96429 z M 46.140272,335.96925 c 2.055949,-1.04887 4.295754,-3.63357 5.864816,-6.76794 2.313309,-4.62105 3.466854,-9.42991 3.980806,-16.59507 0.356474,-4.96966 -0.504742,-34.29997 -5.58903,-190.34515 C 49.436717,92.792694 48.684637,68.658573 48.725571,68.629706 48.766509,68.600842 59.528,68.256547 72.64,67.864608 c 25.826957,-0.77201 29.88199,-0.991424 32.99539,-1.78535 4.8121,-1.227101 9.37317,-4.178461 12.86441,-8.324263 1.9099,-2.267984 5.13465,-8.276969 5.5356,-10.314995 l 0.2046,-1.04 -1.56,-0.01402 c -0.858,-0.0077 -20.74986,0.672867 -44.204131,1.5124 l -42.644128,1.526422 0.183091,4.6476 c 0.100701,2.55618 0.896058,30.9276 1.767462,63.047608 3.019389,111.29483 5.706864,208.50608 5.916186,214 0.234368,6.15132 0.163882,6.01136 2.441792,4.84924 z M 983.82106,312.24 c -0.0866,-4.092 -0.2416,-10.77918 -0.34445,-14.8604 l -0.18701,-7.4204 -1.71568,0.75876 c -5.25162,2.32252 -8.8823,6.4552 -9.90304,11.27232 -0.5665,2.67347 -0.61795,10.59244 -0.0944,14.52501 l 0.37648,2.82783 4.50352,0.098 c 2.47693,0.0539 5.18266,0.12967 6.01274,0.16844 l 1.50925,0.0705 z M 322.58544,303.76957 323.8792,303.2 313.2196,294.72116 c -5.86278,-4.66335 -32.32161,-25.72615 -58.7974,-46.8062 -34.21063,-27.23855 -48.2368,-38.22815 -48.48,-37.98443 -0.19621,0.19664 -0.3422,1.67747 -0.3422,3.47111 0,3.03439 0.0403,3.20896 1.3457,5.82326 0.74013,1.48231 2.10813,3.62329 3.04,4.75773 1.28947,1.56981 10.4106,9.02634 38.1743,31.20756 52.35811,41.8304 56.47551,45.09237 58.12357,46.04783 1.88286,1.09158 6.23414,2.68591 8.38355,3.07178 2.31995,0.41647 6.37333,0.13993 7.91832,-0.54023 z m 98.2216,-25.19038 c 11.32886,-1.50841 20.35674,-5.93304 28.75216,-14.09166 11.2527,-10.93532 19.29411,-26.3703 21.92704,-42.08753 1.61642,-9.64912 1.56448,-19.99447 -0.14698,-29.28 -1.90252,-10.32209 -5.9254,-20.23151 -11.7454,-28.93195 -2.5018,-3.74001 -6.82192,-9.3678 -7.03668,-9.16664 -0.0456,0.0427 0.34365,1.01821 0.86493,2.16786 2.32451,5.12661 4.58247,12.99957 5.62432,19.61073 0.70803,4.49292 0.96954,14.81165 0.50359,19.87218 -1.33994,14.55253 -6.44416,27.94066 -15.23776,39.96782 -9.04727,12.37414 -19.80263,19.60164 -33.19936,22.30966 -3.0929,0.6252 -4.55034,0.72421 -10.4729,0.7115 -5.89888,-0.0127 -7.35914,-0.11779 -10.24,-0.73716 -9.92698,-2.13427 -17.9553,-6.39529 -25.40554,-13.484 l -3.19504,-3.04 1.69274,3.2 c 1.96672,3.71794 5.61498,9.33875 7.99651,12.32 2.63056,3.29302 7.93287,8.50311 11.07133,10.87879 10.77994,8.15991 24.35194,11.6305 38.24704,9.7804 z m 536.31296,-7.96307 24.48,-3.2618 -0.0853,-2.23716 c -0.65213,-17.09839 -3.61162,-57.55548 -4.75168,-64.95716 -1.83764,-11.93076 -6.68439,-22.50057 -13.63818,-29.7423 l -2.47523,-2.5777 0.49549,1.44 c 0.94934,2.75893 2.3198,8.50304 2.82492,11.84 1.01578,6.71049 2.73319,28.73449 4.01757,51.52 0.35216,6.248 0.71021,12.26637 0.79565,13.37416 0.10918,1.41529 0.0396,2.05253 -0.23392,2.14323 -0.38179,0.12659 -59.84445,6.56308 -60.62928,6.56277 -0.64077,-2.6e-4 -0.46992,1.11917 0.59053,3.86898 2.47385,6.41492 7.42528,11.36264 13.65216,13.64191 3.06281,1.1211 5.65213,1.63739 8.23731,1.64248 1.232,0.003 13.256,-1.46341 26.72,-3.25741 z m -653.73781,-2.73186 c -6.55915,-13.08467 -10.73305,-27.2842 -12.7115,-43.24426 -0.73183,-5.90361 -0.8331,-25.50421 -0.16286,-31.52 2.93602,-26.35242 12.09469,-48.60374 28.38404,-68.96 15.44899,-19.3061 34.44871,-33.108586 55.20432,-40.103626 19.66986,-6.629116 43.22461,-7.977123 64.78381,-3.707497 25.03046,4.957088 46.73626,17.921955 65.04448,38.851123 4.55581,5.20799 4.51456,5.17769 2.61427,1.92 -5.55977,-9.53127 -12.0872,-17.97957 -20.60589,-26.669712 C 475.67357,83.984515 466.76224,77.277763 455.2,71.320429 443.09386,65.082851 431.40986,61.524061 416.8,59.624317 c -3.61021,-0.46944 -6.71664,-0.582714 -16,-0.583431 -12.04109,-9.6e-4 -14.19414,0.152205 -22.78163,1.62032 -24.63197,4.211069 -46.56624,16.43682 -64.83682,36.138794 -20.31294,21.90436 -31.69002,46.2524 -35.28813,75.52 -0.70311,5.71922 -0.96493,21.21032 -0.46699,27.62979 2.00309,25.82367 10.22141,48.10449 25.24798,68.45021 1.33236,1.804 2.46479,3.28 2.5165,3.28 0.0517,0 -0.76221,-1.70808 -1.80872,-3.79574 z M 734.71318,247.76 c -0.0166,-0.57983 8.08212,-178.80608 8.12733,-178.858803 0.0278,-0.03234 8.25597,0.229475 18.28496,0.581811 21.12227,0.742064 23.1384,0.704477 26.07837,-0.486163 4.07738,-1.65128 7.56198,-5.214663 9.81069,-10.032439 1.23043,-2.636252 2.2871,-6.329456 1.9168,-6.699734 -0.19498,-0.194998 -68.73427,-2.73279 -68.89111,-2.550819 -0.0218,0.02538 -1.83024,39.510409 -4.01859,87.744507 -2.92064,64.37488 -3.91171,88.46319 -3.72653,90.57418 0.5737,6.53881 2.85306,12.52582 6.08362,15.97932 2.15971,2.30873 6.36426,4.79658 6.33446,3.74814 z M 405.92,237.92968 c 3.32451,-0.53995 5.5553,-1.25621 8.48144,-2.72326 6.74048,-3.37941 12.97203,-10.40879 17.73568,-20.00642 2.79136,-5.6239 4.44122,-10.5626 5.36035,-16.04568 l 0.66154,-3.94629 -0.68442,-3.87274 c -1.2472,-7.05728 -3.91686,-14.04303 -7.69392,-20.13294 -6.60813,-10.6545 -13.35734,-16.23971 -22.30758,-18.46033 -3.32621,-0.82527 -10.65408,-0.73213 -14.03309,0.17836 -8.23104,2.21787 -14.72714,7.54639 -21.18291,17.37559 -5.33632,8.12475 -9.12749,19.72834 -8.61875,26.37919 0.59561,7.78681 4.72838,18.45753 10.08899,26.0496 8.60745,12.19047 19.39165,17.28396 32.19267,15.20492 z m 525.6,-7.39494 c 7.656,-0.81395 13.96896,-1.5262 14.0288,-1.58278 0.17434,-0.16486 -0.84109,-12.60684 -1.88614,-23.11101 -1.31972,-13.26467 -2.62183,-18.04209 -6.51008,-23.8858 -4.22842,-6.35491 -9.05037,-9.0085 -14.89309,-8.19586 -4.70317,0.65415 -7.58986,2.77394 -9.71648,7.13515 -1.38954,2.84961 -2.57146,6.94154 -2.50848,8.68453 0.15798,4.37275 5.39427,41.49681 5.9887,42.45862 0.0968,0.15662 0.49117,0.21552 0.87639,0.1309 0.38521,-0.0846 6.96438,-0.81981 14.62038,-1.63375 z M 256.52209,220.24 c -0.66383,-6.08971 -0.88395,-10.7632 -0.99097,-21.04 -0.17367,-16.67658 0.41288,-27.22729 2.05472,-36.96 0.31175,-1.848 0.53044,-3.40402 0.48599,-3.45783 -0.0444,-0.0538 -7.31365,8.63414 -16.15378,19.30655 -11.95712,14.43544 -15.98027,19.49706 -15.71101,19.76632 0.50184,0.50184 30.24432,24.19354 30.39429,24.21091 0.0667,0.008 0.0311,-0.81395 -0.0792,-1.82595 z M 188.8,119.2 c 28.24759,-28.248 51.43874,-51.36 51.53588,-51.36 0.0971,0 7.43879,5.899331 16.31475,13.109622 8.87597,7.210295 16.24274,13.005008 16.37061,12.877143 0.12786,-0.127866 0.46468,-1.138858 0.74848,-2.24665 0.56448,-2.203392 0.33808,-4.229926 -0.69598,-6.229571 -0.91499,-1.769398 -5.80345,-6.20937 -12.91374,-11.728976 -7.43779,-5.773837 -31.01439,-23.897962 -32.03793,-24.628627 -0.58544,-0.417927 -3.24737,2.167613 -40.85232,39.68 C 165.14542,110.74283 146.33496,129.664 145.46874,130.72 c -4.50158,5.4878 -7.8243,12.47046 -9.36482,19.68 -0.71895,3.36468 -0.81124,12.84562 -0.15419,15.84 0.594,2.70703 1.07987,4.32 1.3013,4.32 0.10434,0 23.30138,-23.112 51.54897,-51.36 z m 1363.68,258.86016 c -59.84,-2.87584 -109.6714,-5.23587 -110.7364,-5.24448 l -1.9364,-0.0157 1.2148,-11.76 c 0.6681,-6.468 1.1795,-12.06906 1.1364,-12.44682 -0.074,-0.6528 -0.3001,-0.59177 -4.5584,1.23322 -12.0838,5.17885 -26.7903,8.93878 -41.92,10.71747 -6.9124,0.81264 -28.2996,0.81184 -35.2,0 -22.9094,-2.69974 -42.1065,-9.11993 -60.514,-20.23801 -24.141,-14.58112 -45.6654,-37.28633 -59.9654,-63.25498 -1.3197,-2.39653 -2.4514,-4.30539 -2.5149,-4.24189 -0.063,0.0635 1.0786,22.22538 2.538,49.24864 1.4594,27.02327 2.5911,49.18407 2.5149,49.24621 -0.2679,0.21846 -124.542,6.32083 -124.7391,6.12522 -0.1996,-0.19805 -32.3446,-350.294002 -32.1815,-350.493278 0.1236,-0.150926 135.6376,-10.880037 135.7813,-10.750268 0.066,0.05924 1.6621,24.954604 3.5479,55.32303 1.8858,30.368426 3.5097,55.296396 3.6088,55.395496 0.099,0.0991 0.3551,-0.36946 0.5688,-1.04126 1.0879,-3.41938 4.8593,-12.43734 7.336,-17.54144 4.8572,-10.01014 9.9835,-18.356834 16.9795,-27.646438 5.5445,-7.362192 9.2549,-11.582729 16.7738,-19.080057 12.5514,-12.515328 24.207,-21.031111 38.9059,-28.42529 10.0772,-5.069263 18.7364,-8.332331 28.6176,-10.784049 15.2224,-3.776933 24.5552,-4.913665 40.3424,-4.913665 5.5381,0 11.8282,0.179512 14.24,0.406394 28.6199,2.69235 52.2493,11.356182 74.56,27.337727 2.2,1.575904 4.1557,2.925379 4.346,2.998841 0.2313,0.08928 0.6457,-3.00055 1.25,-9.319949 l 0.904,-9.454854 0.99,-0.0028 c 0.5445,-0.0015 52.4636,-3.667936 115.3758,-8.147527 62.9122,-4.479591 114.4484,-8.082136 114.5249,-8.005657 0.1485,0.14858 -19.0728,148.024744 -19.2657,148.217714 -0.063,0.063 -8.5949,-0.38882 -18.9598,-1.00405 -42.1357,-2.50104 -76.0853,-4.02555 -76.6681,-3.44279 -0.1247,0.12468 -0.3267,1.77434 -0.449,3.66591 l -0.2224,3.43922 h 25.6533 25.6532 l -0.1698,0.72 c -0.3438,1.45751 -14.8824,91.35983 -14.8824,92.02818 V 257.6 l 21.52,0.0439 c 11.836,0.0242 25.5554,0.13217 30.4875,0.24 l 8.9675,0.19605 -11.1076,62.56 c -6.1092,34.408 -11.1166,62.596 -11.1275,62.64 -0.032,0.12688 2.7578,0.25779 -111.2199,-5.21984 z M 1651.8329,355.28 c 0,-0.132 3.1836,-18.85651 7.0834,-41.61 3.8997,-22.7535 7.0349,-41.4214 6.967,-41.48422 -0.068,-0.0628 -22.7677,-0.25067 -50.4441,-0.41743 -27.6764,-0.16676 -50.3974,-0.37987 -50.4911,-0.47356 -0.2298,-0.22984 3.0977,-36.50567 3.3786,-36.83296 0.1219,-0.14199 10.7903,-0.55316 23.7075,-0.91372 12.9172,-0.36056 23.5112,-0.67777 23.5422,-0.7049 0.031,-0.0271 1.7286,-11.78396 3.7724,-26.12628 2.0437,-14.34231 3.7984,-26.54493 3.8992,-27.11693 l 0.1832,-1.04 h -25.3156 c -23.9019,0 -25.3148,-0.0313 -25.3021,-0.56 0.034,-1.4049 4.0633,-42.34156 4.1775,-42.44107 0.071,-0.0618 21.585,-0.28917 47.809,-0.5053 26.224,-0.21614 47.7335,-0.44509 47.7988,-0.50879 0.2187,-0.21318 15.1126,-105.500092 14.9474,-105.665282 -0.1273,-0.127353 -200.8297,13.971744 -201.0384,14.122701 -0.057,0.04106 -23.791,244.633791 -23.789,245.156971 0,0.17558 -11.2098,-10.89106 -24.9121,-24.59252 l -24.9133,-24.91176 -2.3667,2.13938 c -9.651,8.724 -22.3283,12.93931 -36.0467,11.9858 -16.4234,-1.14153 -29.458,-9.42024 -40.3572,-25.63223 -6.3054,-9.37895 -10.619,-20.65991 -12.3997,-32.4279 -0.8156,-5.39018 -0.8305,-17.9965 -0.027,-23.2 1.3631,-8.8316 3.5628,-15.97028 7.2529,-23.5383 4.0153,-8.23488 10.2263,-16.9358 15.7198,-22.022 9.9496,-9.21175 20.4445,-13.40112 33.5716,-13.40112 11.9382,0 21.7983,3.51024 30.72,10.93646 1.496,1.24524 2.7923,2.26428 2.8806,2.26452 0.088,2.4e-4 13.4084,-13.25719 29.6,-29.460949 l 29.4394,-29.461389 -1.6,-1.444659 c -8.2476,-7.446822 -19.2688,-14.860569 -29.7274,-19.99703 -14.2383,-6.992762 -28.45,-11.026941 -45.7105,-12.975565 -6.8861,-0.777409 -24.6449,-0.776599 -31.5381,0.0016 -32.5295,3.671651 -58.8664,16.254653 -81.8353,39.098592 -27.859,27.707456 -43.1195,60.58986 -45.9277,98.96202 -0.7831,10.70064 -0.1334,27.55192 1.465,37.99798 3.9013,25.49622 14.1056,49.07119 30.0548,69.43571 5.9215,7.5608 16.1821,18.33144 22.9155,24.05467 18.6173,15.82423 39.27,25.70418 62.7037,29.99653 16.5689,3.03495 36.1902,3.03603 52.8,0.003 19.117,-3.49091 37.1634,-11.06816 52.56,-22.06869 2.068,-1.47754 3.76,-2.55513 3.76,-2.39463 0,0.16049 -0.8664,9.10679 -1.9253,19.88067 -1.0589,10.77388 -1.839,19.67526 -1.7336,19.78083 0.2096,0.20985 184.831,8.24669 190.9389,8.31184 2.068,0.0221 3.7568,-0.0679 3.7529,-0.19991 z m -471.3965,-7.90605 c 25.76,-1.30902 46.8876,-2.43129 46.9502,-2.49389 0.2171,-0.21708 -19.2363,-312.836466 -19.4822,-313.082362 -0.2277,-0.227658 -106.3555,7.986763 -106.6214,8.252619 -0.096,0.09626 28.4518,301.775633 29.1339,307.869683 l 0.2059,1.84 1.4886,-0.003 c 0.8187,-0.003 22.565,-1.07402 48.325,-2.38304 z M 1451.52,255.59166 c 0,-0.40059 3.24,-34.16887 7.2,-75.04063 3.96,-40.87175 7.2,-74.56368 7.2,-74.87094 0,-0.32267 -11.3211,10.76185 -26.8007,26.24062 -14.7404,14.73961 -26.9209,26.79929 -27.0679,26.79929 -0.1469,0 -2.915,-2.54214 -6.1513,-5.64919 -3.2363,-3.10706 -6.7158,-6.28172 -7.7322,-7.0548 -2.6708,-2.03154 -7.7721,-4.44606 -11.4554,-5.42199 -2.8276,-0.74921 -3.796,-0.84667 -8.4725,-0.85277 -4.7192,-0.006 -5.6199,0.0837 -8.48,0.84623 -5.8664,1.56397 -10.5058,4.21929 -15.1496,8.67068 -8.8722,8.50458 -15.4669,20.54832 -17.9723,32.82184 -1.3463,6.59557 -1.1948,9.92234 0.8087,17.76 2.1401,8.37144 5.6007,15.4966 11.0341,22.71831 2.5719,3.41841 7.6637,8.44108 10.5211,10.3782 11.1031,7.52733 26.4326,7.65456 37.798,0.31371 2.3436,-1.5137 4.51,-3.42129 9.4566,-8.32687 3.5291,-3.49984 6.5535,-6.36335 6.721,-6.36335 0.1674,0 8.7995,8.496 19.1824,18.88 10.3829,10.384 18.9864,18.88 19.119,18.88 0.1326,0 0.241,-0.32775 0.241,-0.72834 z"
       id="path7945"
       inkscape:connector-curvature="0" />
    <path
       style="fill:#1b4680;stroke-width:0.31999999"
       d="M 255.98019,400.39798 C 185.59849,334.34502 145.4895,296.78023 145.25179,296.69333 c -0.16049,-0.0587 -0.28864,0.94934 -0.2848,2.24 0.007,2.48949 -1.65775,71.44481 -1.72657,71.49777 -0.15368,0.11828 -120.063884,0.6921 -120.18085,0.57514 C 22.771347,370.71802 13.652996,29.120338 13.926231,28.847102 14.050468,28.722866 140.37531,24.034172 144.24,24.010354 L 145.92,24 v 37.839523 37.83952 L 186,59.613197 226.08,19.547348 261.92,48.68896 c 19.712,16.027888 36.30461,29.500243 36.87248,29.93857 l 1.03247,0.796956 3.92753,-3.683539 c 16.74755,-15.707149 33.14157,-25.558029 53.3201,-32.039104 22.07251,-7.089392 49.36716,-8.398979 73.52,-3.527462 23.00745,4.640493 43.35494,14.721299 61.72742,30.581766 6.53322,5.639936 15.21082,14.755882 20.29853,21.323853 1.12477,1.452 2.15053,2.64 2.27945,2.64 0.12896,0 0.28567,-10.500016 0.34826,-23.333366 0.0626,-12.833354 0.18576,-23.398628 0.27376,-23.478388 0.30138,-0.273148 129.69469,-4.101561 129.94416,-3.84471 0.13696,0.141056 13.24547,24.088464 29.12998,53.216464 31.43271,57.63933 29.03584,53.2821 29.20615,53.09333 0.0662,-0.0733 1.37478,-27.70933 2.908,-61.41333 1.53325,-33.704 2.83465,-61.327558 2.89206,-61.385685 0.16119,-0.163241 106.51901,3.431976 109.59965,3.7048 l 2.72,0.240885 -0.8,20.560186 c -0.44,11.308102 -0.75222,20.560102 -0.69382,20.56 0.0584,-1.03e-4 1.52467,-1.31232 3.25843,-2.916042 8.45862,-7.824202 19.56525,-15.48991 30.10918,-20.781104 26.53901,-13.317901 62.59098,-19.097538 93.52467,-14.993328 25.25146,3.350298 48.3858,13.315114 68.52154,29.514736 28.4937,22.923773 45.714,54.112902 51.003,92.375552 3.269,23.64931 4.5829,75.47025 4.0093,158.13333 -0.1607,23.17333 -0.3643,42.19905 -0.4523,42.27937 -0.2828,0.25815 -118.79162,-3.23526 -119.03578,-3.50896 -0.1294,-0.14505 -0.48998,-7.39174 -0.80128,-16.10374 -0.31129,-8.712 -0.61001,-15.89072 -0.6638,-15.95267 -0.12368,-0.14247 -17.18164,2.16848 -17.3658,2.35264 -0.0748,0.0749 2.13076,12.89805 4.90138,28.49597 2.77059,15.59795 4.91322,28.46544 4.76138,28.59443 -0.20461,0.17382 -91.48663,22.31385 -114.23751,27.70777 l -2.92144,0.69264 -2.46825,-10.7454 c -2.30186,-10.02096 -14.07719,-61.80695 -15.56384,-68.44743 -0.3672,-1.64013 -0.7289,-2.92077 -0.80378,-2.84589 -0.0749,0.0749 -0.50928,6.7448 -0.96531,14.82205 -0.45603,8.07725 -0.86391,14.72512 -0.9064,14.77306 -0.12058,0.13606 -108.20464,-2.17021 -110.77779,-2.36375 l -2.2882,-0.17206 -27.6318,-45.57561 c -15.19748,-25.06658 -27.72868,-45.57564 -27.84711,-45.57568 -0.11843,-4e-5 -0.14691,1.11593 -0.0633,2.47993 1.52009,24.79644 4.77043,53.52939 10.0175,88.55456 1.92429,12.84499 3.43965,23.41357 3.36749,23.48576 -0.23856,0.23853 -122.54016,-5.5 -122.84138,-5.76387 -0.29462,-0.25811 -4.89289,-45.16784 -6.93347,-67.71645 -0.59328,-6.556 -1.1536,-11.91597 -1.24512,-11.91105 -0.0915,0.005 -0.9584,1.10201 -1.9264,2.43797 -4.92253,6.79367 -14.20032,17.08633 -20.96,23.25272 -22.53754,20.55946 -47.55568,32.03927 -77.6,35.60746 -5.8201,0.69124 -21.77222,0.96116 -28.17549,0.47674 -18.91526,-1.43091 -38.14761,-6.78554 -52.97331,-14.74867 l -2.90883,-1.56237 -33.86499,36.14358 c -18.62575,19.87901 -33.94879,36.14272 -34.05119,36.1416 -0.1024,0 -4.4431,-3.99708 -9.646,-8.88 z m 624.92384,-32.84476 c 24.34525,-5.88205 44.33495,-10.76551 44.42157,-10.85213 0.0866,-0.0866 -2.72096,-13.16781 -6.23907,-29.06928 -3.51811,-15.9015 -6.29981,-28.99832 -6.18154,-29.10405 0.31648,-0.28296 50.35386,-7.05558 50.56535,-6.84408 0.0989,0.0989 0.47782,7.86982 0.84201,17.26867 0.36419,9.39885 0.73088,17.15072 0.81488,17.2264 0.084,0.0757 19.08877,0.65936 42.23277,1.29706 23.144,0.63769 43.6508,1.24614 45.5707,1.35206 l 3.4907,0.19264 -0.205,-35.31025 c -0.2954,-50.87391 -1.3591,-104.55294 -2.4688,-124.59026 -1.0493,-18.94744 -5.655,-37.07406 -13.4644,-52.99263 C 1034.012,103.3442 1026.5863,93.120826 1016.1197,82.860157 1002.2998,69.312061 985.92627,59.212915 968.09146,53.236531 961.15869,50.913376 951.3057,48.776832 942.4,47.66553 c -4.40694,-0.549924 -21.36445,-0.758599 -26.76109,-0.329316 -31.33414,2.492519 -56.14518,11.609402 -77.07427,28.32114 -4.23808,3.38406 -12.76806,11.920204 -16.4336,16.445472 -7.87738,9.724934 -13.88173,19.988124 -18.31056,31.298174 l -1.61293,4.119 0.16663,-2.88 c 1.77731,-30.720419 4.38345,-79.269043 4.26176,-79.390723 -0.21005,-0.210051 -83.17364,-3.058234 -83.36976,-2.862125 -0.10215,0.102138 -7.22116,153.692498 -7.41645,160.007248 -0.005,0.17292 -17.72509,-32.14645 -39.37722,-71.82083 -21.65213,-39.674373 -39.40013,-72.155144 -39.44,-72.17949 -0.18483,-0.112832 -107.14099,3.287734 -107.26358,3.410342 -0.19715,0.197127 -0.80435,51.120508 -0.80685,67.663858 0,7.58356 -0.0968,17.04404 -0.21264,21.02329 l -0.21056,7.23501 -1.34442,-5.34329 c -4.60966,-18.32057 -12.80643,-34.88319 -25.00364,-50.5231 -8.14,-10.437515 -19.81456,-21.628974 -29.88186,-28.645361 -10.50752,-7.323175 -22.97434,-13.280032 -35.04179,-16.743533 -21.47808,-6.16447 -47.02599,-6.555037 -69.06039,-1.055776 -26.10844,6.516045 -48.66534,21.466304 -67.68492,44.8602 -9.91168,12.19128 -18.444,27.60294 -23.40973,42.28428 -8.5277,25.21243 -9.64275,55.96153 -2.99131,82.48995 3.88482,15.49412 10.67767,30.44755 19.84962,43.69594 1.17814,1.70176 1.86475,2.86481 1.52582,2.58456 -0.48738,-0.40299 -96.00377,-76.33387 -96.401,-76.6341 -0.0576,-0.0435 19.79241,-24.08281 44.11115,-53.42061 24.31874,-29.33779 44.09387,-53.463369 43.94474,-53.61239 C 287.00202,87.51433 273.416,76.444742 256.96,63.064269 L 227.04,38.736134 179.28,86.487667 131.52,134.2392 V 86.462074 38.68495 l -4.24,0.200512 c -2.332,0.110282 -25.45674,0.970909 -51.388314,1.912506 -25.931571,0.941594 -47.20613,1.769808 -47.276795,1.840474 -0.145556,0.145555 8.16317,301.126298 8.316991,301.280118 0.139097,0.13907 92.120148,-0.54394 92.261328,-0.68509 0.0632,-0.0632 0.60963,-20.25664 1.21422,-44.87423 0.60459,-24.61758 1.13825,-45.2397 1.18591,-45.82693 0.0846,-1.04236 1.66588,0.41326 66.64666,61.35043 36.608,34.32996 66.66171,62.38641 66.78602,62.34769 0.12432,-0.0387 15.01372,-15.83843 33.08756,-35.11043 18.07385,-19.272 32.95221,-35.01464 33.06303,-34.98365 0.11081,0.031 1.57789,0.92143 3.26016,1.97876 12.53257,7.87689 25.98723,13.21343 40.37168,16.01273 19.06877,3.71085 40.79542,3.13632 58.85817,-1.55645 22.72256,-5.90339 43.02903,-18.37924 60.21005,-36.99174 10.08659,-10.927 17.1976,-21.09733 23.36669,-33.41965 4.72544,-9.43869 7.45027,-16.80772 10.10662,-27.33243 l 1.52756,-6.05243 0.21667,5.09243 c 1.24374,29.23297 3.47216,57.85946 7.88205,101.25243 0.88534,8.712 1.6967,16.74 1.803,17.84 l 0.19328,2 h 1.52445 c 0.83843,0 21.28912,0.93648 45.44595,2.08109 24.15687,1.14461 43.97581,2.02685 44.04212,1.96054 0.0663,-0.0663 -0.81885,-7.95081 -1.96701,-17.52109 -4.34429,-36.21157 -5.83875,-51.26538 -6.5721,-66.20054 -0.48905,-9.96013 -2.07856,-69.14214 -1.87353,-69.75721 0.0681,-0.20429 18.03267,29.1637 39.92131,65.2622 21.88864,36.0985 39.93149,65.71642 40.0952,65.8176 0.30461,0.18826 78.25629,2.01319 86.65859,2.0288 l 4.64749,0.009 3.448,-61.52 c 1.89638,-33.836 3.44099,-61.796 3.43248,-62.13333 -0.0409,-1.61897 0.50371,0.6695 3.00765,12.63859 10.73366,51.30777 24.74188,116.02114 32.96659,152.29474 2.05328,9.05562 1.94189,8.67459 2.47814,8.47853 0.22669,-0.0829 20.33095,-4.96326 44.67616,-10.84531 z M 396.01664,252.46726 c -10.32333,-1.16978 -18.67562,-5.1643 -26.35654,-12.60514 -12.90077,-12.49746 -20.17693,-29.43673 -20.76509,-48.34212 -0.29373,-9.44147 0.78301,-17.13748 3.592,-25.67368 4.20342,-12.77384 13.05411,-25.46883 22.74032,-32.61758 5.05734,-3.73249 11.89277,-6.61526 18.05267,-7.61351 3.87651,-0.62822 11.12691,-0.63426 14.9608,-0.0125 6.01978,0.97631 12.67139,3.69709 17.6792,7.23151 10.24794,7.2328 20.03814,21.92882 24.00726,36.03716 4.92685,17.51265 3.14452,37.12304 -4.8071,52.89022 -4.53066,8.98386 -11.92378,18.01867 -18.72016,22.87714 -5.07258,3.62619 -11.38637,6.27049 -17.51718,7.33644 -3.517,0.6115 -9.71885,0.84867 -12.86618,0.49203 z M 408.48,237.45417 c 3.10352,-0.80094 7.26435,-2.74721 9.91171,-4.63633 9.78954,-6.98568 19.4608,-25.60075 19.4608,-37.45784 0,-10.55667 -7.48889,-26.34765 -16.63091,-35.06775 -6.11882,-5.83642 -14.10355,-8.75036 -22.38582,-8.16946 -9.04644,0.63449 -16.60848,4.96066 -22.99856,13.15721 -6.16346,7.90585 -9.92141,15.93647 -11.65031,24.89624 -0.83433,4.3239 -0.83558,6.03731 -0.007,10.32866 1.65744,8.5886 5.60714,17.28557 11.03354,24.2951 2.19257,2.83222 6.26816,6.85846 8.47696,8.37427 3.43101,2.35458 8.20893,4.25384 12.31001,4.89329 3.01175,0.46961 9.52372,0.14954 12.48,-0.61339 z m 495.3847,9.65651 c -1.99318,-9.53272 -5.74201,-35.13544 -7.88198,-53.83068 -0.84627,-7.39295 -0.97686,-9.49073 -0.8168,-13.12 0.58838,-13.34306 6.1015,-24.72572 14.39146,-29.71348 7.25164,-4.36302 17.34358,-5.12206 25.12985,-1.89007 7.59207,3.15136 14.86663,11.2556 18.7456,20.88355 2.92237,7.25359 3.84039,13.02577 5.90368,37.12 1.12643,13.15397 2.38115,34.64459 2.04506,35.02721 -0.0711,0.081 -12.39907,1.47322 -27.39546,3.0939 -14.99635,1.62068 -27.86758,3.02624 -28.60272,3.12347 -1.25462,0.16592 -1.34781,0.12335 -1.51869,-0.6939 z m 27.51744,-16.55333 c 7.4042,-0.79054 13.64922,-1.43735 13.87786,-1.43735 0.45565,0 0.4759,0.41512 -0.63987,-13.12 -1.82243,-22.10756 -2.94781,-27.2522 -7.43738,-33.99944 -4.31261,-6.48127 -9.14477,-9.14877 -14.97446,-8.26636 -3.04359,0.4607 -6.00045,1.89579 -7.49827,3.63924 -2.16756,2.52295 -4.67885,8.84093 -4.67146,11.75253 0.007,2.78691 2.71936,23.28321 4.88048,36.8806 l 1.00554,6.32656 0.99769,-0.16921 c 0.54877,-0.0931 7.05568,-0.81603 14.45987,-1.60657 z M 256.52209,220.24 c -0.9608,-8.81399 -1.34294,-27.26058 -0.81042,-39.12 0.35629,-7.93467 1.60398,-19.20004 2.42747,-21.91749 0.1641,-0.54154 0.11986,-0.57664 -0.29392,-0.23323 -0.92263,0.76571 -31.76522,38.19084 -31.76522,38.54466 0,0.29318 30.14157,24.54966 30.52133,24.56209 0.0667,0.002 0.0311,-0.82403 -0.0792,-1.83603 z M 1552.64,378.06189 c -59.752,-2.87149 -109.5783,-5.23011 -110.725,-5.24138 l -2.085,-0.0205 1.2019,-11.76 c 0.6611,-6.468 1.1674,-12.07062 1.125,-12.4503 -0.074,-0.66643 -0.193,-0.64039 -3.4369,0.7544 -13.1939,5.67289 -27.1043,9.30201 -42.72,11.14528 -6.0065,0.70899 -23.3253,0.99481 -29.9305,0.49398 -40.4375,-3.06617 -73.7755,-19.67782 -102.4795,-51.06336 -9.3444,-10.2173 -17.6615,-21.95851 -24.8211,-35.04 -1.0885,-1.98871 -1.3149,-2.24657 -1.3212,-1.50466 0,0.49243 1.1443,22.22046 2.5523,48.2845 1.408,26.06407 2.56,47.91264 2.56,48.55242 v 1.16326 l -62.2811,3.12451 c -34.2545,1.71847 -62.3705,3.03533 -62.48,2.92631 -0.1952,-0.19447 -32.3409,-350.288123 -32.182,-350.488667 0.1136,-0.143294 135.6373,-10.8799 135.7771,-10.756685 0.063,0.05525 1.6639,25.026275 3.5581,55.491158 1.8943,30.464884 3.5119,55.458484 3.5947,55.541334 0.083,0.0829 0.331,-0.46228 0.5513,-1.21141 0.9807,-3.33329 4.8153,-12.45711 7.7006,-18.32207 6.2474,-12.699352 13.6311,-23.858798 23.5839,-35.643812 4.2075,-4.982154 14.3607,-15.131604 19.2974,-19.290375 15.4772,-13.03824 31.8112,-22.206802 50.08,-28.110881 4.6598,-1.505957 15.6846,-4.152254 21.28,-5.107895 15.1552,-2.588359 32.451,-2.872783 48.7089,-0.801002 24.9076,3.174051 49.4717,13.074865 68.7922,27.727471 1.3536,1.026573 2.5911,1.866496 2.75,1.866496 0.1589,0 0.6951,-4.248 1.1916,-9.44 l 0.9027,-9.44 0.9873,-0.0015 c 0.543,-8e-4 52.4626,-3.665508 115.3769,-8.143768 62.9142,-4.47826 114.4475,-8.084331 114.5183,-8.01349 0.1435,0.143424 -19.0867,148.044216 -19.273,148.230516 -0.065,0.0647 -6.075,-0.24599 -13.3563,-0.69041 -41.2938,-2.52042 -81.6593,-4.36863 -82.2615,-3.76651 -0.1247,0.12468 -0.3267,1.77348 -0.4489,3.664 l -0.2222,3.43731 25.5913,0.0819 25.5913,0.0819 -7.4531,45.76 c -4.0991,25.168 -7.4581,46.13337 -7.4643,46.5897 l -0.011,0.82971 30.2671,0.18406 c 16.6469,0.10123 30.355,0.27193 30.4624,0.37935 0.1612,0.16114 -21.3938,122.96399 -21.8945,124.73718 -0.1167,0.4134 -0.4666,0.54988 -1.3365,0.5214 -0.6482,-0.0211 -50.0665,-2.38803 -109.8185,-5.25952 z M 1652.0001,354.8 c 1.4792,-8.13517 14.1514,-82.6714 14.0696,-82.75486 -0.062,-0.0632 -22.8371,-0.25901 -50.6112,-0.4352 -27.7742,-0.17619 -50.5111,-0.3405 -50.5265,-0.36514 -0.059,-0.0947 3.3968,-36.7994 3.4703,-36.85744 0.043,-0.0337 10.6267,-0.34569 23.52,-0.69328 12.8933,-0.34759 23.539,-0.72871 23.6572,-0.84693 0.2121,-0.21209 7.7485,-52.17126 7.7696,-53.56715 l 0.011,-0.72 h -25.2599 -25.2599 l 0.1488,-1.04 c 0.082,-0.572 1.0179,-10.18112 2.0802,-21.3536 1.0622,-11.17248 1.9778,-20.36006 2.0346,-20.41685 0.057,-0.0568 21.579,-0.29098 47.8271,-0.52044 26.2481,-0.22945 47.7703,-0.47387 47.827,-0.54315 0.2436,-0.29759 15.1301,-105.746115 14.9553,-105.9364 -0.2273,-0.247602 -200.9479,13.978485 -201.2317,14.262315 -0.1061,0.10609 -5.5319,55.270989 -12.0572,122.588665 l -11.8643,122.39578 -24.8,-24.7755 -24.8,-24.77551 -2.0798,1.90335 c -6.3685,5.82829 -13.8679,9.63523 -22.7202,11.53345 -4.9227,1.0556 -14.5894,1.06721 -19.7641,0.0237 -16.4798,-3.32308 -29.9954,-14.95714 -39.2966,-33.82585 -5.3391,-10.8311 -7.8753,-22.02121 -7.9054,-34.88 -0.039,-16.5342 4.2964,-31.17471 13.1844,-44.52484 3.4533,-5.18709 6.035,-8.31112 10.1634,-12.29837 7.0067,-6.76722 14.5053,-10.81162 23.7783,-12.82486 2.8934,-0.6282 4.2709,-0.72854 9.92,-0.72267 7.0768,0.007 10.3827,0.48173 15.6483,2.2454 5.2375,1.75426 11.1399,5.17257 15.6827,9.08247 l 2.3382,2.01238 29.5656,-29.564272 c 16.261,-16.260345 29.5295,-29.668745 29.4854,-29.796441 -0.044,-0.127696 -1.4482,-1.400963 -3.1202,-2.829482 -23.7377,-20.280976 -51.0001,-30.876499 -83.0484,-32.276758 -24.1523,-1.055265 -46.9067,3.338598 -66.8716,12.912822 -14.5932,6.998195 -26.9546,16.013683 -39.36,28.706144 -21.8478,22.353354 -35.5319,47.733007 -41.4211,76.822867 -2.2564,11.146 -3.0409,19.55388 -3.0392,32.57561 0,15.73108 1.3288,26.93386 4.7938,40.48 5.6117,21.93843 15.5151,41.06466 30.5549,59.0099 22.6662,27.04505 48.6064,43.09198 79.9624,49.46571 16.1747,3.28784 36.4474,3.58442 53.1492,0.77754 19.8728,-3.33978 38.464,-10.96304 54.1896,-22.22034 2.0843,-1.49205 3.8173,-2.71281 3.8513,-2.71281 0.034,0 -0.765,8.388 -1.7756,18.64 -1.0105,10.252 -1.8436,19.252 -1.8513,20 -0.014,1.32028 0.016,1.36054 1.026,1.37811 0.572,0.01 43.592,1.86422 95.6,4.12054 52.008,2.25632 95.3815,4.12016 96.3855,4.14189 1.8179,0.0393 1.8263,0.0351 2.0146,-1.00054 z M 1181.28,347.47402 c 25.344,-1.26314 46.1481,-2.35364 46.2314,-2.42333 0.148,-0.12397 -19.1541,-313.440083 -19.32,-313.606006 -0.1224,-0.122405 -106.8851,8.301546 -107.0516,8.446746 -0.1466,0.12793 29.0044,308.18703 29.2879,309.50473 0.1575,0.73245 0.235,0.75021 2.4675,0.56531 1.2676,-0.10499 23.0408,-1.22435 48.3848,-2.48745 z m 270.24,-91.83754 c 0,-0.37593 3.24,-34.12276 7.2,-74.99293 3.96,-40.87018 7.2,-74.58228 7.2,-74.91577 0,-0.38664 -9.7113,9.10444 -26.8007,26.19293 -14.7404,14.73961 -26.9077,26.79929 -27.0384,26.79929 -0.1308,0 -2.8665,-2.53668 -6.0793,-5.63707 -3.2129,-3.10038 -6.8496,-6.35757 -8.0816,-7.2382 -10.0656,-7.19485 -23.8208,-8.30263 -34.72,-2.79621 -1.32,0.66688 -3.408,1.92561 -4.64,2.79718 -8.9596,6.33833 -17.9151,20.16426 -21.0873,32.55539 -2.0567,8.03392 -2.2029,11.99959 -0.6981,18.93899 3.6539,16.85034 14.6268,32.46212 26.8384,38.18468 10.9896,5.14991 24.7004,3.90608 34.627,-3.1413 0.88,-0.62476 4.509,-4.01501 8.0644,-7.5339 l 6.4645,-6.39797 13.3755,13.15254 c 7.3566,7.2339 15.9661,15.75429 19.1323,18.9342 3.1661,3.17992 5.8661,5.78167 6,5.78167 0.1338,0 0.2433,-0.30758 0.2433,-0.68352 z"
       id="path7943"
       inkscape:connector-curvature="0" />
  </g>
</svg>
