<?xml version="1.0" encoding="UTF-8" standalone="no"?>
<!-- Created with Inkscape (http://www.inkscape.org/) -->

<svg
   xmlns:dc="http://purl.org/dc/elements/1.1/"
   xmlns:cc="http://creativecommons.org/ns#"
   xmlns:rdf="http://www.w3.org/1999/02/22-rdf-syntax-ns#"
   xmlns:svg="http://www.w3.org/2000/svg"
   xmlns="http://www.w3.org/2000/svg"
   xmlns:sodipodi="http://sodipodi.sourceforge.net/DTD/sodipodi-0.dtd"
   xmlns:inkscape="http://www.inkscape.org/namespaces/inkscape"
   id="svg4246"
   version="1.1"
   inkscape:version="0.91 r13725"
   width="1783.75"
   height="1692.5"
   viewBox="0 0 1783.75 1692.5"
   sodipodi:docname="marinahs.svg">
  <metadata
     id="metadata4252">
    <rdf:RDF>
      <cc:Work
         rdf:about="">
        <dc:format>image/svg+xml</dc:format>
        <dc:type
           rdf:resource="http://purl.org/dc/dcmitype/StillImage" />
        <dc:title></dc:title>
      </cc:Work>
    </rdf:RDF>
  </metadata>
  <defs
     id="defs4250" />
  <sodipodi:namedview
     pagecolor="#ffffff"
     bordercolor="#666666"
     borderopacity="1"
     objecttolerance="10"
     gridtolerance="10"
     guidetolerance="10"
     inkscape:pageopacity="0"
     inkscape:pageshadow="2"
     inkscape:window-width="2560"
     inkscape:window-height="1371"
     id="namedview4248"
     showgrid="false"
     inkscape:zoom="0.7887844"
     inkscape:cx="940.58317"
     inkscape:cy="823.3559"
     inkscape:window-x="0"
     inkscape:window-y="27"
     inkscape:window-maximized="1"
     inkscape:current-layer="svg4246" />
  <g
     id="g4796">
    <path
       style="fill:#8dc8e9"
       d="m 855.1329,1631.6115 c -8.17375,-42.25 -14.27541,-65.7692 -25.55051,-98.4865 -5.09195,-14.7755 -14.10574,-36.8984 -15.67212,-38.4647 -1.40642,-1.4064 -38.92978,-1.2392 -87.03527,0.3878 -48.88238,1.6534 -109.9426,4.897 -152.5,8.1012 -93.2746,7.0227 -148.79773,12.8571 -257.56737,27.0656 l -11.31738,1.4785 -13.05762,-7.5153 c -7.18171,-4.1332 -20.65138,-11.9198 -29.93263,-17.3033 -9.28125,-5.3837 -27.5625,-15.9242 -40.625,-23.4235 -13.0625,-7.4994 -24.22525,-14.0972 -24.80611,-14.6619 -0.58086,-0.5646 -0.12808,-5.4451 1.00621,-10.8455 2.28585,-10.8831 6.65526,-34.3996 11.34674,-61.0689 1.69315,-9.625 3.65589,-20.0312 4.36163,-23.125 0.70574,-3.0937 2.63133,-13.2187 4.27909,-22.5 2.7958,-15.7477 6.98693,-38.3834 17.58985,-95 2.38191,-12.7187 6.31226,-33.8125 8.73411,-46.875 2.42184,-13.0625 5.78837,-31.0625 7.48115,-40 1.69279,-8.9375 5.09859,-27.2187 7.56844,-40.625 2.46985,-13.4062 4.87275,-24.7162 5.33976,-25.1331 0.85849,-0.7665 17.75715,0.4802 68.97413,5.0885 50.32109,4.5277 74.38357,6.0777 75.59196,4.8693 0.33148,-0.3315 1.77695,-8.4433 3.21216,-18.0262 1.43522,-9.5829 3.22118,-21.5016 3.96883,-26.486 1.28624,-8.5752 1.5339,-9.0624 4.60569,-9.0614 1.7855,5e-4 17.02761,1.4074 33.87136,3.1264 34.52407,3.5233 118.49654,10.2331 143.125,11.4364 l 16.25,0.7939 0.0205,-27.3664 c 0.0189,-25.1536 0.30916,-28.7747 3.58996,-44.7832 1.96318,-9.57925 4.87355,-21.25112 6.46749,-25.93751 1.59395,-4.68638 2.38529,-8.52069 1.75854,-8.52069 -0.62675,0 -5.79637,1.70019 -11.48804,3.77819 -13.64216,4.98069 -42.08374,12.00599 -58.47349,14.44344 -17.90282,2.66246 -60.57962,3.67448 -80,1.89708 -66.7944,-6.11316 -124.70124,-25.91805 -169.48891,-57.9674 -12.3111,-8.80962 -14.88139,-11.01732 -34.26109,-29.42781 -11.04926,-10.49666 -11.23054,-10.4031 12.38554,-6.39209 22.30129,3.7877 22.67979,3.32768 6.16365,-7.49115 -10.42134,-6.82645 -18.14595,-13.28012 -29.17521,-24.375 -26.23998,-26.39607 -39.66997,-48.9825 -50.51122,-84.94928 C 207.86325,766.656 205,756.67163 205,756.07848 c 0,-2.30825 2.44628,-0.66608 16.28959,10.93515 7.88447,6.60748 17.99166,14.41417 22.46041,17.34818 20.57966,13.51184 51.14795,25.83109 75,30.22556 13.58009,2.50198 55.18358,3.22905 57.40934,1.00329 0.87911,-0.87911 -1.3689,-3.32063 -7.125,-7.73833 -10.44763,-8.01835 -34.8528,-32.45053 -33.63307,-33.67028 0.49497,-0.49495 12.27903,0.75222 26.18683,2.77151 64.45867,9.35884 113.62101,0.8625 161.5369,-27.9171 53.5507,-32.16403 99.31615,-95.10068 114.78834,-157.85693 l 3.96166,-16.06877 11.25,-3.92457 c 13.50972,-4.71289 28.69732,-11.57841 29.89301,-13.51309 0.51829,-0.8386 -0.91582,-2.24934 -3.57637,-3.51806 -5.25565,-2.50624 -5.39666,-3.41925 -1.42982,-9.257 2.25968,-3.3254 4.02325,-9.85723 7.06184,-26.1551 l 4.05001,-21.7228 -8.62433,-7.50368 C 668.50076,479.077 630.67929,441.3241 623.125,432.24614 601.59194,406.36995 586.23489,381.91234 577.76129,360 562.18464,319.71949 562.89358,248.97146 579.47104,189.375 593.18366,140.07777 618.61878,96.493554 649.4517,69.460004 663.22311,57.385568 703.39991,25.714138 705.54514,25.24147 c 2.00343,-0.441429 2.40476,2.990804 4.50272,38.50853 1.54266,26.116579 2.90285,38.65189 5.76453,53.125 5.30741,26.84256 18.23717,58.77854 34.25057,84.59745 5.2862,8.52311 21.6512,31.40776 25.47618,35.62562 0.73472,0.8102 5.55461,6.15395 10.71086,11.875 13.96001,15.48918 21.08585,21.77115 23.07622,20.34349 0.91367,-0.65536 8.88375,-7.282 17.7113,-14.72586 27.84137,-23.47734 63.47275,-45.48325 90.46248,-55.86955 16.89981,-6.50346 30.91695,-17.67046 40.75869,-32.47115 7.45878,-11.21705 15.49637,-33.08256 18.60933,-50.625 0.86818,-4.89247 0.98979,-4.67179 5.6543,10.26037 9.46453,30.29804 20.64428,50.31453 35.51688,63.58999 6.0897,5.4358 10.9139,8.17573 24.4608,13.89275 71.5405,30.19134 129.2182,70.40919 169.058,117.88189 38.5832,45.97534 69.1826,114.58371 78.8864,176.875 4.0139,25.76601 4.7713,32.46974 5.5903,49.46952 0.4622,9.59173 1.1216,17.2934 1.4653,17.11486 1.2832,-0.66657 8.957,5.70072 19.0065,15.7707 20.4651,20.50687 29.0891,47.04436 22.417,68.98131 -2.321,7.63097 -9.221,19.68976 -13.0916,22.87916 -3.0657,2.52621 -2.5834,4.75164 2.3286,10.74617 6.8558,8.36644 16.379,24.94023 20.5594,35.78048 2.9622,7.68121 5.085,11.01991 9.6504,15.1776 24.6162,22.41822 35.5394,43.46457 33.7342,64.99749 -1.2525,14.94055 -9.4893,28.49755 -22.2708,36.65577 l -4.5411,2.89861 1.7091,7.26417 c 3.3705,14.32462 1.1655,32.89005 -5.1953,43.74407 -1.6967,2.89506 -6.1305,7.94898 -9.8529,11.23093 -6.7626,5.96227 -6.7665,5.96998 -4.7449,9.39241 1.9691,3.33349 1.8973,3.60834 -2.6839,10.26006 -3.9675,5.76049 -4.4896,7.24166 -3.3221,9.42325 0.762,1.42364 1.8855,2.58844 2.4966,2.58844 0.6113,0 4.233,3.76079 8.0484,8.35731 17.7948,21.43849 25.5224,48.94639 21.9798,78.24159 -1.9175,15.8563 -4.9904,26.1545 -11.6322,38.9841 -10.4826,20.2484 -25.3892,35.2939 -47.7202,48.1645 -6.1875,3.5663 -11.5313,6.7643 -11.875,7.1068 -0.6936,0.6912 12.4395,-0.1519 44.375,-2.8486 11.6875,-0.9869 34.75,-2.9081 51.25,-4.2692 16.5,-1.3611 32.0516,-2.7983 34.5592,-3.1938 2.5075,-0.3955 4.838,-0.2575 5.1788,0.3066 0.5491,0.9091 3.9495,18.5169 12.2682,63.5257 1.3978,7.5625 4.7629,25.5625 7.4782,40 2.7152,14.4375 6.3782,34.125 8.14,43.75 1.7617,9.625 4.0273,21.7187 5.0346,26.875 3.7621,19.2572 9.4046,49.8419 11.7614,63.75 1.3396,7.9062 3.825,21.4062 5.523,30 1.698,8.5937 5.3945,28 8.2145,43.125 2.82,15.125 6.2662,33.328 7.6585,40.4512 1.3921,7.1232 2.0592,13.3983 1.4823,13.9447 -0.5767,0.5465 -3.0175,2.0946 -5.4237,3.4402 -2.4063,1.3458 -19.8438,11.4315 -38.75,22.4129 -18.9063,10.9814 -38.0313,22.057 -42.5,24.6126 -4.4688,2.5556 -10.375,6.0348 -13.125,7.7314 -7.7679,4.7926 -7.915,4.8167 -19.9211,3.2584 -61.5969,-7.9949 -82.2612,-10.5432 -103.2039,-12.727 -13.4063,-1.398 -31.571,-3.3934 -40.366,-4.4342 -65.6411,-7.7679 -207.2339,-16.6924 -298.384,-18.8071 l -35.625,-0.8265 -5.83303,14.2217 c -11.30146,27.5546 -24.64218,70.9247 -29.17493,94.8467 -1.10728,5.8438 -3.07244,15.6875 -4.36704,21.875 -1.2946,6.1875 -3.27009,16.0313 -4.38996,21.875 -1.11989,5.8438 -2.46857,11.0689 -2.99704,11.6115 -0.52849,0.5425 -3.33203,-11.27 -6.2301,-26.25 z m 541.0735,-245.049 c -0.024,-1.2031 -0.8756,-6.6875 -1.8927,-12.1875 -1.017,-5.5 -3.2176,-18.4375 -4.8902,-28.75 -6.8075,-41.9696 -9.9331,-46.2385 -47.3221,-64.6319 -13.187,-6.4872 -33.6472,-16.2236 -45.4669,-21.6365 l -21.4904,-9.8414 -1.4142,-8.8201 c -0.7779,-4.851 -1.5134,-9.6456 -1.6345,-10.6546 -0.3429,-2.8545 5.174,-3.4821 32.0192,-3.6426 24.6413,-0.1473 24.7705,-0.1338 32.5,3.3897 22.4358,10.2275 32.1695,14.345 32.6874,13.8271 0.9379,-0.9379 -7.8314,-52.3141 -9.1848,-53.8102 -0.4082,-0.4512 -10.3047,-0.3478 -21.9922,0.2298 -11.6875,0.5777 -41.4964,1.6933 -66.242,2.4792 -24.7457,0.7859 -45.2223,1.6592 -45.5037,1.9405 -0.8076,0.8076 3.5986,36.0764 6.2986,50.4162 2.9764,15.8075 4.0866,18.0643 12.807,26.0343 7.837,7.1625 14.7011,11.2235 33.2651,19.6803 15.681,7.1434 63.7414,30.4698 63.7706,30.9514 0.013,0.1863 1.064,6.0954 2.3395,13.1314 1.6919,9.3338 1.9399,13.0774 0.9169,13.8459 -1.3085,0.9829 -48.6329,-1.3579 -55.9844,-2.7692 -1.8327,-0.3518 -11.4149,-4.5244 -21.2935,-9.2724 -19.3321,-9.2916 -23.5158,-10.9616 -23.4693,-9.3686 0.016,0.562 0.567,3.2717 1.2234,6.0217 0.6565,2.75 2.0647,12.0313 3.1294,20.625 1.0647,8.5938 2.209,17.357 2.5431,19.4739 l 0.6074,3.8488 20.921,1.5208 c 11.5065,0.8364 25.9834,2.0423 32.1709,2.6796 6.1875,0.6375 23.625,2.0609 38.75,3.1633 15.125,1.1024 30.5937,2.4536 34.375,3.003 12.572,1.8263 17.5054,1.5785 17.4564,-0.8769 z m -15.092,-2.1149 c -0.3039,-0.3037 -8.9758,-1.1604 -19.2709,-1.9036 -10.2951,-0.7432 -27.9997,-2.1894 -39.3435,-3.2135 -11.3437,-1.0242 -31.2009,-2.634 -44.1269,-3.5774 -12.926,-0.9434 -23.7557,-1.9691 -24.066,-2.2793 -0.7954,-0.7954 -5.3739,-35.2324 -4.7711,-35.8853 0.2725,-0.2951 2.3601,0.3526 4.6393,1.4395 4.0886,1.9497 4.1637,2.1389 5.6486,14.2218 0.8277,6.7351 1.8139,12.5546 2.1912,12.9321 0.3775,0.3775 9.7817,1.3246 20.8982,2.1047 22.8245,1.6017 63.7323,4.9512 87.0867,7.1304 l 15.625,1.458 0.3918,4.0625 c 0.3175,3.2931 -0.058,4.0625 -1.9793,4.0625 -1.304,0 -2.6194,-0.2485 -2.9231,-0.5524 z m -33.3958,-42.2601 c -0.7084,-4.2969 -1.6752,-10.3437 -2.1485,-13.4375 -0.4732,-3.0937 -1.3809,-6.6157 -2.0168,-7.8266 -1.0412,-1.9824 -13.8121,-8.5324 -53.5533,-27.4668 -7.2187,-3.4394 -18.2497,-8.6957 -24.5134,-11.681 -25.7285,-12.2623 -28.9893,-17.4435 -33.5792,-53.3534 -1.7366,-13.5865 -3.1574,-25.2584 -3.1574,-25.9375 0,-0.6791 1.8363,-1.2347 4.0806,-1.2347 l 4.0807,0 3.302,23.5851 c 1.8161,12.9718 4.1693,25.2624 5.2294,27.3124 4.0796,7.889 13.5129,15.3974 28.3073,22.5309 7.9063,3.8122 27.52,13.3191 43.5861,21.1265 16.0662,7.8072 29.6938,14.1951 30.2837,14.1951 2.5475,0 4.8018,6.6611 7.255,21.4369 1.4438,8.6966 2.6252,16.431 2.6252,17.1875 0,0.7566 -1.911,1.3756 -4.2466,1.3756 -4.2386,0 -4.2493,-0.015 -5.5348,-7.8125 z m 3.5314,-108.1256 c -2.4062,-1.1154 -8.5937,-4.023 -13.75,-6.4611 l -9.375,-4.433 -28.75,-0.021 -28.75,-0.021 -0.3955,-3.4375 -0.3955,-3.4375 32.6786,0 32.6788,0 10.8419,4.5757 c 5.963,2.5166 11.1903,4.9072 11.6165,5.3125 0.426,0.4052 1.0937,2.8461 1.4838,5.4243 0.8212,5.4276 -0.5971,5.8773 -7.8836,2.4994 z m -946.45084,146.3679 25.42417,-2.1533 6.29562,-13.2007 c 3.46259,-7.2604 8.81838,-18.5445 11.90175,-25.0758 7.98453,-16.913 14.52003,-30.6801 23.6328,-49.7831 4.37058,-9.1619 7.9465,-16.8664 7.9465,-17.121 0,-0.2546 3.85215,-8.5085 8.56033,-18.3419 4.70818,-9.8335 9.99943,-20.9727 11.75832,-24.754 1.7589,-3.7812 6.0679,-13.0107 9.57557,-20.5099 3.50767,-7.4992 6.21723,-13.7953 6.02126,-13.9913 -0.19598,-0.196 -14.00268,-0.7565 -30.68154,-1.2456 l -30.32523,-0.8893 0.63305,4.8806 c 0.34819,2.6843 0.94052,10.5811 1.31632,17.5484 l 0.68325,12.6679 -8.87669,18.5821 c -4.88218,10.2201 -10.31325,21.6759 -12.06905,25.4571 -13.47628,29.0221 -28.1285,58.7773 -29.30005,59.5014 -0.50558,0.3125 -1.29137,-1.5569 -1.7462,-4.1541 -0.45485,-2.5973 -1.92256,-10.3473 -3.26159,-17.2223 -1.33902,-6.875 -3.48977,-19.25 -4.77945,-27.5 -1.28967,-8.25 -3.84242,-24.3466 -5.67279,-35.7703 l -3.32792,-20.7704 3.01534,-4.8546 c 1.65843,-2.6701 5.93108,-10.3014 9.49478,-16.9584 5.62279,-10.5035 6.19043,-12.1852 4.29338,-12.7203 -1.20235,-0.3391 -16.10796,-1.0025 -33.12359,-1.4743 l -30.9375,-0.8577 0.0541,2.953 c 0.10387,5.6675 6.44432,52.8842 10.55183,78.578 1.04412,6.5313 3.03419,19.75 4.42239,29.375 2.46296,17.0769 10.30259,64.9249 12.30409,75.0964 1.39856,7.1074 2.15602,7.9331 6.75299,7.3627 2.22178,-0.2757 15.48047,-1.4702 29.46376,-2.6543 z m -34.7057,-5.2 c -0.66457,-2.5327 -2.07722,-10.5479 -3.13922,-17.8117 -1.06201,-7.2638 -2.81231,-18.2326 -3.88958,-24.375 -1.07726,-6.1425 -3.0297,-18.4806 -4.33876,-27.4181 -1.30906,-8.9375 -3.78416,-25.8125 -5.50022,-37.5 -4.12428,-28.0891 -9.47568,-67.6796 -9.47568,-70.1027 0,-1.4252 1.06356,-1.8281 4.0625,-1.539 l 4.0625,0.3917 4.55666,33.125 c 4.60684,33.4898 12.02957,82.2137 18.28106,120 l 3.41228,20.625 10,-0.019 c 5.5,-0.012 16.32812,-0.5046 24.0625,-1.0983 14.37355,-1.1034 15.553,-0.7742 12.44593,3.4751 -1.3428,1.8364 -5.31187,2.5067 -23.4375,3.9584 -12.00152,0.9611 -23.6374,2.0053 -25.85754,2.3203 -3.76354,0.5339 -4.11835,0.2612 -5.24493,-4.032 z M 407.5,1343.018 c 0,-1.09 11.74724,-26.6317 26.10498,-56.7594 l 26.10496,-54.7774 -0.88539,-14.1781 c -0.48696,-7.7979 -0.66975,-14.6 -0.40619,-15.1156 0.26355,-0.5156 2.05335,-0.9375 3.97734,-0.9375 3.36438,0 3.52887,0.2939 4.30123,7.6834 1.56135,14.9381 2.36835,12.102 -12.04069,42.3166 -7.58106,15.8969 -15.67006,32.8934 -24.68846,51.875 -3.26639,6.875 -9.07998,19.1094 -12.91907,27.1875 -6.43491,13.5401 -9.54871,17.6834 -9.54871,12.7055 z m 818.1708,11.4902 c -1.1863,-10.3857 -2.903,-23.102 -3.8147,-28.2582 -0.9117,-5.1563 -2.6679,-18.5156 -3.9027,-29.6875 l -2.2449,-20.3125 -22.5417,-0.105 c -12.398,-0.057 -27.4637,-0.3585 -33.4793,-0.6679 -6.0156,-0.3094 -10.9375,-0.082 -10.9375,0.5049 0,0.5871 1.2656,2.2119 2.8125,3.6107 1.5469,1.3988 7.7689,7.6729 13.8268,13.9424 l 11.0143,11.3991 1.3388,12.2205 c 0.7363,6.7213 1.4049,14.7518 1.4857,17.8455 l 0.1469,5.625 -5.625,-0.2727 c -3.0938,-0.15 -15.6137,-0.6325 -27.822,-1.0723 -12.2084,-0.4397 -22.4915,-1.276 -22.8514,-1.8582 -0.3599,-0.5824 -1.7748,-13.3186 -3.1443,-28.3028 -1.3695,-14.9842 -2.723,-28.0877 -3.008,-29.119 -0.9173,-3.3202 -4.7958,-50.0451 -4.2032,-50.6377 0.3147,-0.3147 13.2916,-0.8668 28.8375,-1.2269 l 28.2653,-0.6547 8.5255,4.1987 c 17.18,8.4608 32.285,15.4885 32.6428,15.1872 0.202,-0.1701 -0.8649,-9.519 -2.3708,-20.7754 -1.5058,-11.2564 -2.9933,-22.8568 -3.3055,-25.7787 l -0.5676,-5.3125 -20.1867,0.02 c -36.9725,0.037 -83.3673,2.3249 -90.7783,4.476 -11.4179,3.3141 -20.2219,12.1304 -22.5875,22.6191 -0.8923,3.9562 2.4917,57.9089 4.4146,70.3845 0.3709,2.4063 1.4934,14.2784 2.4945,26.3825 1.001,12.104 2.3352,23.3624 2.9649,25.0187 2.362,6.2123 12.5226,15.7895 20.9213,19.7197 10.4705,4.8998 17.443,5.9475 51.1339,7.6844 15.125,0.7797 37.9062,2.0789 50.625,2.8869 13.7139,0.8711 23.3189,1.0072 23.6014,0.3342 0.2621,-0.6242 -0.4942,-9.6324 -1.6806,-20.0181 z M 1175,1369.2679 c -68.3715,-4.0248 -64.3444,-3.5638 -74.3567,-8.512 -10.7979,-5.3366 -17.6481,-13.1 -18.7068,-21.2007 -0.8103,-6.1998 -4.8303,-50.6937 -7.6328,-84.4822 -2.4164,-29.1331 -1.9581,-33.6624 4.0355,-39.8824 2.6229,-2.7219 4.0978,-3.6381 3.6524,-2.2688 -2.0114,6.1841 -1.94,13.7001 0.3819,40.2032 1.3853,15.8125 3.4558,39.7188 4.6011,53.125 1.1453,13.4063 2.6054,26.5138 3.2446,29.1276 2.1198,8.6684 15.0736,18.597 28.5308,21.8677 3.0938,0.7518 16.5938,1.9713 30,2.7097 50.8819,2.8029 67.9566,3.9296 68.9618,4.5509 0.571,0.353 1.0382,2.0147 1.0382,3.6929 0,2.927 -0.3183,3.0446 -7.8125,2.888 -4.2969,-0.09 -20.4687,-0.9084 -35.9375,-1.8189 z m 8.0886,-29.3268 c -0.4449,-0.72 -1.7437,-8.8705 -2.8863,-18.1125 l -2.0773,-16.8033 -9.375,-10.1637 c -5.1562,-5.59 -9.5625,-10.6581 -9.7917,-11.2626 -0.2291,-0.6045 2.433,-1.099 5.9158,-1.099 6.1266,0 6.5771,0.2531 13.8542,7.7828 4.1369,4.2805 7.5386,8.6398 7.5593,9.6875 0.021,1.0476 1.0928,10.3408 2.3826,20.6516 1.2897,10.3109 2.0833,19.1702 1.7636,19.6875 -0.8717,1.4105 -6.4178,1.1324 -7.3452,-0.3683 z m 2.5364,-107.1616 -13.75,-7.1545 -30.625,-0.625 -30.625,-0.625 -0.3955,-3.4375 -0.3955,-3.4375 33.3331,0 33.333,0 10.8125,5.0891 c 5.9468,2.799 11.5155,6.0003 12.3749,7.1139 1.6799,2.177 2.1757,10.3186 0.625,10.264 -0.5156,-0.018 -7.125,-3.2525 -14.6875,-7.1875 z m -640.02134,138.4433 c 10.98828,-0.6725 24.5957,-1.2228 30.23874,-1.2228 5.64302,0 10.57547,-0.5104 10.96097,-1.1341 0.38552,-0.6238 -2.15854,-7.7956 -5.65345,-15.9375 l -6.35437,-14.8034 3.36213,-32.5 c 1.84917,-17.875 4.32673,-42.4003 5.50571,-54.5005 l 2.14357,-22.0005 9.41704,-15.6965 9.41705,-15.6965 -15.13303,-0.7074 c -46.3654,-2.1674 -55.75802,-2.2217 -55.75802,-0.3219 0,1.0123 2.30291,8.2154 5.11757,16.0069 4.97507,13.7719 5.09524,14.4763 4.31552,25.2969 -0.44113,6.1217 -1.66218,17.653 -2.71344,25.625 -1.05126,7.972 -3.44661,28.3161 -5.32299,45.2094 -3.30056,29.7151 -3.54069,30.9153 -7.37727,36.875 -2.18113,3.388 -5.399,8.6913 -7.15085,11.7851 -1.75185,3.0938 -4.25408,7.3125 -5.5605,9.375 -3.90023,6.1574 -3.37237,6.9791 4.00446,6.2336 3.60937,-0.3647 15.5529,-1.2133 26.54116,-1.8858 z M 518.75,1368.1831 c 0,-0.3117 3.32406,-6.0774 7.3868,-12.8125 7.1135,-11.7925 7.43792,-12.7081 8.76854,-24.7456 0.75996,-6.875 1.9179,-17 2.57319,-22.5 0.6553,-5.5 2.97235,-25.1136 5.149,-43.5859 l 3.95756,-33.586 -4.54255,-13.2901 c -2.49839,-7.3095 -4.54254,-13.7115 -4.54254,-14.2265 0,-1.5769 8.36002,-1.0387 9.72571,0.626 0.705,0.8594 2.52085,5.6561 4.03524,10.6593 2.7435,9.0641 2.74595,9.1654 0.68094,28.125 -1.13987,10.4656 -2.85506,25.2157 -3.81156,32.7782 -0.95649,7.5625 -2.9614,24.4375 -4.45535,37.5 -2.63927,23.0768 -2.84504,23.9558 -7.25813,31.0055 -2.49801,3.9905 -5.79674,9.5431 -7.33049,12.339 l -2.78865,5.0835 24.22507,-0.9084 c 24.17122,-0.9062 24.22698,-0.9022 25.09027,1.8178 0.47588,1.4992 0.66814,2.9231 0.42728,3.164 -0.47643,0.4764 -44.97322,3.1163 -52.60283,3.1208 -2.57813,0 -4.6875,-0.2523 -4.6875,-0.5641 z m 131.13128,-1.273 c 9.90345,-0.3471 18.23205,-0.8567 18.50797,-1.1327 0.27594,-0.2759 -2.69369,-7.1731 -6.59916,-15.327 l -7.10086,-14.8254 1.49817,-20 c 0.824,-11 1.59705,-21.125 1.71789,-22.5 0.20466,-2.3288 1.18642,-2.5111 14.33651,-2.6631 16.4764,-0.1904 13.3866,-2.5896 27.57713,21.4131 5.28388,8.9375 11.14247,18.6295 13.01907,21.5376 1.8766,2.9083 3.412,5.6765 3.412,6.1517 0,0.4751 0.8048,1.7532 1.78845,2.8401 0.98365,1.0868 2.56019,3.3812 3.50342,5.0983 0.94324,1.7173 3.59752,6.0754 5.8984,9.6848 l 4.18342,6.5625 24.26192,0 c 19.07765,0 24.06103,-0.3339 23.32174,-1.5625 -0.5171,-0.8594 -8.60736,-11.4062 -17.97835,-23.4375 -26.65973,-34.2279 -48.84656,-64.0312 -48.45826,-65.0935 0.19485,-0.533 9.63551,-11.5053 20.97926,-24.3827 11.34375,-12.8775 25.58132,-29.2321 31.63906,-36.3437 L 776.40312,1200 l -14.76406,-0.2914 c -8.12024,-0.1602 -18.67524,-0.3008 -23.45556,-0.3125 l -8.69149,-0.021 -26.1253,31.5625 -26.12529,31.5625 -7.92193,0 c -4.35708,0 -8.25314,-0.5359 -8.65794,-1.1909 -0.40479,-0.655 -0.18641,-7.977 0.48528,-16.271 l 1.22126,-15.0803 8.94281,-15.0603 c 4.91855,-8.2833 8.74511,-15.247 8.50346,-15.4749 -0.24165,-0.228 -12.86985,-0.8226 -28.06266,-1.3214 l -27.62331,-0.9069 -1.39185,14.2154 c -0.76551,7.8184 -2.81941,30.5278 -4.56421,50.4653 -1.74482,19.9375 -3.76295,41.5938 -4.48478,48.125 -1.23244,11.1514 -4.91154,53.809 -4.92939,57.154 -0.006,1.1366 2.9589,1.3825 11.55434,0.958 6.35937,-0.314 19.66533,-0.8549 29.56878,-1.2019 z m -38.05363,-10.4017 c 0.39509,-4.6109 1.81754,-20.4771 3.16097,-35.2584 1.34346,-14.7812 3.30941,-37 4.36878,-49.375 1.05938,-12.375 2.76234,-31.5081 3.78438,-42.5181 C 624.1638,1218.347 625,1208.3253 625,1207.0864 c 0,-1.7198 0.81293,-2.1589 3.4375,-1.8569 4.21127,0.4845 4.23257,1.0674 1.17886,32.2705 -2.14156,21.8828 -5.80927,62.3113 -8.95836,98.746 -0.92084,10.654 -1.44514,19.7416 -1.16513,20.1947 0.28002,0.453 8.3711,0.5126 17.98019,0.1322 l 17.47108,-0.6916 1.1258,2.9968 c 0.75481,2.0093 0.66103,3.2512 -0.28458,3.7685 -0.7757,0.4244 -11.14515,1.1031 -23.04321,1.5084 l -21.63286,0.7367 0.71836,-8.3833 z m 120.04384,3.853 c -2.1663,-1.7047 -12.97551,-18.9813 -33.50516,-53.552 l -11.91588,-20.0656 -8.21679,0.5232 c -4.51924,0.2877 -11.34761,0.132 -15.17417,-0.3461 -6.2126,-0.7763 -6.916,-1.1598 -6.57093,-3.5825 0.37442,-2.629 0.96979,-2.724 19.13644,-3.0551 l 18.75,-0.3418 20.96093,34.7168 c 11.52851,19.0942 21.71552,35.7011 22.6378,36.9042 1.37027,1.7875 3.70868,2.1946 12.78907,2.2268 10.35335,0.036 11.26558,0.25 13.35805,3.125 1.61582,2.2201 1.79116,3.0971 0.625,3.1261 -0.89146,0.022 -8.37085,0.3255 -16.62085,0.6739 -8.25,0.3485 -15.56409,0.1897 -16.25351,-0.3529 z M 685,1260.0738 c 0,-0.6469 0.55606,-1.5199 1.23569,-1.9399 0.70857,-0.438 0.91812,0.064 0.49126,1.1762 -0.83099,2.1655 -1.72695,2.5617 -1.72695,0.7637 z m 9.95526,-12.3684 c 0.8235,-1.6057 1.84011,-2.5767 2.25911,-2.1577 0.419,0.419 -0.25478,1.7328 -1.4973,2.9196 -2.15968,2.0627 -2.19321,2.0292 -0.76181,-0.7619 z M 714.375,1223.75 c 0.4249,-0.6875 1.0206,-1.25 1.32378,-1.25 0.30317,0 0.55122,0.5625 0.55122,1.25 0,0.6875 -0.5957,1.25 -1.32378,1.25 -0.72807,0 -0.97612,-0.5625 -0.55122,-1.25 z m 8.08026,-9.7946 c 0.8235,-1.6057 1.84011,-2.5767 2.25911,-2.1577 0.419,0.419 -0.25478,1.7328 -1.4973,2.9196 -2.15968,2.0627 -2.19321,2.0292 -0.76181,-0.7619 z M 1055,1364.9218 c 0,-4.8402 -2.4998,-39.2514 -5.0342,-69.2968 -1.3917,-16.5 -3.557,-44.7755 -4.8117,-62.8344 -1.2547,-18.0589 -2.5634,-33.1166 -2.9083,-33.4614 -0.3448,-0.3449 -13.3087,-0.4757 -28.8086,-0.2906 l -28.18165,0.3364 6.71918,9.375 c 3.69553,5.1563 8.40727,11.6644 10.47047,14.4625 3.6305,4.9236 3.8115,5.83 5.621,28.1405 3.0218,37.2581 3.7973,58.647 2.1263,58.647 -0.7934,0 -1.4425,-0.563 -1.4425,-1.2511 0,-0.6882 -3.3831,-8.1413 -7.5181,-16.5625 -4.13499,-8.4213 -15.57441,-32.7489 -25.42096,-54.0614 l -17.90284,-38.75 -31.14155,0.4283 c -17.12785,0.2356 -31.36976,0.6513 -31.64869,0.9238 -0.27892,0.2725 0.23585,36.8362 1.14394,81.2527 1.15365,56.4267 2.06743,80.9168 3.033,81.2875 0.76006,0.2916 14.45096,0.3788 30.42425,0.194 l 29.04233,-0.3363 -10.7547,-14.8381 -10.7547,-14.8381 -1.07255,-27.6619 c -1.35128,-34.8504 -1.46265,-64.5468 -0.24193,-64.5042 0.51563,0.018 6.24748,11.6898 12.73746,25.9376 13.64794,29.9617 19.44514,42.5075 27.27652,59.0297 3.09576,6.5313 6.69351,14.3453 7.995,17.3644 1.30149,3.0192 2.63716,5.2186 2.96816,4.8876 0.331,-0.331 -2.41755,-7.02 -6.10789,-14.8644 -3.69034,-7.8445 -9.54514,-20.4501 -13.01067,-28.0126 -3.46554,-7.5625 -8.38885,-18.25 -10.9407,-23.75 -2.55184,-5.5 -6.49235,-14.2187 -8.75668,-19.375 -2.26432,-5.1562 -6.69131,-15 -9.83772,-21.875 -5.43696,-11.8799 -5.72153,-13.0581 -5.73621,-23.75 l -0.0154,-11.25 2.48514,4.076 c 1.36682,2.2417 3.95406,7.5855 5.74941,11.875 3.42107,8.1736 15.6342,35.2609 28.31484,62.799 4.1155,8.9375 8.90265,19.3438 10.63809,23.125 1.73545,3.7813 7.01361,14.952 11.72926,24.8239 4.71565,9.872 8.57396,18.4302 8.57396,19.0186 0,2.6714 6.1073,3.6587 22.7303,3.6746 21.8262,0.021 23.7855,0.4276 23.2744,4.8338 l -0.3798,3.2741 -13.125,-0.3289 c -7.2187,-0.1808 -18.8882,-0.6566 -25.9321,-1.0573 l -12.807,-0.7287 -2.52061,-5.6982 c -1.38634,-3.134 -2.80233,-5.4165 -3.14664,-5.0723 -0.34431,0.3444 0.78041,3.8063 2.4994,7.6933 2.08463,4.7136 3.85914,7.0723 5.32869,7.0827 9.69016,0.069 47.31246,1.6679 47.72406,2.0283 0.2865,0.2508 2.9584,0.4561 5.9375,0.4561 4.6382,0 5.4167,-0.3706 5.4167,-2.5783 z m -137.05591,-4.6114 -17.68091,-0.3774 -0.76107,-20.279 c -0.41859,-11.1535 -0.89967,-45.5915 -1.06908,-76.529 l -0.30803,-56.25 3.125,0 3.125,0 0.88299,36.25 c 0.48565,19.9375 1.25182,52.6483 1.70261,72.6906 l 0.81963,36.4405 16.18201,0.4345 c 15.53431,0.417 16.27579,0.5588 18.5244,3.5408 1.28831,1.7084 2.24022,3.1806 2.11537,3.2716 -1.08803,0.7925 -11.94823,1.1215 -26.65792,0.8074 z m 100.07531,-33.585 c -3.8318,-8.5471 -3.8733,-8.8748 -6.7126,-52.9601 l -2.8569,-44.3598 -7.3499,-10.3419 c -4.04252,-5.688 -7.35,-10.8725 -7.35,-11.5211 0,-1.866 8.5449,-3.0188 10.4789,-1.4137 0.9359,0.7766 3.9854,4.7401 6.7767,8.8076 l 5.0751,7.3955 1.9265,27.8965 c 3.0721,44.4867 4.7635,76.3085 4.2984,80.872 -0.4187,4.1085 -0.5372,3.9875 -4.2862,-4.375 z m -145.5194,36.34 c 0,-0.3767 -3.65625,-7.2979 -8.125,-15.3807 l -8.125,-14.6958 0,-51.6163 0,-51.6163 7.57923,-14.3823 c 4.16858,-7.9102 7.34717,-14.6143 7.06355,-14.8979 -0.28363,-0.2836 -16.2909,-0.3661 -35.57173,-0.1834 l -35.05604,0.3323 3.57433,6.875 c 3.05133,5.8691 3.46382,6.268 2.81908,2.7267 l -0.75523,-4.1483 4.8609,0.3983 c 4.65553,0.3815 5.04575,0.768 9.23591,9.1483 l 4.375,8.75 -0.81101,52.2211 c -0.87568,56.3847 -0.63268,54.3868 -8.01617,65.9039 -1.54261,2.4063 -3.17859,5.6406 -3.63552,7.1875 l -0.83077,2.8125 23.0086,0 23.00858,0 1.45064,3.1839 c 0.79786,1.751 1.45065,3.4385 1.45065,3.75 0,0.3114 -12.91985,0.5661 -28.71077,0.5661 -32.93803,0 -30.39959,1.6113 -21.73648,-13.797 l 5.2974,-9.4219 0.88328,-53.0781 0.88327,-53.078 -3.95135,-7.8125 c -2.17324,-4.2969 -4.16989,-7.8125 -4.43699,-7.8125 -0.26711,0 1.07383,3.7969 2.97988,8.4375 l 3.46552,8.4375 -1.00271,50.9794 -1.00271,50.9794 -4.62108,8.3956 c -2.54158,4.6176 -6.277,11.3487 -8.30091,14.9581 l -3.67982,6.5625 38.21673,0 c 21.0192,0 38.21674,-0.3081 38.21674,-0.6846 z m 76.25,-272.072 c 1.03125,-1.5121 5.30457,-6.9948 9.49628,-12.1838 22.08176,-27.3356 51.06592,-50.8055 83.43282,-67.5596 7.3049,-3.7813 13.2905,-7.2781 13.3013,-7.7708 0.011,-0.4927 -2.5796,-3.82226 -5.7563,-7.39913 -6.9966,-7.87778 -12.7703,-16.75932 -19.2276,-29.57745 -8.7124,-17.29467 -13.4302,-32.33942 -21.8123,-69.55812 -2.1323,-9.46796 -5.6631,-14.4445 -10.24828,-14.4445 -4.42776,0 -7.33962,5.39095 -17.21686,31.875 -13.77312,36.93012 -25.3279,82.02559 -35.8721,140 -2.12567,11.6875 -4.33356,23.7812 -4.9064,26.875 -0.57285,3.0938 -1.07506,7.5234 -1.11605,9.8437 -0.0724,4.0974 0.0424,4.1962 3.98799,3.4338 2.23437,-0.4317 4.90625,-2.022 5.9375,-3.5341 z M 777.44616,1068.125 c -6.09592,-31.5117 -19.50053,-75.30125 -28.20127,-92.12661 -1.88658,-3.64823 -1.93445,-3.662 -5.26189,-1.51418 -17.44142,11.25829 -38.01906,29.91619 -48.85643,44.29839 -12.16092,16.1388 -23.99608,41.8579 -25.31733,55.0174 l -0.43424,4.325 16.25,0.9442 c 23.26601,1.3518 92.33749,2.9869 93.36964,2.2102 0.4783,-0.3599 -0.21852,-6.2794 -1.54848,-13.1544 z m 279.58904,7.7144 c 0.7757,-0.8054 2.0472,-6.2456 2.8257,-12.0894 0.7784,-5.8437 1.7563,-12.1719 2.173,-14.0625 0.5383,-2.4428 0.2633,-3.4372 -0.9507,-3.4366 -4.1079,0 -32.9398,19.1314 -44.2082,29.3311 l -3.75,3.3943 21.25,-0.8362 c 13.5695,-0.534 21.7597,-1.3656 22.6602,-2.3007 z m 151.5228,-9.4443 c 1.2302,-0.7796 0.603,-1.443 -2.3311,-2.4658 -4.3886,-1.5299 -6.2269,-1.0075 -6.2269,1.7695 0,2.0015 5.7591,2.4701 8.558,0.6963 z m 76.466,-127.9576 c 3.6796,-5.67188 10.0522,-13.83046 14.1613,-18.1302 4.109,-4.29974 7.1351,-8.1536 6.7246,-8.56412 -1.8235,-1.82351 -16.681,-2.58119 -20.9099,-1.06636 -10.774,3.85938 -25.0619,11.67547 -36.1789,19.79149 -7.7105,5.62906 -8.5447,4.66881 8.6789,9.98954 5.8437,1.80525 12.3125,4.40579 14.375,5.77897 2.0625,1.37319 4.3595,2.50042 5.1044,2.50494 0.7448,0.005 4.365,-4.63239 8.0446,-10.30426 z m -131.8402,-91.07291 c 11.2536,-11.6959 37.7781,-28.23495 55.2509,-34.45103 2.2328,-0.79434 4.2618,-2.19672 4.5089,-3.11641 0.2471,-0.91968 1.4349,-5.8909 2.6394,-11.04715 4.0526,-17.34695 16.4536,-35.04762 28.8633,-41.19829 6.426,-3.1849 6.3356,-2.91313 5.2894,-15.9098 -0.7266,-9.02577 -1.7989,-13.90377 -4.0827,-18.57165 -5.1531,-10.5325 -5.3384,-10.57026 -51.8716,-10.57026 -21.9361,0 -40.1578,-0.44323 -40.4926,-0.98494 -0.5425,-0.87785 2.8841,-6.56519 12.2096,-20.26506 1.638,-2.40625 6.1311,-7.98669 9.9847,-12.40096 3.8537,-4.41429 6.7957,-8.23686 6.538,-8.49462 -1.5712,-1.57122 -49.0016,13.19309 -70.467,21.93524 -4.9891,2.03187 -9.356,3.2331 -9.7044,2.66943 -0.6435,-1.04118 8.8652,-16.73459 22.0993,-36.47364 4.0156,-5.98925 7.301,-11.3397 7.301,-11.8899 0,-0.55019 -3.0527,-0.71239 -6.7837,-0.36045 l -6.7838,0.6399 -13.3385,18.75 c -7.3361,10.3125 -17.888,24.35771 -23.4485,31.21159 -10.5023,12.9451 -17.05,25.49179 -17.1117,32.78939 -0.057,6.73109 2.5951,16.88232 6.3767,24.40872 4.7378,9.42937 14.978,19.63366 31.0895,30.98056 16.0829,11.32675 25.0133,19.58825 31.5393,29.17693 5.4723,8.04053 11.4723,23.15515 12.8568,32.38766 0.4883,3.25609 1.2722,5.92015 1.7422,5.92015 0.4699,0 3.0779,-2.31094 5.7955,-5.13541 z m 195.9838,-35.98639 c 9.7167,-6.00523 11.432,-16.59904 4.8003,-29.64498 -3.7908,-7.45713 -14.6643,-19.26196 -22.7989,-24.75161 -3.1639,-2.13511 -4.9195,-4.58023 -6.0542,-8.43187 -2.2699,-7.70487 -10.393,-24.78668 -15.1658,-31.89137 C 1303.8801,707.6242 1296.1206,700 1292.995,700 c -5.1735,0 -15.3415,19.80171 -20.4534,39.83226 -1.4678,5.75149 -2.4995,10.57357 -2.2927,10.71572 0.2068,0.14214 3.1071,1.27112 6.445,2.50881 3.338,1.2377 7.8681,3.83002 10.067,5.76072 4.1799,3.66998 11.5054,15.83295 10.2761,17.06218 -0.391,0.39098 -3.6811,-0.61031 -7.3115,-2.22514 -4.8282,-2.14772 -8.9497,-2.94845 -15.3505,-2.98229 -11.6521,-0.0616 -18.3913,3.55875 -23.9573,12.86996 -3.7293,6.2387 -7.6537,18.3884 -6.3581,19.68408 0.3253,0.32525 7.2793,-0.0361 15.4534,-0.803 8.1741,-0.7669 19.6433,-1.02741 25.487,-0.57892 13.1324,1.00787 32.4981,5.94588 39.2868,10.0176 4.2465,2.54703 6.3677,2.9805 12.8226,2.62018 5.1148,-0.28551 9.1988,-1.33682 12.0582,-3.10396 z M 1240,696.78509 c 0,-0.3932 -1.4973,-3.26978 -3.3272,-6.39239 -2.6548,-4.53005 -3.4079,-7.60654 -3.7265,-15.22259 -0.2196,-5.24981 -0.4099,-9.63234 -0.4228,-9.73895 -0.013,-0.10662 -3.2336,0.64444 -7.157,1.66899 -9.1593,2.39184 -15.5551,5.67783 -24.1165,12.39039 -6.2171,4.87456 -16.25,15.56191 -16.25,17.31003 0,0.38469 12.375,0.69943 27.5,0.69943 15.125,0 27.5,-0.32171 27.5,-0.71491 z M 1053.729,502.09214 c 6.7197,-3.25805 9.6243,-7.88056 11.4443,-18.21318 2.6596,-15.09856 -3.7282,-33.70797 -16.4604,-47.95381 -9.1882,-10.28055 -13.357,-12.41611 -49.3379,-25.27457 C 964.76224,398.28103 926.99235,383.63343 907.18666,374.89886 877.29709,361.71717 837.25112,340.12131 818.75,327.207 760.02219,286.21332 724.76742,244.86996 699.61752,187.5 c -6.85373,-15.63421 -15.99892,-48.3099 -18.36694,-65.625 -0.75219,-5.5 -2.0444,-14.7477 -2.87159,-20.55045 L 676.875,90.774101 670.59306,96.32455 c -10.18929,9.0028 -31.79248,34.73677 -31.82992,37.91616 -0.008,0.61364 4.96164,-3.67998 11.04191,-9.54139 10.04032,-9.67889 15.5842,-13.47674 17.24631,-11.81463 0.33713,0.33713 0.0325,2.77911 -0.67698,5.42663 -3.09977,11.56738 -5.12438,31.59575 -5.12438,50.69254 0,73.32051 25.78859,138.5311 69.85459,176.6386 6.34887,5.4904 12.23516,10.26379 13.08064,10.60754 0.84547,0.34375 5.4528,3.74439 10.2385,7.55699 24.63622,19.62676 79.86801,55.95633 114.95127,75.61099 40.70132,22.80205 64.89585,34.81852 95,47.18279 44.026,18.0822 73.4789,23.18847 89.354,15.49137 z m 141.1813,-42.23464 c 5.7944,-1.9542 10.9774,-3.99519 11.5177,-4.53553 2.4723,-2.47228 -13.0418,-43.38347 -27.378,-72.19697 -19.2334,-38.65585 -43.6362,-71.31275 -68.9625,-92.28869 -6.1376,-5.08335 -9.4404,-6.15265 -5.4788,-1.77381 5.3247,5.88547 20.5842,31.27338 28.8109,47.9337 15.2455,30.87458 30.0599,74.35243 37.2264,109.2538 1.7646,8.59375 3.4588,16.35499 3.7649,17.2472 0.7199,2.09874 6.5577,1.06225 20.4994,-3.6397 z"
       id="path4802"
       inkscape:connector-curvature="0" />
    <path
       style="fill:#f2b32b"
       d="m 857.10226,1581.8206 c -7.171,-30.079 -32.06248,-99.3308 -36.74255,-102.2232 -0.56291,-0.348 -24.63975,-0.1258 -53.50408,0.4936 -142.71947,3.0629 -297.074,15.12 -431.6614,33.7186 l -26.68077,3.687 -19.56923,-11.402 c -10.76308,-6.2711 -24.06923,-14.0422 -29.56923,-17.2691 -5.5,-3.2269 -18.29304,-10.6109 -28.42899,-16.4087 -13.54906,-7.7504 -18.43124,-11.1708 -18.4375,-12.917 -0.005,-1.3064 0.82273,-6.6502 1.83868,-11.875 1.01595,-5.2249 5.23891,-27.781 9.38436,-50.1248 4.14545,-22.3437 9.21515,-49.625 11.26599,-60.625 5.43331,-29.1424 12.14136,-65.1344 15.60901,-83.75 1.66485,-8.9375 6.69521,-35.9375 11.17859,-60 4.48338,-24.0625 9.45831,-50.7812 11.0554,-59.375 l 2.90378,-15.625 4.94034,0.3199 c 2.71719,0.1759 18.44034,1.4589 34.94034,2.8509 60.02719,5.0644 74.03826,6.1563 89.48611,6.9739 13.82301,0.7317 15.8303,0.5874 16.51094,-1.1862 0.42615,-1.1106 2.29447,-12.6933 4.15182,-25.7394 1.85736,-13.0461 3.76529,-24.3484 4.23987,-25.1163 0.62506,-1.0114 9.78456,-0.5118 33.23706,1.8128 38.3961,3.8058 123.19934,10.2929 150.38509,11.5038 l 19.2609,0.8579 -0.8544,-3.0136 c -0.46993,-1.6576 -1.74429,-6.1074 -2.83194,-9.8887 -2.6828,-9.3268 -3.64642,-38.8692 -1.789,-54.8462 2.82099,-24.26519 11.44567,-53.30914 21.33168,-71.83507 2.06077,-3.86182 3.74687,-7.27427 3.74687,-7.58322 0,-0.30895 -6.48343,2.52008 -14.4076,6.28672 -27.44258,13.04441 -65.38816,23.67567 -95.91146,26.87164 -8.45964,0.88578 -25.33691,1.18057 -44.46999,0.77674 -33.69999,-0.71128 -54.34868,-3.44669 -83.8602,-11.10921 -32.32802,-8.39383 -68.98832,-24.37124 -93.86747,-40.90964 -13.70158,-9.10811 -21.7194,-16.12719 -16.85828,-14.75829 6.94763,1.95645 37.81691,3.6376 53.11884,2.89287 28.00095,-1.36279 35.39364,-3.11239 21.58404,-5.1082 -9.45633,-1.36667 -29.27983,-6.6046 -40.11369,-10.59916 -45.53606,-16.78968 -83.99368,-51.89119 -104.66696,-95.53292 -3.18399,-6.72147 -5.54303,-12.46692 -5.24229,-12.76766 0.30072,-0.30074 4.71452,2.22449 9.80842,5.6116 13.54512,9.00662 31.10765,17.45013 52.38664,25.1858 8.80114,3.19953 30.99286,7.53579 45.21455,8.83493 12.31284,1.12476 19.80791,1.12021 32.2856,-0.0196 15.21016,-1.38944 40.55376,-6.63569 42.9384,-8.88847 0.58495,-0.55261 -4.18586,-3.71595 -10.60181,-7.02967 -12.0301,-6.21328 -31.08674,-19.66891 -31.08674,-21.9499 0,-0.7418 0.93011,-0.90429 2.1875,-0.38213 4.26889,1.77273 52.30547,2.23863 66.82106,0.64809 79.58704,-8.72073 152.66217,-63.50971 192.22208,-144.12088 9.94415,-20.26319 16.78042,-38.35329 19.87128,-52.58328 l 2.1265,-9.79014 12.44829,-4.70446 c 21.71366,-8.20602 31.1417,-14.12002 34.79995,-21.82922 2.81964,-5.94195 2.60834,-6.77253 -2.32104,-9.12318 -3.34946,-1.59725 -4.21045,-2.6661 -3.75958,-4.66727 0.32162,-1.42758 1.1655,-6.53309 1.87526,-11.34559 0.70978,-4.8125 2.73009,-15.98713 4.4896,-24.8325 1.7595,-8.84537 2.72998,-16.47002 2.1566,-16.94366 -36.74212,-30.3508 -72.63499,-68.35 -92.12406,-97.53027 C 585.51742,357.84532 577.66033,327.12919 579.14999,275 580.59247,224.52143 590.20776,183.39969 609.98563,143.125 626.45587,109.58581 642.70731,89.911336 675.625,63.660055 699.11445,44.927627 696.53229,43.658504 698.69726,75 c 0.7836,11.34375 2.21902,26.06121 3.1898,32.70547 6.52967,44.6898 26.41324,88.54478 59.37115,130.94833 10.15378,13.06382 44.46813,48.8462 46.8422,48.8462 0.83167,0 2.58368,-1.20639 3.89335,-2.68088 6.56176,-7.38743 29.76418,-27.17693 42.74581,-36.45817 24.09588,-17.2274 44.58353,-28.77981 70.22042,-39.59534 16.06594,-6.77779 28.97648,-15.25978 37.6265,-24.71991 6.37181,-6.96858 14.91351,-22.33139 14.91351,-26.82294 0,-4.68061 2.11676,-1.88481 4.74028,6.26094 6.88257,21.36969 22.88322,38.01571 44.71762,46.52125 5.4544,2.12475 15.8234,6.16459 23.0421,8.97742 31.0174,12.08614 69.3138,33.90768 96.2298,54.83235 14.4598,11.24111 38.2135,34.12344 51.188,49.31028 46.6185,54.56745 75.8837,124.43634 84.5572,201.875 1.0444,9.32477 1.755,28.57372 1.7625,47.73873 0.013,18.08462 0.5128,32.42289 1.1576,32.82145 3.2579,2.01345 16.335,-6.32769 20.2097,-12.89052 l 2.6831,-4.54466 4.9345,5.625 c 10.9486,12.48055 17.1169,30.4574 15.5651,45.36375 -1.1465,11.01386 -5.703,19.44195 -15.231,28.17256 -7.4874,6.86092 -9.7422,10.21369 -6.8691,10.21369 2.1777,0 18.4677,20.50567 23.336,29.375 2.6416,4.8125 6.5557,13.40841 8.6982,19.10202 3.3655,8.94384 4.8141,11.13474 10.6494,16.10604 12.6621,10.78746 21.6796,21.8786 26.7626,32.91694 3.2761,7.11477 3.7414,9.52377 3.7414,19.375 0,10.10835 -0.3725,11.92239 -3.6706,17.87579 -4.1574,7.50453 -10.301,12.53046 -20.2559,16.57085 -3.8409,1.5589 -6.5626,3.38221 -6.215,4.16343 6.3243,14.21129 6.958,16.6856 6.9869,27.28054 0.04,14.62083 -2.9537,22.68948 -11.1524,30.0609 -3.3231,2.98774 -8.3823,6.20463 -11.2426,7.14863 -2.8604,0.944 -5.4865,2.1789 -5.836,2.74421 -0.3494,0.5653 0.9132,3.78242 2.8057,7.14914 l 3.441,6.12131 -5.8641,8.49314 -5.864,8.49312 4.6835,3.72138 c 14.9282,11.86152 25.4429,26.6583 31.2148,43.92756 2.9442,8.80871 3.3498,12.0103 3.4054,26.875 0.073,19.1993 -2.0255,29.9465 -8.6601,44.375 -11.3862,24.7619 -36.3857,45.818 -65.9505,55.5475 -4.6332,1.5248 -8.6559,3.1503 -8.9394,3.6124 -0.5,0.8148 2.5702,20.345 3.2667,20.78 0.6257,0.3908 60.7642,-4.2014 102.8466,-7.8534 22.6875,-1.9689 41.6131,-3.2439 42.0569,-2.8332 0.4437,0.4107 2.2951,8.9029 4.1141,18.8717 3.9144,21.4513 16.2043,87.9037 23.2336,125.625 1.2812,6.875 4.3184,23.1875 6.7495,36.25 2.4312,13.0625 6.4155,34.4375 8.8542,47.5 2.4386,13.0625 6.3626,34.1562 8.7201,46.875 2.3574,12.7187 5.7746,31 7.5939,40.625 5.3753,28.4401 5.4191,26.9876 -0.9178,30.4701 -2.9725,1.6336 -10.467,5.9164 -16.6545,9.5171 -6.1875,3.6009 -16.5937,9.6564 -23.125,13.4568 -6.5312,3.8004 -20.6497,11.9945 -31.3746,18.2091 l -19.4995,11.2993 -17.3755,-2.4009 c -9.5564,-1.3204 -29.1879,-3.8199 -43.6254,-5.5543 -14.4375,-1.7343 -27.6562,-3.4226 -29.375,-3.7516 -7.5026,-1.436 -102.9056,-10.8097 -139.375,-13.6941 -22,-1.74 -43.6562,-3.4563 -48.125,-3.814 -44.7738,-3.5841 -166.0012,-8.4701 -195.59691,-7.8834 l -19.97193,0.3959 -5.44881,12.5 c -11.45434,26.2771 -26.05666,69.6369 -30.94086,91.875 -1.13248,5.1562 -2.44118,9.7892 -2.9082,10.2954 -0.46703,0.5062 -2.3935,-5.5574 -4.28103,-13.4748 z m 540.40634,-192.7581 c 0.016,-1.7666 -5.2268,-33.4324 -8.774,-52.99 -5.9245,-32.6668 -11.3758,-39.5939 -43.1096,-54.7807 -17.6554,-8.4493 -50.1269,-23.6724 -60.7677,-28.4888 -4.5472,-2.0583 -8.5673,-4.234 -8.9335,-4.8351 -0.3663,-0.6011 -1.0713,-5.4523 -1.5667,-10.7804 l -0.9008,-9.6875 27.5442,0 27.5443,0 12.9151,5.7477 c 7.1034,3.1613 16.5147,7.3898 20.9142,9.3967 4.3997,2.0069 8.255,3.3932 8.5675,3.0806 0.7063,-0.7062 -8.582,-56.0553 -9.5871,-57.1303 -0.4012,-0.4292 -19.292,-0.046 -41.9795,0.8517 -22.6875,0.8977 -53.2234,2.0384 -67.8575,2.5351 -14.6342,0.4967 -26.8024,1.2384 -27.0406,1.6483 -0.2381,0.4098 0.3107,5.5265 1.2196,11.3702 0.9088,5.8437 2.8538,19.5943 4.3222,30.5567 1.4683,10.9625 3.5375,21.65 4.5981,23.75 6.3637,12.6005 15.3107,18.9262 50.3832,35.6219 14.7813,7.0365 33.4438,15.9184 41.4723,19.7376 10.6011,5.0432 14.7697,7.6647 15.2275,9.5764 1.1555,4.8256 3.6111,23.3651 3.1397,23.7054 -0.2555,0.1844 -12.8395,-0.419 -27.9645,-1.341 l -27.5,-1.6762 -11.25,-5.1837 c -6.1875,-2.851 -15.6716,-7.3353 -21.0757,-9.9653 -5.4043,-2.63 -10.4038,-4.7818 -11.1102,-4.7818 -0.8352,0 -0.9906,2.9506 -0.4445,8.4375 1.4475,14.5426 5.8559,43.3994 6.763,44.2698 0.477,0.4578 13.8049,1.7301 29.6174,2.8272 25.2336,1.751 61.3764,4.7491 97.5,8.0879 15.7014,1.4511 18.1238,1.51 18.1336,0.4401 z m -995.28457,-7.2189 c 14.24553,-1.0485 26.64155,-2.1702 27.54671,-2.4927 0.90515,-0.3225 4.76274,-7.199 8.57242,-15.2812 8.15514,-17.3008 36.02883,-76.3199 43.24679,-91.5697 20.40376,-43.1081 35.63651,-76.9979 34.90426,-77.655 -0.47806,-0.4291 -14.57887,-1.1529 -31.33513,-1.6086 l -30.46593,-0.8286 0.87388,17.8586 0.87386,17.8586 -5.54629,11.875 c -3.05046,6.5313 -8.38474,17.7813 -11.85396,25 -19.4005,40.3686 -25.7389,53.7192 -28.04071,59.0625 -1.40678,3.2656 -2.97145,5.9375 -3.47704,5.9375 -0.50558,0 -1.62965,-4.3594 -2.49794,-9.6875 -0.86827,-5.3281 -2.86737,-17 -4.44245,-25.9375 -1.57506,-8.9375 -4.685,-27.5807 -6.91095,-41.4295 l -4.04719,-25.1795 4.72043,-8.5705 c 12.42374,-22.5568 14.59807,-26.9199 13.81127,-27.7144 -1.21232,-1.2242 -66.04407,-3.5832 -67.4513,-2.4544 -1.37322,1.1016 1.51298,24.6097 11.09248,90.3483 4.45366,30.5629 14.57191,93.2821 16.38467,101.5625 0.75099,3.4304 0.013,3.4108 34.04212,0.9061 z m 827.15127,-9.0311 c -1.3542,-8.2806 -4.5506,-31.5369 -7.4304,-54.0625 -1.714,-13.4062 -3.7649,-28.7344 -4.5576,-34.0625 l -1.4412,-9.6875 -28.4236,0 c -15.633,0 -31.0333,-0.3578 -34.223,-0.7949 -6.618,-0.9071 -7.8123,1.0932 -3.1577,5.2887 1.453,1.3097 7.7598,7.9278 14.0151,14.7071 l 11.3733,12.3259 1.563,12.6741 c 0.8596,6.9707 1.584,14.221 1.6099,16.1116 l 0.047,3.4375 -11.5625,0 c -6.3594,0 -18.6544,-0.3668 -27.3222,-0.8089 l -15.7598,-0.8037 -1.3707,-11.3786 c -2.3328,-19.3648 -9.3184,-94.5889 -8.8259,-95.0411 0.2564,-0.2354 12.8323,-0.7079 27.9466,-1.0499 31.15,-0.7051 25.3553,-1.9883 54.8359,12.1437 8.149,3.9064 15.0794,6.8395 15.4008,6.5181 0.3214,-0.3214 -1.0151,-12.5915 -2.9699,-27.2669 l -3.5543,-26.6877 -42.4715,0.4264 c -53.4142,0.5363 -67.0365,1.4859 -74.4241,5.1881 -10.3101,5.1667 -17.2307,13.7285 -19.1292,23.6653 -0.4497,2.3538 0.2941,16.4163 1.6529,31.25 1.3588,14.8336 3.3563,38.5015 4.4388,52.5952 1.0826,14.0938 2.5554,28.262 3.2728,31.4851 3.1432,14.1198 15.1487,24.7789 33.2488,29.5199 7.8401,2.0536 18.2952,2.9448 54.0935,4.6104 24.4063,1.1356 44.9375,2.2611 45.625,2.501 0.6875,0.24 5.0328,0.4806 9.6563,0.535 l 8.4062,0.099 -0.5622,-3.4375 z m -641.11671,-3.153 c 0.53019,-0.531 -0.31548,-3.906 -1.87924,-7.5 -1.56376,-3.594 -4.5307,-10.6232 -6.5932,-15.6205 l -3.75,-9.0861 4.55305,-45.2889 c 6.89516,-68.5861 5.3554,-61.105 16.322,-79.3017 5.1949,-8.6199 9.17291,-15.9448 8.84004,-16.2777 -0.33286,-0.3329 -17.23689,-0.9098 -37.5645,-1.2819 l -36.95928,-0.6767 5.76637,16.7495 c 3.1715,9.2122 5.75326,17.8745 5.73725,19.2495 -0.0309,2.6464 -6.1382,56.7921 -10.08107,89.375 l -2.34457,19.375 -10.04546,16.8554 c -5.525,9.2705 -9.86632,17.1455 -9.64738,17.5 0.61786,1.0005 76.55775,-2.9809 77.64599,-4.0709 z m 53.30391,-1.6221 c 15.64063,-0.4769 28.4375,-1.3225 28.4375,-1.8793 0,-0.5567 -3.1789,-7.6544 -7.06422,-15.7726 l -7.06423,-14.7605 1.44683,-21.0691 c 0.79573,-11.588 1.75783,-21.5724 2.13798,-22.1875 0.38015,-0.6151 6.50513,-1.1184 13.61105,-1.1184 l 12.91987,0 12.16905,20.3125 c 6.69297,11.1719 16.97397,28.1191 22.84667,37.6606 l 10.67761,17.3482 8.22219,-0.7768 c 4.52221,-0.4271 15.67533,-0.7807 24.7847,-0.7856 9.93051,0 16.5625,-0.4974 16.5625,-1.2289 0,-0.671 -8.8914,-12.6241 -19.75866,-26.5625 -18.96386,-24.3231 -39.13624,-50.9082 -45.02943,-59.3441 l -2.79547,-4.0016 17.85427,-20.265 c 27.70283,-31.4433 45.97929,-52.7716 45.97929,-53.657 0,-1.0079 -45.3755,-2.7161 -47.68605,-1.7952 -0.92892,0.3703 -13.2202,14.7101 -27.31395,31.8663 l -25.625,31.1931 -7.8125,0.018 c -4.29688,0.012 -7.8067,-0.4039 -7.7996,-0.9195 0.008,-0.5156 0.60046,-7.6356 1.3186,-15.8223 l 1.30571,-14.8848 8.6814,-14.7217 c 4.77476,-8.0965 8.68139,-15.233 8.68139,-15.8585 0,-1.2139 -26.12634,-2.7747 -46.44764,-2.7747 -9.00384,0 -12.30474,0.4189 -12.3112,1.5625 -0.005,0.8594 -1.42162,17.3125 -3.14833,36.5625 -1.72673,19.25 -4.24483,47.6563 -5.59579,63.125 -1.35095,15.4688 -3.36458,37.2781 -4.4747,48.4654 -1.11013,11.1872 -1.68457,21.2104 -1.27654,22.2737 0.43347,1.1295 1.65383,1.6698 2.93554,1.2993 1.20651,-0.3488 14.99053,-1.0242 30.63116,-1.501 z m 414.7002,-3.3499 c 0.01,-1.5469 -1.1066,-16.875 -2.4747,-34.0625 -1.3682,-17.1875 -3.9061,-49.8125 -5.6399,-72.5 -1.7338,-22.6875 -3.5053,-45.6094 -3.9366,-50.9375 l -0.7843,-9.6875 -29.8386,0 c -16.41124,0 -29.8386,0.3257 -29.8386,0.7238 0,0.3981 4.97379,7.8512 11.05285,16.5625 l 11.05285,15.8387 2.1366,37.9564 c 1.1751,20.876 1.9449,38.1481 1.7106,38.3823 -0.2343,0.2344 -2.9081,-5.0335 -5.9417,-11.7063 -3.0336,-6.6728 -10.06956,-21.6949 -15.63543,-33.3824 -5.56586,-11.6875 -14.31173,-30.6624 -19.43526,-42.1664 -6.2336,-13.9964 -10.09282,-21.175 -11.66505,-21.6981 -1.29225,-0.43 -16.09011,-0.3696 -32.88414,0.1341 l -30.5346,0.916 0.8504,39.5322 c 0.46773,21.7427 1.20308,58.9384 1.63414,82.6572 l 0.78374,43.125 32.27624,0.3337 32.27625,0.3339 -5.67384,-7.8339 c -3.12061,-4.3084 -8.2372,-11.518 -11.37019,-16.021 l -5.69633,-8.1872 -1.20592,-35.5628 c -0.66326,-19.5595 -1.47668,-39.7372 -1.80763,-44.8393 -0.36211,-5.5826 -0.14843,-8.818 0.53663,-8.125 0.62609,0.6334 9.30108,18.9802 19.27776,40.7708 9.97668,21.7905 22.38575,48.4342 27.57573,59.208 5.18996,10.7739 9.4363,20.0676 9.4363,20.6524 0,1.0598 12.111,1.6208 45.9375,2.1282 17.7147,0.2657 17.8126,0.2517 17.8252,-2.5453 z M 873.75,1363.5768 c 0,-0.7828 -3.65625,-8.0173 -8.125,-16.0768 l -8.125,-14.6536 0,-51.5835 0,-51.5835 7.5,-14.2558 c 4.125,-7.8408 7.5,-14.7999 7.5,-15.4647 0,-0.7512 -13.96191,-1.2089 -36.875,-1.2089 -20.28125,0 -36.875,0.2496 -36.875,0.5546 0,0.305 3.3206,7.5802 7.37911,16.1671 l 7.37913,15.6126 -0.69482,50.6895 -0.69481,50.6893 -8.48852,15.2524 c -4.66868,8.3888 -8.20593,15.7095 -7.86053,16.2684 1.03616,1.6766 77.98044,1.2749 77.98044,-0.4071 z m 405.5378,-275.5284 c 0.074,-6.3926 -0.524,-8.6087 -3.7112,-13.771 -5.7315,-9.2837 -15.4295,-13.7902 -34.9516,-16.2416 -18.1753,-2.2823 -31.4385,-5.4465 -40.625,-9.6919 -6.14,-2.8375 -6.9232,-2.9522 -7.3261,-1.073 -0.2481,1.1573 -2.6387,9.2495 -5.3125,17.9829 -2.6738,8.7333 -4.8614,16.2694 -4.8614,16.747 0,1.1014 15.8646,-0.01 56.7735,-3.9591 24.7089,-2.3883 32.6165,-2.7786 33.3174,-1.6446 0.5055,0.8179 1.2841,4.635 1.7301,8.4825 0.4461,3.8475 1.1392,8.898 1.5403,11.2234 0.6412,3.719 0.8862,3.9473 2.0341,1.8961 0.7177,-1.2826 1.3444,-5.7604 1.3924,-9.9507 z m -485.31087,7.558 c 1.55779,-1.5578 -8.73714,-51.2931 -15.30695,-73.9486 -8.72132,-30.07471 -23.35372,-65.4078 -27.08718,-65.4078 -3.05694,0 -29.12891,17.93884 -40.36336,27.77201 -24.43719,21.38919 -39.77217,43.98879 -49.42712,72.84219 -4.28096,12.7935 -7.94996,32.3948 -6.36111,33.9837 2.01084,2.0108 136.66842,6.6358 138.54572,4.7585 z m 159.07255,-8.7928 c 23.56536,-31.3094 60.97872,-61.7459 96.01302,-78.1085 4.6406,-2.1674 8.4375,-4.3399 8.4375,-4.8277 0,-0.4878 -2.0253,-2.8254 -4.5008,-5.19469 -16.8887,-16.16433 -32.3476,-49.86743 -40.5943,-88.50307 -4.4482,-20.83994 -7.1493,-27.25414 -11.9886,-28.4687 -6.24626,-1.56773 -9.5698,2.94881 -17.86657,24.27989 -15.97093,41.06135 -32.68138,107.60777 -42.51314,169.30097 -3.40956,21.3947 -3.44469,20.9582 1.68696,20.9582 3.79786,0 4.93939,-0.9511 11.32593,-9.4364 z m 75.70052,5.6026 c 20.2813,-0.7983 37.3032,-1.8436 37.8266,-2.323 1.907,-1.7463 12.0533,-63.1299 10.6646,-64.5187 -1.2997,-1.2997 -29.7421,12.9893 -42.5904,21.3968 -7.0267,4.598 -16.9946,11.8851 -22.1508,16.1936 -11.0332,9.2192 -30,28.4362 -30,30.3956 0,0.8393 1.8075,1.1618 4.6875,0.8365 2.57812,-0.2912 21.2812,-1.1826 41.5625,-1.9808 z m 252.0236,-145.2287 c 3.8191,-7.43151 11.345,-17.71478 19.291,-26.35873 8.6705,-9.43213 8.6075,-10.10606 -1.0819,-11.57118 -8.728,-1.31976 -15.0573,0.20447 -28.3369,6.82418 -11.3759,5.67072 -30.5908,18.41678 -30.6299,20.31809 -0.01,0.42619 3.4865,1.46393 7.7672,2.30611 9.1388,1.79795 21.5395,6.59792 25.9669,10.05109 4.1681,3.25091 4.5954,3.15545 7.0236,-1.56956 z M 1173.125,832.51211 c 10.4575,-7.06775 18.2969,-11.24824 31.4485,-16.77042 8.0631,-3.3856 9.8572,-4.64773 10.1155,-7.11612 2.2271,-21.28252 14.8651,-42.02626 30.4052,-49.90672 3.0419,-1.54258 5.8277,-3.26326 6.1907,-3.82374 0.3628,-0.56049 0.2595,-6.49231 -0.2297,-13.18184 -0.7138,-9.76197 -1.5842,-13.51076 -4.4098,-18.99175 -5.9559,-11.55332 -5.5855,-11.47152 -51.9384,-11.47152 -27.6035,0 -39.707,-0.41159 -39.707,-1.35025 0,-2.34026 14.5732,-22.66378 22.6013,-31.51946 4.2355,-4.67209 7.4355,-8.76011 7.1112,-9.0845 -1.9524,-1.95233 -41.4689,9.47879 -65.5402,18.95907 -7.6739,3.02233 -14.5732,5.49514 -15.3318,5.49514 -1.5624,0 4.4272,-9.87076 19.5385,-32.19901 5.7041,-8.42822 10.371,-15.90928 10.371,-16.62458 0,-1.22597 -14.198,-0.4136 -16.5825,0.94881 -0.5267,0.30091 -3.8637,4.86771 -7.4156,10.14844 -8.1795,12.16089 -22.8549,31.85369 -32.7719,43.97634 -5.1246,6.26453 -8.8689,12.46651 -11.2852,18.69286 -3.4906,8.99444 -3.564,9.62355 -2.1155,18.125 3.2956,19.34285 11.9335,30.94539 35.6886,47.93745 27.5607,19.71424 39.1361,34.8019 43.8227,57.11969 1.1549,5.5 2.3402,10.75405 2.6338,11.67566 0.3428,1.07551 3.7782,-1.33291 9.5923,-6.72459 4.9821,-4.62013 12.9958,-11.06142 17.8083,-14.31396 z m 175.0658,-19.55776 c 18.1232,-9.35438 12.4507,-34.68686 -11.9408,-53.32539 -6.4879,-4.95768 -8.529,-7.37173 -10.1302,-11.9813 -8.346,-24.0268 -25.1725,-48.89766 -33.0819,-48.89766 -3.3063,0 -7.3296,4.76694 -12.1325,14.375 -3.3711,6.74355 -12.1554,33.42573 -12.1554,36.92167 0,1.50782 1.4074,2.35885 4.7971,2.90089 6.6967,1.07085 15.2073,7.99388 19.4819,15.84774 3.1048,5.70451 3.2739,6.47724 1.2241,5.59574 -8.0821,-3.47582 -15.5437,-5.56473 -20.0041,-5.60023 -10.3957,-0.0827 -19.5354,5.11165 -24.7998,14.09486 -2.9858,5.09493 -7.7118,20.51837 -6.6213,21.60888 0.2903,0.29035 8.0697,-0.01 17.2875,-0.66619 27.4136,-1.95321 53.5914,2.04129 65.6801,10.02218 4.6585,3.07557 15.5444,2.63996 22.3953,-0.89619 z M 931.93236,788.58156 c 15.27919,-5.6207 47.12107,-27.32643 75.02134,-51.14 24.8035,-21.17039 53.0496,-50.82126 72.7057,-76.32177 6.8047,-8.82793 22.6549,-32.20214 25.3407,-37.36979 0.8933,-1.71875 2.1827,-3.48906 2.8654,-3.93401 0.6827,-0.44497 11.7079,-1.21033 24.5004,-1.7008 l 23.2591,-0.89179 9.375,-9.05455 c 5.1562,-4.98 11.307,-10.04841 13.6683,-11.26314 5.9062,-3.03835 17.523,-2.01324 31.9567,2.81996 9.9923,3.34597 20.9126,5.88633 36.0721,8.39132 l 4.8221,0.79681 -0.4471,-38.14454 c -0.2725,-23.2469 -0.9354,-38.58816 -1.6971,-39.28039 -0.7514,-0.68282 -9.7621,-0.49671 -22.5919,0.4666 -40.0542,3.00747 -110.6373,7.10702 -111.281,6.46334 -0.3532,-0.35324 0.1895,-3.93885 1.2061,-7.96804 4.8459,-19.20707 6.0063,-46.45712 2.6525,-62.28991 -5.7842,-27.306 -23.5998,-47.9748 -56.0704,-65.05014 -23.0393,-12.11565 -38.6356,-17.30127 -94.28584,-31.34911 -20.4212,-5.15495 -41.34821,-10.51075 -46.50446,-11.9018 -5.15625,-1.39104 -10.5,-2.81585 -11.875,-3.16625 -4.76904,-1.21532 4.89136,3.99451 18.125,9.77478 20.57291,8.98596 28.93307,11.81336 54.375,18.38963 80.4252,20.78847 114.7317,43.04963 126.3957,82.01703 2.7869,9.31059 3.1145,36.69262 0.6055,50.625 -5.4294,30.15039 -20.2793,54.109 -43.4708,70.13527 -29.6953,20.5207 -82.07594,31.37374 -123.39779,25.56747 -43.17354,-6.06645 -91.97465,-24.93138 -148.88261,-57.55317 -10.37489,-5.94727 -23.19538,-14.29151 -62.32978,-40.56743 -5.4163,-3.63665 10.24747,11.65981 23.26728,22.72167 7.39062,6.27921 13.4383,11.73274 13.43927,12.11896 9.8e-4,0.38623 -7.45215,0.5615 -16.5625,0.38952 l -16.56427,-0.3127 -4.77819,10.03877 c -8.73784,18.35788 -27.58838,38.06671 -44.17203,46.18329 l -6.32704,3.09665 -5.76689,16.83117 c -3.17179,9.25714 -5.5427,17.05536 -5.26869,17.32935 0.50894,0.50895 48.68755,-1.91878 108.41783,-5.46321 l 33.355,-1.9793 13.52,7.8309 c 7.43601,4.30699 16.03526,9.18677 19.10946,10.84393 3.07419,1.65716 7.01169,4.01635 8.75,5.24262 5.46747,3.85699 17.76225,9.62059 28.78555,13.4942 15.17605,5.3329 33.07411,8.312 50.31069,8.37412 8.07714,0.0291 14.68651,0.41616 14.6875,0.86011 10e-4,0.44396 -2.68661,2.53235 -5.97246,4.64087 -16.55882,10.62577 -36.90792,16.3819 -58.01445,16.41052 -6.75224,0.009 -12.45752,0.57267 -12.89047,1.2732 -0.77062,1.2469 2.03169,27.47147 4.47398,41.86822 2.03799,12.01348 7.2259,26.28066 11.67518,32.10771 9.24879,12.11278 28.66352,16.12807 46.41239,9.59885 z m -180.19889,-177.687 c -3.55571,-3.25857 -4.59399,-5.25689 -5.03338,-9.6875 -0.32256,-3.2524 0.12771,-6.87061 1.07886,-8.66954 2.31525,-4.37882 9.38724,-8.78752 14.09605,-8.78752 4.70881,0 11.7808,4.4087 14.09605,8.78752 0.95115,1.79893 1.40142,5.41714 1.07886,8.66954 C 776.25791,609.19309 769.86919,615 761.875,615 c -4.65706,0 -6.45664,-0.7285 -10.14153,-4.10544 z M 1136.6304,591.305 c -5.4683,-3.33424 -8.2213,-7.95702 -8.2213,-13.805 0,-12.10456 13.9094,-20.19054 24.2371,-14.0898 4.8463,2.86277 9.0753,11.59736 7.9955,16.51378 -1.6319,7.42981 -9.2816,13.83101 -16.5171,13.82134 -1.9248,-0.002 -5.2972,-1.10071 -7.4942,-2.44032 z m 64.4606,-4.65964 c -7.4824,-4.64375 -9.5978,-15.07202 -4.5514,-22.43682 3.4679,-5.06108 6.9721,-6.70854 14.2692,-6.70854 4.7792,0 6.3565,0.66527 9.8426,4.15141 7.3944,7.3944 7.018,17.32843 -0.9094,23.9989 -4.4141,3.71423 -13.4895,4.1984 -18.651,0.99505 z m 41.409,111.53515 c 0,-0.31322 -1.3486,-2.55675 -2.9969,-4.98564 -3.8414,-5.66072 -6.2264,-15.63 -5.4299,-22.69707 0.3433,-3.04551 0.2026,-5.79785 -0.3127,-6.1163 -1.7574,-1.08613 -15.4147,3.18742 -23.0337,7.20755 -8.1523,4.30156 -26.9768,21.89327 -26.9768,25.21019 0,1.71233 3.5902,1.95076 29.375,1.95076 16.1563,0 29.375,-0.25627 29.375,-0.56949 z M 779.66146,671.74479 c -0.41536,-0.41536 -1.4935,-0.45976 -2.39584,-0.0986 -0.99716,0.39903 -0.70097,0.69523 0.75522,0.7552 1.3177,0.0543 2.05598,-0.24116 1.64062,-0.65652 z m 215.51753,-79.8806 c 9.87031,-1.0372 21.03011,-2.77849 24.79961,-3.86954 31.4966,-9.1165 55.6982,-32.35732 66.6022,-63.95804 3.2415,-9.39423 3.7691,-12.73678 3.7944,-24.03661 0.061,-27.1038 -11.5123,-48.88216 -34.3357,-64.61345 -13.8169,-9.52352 -21.2861,-12.86695 -62.52604,-27.98857 C 958.65461,394.61614 923.53555,381.10406 914.375,376.94944 889.98,365.88545 880.90827,361.56341 868.13454,354.91915 762.60621,300.02854 702.66684,226.8298 683.95765,130 c -2.05898,-10.65625 -4.13155,-24.01562 -4.60573,-29.6875 -0.53863,-6.443007 -1.3996,-10.302281 -2.29452,-10.285265 -1.93821,0.03685 -14.78396,12.471015 -25.07884,24.275285 -45.57286,52.2546 -65.15756,137.96768 -48.85658,213.82248 7.92323,36.86993 24.36551,63.99931 62.41747,102.98745 73.82214,75.63836 187.1444,141.94536 269.46055,157.66649 26.9543,5.14785 36.09231,5.61633 60.17899,3.08525 z M 950,572.91919 C 925.17665,569.02408 898.956,561.20925 871.45859,549.51064 781.24275,511.1288 682.19729,436.95384 642.38944,377.96116 629.37269,358.67117 622.77943,337.31226 618.70954,301.25 c -1.79907,-15.94113 -1.79955,-55.03243 -8.8e-4,-71.25 3.89697,-35.13669 15.06986,-67.28501 30.97339,-89.12125 2.40191,-3.29794 4.61037,-5.75299 4.90768,-5.45569 0.29731,0.29731 -0.74109,6.93313 -2.30757,14.74625 -2.45096,12.22468 -2.85225,18.12778 -2.87765,42.33069 -0.026,24.74725 0.32515,29.8514 2.92363,42.5 14.11635,68.71411 56.31536,128.72051 130.17186,185.10253 59.71455,45.58605 141.05102,87.45158 240.3265,123.70094 10.1484,3.70556 18.2593,7.3188 18.0243,8.02946 -0.8346,2.52367 -19.0837,13.90777 -25.8508,16.12611 -13.2604,4.34693 -50.70025,7.20397 -65,4.96015 z m 242.2991,-110.91762 c 7.7958,-2.32366 14.7814,-4.83204 15.5235,-5.57418 2.7064,-2.70635 -12.8022,-43.63879 -27.9743,-73.83393 -16.0952,-32.03203 -31.3699,-54.71246 -50.396,-74.82931 -10.1692,-10.75232 -29.2853,-27.09777 -30.3942,-25.98895 -0.3298,0.32984 2.1823,4.42473 5.5824,9.09975 21.5013,29.56353 40.5463,69.84728 54.546,115.37505 5.0594,16.45326 11.5189,42.67939 12.777,51.875 0.4703,3.4375 1.0978,6.67188 1.3945,7.1875 0.9381,1.63003 4.3872,1.02711 18.9411,-3.31092 z"
       id="path4800"
       inkscape:connector-curvature="0" />
    <path
       style="fill:#061042"
       d="m 857.10226,1581.8206 c -7.171,-30.079 -32.06248,-99.3308 -36.74255,-102.2232 -0.56291,-0.348 -24.63975,-0.1258 -53.50408,0.4936 -142.71947,3.0629 -297.074,15.12 -431.6614,33.7186 l -26.68077,3.687 -19.56923,-11.402 c -10.76308,-6.2711 -24.06923,-14.0422 -29.56923,-17.2691 -5.5,-3.2269 -18.29304,-10.6109 -28.42899,-16.4087 -13.54906,-7.7504 -18.43124,-11.1708 -18.4375,-12.917 -0.005,-1.3064 0.82273,-6.6502 1.83868,-11.875 1.01595,-5.2249 5.23891,-27.781 9.38436,-50.1248 4.14545,-22.3437 9.21515,-49.625 11.26599,-60.625 5.43331,-29.1424 12.14136,-65.1344 15.60901,-83.75 1.66485,-8.9375 6.69521,-35.9375 11.17859,-60 4.48338,-24.0625 9.45831,-50.7812 11.0554,-59.375 l 2.90378,-15.625 4.94034,0.3199 c 2.71719,0.1759 18.44034,1.4589 34.94034,2.8509 60.02719,5.0644 74.03826,6.1563 89.48611,6.9739 13.82301,0.7317 15.8303,0.5874 16.51094,-1.1862 0.42615,-1.1106 2.29447,-12.6933 4.15182,-25.7394 1.85736,-13.0461 3.76529,-24.3484 4.23987,-25.1163 0.62506,-1.0114 9.78456,-0.5118 33.23706,1.8128 38.3961,3.8058 123.19934,10.2929 150.38509,11.5038 l 19.2609,0.8579 -0.8544,-3.0136 c -0.46993,-1.6576 -1.74429,-6.1074 -2.83194,-9.8887 -2.6828,-9.3268 -3.64642,-38.8692 -1.789,-54.8462 2.82099,-24.26519 11.44567,-53.30914 21.33168,-71.83507 2.06077,-3.86182 3.74687,-7.27427 3.74687,-7.58322 0,-0.30895 -6.48343,2.52008 -14.4076,6.28672 -27.44258,13.04441 -65.38816,23.67567 -95.91146,26.87164 -8.45964,0.88578 -25.33691,1.18057 -44.46999,0.77674 -33.69999,-0.71128 -54.34868,-3.44669 -83.8602,-11.10921 -32.32802,-8.39383 -68.98832,-24.37124 -93.86747,-40.90964 -13.70158,-9.10811 -21.7194,-16.12719 -16.85828,-14.75829 6.94763,1.95645 37.81691,3.6376 53.11884,2.89287 28.00095,-1.36279 35.39364,-3.11239 21.58404,-5.1082 -9.45633,-1.36667 -29.27983,-6.6046 -40.11369,-10.59916 -45.53606,-16.78968 -83.99368,-51.89119 -104.66696,-95.53292 -3.18399,-6.72147 -5.54303,-12.46692 -5.24229,-12.76766 0.30072,-0.30074 4.71452,2.22449 9.80842,5.6116 13.54512,9.00662 31.10765,17.45013 52.38664,25.1858 8.80114,3.19953 30.99286,7.53579 45.21455,8.83493 12.31284,1.12476 19.80791,1.12021 32.2856,-0.0196 15.21016,-1.38944 40.55376,-6.63569 42.9384,-8.88847 0.58495,-0.55261 -4.18586,-3.71595 -10.60181,-7.02967 -12.0301,-6.21328 -31.08674,-19.66891 -31.08674,-21.9499 0,-0.7418 0.93011,-0.90429 2.1875,-0.38213 4.26889,1.77273 52.30547,2.23863 66.82106,0.64809 79.58704,-8.72073 152.66217,-63.50971 192.22208,-144.12088 9.94415,-20.26319 16.78042,-38.35329 19.87128,-52.58328 l 2.1265,-9.79014 12.44829,-4.70446 c 21.71366,-8.20602 31.1417,-14.12002 34.79995,-21.82922 2.81964,-5.94195 2.60834,-6.77253 -2.32104,-9.12318 -3.34946,-1.59725 -4.21045,-2.6661 -3.75958,-4.66727 0.32162,-1.42758 1.1655,-6.53309 1.87526,-11.34559 0.70978,-4.8125 2.73009,-15.98713 4.4896,-24.8325 1.7595,-8.84537 2.72998,-16.47002 2.1566,-16.94366 -36.74212,-30.3508 -72.63499,-68.35 -92.12406,-97.53027 C 585.51742,357.84532 577.66033,327.12919 579.14999,275 580.59247,224.52143 590.20776,183.39969 609.98563,143.125 626.45587,109.58581 642.70731,89.911336 675.625,63.660055 699.11445,44.927627 696.53229,43.658504 698.69726,75 c 0.7836,11.34375 2.21902,26.06121 3.1898,32.70547 6.52967,44.6898 26.41324,88.54478 59.37115,130.94833 10.15378,13.06382 44.46813,48.8462 46.8422,48.8462 0.83167,0 2.58368,-1.20639 3.89335,-2.68088 6.56176,-7.38743 29.76418,-27.17693 42.74581,-36.45817 24.09588,-17.2274 44.58353,-28.77981 70.22042,-39.59534 16.06594,-6.77779 28.97648,-15.25978 37.6265,-24.71991 6.37181,-6.96858 14.91351,-22.33139 14.91351,-26.82294 0,-4.68061 2.11676,-1.88481 4.74028,6.26094 6.88257,21.36969 22.88322,38.01571 44.71762,46.52125 5.4544,2.12475 15.8234,6.16459 23.0421,8.97742 31.0174,12.08614 69.3138,33.90768 96.2298,54.83235 14.4598,11.24111 38.2135,34.12344 51.188,49.31028 46.6185,54.56745 75.8837,124.43634 84.5572,201.875 1.0444,9.32477 1.755,28.57372 1.7625,47.73873 0.013,18.08462 0.5128,32.42289 1.1576,32.82145 3.2579,2.01345 16.335,-6.32769 20.2097,-12.89052 l 2.6831,-4.54466 4.9345,5.625 c 10.9486,12.48055 17.1169,30.4574 15.5651,45.36375 -1.1465,11.01386 -5.703,19.44195 -15.231,28.17256 -7.4874,6.86092 -9.7422,10.21369 -6.8691,10.21369 2.1777,0 18.4677,20.50567 23.336,29.375 2.6416,4.8125 6.5557,13.40841 8.6982,19.10202 3.3655,8.94384 4.8141,11.13474 10.6494,16.10604 12.6621,10.78746 21.6796,21.8786 26.7626,32.91694 3.2761,7.11477 3.7414,9.52377 3.7414,19.375 0,10.10835 -0.3725,11.92239 -3.6706,17.87579 -4.1574,7.50453 -10.301,12.53046 -20.2559,16.57085 -3.8409,1.5589 -6.5626,3.38221 -6.215,4.16343 6.3243,14.21129 6.958,16.6856 6.9869,27.28054 0.04,14.62083 -2.9537,22.68948 -11.1524,30.0609 -3.3231,2.98774 -8.3823,6.20463 -11.2426,7.14863 -2.8604,0.944 -5.4865,2.1789 -5.836,2.74421 -0.3494,0.5653 0.9132,3.78242 2.8057,7.14914 l 3.441,6.12131 -5.8641,8.49314 -5.864,8.49312 4.6835,3.72138 c 14.9282,11.86152 25.4429,26.6583 31.2148,43.92756 2.9442,8.80871 3.3498,12.0103 3.4054,26.875 0.073,19.1993 -2.0255,29.9465 -8.6601,44.375 -11.3862,24.7619 -36.3857,45.818 -65.9505,55.5475 -4.6332,1.5248 -8.6559,3.1503 -8.9394,3.6124 -0.5,0.8148 2.5702,20.345 3.2667,20.78 0.6257,0.3908 60.7642,-4.2014 102.8466,-7.8534 22.6875,-1.9689 41.6131,-3.2439 42.0569,-2.8332 0.4437,0.4107 2.2951,8.9029 4.1141,18.8717 3.9144,21.4513 16.2043,87.9037 23.2336,125.625 1.2812,6.875 4.3184,23.1875 6.7495,36.25 2.4312,13.0625 6.4155,34.4375 8.8542,47.5 2.4386,13.0625 6.3626,34.1562 8.7201,46.875 2.3574,12.7187 5.7746,31 7.5939,40.625 5.3753,28.4401 5.4191,26.9876 -0.9178,30.4701 -2.9725,1.6336 -10.467,5.9164 -16.6545,9.5171 -6.1875,3.6009 -16.5937,9.6564 -23.125,13.4568 -6.5312,3.8004 -20.6497,11.9945 -31.3746,18.2091 l -19.4995,11.2993 -17.3755,-2.4009 c -9.5564,-1.3204 -29.1879,-3.8199 -43.6254,-5.5543 -14.4375,-1.7343 -27.6562,-3.4226 -29.375,-3.7516 -7.5026,-1.436 -102.9056,-10.8097 -139.375,-13.6941 -22,-1.74 -43.6562,-3.4563 -48.125,-3.814 -44.7738,-3.5841 -166.0012,-8.4701 -195.59691,-7.8834 l -19.97193,0.3959 -5.44881,12.5 c -11.45434,26.2771 -26.05666,69.6369 -30.94086,91.875 -1.13248,5.1562 -2.44118,9.7892 -2.9082,10.2954 -0.46703,0.5062 -2.3935,-5.5574 -4.28103,-13.4748 z m 6.71609,-69.6292 c 0.86325,-3.6115 3.45103,-12.1613 5.7506,-18.9995 2.29957,-6.8381 4.18105,-12.885 4.18105,-13.4375 0,-0.5524 -5.625,-1.0044 -12.5,-1.0044 -9.63186,0 -12.5,0.3854 -12.5,1.6798 0,0.9237 1.89749,7.2518 4.21664,14.0625 2.31915,6.8105 4.9062,15.3346 5.74898,18.9423 0.84281,3.6079 1.98254,6.2814 2.53277,5.9414 0.55022,-0.3401 1.70671,-3.5731 2.56996,-7.1846 z M 266.875,1429.4264 c 73.99747,-8.8894 147.62237,-15.9192 236.25,-22.5574 31.77387,-2.3798 130.4393,-7.7656 173.125,-9.4504 54.63339,-2.1561 234.30171,-2.9342 298.125,-1.291 97.1503,2.5013 168.8,6.2656 266.25,13.9888 67.1386,5.3207 173.0658,16.0135 209.3276,21.1303 4.4427,0.6269 8.347,0.8703 8.6765,0.5408 0.5115,-0.5115 -13.7775,-80.9274 -26.1936,-147.4125 -2.0542,-11 -5.0882,-27.5938 -6.7421,-36.875 -1.6539,-9.2813 -5.6223,-30.9375 -8.8187,-48.125 -3.1964,-17.1875 -6.6516,-36.0313 -7.6783,-41.875 -1.0267,-5.8438 -2.339,-11.1075 -2.9163,-11.6973 -0.5832,-0.5958 -11.794,-0.197 -25.2274,0.8973 -34.9371,2.8461 -119.6077,7.6616 -120.4206,6.8488 -0.3802,-0.3803 -2.5002,-12.3777 -4.711,-26.6611 l -4.0195,-25.9696 -10.6383,0.7929 c -5.8511,0.436 -17.1071,1.3309 -25.0133,1.9886 -63.4959,5.282 -133.3463,9.1824 -228.75,12.7733 -53.59796,2.0174 -220.86374,2.0245 -271.875,0.011 -97.20858,-3.8359 -127.37199,-5.3314 -168.75,-8.3665 -41.96496,-3.0781 -77.01228,-5.6825 -86.9042,-6.4578 l -9.4042,-0.7371 -3.5142,23.6009 c -4.84565,32.5428 -3.42713,29.2269 -12.50041,29.2209 -4.22234,-0 -15.27074,-0.5332 -24.55199,-1.1786 -9.28125,-0.6455 -27.28125,-1.7883 -40,-2.5397 -12.71875,-0.7513 -34.2934,-2.2432 -47.94365,-3.3152 -13.8167,-1.0851 -25.29433,-1.4735 -25.89168,-0.8761 -0.59016,0.5901 -2.47826,8.9405 -4.19578,18.5563 -1.71753,9.6159 -5.13773,28.4521 -7.60045,41.8584 -2.46274,13.4062 -5.33397,29.1562 -6.3805,35 -2.38013,13.2902 -9.10692,50.0269 -14.93474,81.5624 -15.73354,85.1377 -19.3032,105.0998 -19.3032,107.9468 0,1.4427 0.8807,1.7706 3.4375,1.2797 1.89062,-0.3631 10.75,-1.5386 19.6875,-2.6122 z m -10.625,-10.7291 c 0,-0.7164 0.81538,-5.357 1.81195,-10.3125 0.99656,-4.9554 2.42797,-12.6661 3.18089,-17.1348 0.75292,-4.4687 2.72503,-15.4375 4.38247,-24.375 1.65744,-8.9375 5.02819,-27.5 7.49056,-41.25 4.49517,-25.1012 9.3284,-51.733 15.08583,-83.125 1.70222,-9.2812 5.88026,-32.2802 9.28454,-51.1087 3.40427,-18.8286 6.44335,-34.4876 6.75351,-34.7977 0.54872,-0.5487 17.24666,0.3397 76.38525,4.064 48.78607,3.0724 163.36625,8.0182 251.25,10.8452 66.84771,2.1504 366.10601,2.1546 435.625,0.01 28.5313,-0.8817 85.625,-3.0006 126.875,-4.7085 71.9543,-2.9793 100.1083,-4.4235 171.0438,-8.774 17.7616,-1.0894 32.5586,-1.7157 32.8825,-1.3919 0.5928,0.5929 1.9922,7.9512 9.7922,51.4904 2.3401,13.0625 6.7871,37.5313 9.882,54.375 3.095,16.8438 6.7608,37.0938 8.1461,45 4.1548,23.7104 7.117,40.1037 13.859,76.6977 3.5287,19.1525 6.1082,35.1302 5.7322,35.5062 -0.3759,0.376 -17.1433,-1.0966 -37.2607,-3.2725 -20.1173,-2.1759 -45.8583,-4.7987 -57.2021,-5.8286 -11.3437,-1.0299 -25.6875,-2.4298 -31.875,-3.1108 -36.4916,-4.0162 -160.8095,-12.5642 -235,-16.1583 -125.42685,-6.0763 -334.87359,-6.093 -464.375,-0.038 -57.87151,2.7062 -116.31274,6.3412 -170.625,10.6128 -59.70849,4.6959 -102.98447,8.8063 -171.25,16.2654 -19.62771,2.1446 -21.875,2.1983 -21.875,0.5225 z m 1141.2586,-29.6348 c 0.016,-1.7666 -5.2269,-33.4324 -8.774,-52.99 -5.9245,-32.6668 -11.3759,-39.5939 -43.1096,-54.7807 -17.6554,-8.4493 -50.1269,-23.6724 -60.7677,-28.4888 -4.5472,-2.0583 -8.5673,-4.234 -8.9335,-4.8351 -0.3663,-0.6011 -1.0713,-5.4523 -1.5667,-10.7804 l -0.9008,-9.6875 27.5442,0 27.5443,0 12.9151,5.7477 c 7.1034,3.1613 16.5147,7.3898 20.9142,9.3967 4.3997,2.0069 8.255,3.3932 8.5675,3.0806 0.7063,-0.7062 -8.582,-56.0553 -9.5871,-57.1303 -0.4012,-0.4292 -19.292,-0.046 -41.9795,0.8517 -22.6875,0.8977 -53.2234,2.0384 -67.8575,2.5351 -14.6342,0.4967 -26.8024,1.2384 -27.0406,1.6483 -0.2381,0.4098 0.3107,5.5265 1.2196,11.3702 0.9088,5.8437 2.8538,19.5943 4.3222,30.5567 1.4683,10.9625 3.5375,21.65 4.5981,23.75 6.3637,12.6005 15.3107,18.9262 50.3832,35.6219 14.7813,7.0365 33.4438,15.9184 41.4723,19.7376 10.6011,5.0432 14.7697,7.6647 15.2275,9.5764 1.1555,4.8256 3.6111,23.3651 3.1397,23.7054 -0.2555,0.1844 -12.8395,-0.419 -27.9645,-1.341 l -27.5,-1.6762 -11.25,-5.1837 c -6.1875,-2.851 -15.6716,-7.3353 -21.0757,-9.9653 -5.4043,-2.63 -10.4038,-4.7818 -11.1102,-4.7818 -0.8352,0 -0.9906,2.9506 -0.4445,8.4375 1.4475,14.5426 5.8559,43.3994 6.763,44.2698 0.477,0.4578 13.8049,1.7301 29.6174,2.8272 25.2336,1.751 61.3764,4.7491 97.5,8.0879 15.7014,1.4511 18.1238,1.51 18.1336,0.4401 z m -995.28458,-7.2189 c 14.24554,-1.0485 26.64155,-2.1702 27.54672,-2.4927 0.90515,-0.3225 4.76273,-7.199 8.57242,-15.2812 8.15514,-17.3008 36.02883,-76.3199 43.24679,-91.5697 20.40376,-43.1081 35.63651,-76.9979 34.90426,-77.655 -0.47806,-0.4291 -14.57887,-1.1529 -31.33514,-1.6086 l -30.46592,-0.8286 0.87387,17.8586 0.87387,17.8586 -5.54629,11.875 c -3.05046,6.5313 -8.38474,17.7813 -11.85396,25 -19.4005,40.3686 -25.7389,53.7192 -28.04072,59.0625 -1.40677,3.2656 -2.97145,5.9375 -3.47703,5.9375 -0.50558,0 -1.62965,-4.3594 -2.49794,-9.6875 -0.86828,-5.3281 -2.86738,-17 -4.44245,-25.9375 -1.57506,-8.9375 -4.685,-27.5807 -6.91095,-41.4295 l -4.04719,-25.1795 4.72043,-8.5705 c 12.42373,-22.5568 14.59807,-26.9199 13.81127,-27.7144 -1.21232,-1.2242 -66.04407,-3.5832 -67.4513,-2.4544 -1.37322,1.1016 1.51298,24.6097 11.09248,90.3483 4.45366,30.5629 14.57191,93.2821 16.38467,101.5625 0.75099,3.4304 0.013,3.4108 34.04211,0.9061 z m 827.15128,-9.0311 c -1.3542,-8.2806 -4.5506,-31.5369 -7.4305,-54.0625 -1.7139,-13.4062 -3.7648,-28.7344 -4.5575,-34.0625 l -1.4412,-9.6875 -28.4236,0 c -15.633,0 -31.0333,-0.3578 -34.223,-0.7949 -6.618,-0.9071 -7.8123,1.0932 -3.1577,5.2887 1.453,1.3097 7.7598,7.9278 14.0151,14.7071 l 11.3733,12.3259 1.5629,12.6741 c 0.8597,6.9707 1.5841,14.221 1.6099,16.1116 l 0.047,3.4375 -11.5625,0 c -6.3594,0 -18.6544,-0.3668 -27.3222,-0.8089 l -15.7598,-0.8037 -1.3707,-11.3786 c -2.3328,-19.3648 -9.3184,-94.5889 -8.8259,-95.0411 0.2564,-0.2354 12.8323,-0.7079 27.9466,-1.0499 31.15,-0.7051 25.3553,-1.9883 54.8359,12.1437 8.149,3.9064 15.0794,6.8395 15.4008,6.5181 0.3214,-0.3214 -1.0151,-12.5915 -2.9699,-27.2669 l -3.5543,-26.6877 -42.4715,0.4264 c -53.4142,0.5363 -67.0365,1.4859 -74.4241,5.1881 -10.3101,5.1667 -17.2307,13.7285 -19.1292,23.6653 -0.4497,2.3538 0.2941,16.4163 1.6529,31.25 1.3588,14.8336 3.3563,38.5015 4.4388,52.5952 1.0826,14.0938 2.5554,28.262 3.2728,31.4851 3.1432,14.1198 15.1487,24.7789 33.2488,29.5199 7.8401,2.0536 18.2952,2.9448 54.0935,4.6104 24.4063,1.1356 44.9375,2.2611 45.625,2.501 0.6875,0.24 5.0328,0.4806 9.6563,0.535 l 8.4062,0.099 -0.5622,-3.4375 z m -641.11671,-3.153 c 0.53018,-0.531 -0.31548,-3.906 -1.87924,-7.5 -1.56376,-3.594 -4.5307,-10.6232 -6.5932,-15.6205 l -3.75,-9.0861 4.55305,-45.2889 c 6.89516,-68.5861 5.3554,-61.105 16.322,-79.3017 5.1949,-8.6199 9.17291,-15.9448 8.84004,-16.2777 -0.33287,-0.3329 -17.23689,-0.9098 -37.5645,-1.2819 l -36.95928,-0.6767 5.76636,16.7495 c 3.1715,9.2122 5.75327,17.8745 5.73725,19.2495 -0.0309,2.6464 -6.1382,56.7921 -10.08106,89.375 l -2.34457,19.375 -10.04546,16.8554 c -5.52501,9.2705 -9.86632,17.1455 -9.64738,17.5 0.61786,1.0005 76.55775,-2.9809 77.64599,-4.0709 z m 53.30391,-1.6221 c 15.64062,-0.4769 28.4375,-1.3225 28.4375,-1.8793 0,-0.5567 -3.1789,-7.6544 -7.06423,-15.7726 l -7.06422,-14.7605 1.44682,-21.0691 c 0.79574,-11.588 1.75784,-21.5724 2.13799,-22.1875 0.38015,-0.6151 6.50513,-1.1184 13.61105,-1.1184 l 12.91986,0 12.16905,20.3125 c 6.69298,11.1719 16.97398,28.1191 22.84668,37.6606 l 10.67761,17.3482 8.22219,-0.7768 c 4.52221,-0.4271 15.67532,-0.7807 24.7847,-0.7856 9.93051,0 16.5625,-0.4974 16.5625,-1.2289 0,-0.671 -8.8914,-12.6241 -19.75866,-26.5625 -18.96387,-24.3231 -39.13624,-50.9082 -45.02943,-59.3441 l -2.79547,-4.0016 17.85427,-20.265 c 27.70283,-31.4433 45.97929,-52.7716 45.97929,-53.657 0,-1.0079 -45.3755,-2.7161 -47.68605,-1.7952 -0.92892,0.3703 -13.2202,14.7101 -27.31395,31.8663 l -25.625,31.1931 -7.8125,0.018 c -4.29688,0.012 -7.8067,-0.4039 -7.7996,-0.9195 0.008,-0.5156 0.60046,-7.6356 1.3186,-15.8223 l 1.30571,-14.8848 8.6814,-14.7217 c 4.77476,-8.0965 8.68139,-15.233 8.68139,-15.8585 0,-1.2139 -26.12634,-2.7747 -46.44764,-2.7747 -9.00384,0 -12.30474,0.4189 -12.3112,1.5625 -0.005,0.8594 -1.42162,17.3125 -3.14833,36.5625 -1.72673,19.25 -4.24483,47.6563 -5.59579,63.125 -1.35095,15.4688 -3.36458,37.2781 -4.4747,48.4654 -1.11013,11.1872 -1.68457,21.2104 -1.27654,22.2737 0.43347,1.1295 1.65383,1.6698 2.93554,1.2993 1.20651,-0.3488 14.99053,-1.0242 30.63116,-1.501 z m 414.7002,-3.3499 c 0.01,-1.5469 -1.1066,-16.875 -2.4747,-34.0625 -1.3682,-17.1875 -3.9061,-49.8125 -5.6399,-72.5 -1.7338,-22.6875 -3.5053,-45.6094 -3.9366,-50.9375 l -0.7843,-9.6875 -29.8386,0 c -16.41124,0 -29.8386,0.3257 -29.8386,0.7238 0,0.3981 4.97379,7.8512 11.05285,16.5625 l 11.05285,15.8387 2.1366,37.9564 c 1.1751,20.876 1.9449,38.1481 1.7106,38.3823 -0.2343,0.2344 -2.9081,-5.0335 -5.9417,-11.7063 -3.0336,-6.6728 -10.06956,-21.6949 -15.63543,-33.3824 -5.56586,-11.6875 -14.31173,-30.6624 -19.43526,-42.1664 -6.2336,-13.9964 -10.09282,-21.175 -11.66505,-21.6981 -1.29225,-0.43 -16.09011,-0.3696 -32.88414,0.1341 l -30.5346,0.916 0.8504,39.5322 c 0.46773,21.7427 1.20308,58.9384 1.63414,82.6572 l 0.78374,43.125 32.27624,0.3337 32.27625,0.3339 -5.67384,-7.8339 c -3.12061,-4.3084 -8.2372,-11.518 -11.37019,-16.021 l -5.69633,-8.1872 -1.20592,-35.5628 c -0.66326,-19.5595 -1.47668,-39.7372 -1.80763,-44.8393 -0.36211,-5.5826 -0.14843,-8.818 0.53663,-8.125 0.62609,0.6334 9.30108,18.9802 19.27776,40.7708 9.97668,21.7905 22.38575,48.4342 27.57573,59.208 5.18996,10.7739 9.4363,20.0676 9.4363,20.6524 0,1.0598 12.111,1.6208 45.9375,2.1282 17.7147,0.2657 17.8126,0.2517 17.8252,-2.5453 z M 873.75,1363.5768 c 0,-0.7828 -3.65625,-8.0173 -8.125,-16.0768 l -8.125,-14.6536 0,-51.5835 0,-51.5835 7.5,-14.2558 c 4.125,-7.8408 7.5,-14.7999 7.5,-15.4647 0,-0.7512 -13.96191,-1.2089 -36.875,-1.2089 -20.28125,0 -36.875,0.2496 -36.875,0.5546 0,0.305 3.3206,7.5802 7.37911,16.1671 l 7.37913,15.6126 -0.69482,50.6895 -0.69481,50.6893 -8.48852,15.2524 c -4.66868,8.3888 -8.20593,15.7095 -7.86053,16.2684 1.03616,1.6766 77.98044,1.2749 77.98044,-0.4071 z m -79.6875,-198.1671 c -0.88422,-0.3498 -1.5625,-2.7745 -1.5625,-5.5857 l 0,-4.9677 -5.3125,0.3843 c -5.15671,0.3731 -5.32388,0.5219 -5.70046,5.0719 -0.36689,4.433 -0.62144,4.6875 -4.6875,4.6875 -4.22584,0 -4.29944,-0.091 -4.29385,-5.3125 0.004,-2.9219 0.37031,-11.6406 0.81598,-19.375 l 0.8103,-14.0625 4.18402,0 4.18401,0 0,10.625 0,10.625 4.8301,0 c 4.79853,0 4.83529,-0.038 5.625,-5.7995 0.43719,-3.1897 0.7949,-7.9709 0.7949,-10.625 0,-4.7189 0.10075,-4.8255 4.56037,-4.8255 l 4.56039,0 -0.88636,19.0343 c -0.48749,10.4689 -0.99279,19.1178 -1.12287,19.2197 -1.02407,0.8028 -5.5387,1.4041 -6.79903,0.9057 z m 26.21534,-0.1852 c -1.20513,-0.7846 -1.51195,-5.6189 -1.25,-19.6947 l 0.34716,-18.6548 4.09465,-0.3941 4.09466,-0.3941 -0.34466,19.7691 c -0.32596,18.6973 -0.4802,19.7864 -2.84465,20.0888 -1.375,0.1758 -3.21872,-0.1483 -4.09716,-0.7202 z m 30.16841,-0.1373 c -5.21343,-2.2531 -6.69625,-6.1679 -6.69625,-17.6788 0,-17.5902 2.52962,-21.1584 15,-21.1584 7.68669,0 12.34291,2.0639 13.30509,5.8975 1.0378,4.1349 -0.0496,4.7246 -5.62955,3.0528 -2.66233,-0.7977 -6.60345,-1.4503 -8.75807,-1.4503 -3.53802,0 -3.94031,0.3935 -4.1532,4.0625 -1.09432,18.8593 -0.4439,21.2916 5.53502,20.698 4.58487,-0.4552 5.93721,-2.8956 2.15293,-3.8852 -1.91847,-0.5017 -2.53643,-1.4945 -2.23861,-3.5966 0.32373,-2.2849 1.31395,-2.9899 4.64685,-3.3083 8.00125,-0.7643 10.13954,0.4976 10.13954,5.9837 0,7.7793 -3.91242,11.3554 -13.13916,12.0098 -4.11722,0.292 -8.69128,0.01 -10.16459,-0.6267 z m 41.11625,0.3349 C 890.40734,1164.956 890,1159.7679 890,1145.5208 l 0,-19.2708 4.32445,0 4.32445,0 0.36305,10.3125 0.36305,10.3125 5.3125,0.3844 5.3125,0.3844 0,-10.6969 0,-10.6969 4.375,0 4.375,0 0,19.375 0,19.375 -4.375,0 c -4.27084,0 -4.375,-0.119 -4.375,-5 l 0,-5 -5.625,0 -5.625,0 0,4.8663 c 0,5.5889 -2.43705,7.4727 -7.1875,5.5558 z M 716.25,1159.4592 c 0,-5.922 -1.23907,-7.0079 -7.48326,-6.5581 -2.05155,0.1478 -3.23674,1.0738 -3.48618,2.7239 -1.132,7.4887 -1.54161,8.125 -5.23061,8.125 -2.00883,0 -3.8845,-0.4219 -4.16816,-0.9375 -1.01154,-1.8387 1.32045,-31.1705 2.68016,-33.7111 3.79521,-7.0914 22.95684,-6.8677 26.22549,0.3063 0.9476,2.0797 1.20041,7.7058 0.74409,16.5586 -0.95904,18.6057 -1.08396,19.0337 -5.55534,19.0337 -3.5745,0 -3.72619,-0.2256 -3.72619,-5.5408 z m 0.46875,-17.1154 c 1.47871,-7.3936 0.97829,-9.7467 -2.24489,-10.5557 -6.31866,-1.5859 -7.56994,-0.4424 -7.97374,7.2866 l -0.37488,7.1753 4.90613,0 c 4.49487,0 4.97162,-0.3274 5.68738,-3.9062 z m 256.36285,21.5343 c -3.62058,-1.5637 -5.98332,-4.7782 -5.13567,-6.9872 0.81023,-2.1114 6.47787,-2.5845 7.67907,-0.6409 0.4249,0.6875 2.98935,1.25 5.69878,1.25 4.09288,0 4.92622,-0.4229 4.92622,-2.5 0,-2.1994 -0.83334,-2.5 -6.93181,-2.5 -5.69305,0 -7.48014,-0.5483 -10,-3.0682 -2.62884,-2.6288 -3.06819,-4.2328 -3.06819,-11.2013 0,-11.0563 2.25255,-13.2305 13.70757,-13.2305 9.05267,0 13.79243,2.1901 13.79243,6.373 0,2.3317 -0.56951,2.4296 -9.45081,1.6248 l -9.45081,-0.8564 0.38831,6.1168 0.38831,6.1168 7.44586,0.7996 c 5.94835,0.6387 8.02241,1.4698 10.3125,4.1322 3.63974,4.2314 3.62181,7.1759 -0.0697,11.4676 -2.4769,2.8796 -4.09074,3.4755 -10.3125,3.808 -4.05683,0.2168 -8.5206,-0.1001 -9.91947,-0.7043 z m -322.63556,-2.0187 c -0.75715,-1.9731 -0.005,-16.9948 1.61148,-32.1719 l 0.76539,-7.1875 10.29498,0 c 8.5224,0 10.86205,0.4461 13.58853,2.5907 2.97922,2.3435 3.29358,3.3993 3.29358,11.0614 0,4.6589 -0.36379,12.7743 -0.80843,18.0343 l -0.80841,9.5636 -4.29218,0 -4.29218,0 0.89429,-16.875 0.89427,-16.875 -5.16869,0 c -2.84277,0 -5.21048,0.4219 -5.2616,0.9375 -0.0511,0.5156 -0.75423,7.9688 -1.5625,16.5625 l -1.46957,15.625 -3.44461,0.3962 c -2.30628,0.2653 -3.70559,-0.2839 -4.23435,-1.6618 z m 365.91566,-1.5554 c -3.1752,-3.1752 -3.5135,-4.4753 -4.3043,-16.5428 -0.7644,-11.6633 -0.6021,-13.441 1.4825,-16.2415 3.3028,-4.4369 14.3381,-6.144 20.5776,-3.1831 4.0344,1.9144 6.5866,5.7927 4.9132,7.466 -1.1878,1.1878 -7.5902,0.7669 -8.4057,-0.5526 -0.8564,-1.3857 -5.5983,-1.6615 -8.6214,-0.5014 -1.6184,0.6211 -1.8352,2.3781 -1.2722,10.3125 1.0871,15.3222 1.1191,15.3957 6.4982,14.9494 4.2315,-0.3511 4.6803,-0.7471 5.0368,-4.444 0.302,-3.1318 1.1078,-4.2383 3.529,-4.846 4.0929,-1.0272 5.474,0.5203 5.6943,6.3808 0.2718,7.2304 -4.2721,10.6487 -14.1556,10.6487 -6.5485,0 -7.9742,-0.4477 -10.9724,-3.446 z m -391.9575,0.9933 c -0.65607,-1.0616 0.7377,-19.739 2.59205,-34.7348 0.60198,-4.868 0.95809,-5.3125 4.25658,-5.3125 1.9798,0 3.86642,0.4317 4.1925,0.9593 0.83202,1.3462 -2.32265,37.0219 -3.43253,38.8177 -1.09372,1.7697 -6.56185,1.9639 -7.6086,0.2703 z m 435.0015,-0.3598 c -1.3793,-4.1782 -3.2258,-37.6174 -2.1373,-38.7059 0.6563,-0.6563 2.5238,-1.005 4.1499,-0.7749 2.7258,0.3856 3.0544,1.2481 4.2082,11.0433 l 1.2514,10.625 4.9986,0 4.9985,0 -0.4296,-10.9375 c -0.3582,-9.1167 -0.115,-10.9375 1.4602,-10.9375 1.0395,0 2.7561,-0.3324 3.8148,-0.7386 2.5261,-0.9694 3.0429,1.3071 4.9981,22.0158 1.6868,17.8672 1.306,19.9728 -3.6128,19.9728 -3.1434,0 -4.3557,-2.1158 -4.3557,-7.6022 0,-3.49 -0.2434,-3.6478 -5.625,-3.6478 l -5.625,0 0,5.625 c 0,5.4296 -0.1316,5.625 -3.7892,5.625 -2.0841,0 -4.0214,-0.7031 -4.3051,-1.5625 z m -479.79417,-0.5638 c -1.69902,-0.4401 -2.10279,-1.417 -1.61914,-3.9175 0.35439,-1.8321 1.26509,-9.7999 2.02377,-17.7062 2.16159,-22.5258 0.76941,-20.4923 13.41823,-19.5997 9.29924,0.6563 11.23107,1.197 13.93416,3.9001 3.11661,3.1166 3.12749,3.2049 1.58438,12.8564 -0.85458,5.345 -1.52624,12.5307 -1.49261,15.9682 0.0763,7.7949 -1.10654,9.6894 -5.72096,9.1626 -3.43254,-0.3918 -3.59324,-0.6799 -3.19437,-5.7251 l 0.41998,-5.3125 -4.48248,0 c -2.46538,0 -4.89483,-0.1406 -5.39879,-0.3125 -0.50396,-0.1719 -1.26869,1.8555 -1.69939,4.5052 -0.6808,4.1884 -2.88292,7.2962 -4.88431,6.8932 -0.34375,-0.069 -1.64356,-0.3897 -2.88847,-0.7122 z m 20.62186,-24.6693 c 0.48182,-3.3938 0.59322,-6.6282 0.24756,-7.1875 -0.34568,-0.5593 -2.79251,-1.0169 -5.43742,-1.0169 l -4.80893,0 -0.85168,6.1924 c -1.06979,7.7784 -0.27347,9.0384 5.41187,8.5636 4.44469,-0.3712 4.58517,-0.5404 5.4386,-6.5516 z m 510.24701,23.825 c -5.0532,-2.2933 -6.4564,-6.5116 -7.4914,-22.5203 l -0.8282,-12.8108 3.4632,-2.7242 c 2.7226,-2.1416 5.1407,-2.7241 11.3085,-2.7241 7.1403,0 8.1221,0.329 10.9262,3.6615 2.4568,2.9198 3.2532,5.642 3.931,13.4375 0.4675,5.3768 1.1463,11.5186 1.5086,13.6485 1.0471,6.1561 -3.452,10.3161 -12.0483,11.1402 -4.5432,0.4356 -8.1959,0.06 -10.7696,-1.1083 z m 11.684,-7.0294 c 1.6917,0 1.8523,-1.5167 1.1734,-11.081 -0.4326,-6.0945 -1.1395,-12.0008 -1.5709,-13.125 -0.888,-2.3141 -8.5976,-2.8882 -9.9258,-0.7392 -0.4435,0.7177 -0.4078,6.0902 0.079,11.9389 0.9075,10.8949 2.8825,15.0791 6.4679,13.7032 0.9988,-0.3833 2.698,-0.6969 3.776,-0.6969 z m -568.77368,6.7241 c -0.4899,-0.4899 -0.89072,-3.3606 -0.89072,-6.3793 l 0,-5.4885 -5.3125,0.3843 c -5.17914,0.3748 -5.32819,0.5099 -5.9375,5.3844 -0.57174,4.5739 -0.97119,5.0334 -4.6875,5.3917 -4.90027,0.4725 -4.94205,0.086 -2.20152,-20.3917 1.01212,-7.5625 1.85119,-14.4614 1.86462,-15.3309 0.0424,-2.7428 7.83095,-6.5424 13.1494,-6.4148 7.34294,0.1761 10.74739,1.4296 13.30931,4.9005 2.2021,2.9833 2.20616,3.7278 0.11263,20.5952 -2.12792,17.1448 -2.23639,17.5075 -5.34378,17.8699 -1.74449,0.2034 -3.57261,-0.031 -4.0625,-0.5208 z m 0.85054,-21.2013 c 0.41731,-1.0875 0.75874,-4.4625 0.75874,-7.5 l 0,-5.5228 -4.85421,0 c -5.39312,0 -6.34679,1.5418 -6.37873,10.3125 -0.0168,4.6169 0.0562,4.6875 4.8492,4.6875 3.28429,0 5.11293,-0.6428 5.625,-1.9772 z m 599.27114,17.8518 c -2.6642,-2.4692 -3.3083,-4.6835 -4.5575,-15.6699 -1.941,-17.0691 -1.919,-17.3543 1.6133,-20.8865 2.6218,-2.6218 4.2383,-3.0682 11.1115,-3.0682 13.044,0 14.5693,2.4387 16.5137,26.4028 0.8603,10.6026 0.8434,10.6902 -2.5823,13.3848 -5.0613,3.9813 -17.7278,3.8878 -22.0987,-0.163 z m 15.0698,-5.7444 c 1.443,-0.9142 1.443,-2.9912 0,-13.4184 l -1.7072,-12.3368 -4.2214,-0.4035 c -2.3218,-0.222 -4.7676,0.1426 -5.4352,0.8101 -1.1259,1.1259 0.9111,23.112 2.3655,25.5309 0.7672,1.2761 6.8922,1.152 8.9983,-0.1824 z m -675.68686,6.3906 c -1.13373,-0.721 -1.06993,-4.0042 0.2729,-14.0434 2.48323,-18.5651 2.39943,-21.2274 -0.66824,-21.2274 -1.375,0 -2.5,0.3196 -2.5,0.7101 0,1.3882 -3.87606,28.7137 -4.47578,31.5534 -0.50743,2.4028 -1.28588,2.8232 -4.62961,2.5 -3.76824,-0.3642 -3.99696,-0.6621 -3.6574,-4.7635 0.93048,-11.2386 4.35938,-31.8389 5.64119,-33.8914 2.04748,-3.2785 7.74012,-5.3182 11.7993,-4.2276 1.89601,0.5094 6.58629,0.8417 10.42284,0.7384 5.38686,-0.1449 7.73552,0.4102 10.3125,2.4372 3.98626,3.1356 4.13452,5.7039 1.47598,25.5684 -1.01212,7.5625 -1.8512,14.1719 -1.86462,14.6875 -0.0134,0.5156 -1.99315,0.9375 -4.3994,0.9375 -2.40625,0 -4.37671,-0.4219 -4.3788,-0.9375 -0.002,-0.5156 0.91075,-8.1528 2.02851,-16.9715 1.57081,-12.393 1.69449,-16.3669 0.54465,-17.5 -2.67312,-2.6342 -4.59974,2.2229 -6.2239,15.6908 -2.28535,18.9506 -2.503,19.7211 -5.56421,19.6991 -1.46094,-0.01 -3.3221,-0.4426 -4.13591,-0.9601 z m 704.15106,-1.0962 c -1.0923,-3.6229 -4.5464,-31.6847 -4.5464,-36.9352 0,-4.4259 0.2465,-4.7394 3.7262,-4.7394 4.2765,0 4.2387,-0.1023 6.2501,16.875 2.3435,19.7794 1.2046,18.125 12.4773,18.125 9.4373,0 9.7746,0.1028 10.358,3.1548 0.3317,1.7352 0.2567,3.3556 -0.1667,3.601 -0.4235,0.2454 -6.7628,0.8449 -14.0876,1.3323 -12.2773,0.8169 -13.3718,0.7065 -14.0109,-1.4135 z m 82.2414,-67.3762 c 0.074,-6.3926 -0.5241,-8.6087 -3.7112,-13.771 -5.7315,-9.2837 -15.4295,-13.7902 -34.9516,-16.2416 -18.1753,-2.2823 -31.4385,-5.4465 -40.625,-9.6919 -6.14,-2.8375 -6.9232,-2.9522 -7.3261,-1.073 -0.2481,1.1573 -2.6387,9.2495 -5.3125,17.9829 -2.6738,8.7333 -4.8614,16.2694 -4.8614,16.747 0,1.1014 15.8646,-0.01 56.7735,-3.9591 24.7089,-2.3883 32.6165,-2.7786 33.3174,-1.6446 0.5055,0.8179 1.2841,4.635 1.7301,8.4825 0.4461,3.8475 1.1392,8.898 1.5403,11.2234 0.6412,3.719 0.8862,3.9473 2.0341,1.8961 0.7177,-1.2826 1.3444,-5.7604 1.3924,-9.9507 z m -485.31088,7.558 c 1.5578,-1.5578 -8.73713,-51.2931 -15.30694,-73.9486 -8.72132,-30.07471 -23.35372,-65.4078 -27.08718,-65.4078 -3.05694,0 -29.12891,17.93884 -40.36336,27.77201 -24.43719,21.38919 -39.77217,43.98879 -49.42712,72.84219 -4.28096,12.7935 -7.94996,32.3948 -6.36111,33.9837 2.01084,2.0108 136.66842,6.6358 138.54572,4.7585 z m 75.13927,-1.9823 c 0.95546,-1.5165 0.3393,-3.3322 -2.54519,-7.5 -4.80141,-6.9376 -17.78376,-19.7484 -25.946,-25.6032 -7.3509,-5.2728 -20.59639,-12.2162 -21.52761,-11.2849 -0.58085,0.5808 3.6875,34.9035 5.42276,43.6056 l 0.69125,3.4665 21.32207,-0.3415 c 17.94288,-0.2875 21.52186,-0.6587 22.58272,-2.3425 z M 910,1093.125 c 0,-3.7065 -0.38121,-3.7795 -5.11964,-0.9805 -4.81086,2.8419 -4.58167,4.1055 0.74464,4.1055 3.83334,0 4.375,-0.3869 4.375,-3.125 z m 43.04948,-6.3114 c 23.56536,-31.3094 60.97872,-61.7459 96.01302,-78.1085 4.6406,-2.1674 8.4375,-4.3399 8.4375,-4.8277 0,-0.4878 -2.0253,-2.8254 -4.5008,-5.19469 -16.8887,-16.16433 -32.3476,-49.86743 -40.5943,-88.50307 -4.4482,-20.83994 -7.1493,-27.25414 -11.9886,-28.4687 -6.24626,-1.56773 -9.5698,2.94881 -17.86657,24.27989 -15.97093,41.06135 -32.68138,107.60777 -42.51314,169.30097 -3.40956,21.3947 -3.44469,20.9582 1.68696,20.9582 3.79786,0 4.93939,-0.9511 11.32593,-9.4364 z m 75.70052,5.6026 c 20.2813,-0.7983 37.3032,-1.8436 37.8266,-2.323 1.907,-1.7463 12.0533,-63.1299 10.6646,-64.5187 -1.2997,-1.2997 -29.7421,12.9893 -42.5904,21.3968 -7.0267,4.598 -16.9946,11.8851 -22.1508,16.1936 -11.0332,9.2192 -30,28.4362 -30,30.3956 0,0.8393 1.8075,1.1618 4.6875,0.8365 2.57812,-0.2912 21.2812,-1.1826 41.5625,-1.9808 z m 103.6677,-5.5345 c 12.6421,-1.0276 23.0806,-2.0119 23.1967,-2.1875 0.1162,-0.1756 1.6745,-4.5379 3.463,-9.6942 5.3417,-15.3999 10.5666,-36.676 15.2612,-62.1445 7.586,-41.15434 17.6138,-62.62134 39.3031,-84.13866 20.796,-20.63115 49.1024,-35.03644 83.2333,-42.35793 31.0099,-6.65196 32.8864,-7.3895 36.5304,-14.35704 3.297,-6.30432 2.7025,-17.83706 -1.3461,-26.11215 -8.4873,-17.34731 -29.162,-25.84731 -58.9819,-24.24922 -29.8161,1.59787 -56.353,10.26673 -79.495,25.96871 -18.1598,12.32155 -40.1809,37.1278 -52.7083,59.37484 -12.425,22.06525 -24.136,53.24499 -30.3882,80.90699 -4.473,19.79006 -16.7359,91.94186 -16.7359,98.46996 0,2.0981 0.9548,2.389 7.841,2.389 4.3126,0 18.1846,-0.8407 30.8267,-1.8683 z m 172.8856,-15.6784 c 3.1526,-2.0881 9.4037,-7.6889 13.8915,-12.4462 18.62,-19.7381 25.3823,-49.5326 17.003,-74.91395 -6.5007,-19.6908 -21.7529,-34.11256 -32.4773,-30.70879 -4.3822,1.39089 -12.4905,9.3678 -17.7256,17.43873 -7.5111,11.57971 -10.2923,22.26628 -10.3345,39.71041 l -0.035,14.6585 -2.7685,-7.3987 c -4.8336,-12.9178 -5.8843,-34.78433 -2.2253,-46.31291 0.3887,-1.22454 -0.7001,-2.9817 -2.811,-4.53653 -5.444,-4.01007 -18.7842,-9.57107 -20.9585,-8.73674 -1.0874,0.41728 -3.7729,4.56326 -5.9679,9.21328 -3.7623,7.97039 -3.9916,9.27787 -4.0048,22.8296 -0.01,7.90625 0.4186,17.1875 0.9474,20.625 0.911,5.9222 0.863,6.0861 -0.9159,3.125 -1.0326,-1.7188 -3.0617,-6.7813 -4.5092,-11.25 -3.1735,-9.79742 -3.5567,-29.22714 -0.7942,-40.27661 0.9834,-3.93339 1.4906,-7.44901 1.1271,-7.8125 -0.3639,-0.36349 -2.5327,-0.66089 -4.8201,-0.66089 -3.4513,0 -4.8183,0.90375 -8.0352,5.3125 -13.8044,18.91839 -21.6846,48.22 -15.5046,57.6518 6.2766,9.5794 23.3411,16.1891 58.6204,22.7059 28.1555,5.2009 34.4949,10.3762 34.4949,28.1612 0,4.0802 0.466,7.4186 1.0358,7.4186 0.5696,0 3.615,-1.7085 6.7675,-3.7967 z m -411.1574,-0.4405 c 2.1885,-1.6429 7.51518,-4.7551 11.83705,-6.9159 8.91724,-4.4584 9.49555,-5.435 11.52996,-19.4719 1.5741,-10.8607 10.89294,-61.05384 12.03279,-64.8109 0.58676,-1.93404 0.2335,-2.16249 -2.16626,-1.40084 -8.42949,2.67541 -32.10202,20.20458 -42.18614,31.23824 -9.00794,9.8561 -16.6253,19.9596 -21.27866,28.2235 l -3.94166,7 7.57839,6.6702 c 4.16813,3.6686 10.45992,10.2218 13.98178,14.5625 3.52185,4.3408 6.90519,7.8923 7.51851,7.8923 0.61333,0 2.90574,-1.3442 5.09424,-2.9872 z m -50.76129,-41.7003 c 1.79235,-4.8636 13.54138,-22.7322 20.47881,-31.14532 4.06262,-4.92682 7.38658,-9.50294 7.38658,-10.16919 0,-1.81316 -14.94714,-15.44198 -24.09464,-21.96949 -10.86989,-7.75659 -26.16364,-15.13982 -39.16565,-18.90765 -13.14006,-3.80785 -17.3799,-4.05314 -16.13265,-0.93335 3.13905,7.85179 9.5673,29.41456 14.9661,50.20195 l 6.30184,24.26445 6.25,2.1612 c 3.4375,1.1887 9.34375,3.6236 13.125,5.4109 8.12606,3.8409 9.80768,4.0088 10.88461,1.0865 z M 715.42876,943.24673 c 23.20245,-15.29019 40.33349,-23.25864 98.12763,-45.6438 58.66387,-22.72204 80.11156,-32.60779 106.03691,-48.87495 18.2985,-11.48162 30.01271,-20.80765 45.48574,-36.21257 13.40529,-13.34628 22.83399,-24.43153 18.6043,-21.87293 -0.99459,0.60163 -6.87084,4.38493 -13.05834,8.40733 -15.76312,10.24735 -34.7344,19.27924 -47.02279,22.38672 -8.55856,2.16427 -12.71131,2.51573 -22.96265,1.94336 -15.0591,-0.8408 -23.24935,-3.17869 -31.84149,-9.08904 -7.40232,-5.0919 -5.98887,-5.26569 -28.17307,3.46409 C 790.64259,837.4237 746.26726,873.61376 709.89026,924.375 699.5026,938.87018 680,970.01882 680,972.11436 c 0,0.36178 4.83356,-3.91758 10.74126,-9.50971 5.90769,-5.59212 17.01707,-14.30319 24.6875,-19.35792 z m 373.84644,27.69077 c 0.2457,-0.85938 1.6858,-6.0625 3.2,-11.5625 4.6324,-16.82476 13.6826,-40.53768 20.9914,-55 l 6.9487,-13.75 -0.2731,-12.5 c -0.1502,-6.875 -1.0815,-16.02535 -2.0697,-20.3341 -2.1484,-9.36848 -7.5315,-20.5749 -8.5459,-17.7909 -7.6054,20.87221 -10.2437,25.5266 -19.7219,34.79335 -5.9025,5.77074 -17.8476,12.2441 -24.8047,13.4423 l -4.375,0.75349 4.375,-2.75309 c 15.477,-9.73931 25.4462,-21.17697 30.2588,-34.71575 1.4619,-4.11284 2.8216,-11.89747 3.2037,-18.34269 l 0.6639,-11.1974 -6.6967,-5.90415 c -3.6831,-3.24727 -7.0863,-5.66331 -7.5626,-5.36896 -0.4762,0.29436 -1.5624,3.49005 -2.4138,7.10155 -3.6814,15.61769 -14.788,30.29409 -28.4752,37.6278 -3.6558,1.95879 -6.9127,3.29565 -7.2375,2.97079 -0.3249,-0.32486 2.1087,-2.8507 5.4079,-5.61299 12.0517,-10.09025 21.0188,-27.86386 21.8362,-43.28122 0.386,-7.28095 0.3353,-7.40447 -4.6097,-11.22303 -2.75,-2.12357 -8.4301,-7.27282 -12.6224,-11.44277 -5.9544,-5.92254 -8.1657,-9.21103 -10.105,-15.02698 l -2.4825,-7.44525 -2.684,7.17148 c -15.339,40.98463 -18.083,88.46887 -7.1182,123.17842 7.8471,24.84071 21.7767,47.69754 40.3518,66.2126 11.5327,11.4954 13.7061,12.98809 14.5605,10 z m -189.03951,-6.7286 c 5.49524,-3.8726 16.23982,-10.22848 23.87685,-14.12418 12.70556,-6.48118 13.97472,-7.44961 14.93533,-11.3964 4.99744,-20.53233 16.81085,-55.92008 24.39057,-73.06332 6.53037,-14.76992 7.48983,-17.59625 5.57085,-16.41025 -0.76149,0.47063 -7.33048,5.0183 -14.59774,10.10594 -28.69963,20.09193 -68.2858,40.47928 -114.51856,58.97839 -9.56075,3.82555 -17.14482,7.34121 -16.85348,7.81261 0.29134,0.47138 4.92975,2.77471 10.3076,5.1185 17.97793,7.83519 33.76335,18.62224 47.27789,32.30758 4.125,4.17714 7.97685,7.62122 8.55967,7.65352 0.58282,0.0322 5.55578,-3.10978 11.05102,-6.98239 z m 380.53791,-17.0214 c 3.8191,-7.43151 11.345,-17.71478 19.291,-26.35873 8.6705,-9.43213 8.6075,-10.10606 -1.0819,-11.57118 -8.728,-1.31976 -15.0573,0.20447 -28.3369,6.82418 -11.3759,5.67072 -30.5908,18.41678 -30.6299,20.31809 -0.01,0.42619 3.4865,1.46393 7.7672,2.30611 9.1388,1.79795 21.5395,6.59792 25.9669,10.05109 4.1681,3.25091 4.5954,3.15545 7.0236,-1.56956 z M 538.125,944.9724 c 47.01556,-5.25359 96.02517,-22.47944 141.67436,-49.79556 11.45638,-6.8554 25.18786,-17.58629 37.89526,-29.6144 25.3093,-23.95636 49.504,-41.14876 78.70164,-55.92426 16.49103,-8.34529 36.39173,-16.81998 48.91624,-20.8309 5.54276,-1.77505 5.54506,-1.79952 1.65024,-17.55728 -2.61779,-10.59115 -3.22208,-11.84251 -5.58933,-11.57451 -4.06835,0.4606 -33.57132,15.55206 -47.27512,24.18234 -17.2862,10.88636 -37.92735,25.89384 -63.04812,45.84012 -36.7117,29.14966 -55.34538,41.56263 -84.91346,56.56571 -62.29951,31.61129 -127.35676,47.16614 -199.13074,47.61115 l -20.13097,0.12488 7.5,2.42522 c 22.97447,7.42909 75.23102,11.7343 103.75,8.54755 z m -27.5,-40.61521 c 76.80221,-12.03148 129.0191,-37.19216 206.25,-99.38149 41.51676,-33.43091 74.12065,-54.06516 105.63854,-66.8562 9.05638,-3.67539 16.72327,-6.93964 17.03753,-7.2539 0.53417,-0.53416 -2.4799,-32.04559 -4.05823,-42.4281 -0.70272,-4.62261 -0.79104,-4.6875 -6.37979,-4.6875 -19.1952,0 -52.02158,8.47585 -74.93489,19.34839 -30.83213,14.63006 -45.79065,26.91317 -103.55316,85.03217 -45.5159,45.79682 -63.05998,61.80738 -83.125,75.85915 -24.57471,17.20995 -54.11719,31.43697 -81.47754,39.23779 -6.4061,1.82648 -12.49121,3.85148 -13.52246,4.49999 -2.88159,1.81215 15.30723,0.20422 38.125,-3.3703 z m -63.12563,-15.03554 c 64.6983,-12.6433 124.87149,-50.42506 181.0792,-113.69665 46.98316,-52.88772 89.51859,-83.76469 136.76431,-99.27874 13.8007,-4.53174 14.73685,-5.01961 9.65712,-5.03282 -3.09375,-0.008 -11.53125,0.78332 -18.75,1.75861 -48.44103,6.5446 -81.80346,28.15955 -174.36501,112.96809 -13.7555,12.60331 -29.50999,26.43526 -35.00999,30.73766 -47.51506,37.16884 -98.6798,58.72324 -150.09306,63.23036 -14.32789,1.25605 -34.74474,0.1807 -45.90963,-2.41805 -6.90591,-1.60742 -5.34127,0.96325 3.12854,5.14014 22.10744,10.9023 58.3605,13.45804 93.49852,6.5914 z m -42.75371,-23.1138 c 54.25802,-6.80337 107.89226,-39.00704 188.37934,-113.10876 47.64039,-43.86089 71.9325,-62.38324 95.0528,-72.4762 l 9.9472,-4.34236 -5.625,0.006 c -23.60444,0.027 -48.01317,13.35813 -92.5,50.51988 -43.87881,36.65384 -69.78385,53.26706 -103.15677,66.15569 -13.38469,5.16917 -35.84818,11.09356 -50.46433,13.30915 -10.13933,1.53698 -10.38201,1.65082 -7.13993,3.34954 3.96013,2.07491 23.50432,6.55457 28.88603,6.62086 7.46559,0.092 7.39865,1.90637 -0.23618,6.40131 -19.3504,11.39239 -48.7992,22.73136 -69.6489,26.81763 -25.07156,4.9137 -59.13501,3.20572 -88.58935,-4.44197 -7.98391,-2.0728 -15.21906,-3.76887 -16.07811,-3.76887 -1.96929,0 8.07164,6.40351 17.43874,11.1214 10.48779,5.28234 29.31251,11.1567 42.1138,13.14186 13.68379,2.12203 37.66343,2.44468 51.62066,0.69459 z M 1173.125,832.51211 c 10.4575,-7.06775 18.2969,-11.24824 31.4485,-16.77042 8.0631,-3.3856 9.8572,-4.64773 10.1155,-7.11612 2.2271,-21.28252 14.8651,-42.02626 30.4052,-49.90672 3.0419,-1.54258 5.8277,-3.26326 6.1907,-3.82374 0.3628,-0.56049 0.2595,-6.49231 -0.2297,-13.18184 -0.7138,-9.76197 -1.5842,-13.51076 -4.4098,-18.99175 -5.9559,-11.55332 -5.5855,-11.47152 -51.9384,-11.47152 -27.6035,0 -39.707,-0.41159 -39.707,-1.35025 0,-2.34026 14.5732,-22.66378 22.6013,-31.51946 4.2355,-4.67209 7.4355,-8.76011 7.1112,-9.0845 -1.9524,-1.95233 -41.4689,9.47879 -65.5402,18.95907 -7.6739,3.02233 -14.5732,5.49514 -15.3318,5.49514 -1.5624,0 4.4272,-9.87076 19.5385,-32.19901 5.7041,-8.42822 10.371,-15.90928 10.371,-16.62458 0,-1.22597 -14.198,-0.4136 -16.5825,0.94881 -0.5267,0.30091 -3.8637,4.86771 -7.4156,10.14844 -8.1795,12.16089 -22.8549,31.85369 -32.7719,43.97634 -5.1246,6.26453 -8.8689,12.46651 -11.2852,18.69286 -3.4906,8.99444 -3.564,9.62355 -2.1155,18.125 3.2956,19.34285 11.9335,30.94539 35.6886,47.93745 27.5607,19.71424 39.1361,34.8019 43.8227,57.11969 1.1549,5.5 2.3402,10.75405 2.6338,11.67566 0.3428,1.07551 3.7782,-1.33291 9.5923,-6.72459 4.9821,-4.62013 12.9958,-11.06142 17.8083,-14.31396 z m 175.0658,-19.55776 c 18.1232,-9.35438 12.4507,-34.68686 -11.9408,-53.32539 -6.4879,-4.95768 -8.529,-7.37173 -10.1302,-11.9813 -8.346,-24.0268 -25.1725,-48.89766 -33.0819,-48.89766 -3.3063,0 -7.3296,4.76694 -12.1325,14.375 -3.3711,6.74355 -12.1554,33.42573 -12.1554,36.92167 0,1.50782 1.4074,2.35885 4.7971,2.90089 6.6967,1.07085 15.2073,7.99388 19.4819,15.84774 3.1048,5.70451 3.2739,6.47724 1.2241,5.59574 -8.0821,-3.47582 -15.5437,-5.56473 -20.0041,-5.60023 -10.3957,-0.0827 -19.5354,5.11165 -24.7998,14.09486 -2.9858,5.09493 -7.7118,20.51837 -6.6213,21.60888 0.2903,0.29035 8.0697,-0.01 17.2875,-0.66619 27.4136,-1.95321 53.5914,2.04129 65.6801,10.02218 4.6585,3.07557 15.5444,2.63996 22.3953,-0.89619 z M 931.93236,788.58156 c 15.27919,-5.6207 47.12107,-27.32643 75.02134,-51.14 24.8035,-21.17039 53.0496,-50.82126 72.7057,-76.32177 6.8047,-8.82793 22.6549,-32.20214 25.3407,-37.36979 0.8933,-1.71875 2.1827,-3.48906 2.8654,-3.93401 0.6827,-0.44497 11.7079,-1.21033 24.5004,-1.7008 l 23.2591,-0.89179 9.375,-9.05455 c 5.1562,-4.98 11.307,-10.04841 13.6683,-11.26314 5.9062,-3.03835 17.523,-2.01324 31.9567,2.81996 9.9923,3.34597 20.9126,5.88633 36.0721,8.39132 l 4.8221,0.79681 -0.4471,-38.14454 c -0.2725,-23.2469 -0.9354,-38.58816 -1.6971,-39.28039 -0.7514,-0.68282 -9.7621,-0.49671 -22.5919,0.4666 -40.0542,3.00747 -110.6373,7.10702 -111.281,6.46334 -0.3532,-0.35324 0.1895,-3.93885 1.2061,-7.96804 4.8459,-19.20707 6.0063,-46.45712 2.6525,-62.28991 -5.7842,-27.306 -23.5998,-47.9748 -56.0704,-65.05014 -23.0393,-12.11565 -38.6356,-17.30127 -94.28584,-31.34911 -20.4212,-5.15495 -41.34821,-10.51075 -46.50446,-11.9018 -5.15625,-1.39104 -10.5,-2.81585 -11.875,-3.16625 -4.76904,-1.21532 4.89136,3.99451 18.125,9.77478 20.57291,8.98596 28.93307,11.81336 54.375,18.38963 80.4252,20.78847 114.7317,43.04963 126.3957,82.01703 2.7869,9.31059 3.1145,36.69262 0.6055,50.625 -5.4294,30.15039 -20.2793,54.109 -43.4708,70.13527 -29.6953,20.5207 -82.07594,31.37374 -123.39779,25.56747 -43.17354,-6.06645 -91.97465,-24.93138 -148.88261,-57.55317 -10.37489,-5.94727 -23.19538,-14.29151 -62.32978,-40.56743 -5.4163,-3.63665 10.24747,11.65981 23.26728,22.72167 7.39062,6.27921 13.4383,11.73274 13.43927,12.11896 9.8e-4,0.38623 -7.45215,0.5615 -16.5625,0.38952 l -16.56427,-0.3127 -4.77819,10.03877 c -8.73784,18.35788 -27.58838,38.06671 -44.17203,46.18329 l -6.32704,3.09665 -5.76689,16.83117 c -3.17179,9.25714 -5.5427,17.05536 -5.26869,17.32935 0.50894,0.50895 48.68755,-1.91878 108.41783,-5.46321 l 33.355,-1.9793 13.52,7.8309 c 7.43601,4.30699 16.03526,9.18677 19.10946,10.84393 3.07419,1.65716 7.01169,4.01635 8.75,5.24262 5.46747,3.85699 17.76225,9.62059 28.78555,13.4942 15.17605,5.3329 33.07411,8.312 50.31069,8.37412 8.07714,0.0291 14.68651,0.41616 14.6875,0.86011 10e-4,0.44396 -2.68661,2.53235 -5.97246,4.64087 -16.55882,10.62577 -36.90792,16.3819 -58.01445,16.41052 -6.75224,0.009 -12.45752,0.57267 -12.89047,1.2732 -0.77062,1.2469 2.03169,27.47147 4.47398,41.86822 2.03799,12.01348 7.2259,26.28066 11.67518,32.10771 9.24879,12.11278 28.66352,16.12807 46.41239,9.59885 z m -180.19889,-177.687 c -3.55571,-3.25857 -4.59399,-5.25689 -5.03338,-9.6875 -0.32256,-3.2524 0.12771,-6.87061 1.07886,-8.66954 2.31525,-4.37882 9.38724,-8.78752 14.09605,-8.78752 4.70881,0 11.7808,4.4087 14.09605,8.78752 0.95115,1.79893 1.40142,5.41714 1.07886,8.66954 C 776.25791,609.19309 769.86919,615 761.875,615 c -4.65706,0 -6.45664,-0.7285 -10.14153,-4.10544 z M 1136.6304,591.305 c -5.4683,-3.33424 -8.2213,-7.95702 -8.2213,-13.805 0,-12.10456 13.9094,-20.19054 24.2371,-14.0898 4.8463,2.86277 9.0753,11.59736 7.9955,16.51378 -1.6319,7.42981 -9.2816,13.83101 -16.5171,13.82134 -1.9248,-0.002 -5.2972,-1.10071 -7.4942,-2.44032 z m 64.4606,-4.65964 c -7.4824,-4.64375 -9.5978,-15.07202 -4.5514,-22.43682 3.4679,-5.06108 6.9721,-6.70854 14.2692,-6.70854 4.7792,0 6.3565,0.66527 9.8426,4.15141 7.3944,7.3944 7.018,17.32843 -0.9094,23.9989 -4.4141,3.71423 -13.4895,4.1984 -18.651,0.99505 z m 41.409,111.53515 c 0,-0.31322 -1.3486,-2.55675 -2.9969,-4.98564 -3.8414,-5.66072 -6.2264,-15.63 -5.4299,-22.69707 0.3433,-3.04551 0.2026,-5.79785 -0.3127,-6.1163 -1.7574,-1.08613 -15.4147,3.18742 -23.0337,7.20755 -8.1523,4.30156 -26.9768,21.89327 -26.9768,25.21019 0,1.71233 3.5902,1.95076 29.375,1.95076 16.1563,0 29.375,-0.25627 29.375,-0.56949 z m -59.7421,-53.69227 C 1189.431,642.01971 1196.3535,640 1198.1412,640 c 1.7877,0 7.8591,1.90239 13.4921,4.22754 26.373,10.88616 49.5096,16.29845 66.4488,15.54431 9.5798,-0.42649 12.3154,-1.06103 18.0332,-4.18271 11.5247,-6.2921 16.1677,-16.75039 12.1302,-27.32258 -1.147,-3.00322 -3.1351,-6.41041 -4.4181,-7.57152 -2.1991,-1.99023 -2.6798,-1.93632 -8.3925,0.94145 -8.6956,4.3803 -17.2903,5.86417 -33.9339,5.85875 -18.3343,-0.006 -31.9695,-2.19268 -50.288,-8.06487 -16.4645,-5.27786 -16.5721,-5.26461 -28.088,3.45693 -8.8171,6.67762 -38.125,35.0643 -38.125,36.9267 0,0.70537 5.7656,-1.4445 12.8125,-4.7775 7.0469,-3.33301 18.2723,-8.07973 24.9454,-10.54826 z M 995.17899,591.86419 c 9.87031,-1.0372 21.03011,-2.77849 24.79961,-3.86954 31.4966,-9.1165 55.6982,-32.35732 66.6022,-63.95804 3.2415,-9.39424 3.7691,-12.73679 3.7944,-24.03661 0.061,-27.1038 -11.5123,-48.88216 -34.3357,-64.61345 -13.8169,-9.52353 -21.2861,-12.86695 -62.52604,-27.98857 C 958.65461,394.61614 923.53555,381.10406 914.375,376.94944 889.98,365.88545 880.90827,361.56341 868.13454,354.91915 762.60621,300.02854 702.66684,226.8298 683.95765,130 c -2.05898,-10.65625 -4.13155,-24.01562 -4.60573,-29.6875 -0.53863,-6.443007 -1.3996,-10.302281 -2.29452,-10.285265 -1.93821,0.03685 -14.78396,12.471015 -25.07884,24.275285 -45.57286,52.2546 -65.15756,137.96768 -48.85658,213.82248 7.92323,36.86993 24.36551,63.99931 62.41747,102.98745 73.82214,75.63836 187.1444,141.94536 269.46055,157.66649 26.9543,5.14785 36.09231,5.61633 60.17899,3.08525 z M 950,572.91919 C 925.17665,569.02408 898.956,561.20925 871.45859,549.51064 781.24275,511.1288 682.19729,436.95384 642.38944,377.96116 629.37269,358.67117 622.77943,337.31226 618.70954,301.25 c -1.79907,-15.94113 -1.79955,-55.03243 -8.8e-4,-71.25 3.89697,-35.13669 15.06986,-67.28501 30.97339,-89.12125 2.40191,-3.29794 4.61037,-5.75299 4.90768,-5.45569 0.29731,0.29731 -0.74109,6.93313 -2.30757,14.74625 -2.45096,12.22468 -2.85225,18.12778 -2.87765,42.33069 -0.026,24.74725 0.32515,29.8514 2.92363,42.5 14.11635,68.71411 56.31536,128.72051 130.17186,185.10253 59.71455,45.58605 141.05102,87.45158 240.3265,123.70094 10.1484,3.70556 18.2593,7.3188 18.0243,8.02946 -0.8346,2.52367 -19.0837,13.90777 -25.8508,16.12611 -13.2604,4.34693 -50.70025,7.20397 -65,4.96015 z m 242.2991,-110.91762 c 7.7958,-2.32366 14.7814,-4.83204 15.5235,-5.57418 2.7064,-2.70635 -12.8022,-43.63879 -27.9743,-73.83393 -16.0952,-32.03203 -31.3699,-54.71246 -50.396,-74.82931 -10.1692,-10.75232 -29.2853,-27.09777 -30.3942,-25.98895 -0.3298,0.32984 2.1823,4.42473 5.5824,9.09975 21.5013,29.56353 40.5463,69.84728 54.546,115.37505 5.0594,16.45326 11.5189,42.67939 12.777,51.875 0.4703,3.4375 1.0978,6.67188 1.3945,7.1875 0.9381,1.63003 4.3872,1.02711 18.9411,-3.31092 z"
       id="path4798"
       inkscape:connector-curvature="0" />
  </g>
</svg>
