<?xml version="1.0" encoding="UTF-8" standalone="no"?>
<!-- Created with Inkscape (http://www.inkscape.org/) -->

<svg
   xmlns:dc="http://purl.org/dc/elements/1.1/"
   xmlns:cc="http://creativecommons.org/ns#"
   xmlns:rdf="http://www.w3.org/1999/02/22-rdf-syntax-ns#"
   xmlns:svg="http://www.w3.org/2000/svg"
   xmlns="http://www.w3.org/2000/svg"
   xmlns:sodipodi="http://sodipodi.sourceforge.net/DTD/sodipodi-0.dtd"
   xmlns:inkscape="http://www.inkscape.org/namespaces/inkscape"
   version="1.1"
   id="svg2"
   width="1920"
   height="1080"
   viewBox="0 0 1920 1080"
   sodipodi:docname="MH-Logo-BLUE-1.svg"
   inkscape:version="0.92+devel unknown">
  <metadata
     id="metadata8">
    <rdf:RDF>
      <cc:Work
         rdf:about="">
        <dc:format>image/svg+xml</dc:format>
        <dc:type
           rdf:resource="http://purl.org/dc/dcmitype/StillImage" />
        <dc:title></dc:title>
      </cc:Work>
    </rdf:RDF>
  </metadata>
  <defs
     id="defs6" />
  <sodipodi:namedview
     pagecolor="#ffffff"
     bordercolor="#666666"
     inkscape:document-rotation="0"
     borderopacity="1"
     objecttolerance="10"
     gridtolerance="10"
     guidetolerance="10"
     inkscape:pageopacity="0"
     inkscape:pageshadow="2"
     inkscape:window-width="1920"
     inkscape:window-height="1016"
     id="namedview4"
     showgrid="false"
     inkscape:zoom="0.46440711"
     inkscape:cx="1626.9347"
     inkscape:cy="868.39606"
     inkscape:window-x="0"
     inkscape:window-y="0"
     inkscape:window-maximized="1"
     inkscape:current-layer="g10" />
  <g
     inkscape:groupmode="layer"
     inkscape:label="Image"
     id="g10">
    <path
       style="fill:#3397da"
       d="m 78,844 v -96 h 30.3738 30.37381 l 11.75918,34.75 c 6.46755,19.1125 16.93111,50.275 23.25234,69.25 6.32123,18.975 11.77688,34.81799 12.12365,35.20664 0.34677,0.38865 11.23876,-30.66135 24.20442,-69 L 233.66111,748.5 264.33056,748.23555 295,747.9711 V 843.98555 940 H 273.5 252 v -58.16667 c 0,-31.99166 -0.33512,-57.83154 -0.74472,-57.42194 -0.40959,0.40959 -9.52791,26.47209 -20.26293,57.91666 L 211.47415,939.5 186.38083,939.76687 161.2875,940.03374 141.39375,881.76687 121.5,823.5 121.24194,881.75 120.98388,940 H 99.491942 78 Z m 264,94.8807 c -7.44102,-1.19799 -18.81542,-6.93646 -24.03085,-12.12374 -19.30465,-19.20048 -13.51345,-58.01717 10.40827,-69.76347 10.57521,-5.19275 16.90222,-5.95686 49.48387,-5.97613 L 407.22258,851 l -0.69411,-3.75 c -1.54946,-8.371 -5.90036,-13.59165 -13.42769,-16.1119 C 390.80481,830.36938 377.74124,830 352.85078,830 H 316 V 813.5 797 l 43.75,0.008 c 25.30743,0.004 46.49004,0.44451 50.25,1.04411 13.22591,2.10914 26.45732,11.02328 32.30227,21.76238 C 447.83902,829.98688 448,831.91925 448,888.2101 V 940 l -50.25,-0.1169 C 370.1125,939.8188 345.025,939.36772 342,938.8807 Z M 406.5,894.5 v -10 l -24.49861,-0.26834 c -26.63755,-0.29177 -29.07919,0.0843 -31.54855,4.85953 -2.9191,5.64493 -0.59488,12.67973 4.93528,14.93774 1.16153,0.47427 13.13688,0.77428 26.61188,0.66669 L 406.5,904.5 Z M 508,938.56903 c -12.01008,-3.34184 -20.99239,-11.1583 -26.8008,-23.32221 L 477.5,907.5 477.196,868.75 476.892,830 H 465.446 454 V 813.5 797 H 465.5 477 V 772.5 748 h 21.5 21.5 v 24.5 24.5 h 27 27 V 772.5 748 h 22 22 V 772.5 797 H 634.5 651 V 813.5 830 H 634.5 618 v 33.98422 33.98423 l 2.91548,3.26577 2.91547,3.26578 14.58453,0.32377 L 653,905.14755 v 17.50679 17.50679 l -23.25,-0.36498 c -20.81772,-0.32681 -23.796,-0.58549 -28.4692,-2.47279 -11.18088,-4.51547 -19.59257,-13.20815 -24.52686,-25.34618 -2.14476,-5.27599 -2.2386,-6.88276 -2.55457,-43.74339 l -0.32802,-38.26621 -26.68567,0.26621 L 520.5,830.5 V 863 c 0,36.32289 0.27986,38.17442 6.14015,40.62301 C 528.86666,904.5533 534.1634,905 542.96788,905 H 556 v 17.5 17.5 l -21.75,-0.0894 c -14.08933,-0.0579 -23.33497,-0.53044 -26.25,-1.34155 z m 200.5,0.80513 c -10.79419,-2.12561 -13.79442,-2.96846 -19,-5.33768 C 667.65809,924.09556 654.73259,902.64917 653.3167,874 c -1.86634,-37.76373 15.39015,-65.58503 46.25284,-74.56988 4.99409,-1.4539 11.733,-1.79543 42.68046,-2.1631 L 779,796.83041 V 814.41521 832 h -29.8185 c -34.15866,0 -37.37496,0.49864 -43.34292,6.71968 -1.99459,2.07918 -4.58339,5.69282 -5.75288,8.03032 L 697.95935,851 H 738.47968 779 v 17.48878 17.48879 l -40.4519,0.26121 -40.45191,0.26122 1.80102,4.02219 c 2.05931,4.59904 6.87093,9.74577 11.45891,12.25701 2.75421,1.50751 7.14116,1.75815 35.39388,2.02211 L 779,905.10262 V 922.55131 940 l -34.25,-0.116 c -18.8375,-0.0638 -35.15,-0.29323 -36.25,-0.50984 z M 794,868.5 V 797 h 36.86351 c 20.7065,0 39.22437,0.44442 42.25,1.01399 11.91751,2.24342 23.84619,11.1009 28.93597,21.48601 2.28281,4.65781 2.47186,6.249 2.76236,23.25 L 905.12368,861 H 884.56184 864 l -0.0147,-10.25 c -0.009,-6.16602 -0.51246,-11.24609 -1.26391,-12.75 -2.17837,-4.35963 -7.1372,-6.07016 -16.72135,-5.76799 l -8.5,0.26799 -0.25869,53.75 -0.25868,53.75 H 815.49135 794.00004 V 868.5 Z M 916,844 v -96 h 15.5 15.5 v 40 40 h 49.5 49.5 v -40 -40 h 15.5 15.5 v 96 96 H 1061.5 1046 V 897.5 855 H 996.5 947 V 897.5 940 H 931.5 916 Z m 209.3745,94.50871 c -14.1938,-3.08717 -25.8904,-11.71735 -31.6004,-23.31599 -3.1907,-6.48118 -3.2741,-6.98249 -3.2741,-19.67169 0,-12.55287 0.1141,-13.26195 3.1744,-19.72174 3.9887,-8.4197 10.6038,-15.09865 18.7124,-18.89314 10.9907,-5.14314 17.0805,-5.86962 49.3632,-5.88879 L 1191,851 l -0.01,-4.75 c -0.012,-10.00794 -3.912,-16.94492 -11.453,-20.37034 -3.7037,-1.68236 -7.4044,-1.83757 -44.2914,-1.8577 L 1095,824 V 810.5 797 l 42.75,0.008 c 45.1778,0.008 52.316,0.5327 60.9855,4.48295 10.7472,4.89697 16.4846,11.46411 20.5022,23.46708 2.1264,6.35263 2.2,8.11621 2.5383,60.79242 l 0.3483,54.25 -45.3121,-0.0795 c -33.7559,-0.0592 -46.8744,-0.41929 -51.4377,-1.41179 z M 1191,895.5 V 878 h -27.5989 c -30.5314,0 -32.2656,0.30067 -36.8593,6.39073 -6.8005,9.01554 -4.3148,21.50948 5.2887,26.58248 3.369,1.77965 5.9421,1.94202 31.4195,1.98259 L 1191,913 Z m 91.7572,43.46631 c -24.039,-4.04699 -41.0749,-20.32496 -47.9563,-45.82278 -2.8822,-10.67934 -3.107,-34.18444 -0.4366,-45.64353 4.8179,-20.67394 15.8059,-35.59465 32.0217,-43.48269 12.0285,-5.8511 15.2445,-6.28753 49.864,-6.76672 L 1348,796.81112 V 810.40556 824 h -26.3185 c -29.3858,0 -33.3844,0.61698 -40.8874,6.3089 -5.7396,4.35419 -10.3325,11.41524 -13.0543,20.06934 -3.1532,10.02588 -3.0801,28.16798 0.1515,37.62176 2.7826,8.14033 8.0557,15.99824 13.0652,19.46986 7.2171,5.00145 11.0605,5.53014 40.2024,5.53014 H 1348 v 13.5 13.5 l -30.25,-0.11762 c -16.6375,-0.0647 -32.3843,-0.47692 -34.9928,-0.91607 z M 1358,844 v -96 h 15.4907 15.4906 l 0.2594,49.64969 0.2593,49.64969 29.3257,-25.14969 L 1448.1514,797 h 19.9243 c 10.9584,0 19.9243,0.15451 19.9243,0.34335 0,0.18884 -13.7598,12.22634 -30.5773,26.75 l -30.5773,26.40665 12.3706,0.55902 c 11.0643,0.49999 13.0618,0.88247 18.9159,3.62194 7.7139,3.60977 12.8268,8.4101 16.6182,15.60247 l 2.7499,5.21657 0.3013,32.25 0.3013,32.25 H 1462.5513 1447 v -25.75 c 0,-37.79622 1.4623,-36.24611 -34.2484,-36.24845 L 1389,878 v 31 31 h -15.5 -15.5 z m 178.5,95.30244 c -24.5984,-3.26253 -43.119,-21.10797 -49.611,-47.80244 -2.794,-11.48877 -2.9966,-31.0418 -0.4457,-43 5.3696,-25.171 21.735,-43.18318 44.6096,-49.09844 5.111,-1.32167 12.9235,-1.76308 37.6971,-2.12989 l 31.25,-0.4627 v 13.52592 13.52592 l -28.25,0.3196 c -32.0851,0.36298 -33.6169,0.6865 -41.7479,8.81751 -4.0058,4.0058 -9.1375,13.36484 -10.5562,19.25208 l -0.6627,2.75 H 1559.3916 1600 v 13.5 13.5 h -40.5795 -40.5794 l 0.7086,3.25 c 2.2542,10.33924 9.3299,20.0616 17.8868,24.57768 l 5.0635,2.67232 28.75,0.30632 28.75,0.30632 V 926.55632 940 l -30.25,-0.14983 c -16.6375,-0.0824 -31.6,-0.32889 -33.25,-0.54773 z M 1615,868.5 V 797 l 29.25,0.0174 c 31.9253,0.019 39.4993,0.88754 47.2264,5.41595 5.5359,3.24424 10.1918,8.63029 13.417,15.52106 2.4521,5.23908 2.6149,6.5821 2.9448,24.29563 l 0.3491,18.75 H 1692.5937 1677 v -12.47976 c 0,-21.19654 -2.828,-24.45678 -21.25,-24.49828 L 1646,824 v 58 58 h -15.5 -15.5 z m 103,58.0361 V 913 l 41.75,-0.004 c 40.1116,-0.004 41.8799,-0.0829 45.0602,-2.02189 8.2923,-5.0557 8.2174,-20.27235 -0.13,-26.40329 -2.6621,-1.95519 -4.4806,-2.09906 -32.5,-2.57108 -28.7817,-0.48486 -29.8164,-0.57157 -34.1802,-2.86422 -7.4082,-3.89213 -11.011,-7.08524 -15.0565,-13.34444 -12.0596,-18.65862 -7.5752,-50.69244 8.6602,-61.86268 9.3583,-6.43866 8.3481,-6.32509 59.6463,-6.70626 l 46.75,-0.34738 v 13.56249 13.56249 h -39.5321 c -41.6313,0 -43.7264,0.20331 -47.6583,4.6249 -0.9298,1.04551 -2.2502,3.99364 -2.9343,6.5514 -1.5478,5.78735 -0.1238,11.39386 4.094,16.11756 l 2.8628,3.20614 29.8339,0.57439 c 24.4636,0.47099 30.6189,0.87503 34.1942,2.24451 9.2723,3.55169 16.4915,10.97102 20.3926,20.95801 2.5188,6.44816 3.5516,24.74514 1.8457,32.69924 -2.6004,12.12537 -9.3314,21.00658 -19.4724,25.69288 L 1815.5,939.5 l -48.75,0.2861 -48.75,0.2861 z M 848,578.66498 740.5,516.47996 V 390.527 264.57404 l 107,-61.85408 c 58.85,-34.01975 107.47872,-62.06491 108.06382,-62.32257 0.58511,-0.25767 49.63508,27.57704 108.99998,61.8549 l 107.9362,62.32337 0.2562,76.21217 0.2563,76.21217 h -16.4991 -16.4991 l -0.2572,-66.15644 -0.2571,-66.15645 -91.4147,-52.77986 -91.41467,-52.77987 -3.58531,1.89585 C 951.11339,182.06595 909.9,205.81753 861.5,233.80453 l -88,50.88545 v 105.85253 105.85253 l 91.38286,52.76656 c 80.30337,46.36902 91.63954,52.63233 93.5,51.65944 1.16442,-0.60891 31.81714,-18.11386 68.11714,-38.89987 36.3,-20.78601 66.7446,-38.07833 67.6547,-38.42737 1.3004,-0.49874 3.4874,2.42093 10.2152,13.63721 4.7083,7.84951 8.4637,14.36678 8.3453,14.48282 -0.8652,0.84809 -156.03314,89.3698 -156.55175,89.31117 C 955.79855,640.88374 907.125,612.86674 848,578.66498 Z m 296.4628,-64.20458 c -5.8092,-2.13709 -10.6006,-6.46388 -13.9583,-12.60485 -2.4603,-4.49975 -2.9243,-6.47412 -2.9037,-12.35555 0.051,-14.65995 9.5973,-25.10404 24.0021,-26.26032 16.3022,-1.30859 28.4259,9.88866 28.3751,26.20666 -0.034,11.08589 -5.1288,19.49872 -14.5746,24.0687 -5.0497,2.44311 -15.5774,2.91838 -20.9406,0.94536 z M 883,390.5 V 326 h 20.77062 20.77063 l 15.86321,47 c 8.72477,25.85 15.96849,47 16.09716,47 0.12867,0 7.36615,-21.15 16.08328,-47 l 15.84934,-47 H 1009.2171 1030 v 64.5 64.5 h -14.9881 -14.9881 l -0.26192,-38.07903 -0.26188,-38.07902 -13,38.07173 -13,38.07174 h -17 -17 l -13,-38.07174 -13,-38.07173 -0.26188,38.07902 L 912.97623,455 H 897.98812 883 Z"
       id="path4271"
       inkscape:connector-curvature="0" />
  </g>
</svg>
