<?xml version="1.0" encoding="UTF-8" standalone="no"?>
<!-- Created with Inkscape (http://www.inkscape.org/) -->

<svg
   xmlns:dc="http://purl.org/dc/elements/1.1/"
   xmlns:cc="http://creativecommons.org/ns#"
   xmlns:rdf="http://www.w3.org/1999/02/22-rdf-syntax-ns#"
   xmlns:svg="http://www.w3.org/2000/svg"
   xmlns="http://www.w3.org/2000/svg"
   xmlns:sodipodi="http://sodipodi.sourceforge.net/DTD/sodipodi-0.dtd"
   xmlns:inkscape="http://www.inkscape.org/namespaces/inkscape"
   id="svg5145"
   version="1.1"
   inkscape:version="0.91 r13725"
   width="2025"
   height="900"
   viewBox="0 0 2025 900"
   sodipodi:docname="ocra.svg">
  <metadata
     id="metadata5151">
    <rdf:RDF>
      <cc:Work
         rdf:about="">
        <dc:format>image/svg+xml</dc:format>
        <dc:type
           rdf:resource="http://purl.org/dc/dcmitype/StillImage" />
        <dc:title></dc:title>
      </cc:Work>
    </rdf:RDF>
  </metadata>
  <defs
     id="defs5149" />
  <sodipodi:namedview
     pagecolor="#ffffff"
     bordercolor="#666666"
     borderopacity="1"
     objecttolerance="10"
     gridtolerance="10"
     guidetolerance="10"
     inkscape:pageopacity="0"
     inkscape:pageshadow="2"
     inkscape:window-width="2560"
     inkscape:window-height="1371"
     id="namedview5147"
     showgrid="false"
     inkscape:zoom="0.86040055"
     inkscape:cx="1023.2926"
     inkscape:cy="327.62092"
     inkscape:window-x="0"
     inkscape:window-y="27"
     inkscape:window-maximized="1"
     inkscape:current-layer="svg5145" />
  <g
     id="g5695">
    <path
       style="fill:#fd9832"
       d="m 173.25,699.16929 c -24.93314,-3.17802 -48.03996,-14.9723 -67.54348,-34.47581 -19.957659,-19.95766 -31.358768,-42.66988 -34.57138,-68.86987 -1.283205,-10.46499 -1.283205,-255.98223 0,-266.44722 3.212612,-26.19999 14.613721,-48.91221 34.57138,-68.86987 19.95766,-19.95766 42.66988,-31.35877 68.86987,-34.57138 C 178.77091,225.42081 194.26216,225 209.00139,225 l 26.79861,0 0,162.9 0,162.9 72.45,0 72.45,0 0,-88.19448 0,-88.19449 -69.73853,-0.23051 -69.73852,-0.23052 44.6339,-46.17963 c 24.54864,-25.39879 44.43473,-46.37879 44.1913,-46.62221 -0.24342,-0.24343 -4.32354,-0.83964 -9.06693,-1.32492 -20.12276,-2.05871 -37.00868,-8.90556 -51.7925,-21.00066 -12.20817,-9.98789 -38.88048,-42.83126 -58.61298,-72.17404 C 199.5972,170.32316 184.5,145.20171 184.5,143.25902 c 0,-1.57217 16.28171,-7.24499 30.34434,-10.57248 21.60484,-5.11211 48.3165,-6.8924 66.24048,-4.4148 31.92516,4.41293 57.46056,16.40746 75.46998,35.4499 15.49215,16.38077 25.06403,35.67423 27.53642,55.5035 l 0.66392,5.32486 28.79743,0.53056 c 29.75138,0.54813 33.76604,0.97439 47.24743,5.01655 34.90343,10.46521 66.72027,41.20231 78.56922,75.90289 5.90865,17.30398 5.58078,8.10379 5.58078,156.6 0,126.71075 -0.0954,134.99571 -1.63796,142.2 -4.6718,21.81942 -14.23761,39.89601 -29.93842,56.57491 -20.10666,21.3592 -42.38621,33.41308 -69.23908,37.46033 -7.70391,1.16114 -27.20077,1.33868 -136.78454,1.24561 -70.29,-0.0597 -130.635,-0.4699 -134.1,-0.91156 z m 189.81303,-451.581 4.34537,-4.4117 -7.8721,-8.8633 c -11.12127,-12.52158 -29.23754,-30.28311 -38.23653,-37.48779 -25.1478,-20.13362 -57.01109,-36.09915 -86.7158,-43.45013 -5.02369,-1.24319 -9.64022,-2.43102 -10.25897,-2.63962 -0.61875,-0.20859 -1.125,-0.077 -1.125,0.29233 0,0.36938 3.74625,2.05767 8.325,3.75176 10.53556,3.89804 34.13659,15.86324 47.02293,23.83959 33.84347,20.94832 52.41449,37.48205 74.0826,65.95557 3.1077,4.08375 5.74863,7.425 5.86875,7.425 0.12011,0 2.1738,-1.98526 4.56375,-4.41171 z M 720.9,699.7267 c -0.7425,-0.14548 -4.3875,-0.75077 -8.1,-1.3451 -21.13257,-3.3831 -41.80845,-13.83843 -58.77895,-29.72322 C 633.11814,649.09277 621.02997,626.5338 616.90911,599.4 c -1.93184,-12.7202 -1.93184,-260.8798 0,-273.6 4.07653,-26.84186 16.13835,-49.54005 36.50897,-68.70326 16.18401,-15.22476 32.61803,-24.10888 54.88192,-29.66881 7.63592,-1.90691 7.95193,-1.91094 171.675,-2.18794 l 164.025,-0.27751 0,74.71876 0,74.71876 -131.85,0 -131.85,0 0,88.19701 0,88.19701 131.84262,0.22799 131.84258,0.22799 -40.607,74.475 -40.60698,74.475 -120.26059,-0.1044 C 776.36729,700.03818 721.6425,699.87218 720.9,699.7267 Z m 406.8,-159.76196 0,-160.23526 74.925,-77.32333 74.925,-77.32334 49.725,-0.0414 49.725,-0.0414 0,74.7 0,74.7 -42.3,0 -42.3,0 0,162.9 0,162.9 -82.35,0 -82.35,0 0,-160.23526 z m 448.65,159.20792 c -14.2019,-1.81778 -30.7263,-7.46773 -42.5715,-14.55593 -29.161,-17.44988 -49.9997,-45.94674 -57.0508,-78.01673 l -2.0777,-9.45 0,-134.55 0,-134.55 2.0777,-9.45 c 9.421,-42.84903 43.0401,-78.3342 84.8039,-89.51092 15.4398,-4.13196 18.1145,-4.19877 155.2184,-3.87761 l 129.6,0.30358 8.9486,2.04644 c 22.2756,5.09411 40.0135,14.77574 57.0786,31.15434 17.9678,17.2451 29.9054,38.96651 34.8993,63.50207 1.435,7.05082 1.5774,21.73563 1.869,192.8071 l 0.3156,185.175 -82.3806,0 -82.3805,0 0,-162.9 0,-162.9 -72.9,0 -72.9,0 0,88.19441 0,88.19441 68.7893,0.23059 68.7894,0.23059 -40.7687,74.25 -40.7685,74.25 -56.1458,0.11452 c -30.8801,0.063 -58.9807,-0.24836 -62.4457,-0.69186 z"
       id="path5705"
       inkscape:connector-curvature="0" />
    <path
       style="fill:#73b649"
       d="m 723.15,699.57037 c -30.92772,-2.80967 -59.15616,-17.80063 -79.54254,-42.24173 -15.93317,-19.10219 -24.61135,-39.4252 -27.07132,-63.39695 -1.27854,-12.45902 -1.27854,-250.20436 0,-262.66338 2.45997,-23.97175 11.13815,-44.29476 27.07132,-63.39694 17.67749,-21.19344 38.77473,-33.98279 66.69301,-40.42996 8.34511,-1.92713 8.43571,-1.9283 171.02453,-2.20822 l 162.675,-0.28006 0,74.72343 0,74.72344 -131.85,0 -131.85,0 0,88.19701 0,88.19701 131.67666,0.22799 131.67654,0.22799 -40.5515,74.45627 -40.5517,74.45628 -117.9,-0.13257 c -64.845,-0.0729 -119.52,-0.27974 -121.5,-0.45961 z m 404.55,-159.60563 0,-160.23526 74.925,-77.32333 74.925,-77.32334 49.725,-0.0414 49.725,-0.0414 0,74.7 0,74.7 -42.3,0 -42.3,0 0,162.9 0,162.9 -82.35,0 -82.35,0 0,-160.23526 z m 448.65,159.20792 c -14.2019,-1.81778 -30.7263,-7.46773 -42.5715,-14.55593 -29.161,-17.44988 -49.9997,-45.94674 -57.0508,-78.01673 l -2.0777,-9.45 0,-134.55 0,-134.55 2.0777,-9.45 c 9.421,-42.84903 43.0401,-78.3342 84.8039,-89.51092 15.4398,-4.13196 18.1145,-4.19877 155.2184,-3.87761 l 129.6,0.30358 8.9486,2.04644 c 22.2756,5.09411 40.0135,14.77574 57.0786,31.15434 17.9678,17.2451 29.9054,38.96651 34.8993,63.50207 1.435,7.05082 1.5774,21.73563 1.869,192.8071 l 0.3156,185.175 -82.3806,0 -82.3805,0 0,-162.9 0,-162.9 -72.9,0 -72.9,0 0,88.19441 0,88.19441 68.7893,0.23059 68.7894,0.23059 -40.7687,74.25 -40.7685,74.25 -56.1458,0.11452 c -30.8801,0.063 -58.9807,-0.24836 -62.4457,-0.69186 z M 324,280.21184 C 302.36967,278.15121 285.12897,271.54286 270.19997,259.59033 257.40881,249.3494 231.08337,217.14396 210.57574,186.64854 199.5972,170.32316 184.5,145.20171 184.5,143.25902 c 0,-1.57217 16.28171,-7.24499 30.34434,-10.57248 21.60484,-5.11211 48.3165,-6.8924 66.24048,-4.4148 31.92516,4.41293 57.46056,16.40746 75.46998,35.4499 15.53773,16.42897 24.79652,35.10433 27.58136,55.63275 l 0.76029,5.6044 -8.68218,9.20699 -8.68217,9.207 -3.54105,-4.00081 C 353.98996,228.0724 350.67348,224.55428 340.26187,214.2 c -6.22178,-6.1875 -14.75471,-14.00603 -18.9621,-17.3745 -25.1478,-20.13362 -57.01109,-36.09915 -86.7158,-43.45013 -5.02369,-1.24319 -9.64022,-2.43102 -10.25897,-2.63962 -0.61875,-0.20859 -1.125,-0.077 -1.125,0.29233 0,0.36938 3.74625,2.05767 8.325,3.75176 10.53556,3.89804 34.13659,15.86324 47.02293,23.83959 33.87088,20.96528 52.40982,37.47597 74.13472,66.02403 l 5.70248,7.49347 -2.08792,2.40653 c -1.14835,1.3236 -7.36063,7.77279 -13.80506,14.33154 -7.98649,8.12817 -12.29423,11.87914 -13.52965,11.78096 -0.99687,-0.0792 -3.23,-0.27907 -4.9625,-0.44412 z"
       id="path5703"
       inkscape:connector-curvature="0" />
    <path
       style="fill:#287fb8"
       d="m 723.15,699.57037 c -30.92772,-2.80967 -59.15616,-17.80063 -79.54254,-42.24173 -15.93317,-19.10219 -24.61135,-39.4252 -27.07132,-63.39695 -1.27854,-12.45902 -1.27854,-250.20436 0,-262.66338 2.45997,-23.97175 11.13815,-44.29476 27.07132,-63.39694 17.67749,-21.19344 38.77473,-33.98279 66.69301,-40.42996 8.34511,-1.92713 8.43571,-1.9283 171.02453,-2.20822 l 162.675,-0.28006 0,74.72343 0,74.72344 -131.85,0 -131.85,0 0,88.19701 0,88.19701 131.67666,0.22799 131.67654,0.22799 -40.5515,74.45627 -40.5517,74.45628 -117.9,-0.13257 c -64.845,-0.0729 -119.52,-0.27974 -121.5,-0.45961 z m 404.5501,-159.34537 2e-4,-159.975 75.2493,-77.625 75.2495,-77.625 48.9504,0 48.9505,0 0,74.7 0,74.7 -41.85,0 -41.85,0 0,162.9 0,162.9 -82.35,0 -82.35,0 10e-5,-159.975 z M 1576.35,699.17266 c -14.2019,-1.81778 -30.7263,-7.46773 -42.5715,-14.55593 -29.161,-17.44988 -49.9997,-45.94674 -57.0508,-78.01673 l -2.0777,-9.45 0,-134.55 0,-134.55 2.0777,-9.45 c 9.421,-42.84903 43.0401,-78.3342 84.8039,-89.51092 15.4398,-4.13196 18.1145,-4.19877 155.2184,-3.87761 l 129.6,0.30358 8.9486,2.04644 c 22.2756,5.09411 40.0135,14.77574 57.0786,31.15434 17.9678,17.2451 29.9054,38.96651 34.8993,63.50207 1.435,7.05082 1.5774,21.73563 1.869,192.8071 l 0.3156,185.175 -82.3806,0 -82.3805,0 0,-162.9 0,-162.9 -72.9,0 -72.9,0 0,88.19441 0,88.19441 68.7893,0.23059 68.7894,0.23059 -40.7687,74.25 -40.7685,74.25 -56.1458,0.11452 c -30.8801,0.063 -58.9807,-0.24836 -62.4457,-0.69186 z"
       id="path5701"
       inkscape:connector-curvature="0" />
    <path
       style="fill:#ec1e23"
       d="m 723.15,699.57037 c -30.92772,-2.80967 -59.15616,-17.80063 -79.54254,-42.24173 -15.93317,-19.10219 -24.61135,-39.4252 -27.07132,-63.39695 -1.27854,-12.45902 -1.27854,-250.20436 0,-262.66338 2.45997,-23.97175 11.13815,-44.29476 27.07132,-63.39694 17.67749,-21.19344 38.77473,-33.98279 66.69301,-40.42996 8.34511,-1.92713 8.43571,-1.9283 171.02453,-2.20822 l 162.675,-0.28006 0,74.72343 0,74.72344 -131.85,0 -131.85,0 0,88.19701 0,88.19701 131.67666,0.22799 131.67654,0.22799 -40.5515,74.45627 -40.5517,74.45628 -117.9,-0.13257 c -64.845,-0.0729 -119.52,-0.27974 -121.5,-0.45961 z m 404.5501,-159.34537 2e-4,-159.975 75.2493,-77.625 75.2495,-77.625 48.9504,0 48.9505,0 0,74.7 0,74.7 -41.85,0 -41.85,0 0,162.9 0,162.9 -82.35,0 -82.35,0 10e-5,-159.975 z"
       id="path5699"
       inkscape:connector-curvature="0" />
    <path
       style="fill:#000000"
       d="m 1127.7001,540.225 2e-4,-159.975 75.2493,-77.625 75.2495,-77.625 48.9504,0 48.9505,0 0,74.7 0,74.7 -41.85,0 -41.85,0 0,162.9 0,162.9 -82.35,0 -82.35,0 10e-5,-159.975 z"
       id="path5697"
       inkscape:connector-curvature="0" />
  </g>
</svg>
