<?xml version="1.0" encoding="UTF-8" standalone="no"?>
<svg
   xmlns:dc="http://purl.org/dc/elements/1.1/"
   xmlns:cc="http://creativecommons.org/ns#"
   xmlns:rdf="http://www.w3.org/1999/02/22-rdf-syntax-ns#"
   xmlns:svg="http://www.w3.org/2000/svg"
   xmlns="http://www.w3.org/2000/svg"
   xmlns:sodipodi="http://sodipodi.sourceforge.net/DTD/sodipodi-0.dtd"
   xmlns:inkscape="http://www.inkscape.org/namespaces/inkscape"
   width="790.92969pt"
   height="230.97522pt"
   viewBox="0 0 790.92969 230.97522"
   version="1.2"
   id="svg11706"
   sodipodi:docname="papamurphys_02.svg"
   inkscape:version="0.92.2 5c3e80d, 2017-08-06">
  <metadata
     id="metadata11710">
    <rdf:RDF>
      <cc:Work
         rdf:about="">
        <dc:format>image/svg+xml</dc:format>
        <dc:type
           rdf:resource="http://purl.org/dc/dcmitype/StillImage" />
        <dc:title></dc:title>
      </cc:Work>
    </rdf:RDF>
  </metadata>
  <sodipodi:namedview
     pagecolor="#ffffff"
     bordercolor="#666666"
     borderopacity="1"
     objecttolerance="10"
     gridtolerance="10"
     guidetolerance="10"
     inkscape:pageopacity="0"
     inkscape:pageshadow="2"
     inkscape:window-width="742"
     inkscape:window-height="480"
     id="namedview11708"
     showgrid="false"
     fit-margin-top="0"
     fit-margin-left="0"
     fit-margin-right="0"
     fit-margin-bottom="0"
     inkscape:zoom="0.22348485"
     inkscape:cx="527.28735"
     inkscape:cy="153.21785"
     inkscape:window-x="0"
     inkscape:window-y="0"
     inkscape:window-maximized="0"
     inkscape:current-layer="svg11706" />
  <defs
     id="defs11691">
    <clipPath
       id="clip1">
      <path
         d="M 190.55078,0 H 421.52734 V 790.92969 H 190.55078 Z m 0,0"
         id="path11688"
         inkscape:connector-curvature="0" />
    </clipPath>
  </defs>
  <g
     id="surface1729083"
     transform="rotate(-90,210.763,210.763)">
    <g
       clip-path="url(#clip1)"
       id="g11695"
       style="clip-rule:nonzero">
      <path
         style="fill:#e1b328;fill-opacity:1;fill-rule:evenodd;stroke:none"
         d="m 214.91016,33.675781 c -3.14063,24.367188 -6.07813,48.730469 -8.79688,73.156249 -2.49609,24.32031 -4.76953,48.62891 -6.84375,72.98828 -1.85156,24.28125 -3.47656,48.52735 -4.88672,72.83594 -1.1914,24.22266 -2.17969,48.42187 -2.92969,72.66797 -0.55078,24.16797 -0.8789,48.3164 -0.98046,72.5 0.10156,24.12109 0.42968,48.21094 0.98046,72.33203 0.75,24.07812 1.73829,48.11328 2.92969,72.17187 1.41016,24.03125 3.03516,48.01172 4.88672,72.01172 2.07422,23.97266 4.34766,47.89844 6.84375,71.83594 2.71875,23.92969 5.64844,47.79688 8.79688,71.67578 l 4.67187,33.07813 h 172.89844 c 3.80469,-26.94141 7.4375,-53.84766 10.75781,-80.83594 2.71094,-23.92578 5.21484,-47.82813 7.49609,-71.79688 2.07422,-23.96875 3.91016,-47.93359 5.53516,-71.94531 1.42188,-24.03515 2.61328,-48.05469 3.59766,-72.11719 0.7539,-24.10156 1.29297,-48.17578 1.62109,-72.28125 0.10156,-24.16406 0,-48.28515 -0.32812,-72.44531 -0.53907,-24.22656 -1.29297,-48.40625 -2.27735,-72.60937 -1.20312,-24.28907 -2.61328,-48.52344 -4.23828,-72.77735 -1.85156,-24.34375 -3.91016,-48.63672 -6.19141,-72.9375 -2.5039,-24.40625 -5.22265,-48.749996 -8.14843,-73.109371 L 392.51172,0 H 219.55859 l -4.64843,33.675781"
         id="path11693"
         inkscape:connector-curvature="0" />
    </g>
    <path
       style="fill:#007d54;fill-opacity:1;fill-rule:evenodd;stroke:none"
       d="m 228.94141,10.773438 c -36.92969,259.605472 -36.92969,516.062502 0,769.375002 h 49.29687 V 10.773438 h -49.29687"
       id="path11697"
       inkscape:connector-curvature="0" />
    <path
       style="fill:#cc0f3d;fill-opacity:1;fill-rule:evenodd;stroke:none"
       d="m 383.125,10.773438 c 36.9375,259.605472 36.9375,516.062502 0,769.375002 H 278.23828 V 10.773438 H 383.125"
       id="path11699"
       inkscape:connector-curvature="0" />
    <path
       style="fill:#ffffff;fill-opacity:1;fill-rule:nonzero;stroke:none"
       d="m 242.28516,339.92578 v 2.45703 h 9.79296 v -2.45703 z m 0,-36.18359 v 2.45312 h 9.79296 v -2.45312 z m -4.27344,284.5664 7.9414,3.82032 -7.9414,3.65234 z m -6.11328,15.64063 17.53906,-8.63672 c 0.30859,-0.13281 0.56641,-0.21484 0.76562,-0.21484 0.48047,0 0.70313,0.29687 0.96094,1.07031 h 0.55469 v -7.65235 h -0.55469 c -0.22265,0.77735 -0.55859,1.20313 -1.07422,1.20313 -0.21093,0 -0.38672,-0.0859 -0.65234,-0.21094 l -17.53906,-8.38672 c -1.03125,-0.46875 -1.84766,-0.73047 -2.19141,-2.01953 h -0.55859 v 7.01172 h 0.55859 c 0.26172,-0.78125 0.51563,-1.08203 0.98828,-1.08203 0.21485,0 0.47656,0.0859 0.78125,0.21484 l 3.47266,1.55078 v 10.35938 l -3.47266,1.63672 c -0.30469,0.1289 -0.5664,0.20703 -0.78125,0.20703 -0.47265,0 -0.72656,-0.29297 -0.98828,-1.07422 h -0.55859 v 8.12891 h 0.55859 c 0.26172,-1.03516 0.98828,-1.5 2.19141,-2.10547 z m 20.85547,-49.34375 v -0.55469 h -6.10938 v 0.55469 c 0.89844,0.21484 1.02734,0.42969 1.02734,1.24219 v 11.65625 l -17.23046,-13.66797 h -1.2461 v 19.99218 c 0,0.76954 -0.25781,1.03125 -1.12109,1.24219 v 0.5586 h 6.14453 v -0.5586 c -0.94531,-0.21094 -1.02734,-0.42969 -1.02734,-1.24219 v -11.99609 l 17.58593,13.79688 h 0.94141 v -19.78125 c 0,-0.8125 0.0859,-1.02735 1.03516,-1.24219 z m 0,-25.78906 v -0.5586 h -6.10938 v 0.5586 c 0.89844,0.21093 1.02734,0.42968 1.02734,1.24609 v 11.64453 l -17.23046,-13.66797 h -1.2461 v 19.99219 c 0,0.76953 -0.25781,1.02734 -1.12109,1.24219 v 0.5664 h 6.14453 v -0.5664 c -0.94531,-0.21485 -1.02734,-0.42969 -1.02734,-1.24219 v -11.99609 l 17.58593,13.80468 h 0.94141 V 530.0625 c 0,-0.81641 0.0859,-1.03516 1.03516,-1.24609 z m -1.58985,-13.67188 c -0.17187,0.86328 -0.42969,1.03516 -1.24609,1.03516 h -18.95703 c -0.82422,0 -1.03516,-0.17188 -1.25391,-1.03516 h -0.55859 v 7.05469 h 0.55859 c 0.21875,-0.91016 0.42969,-1.03906 1.25391,-1.03906 h 18.95703 c 0.8164,0 1.07422,0.17187 1.24609,1.03906 h 0.55469 v -7.05469 z m -8.94922,-14.38281 v -6.66406 h 5.72266 v 6.48437 c 0,3.91797 -0.64453,5.89453 -2.79688,5.89453 -2.05859,0 -2.92578,-1.89062 -2.92578,-5.71484 z m 9.50391,1.20312 v -13.89453 h -0.55469 c -0.22265,0.86328 -0.42969,1.07813 -1.24609,1.07813 h -18.95703 c -0.82422,0 -1.08203,-0.21485 -1.25391,-1.07813 h -0.55859 v 7.09766 h 0.55859 c 0.21875,-0.89844 0.42969,-1.07031 1.25391,-1.07031 h 7.42578 v 8.46875 c 0,5.375 2.6289,8.67968 6.79687,8.67968 4,0 6.53516,-3.22265 6.53516,-9.28125 z m -18.52734,-36.28906 v -14.48047 h 5.89062 v 9.06641 c 0,0.82031 -0.16797,1.08203 -1.03516,1.2539 v 0.55079 h 5.71875 v -0.55079 c -0.94531,-0.21875 -1.03125,-0.43359 -1.03125,-1.2539 v -9.06641 h 4.98829 v 14.22266 c 0,0.82422 -0.22266,1.08203 -1.07813,1.25781 v 0.55469 h 6.14844 v -0.55469 c -0.94922,-0.21875 -1.07422,-0.43359 -1.07422,-1.25781 v -20.2461 h -0.55469 c -0.17187,0.86329 -0.42969,1.07422 -1.24609,1.07422 h -18.95703 c -0.82422,0 -1.03516,-0.21093 -1.25391,-1.07422 h -0.55859 v 20.50391 c 0,0.82422 -0.21094,1.08203 -1.07422,1.25 v 0.55859 h 6.14453 v -0.55859 c -0.94531,-0.21094 -1.02734,-0.42578 -1.02734,-1.25 z m 9.41406,-36.61719 5.98437,7.4336 c 0.34375,0.42968 1.28907,1.54687 2.57422,3.78125 h 0.55469 v -9.4961 h -0.55469 c -0.13672,0.64063 -0.42969,0.98438 -0.73047,0.98438 -0.42968,0 -0.64843,-0.29688 -0.99609,-0.73047 l -7.25391,-9.07031 h 7.73438 c 0.8164,0 1.07422,0.21484 1.24609,1.07422 h 0.55469 v -7.08985 h -0.55469 c -0.17187,0.85547 -0.42969,1.07813 -1.24609,1.07813 h -18.95703 c -0.82422,0 -1.03516,-0.22266 -1.25391,-1.07813 h -0.55859 v 7.08985 h 0.55859 c 0.21875,-0.90235 0.42969,-1.07422 1.25391,-1.07422 h 6.05468 l 2.66797,3.4375 -7.94922,6.7539 c -0.4414,0.33985 -0.6914,0.64063 -0.99218,0.64063 -0.39453,0 -0.69141,-0.33985 -0.77344,-0.94531 h -0.55859 v 8.90625 h 0.55859 c 0.64453,-1.25782 1.32422,-2.11329 2.14844,-2.80079 z m -4.59375,-34.99218 7.9414,3.8164 -7.9414,3.66016 z m -6.11328,15.64453 17.53906,-8.64453 c 0.30859,-0.125 0.56641,-0.21485 0.76562,-0.21485 0.48047,0 0.70313,0.30078 0.96094,1.07813 h 0.55469 v -7.64844 h -0.55469 c -0.22265,0.76953 -0.55859,1.20312 -1.07422,1.20312 -0.21093,0 -0.38672,-0.0898 -0.65234,-0.21484 l -17.53906,-8.38672 c -1.03125,-0.47265 -1.84766,-0.73437 -2.19141,-2.02344 h -0.55859 v 7.00782 h 0.55859 c 0.26172,-0.76953 0.51563,-1.07422 0.98828,-1.07422 0.21485,0 0.47656,0.0898 0.78125,0.21484 l 3.47266,1.54688 v 10.36718 l -3.47266,1.63672 c -0.30469,0.1211 -0.5664,0.20703 -0.78125,0.20703 -0.47265,0 -0.72656,-0.29296 -0.98828,-1.07812 h -0.55859 v 8.125 h 0.55859 c 0.26172,-1.02734 0.98828,-1.5 2.19141,-2.10156 z m 1.07031,-38.64453 v -7.22657 h 6.15625 v 7.39063 c 0,3.82812 -0.82422,5.76562 -3.08984,5.76562 -2.50391,0 -3.06641,-1.89453 -3.06641,-5.92968 z m 15.08984,-7.22657 v 7.95703 c 0,3.22266 -0.55859,4.59766 -2.49218,4.59766 -1.66797,0 -2.44141,-1.29297 -2.44141,-3.99609 v -8.5586 z m -6.78125,14.23047 c 1.06641,2.0625 2.6211,3.09375 4.67578,3.09375 3.4375,0 5.76563,-2.7539 5.76563,-8.08203 v -15.26172 h -0.55469 c -0.17187,0.85938 -0.42969,1.08203 -1.24609,1.08203 h -18.95703 c -0.82422,0 -1.03516,-0.22265 -1.25391,-1.08203 h -0.55859 v 14.75 c 0,6.0586 2.53906,9.28906 6.61718,9.28906 2.50391,0 4.26172,-1.2539 5.51172,-3.78906 z m 9.88672,-48.53515 c -0.22265,0.94531 -0.42969,1.07812 -1.24609,1.07812 h -12.90235 l 12.47266,-12.25781 c 0.39063,-0.38672 0.6875,-0.59766 1.03125,-0.59766 0.29688,0 0.55469,0.26172 0.64453,0.72656 h 0.55469 v -8.07812 h -0.55469 c -0.17187,0.85547 -0.42969,1.07812 -1.24609,1.07812 h -18.95703 c -0.82422,0 -1.03516,-0.22265 -1.25391,-1.07812 h -0.55859 v 6.44531 h 0.55859 c 0.21875,-0.89844 0.42969,-1.02734 1.25391,-1.02734 h 13.49218 l -13.0664,12.84765 c -0.39063,0.39063 -0.69141,0.60547 -1.03906,0.60547 -0.29688,0 -0.55469,-0.25781 -0.64063,-0.72656 h -0.55859 v 7.4375 h 0.55859 c 0.17188,-0.86719 0.42969,-1.03125 1.25391,-1.03125 h 18.95703 c 0.8164,0 1.02344,0.20703 1.24609,1.07031 h 0.55469 v -6.49218 z m -17.97265,-42.08204 v -14.48828 h 5.89062 v 9.06641 c 0,0.81641 -0.16797,1.07422 -1.03516,1.25 v 0.55859 h 5.71875 v -0.55859 c -0.94531,-0.21875 -1.03125,-0.43359 -1.03125,-1.25 v -9.06641 h 4.98829 v 14.22657 c 0,0.82031 -0.22266,1.07812 -1.07813,1.25 V 289 h 6.14844 v -0.55859 c -0.94922,-0.21485 -1.07422,-0.42969 -1.07422,-1.25 v -20.2461 h -0.55469 c -0.17187,0.85938 -0.42969,1.07422 -1.24609,1.07422 h -18.95703 c -0.82422,0 -1.03516,-0.21484 -1.25391,-1.07422 h -0.55859 v 20.50781 c 0,0.81641 -0.21094,1.07422 -1.07422,1.2461 v 0.55859 h 6.14453 v -0.55859 c -0.94531,-0.21485 -1.02734,-0.42969 -1.02734,-1.2461 z m 9.41406,-36.6289 5.98437,7.4375 c 0.34375,0.42578 1.28907,1.54687 2.57422,3.78125 h 0.55469 v -9.4961 h -0.55469 c -0.13672,0.64454 -0.42969,0.98829 -0.73047,0.98829 -0.42968,0 -0.64843,-0.30079 -0.99609,-0.73047 l -7.25391,-9.07422 h 7.73438 c 0.8164,0 1.07422,0.21484 1.24609,1.07812 h 0.55469 v -7.09375 h -0.55469 c -0.17187,0.85547 -0.42969,1.07813 -1.24609,1.07813 h -18.95703 c -0.82422,0 -1.03516,-0.22266 -1.25391,-1.07813 h -0.55859 v 7.09375 h 0.55859 c 0.21875,-0.90625 0.42969,-1.07812 1.25391,-1.07812 h 6.05468 l 2.66797,3.4375 -7.94922,6.75 c -0.4414,0.34765 -0.6914,0.64453 -0.99218,0.64453 -0.39453,0 -0.69141,-0.34375 -0.77344,-0.94141 h -0.55859 v 8.89453 h 0.55859 c 0.64453,-1.24218 1.32422,-2.10546 2.14844,-2.78906 z m -4.59375,-34.99219 7.9414,3.82813 -7.9414,3.64843 z m -6.11328,15.64844 17.53906,-8.64063 c 0.30859,-0.1289 0.56641,-0.21484 0.76562,-0.21484 0.48047,0 0.70313,0.30078 0.96094,1.07422 h 0.55469 v -7.65235 h -0.55469 c -0.22265,0.77735 -0.55859,1.20313 -1.07422,1.20313 -0.21093,0 -0.38672,-0.082 -0.65234,-0.21094 l -17.53906,-8.38672 c -1.03125,-0.47265 -1.84766,-0.73047 -2.19141,-2.01953 h -0.55859 v 7.00781 h 0.55859 c 0.26172,-0.77343 0.51563,-1.08203 0.98828,-1.08203 0.21485,0 0.47656,0.0898 0.78125,0.21875 l 3.47266,1.54688 v 10.35937 l -3.47266,1.63672 c -0.30469,0.12891 -0.5664,0.21485 -0.78125,0.21485 -0.47265,0 -0.72656,-0.30079 -0.98828,-1.07032 h -0.55859 v 8.1211 h 0.55859 c 0.26172,-1.03125 0.98828,-1.50391 2.19141,-2.10547 z m 19.82031,-27.11719 v -18.91797 c 0,-0.8164 0.21875,-1.07812 1.07422,-1.25 v -0.55469 h -6.10547 v 0.55469 c 0.89844,0.21875 1.03516,0.4336 1.03516,1.25 v 6.96485 h -16.76172 c -0.82422,0 -1.03516,-0.21875 -1.25391,-1.07422 h -0.55859 v 7.04687 h 0.55859 c 0.21875,-0.90625 0.42969,-1.03125 1.25391,-1.03125 h 16.76172 v 7.01172 c 0,0.8125 -0.22266,1.07031 -1.07813,1.24219 v 0.55859 h 6.14844 v -0.55859 c -0.94922,-0.21485 -1.07422,-0.42969 -1.07422,-1.24219"
       id="path11701"
       inkscape:connector-curvature="0" />
    <path
       style="fill:#ffffff;fill-opacity:1;fill-rule:nonzero;stroke:none"
       d="m 342.07422,712.07422 c 0,1.21484 0.54687,2.25781 1.63281,3.11328 l 1.97266,1.43359 c 2.65234,1.55469 4.67578,3.61328 6.47265,5.4336 2.40235,2.43359 5.52344,5.88672 10.22266,5.33984 2.35156,-0.27344 4.03906,-1.16016 4.98047,-3.03516 0.58594,-1.16406 0.82422,-2.28515 0.88281,-3.41796 0.19922,-4.19141 -2.19922,-3.69532 -2.19922,-3.69532 -4.15234,1.9336 -7.10937,-1.05078 -10.50781,-3.65234 -2.79297,-2.15234 -5.69531,-4.375 -10.14063,-5.06641 -1.07421,0.0508 -1.90625,0.38672 -2.46093,0.9961 -0.56641,0.60156 -0.85547,1.45312 -0.85547,2.55078 z M 304,628.10937 c 5.65234,-0.35937 17.77734,5.51172 36.05859,17.42969 2.19141,1.44922 4.1211,2.13281 5.71485,2.04297 1.80468,-0.0742 3.44531,-0.95312 4.85937,-2.60937 1.03906,-1.19532 1.57031,-2.82813 1.57031,-4.85157 0,-1.42968 -0.26953,-3.10937 -0.80078,-4.97656 -1.42578,-4.95312 -4.96093,-10.84766 -10.52734,-17.51172 -3.39453,-4.13281 -6.75,-7.64062 -10.04297,-10.49219 18.01563,9.67969 31.11328,17.77344 38.97266,24.10547 4.61718,3.75 7.19922,5.96485 7.69531,6.5586 0.63672,0.75781 1.3125,1.1289 2.00781,1.08203 0.67969,-0.0273 1.41406,-0.49219 2.23828,-1.44531 0.88672,-1.10938 1.34375,-2.62891 1.34375,-4.50782 0,-0.32422 -0.0117,-0.67578 -0.0391,-1.02734 -0.17969,-2.50391 -0.73047,-4.57813 -1.65234,-6.17188 -0.45703,-0.80468 -1.41016,-1.98828 -2.82813,-3.5039 -5.16797,-5.60938 -14.88672,-12.61719 -28.88281,-20.86328 -19.62891,-11.52735 -32.42188,-17.58203 -39.08594,-18.50391 -3.47265,-0.48047 -5.72265,-0.0625 -6.85937,1.28125 -1.07422,1.26172 -1.6211,2.86719 -1.6211,4.73828 0,2.53906 0.91797,4.3711 2.75,5.4375 9.69532,5.59375 17.08985,10.70313 21.96094,15.1875 4.85938,4.44531 8.98828,9.5586 12.26953,15.1836 0.82422,1.44531 1.13281,2.29296 1.13281,2.86328 0,0.14453 -0.0156,0.27343 -0.0586,0.38672 -0.21094,0.0156 -0.82031,-0.11329 -2.44922,-1.09375 -10.58984,-6.59766 -19.24219,-9.79297 -25.73828,-9.47657 -5.42969,0.25782 -8.65234,2.48047 -9.59375,6.63282 -0.17578,1.01562 -0.26953,1.79687 -0.26953,2.39062 0.125,1.16016 0.78906,1.76953 1.875,1.71484 z m 36.85547,-105.90234 c 0,0.60156 -0.21875,1.30078 -0.64844,2.07422 -0.54687,0.95703 -0.79687,1.66016 -0.79687,2.19141 0,1.26171 0.83203,2.30078 2.46484,3.11718 1.50391,0.75391 2.94531,1.10547 4.26953,1.04297 4.12891,-0.1914 4.99219,-2.5 4.99219,-4.41406 0,-3.14063 -2.39063,-7.01172 -7.28125,-11.82031 -2.21485,-2.19141 -5.02735,-4.62891 -8.39063,-7.29688 l 3.53907,2.16797 c 3.89062,2.25 6.65234,3.34766 8.4414,3.35547 1.6836,0.008 3.21094,-1.07031 4.53906,-3.20313 0.83594,-1.45703 1.25,-2.76562 1.25,-3.99609 0,-1.83594 -1.05859,-3.44141 -3.16406,-4.76562 -16.25,-9.69141 -28.45703,-16.51563 -36.28515,-20.30469 -2.1211,-0.98828 -3.80469,-1.44531 -5.11719,-1.3711 -1.46875,0.0703 -2.92578,0.8711 -4.46094,2.46485 -1.13672,1.26953 -1.70312,3 -1.70312,5.14062 0,2.28125 1.625,4.50782 4.88671,6.66407 2.53907,1.35937 5.04297,2.71875 7.47657,4.0664 11.83593,7.56641 20.21093,14.95703 24.89453,21.96875 0.71094,1.07422 1.08594,2.0586 1.09375,2.91797 z m 10.2539,178.05859 c 0.5625,-1.14062 0.84766,-2.24218 0.84766,-3.26953 0,-2.48437 -2.16406,-5.10156 -6.60547,-8 C 337.51172,683.81641 331.50781,679.23047 327.5,675.375 316.73047,665.05469 314.28125,661.39062 314.28125,660.16797 v -0.0234 c 2.68359,-0.13672 11.75781,4.64453 26.96484,14.17188 1.05469,0.72265 2.41016,1.04296 4.15235,0.96875 2.66015,-0.13672 4.53515,-1.28516 5.59765,-3.45313 0.63672,-1.5 0.96094,-2.86328 0.96094,-4.05078 0,-2.35547 -1.45703,-4.46484 -4.33594,-6.28516 C 330.73437,651 319.125,644.61719 313.11328,642.53906 c -1.53906,-0.55078 -3.05859,-0.80078 -4.53906,-0.73047 -4.47266,0.21094 -6.83594,2.58985 -6.83594,6.85157 0,5.35937 3.63281,12.17187 10.80078,20.27343 4.28516,4.79297 8.57031,8.8086 12.80078,12.02344 -4.91406,-2.28125 -9.80078,-4.55078 -14.67187,-6.83203 -10.39844,-5.00391 -18.57422,-9.75 -24.28906,-14.10547 -7.8125,-6.01172 -16.41407,-20.62891 -16.57813,-26.36719 0,-1.07031 0.23828,-2.3164 0.68359,-3.66406 0.75391,-2.17969 0.75391,-2.56641 0.75391,-2.69531 0,-0.33985 -0.12891,-0.64453 -0.375,-0.8711 -0.48828,-0.46484 -1.42969,-0.65234 -2.9375,-0.55859 -2.55078,0.10938 -3.78125,3.39063 -3.78125,10.03906 v 0.0586 c 0,8.29687 9.06641,25.61718 17.64453,33.70312 6.52735,6.0625 15.90625,12.33594 27.88281,18.66406 2.16797,1.10157 12.01172,5.83204 27.00391,12.98438 3.82813,1.76172 6.89063,2.60547 9.08594,2.49609 2.39844,-0.10547 4.19922,-1.29297 5.34765,-3.54297 z m -2.5039,-114.21875 c 2.82812,-0.61328 4.26172,-2.96484 4.26172,-6.98046 0,-6.6836 -5.52344,-15.06641 -16.4375,-24.96485 3.49609,2.16797 5.93359,3.69531 7.32031,4.58203 1.23437,0.78907 2.44141,1.16016 3.59766,1.10547 1.7539,-0.0937 3.26562,-1.07812 4.48828,-2.91015 0.95312,-1.36329 1.44922,-2.94141 1.44922,-4.70313 0,-0.97266 -0.14844,-2.02734 -0.44141,-3.11328 -0.41406,-1.58984 -2.70313,-4.66797 -17.66797,-12.98438 -8.74609,-4.85156 -17.49609,-9.19921 -26.24219,-12.96484 -0.043,0 -0.2539,0 -0.76953,-0.27734 -0.46484,-0.26172 -0.85547,-0.4336 -1.10937,-0.5 -13.55078,-5.29688 -23.64453,-7.82032 -30.00782,-7.51953 -1.8125,0.0859 -3.44921,0.35156 -4.85546,0.77734 -4.60938,1.21484 -8.01172,4.0625 -10.11329,8.51172 -0.0742,0.21094 -0.10937,0.41406 -0.10937,0.61719 0,0.41406 0.15234,0.80468 0.48437,1.16796 0.46094,0.49219 1.03516,0.72266 1.75,0.69141 0.48047,-0.0312 0.90625,-0.23437 1.23438,-0.57812 0.69531,-0.625 1.37109,-1.05469 2.06641,-1.31641 0.47656,-0.17969 1.32031,-0.35156 2.51953,-0.48828 3.07031,-0.39844 8.65234,0.90625 16.61718,3.8789 5.83204,2.14063 11.40235,4.55469 16.54297,7.16797 7.40235,3.78907 15.04297,8.82032 22.72657,14.95703 3.87109,3.0586 7.33984,6.48047 10.32421,10.16407 2.89844,3.58593 4.36329,6.3164 4.36329,8.10547 0,0.58203 -0.1836,1.20312 -1.60157,1.26953 -0.57422,0.0312 -1.32812,-0.0625 -2.23047,-0.26172 -3.92968,-0.92188 -8.69531,-3.42578 -14.17578,-7.48438 -7.24218,-5.22656 -13.0039,-13.34765 -14.01953,-19.20312 -0.008,-0.0195 0.004,-0.0391 0.004,-0.0664 -0.0703,-0.69922 -0.35547,-2.19922 -1.55078,-2.60547 0,0 -2.73047,-1.10547 -4.05469,3.02735 -0.31641,1.08203 -0.45313,1.55859 -0.45313,3.03906 0,2.20312 0.41016,4.83594 1.21485,7.81641 2.5,9.04687 8.67578,17.00781 18.35937,23.65625 8.80469,6.07421 16.89453,8.98828 24.05078,8.64453 0.90235,-0.0352 1.73438,-0.11719 2.46485,-0.25782 z m -52.41406,162.96875 c 0,-3.9375 3.19921,-7.12109 7.14062,-7.12109 3.93359,0 7.125,3.18359 7.125,7.12109 0,3.94141 -3.19141,7.14454 -7.125,7.14454 -3.94141,0 -7.14062,-3.20313 -7.14062,-7.14454 z m 16.01953,0 c 0,-4.91406 -3.96094,-8.88281 -8.87891,-8.88281 -4.90625,0 -8.87891,3.96875 -8.87891,8.88281 0,4.91016 3.97266,8.86719 8.87891,8.86719 4.91797,0 8.87891,-3.95703 8.87891,-8.86719 z m -8.26172,0.23438 v -1.96094 h 2.58984 v 1.75781 c 0,1.27735 -0.45703,1.9375 -1.29297,1.9375 -0.66406,0 -1.29687,-0.42578 -1.29687,-1.73437 z m -1.25391,1.21484 h 0.043 c 0.19141,1.59375 1.21094,2.53907 2.63672,2.53907 1.48437,0 2.63672,-0.94532 2.63672,-2.96875 v -4.64844 h -9.42188 v 1.90234 h 3.85938 v 0.35156 c 0,0.83204 -0.0899,1.15625 -0.46875,1.54297 -0.37891,0.38282 -1.1875,0.94532 -1.85156,1.28125 l -1.53907,0.75782 v 2.35156 l 1.89453,-1.09375 c 1.66407,-0.94922 1.92579,-1.20703 2.21094,-2.01563 z m 37.12891,-3.77343 c 0,0.69921 0.20703,1.24218 0.61719,1.63671 0.45312,0.4375 1.13671,0.64454 2.05078,0.60938 1.16015,-0.0625 2.32812,-0.54297 3.46875,-1.44922 2.30468,-1.92578 3.70312,-4.25781 4.14843,-6.92578 0.19532,-1.23438 0.29297,-2.40625 0.29297,-3.55078 0,-7.46875 -5.01172,-12.125 -14.91406,-13.82031 -7.1875,-1.07813 -14.39844,-2.11329 -21.56641,-3.08594 -5.5664,-1.19922 -8.27734,-3.42578 -8.27734,-6.82813 l 0.0156,-0.51562 c 0,-0.83594 0.73828,-1.63281 2.16796,-2.39453 1.79688,-0.94922 2.75782,-2.19141 2.84375,-3.7461 0,-0.98437 -0.28125,-1.75781 -0.85937,-2.3125 -0.70703,-0.67187 -1.84375,-0.98047 -3.36719,-0.90234 -2.40625,0.0977 -4.43359,2.14062 -6.01172,6.07812 -1.16797,3.05469 -1.75781,5.92188 -1.77343,8.52735 v 0.0742 c 0,5.59765 1.68359,10.03125 4.98828,13.16797 4.20312,4.18359 10.89453,6.10546 19.89453,5.69921 7.38672,-0.32812 12.44922,-0.34375 15.47265,-0.0469 3.08985,0.32812 4.65625,1.13672 4.65625,2.375 -0.004,0.64062 -0.42968,1.86719 -2.40234,4.10937 -0.95312,1.17969 -1.44531,2.28516 -1.44531,3.30079 z M 315.78906,123.75 c 0,-0.48828 0.15235,-0.94531 1.19922,-1 0.57031,-0.0273 1.22266,0.0703 1.98047,0.28125 5.79687,1.35156 11.90234,4.88672 18.16797,10.51562 6.73828,6.10547 10.15625,11.89454 10.15625,17.19532 0,1.94531 -0.57813,3.53906 -2.00391,3.82812 -3.96094,0.79688 -29.5,-25.61719 -29.5,-30.82031 z m 30.88672,38.62891 0.41406,-0.17188 c 4.32032,-1.67578 6.08203,-5.87891 6.08203,-14.49609 l -0.004,-0.61719 c 0,-3.03516 -0.40235,-5.9375 -1.21094,-8.59766 -2.48437,-9.03125 -8.86328,-17.16015 -18.97266,-24.15625 -9.22656,-6.41406 -17.50781,-9.49218 -24.63281,-9.13671 -0.82031,0.0312 -1.60547,0.11328 -2.35547,0.25781 -2.45312,0.58984 -3.69922,2.71094 -3.69922,6.30078 0,7.46484 5.75391,16.65234 16.69532,26.70312 -1.67969,-0.57812 -3.57813,-0.85156 -6.04297,-0.73828 -6.5625,0.3086 -10.53125,2.78125 -11.8086,7.33594 -0.26953,0.89844 -0.40234,1.625 -0.40234,2.22656 0,1.30469 0.66406,2.0625 1.81641,2.07813 3.97265,0.0742 9.00781,1.35937 14.92187,3.79297 5.89063,3.01171 10.34766,5.3789 13.65625,7.39843 8.14063,4.87891 13.33594,2.73047 15.54297,1.82032 z m 1.98828,62.40625 c 2.82813,-0.61329 4.26172,-2.96875 4.26172,-6.98438 0,-6.67969 -5.52734,-15.06641 -16.4375,-24.95703 3.49609,2.16406 5.93359,3.6875 7.32031,4.57812 1.23438,0.78907 2.44141,1.16407 3.59375,1.10547 1.75782,-0.0898 3.26953,-1.07812 4.48828,-2.91015 0.95704,-1.36328 1.45313,-2.94141 1.45313,-4.70703 0,-0.96875 -0.15234,-2.01954 -0.44531,-3.10938 -0.41016,-1.58984 -2.70313,-4.67187 -17.66797,-12.98828 -8.74219,-4.84766 -17.4961,-9.19531 -26.23828,-12.96094 -0.043,0 -0.25391,0 -0.76953,-0.27734 -0.46485,-0.26172 -0.85547,-0.4336 -1.10938,-0.50391 -13.55469,-5.29297 -23.64453,-7.8164 -30.01172,-7.51562 -1.8125,0.0898 -3.44922,0.35156 -4.85547,0.77343 -4.60547,1.21875 -8.00781,4.06641 -10.11328,8.51563 -0.0703,0.21484 -0.10547,0.41406 -0.10547,0.61719 0,0.41406 0.15235,0.80468 0.48438,1.16406 0.45703,0.49219 1.03515,0.72266 1.74609,0.69141 0.48047,-0.0273 0.91016,-0.23047 1.23438,-0.57422 0.69922,-0.625 1.37109,-1.05469 2.0664,-1.31641 0.47657,-0.18359 1.32422,-0.34766 2.51953,-0.48828 3.07032,-0.39844 8.65235,0.90625 16.6211,3.875 5.82812,2.14453 11.40234,4.55859 16.53906,7.16797 7.40234,3.79687 15.04297,8.82812 22.72656,14.96094 3.8711,3.05859 7.34375,6.48046 10.32422,10.16406 2.90235,3.58594 4.36719,6.3164 4.36719,8.10156 0,0.58984 -0.1875,1.20703 -1.60547,1.27344 -0.57422,0.0312 -1.32422,-0.0586 -2.23047,-0.26172 -3.92969,-0.91797 -8.6914,-3.42969 -14.17187,-7.48047 -7.24219,-5.22656 -13.00782,-13.35156 -14.02344,-19.20312 -0.004,-0.0234 0.004,-0.0469 0.004,-0.0703 -0.0664,-0.69922 -0.35547,-2.19922 -1.54688,-2.60547 0,0 -2.73437,-1.10156 -4.05859,3.02735 -0.31641,1.08203 -0.45313,1.55859 -0.45313,3.03906 0,2.20313 0.41016,4.83594 1.21485,7.82031 2.5039,9.04297 8.67968,17.00391 18.36328,23.65235 8.80078,6.07422 16.89062,8.99218 24.04687,8.64453 0.90235,-0.0391 1.73438,-0.1211 2.46875,-0.25781 z m 12.6875,-103.08594 c 12.89063,0 18.59766,-14.26563 19.04297,-32.148439 0.42188,-16.863281 -5.48437,-31.027343 -11.76953,-40.492187 -0.88281,-1.328125 -1.99609,-2.023438 -3.50391,-1.949219 -0.61328,0.02344 -1.17578,0.203125 -1.71875,0.542969 -1.15234,0.753906 -1.73828,1.714844 -1.73828,2.871094 0,0.828124 0.33203,1.730468 0.92578,2.730468 8.0586,13.59375 8.54297,25.125 8.54297,25.125 -9.10547,-7.992187 -17.0625,-14.171875 -24.9375,-19.390625 C 337.67578,53.390625 331.01172,49.375 326.375,47.070312 c -7.08984,-3.53125 -13.12891,-5.199218 -17.9375,-4.976562 -1.79688,0.09375 -3.53125,0.453125 -5.17578,1.078125 -1.1836,0.496094 -2.48047,1.429687 -3.98438,2.832031 -1.30468,1.234375 -1.93359,2.363282 -1.93359,3.445313 0,0.210937 0.0195,0.421875 0.0781,0.625 l 0.0547,0.246093 0.23438,0.105469 c 0.91406,0.414063 1.82422,0.65625 2.67187,0.714844 1.70313,0.167969 4.30078,1.039063 7.74219,2.578125 10.30859,4.722656 21.59766,11.308594 33.52734,19.570312 14.2461,9.828126 23.89453,17.183594 28.67188,21.886719 0.85937,0.8125 1.28515,1.816407 1.28515,3.082031 0,3.007818 -1.64843,5.031248 -5.02734,6.179688 -1.44531,0.49609 -2.89844,0.77344 -4.31641,0.83984 -6.70312,0.32422 -12.96093,-3.09375 -18.59765,-10.156246 -4.73047,-5.917969 -7.14063,-11.742188 -7.14063,-17.320313 0,-0.796875 0.0586,-1.585937 0.14844,-2.378906 0.0469,-0.351563 0.0703,-0.679687 0.0703,-0.972656 0,-0.929688 -0.23437,-1.617188 -0.68359,-2.046875 -0.39063,-0.367188 -0.90625,-0.535156 -1.55859,-0.503906 -2.32032,0.105468 -3.40235,3.722656 -3.40235,11.382812 0,0.878906 0.0156,1.8125 0.043,2.789062 0.26172,8.617188 3.69922,16.863278 10.21094,24.531248 6.53906,7.69141 13.26172,11.09766 19.99609,11.09766 z M 344.625,486.14062 c 2.42187,0.17579 4.36719,-1.10546 5.77734,-3.80468 0.73828,-1.39063 1.11328,-2.88282 1.11328,-4.44532 0,-0.76953 -0.0937,-1.57031 -0.26562,-2.35937 -0.20313,-1.06641 -0.83203,-2.07422 -1.79297,-2.85938 -0.14453,-0.21484 -0.47266,-0.58593 -1.82031,-1.61328 l -12.65235,-10.26172 c -8.10546,-6.625 -14.32421,-13.03515 -18.49609,-19.04687 -0.97656,-1.375 -1.16797,-2.00391 -1.16797,-2.36719 v -0.0547 c 0.69531,-0.125 4.67578,1.35938 23.53516,12.67969 2.92578,1.77735 5.22656,2.59766 7.01172,2.50781 2.10937,-0.10156 3.85937,-1.32031 5.19531,-3.64062 0.74609,-1.375 1.11328,-2.58594 1.11328,-3.71094 0,-2.45703 -1.76172,-4.8125 -5.27344,-7.02344 -11.91797,-7.36328 -22.08203,-13.1875 -30.19922,-17.30859 -2.71093,-1.39062 -5.27734,-2.03906 -7.65234,-1.92578 -4.61328,0.22656 -6.95312,2.80078 -6.95312,7.64844 0,4.90625 4.05078,11.51953 12.39843,20.21484 2.22266,2.33203 6.82032,6.64453 13.69532,12.85156 -6.20704,-3.16797 -11.73829,-4.66015 -16.49219,-4.42187 -4.44141,0.21484 -7.86719,1.80078 -10.16797,4.73047 -0.68359,0.9414 -1.00781,1.83203 -1.00781,2.73047 0,0.51171 0,0.76562 10.35156,4.59375 6.72656,2.51953 10.29297,3.8789 10.60156,4.03125 9.94141,5.6875 16.27344,9.43359 18.8125,11.13671 1.56641,1.01563 3.01953,1.59375 4.33594,1.71875 z m 20.1875,-50.35937 c 2.57422,1.64844 5.22656,2.1875 7.87109,1.63281 3.80078,-0.8125 5.72657,-2.86719 5.72657,-6.10156 0,-0.63281 -0.0781,-1.33594 -0.23047,-2.05078 -0.90625,-4.57813 -5.07032,-11.47656 -12.72657,-21.10547 -5.91015,-7.41406 -11.36718,-13.48828 -16.20703,-18.03516 l -3.63281,-3.39062 c 1.48047,0.77734 2.71484,1.42578 3.70703,1.95312 8.75,3.96094 14.39063,5.73828 17.2461,5.4375 3.69531,-0.41015 5.65234,-2.55078 5.65234,-6.20703 0,-0.23047 -0.0117,-0.46484 -0.0234,-0.70312 -0.50781,-8.10938 -12.17578,-21.63282 -35.66797,-41.34766 8.42188,4.59766 13.90625,7.48047 16.78516,8.82422 10.34766,4.76562 17.86719,6.81641 22.96875,6.25391 4.71094,-0.51954 7.09766,-3.30469 7.09766,-8.28125 0,-0.33594 -0.0117,-0.67969 -0.0312,-1.02735 -0.45704,-7.22656 -3.56641,-14.99219 -9.27344,-23.08594 -4.1836,-5.98437 -8.73828,-10.97656 -13.54297,-14.82812 -1.98828,-1.66016 -3.62891,-2.39844 -5.01953,-2.25391 -2.41016,0.27344 -2.92969,1.77735 -2.92969,3.30078 v 0.0312 c 0.0898,1.67579 1.00781,2.96875 2.74609,3.85938 3.03907,1.48828 7.69922,4.17578 13,10.41406 5.8086,6.77735 8.08594,12.78906 8.27344,16.16797 0,0.71875 -0.17969,1.24609 -0.55859,1.61719 -0.51172,0.49609 -1.41016,0.73828 -2.67578,0.71094 -4.73047,-0.0859 -15.33594,-4.91407 -31.51172,-14.36719 -22.50391,-13.1211 -32.63281,-18.94531 -33.82031,-19.47266 -0.91016,-0.48437 -1.96094,-0.66797 -3.11719,-0.54687 -2.92188,0.32031 -4.84766,1.875 -5.73438,4.64062 -0.25781,0.86719 -0.375,1.76953 -0.375,2.67188 l 0.0156,0.57031 c 0.18359,3.13281 1.33984,5.33203 3.39844,6.53516 7.63281,4.48828 18.58984,12.39453 32.53906,23.5039 8.36328,6.66797 16.09375,14.42578 22.98828,23.0625 0.65234,0.82813 0.91406,1.34766 0.91406,1.73438 0,0.14453 -0.0351,0.27734 -0.11328,0.39843 -0.45312,0.0547 -1.44141,-0.0859 -3.48047,-0.99609 -15.15234,-7.07812 -27.65234,-13.32422 -37.14844,-18.55859 -1.4375,-0.78125 -3.02734,-1.08985 -4.70703,-0.89844 -2.34765,0.25 -4.10547,1.26562 -5.25781,3.01953 -0.67969,1.17188 -1.03125,2.43359 -1.03125,3.75391 l 0.0156,0.46875 c 0.14062,2.34765 1.125,4.11718 2.91015,5.25781 12.83985,8.09766 22.5586,14.85547 28.89844,20.08984 13.12891,10.88672 22.10156,20.875 26.65234,29.65625 0.24219,0.5625 0.35547,0.91797 0.35547,1.2461 0,0.14062 -0.0156,0.26953 -0.0508,0.40625 -0.15234,0.0117 -0.47656,-0.0117 -1.02344,-0.3125 -28.17578,-16.63672 -41.86718,-22.47657 -52.3125,-22.29297 -6.33203,0.14844 -10.53906,2.33203 -12.4375,6.40625 -0.35156,0.48437 -0.51562,1.08984 -0.51562,2.15234 v 0.0742 c 0.0234,0.61328 0.21875,1.08203 0.5625,1.37109 0.20312,0.17579 0.57031,0.3711 1.16015,0.3086 l 2.09766,-0.24219 c 2.34375,0.25781 4.19531,0.61719 5.51953,1.07813 18.48047,5.9414 33.15235,13.13671 56.05469,27.49609 z M 315.78906,241.94141 c 0,-0.48829 0.15235,-0.94922 1.19922,-1 0.57031,-0.0312 1.22266,0.0664 1.98047,0.27734 5.79687,1.35547 11.90234,4.88672 18.16797,10.51562 6.73828,6.10547 10.15625,11.89454 10.15625,17.19532 0,1.94922 -0.57813,3.54297 -2.00391,3.82812 -3.96094,0.79688 -29.5,-25.61719 -29.5,-30.8164 z m 31.30078,38.45312 c 4.32032,-1.67578 6.08203,-5.87891 6.08203,-14.49219 l -0.004,-0.61718 c 0,-3.03907 -0.40235,-5.9375 -1.21094,-8.60157 -2.48437,-9.02734 -8.86328,-17.15625 -18.97266,-24.15625 -9.22656,-6.41015 -17.50781,-9.48828 -24.63281,-9.13281 -0.82031,0.0312 -1.60547,0.10938 -2.35547,0.25391 -2.45312,0.59375 -3.69922,2.71484 -3.69922,6.30078 0,7.46484 5.75391,16.65234 16.69532,26.70312 -1.67969,-0.57812 -3.57813,-0.84765 -6.04297,-0.73437 -6.5625,0.30859 -10.53125,2.78125 -11.8086,7.33594 -0.26953,0.89453 -0.40234,1.625 -0.40234,2.22656 0,1.30078 0.66406,2.05859 1.81641,2.07422 3.97265,0.0781 9.00781,1.35937 14.92187,3.79687 5.89063,3.00781 10.34766,5.375 13.65625,7.39844 8.14063,4.87891 13.33594,2.72656 15.54297,1.81641 l 0.41406,-0.17188"
       id="path11703"
       inkscape:connector-curvature="0" />
  </g>
</svg>
