<?xml version="1.0" encoding="UTF-8" standalone="no"?>
<!-- Created with Inkscape (http://www.inkscape.org/) -->

<svg
   xmlns:dc="http://purl.org/dc/elements/1.1/"
   xmlns:cc="http://creativecommons.org/ns#"
   xmlns:rdf="http://www.w3.org/1999/02/22-rdf-syntax-ns#"
   xmlns:svg="http://www.w3.org/2000/svg"
   xmlns="http://www.w3.org/2000/svg"
   xmlns:xlink="http://www.w3.org/1999/xlink"
   xmlns:sodipodi="http://sodipodi.sourceforge.net/DTD/sodipodi-0.dtd"
   xmlns:inkscape="http://www.inkscape.org/namespaces/inkscape"
   width="185.1236mm"
   height="98.690666mm"
   viewBox="0 0 185.12359 98.690663"
   version="1.1"
   id="svg1811"
   inkscape:version="0.92.4 (5da689c313, 2019-01-14)"
   sodipodi:docname="primo-nosh.svg">
  <defs
     id="defs1805">
    <linearGradient
       gradientTransform="matrix(0.35277776,0,0,0.35277776,-799.463,-1346.7544)"
       id="linear-gradient-39"
       x1="2492.6899"
       y1="4179.3901"
       x2="2491.3501"
       y2="4195.8599"
       xlink:href="#linear-gradient-27" />
    <linearGradient
       id="linear-gradient-27"
       x1="2168.8101"
       y1="4183.3999"
       x2="2161.3501"
       y2="4274.73"
       gradientUnits="userSpaceOnUse">
      <stop
         offset="0"
         stop-color="#f1f9fd"
         id="stop1818" />
      <stop
         offset="0.31"
         stop-color="#fafdff"
         id="stop1820" />
      <stop
         offset="0.65"
         stop-color="#e1ecf7"
         id="stop1822" />
      <stop
         offset="1"
         stop-color="#c1d7ec"
         id="stop1824" />
    </linearGradient>
    <linearGradient
       gradientTransform="matrix(0.35277776,0,0,0.35277776,-799.463,-1346.7544)"
       id="linear-gradient-38"
       x1="2108.25"
       y1="4045.1699"
       x2="2142.4299"
       y2="4045.1699"
       xlink:href="#linear-gradient-37" />
    <linearGradient
       id="linear-gradient-37"
       x1="2457.6799"
       y1="4044.74"
       x2="2489.2"
       y2="4044.74"
       gradientUnits="userSpaceOnUse">
      <stop
         offset="0"
         stop-color="#c4c9cd"
         id="stop1897" />
      <stop
         offset="1"
         stop-color="#dadfe2"
         id="stop1899" />
    </linearGradient>
    <clipPath
       id="clip-path-8"
       transform="translate(-67.77 -107.36)">
      <path
         class="cls-1"
         d="m 2650.19,4031.49 -0.53,0.1 c -48.44,11.4 -188.32,19.28 -348,19.59 -152.74,0.31 -288.6,-7.46 -344.89,-18.66 a 11,11 0 0 0 -9.33,2.38 15.36,15.36 0 0 0 -5.37,11.9 v 105.64 c 0,7.72 5,14.67 11.62,16.16 31.41,6.83 90.16,14.22 147.13,18.12 2.08,0.14 3.84,2.44 3.84,5 v 91.52 c 0,6.63 5.14,12.47 11.47,13 h 0.61 c 139.39,10.91 281.28,11.21 379.52,0.81 h 0.42 c 6.38,-0.56 11.52,-6.41 11.52,-13 v -92 c 0,-2.56 1.81,-4.91 3.88,-5 58.81,-3.92 120.7,-11.53 140.92,-17.31 6.42,-1.68 11.11,-8.43 11.11,-16 v -107.85 a 15.22,15.22 0 0 0 -4.74,-11.4 11.7,11.7 0 0 0 -9.18,-3 z m 3.58,9.18 a 7,7 0 0 1 2,5.22 v 107.82 c 0,3.7 -2.24,7.3 -5,8 -19.81,5.67 -81,13.15 -139.23,17 -6.43,0.35 -11.68,6.33 -11.68,13.32 v 92 c 0,2.34 -1.82,4.56 -3.89,4.74 0.13,0 -0.26,0 -0.26,0 h -0.28 c -97.8,10.36 -239.19,10 -378.24,-0.82 h -0.41 c -2,-0.18 -3.84,-2.39 -3.84,-4.74 v -91.52 c 0,-7 -5.09,-12.87 -11.58,-13.32 -56.6,-3.86 -114.9,-11.2 -145.9,-17.94 -2.81,-0.63 -5.1,-4.24 -5.1,-8 V 4046.8 a 7,7 0 0 1 2.29,-5.44 2.81,2.81 0 0 1 2.42,-0.7 c 57.69,11.48 191,19.14 346.58,18.84 159.82,-0.32 300.25,-8.25 349.57,-19.75 a 3.37,3.37 0 0 1 2.55,0.92 z"
         id="path1894"
         inkscape:connector-curvature="0"
         style="fill:none" />
    </clipPath>
    <linearGradient
       gradientTransform="matrix(0.35277776,0,0,0.35277776,-799.463,-1346.7544)"
       id="linear-gradient-36"
       x1="2261.1101"
       y1="3668.4099"
       x2="1969.88"
       y2="4069.25"
       xlink:href="#linear-gradient-34" />
    <linearGradient
       id="linear-gradient-34"
       x1="2431.3701"
       y1="3851.3799"
       x2="2173.5"
       y2="4206.3101"
       gradientUnits="userSpaceOnUse">
      <stop
         offset="0"
         stop-color="#a7aeb2"
         id="stop1863" />
      <stop
         offset="0.27"
         stop-color="#e2e3e4"
         id="stop1865" />
      <stop
         offset="0.32"
         stop-color="#e0e1e2"
         id="stop1867" />
      <stop
         offset="0.34"
         stop-color="#d8dbdd"
         id="stop1869" />
      <stop
         offset="0.36"
         stop-color="#cbcfd3"
         id="stop1871" />
      <stop
         offset="0.38"
         stop-color="#b8c0c6"
         id="stop1873" />
      <stop
         offset="0.44"
         stop-color="#d7d8da"
         id="stop1875" />
      <stop
         offset="0.51"
         stop-color="#acb4ba"
         id="stop1877" />
      <stop
         offset="0.69"
         stop-color="#dddfe0"
         id="stop1879" />
      <stop
         offset="0.76"
         stop-color="#d9dcdd"
         id="stop1881" />
      <stop
         offset="0.84"
         stop-color="#ced2d4"
         id="stop1883" />
      <stop
         offset="0.91"
         stop-color="#bcc1c5"
         id="stop1885" />
      <stop
         offset="0.97"
         stop-color="#a2a9af"
         id="stop1887" />
      <stop
         offset="1"
         stop-color="#959ea5"
         id="stop1889" />
    </linearGradient>
    <linearGradient
       gradientTransform="matrix(0.35277776,0,0,0.35277776,-799.463,-1346.7544)"
       id="linear-gradient-35"
       x1="2632.8301"
       y1="3997.52"
       x2="2374.28"
       y2="4353.3799"
       xlink:href="#linear-gradient-34" />
    <linearGradient
       gradientTransform="matrix(0.35277776,0,0,0.35277776,-799.463,-1346.7544)"
       id="linear-gradient-33"
       x1="2434.04"
       y1="3853.03"
       x2="2174.3799"
       y2="4210.4102"
       gradientUnits="userSpaceOnUse">
      <stop
         offset="0"
         stop-color="#bbc1c5"
         id="stop1832" />
      <stop
         offset="0.27"
         stop-color="#fff"
         id="stop1834" />
      <stop
         offset="0.32"
         stop-color="#fdfdfd"
         id="stop1836" />
      <stop
         offset="0.34"
         stop-color="#f5f6f7"
         id="stop1838" />
      <stop
         offset="0.36"
         stop-color="#e8ebed"
         id="stop1840" />
      <stop
         offset="0.38"
         stop-color="#d5dade"
         id="stop1842" />
      <stop
         offset="0.38"
         stop-color="#d1d7db"
         id="stop1844" />
      <stop
         offset="0.44"
         stop-color="#ececed"
         id="stop1846" />
      <stop
         offset="0.51"
         stop-color="#cad0d4"
         id="stop1848" />
      <stop
         offset="0.69"
         stop-color="#fff"
         id="stop1850" />
      <stop
         offset="0.76"
         stop-color="#fbfcfc"
         id="stop1852" />
      <stop
         offset="0.82"
         stop-color="#f0f2f3"
         id="stop1854" />
      <stop
         offset="0.89"
         stop-color="#dee1e3"
         id="stop1856" />
      <stop
         offset="0.95"
         stop-color="#c4c9cd"
         id="stop1858" />
      <stop
         offset="1"
         stop-color="#a8b0b6"
         id="stop1860" />
    </linearGradient>
    <linearGradient
       gradientTransform="matrix(0.35277776,0,0,0.35277776,-799.463,-1346.7544)"
       id="linear-gradient-32"
       x1="2468.0901"
       y1="4185.1001"
       x2="2460.8"
       y2="4274.29"
       xlink:href="#linear-gradient-27" />
    <linearGradient
       gradientTransform="matrix(0.35277776,0,0,0.35277776,-799.463,-1346.7544)"
       id="linear-gradient-31"
       x1="2409.0801"
       y1="4200.3999"
       x2="2402.6201"
       y2="4279.54"
       xlink:href="#linear-gradient-27" />
    <linearGradient
       gradientTransform="matrix(0.35277776,0,0,0.35277776,-799.463,-1346.7544)"
       id="linear-gradient-30"
       x1="2336.47"
       y1="4201.4902"
       x2="2329.97"
       y2="4281.04"
       xlink:href="#linear-gradient-27" />
    <linearGradient
       gradientTransform="matrix(0.35277776,0,0,0.35277776,-799.463,-1346.7544)"
       id="linear-gradient-29"
       x1="2273.6001"
       y1="4200.1802"
       x2="2267.1001"
       y2="4279.8501"
       xlink:href="#linear-gradient-27" />
    <linearGradient
       gradientTransform="matrix(0.35277776,0,0,0.35277776,-799.463,-1346.7544)"
       id="linear-gradient-28"
       x1="2229.01"
       y1="4184.3901"
       x2="2221.3701"
       y2="4277.96"
       xlink:href="#linear-gradient-27" />
    <linearGradient
       gradientTransform="matrix(0.35277776,0,0,0.35277776,-799.463,-1346.7544)"
       id="linear-gradient-26"
       x1="2608.5601"
       y1="4072.28"
       x2="2608.5601"
       y2="4159.6001"
       xlink:href="#linear-gradient-17" />
    <linearGradient
       id="linear-gradient-17"
       x1="2001.12"
       y1="4054.3701"
       x2="2001.12"
       y2="4161.6802"
       gradientUnits="userSpaceOnUse">
      <stop
         offset="0"
         stop-color="#fff"
         id="stop1800" />
      <stop
         offset="0.43"
         stop-color="#fafdff"
         id="stop1802" />
      <stop
         offset="0.7"
         stop-color="#e1ecf7"
         id="stop1804" />
      <stop
         offset="1"
         stop-color="#c1d7ec"
         id="stop1806" />
    </linearGradient>
    <linearGradient
       gradientTransform="matrix(0.35277776,0,0,0.35277776,-799.463,-1346.7544)"
       id="linear-gradient-25"
       x1="2534.3799"
       y1="4080.3799"
       x2="2534.3799"
       y2="4165.1201"
       xlink:href="#linear-gradient-17" />
    <linearGradient
       gradientTransform="matrix(0.35277776,0,0,0.35277776,-799.463,-1346.7544)"
       id="linear-gradient-24"
       x1="2479.55"
       y1="4066.8"
       x2="2479.55"
       y2="4167.9302"
       xlink:href="#linear-gradient-17" />
    <linearGradient
       gradientTransform="matrix(0.35277776,0,0,0.35277776,-799.463,-1346.7544)"
       id="linear-gradient-23"
       x1="2436.97"
       y1="4072.9299"
       x2="2436.97"
       y2="4168.96"
       xlink:href="#linear-gradient-17" />
    <linearGradient
       gradientTransform="matrix(0.35277776,0,0,0.35277776,-799.463,-1346.7544)"
       id="linear-gradient-22"
       x1="2378.1599"
       y1="4086.4299"
       x2="2378.1599"
       y2="4172.6602"
       xlink:href="#linear-gradient-17" />
    <linearGradient
       gradientTransform="matrix(0.35277776,0,0,0.35277776,-799.463,-1346.7544)"
       id="linear-gradient-21"
       x1="2287.6399"
       y1="4087.3101"
       x2="2287.6399"
       y2="4171.6802"
       xlink:href="#linear-gradient-17" />
    <linearGradient
       gradientTransform="matrix(0.35277776,0,0,0.35277776,-799.463,-1346.7544)"
       id="linear-gradient-20"
       x1="2195.29"
       y1="4086.8101"
       x2="2195.29"
       y2="4171.48"
       xlink:href="#linear-gradient-17" />
    <linearGradient
       gradientTransform="matrix(0.35277776,0,0,0.35277776,-799.463,-1346.7544)"
       id="linear-gradient-19"
       x1="2137.1599"
       y1="4073.0901"
       x2="2137.1599"
       y2="4169.4399"
       xlink:href="#linear-gradient-17" />
    <linearGradient
       gradientTransform="matrix(0.35277776,0,0,0.35277776,-799.463,-1346.7544)"
       id="linear-gradient-18"
       x1="2076.05"
       y1="4081.47"
       x2="2076.05"
       y2="4166.5"
       xlink:href="#linear-gradient-17" />
    <linearGradient
       gradientTransform="matrix(0.35277776,0,0,0.35277776,-799.463,-1346.7544)"
       id="linear-gradient-16"
       x1="2561.99"
       y1="3900.46"
       x2="2065.98"
       y2="4289.6899"
       gradientUnits="userSpaceOnUse">
      <stop
         offset="0.21"
         stop-color="#22aae2"
         id="stop1793" />
      <stop
         offset="0.5"
         stop-color="#2084b6"
         id="stop1795" />
      <stop
         offset="1"
         stop-color="#1b3d63"
         id="stop1797" />
    </linearGradient>
    <linearGradient
       gradientTransform="matrix(0.35277776,0,0,0.35277776,-799.463,-1346.7544)"
       id="linear-gradient-15"
       x1="2299.53"
       y1="4326.3901"
       x2="2299.53"
       y2="4295.8701"
       gradientUnits="userSpaceOnUse">
      <stop
         offset="0.54"
         stop-color="#304855"
         id="stop1782" />
      <stop
         offset="0.63"
         stop-color="#1c333f"
         id="stop1784" />
      <stop
         offset="0.73"
         stop-color="#0d242f"
         id="stop1786" />
      <stop
         offset="0.85"
         stop-color="#051b26"
         id="stop1788" />
      <stop
         offset="1"
         stop-color="#021823"
         id="stop1790" />
    </linearGradient>
    <linearGradient
       gradientTransform="matrix(0.35277776,0,0,0.35277776,-799.463,-1346.7544)"
       id="linear-gradient-14"
       x1="2262.97"
       y1="4333.6699"
       x2="2333.5801"
       y2="4408.3301"
       xlink:href="#linear-gradient-12" />
    <linearGradient
       id="linear-gradient-12"
       x1="1994.9399"
       y1="3919.45"
       x2="2143.04"
       y2="4076.05"
       gradientUnits="userSpaceOnUse">
      <stop
         offset="0"
         stop-color="#00b5f0"
         id="stop1773" />
      <stop
         offset="0.48"
         stop-color="#fffffb"
         id="stop1775" />
      <stop
         offset="1"
         stop-color="#00b5f0"
         id="stop1777" />
    </linearGradient>
    <linearGradient
       id="linear-gradient-13"
       x1="-476.89999"
       y1="3917.78"
       x2="-327.03"
       y2="4076.25"
       gradientTransform="matrix(-0.35277776,0,0,0.35277776,-48.75192,-1346.7544)"
       xlink:href="#linear-gradient-12" />
    <linearGradient
       gradientTransform="matrix(0.35277776,0,0,0.35277776,-799.463,-1346.7544)"
       id="linear-gradient-11"
       x1="2531.55"
       y1="3925.1599"
       x2="2534.55"
       y2="4058.75"
       gradientUnits="userSpaceOnUse">
      <stop
         offset="0"
         stop-color="#2a6086"
         id="stop1762" />
      <stop
         offset="0.33"
         stop-color="#2b6082"
         id="stop1764" />
      <stop
         offset="0.66"
         stop-color="#065a7f"
         id="stop1766" />
      <stop
         offset="0.87"
         stop-color="#023d63"
         id="stop1768" />
      <stop
         offset="1"
         stop-color="#003258"
         id="stop1770" />
    </linearGradient>
    <linearGradient
       gradientTransform="matrix(0.35277776,0,0,0.35277776,-799.463,-1346.7544)"
       id="linear-gradient-10"
       x1="2476.8899"
       y1="4355.8398"
       x2="2321.71"
       y2="4058.99"
       gradientUnits="userSpaceOnUse">
      <stop
         offset="0"
         stop-color="#2a6086"
         id="stop1755" />
      <stop
         offset="0.33"
         stop-color="#2b6082"
         id="stop1757" />
      <stop
         offset="1"
         stop-color="#00557b"
         id="stop1759" />
    </linearGradient>
    <linearGradient
       gradientTransform="matrix(0.35277776,0,0,0.35277776,-799.463,-1346.7544)"
       id="linear-gradient-9"
       x1="2341.1499"
       y1="4432.96"
       x2="2050.6899"
       y2="3877.29"
       gradientUnits="userSpaceOnUse">
      <stop
         offset="0"
         stop-color="#286fad"
         id="stop1748" />
      <stop
         offset="0.33"
         stop-color="#2b6082"
         id="stop1750" />
      <stop
         offset="1"
         stop-color="#006183"
         id="stop1752" />
    </linearGradient>
    <linearGradient
       gradientTransform="matrix(0.35277776,0,0,0.35277776,-799.463,-1346.7544)"
       id="linear-gradient-8"
       x1="2058.6299"
       y1="3928.3301"
       x2="2063.52"
       y2="4052.8401"
       gradientUnits="userSpaceOnUse">
      <stop
         offset="0"
         stop-color="#5575b0"
         id="stop1739" />
      <stop
         offset="0.42"
         stop-color="#5172ab"
         id="stop1741" />
      <stop
         offset="0.75"
         stop-color="#4a6ca3"
         id="stop1743" />
      <stop
         offset="1"
         stop-color="#002743"
         id="stop1745" />
    </linearGradient>
    <linearGradient
       gradientTransform="matrix(0.35277776,0,0,0.35277776,-799.463,-1346.7544)"
       id="linear-gradient-7"
       x1="2323.46"
       y1="4319.02"
       x2="2251.3601"
       y2="4375.6001"
       gradientUnits="userSpaceOnUse">
      <stop
         offset="0.21"
         stop-color="#00b7eb"
         id="stop1726" />
      <stop
         offset="0.32"
         stop-color="#01b1e5"
         id="stop1728" />
      <stop
         offset="0.47"
         stop-color="#05a1d3"
         id="stop1730" />
      <stop
         offset="0.64"
         stop-color="#0b87b6"
         id="stop1732" />
      <stop
         offset="0.83"
         stop-color="#13638d"
         id="stop1734" />
      <stop
         offset="1"
         stop-color="#1b3d63"
         id="stop1736" />
    </linearGradient>
    <linearGradient
       gradientTransform="matrix(0.35277776,0,0,0.35277776,-799.463,-1346.7544)"
       id="linear-gradient-6"
       x1="2581.95"
       y1="3944.1599"
       x2="2300.5"
       y2="4165.02"
       xlink:href="#linear-gradient" />
    <linearGradient
       id="linear-gradient"
       x1="1923.6801"
       y1="4002.97"
       x2="2350.1201"
       y2="4342.2998"
       gradientUnits="userSpaceOnUse">
      <stop
         offset="0.21"
         stop-color="#00b7eb"
         id="stop1708" />
      <stop
         offset="0.49"
         stop-color="#098fbf"
         id="stop1710" />
      <stop
         offset="1"
         stop-color="#1b3d63"
         id="stop1712" />
    </linearGradient>
    <linearGradient
       id="linear-gradient-5"
       x1="-90.68"
       y1="3920.01"
       x2="224.64999"
       y2="4170.9399"
       gradientTransform="matrix(-0.35277776,0,0,0.35277776,88.891383,-1346.7544)"
       xlink:href="#linear-gradient" />
    <linearGradient
       gradientTransform="matrix(0.35277776,0,0,0.35277776,-799.463,-1346.7544)"
       id="linear-gradient-4"
       x1="1990.28"
       y1="3920.1201"
       x2="2305.7"
       y2="4171.1201"
       xlink:href="#linear-gradient" />
    <linearGradient
       gradientTransform="matrix(0.35277776,0,0,0.35277776,-799.463,-1346.7544)"
       id="linear-gradient-3"
       x1="1990.49"
       y1="3920.01"
       x2="2305.8201"
       y2="4170.9399"
       gradientUnits="userSpaceOnUse">
      <stop
         offset="0.21"
         stop-color="#00aadb"
         id="stop1716" />
      <stop
         offset="0.52"
         stop-color="#0a82af"
         id="stop1718" />
      <stop
         offset="1"
         stop-color="#1b3d63"
         id="stop1720" />
    </linearGradient>
    <linearGradient
       gradientTransform="matrix(0.35277776,0,0,0.35277776,-799.463,-1346.7544)"
       id="linear-gradient-2"
       x1="2359.5801"
       y1="4107.4502"
       x2="2481.79"
       y2="4204.6899"
       xlink:href="#linear-gradient" />
  </defs>
  <sodipodi:namedview
     id="base"
     pagecolor="#ffffff"
     bordercolor="#666666"
     borderopacity="1.0"
     inkscape:pageopacity="0.0"
     inkscape:pageshadow="2"
     inkscape:zoom="0.13341116"
     inkscape:cx="-1112.2686"
     inkscape:cy="587.30205"
     inkscape:document-units="mm"
     inkscape:current-layer="layer1"
     showgrid="false"
     fit-margin-top="0"
     fit-margin-left="0"
     fit-margin-right="0"
     fit-margin-bottom="0"
     inkscape:window-width="1189"
     inkscape:window-height="712"
     inkscape:window-x="2744"
     inkscape:window-y="442"
     inkscape:window-maximized="0" />
  <metadata
     id="metadata1808">
    <rdf:RDF>
      <cc:Work
         rdf:about="">
        <dc:format>image/svg+xml</dc:format>
        <dc:type
           rdf:resource="http://purl.org/dc/dcmitype/StillImage" />
        <dc:title></dc:title>
      </cc:Work>
    </rdf:RDF>
  </metadata>
  <g
     inkscape:label="Layer 1"
     inkscape:groupmode="layer"
     id="layer1"
     transform="translate(-533.76204,-159.97713)">
    <g
       id="g7710">
      <path
         style="fill:#b61b05;stroke-width:0.35277775"
         inkscape:connector-curvature="0"
         id="path2477"
         d="m 561.08815,229.10855 c 5.64444,-3.01625 9.31686,-7.94808 12.55536,-13.22564 3.66183,-5.96547 7.13316,-12.04383 10.72797,-18.05164 3.175,-5.29166 6.70278,-10.35755 10.86203,-14.90486 2.05669,-2.23661 4.46616,-4.14866 6.70277,-6.20889 l 4.191,4.32859 c -1.70391,2.49061 -3.44311,4.95652 -5.10116,7.47536 -0.86784,1.32291 -1.61573,2.72697 -2.38125,4.11339 q -3.45723,6.24416 -6.8827,12.50244 a 55.869414,55.869414 0 0 1 -6.44877,9.56028 49.868667,49.868667 0 0 1 -4.88245,5.10822 67.796831,67.796831 0 0 1 -6.50522,5.05178 34.515777,34.515777 0 0 1 -8.11389,4.00402 c -1.27353,0.45156 -2.56117,0.86431 -3.83822,1.2947 z"
         class="cls-113" />
      <path
         style="fill:#b61b05;stroke-width:0.35277775"
         inkscape:connector-curvature="0"
         id="path2479"
         d="m 629.841,221.24513 c 0.78317,-0.72672 1.53459,-1.49225 2.35656,-2.16958 1.11831,-0.92781 2.26483,-1.82739 3.45369,-2.66347 a 4.3744444,4.3744444 0 0 1 1.7145,-0.72673 c 1.01248,-0.17286 2.05317,-0.18344 3.24556,-0.27516 a 20.425833,20.425833 0 0 0 -1.37583,2.31775 13.222111,13.222111 0 0 0 -0.97014,3.01978 c -0.29986,1.82738 0.92428,2.88925 2.69875,2.36713 a 4.490861,4.490861 0 0 0 2.73403,-1.9438 c 0.86783,-1.43228 1.78505,-2.82222 2.70933,-4.23333 a 1.0830277,1.0830277 0 0 1 0.65264,-0.49389 c 1.45344,-0.10584 2.91041,-0.1517 4.51908,-0.22225 -0.53975,0.85725 -1.01953,1.60866 -1.48872,2.36714 -1.90853,3.07269 -3.8347,6.1348 -5.70795,9.23219 a 16.019638,16.019638 0 0 0 -1.11477,2.46944 2.7551944,2.7551944 0 0 0 -0.14817,1.05834 c 0.0176,0.98778 0.51506,1.34761 1.45697,1.03364 2.01436,-0.67381 3.52778,-2.08492 5.1047,-3.43606 2.82222,-2.42358 4.67783,-5.55978 6.50522,-8.72067 0.70555,-1.21002 1.41111,-2.42005 2.11666,-3.61597 0.12348,-0.20461 0.35278,-0.46566 0.55739,-0.47625 1.69334,-0.11641 3.39373,-0.17991 5.23523,-0.26458 l -4.699,6.44525 0.15875,0.15875 c 0.23988,-0.24342 0.50447,-0.47272 0.70555,-0.73378 1.63336,-1.98614 3.34786,-3.91583 5.64445,-5.1435 a 9.2851108,9.2851108 0 0 1 3.47838,-1.09714 c 2.61762,-0.22225 4.01109,1.62278 3.20323,4.12045 a 30.82925,30.82925 0 0 1 -1.41111,3.20675 l -0.2152,0.28575 -0.0882,0.23636 -0.17639,0.27869 0.1023,0.06 0.15875,-0.24694 c 0.0353,-0.0811 0.067,-0.15875 0.10231,-0.23636 l 0.254,-0.21167 c 0.79375,-0.93839 1.55575,-1.90853 2.3883,-2.82222 1.68275,-1.82033 3.55248,-3.429 5.87023,-4.37092 a 5.1364444,5.1364444 0 0 1 2.40947,-0.31044 c 2.159,0.23636 3.44311,2.2225 2.67758,4.36033 -0.51505,1.44286 -1.37936,2.77989 -2.2225,4.07811 -1.05833,1.60161 -2.30716,3.06211 -3.31258,4.68136 a 7.6094164,7.6094164 0 0 0 -0.94897,2.82223 c -0.13406,0.91722 0.58208,1.43227 1.41111,1.00894 a 18.848916,18.848916 0 0 0 3.72533,-2.3248 c 1.52753,-1.2947 2.87867,-2.80106 4.28625,-4.23334 a 2.3142222,2.3142222 0 0 0 0.45861,-0.762 c 2.11667,-5.32694 6.17714,-8.34672 11.64167,-9.48972 a 7.7963887,7.7963887 0 0 1 4.26155,0.24694 3.601861,3.601861 0 0 0 -0.1905,0.83962 c 0.0317,1.27 0.2152,2.55058 0.13053,3.81 -0.15169,2.14488 -0.45155,4.27919 -0.70555,6.41702 -0.10937,0.91723 -0.27164,1.82739 -0.4057,2.74109 -2.24367,2.21897 -4.90361,3.60539 -8.06097,3.90172 a 10.438694,10.438694 0 0 1 -3.09386,-0.0847 c -2.48708,-0.53622 -4.00403,-2.50825 -4.06753,-5.06589 0,-0.51858 0.0388,-1.04069 0.0565,-1.5628 0,-0.0706 0.0317,-0.14111 0.0494,-0.21167 l -0.1905,0.0529 c -1.85208,1.72155 -3.65477,3.50308 -5.57388,5.1435 a 6.2582777,6.2582777 0 0 1 -4.13809,1.56986 c -2.49766,0 -4.08869,-1.97908 -3.30905,-4.37092 a 17.480138,17.480138 0 0 1 2.04964,-3.98639 c 1.0795,-1.65805 2.35655,-3.175 3.48897,-4.80483 a 5.9372497,5.9372497 0 0 0 0.9525,-1.97908 c 0.27869,-1.18886 -0.51506,-1.8662 -1.72156,-1.67923 -1.05833,0.16581 -1.76389,0.88195 -2.55411,1.48873 -3.28789,2.52589 -5.53155,5.93372 -7.84225,9.28158 -1.07597,1.56633 -2.07433,3.175 -3.05858,4.81894 a 1.0583333,1.0583333 0 0 1 -1.03717,0.58562 c -1.41111,0.0212 -2.794,0.11288 -4.36033,0.18344 0.889,-1.37583 1.70744,-2.62114 2.50825,-3.88056 1.6898,-2.667 3.40078,-5.32694 5.03766,-8.02922 a 9.2392497,9.2392497 0 0 0 1.00189,-2.50472 c 0.35278,-1.41111 -0.65264,-2.37419 -1.96144,-1.81681 a 11.052527,11.052527 0 0 0 -3.02331,1.91206 c -3.2138,2.87867 -5.75027,6.35 -8.15975,9.87778 -0.82902,1.22766 -1.59102,2.50472 -2.40594,3.7465 -0.13053,0.19755 -0.37042,0.45861 -0.56444,0.46566 -1.44992,0.0388 -2.89984,0.0212 -4.36387,0.0212 0.75495,-1.24178 1.56281,-2.56469 2.37067,-3.88055 0,-0.0811 0,-0.16228 0,-0.24342 l -0.14817,0.14464 c -1.41111,1.11478 -2.7693,2.27189 -4.21216,3.33022 a 6.5898887,6.5898887 0 0 1 -3.81353,1.30881 c -2.44475,0.0423 -3.88056,-1.64748 -3.28436,-4.03578 a 19.148777,19.148777 0 0 1 1.4605,-3.556 c 0.45155,-0.93839 1.03717,-1.80622 1.60514,-2.77989 -0.21167,0.0317 -0.38453,0 -0.48331,0.0847 a 6.568722,6.568722 0 0 1 -5.06941,1.11477 c -2.94217,-0.45508 -3.52778,-3.25261 -2.78695,-5.34811 0.0988,-0.27164 0.23636,-0.52916 0.35278,-0.79375 l -0.16228,-0.18344 -4.40619,3.80647 c 0.0177,-0.14464 -0.004,-0.31044 -0.0282,-0.47978 z m 29.12181,1.76389 -0.23989,0.254 -0.21519,0.1905 0.0564,0.0952 0.28928,-0.15522 c 0.0917,-0.0952 0.18344,-0.1905 0.27164,-0.28928 a 0.2363611,0.2363611 0 0 0 0.10936,-0.10936 l 0.3175,-0.4445 -0.1517,-0.11642 -0.3175,0.35278 z m 42.24161,-6.94619 c -0.35278,0.0388 -0.77964,-0.0353 -1.03011,0.14464 -1.22061,0.86783 -2.61056,1.6263 -3.52778,2.75519 a 24.214666,24.214666 0 0 0 -4.47675,8.61131 c -0.39158,1.31938 -0.762,2.65288 -0.43744,4.05341 0.2293,0.99131 0.85372,1.44992 1.87325,1.49578 1.27705,0.0564 2.26483,-0.55033 3.175,-1.32644 2.82222,-2.39537 4.45911,-5.55273 5.66913,-8.93587 a 17.815277,17.815277 0 0 0 0.95603,-4.55788 c 0.11642,-1.52753 -0.72319,-2.21898 -2.20133,-2.24014 z"
         class="cls-113" />
      <path
         style="fill:#b61b05;stroke-width:0.35277775"
         inkscape:connector-curvature="0"
         id="path2481"
         d="m 597.7982,169.4503 c -2.09903,0.21872 -4.20511,0.39511 -6.30061,0.66675 a 44.506444,44.506444 0 0 0 -9.59556,2.49061 c -6.93913,2.54 -13.01044,6.39234 -17.86819,12.01914 -3.08681,3.57717 -5.40103,7.57414 -6.31825,12.26608 -0.56092,2.86456 -0.80433,5.74323 -0.13758,8.64306 1.27352,5.54919 5.99722,7.49653 11.13719,5.29166 2.32128,-0.9913 3.99697,-2.82222 5.29167,-4.93888 3.38666,-5.58095 4.10986,-11.57111 2.56116,-17.87173 -0.0706,-0.28927 -0.14816,-0.57855 -0.23636,-0.93133 l 1.02306,-0.14817 c 0.26458,1.60514 0.51858,3.175 0.78669,4.7625 a 19.557999,19.557999 0 0 1 -0.17286,6.87212 c -0.74436,4.1275 -2.26836,7.92338 -4.97416,11.17247 -3.8982,4.67783 -8.90059,6.75922 -14.97542,6.1595 -5.56331,-0.54681 -9.92011,-4.55789 -10.63272,-9.82839 a 21.06436,21.06436 0 0 1 2.52589,-13.27503 35.295417,35.295417 0 0 1 9.34861,-10.74914 c 4.11339,-3.22439 8.66422,-5.66914 13.45494,-7.70466 a 77.903914,77.903914 0 0 1 18.13278,-5.19289 c 2.1343,-0.35278 4.30741,-0.45156 6.45936,-0.66675 0.16228,0.32808 0.32808,0.64558 0.49036,0.96308 z"
         class="cls-113" />
      <path
         style="fill:#4d0602;stroke-width:0.35277775"
         inkscape:connector-curvature="0"
         id="path2483"
         d="m 597.7982,169.4503 c -0.16228,-0.3175 -0.32808,-0.635 -0.49389,-0.9525 a 50.32022,50.32022 0 0 1 15.70567,1.76389 2.8504444,2.8504444 0 0 0 1.6263,-0.10231 c 3.1115,-1.12888 6.27239,-2.02141 9.59556,-2.18722 a 1.3758333,1.3758333 0 0 1 0.85372,0.29986 c -2.80106,0.98425 -5.76439,1.41111 -8.27969,3.08681 1.02658,0.52917 2.05316,0.99836 3.01625,1.56633 3.91583,2.3107 6.81213,5.47159 7.96572,9.97303 a 15.204722,15.204722 0 0 1 -0.60325,9.57086 15.695083,15.695083 0 0 1 -6.21595,7.51417 20.291777,20.291777 0 0 1 -5.38691,2.59291 4.8118887,4.8118887 0 0 1 -0.23989,-0.89605 c -0.127,-1.73567 -0.21872,-3.47134 -0.35278,-5.207 0,-0.20109 -0.2293,-0.38806 -0.35278,-0.57856 a 34.678054,34.678054 0 0 0 3.28436,-9.61319 c 0.66675,-3.72886 0.4057,-7.29545 -1.99319,-10.42106 a 31.52775,31.52775 0 0 0 -2.23308,-2.38477 54.532387,54.532387 0 0 0 -7.56709,7.57061 l -4.18041,-4.32859 a 34.339387,34.339387 0 0 1 8.71361,-5.06941 c -4.18042,-1.84503 -8.52311,-2.06728 -12.86228,-2.19781 z"
         class="cls-114" />
      <path
         style="fill:#b61b05;stroke-width:0.35277775"
         inkscape:connector-curvature="0"
         id="path2485"
         d="m 646.16756,196.20144 c -2.53294,0.0705 -4.86833,0.89253 -7.10494,1.94733 -2.23662,1.05481 -4.32859,2.22956 -6.61459,3.41842 1.76389,-2.28247 3.4537,-4.51908 3.2385,-7.67292 -0.75141,0.62795 -1.41111,1.23472 -2.11666,1.74625 -1.13948,0.81492 -2.29659,1.6122 -3.50309,2.31775 a 1.3335,1.3335 0 0 0 -0.7373,1.56281 7.253111,7.253111 0 0 0 2.3883,4.05694 10.322277,10.322277 0 0 0 7.11906,2.74814 c 1.34055,0 1.54869,-0.26458 2.11666,-1.44992 0.99837,-2.04258 2.11667,-4.03225 3.19264,-6.0325 a 6.028972,6.028972 0 0 1 0.64206,-0.80786 l 0.18344,0.11289 -1.66511,3.29847 c 0.79728,0.19403 1.53459,0.41275 2.28953,0.53623 a 1.0830277,1.0830277 0 0 0 0.73731,-0.29281 c 2.11666,-1.79564 4.42736,-3.21733 7.2143,-3.58775 3.97581,-0.52917 7.91281,-0.32103 11.73339,1.03717 0.127,0.0423 0.25753,0.0705 0.381,0.1023 0.47978,-0.52211 0.43392,-1.54869 1.55575,-1.44991 -0.254,1.58397 0.39864,2.9598 0.94544,4.39561 0.63853,1.67216 -0.15875,3.14325 -0.91369,4.58611 -0.52211,-1.47461 -1.00189,-2.89278 -1.52047,-4.29331 -0.29634,-0.79022 -0.81492,-1.53458 -0.10584,-2.54705 -1.76389,-0.29281 -3.2773,-0.61384 -4.82247,-0.79375 a 21.741694,21.741694 0 0 0 -6.91091,0.14816 c -2.96687,0.61031 -5.15762,2.46945 -7.25664,4.48028 l 1.04069,1.76389 c -1.39347,-1.28058 -2.88572,-2.06022 -4.78367,-1.87678 a 1.2206111,1.2206111 0 0 0 -0.55738,0.10584 c -0.4445,0.31397 -0.86784,2.63172 -0.61384,3.175 0.889,1.93322 1.12184,2.87513 0.98425,4.12397 a 6.4346664,6.4346664 0 0 0 -1.72861,-3.33375 1.3052777,1.3052777 0 0 0 -0.97719,-0.35278 c -5.29167,0.91722 -10.20586,-3.04094 -11.18306,-7.16139 -0.0317,-0.13405 -0.0564,-0.26811 -0.0917,-0.40216 -0.35278,-1.31587 -0.0212,-2.18017 1.23472,-2.97745 1.76389,-1.12536 3.35845,-2.56469 4.9777,-3.92289 a 0.89605554,0.89605554 0 0 1 1.00894,-0.1658 1.4499166,1.4499166 0 0 0 1.09361,-0.0811 29.98611,29.98611 0 0 0 6.58283,-6.09247 c 0.0317,-0.0459 0.0847,-0.0811 0.10231,-0.127 0.70556,-1.95086 1.57692,-3.86292 2.00731,-5.87375 0.20461,-0.96309 -0.47978,-2.09903 -0.67734,-3.175 a 2.0425833,2.0425833 0 0 1 0.13406,-1.31234 c 0.67733,-1.15711 1.43933,-2.26483 2.2225,-3.34786 0.15169,-0.20814 0.70555,-0.40216 0.82197,-0.30339 a 1.2065,1.2065 0 0 1 0.43039,0.92781 4.6778333,4.6778333 0 0 1 -0.70556,1.82386 c -0.79375,1.05833 -0.78669,2.00731 0.20109,2.95275 0.0635,-0.17992 0.14816,-0.38453 0.21166,-0.59267 0.0635,-0.20814 0.13053,-0.47272 0.18698,-0.70555 a 22.351999,22.351999 0 0 1 2.11666,-5.31284 16.968611,16.968611 0 0 0 0.88547,-2.30363 c 0.13759,-0.39512 0.19756,-0.82903 0.79023,-0.70556 0.59266,0.12347 1.15005,0.21872 1.15005,0.94192 a 3.7323887,3.7323887 0 0 1 -0.26105,1.27705 c -0.43392,1.1677 -0.9137,2.31775 -1.37584,3.47839 l 0.19403,0.12347 a 16.605249,16.605249 0 0 0 1.41111,-1.53811 c 0.79728,-1.1183 1.54164,-2.27189 2.25778,-3.44311 0.22225,-0.35278 0.40217,-0.65617 0.87489,-0.53269 0.47272,0.12347 0.9278,0.35277 0.85372,0.9278 a 4.1945277,4.1945277 0 0 1 -0.4198,1.56634 c -0.65617,1.13947 -1.45345,2.1978 -2.11667,3.33022 -0.66322,1.13241 -1.25942,2.26483 -1.92617,3.47486 a 29.499277,29.499277 0 0 0 2.99861,0.55033 2.2189722,2.2189722 0 0 1 1.905,1.21356 l 2.08139,3.67241 -0.94897,0.3175 c 0.14817,0.28575 0.50447,0.66675 0.42686,0.89959 -0.0776,0.23283 -0.55386,0.44803 -0.86431,0.65264 -1.41111,0.92075 -2.80458,1.82738 -4.19099,2.76577 -1.11478,0.75495 -2.1837,1.57692 -3.31259,2.3107 -0.5715,0.37041 -1.2065,0.80786 -1.84855,0.87136 -2.11667,0.20108 -2.39184,2.0708 -3.22086,3.41136 -0.16581,0.31397 0.0917,0.89606 0.15169,1.41464 z m -10.3505,2.17664 c 0.0882,0 0.19403,0.0635 0.25753,0.0318 a 26.43011,26.43011 0 0 1 7.95161,-2.57881 1.4640277,1.4640277 0 0 0 0.79375,-0.59619 c 1.02305,-1.39347 1.99672,-2.82222 3.01978,-4.23334 a 1.7039166,1.7039166 0 0 1 0.86077,-0.70555 12.417777,12.417777 0 0 0 5.25639,-2.63878 c 1.47109,-1.18886 2.96334,-2.33539 4.86481,-2.80105 -0.65264,-1.05834 -2.18017,-1.08303 -3.1997,-0.0776 -0.0917,0.0882 -0.17638,0.22577 -0.28575,0.25047 -0.47977,0.11641 -0.96661,0.20108 -1.50988,0.30691 -0.60678,-1.48872 -0.89606,-3.47838 -3.39373,-3.09738 0.62442,-0.0529 1.22061,0 1.81681,0 a 0.97719441,0.97719441 0 0 0 0.70555,-0.29281 c 0.37042,-0.5715 0.65264,-1.19944 0.99837,-1.86619 -0.11995,0.8008 0.45155,0.59972 0.73377,0.52916 1.37231,-0.35278 2.08845,0.35278 2.58586,1.48872 a 1.7638888,1.7638888 0 0 0 0.50448,0.73378 7.7046664,7.7046664 0 0 0 1.29116,0.53975 6.2723887,6.2723887 0 0 0 -1.98966,-3.5948 c -0.40923,-0.39159 -1.18886,-0.40923 -1.80623,-0.5715 a 5.6444444,5.6444444 0 0 0 -0.81138,-0.127 c -0.56445,-0.067 -1.13242,-0.127 -1.72509,-0.1905 a 2.046111,2.046111 0 0 0 0.067,-0.32103 7.6623331,7.6623331 0 0 1 2.22603,-5.13292 c 0.82903,-0.8643 1.3335,-2.06022 1.905,-3.14678 0.11289,-0.22225 -0.11995,-0.62441 -0.19403,-0.94544 -0.25753,0.18697 -0.59619,0.3175 -0.75494,0.56444 -0.89606,1.38289 -1.56281,2.96334 -2.66348,4.14867 -1.17122,1.25942 -2.09197,2.46945 -1.93322,4.23333 0,0.0423 -0.0494,0.0917 -0.0811,0.14817 h -0.72319 c 0.29986,-2.43769 0.70555,-4.78367 1.76389,-6.96736 0.21519,-0.4445 0.4198,-0.89606 0.59972,-1.35467 0.13758,-0.35277 0.32808,-0.78316 -0.20108,-0.97366 -0.52917,-0.1905 -0.5962,0.23989 -0.74437,0.61736 -0.52211,1.32644 -1.11125,2.62466 -1.6263,3.95111 -0.51506,1.32644 -0.98778,2.69522 -1.50283,4.10986 l 1.31586,0.067 a 0.5679722,0.5679722 0 0 1 -0.38806,0.11641 c -0.75494,-0.13405 -1.09008,0.23989 -1.21708,0.93134 -0.067,0.35278 -0.20109,0.68791 -0.35278,1.2065 -0.55739,-1.24531 -1.05833,-2.27895 -1.48167,-3.34081 a 1.0583333,1.0583333 0 0 1 0.0988,-0.78316 c 0.45156,-0.83962 0.96661,-1.64748 1.41111,-2.48709 0.0706,-0.13405 -0.0635,-0.37394 -0.1023,-0.56444 a 1.4640277,1.4640277 0 0 0 -0.508,0.23283 13.229166,13.229166 0 0 0 -0.92428,1.15358 c -0.87489,1.21003 -1.61572,2.44475 -0.73378,3.98992 a 10.629194,10.629194 0 0 1 0.37042,1.08656 3.474861,3.474861 0 0 1 -0.0917,2.82222 c -0.47273,1.16064 -0.79023,2.3883 -1.19945,3.57717 -0.51858,1.50988 -0.51505,2.87866 0.99483,3.88055 -1.13947,-0.18344 -1.59808,-1.04069 -1.93675,-1.81681 q -3.28083,3.06917 -6.55461,6.14187 a 0.66674997,0.66674997 0 0 0 -0.24341,0.39511 c 0.0635,1.53105 -0.80786,2.69522 -1.51342,3.92641 l -0.0882,0.0988 h 0.1023 z m 18.16806,-13.75833 3.74297,-1.1042 c -0.18345,-0.20108 -0.45509,-0.37042 -0.54328,-0.60678 -0.63147,-1.68627 -1.88383,-1.79211 -3.36197,-1.36877 -0.0247,0 -0.0494,0.0247 0.0776,-0.0423 -0.99131,1.09714 -0.23636,1.99672 0.0847,3.12209 z"
         class="cls-113" />
      <path
         style="fill:#4d0602;stroke-width:0.35277775"
         inkscape:connector-curvature="0"
         id="path2487"
         d="m 718.79745,257.92696 h -8.0645 c -0.10584,0 -0.21167,-0.0176 -0.4692,-0.21519 0.17286,-0.14817 0.32456,-0.35278 0.52564,-0.43039 0.33161,-0.11289 0.70556,-0.10583 1.05833,-0.18697 0.57503,-0.13406 1.05834,-0.43039 1.05834,-1.08303 0.0212,-2.25072 0,-4.50144 0,-6.81214 h -8.94645 c 0,2.19781 -0.0212,4.36739 0,6.53697 0,0.80081 0.52917,1.22414 1.29117,1.36173 a 5.538611,5.538611 0 0 1 0.88547,0.17286 2.2224999,2.2224999 0 0 1 0.52211,0.4198 l -0.13405,0.19756 h -8.46667 l -0.0282,-0.56445 c 2.46944,-0.23988 2.6423,-0.45155 2.64583,-2.88925 q 0,-5.66561 0,-11.32769 c 0,-1.97908 -0.16228,-2.16605 -2.11666,-2.46944 -0.15875,-0.0247 -0.32103,-0.0423 -0.50448,-0.067 v -0.61736 h 8.46667 c 0.0741,0.35278 0.14817,0.60678 -0.42333,0.6738 -1.94028,0.23636 -2.13784,0.47978 -2.159,2.46945 0,1.67569 0,3.34786 0,5.06236 h 9.0805 c 0,-1.96145 0.0635,-3.90878 -0.0247,-5.85258 -0.0529,-1.13948 -0.45861,-1.41112 -1.63689,-1.55928 -0.98072,-0.12347 -0.98072,-0.12347 -0.96661,-0.77964 h 8.46667 c 0,0.1905 0,0.35278 0.0282,0.59619 -0.27517,0.0353 -0.51153,0.0635 -0.74789,0.0988 -1.56986,0.23636 -1.88383,0.51858 -1.89794,2.11667 q -0.06,6.20183 0,12.40366 c 0,1.57339 0.53269,2.05317 2.11666,2.09198 0.43039,-0.0106 0.635,0.0917 0.44098,0.65263 z m -18.12573,-17.30727 c 0.14817,0.70555 0.43745,1.4358 0.44803,2.18016 q 0.067,6.06778 0,12.13909 c 0,0.77258 -0.31397,1.54164 -0.48683,2.33539 0.52917,0.0952 0.96308,-0.29987 1.15358,-0.97367 a 4.8753887,4.8753887 0 0 0 0.16934,-1.29822 q 0.0212,-6.06778 0,-12.13909 a 5.9760554,5.9760554 0 0 0 -0.0988,-1.05833 c -0.17639,-0.97014 -0.42334,-1.16417 -1.18534,-1.18533 z m 12.30842,0 a 9.3062774,9.3062774 0 0 1 0.40217,1.87678 q 0.0529,6.44172 0,12.87991 c 0,0.62795 -0.29281,1.25236 -0.4445,1.84856 0.85019,0.0459 1.27353,-0.35278 1.27705,-1.44992 0,-3.03036 0,-6.05719 0,-9.08403 0,-1.54164 0.0177,-3.08328 0,-4.62491 -0.0388,-1.09009 -0.39864,-1.42523 -1.23472,-1.43934 z"
         class="cls-114" />
      <path
         style="fill:#b61b05;stroke-width:0.35277775"
         inkscape:connector-curvature="0"
         id="path2489"
         d="m 683.29036,196.96697 c -0.47272,1.15711 -0.92075,2.24014 -1.35466,3.32669 a 3.4783887,3.4783887 0 0 0 -0.40217,1.16064 c 0,1.07597 -0.70555,1.52753 -1.524,1.94381 -2.46944,1.27705 -5.17172,1.91558 -7.8493,2.61055 -1.39348,0.35278 -2.78342,0.75495 -4.20864,1.13947 0.16227,-1.22061 0.38805,-2.51883 1.21708,-3.57011 a 3.4501667,3.4501667 0 0 1 1.53458,-1.02305 c 2.39184,-0.81845 4.81542,-1.53459 7.21431,-2.32834 a 16.905111,16.905111 0 0 0 2.19075,-0.94897 c 1.44639,-0.70555 1.43933,-0.7373 1.58397,-2.3883 -2.8963,-1.11831 -5.82083,-2.20134 -8.13858,-4.07106 l -6.44878,1.10067 3.048,4.00402 a 8.0186387,8.0186387 0 0 1 -3.39019,-3.4925 c -0.22931,-0.46919 -0.50095,-0.53975 -0.99837,-0.58913 -1.15711,-0.10937 -2.36713,-0.20814 -3.43252,-0.63148 a 2.0002499,2.0002499 0 0 1 -0.75848,-3.19264 c -0.26458,2.159 1.29117,3.3267 3.60539,2.69875 a 6.9744164,6.9744164 0 0 0 0.79728,-0.29986 c 0.067,-1.00189 0.13053,-1.90147 0.19403,-2.80105 l 0.13405,0.0247 0.26812,2.46945 c 0.52563,-0.29281 0.94544,-0.53623 1.3723,-0.762 1.13947,-0.5962 2.25425,-1.25942 3.43958,-1.76389 1.0795,-0.45509 1.72156,-0.20109 2.37773,0.65264 1.13241,-0.62089 1.76389,-0.60678 2.77989,0.39158 1.17122,1.16064 2.16958,2.49767 3.34433,3.65125 a 9.2145554,9.2145554 0 0 0 2.39183,1.66511 3.1115,3.1115 0 0 0 1.76389,0.0882 c 0.889,-0.15523 1.19592,-0.73025 1.26647,-2.00731 0.84314,1.22061 -0.15875,2.68464 -2.01789,2.94217 z"
         class="cls-113" />
      <path
         style="fill:#b61b05;stroke-width:0.35277775"
         inkscape:connector-curvature="0"
         id="path2491"
         d="m 666.31823,182.73591 c 0.1658,-1.0795 0.33161,-2.15547 0.50094,-3.23497 0.0212,-0.13406 0.0353,-0.27164 0.0564,-0.40922 0.13759,-0.95956 0.0247,-1.62631 -1.01247,-2.23661 -2.36714,-1.41111 -3.302,-3.79942 -3.73239,-6.40292 a 11.031361,11.031361 0 0 1 0.22578,-5.1435 c 1.15711,-3.71828 4.86481,-5.86317 8.93939,-5.21758 a 16.308916,16.308916 0 0 1 6.56872,2.71991 c 1.41111,0.94545 2.86809,1.84503 4.32859,2.71639 a 7.6058887,7.6058887 0 0 0 6.06072,0.97014 c 4.93889,-1.26294 7.32014,3.00214 6.82977,6.54403 -0.45508,3.27378 -1.88736,5.97958 -4.65666,7.8493 a 18.527888,18.527888 0 0 1 -2.86808,1.38289 2.0249444,2.0249444 0 0 1 -0.85725,0.0776 10.230555,10.230555 0 0 0 6.70277,-10.07886 c -0.13053,-2.21897 -1.87677,-4.98475 -5.33752,-4.49086 a 9.2074997,9.2074997 0 0 1 -5.72912,-1.05833 c -1.94027,-1.03011 -3.85586,-2.11667 -5.8173,-3.09739 -2.5647,-1.28411 -5.25992,-1.96497 -8.13858,-1.30881 -2.32128,0.52917 -3.79237,1.94734 -4.20864,4.318 -0.20109,1.14653 -0.46567,2.33892 -0.35278,3.47839 0.21167,2.159 0.6738,4.29331 2.49414,5.79967 0.14464,0.11994 0.30339,0.22225 0.64911,0.47272 -0.12347,-0.96308 -0.22225,-1.74272 -0.35278,-2.65641 a 5.7361664,5.7361664 0 0 1 1.17828,5.79966 c -0.35278,1.10772 -0.99131,2.11667 -1.50283,3.175 z"
         class="cls-113" />
      <path
         style="fill:#4d0602;stroke-width:0.35277775"
         inkscape:connector-curvature="0"
         id="path2493"
         d="m 561.08815,229.10855 0.889,1.05833 -1.00189,0.4445 3.76061,0.53622 0.65969,1.10773 c -2.02141,-0.31045 -4.03578,-0.70556 -6.0713,-0.889 -0.94192,-0.0776 -1.92264,0.3175 -2.88572,0.49389 a 57.777944,57.777944 0 0 1 -13.07042,0.97719 c -1.94733,-0.0882 -3.88056,-0.28222 -5.68678,-1.03011 a 9.2921664,9.2921664 0 0 1 -1.58044,-0.83961 1.9085277,1.9085277 0 0 1 -0.93486,-2.04259 1.8556111,1.8556111 0 0 1 1.69333,-1.5628 10.44575,10.44575 0 0 1 2.70933,-0.10936 c 4.9142,0.68086 9.82134,1.41111 14.732,2.16958 1.32292,0.19756 2.63878,0.47272 3.95817,0.68792 a 1.2558888,1.2558888 0 0 0 0.62441,-0.10936 c 0.74084,-0.29281 1.47109,-0.57856 2.20487,-0.89253 z"
         class="cls-114" />
      <path
         style="fill:#4d0602;stroke-width:0.35277775"
         inkscape:connector-curvature="0"
         id="path2495"
         d="m 600.16181,258.3503 c -6.1595,0.0353 -9.96597,-5.02356 -9.20044,-10.87261 0.65264,-5.00945 4.62491,-8.6995 11.06664,-7.80697 4.1028,0.56797 6.70277,2.96686 7.76111,7.01322 1.30527,5.09411 -2.16959,10.50925 -7.34131,11.41236 -0.75494,0.11994 -1.524,0.16228 -2.286,0.254 z m 5.08353,-2.5647 0.17639,-0.15522 c 0.5468,-0.83608 1.28764,-1.60514 1.60866,-2.51883 0.91723,-2.63878 0.762,-5.32695 -0.0988,-7.97278 a 7.0555554,7.0555554 0 0 0 -2.89984,-3.95817 4.504972,4.504972 0 0 0 -0.81844,-0.32808 c 3.88055,2.67758 4.76603,10.91494 2.09197,14.68261 0,0.0882 -0.0317,0.17639 -0.0459,0.26458 l -0.15169,0.0282 0.0212,0.067 z m -8.69597,1.28059 -0.0776,0.1658 h 0.0741 v -0.1658 c -5.60564,-4.30742 -5.58447,-9.43681 -2.11667,-15.13064 a 3.175,3.175 0 0 0 -0.35278,0.24342 c -0.15875,0.15169 -0.3175,0.30691 -0.46213,0.46919 -2.08845,2.32833 -2.58587,5.09411 -2.11667,8.07508 a 8.1844444,8.1844444 0 0 0 4.25097,6.13481 3.175,3.175 0 0 0 0.80081,0.19755 z m 9.87777,-7.27781 c -0.1023,-2.46944 -0.47272,-4.93889 -2.01788,-7.03791 -1.25942,-1.71098 -2.92806,-2.69523 -5.09764,-2.42006 -2.25425,0.28222 -3.556,1.72861 -4.32153,3.79236 -0.65617,1.76389 -0.60678,3.56658 -0.44803,5.36222 0.1905,2.19781 0.80081,4.28272 2.18722,6.06778 a 5.0059167,5.0059167 0 0 0 8.1527,-0.10231 c 1.21003,-1.68627 1.4605,-3.63713 1.53811,-5.67266 z m -12.01561,-7.81403 0.127,0.12348 0.25048,-0.28575 -0.10937,-0.0917 z"
         class="cls-114" />
      <path
         style="fill:#4d0602;stroke-width:0.35277775"
         inkscape:connector-curvature="0"
         id="path2497"
         d="m 550.66004,253.25266 c 0,-0.74789 0,-1.34056 0,-1.93322 q -0.0741,-3.63714 -0.1517,-7.27428 c -0.0459,-2.08492 -0.70555,-2.90336 -2.72697,-3.43253 -0.21872,-0.0564 -0.38453,-0.30691 -0.57503,-0.46919 l 0.13053,-0.20461 h 6.74158 l 0.17639,0.15875 c -0.18344,0.17991 -0.35278,0.46214 -0.55739,0.52564 -1.78505,0.50447 -2.4518,1.38288 -2.42005,3.29847 q 0.10583,6.77686 0.22225,13.55372 c 0,0.29986 0,0.59972 0,1.19239 -0.52564,-0.35278 -0.95603,-0.49742 -1.21356,-0.80081 -4.18747,-4.85775 -8.36436,-9.74725 -12.59769,-14.71436 -0.0212,0.35278 -0.0459,0.56445 -0.0423,0.79022 q 0.0776,4.70959 0.17639,9.4227 a 12.474222,12.474222 0 0 0 0.13406,1.41111 c 0.18697,1.35467 0.8255,1.99672 2.16253,2.35303 0.35277,0.0917 1.07597,-0.0847 0.80433,0.77611 h -6.70278 c -0.10936,-0.35278 -0.15522,-0.55034 0.38453,-0.67734 1.71803,-0.40922 2.20133,-0.99483 2.42005,-2.75519 a 11.038416,11.038416 0 0 0 0.06,-1.56633 c -0.0423,-3.05859 -0.10231,-6.11364 -0.1517,-9.17223 -0.0282,-1.73919 -0.79728,-2.67758 -2.49414,-3.10444 a 2.7022777,2.7022777 0 0 1 -0.67733,-0.43039 l 0.13053,-0.28928 c 1.70039,0 3.40078,0 5.10116,0.0212 0.20814,0 0.44098,0.2787 0.61031,0.47272 q 5.13997,5.95136 10.25878,11.94859 c 0.22225,0.27163 0.45861,0.52211 0.79728,0.89958 z m -14.64028,-12.66472 14.64028,16.98272 0.24341,-0.127 c -0.21519,-0.52917 -0.3175,-1.15358 -0.67028,-1.56633 q -6.10305,-7.21078 -12.27666,-14.37217 a 2.331861,2.331861 0 0 0 -1.93675,-0.91722 z m 14.89075,1.18533 -0.21167,0.22578 c 0.2787,-0.45508 0.56092,-0.91017 0.85372,-1.38289 h -1.91205 z m -14.83784,15.42697 h 2.11667 l -0.94544,-1.45697 c -0.36689,0.46214 -0.762,0.95603 -1.17123,1.45697 z"
         class="cls-114" />
      <path
         style="fill:#4d0602;stroke-width:0.35277775"
         inkscape:connector-curvature="0"
         id="path2499"
         d="m 629.841,221.24513 c 0.0247,0.16934 0.0459,0.35278 0.067,0.50447 a 36.583054,36.583054 0 0 0 -2.53647,2.96687 c -1.68628,2.42358 -3.29142,4.90008 -4.87539,7.39069 -0.29633,0.46214 -0.54328,0.70556 -1.12183,0.70556 -1.31586,0 -2.63172,0.11288 -4.10633,0.18344 0.74083,-1.28058 1.41111,-2.44122 2.07433,-3.58422 q 3.76414,-6.35 7.55297,-12.65767 a 1.1394722,1.1394722 0 0 1 0.78669,-0.508 c 1.56987,-0.0494 3.1362,-0.0247 4.74839,-0.0247 l -4.64608,6.58636 0.16228,0.16933 z m -2.032,1.94381 a 1.0371666,1.0371666 0 0 0 -0.24694,-0.0317 c -0.0459,0 -0.0811,0.0564 -0.11994,0.0882 0.0564,0.0353 0.11641,0.0988 0.17638,0.0988 0.06,0 0.0917,-0.0706 0.1905,-0.15522 z"
         class="cls-114" />
      <path
         style="fill:#b61b05;stroke-width:0.35277775"
         inkscape:connector-curvature="0"
         id="path2501"
         d="m 614.63276,195.90863 c 0.12347,0.1905 0.35277,0.37748 0.35277,0.57856 0.13759,1.73567 0.22931,3.47133 0.35278,5.207 a 4.8118887,4.8118887 0 0 0 0.23989,0.89605 c -4.08517,1.28059 -8.1915,1.78859 -12.34722,0.2787 a 7.2566387,7.2566387 0 0 1 -3.43606,-2.46945 c -1.03011,-1.38641 -1.27705,-2.92452 -0.56797,-4.49791 0.73378,-1.64042 2.19075,-2.31775 3.88056,-2.44828 a 4.7977777,4.7977777 0 0 1 3.88055,1.36525 c -1.54164,1.20297 -2.40594,2.72697 -2.46944,4.67078 -0.06,2.2225 1.26294,3.29847 3.44311,2.82222 a 5.9584164,5.9584164 0 0 0 3.45722,-2.11667 c 1.17122,-1.37583 2.16958,-2.85397 3.21381,-4.28625 z"
         class="cls-113" />
      <path
         style="fill:#4d0602;stroke-width:0.35277775"
         inkscape:connector-curvature="0"
         id="path2503"
         d="m 658.8605,239.74833 0.53623,5.19641 c -0.61384,0.25753 -0.90664,0 -1.22062,-0.46566 a 20.083638,20.083638 0 0 0 -2.15194,-2.89631 4.2333333,4.2333333 0 0 0 -4.69194,-1.15005 3.1961667,3.1961667 0 0 0 -2.08139,3.68652 2.1519444,2.1519444 0 0 0 1.51694,1.69686 c 1.32292,0.40923 2.67406,0.73025 4.03225,1.02306 1.41111,0.30339 2.86808,0.4833 4.04989,1.43228 1.79211,1.41111 2.39889,3.33375 1.92264,5.4998 a 5.489222,5.489222 0 0 1 -4.14161,4.32859 c -1.47814,0.40569 -2.91395,0.1658 -4.32858,-0.35278 a 6.3499997,6.3499997 0 0 0 -1.88737,-0.45861 c -0.4833,-0.0247 -0.98072,0.23636 -1.4605,0.39158 -0.3175,0.10231 -0.61736,0.24694 -1.00894,0.40569 v -6.53344 c 0.59619,-0.22578 0.8255,0.067 1.11478,0.60325 0.70555,1.29117 1.37583,2.63525 2.32128,3.73592 a 4.54025,4.54025 0 0 0 4.72722,1.56633 3.6089167,3.6089167 0 0 0 2.87161,-3.26672 3.3055277,3.3055277 0 0 0 -2.45181,-3.48545 c -1.55222,-0.4445 -3.175,-0.65264 -4.74133,-1.05833 -1.91911,-0.47978 -3.38314,-1.50636 -3.89819,-3.56658 -0.8255,-3.31259 1.50636,-6.68161 4.98122,-6.49817 0.98425,0.0529 1.95791,0.31045 2.94216,0.35278 0.98425,0.0423 1.94381,-0.11995 3.048,-0.18697 z m -1.08302,3.2138 0.16933,-0.0494 -0.0353,-0.0635 -0.13758,0.13053 -0.127,-2.18369 -1.47108,0.12347 c 0.53975,0.69144 1.06891,1.36878 1.60161,2.04258 z m 1.35819,12.4072 a 3.175,3.175 0 0 0 0.28575,-0.37395 c 0.89958,-1.76389 0.66675,-4.34622 -2.00378,-5.3093 a 22.729472,22.729472 0 0 0 -4.23333,-1.01248 c -2.71286,-0.42333 -4.93889,-1.73566 -4.87892,-4.92125 a 4.47675,4.47675 0 0 0 -0.1905,1.34761 c 0.26459,2.286 1.68275,3.76062 3.96875,4.20864 1.42875,0.2787 2.87514,0.48331 4.2792,0.8502 2.11666,0.55033 3.09033,1.99319 2.94922,4.1275 -0.0106,0.31044 -0.0953,0.61736 -0.17639,1.08303 z m -10.71386,-1.09362 v 2.6917 l 1.37231,-0.57503 z"
         class="cls-114" />
      <path
         style="fill:#b61b05;stroke-width:0.35277775"
         inkscape:connector-curvature="0"
         id="path2505"
         d="m 565.39556,232.24474 -0.65969,-1.10772 c 1.76389,0.11642 3.50308,0.25753 5.25639,0.35278 2.87866,0.127 5.76439,0.2928 8.64658,0.30692 6.60753,0.0317 13.10922,-0.77612 19.37455,-2.97039 2.06023,-0.7232 4.04989,-1.65453 6.07131,-2.49061 -0.33161,0.41627 -0.59267,0.93838 -1.01247,1.22766 -1.52047,1.05834 -3.10092,2.01436 -4.64609,3.03389 -0.50094,0.32808 -0.95955,0.70556 -1.43933,1.08303 -2.11667,0.4833 -4.19453,1.143 -6.33236,1.41111 a 63.425914,63.425914 0 0 1 -8.46667,0.50094 c -3.34433,-0.0388 -6.70277,-0.35277 -10.02594,-0.6103 -2.25778,-0.20108 -4.5085,-0.49389 -6.76628,-0.73731 z"
         class="cls-113" />
      <path
         style="fill:#4d0602;stroke-width:0.35277775"
         inkscape:connector-curvature="0"
         id="path2507"
         d="m 596.98681,231.66619 c 0.47978,-0.35278 0.93839,-0.75495 1.43933,-1.08303 1.54517,-1.01953 3.12562,-1.98261 4.64609,-3.03389 0.4198,-0.28928 0.68086,-0.81139 1.01247,-1.22767 a 52.00297,52.00297 0 0 0 9.09814,-6.18772 53.847997,53.847997 0 0 0 9.09461,-10.18822 c 0.15522,-0.22225 0.32103,-0.43744 0.52211,-0.70556 l 0.85725,0.45862 c -1.95792,2.46944 -3.77472,4.96711 -5.78555,7.2778 a 85.114694,85.114694 0 0 1 -6.01839,6.23711 34.424054,34.424054 0 0 1 -9.32039,6.30061 c -1.79211,0.82198 -3.68653,1.44286 -5.54567,2.15195 z"
         class="cls-114" />
      <path
         style="fill:#4d0602;stroke-width:0.35277775"
         inkscape:connector-curvature="0"
         id="path2509"
         d="m 702.81661,229.70474 c 0.13406,-0.91369 0.29634,-1.82386 0.4057,-2.74108 0.25753,-2.13783 0.55739,-4.27214 0.70555,-6.41703 0.0847,-1.25941 -0.0988,-2.54 -0.13052,-3.81 a 3.601861,3.601861 0 0 1 0.1905,-0.83961 c 2.04611,0.74436 3.048,2.31775 3.45016,4.35681 0.4692,2.38477 2.15195,3.55952 4.3427,2.88572 a 7.1543331,7.1543331 0 0 0 2.11666,-1.2312 18.062222,18.062222 0 0 0 1.71098,-1.68627 c 0.0388,0.28927 0.13052,0.49389 0.0705,0.56444 -1.37583,1.60867 -2.794,3.15031 -5.17878,3.07622 -1.16769,-0.0388 -1.76389,-0.32808 -3.2138,-1.71802 -0.73378,3.00919 -2.34597,5.43983 -4.4697,7.56002 z"
         class="cls-114" />
      <path
         style="fill:#b61b05;stroke-width:0.35277775"
         inkscape:connector-curvature="0"
         id="path2511"
         d="m 684.97664,181.39888 a 10.869083,10.869083 0 0 0 -0.41275,5.06589 1.0124722,1.0124722 0 0 1 -0.59266,1.13947 14.269861,14.269861 0 0 1 -1.66864,0.70556 l -0.17639,-0.21519 c 0.15875,-0.635 0.32103,-1.27 0.52211,-2.08845 -1.73214,-1.36172 -3.97581,-2.24719 -6.35,-2.82222 -2.3742,-0.57503 -4.80483,-0.54328 -7.22489,-0.52564 4.99533,-0.9913 9.77547,-0.49742 14.32983,2.24367 0.0247,-2.36714 0.74789,-4.33564 2.39889,-5.92667 l -0.53975,1.51342 c 1.524,0.23989 2.77284,-0.49389 4.09928,-0.88547 -1.20297,1.17475 -2.67053,1.68627 -4.38503,1.79563 z"
         class="cls-113" />
      <path
         style="fill:#b61b05;stroke-width:0.35277775"
         inkscape:connector-curvature="0"
         id="path2513"
         d="m 670.74559,171.71866 c 0.17286,0.20814 0.35277,0.4057 0.51858,0.62089 1.03364,1.35114 2.20133,2.54353 3.81706,3.175 1.76388,0.70556 3.45722,0.35278 5.04119,-0.6103 0.508,-0.30692 0.98425,-0.67381 1.47461,-1.01248 1.73567,2.99156 1.73567,2.99156 4.93889,2.38478 -1.30528,1.84856 -3.43606,1.68981 -5.29167,-0.381 a 20.545777,20.545777 0 0 1 -2.0955,1.05833 c -2.0708,0.7867 -3.94052,0.32103 -5.59505,-1.09008 a 10.047111,10.047111 0 0 1 -2.80811,-4.14514 z"
         class="cls-113" />
      <path
         style="fill:#b61b05;stroke-width:0.35277775"
         inkscape:connector-curvature="0"
         id="path2515"
         d="m 654.27439,205.67352 a 2.3389166,2.3389166 0 0 1 2.38125,2.22603 2.7163887,2.7163887 0 0 1 -2.56469,2.54 c -1.44992,0 -2.49767,-0.92781 -2.5012,-2.19428 a 2.6775833,2.6775833 0 0 1 2.68464,-2.57175 z"
         class="cls-113" />
      <path
         style="fill:#b61b05;stroke-width:0.35277775"
         inkscape:connector-curvature="0"
         id="path2517"
         d="m 672.35425,186.0485 c -1.28764,-1.32998 -2.79047,-0.75848 -4.23333,-0.59973 0.0847,-0.96308 0.35278,-1.24177 1.27,-1.26294 a 8.6677497,8.6677497 0 0 1 1.62983,0.0952 c 1.143,0.19755 1.37584,0.53269 1.3335,1.76742 z"
         class="cls-113" />
      <path
         style="fill:#b61b05;stroke-width:0.35277775"
         inkscape:connector-curvature="0"
         id="path2519"
         d="m 680.75742,187.61483 c -1.31586,-0.58561 -2.52942,-1.67922 -4.13103,-0.88547 0.20461,-1.09009 0.62089,-1.41111 1.7145,-1.21003 a 9.0804997,9.0804997 0 0 1 1.56281,0.47978 c 0.92075,0.3563 1.01247,0.55386 0.85372,1.61572 z"
         class="cls-113" />
      <path
         style="fill:#b61b05;stroke-width:0.35277775"
         inkscape:connector-curvature="0"
         id="path2521"
         d="m 666.30059,182.72533 h -0.0741 0.0882 z"
         class="cls-113" />
    </g>
  </g>
</svg>
