<?xml version="1.0" encoding="UTF-8" standalone="no"?>
<!-- Created with Inkscape (http://www.inkscape.org/) -->

<svg
   xmlns:dc="http://purl.org/dc/elements/1.1/"
   xmlns:cc="http://creativecommons.org/ns#"
   xmlns:rdf="http://www.w3.org/1999/02/22-rdf-syntax-ns#"
   xmlns:svg="http://www.w3.org/2000/svg"
   xmlns="http://www.w3.org/2000/svg"
   xmlns:sodipodi="http://sodipodi.sourceforge.net/DTD/sodipodi-0.dtd"
   xmlns:inkscape="http://www.inkscape.org/namespaces/inkscape"
   version="1.1"
   id="svg2"
   width="432"
   height="89.333336"
   viewBox="0 0 432 89.333336"
   sodipodi:docname="pyramidlogistics.svg"
   inkscape:version="0.92+devel unknown">
  <metadata
     id="metadata8">
    <rdf:RDF>
      <cc:Work
         rdf:about="">
        <dc:format>image/svg+xml</dc:format>
        <dc:type
           rdf:resource="http://purl.org/dc/dcmitype/StillImage" />
        <dc:title></dc:title>
      </cc:Work>
    </rdf:RDF>
  </metadata>
  <defs
     id="defs6" />
  <sodipodi:namedview
     pagecolor="#ffffff"
     bordercolor="#666666"
     inkscape:document-rotation="0"
     borderopacity="1"
     objecttolerance="10"
     gridtolerance="10"
     guidetolerance="10"
     inkscape:pageopacity="0"
     inkscape:pageshadow="2"
     inkscape:window-width="1920"
     inkscape:window-height="1016"
     id="namedview4"
     showgrid="false"
     inkscape:zoom="2.0640316"
     inkscape:cx="237.24756"
     inkscape:cy="-23.551964"
     inkscape:window-x="0"
     inkscape:window-y="0"
     inkscape:window-maximized="1"
     inkscape:current-layer="g10" />
  <g
     inkscape:groupmode="layer"
     inkscape:label="Image"
     id="g10">
    <g
       id="g4287">
      <path
         style="fill:#fe1004;stroke-width:1.33333337"
         d="M 0.66666667,61.333335 C 1.807254,59.487826 430.19275,59.487826 431.33333,61.333335 431.8814,62.22013 359.7654,62.666669 216,62.666669 72.234607,62.666669 0.11859748,62.22013 0.66666667,61.333335 Z M 191.46629,31.19902 c -2.66118,-6.934942 1.415,-19.004418 8.4046,-24.8857793 11.02148,-9.273968 27.81066,-6.84663021 36.07595,5.2157733 3.50553,5.115997 5.71241,20.470987 2.94216,20.470987 -0.78733,0 -6.10599,-6 -11.81924,-13.333334 -5.71324,-7.333333 -10.82247,-13.3333335 -11.35381,-13.3333335 -0.53135,0 -6.02498,6.2886305 -12.20807,13.9747355 -8.07739,10.040881 -11.46705,13.388155 -12.04159,11.890951 z"
         id="path4291"
         inkscape:connector-curvature="0" />
      <path
         style="fill:#3f402e;stroke-width:1.33333337"
         d="m 1.3333333,80.000002 c 0,-6.222222 0.4444444,-8 2,-8 1.4814815,0 2,1.555556 2,6 0,5.511111 0.271605,6.000001 3.3333334,6.000001 2.0740743,0 3.3333333,0.755556 3.3333333,2 0,1.444444 -1.481481,2 -5.3333333,2 H 1.3333333 Z m 53.5999997,6.400001 c -2.659385,-2.659386 -2.000238,-11.42531 0.979012,-13.019755 8.094818,-4.332217 15.196167,3.653424 10.70741,12.040743 -1.582159,2.95629 -9.080943,3.58449 -11.686422,0.979012 z m 8.797676,-6.949994 c -0.578345,-4.047851 -5.598056,-3.723647 -6.180998,0.399207 -0.247495,1.7504 0.332382,3.666078 1.288614,4.257063 2.424515,1.498432 5.371074,-1.305921 4.892384,-4.65627 z m 47.202321,6.949994 c -2.28216,-2.282167 -1.97833,-9.831189 0.49524,-12.304762 2.68697,-2.686972 7.78922,-2.686972 10.47619,0 3.02967,3.029668 2.6682,3.398324 -2.90476,2.962471 -4.52239,-0.35369 -5.03873,-0.05707 -5.40546,3.105294 -0.44359,3.825121 2.12811,5.674303 5.19304,3.734054 1.32986,-0.841867 1.39194,-1.195524 0.21242,-1.209974 -0.91667,-0.01123 -1.66667,-0.620417 -1.66667,-1.35375 0,-0.733334 1.5,-1.333334 3.33334,-1.333334 2.81481,0 3.33333,0.622223 3.33333,4.000001 0,3.824289 -0.25185,4 -5.73333,4 -3.15334,0 -6.45334,-0.72 -7.33334,-1.6 z M 164,80.000002 c 0,-6.222222 0.44444,-8 2,-8 1.55556,0 2,1.777778 2,8 0,6.222223 -0.44444,8.000001 -2,8.000001 -1.55556,0 -2,-1.777778 -2,-8.000001 z m 46.69588,6.035198 c -2.35487,-2.837435 -0.54495,-4.332072 2.75233,-2.272888 1.46314,0.913749 3.32711,1.249232 4.14214,0.745517 0.87724,-0.542169 -0.36894,-1.789751 -3.05424,-3.057695 -5.71723,-2.699544 -6.09723,-6.836898 -0.79908,-8.700156 3.97989,-1.399656 7.60409,-0.05996 8.69552,3.21433 0.44454,1.333626 -0.44564,1.566409 -3.58731,0.938076 -5.34297,-1.068595 -5.40687,0.141484 -0.10507,1.989701 3.33902,1.163989 4.00015,2.05302 3.66667,4.930642 -0.34448,2.972448 -1.13972,3.572042 -5.18763,3.911361 -3.11989,0.261527 -5.38617,-0.328685 -6.52333,-1.698888 z M 268,82.000002 c 0,-4.444444 -0.51852,-6 -2,-6 -1.1,0 -2,-0.9 -2,-2 0,-1.511111 1.62963,-2 6.66667,-2 5.03704,0 6.66666,0.488889 6.66666,2 0,1.111111 -1.18518,2 -2.66666,2 -2.2716,0 -2.66667,0.88889 -2.66667,6 0,4.444445 -0.51852,6.000001 -2,6.000001 -1.48148,0 -2,-1.555556 -2,-6.000001 z m 49.33333,-2 c 0,-6.222222 0.44444,-8 2,-8 1.55556,0 2,1.777778 2,8 0,6.222223 -0.44444,8.000001 -2,8.000001 -1.55556,0 -2,-1.777778 -2,-8.000001 z m 46.71358,5.420989 c -4.48667,-8.383433 2.61634,-16.370952 10.70741,-12.040743 2.90449,1.554433 3.50151,5.286421 0.84568,5.286421 -0.95333,0 -2.413,-0.679669 -3.24371,-1.510377 -2.06708,-2.067071 -5.68962,-0.452926 -5.68962,2.535197 0,4.016985 2.52468,5.64937 6.1692,3.988819 3.82094,-1.74094 5.52206,-0.52144 3.19088,2.287473 -2.47812,2.98594 -10.27975,2.629854 -11.97984,-0.54679 z m 55.50865,1.690122 c -0.48889,-0.488888 -0.88889,-1.688888 -0.88889,-2.666666 0,-2.249578 3.57162,-2.339999 4.38889,-0.111107 0.48557,1.324301 0.97041,1.327896 2.36027,0.01751 1.41992,-1.338734 0.9357,-1.932741 -2.57234,-3.155651 -3.22581,-1.124526 -4.21865,-2.193123 -3.91582,-4.214663 0.22312,-1.489499 1.3628,-3.307809 2.53262,-4.040689 2.87183,-1.799153 9.20638,-0.06191 9.20638,2.524845 0,1.613347 -0.97307,1.910901 -4.33334,1.3251 L 422,76.034352 l 4.38469,2.007609 c 5.08563,2.328549 6.60218,5.162385 4.26788,7.975032 -1.65198,1.990528 -9.4334,2.75775 -11.09701,1.094131 z M 183.49724,50.333335 c 2.51412,-4.241288 31.29419,-39.658342 32.17455,-39.594336 0.54718,0.03978 8.35604,9.339783 17.35302,20.666667 l 16.35815,20.594336 h -33.43684 c -26.38748,0 -33.22855,-0.351376 -32.44888,-1.666667 z M 1.3333333,35.333334 V 20.000001 H 19.153521 c 16.009278,0 18.1772,0.280824 21.333334,2.76344 6.891789,5.421083 2.943122,15.728221 -6.153522,16.062435 -2.383333,0.08756 -7.783333,0.03236 -12,-0.12268 l -7.666666,-0.28189 v 6.122682 6.12268 H 8 1.3333333 Z M 28.419319,32.114016 c 2.87857,-2.878571 -0.830515,-6.079347 -7.555896,-6.520403 l -6.196756,-0.406388 v 4.913124 4.913125 l 6.115953,-0.689357 c 3.363775,-0.379145 6.800288,-1.373691 7.636699,-2.210101 z m 48.914014,13.064448 c 0,-4.531401 -1.116253,-6.914023 -6.402808,-13.666667 -9.531181,-12.174411 -9.501028,-11.511796 -0.523882,-11.511796 7.70869,0 7.98565,0.12741 11.593357,5.333333 2.032801,2.933334 4.413983,5.333334 5.291515,5.333334 0.877532,0 3.524205,-2.4 5.881497,-5.333334 3.507781,-4.364965 5.121896,-5.333333 8.889818,-5.333333 2.53211,0 4.60384,0.383646 4.60384,0.852548 0,0.468901 -3.3,4.936893 -7.333337,9.928872 C 93.143392,38.442589 92,40.700393 92,45.262207 v 5.404461 h -7.333333 -7.333334 z m 47.999997,-9.84513 V 20.000001 h 18.60394 c 20.01642,0 24.9666,1.157969 26.21509,6.132357 1.32867,5.293811 -0.63365,8.371726 -6.44799,10.113742 l -5.4679,1.638226 7.13569,6.391171 7.13569,6.391171 h -8.40221 c -7.88388,0 -8.80435,-0.336677 -14.9206,-5.457491 -7.39519,-6.191599 -8.14623,-8.810153 -2.85171,-9.942717 C 153.07016,33.825368 156,32.079017 156,29.504572 c 0,-3.145899 -2.48492,-4.171238 -10.10905,-4.171238 H 140 v 12.666667 12.666667 h -7.33333 -7.33334 z M 261.623,35.666668 262,20.666667 l 10.40836,-0.390769 10.40836,-0.390769 3.4766,8.057436 c 1.91213,4.431589 3.86805,8.057436 4.34648,8.057436 0.47844,0 2.60155,-3.623055 4.71801,-8.051232 l 3.84815,-8.051232 10.06368,0.384565 10.06369,0.384565 0.377,15.000001 0.377,15 h -7.377 -7.377 l -0.0936,-11.666667 -0.0936,-11.666667 -5.5731,11.333334 -5.57311,11.333333 -5.61503,0.407474 -5.61502,0.407475 -5.98416,-11.740809 -5.98407,-11.740807 -0.0675,11.666667 -0.0675,11.666667 H 265.95633 261.246 Z M 344,35.333334 V 20.000001 h 6.66667 6.66666 V 35.333334 50.666668 H 350.66667 344 Z m 38.66667,0 V 20.000001 h 18.06621 c 18.70836,0 22.79612,0.922633 27.45521,6.196828 3.40352,3.852857 4.22096,10.243147 1.99255,15.576495 -3.18916,7.632741 -7.26879,8.893344 -28.78109,8.893344 h -18.73288 z m 32.00744,6.354377 c 2.1035,-2.674179 2.65429,-4.712351 2.067,-7.648811 -1.21135,-6.056768 -3.83839,-7.803443 -12.70072,-8.444486 L 396,25.012825 V 35.17308 45.333335 h 7.90323 c 7.02256,0 8.22277,-0.406239 10.77088,-3.645624 z"
         id="path4289"
         inkscape:connector-curvature="0" />
    </g>
  </g>
</svg>
