<?xml version="1.0" encoding="UTF-8" standalone="no"?>
<!-- Created with Inkscape (http://www.inkscape.org/) -->

<svg
   xmlns:dc="http://purl.org/dc/elements/1.1/"
   xmlns:cc="http://creativecommons.org/ns#"
   xmlns:rdf="http://www.w3.org/1999/02/22-rdf-syntax-ns#"
   xmlns:svg="http://www.w3.org/2000/svg"
   xmlns="http://www.w3.org/2000/svg"
   xmlns:sodipodi="http://sodipodi.sourceforge.net/DTD/sodipodi-0.dtd"
   xmlns:inkscape="http://www.inkscape.org/namespaces/inkscape"
   version="1.1"
   id="svg4981"
   width="1278.6667"
   height="1278.6667"
   viewBox="0 0 1278.6667 1278.6667"
   sodipodi:docname="robota.svg"
   inkscape:version="0.92+devel unknown">
  <metadata
     id="metadata4987">
    <rdf:RDF>
      <cc:Work
         rdf:about="">
        <dc:format>image/svg+xml</dc:format>
        <dc:type
           rdf:resource="http://purl.org/dc/dcmitype/StillImage" />
        <dc:title></dc:title>
      </cc:Work>
    </rdf:RDF>
  </metadata>
  <defs
     id="defs4985" />
  <sodipodi:namedview
     pagecolor="#ffffff"
     bordercolor="#666666"
     inkscape:document-rotation="0"
     borderopacity="1"
     objecttolerance="10"
     gridtolerance="10"
     guidetolerance="10"
     inkscape:pageopacity="0"
     inkscape:pageshadow="2"
     inkscape:window-width="1920"
     inkscape:window-height="1016"
     id="namedview4983"
     showgrid="false"
     inkscape:zoom="0.48111277"
     inkscape:cx="886.11921"
     inkscape:cy="540.29638"
     inkscape:window-x="0"
     inkscape:window-y="0"
     inkscape:window-maximized="1"
     inkscape:current-layer="g4989" />
  <g
     inkscape:groupmode="layer"
     inkscape:label="Image"
     id="g4989">
    <g
       id="g5536"
       transform="matrix(0.72400486,0,0,0.72400486,178.87234,-42.186286)">
      <path
         style="fill:#06a4d8;stroke-width:1.33333337"
         d="m 616.66668,1161.3334 c 1.32732,-1.4667 2.71331,-2.6667 3.07998,-2.6667 0.36666,0 -0.41932,1.2 -1.74664,2.6667 -1.32732,1.4666 -2.71331,2.6666 -3.07998,2.6666 -0.36666,0 0.41932,-1.2 1.74664,-2.6666 z m -112.83675,-3.6667 c -1.65849,-2.1147 -1.61133,-2.1619 0.50342,-0.5034 1.28333,1.0065 2.33333,2.0565 2.33333,2.3333 0,1.0974 -1.09492,0.3911 -2.83675,-1.8299 z m -40.78124,-38.6534 c 4.24344,-0.2654 10.84344,-0.263 14.66667,0.01 3.82323,0.2684 0.35132,0.4855 -7.71535,0.4825 -8.06666,0 -11.19476,-0.2226 -6.95132,-0.488 z m 342.618,0 c 4.21666,-0.2646 11.11666,-0.2646 15.33333,0 4.21667,0.2646 0.76667,0.4811 -7.66667,0.4811 -8.43333,0 -11.88333,-0.2165 -7.66666,-0.4811 z M 949.43862,820.55558 c 0.064,-1.55327 0.37992,-1.8692 0.80555,-0.80556 0.38516,0.96249 0.3378,2.11251 -0.1052,2.55556 -0.44305,0.44305 -0.75819,-0.34445 -0.70029,-1.75 z m -9.4386,-250.39231 c 0,-0.27687 1.05,-1.32687 2.33334,-2.33334 2.11474,-1.65849 2.1619,-1.61133 0.50341,0.50342 -1.74183,2.221 -2.83675,2.9273 -2.83675,1.82992 z M 501.33335,436.41125 c -61.14374,-10.25271 -101.91382,-62.51003 -96.1053,-123.18359 4.83431,-50.49709 46.34278,-93.58705 96.37698,-100.04896 12.82877,-1.65683 31.325,-0.6588 43.72832,2.35952 30.73173,7.47849 59.67421,31.52133 73.49305,61.05149 6.86992,14.68071 9.35482,25.36892 10.13114,43.57685 0.79506,18.64766 -1.07911,30.55044 -7.32178,46.50012 -4.59084,11.72936 -15.60936,28.3226 -25.12792,37.84116 -7.60484,7.60484 -28.03059,22.15884 -31.09872,22.15884 -0.83344,0 -3.74144,1.1243 -6.46223,2.49846 -12.25886,6.19143 -41.76902,9.90295 -57.61354,7.24611 z m 37.27638,-31.97627 c 29.71804,-8.18262 53.74121,-34.02477 59.47157,-63.97462 2.44401,-12.77374 2.41681,-19.25003 -0.13174,-31.37318 -5.43261,-25.84191 -22.0039,-47.65361 -43.94949,-57.84785 -33.66884,-15.63996 -69.39099,-9.89499 -94.97122,15.27365 -20.07601,19.75297 -28.33148,47.77633 -22.3922,76.01072 3.35368,15.94284 10.5158,28.46838 23.58136,41.24048 9.35827,9.1481 15.14704,12.86519 28.11468,18.05307 15.24071,6.09724 34.07799,7.07803 50.2771,2.61773 z"
         id="path5542"
         inkscape:connector-curvature="0" />
      <path
         style="fill:#e72629;stroke-width:1.33333337"
         d="m 546.37123,1154.2024 c -13.78728,-5.0022 -23.77626,-14.0836 -30.19638,-27.4528 -1.56282,-3.2544 -2.8415,-6.1044 -2.8415,-6.3333 0,-0.229 21.9,-0.4163 48.66666,-0.4163 53.76155,0 51.0507,-0.49 46.46591,8.3996 -12.11608,23.4922 -38.38101,34.4064 -62.09469,25.8028 z m 162.71266,1.2538 c -10.42826,-3.0098 -17.59534,-7.1256 -24.49326,-14.0656 -7.29981,-7.3443 -11.25728,-13.8022 -11.25728,-18.3698 V 1120 h 48.0254 48.0254 l -0.8372,3.6667 c -2.46537,10.7974 -16.9592,25.3598 -30.00526,30.1471 -8.4401,3.0972 -21.83064,3.8438 -29.4578,1.6424 z m -249.75054,-63.3484 c -18.5499,-1.3468 -32.65851,-10.6587 -40.40005,-26.6647 L 415.33334,1058 414.97974,847.41096 c -0.31732,-188.98193 -0.13656,-211.34946 1.7618,-218.00001 3.73652,-13.09021 11.41804,-22.26057 24.28546,-28.99247 l 7.17125,-3.7518 h 194.23422 194.23422 l 7.54621,3.7058 c 9.92035,4.8717 17.88947,12.78174 22.25198,22.08703 l 3.53514,7.54051 0.37816,211.33334 c 0.28771,160.78274 -0.003,212.76854 -1.21668,217.33334 -2.24693,8.4533 -9.88758,19.5331 -17.06169,24.7415 -3.35488,2.4356 -10.01672,5.6651 -14.80407,7.1768 -8.62617,2.7237 -10.31344,2.7463 -188,2.5228 -98.61266,-0.1241 -184.09573,-0.5741 -189.96239,-1 z m 325,-81.4588 3.66667,-4.0244 V 887.91277 c 0,-128.92536 0.26975,-124.20595 -7.29608,-127.65316 -1.92283,-0.87611 -4.42715,-1.59292 -5.56515,-1.59292 -3.94854,0 -10.7773,4.1461 -12.28736,7.46032 -1.0984,2.41073 -1.5175,35.65954 -1.51601,120.26908 10e-4,108.6656 0.16699,117.26601 2.33333,121.58541 4.46702,8.9064 13.87382,10.1207 20.6646,2.6675 z m -267,-7.4739 3.33333,-3.23567 V 922.1097 c 0,-73.42869 -0.13739,-77.98153 -2.42972,-80.51453 -6.11149,-6.75312 -18.17239,-6.16204 -21.86403,1.07152 -1.33326,2.61248 -1.62961,20.12361 -1.37037,80.97481 l 0.33079,77.6415 3.28848,2.3585 c 1.80866,1.2972 4.20866,2.7729 5.33333,3.2794 3.36279,1.5144 9.82248,-0.2943 13.37819,-3.7458 z m 70.92377,0.6135 c 2.57831,-1.8156 3.82034,-4.1154 4.40594,-8.15843 0.44852,-3.09657 0.63281,-38.43224 0.40956,-78.52369 l -0.40594,-72.89354 -3.11292,-3.31258 c -6.38012,-6.78938 -18.07428,-5.3005 -21.39831,2.72438 -1.13568,2.74178 -1.45513,24.24623 -1.1878,79.9562 l 0.3657,76.20571 3.16569,3.36905 c 5.00692,5.3284 10.79679,5.5348 17.75808,0.6329 z m 67.33522,-0.3391 3.74101,-3.2171 0.37531,-76.05856 c 0.42646,-86.42532 0.65422,-84.22956 -9.00667,-86.83098 -6.56984,-1.76908 -9.22155,-1.0903 -13.49108,3.4534 l -3.21089,3.41708 -0.39227,74.89335 c -0.21575,41.19134 -0.0385,76.84334 0.39376,79.22667 0.4702,2.59234 1.58211,4.33334 2.76744,4.33334 1.08979,0 2.32679,0.9 2.74889,2 1.29835,3.3834 11.63491,2.6007 16.0745,-1.2172 z M 517.63768,807.61429 c 3.52524,-4.50934 3.89179,-8.70196 3.44401,-39.39291 l -0.41501,-28.44529 -4.35437,-3.88804 c -4.53504,-4.04936 -8.47143,-4.77539 -14.16163,-2.61198 -6.72508,2.55687 -7.484,6.54934 -7.484,39.37131 0,32.30364 0.56503,35.27931 7.23956,38.12681 4.44283,1.8954 13.14604,0.14723 15.73144,-3.1599 z m 66.26018,3.53949 c 3.16129,-0.63225 4.88916,-2.13596 6.83333,-5.94688 2.33716,-4.5812 2.60216,-7.96427 2.60216,-33.21997 0,-22.33939 -0.40953,-28.9113 -1.99239,-31.97219 -4.61266,-8.91992 -13.81409,-10.66977 -20.57172,-3.91216 l -4.10256,4.10257 v 30.63031 c 0,32.95235 0.76803,37.27768 7.06981,39.81551 3.6929,1.48717 4.93279,1.54853 10.16137,0.50281 z m 71.22805,-1.43757 c 0.63041,-0.38962 1.98497,-2.71588 3.01015,-5.16947 2.26998,-5.43281 2.67272,-57.82879 0.49257,-64.08276 -2.58124,-7.40453 -12.2514,-10.6124 -18.66527,-6.19181 -6.50614,4.48417 -6.54313,4.69241 -6.58262,37.06118 -0.0341,28.01163 0.18588,31.03287 2.54169,34.89644 1.41851,2.32639 3.96627,4.5124 5.66168,4.85782 3.26476,0.66514 11.61485,-0.18048 13.5418,-1.3714 z M 785.1605,720.94637 c 2.49397,-4.03534 2.72581,-6.73391 2.89235,-33.66667 0.1088,-17.59642 -0.37391,-30.71494 -1.20972,-32.87662 -2.93368,-7.58748 -12.65268,-10.42224 -19.28631,-5.62529 -5.68596,4.11165 -6.44747,9.30264 -5.98305,40.78451 0.42001,28.47223 0.47361,28.94599 3.65866,32.33333 2.67679,2.84679 4.43436,3.43772 10.22459,3.43772 6.46789,0 7.19547,-0.32894 9.70348,-4.38698 z m -405.63068,156.0334 c -11.98477,-16.28439 -16.86314,-30.48844 -16.86314,-49.09934 0,-12.46669 2.77317,-24.00841 8.46094,-35.21374 3.93992,-7.76194 14.1881,-20.83495 15.63291,-19.942 0.73149,0.45209 1.23948,23.4116 1.23948,56.02069 0,43.32563 -0.35981,55.25027 -1.66667,55.23439 -0.91666,-0.0107 -3.97825,-3.16115 -6.80352,-7 z m 517.82395,-47.97975 c 0.0133,-33.82711 0.51743,-54.40603 1.36485,-55.66667 1.13051,-1.68177 1.88234,-1.36353 4.72494,2 7.45192,8.81752 11.49329,15.78352 15.26062,26.30431 3.35556,9.37085 3.95032,12.995 3.95592,24.10527 0.004,7.19193 -0.63166,15.89193 -1.41176,19.33333 -2.99125,13.19607 -17.54602,37.59043 -22.42814,37.59043 -1.06928,0 -1.48111,-15.07176 -1.46643,-53.66667 z M 371.73762,564.80759 c -12.47888,-3.3729 -21.81642,-11.58351 -28.21249,-24.80758 l -4.19179,-8.66666 -0.40973,-188.66667 c -0.30576,-140.79485 -0.012,-190.52742 1.15659,-196.00001 2.07692,-9.72391 6.61076,-17.20269 15.1724,-25.02755 13.26202,-12.12074 -12.68524,-11.1414 283.41408,-10.697 l 260.66668,0.39122 7.40894,3.47491 c 7.97112,3.73858 16.5387,11.35644 20.19304,17.95465 6.77464,12.23214 6.46927,1.7892 6.08678,208.14646 l -0.35543,191.75732 -3.67008,7.34419 c -4.98471,9.97492 -12.44411,17.54305 -21.82748,22.14565 l -7.83577,3.84349 -260.66668,0.25011 c -207.11951,0.19875 -261.95311,-0.0976 -266.92906,-1.44253 z m 97.59573,-47.42166 c 16.5,-0.71021 44.7,-1.90593 62.66666,-2.65714 17.96667,-0.75122 47.06667,-1.97319 64.66667,-2.71551 29.79731,-1.25675 44.30296,-1.85701 129.33334,-5.35205 33.65573,-1.38336 71.79192,-2.99316 125.79292,-5.30994 17.85278,-0.76593 33.55934,-1.98116 34.90347,-2.70052 2.54316,-1.36105 2.52847,-1.27926 5.38451,-29.98409 0.72964,-7.33333 1.98932,-18.03252 2.79928,-23.77598 1.23577,-8.76288 1.16065,-10.75464 -0.46704,-12.38232 -2.95054,-2.95053 -6.12318,-0.86684 -6.998,4.59608 -0.97236,6.07194 -3.31252,27.93607 -4.54675,42.48017 -0.50957,6.00488 -1.41296,11.40488 -2.00751,12 -0.59454,0.59513 -14.08148,1.49401 -29.97094,1.9975 -15.88947,0.50351 -40.88994,1.54274 -55.55661,2.30939 -14.66666,0.76667 -30.39428,1.40471 -34.95026,1.41788 l -8.2836,0.024 -10.11064,-13.66667 c -15.88824,-21.47632 -20.92923,-27.65486 -22.01546,-26.98354 -0.55494,0.34298 -3.54636,7.07958 -6.64758,14.97024 -3.10122,7.89065 -6.40396,16.14664 -7.33944,18.34664 -0.93547,2.2 -2.01352,4.96468 -2.39567,6.14374 -1.0301,3.17818 -5.9471,3.75104 -44.81908,5.22172 -19.49106,0.73743 -48.63827,1.94162 -64.7716,2.67596 -16.13334,0.73436 -44.03334,1.9391 -62.00001,2.67718 -17.96666,0.73809 -46.46666,1.93392 -63.33333,2.65738 -16.86667,0.72347 -42.73002,1.69723 -57.47411,2.1639 l -26.80745,0.84848 -0.71738,-3.19418 c -0.39457,-1.7568 -3.37132,-10.69418 -6.615,-19.86085 -4.91712,-13.89579 -6.38256,-16.73763 -8.81446,-17.09352 -4.31644,-0.63165 -4.83016,2.66341 -1.77318,11.37353 1.49022,4.24599 4.58507,13.08394 6.87747,19.63987 6.71472,19.2032 2.35408,17.25741 36.4722,16.27447 16.23521,-0.46775 43.01858,-1.43154 59.51858,-2.14176 z m 73.56596,-74.90359 c 55.82339,-12.79972 94.43404,-60.64061 94.43404,-117.00936 0,-13.49469 -1.58784,-26.73911 -3.93305,-32.80631 -0.56692,-1.46666 -1.78079,-5.06666 -2.69747,-8 -1.51881,-4.86013 -6.62033,-15.82357 -10.97672,-23.5896 -1.51903,-2.70793 -8.20312,-11.21448 -16.39276,-20.8623 -4.11629,-4.84922 -22.15964,-18.24175 -29.77707,-22.10179 -20.10703,-10.189 -34.19785,-13.40388 -58.22293,-13.2838 -19.35406,0.0968 -20.46539,0.25685 -34.40968,4.95728 -41.96053,14.14429 -69.01207,43.16913 -80.97351,86.88021 -1.94562,7.10991 -2.56152,13.82406 -2.58543,28.18418 -0.0272,16.32583 0.42625,20.43355 3.38515,30.66667 6.52621,22.5704 14.02521,36.0355 28.9772,52.03108 17.17246,18.37101 40.10051,30.91986 66.27293,36.27216 11.48251,2.34818 33.57004,1.71785 46.8993,-1.33842 z m 185.6827,-14.60009 c 7.75184,-1.95195 14.4531,-7.75792 18.63104,-16.14193 3.95502,-7.93672 4.32985,-14.02706 1.39364,-22.64438 -7.08063,-20.7805 -34.05067,-26.2729 -49.46654,-10.07376 -8.93248,9.38634 -11.09808,23.35774 -5.18459,33.44836 8.25778,14.09083 19.68082,19.17506 34.62645,15.41171 z"
         id="path5540"
         inkscape:connector-curvature="0" />
      <path
         style="fill:#312c2c;stroke-width:1.33333337"
         d="m 546.00001,1181.7939 c -10.61125,-2.2611 -26.9575,-10.4542 -34.2723,-17.178 -11.1973,-10.2926 -21.84335,-27.4378 -24.39194,-39.2825 -0.55226,-2.5667 -1.67873,-5.1075 -2.50326,-5.6463 -0.82454,-0.5388 -9.34026,-0.9888 -18.92383,-1 -19.3663,-0.023 -26.88448,-1.6147 -39.72144,-8.4112 -10.27038,-5.4377 -23.56498,-18.4484 -28.18087,-27.5792 -9.69749,-19.1829 -9.20291,-14.4414 -9.70352,-93.02309 l -0.45227,-70.99307 -2.92529,-1.54257 c -12.54572,-6.61567 -29.72719,-25.57063 -37.95833,-41.87643 -8.23223,-16.30796 -10.30778,-25.89782 -10.22888,-47.26152 0.0668,-18.07607 0.34696,-20.15707 4.30873,-32 7.06325,-21.11423 22.77241,-42.43565 38.94065,-52.85265 l 7.98923,-5.14735 0.0348,-50.66667 c 0.0377,-54.84736 0.7194,-61.953 7.32895,-76.39013 1.88781,-4.12355 4.9085,-9.43264 6.71264,-11.79799 1.80414,-2.36533 3.28025,-4.56239 3.28025,-4.88232 0,-0.31993 -7.95,-0.87581 -17.66667,-1.23529 -20.94917,-0.77504 -30.22922,-3.43808 -44.10522,-12.65659 -15.18622,-10.08895 -25.55195,-25.83143 -29.45685,-44.73624 -1.85872,-8.99874 -2.10458,-32.00871 -2.10458,-196.96811 0,-207.98081 -0.40088,-198.39232 9.05856,-216.66668 6.16883,-11.91735 18.17948,-23.932384 29.63196,-29.642784 17.94445,-8.947408 -2.20437,-8.357214 285.30949,-8.357214 287.36927,0 267.43152,-0.580902 285.16792,8.308595 11.79598,5.912158 23.98908,18.065583 29.88395,29.786693 9.35115,18.59346 8.95072,8.86447 8.92499,216.84851 -0.0256,206.64436 0.35743,197.00671 -8.54642,215.05621 -8.25549,16.73522 -25.18589,30.93765 -43.11274,36.16605 -4.20807,1.22728 -12.30972,2.592 -18.00368,3.03269 l -10.35266,0.80127 4.96083,7.33333 c 2.72847,4.03333 6.48347,11.23333 8.34447,16 l 3.38361,8.66667 0.44137,55.33333 0.44136,55.33334 6.23351,3.961 c 20.22909,12.85433 37.14009,37.0678 43.11771,61.73664 7.65141,31.57645 -0.33371,66.58935 -20.82491,91.31235 -7.30184,8.8098 -19.74165,19.75724 -25.72597,22.6397 l -3,1.44502 -0.0159,69.45265 c -0.0173,76.11885 -0.0133,76.07025 -8.15085,92.72555 -5.16823,10.5775 -19.22686,25.0235 -29.33974,30.1481 -13.89625,7.0418 -16.89422,7.681 -39.76913,8.4796 l -21.9422,0.7661 -3.39494,10 c -4.3465,12.8029 -9.01008,20.6741 -17.94734,30.2916 -8.45012,9.0933 -18.19352,15.2572 -31.66051,20.029 -13.73372,4.8664 -33.33532,5.009 -47.77947,0.3476 -12.77096,-4.1215 -28.14411,-14.5093 -36.11493,-24.4034 -6.89082,-8.5535 -13.87636,-21.9756 -15.25112,-29.3037 -0.95483,-5.0896 -3.64166,-8.3985 -5.75772,-7.0907 -0.68234,0.4217 -1.6525,3.0234 -2.15594,5.7815 -3.29612,18.0577 -20.98856,40.1213 -39.73952,49.5577 -17.90537,9.0109 -33.7488,11.2068 -52.31411,7.2509 z m 35.76067,-28.4505 c 12.61462,-5.6616 20.61403,-13.1334 26.70524,-24.9438 4.58479,-8.8896 7.29564,-8.3996 -46.46591,-8.3996 -26.76666,0 -48.66666,0.1873 -48.66666,0.4163 0,0.2289 1.27868,3.0789 2.8415,6.3333 6.42012,13.3692 16.4091,22.4506 30.19638,27.4528 11.11842,4.0338 25.25201,3.6908 35.38945,-0.859 z m 156.78101,0.4704 c 13.04606,-4.7873 27.53989,-19.3497 30.00526,-30.1471 l 0.8372,-3.6667 h -48.0254 -48.0254 v 3.0208 c 0,4.5676 3.95747,11.0255 11.25728,18.3698 14.24237,14.3292 35.44952,19.2125 53.95106,12.4232 z m 98.75405,-63.2288 c 4.78735,-1.5117 11.44919,-4.7412 14.80407,-7.1768 7.17411,-5.2084 14.81476,-16.2882 17.06169,-24.7415 1.21336,-4.5648 1.50439,-56.5506 1.21668,-217.33334 l -0.37816,-211.33334 -3.53514,-7.54051 c -4.36251,-9.30529 -12.33163,-17.21533 -22.25198,-22.08703 l -7.54621,-3.7058 H 642.43247 448.19825 l -7.17125,3.7518 c -12.86742,6.7319 -20.54894,15.90226 -24.28546,28.99247 -1.89836,6.65055 -2.07912,29.01808 -1.7618,218.00001 l 0.3536,210.58904 3.59996,7.4431 c 7.74154,16.006 21.85015,25.3179 40.40005,26.6647 5.86666,0.4259 91.34973,0.8759 189.96239,1 177.68656,0.2235 179.37383,0.2009 188,-2.5228 z m -67.96239,-76.2357 c -1.83333,-0.9458 -4.3824,-3.8114 -5.6646,-6.3678 -2.16634,-4.3194 -2.3314,-12.91981 -2.33333,-121.58541 -10e-4,-84.60954 0.41761,-117.85835 1.51601,-120.26908 1.51006,-3.31422 8.33882,-7.46032 12.28736,-7.46032 1.138,0 3.64232,0.71681 5.56515,1.59292 7.56583,3.44721 7.29608,-1.2722 7.29608,127.65316 v 118.71183 l -3.66667,4.0244 c -4.25693,4.6721 -10.25034,6.1507 -15,3.7003 z m -265.37819,-7.4284 c -1.12467,-0.5065 -3.52467,-1.9822 -5.33333,-3.2794 l -3.28848,-2.3585 -0.33079,-77.6415 c -0.25924,-60.8512 0.0371,-78.36233 1.37037,-80.97481 3.69164,-7.23356 15.75254,-7.82464 21.86403,-1.07152 2.29233,2.533 2.42972,7.08584 2.42972,80.51453 v 77.82973 l -3.33333,3.23567 c -3.55571,3.4515 -10.0154,5.2602 -13.37819,3.7458 z m 72.54388,0.1434 c -1.55887,-0.2968 -4.25887,-2.0557 -6,-3.9086 l -3.16569,-3.36905 -0.3657,-76.20571 c -0.26733,-55.70997 0.0521,-77.21442 1.1878,-79.9562 3.32403,-8.02488 15.01819,-9.51376 21.39831,-2.72438 l 3.11292,3.31258 0.40594,72.89354 c 0.22325,40.09145 0.0389,75.42712 -0.40956,78.52369 -1.11216,7.67843 -8.48768,12.89573 -16.16402,11.43413 z m 63.0188,-2.3976 c -0.4221,-1.1 -1.6591,-2 -2.74889,-2 -1.18533,0 -2.29724,-1.741 -2.76744,-4.33334 -0.43231,-2.38333 -0.60951,-38.03533 -0.39376,-79.22667 l 0.39227,-74.89335 3.21089,-3.41708 c 4.26953,-4.5437 6.92124,-5.22248 13.49108,-3.4534 9.66089,2.60142 9.43313,0.40566 9.00667,86.83098 l -0.37531,76.05856 -3.74101,3.2171 c -4.43959,3.8179 -14.77615,4.6006 -16.0745,1.2172 z M 501.90624,810.77419 c -6.67453,-2.8475 -7.23956,-5.82317 -7.23956,-38.12681 0,-32.82197 0.75892,-36.81444 7.484,-39.37131 5.6902,-2.16341 9.62659,-1.43738 14.16163,2.61198 l 4.35437,3.88804 0.41501,28.44529 c 0.44778,30.69095 0.0812,34.88357 -3.44401,39.39291 -2.5854,3.30713 -11.28861,5.0553 -15.73144,3.1599 z m 71.83025,-0.1232 c -6.30178,-2.53785 -7.06981,-6.86318 -7.06981,-39.81553 v -30.63031 l 4.10256,-4.10257 c 6.75763,-6.75761 15.95906,-5.00776 20.57172,3.91216 1.58286,3.06089 1.99239,9.6328 1.99239,31.97219 0,25.2557 -0.265,28.63877 -2.60216,33.21997 -3.19381,6.2604 -9.75137,8.36105 -16.9947,5.44407 z m 67.84762,0.43664 c -1.69541,-0.34541 -4.24317,-2.53142 -5.66168,-4.85781 -2.35581,-3.86357 -2.57587,-6.88481 -2.54169,-34.89644 0.0395,-32.36877 0.0765,-32.57701 6.58262,-37.06119 6.41387,-4.42058 16.08403,-1.21272 18.66527,6.19182 2.18015,6.25397 1.77741,58.64994 -0.49257,64.08276 -1.02518,2.45358 -2.37974,4.77985 -3.01015,5.16946 -1.92695,1.19092 -10.27704,2.03655 -13.5418,1.3714 z m 123.64832,-89.19197 c -3.18505,-3.38735 -3.23865,-3.86111 -3.65866,-32.33334 -0.46442,-31.48186 0.29709,-36.67285 5.98305,-40.7845 6.63363,-4.79695 16.35263,-1.96219 19.28631,5.62529 0.83581,2.16168 1.31852,15.2802 1.20972,32.87661 -0.16654,26.93277 -0.39838,29.63134 -2.89235,33.66667 -2.50801,4.05804 -3.23559,4.38699 -9.70348,4.38699 -5.79023,0 -7.5478,-0.59093 -10.22459,-3.43772 z M 388.00001,828.74538 c 0,-32.60909 -0.50799,-55.5686 -1.23948,-56.02069 -1.44481,-0.89295 -11.69299,12.18006 -15.63291,19.942 -8.18905,16.13304 -10.84533,38.04894 -6.59124,54.38153 3.33351,12.79818 17.5465,36.87988 21.79696,36.93155 1.30686,0.0159 1.66667,-11.90876 1.66667,-55.23439 z m 516.68136,49.14566 c 5.31469,-5.8023 14.62331,-24.24018 16.56697,-32.81478 0.7801,-3.4414 1.41539,-12.1414 1.41176,-19.33333 -0.009,-19.19322 -5.90537,-34.65906 -19.21654,-50.40958 -2.8426,-3.36353 -3.59443,-3.68177 -4.72494,-2 -1.97169,2.93314 -1.87285,109.33334 0.1016,109.33334 0.81776,0 3.4553,-2.14904 5.86118,-4.77565 z m 2.48776,-315.73452 c 9.38337,-4.6026 16.84277,-12.17073 21.82748,-22.14565 l 3.67008,-7.34419 0.35543,-191.75732 C 933.40461,134.5521 933.70998,144.99504 926.93534,132.7629 923.281,126.16469 914.71342,118.54683 906.7423,114.80825 l -7.40894,-3.47491 -260.66668,-0.39122 c -296.09932,-0.4444 -270.15206,-1.42374 -283.41408,10.697 -8.56164,7.82486 -13.09548,15.30364 -15.1724,25.02755 -1.16888,5.47259 -1.46235,55.20516 -1.15659,196.00001 l 0.40973,188.66667 4.19179,8.66666 c 6.39607,13.22407 15.73361,21.43468 28.21249,24.80758 4.97595,1.34494 59.80955,1.64128 266.92906,1.44253 l 260.66668,-0.25011 z M 378.90337,517.77561 c -0.76605,-1.43137 -3.26841,-7.96645 -5.5608,-14.52238 -2.2924,-6.55594 -5.38725,-15.39388 -6.87747,-19.63987 -3.05698,-8.71012 -2.54326,-12.00519 1.77318,-11.37353 2.4319,0.35589 3.89734,3.19773 8.81446,17.09352 3.24368,9.16666 6.22043,18.10405 6.615,19.86085 l 0.71738,3.19417 26.80745,-0.84848 c 14.74409,-0.46666 40.60744,-1.44042 57.47411,-2.16389 16.86667,-0.72347 45.36667,-1.91929 63.33333,-2.65739 17.96667,-0.73808 45.86667,-1.94281 62.00001,-2.67717 16.13333,-0.73435 45.28054,-1.93853 64.7716,-2.67596 38.87198,-1.47068 43.78898,-2.04355 44.81908,-5.22172 0.38215,-1.17907 1.4602,-3.94375 2.39567,-6.14375 0.93548,-2.2 4.23822,-10.45598 7.33944,-18.34664 3.10122,-7.89065 6.09264,-14.62725 6.64758,-14.97024 1.08623,-0.67132 6.12722,5.50723 22.01546,26.98355 l 10.11064,13.66667 8.2836,-0.024 c 4.55598,-0.0133 20.2836,-0.65122 34.95026,-1.41788 14.66667,-0.76666 39.66714,-1.80588 55.55661,-2.30939 15.88946,-0.50349 29.3764,-1.40237 29.97094,-1.99751 0.59455,-0.59512 1.49794,-5.99512 2.00751,-12 1.23423,-14.54409 3.57439,-36.40823 4.54675,-42.48016 0.87482,-5.46292 4.04746,-7.54661 6.998,-4.59608 1.62769,1.62768 1.70281,3.61944 0.46704,12.38232 -0.80996,5.74346 -2.06964,16.44264 -2.79928,23.77598 -2.85604,28.70482 -2.84135,28.62304 -5.38451,29.98409 -1.34413,0.71936 -17.05069,1.93459 -34.90347,2.70052 -54.001,2.31677 -92.13719,3.92657 -125.79292,5.30993 -85.03038,3.49504 -99.53603,4.09531 -129.33334,5.35206 -17.6,0.74232 -46.7,1.96429 -64.66667,2.7155 -17.96666,0.75122 -46.16666,1.94694 -62.66666,2.65715 -16.5,0.71023 -43.28337,1.67401 -59.51858,2.14176 -28.37128,0.81739 -29.57271,0.74928 -30.9114,-1.75208 z m 362.42998,-21.13833 c 0,-0.96273 -17.61142,-23.96251 -18.65361,-24.36081 -0.90903,-0.34743 -10.67567,22.26498 -10.68244,24.73274 -10e-4,0.54495 6.59851,0.80338 14.66667,0.5743 8.06816,-0.22908 14.66938,-0.65488 14.66938,-0.94623 z M 496.00001,443.82076 c -11.85853,-2.42508 -20.86013,-5.56015 -32.31804,-11.25567 -14.62501,-7.26984 -23.42987,-13.75688 -33.95489,-25.01649 -14.95199,-15.99558 -22.45099,-29.46068 -28.9772,-52.03108 -2.9589,-10.23312 -3.41234,-14.34084 -3.38515,-30.66667 0.0324,-19.49239 1.49085,-27.81068 7.83519,-44.68923 7.1315,-18.9728 24.04818,-40.90257 40.46992,-52.46283 13.36509,-9.40849 19.94635,-12.75241 35.25383,-17.91233 13.94429,-4.70043 15.05562,-4.86053 34.40968,-4.95728 24.02508,-0.12013 38.1159,3.0948 58.22293,13.2838 7.61743,3.86004 25.66078,17.25257 29.77707,22.10179 8.18964,9.64782 14.87373,18.15437 16.39276,20.8623 4.35639,7.76603 9.45791,18.72947 10.97672,23.5896 0.91668,2.93334 2.13055,6.53334 2.69747,8 6.17834,15.98372 5.10993,49.26799 -2.28306,71.12365 -16.50302,48.78733 -63.26233,81.91814 -114.8846,81.40024 -7.82795,-0.0785 -16.93263,-0.69495 -20.23263,-1.3698 z m 45.83495,-9.32228 c 6.69079,-1.55919 14.39115,-3.95919 17.11193,-5.33334 2.72079,-1.37416 5.62879,-2.49846 6.46223,-2.49846 0.83343,0 6.40733,-3.22148 12.38646,-7.15884 25.81221,-16.99784 42.86613,-41.77827 49.55598,-72.00795 3.06695,-13.85876 2.16168,-39.90642 -1.8538,-53.33999 -6.03572,-20.19221 -15.70853,-36.18028 -30.38017,-50.21496 -20.94868,-20.03921 -41.88362,-29.35664 -70.45091,-31.35529 -42.29443,-2.95904 -81.7412,17.67704 -103.65056,54.22349 -9.26643,15.45707 -14.21796,30.01384 -15.78807,46.41452 -4.19107,43.77828 16.09541,84.70883 53.28676,107.51279 24.95144,15.29903 55.24331,20.30089 83.32015,13.75803 z m -36.41779,-28.05319 c -16.81321,-2.40328 -32.5165,-10.28324 -45.19921,-22.68111 -13.06556,-12.7721 -20.22768,-25.29764 -23.58136,-41.24048 -4.03659,-19.18925 -2.05011,-35.23276 6.68437,-53.98543 4.66514,-10.01589 7.40111,-13.85224 15.70783,-22.02529 25.58023,-25.16864 61.30237,-30.91361 94.97121,-15.27365 21.94559,10.19424 38.51689,32.00594 43.9495,57.84785 2.5486,12.12315 2.5758,18.59944 0.13173,31.37318 -8.13204,42.50229 -49.72797,72.12224 -92.66412,65.98493 z m 24.05055,-87.95532 c 2.49276,-0.83052 6.83313,-3.68052 9.64527,-6.33334 7.66313,-7.22896 10.56413,-13.84909 11.27364,-25.72666 0.51749,-8.66316 0.1542,-11.18135 -2.36347,-16.38215 -9.11535,-18.8298 -31.54013,-16.49768 -42.32817,4.40201 -12.4513,24.12195 2.18324,51.23317 23.77273,44.04014 z M 710.41759,427.5237 c -9.73324,-3.02948 -19.75091,-16.3552 -19.75091,-26.27309 0,-9.05877 2.71267,-16.17493 8.47347,-22.22843 15.41587,-16.19914 42.38591,-10.70674 49.46654,10.07376 2.93621,8.61732 2.56138,14.70766 -1.39364,22.64438 -7.16367,14.3756 -21.52559,20.53613 -36.79546,15.78338 z"
         id="path5538"
         inkscape:connector-curvature="0" />
    </g>
    <path
       style="fill:#000000;stroke-width:1.07968831"
       d="m 497.01131,1233.2568 c -22.20609,-5.8175 -39.11721,-22.8192 -45.08134,-45.3229 -2.48052,-9.3592 -2.48868,-27.3293 -0.0169,-36.616 6.19913,-23.2875 23.87623,-40.7133 46.77696,-46.1111 15.56009,-3.6679 35.25435,-0.6117 49.51761,7.684 7.32751,4.2617 17.57004,14.9982 21.65811,22.7028 7.58025,14.2856 10.07771,34.8574 6.22315,51.2606 -8.19925,34.8925 -43.63739,55.6876 -79.07779,46.4026 z m 30.50848,-10.2668 c 18.44925,-4.8053 31.72884,-18.2838 36.80526,-37.3569 2.03967,-7.6634 1.99547,-24.7579 -0.0847,-32.7442 -4.67134,-17.9347 -18.56339,-32.2739 -35.55296,-36.6979 -15.17995,-3.9531 -32.30752,-1.2424 -44.78038,7.0864 -18.2166,12.1647 -26.36214,37.1956 -20.33789,62.4971 4.16605,17.4974 18.6667,32.448 36.12634,37.2476 7.15523,1.9667 20.20782,1.9518 27.82431,-0.034 z m 90.46878,9.7901 c -5.61546,-2.6142 -5.66836,-2.6847 -5.66836,-7.5298 v -4.891 l 4.58867,2.4121 c 5.87857,3.0899 14.02907,3.1685 17.03333,0.1653 3.74099,-3.7411 4.29052,-12.0456 4.29052,-64.8407 v -51.1377 h 5.3984 5.39845 v 54.3282 c 0,59.4429 -0.25609,62.2558 -6.18281,67.933 -6.83827,6.55 -15.70963,7.821 -24.8582,3.5616 z m 275.59042,1.1269 c -24.86013,-4.8134 -41.94393,-20.007 -49.26453,-43.8137 -2.94275,-9.5698 -3.47312,-28.0611 -1.08387,-37.7891 3.80985,-15.5121 14.83566,-31.0667 27.3696,-38.6114 12.87892,-7.7525 29.40828,-11.1575 44.08573,-9.0818 10.26207,1.4511 22.25089,5.419 28.13125,9.3106 3.95409,2.6165 4.2064,3.1064 4.2064,8.1668 0,2.9607 -0.29118,5.3829 -0.64701,5.3829 -0.35589,0 -3.39251,-1.6721 -6.74805,-3.7161 -17.93447,-10.9248 -41.31168,-12.1195 -59.39551,-3.0356 -20.06328,10.0778 -30.97721,36.5275 -25.58005,61.992 8.09878,38.2111 49.94976,53.5977 86.27993,31.7209 l 6.19565,-3.7307 -0.32255,6.161 -0.32256,6.1609 -6.691,3.5387 c -13.15654,6.9579 -32.4083,10.0175 -46.21373,7.3446 z m -713.13413,-64.3983 v -62.6925 l 25.6426,0.3405 c 25.17047,0.334 25.75192,0.393 31.58088,3.1945 14.08083,6.7676 21.47571,20.4031 20.20158,37.2499 -1.12902,14.928 -8.13667,25.5147 -20.74142,31.3342 -6.15439,2.8417 -7.43588,3.0124 -25.6426,3.4159 l -19.16447,0.4251 v 24.7124 24.7124 h -5.93828 -5.93829 z m 49.77448,1.001 c 5.92776,-1.9846 10.27209,-5.8819 13.27568,-11.9093 5.17801,-10.391 3.3088,-26.3575 -4.00423,-34.2031 -5.64171,-6.0527 -9.6127,-7.0804 -29.08458,-7.5265 l -18.08478,-0.414 v 27.6411 27.6407 h 17.11391 c 9.92409,0 18.65576,-0.5163 20.784,-1.2289 z m 82.66728,60.9717 c -0.39587,-0.3958 -0.71978,-28.6137 -0.71978,-62.7063 v -61.9865 l 26.18244,0.3542 c 24.62844,0.3341 26.50284,0.5017 31.58089,2.8369 6.85113,3.1507 12.90224,8.9742 16.49234,15.8721 4.10534,7.8881 4.70636,23.1985 1.26904,32.3269 -3.05242,8.1064 -10.3748,15.6825 -17.80366,18.4208 -2.9459,1.0858 -5.6795,2.2582 -6.07463,2.6054 -0.39517,0.3472 7.53045,12.2919 17.61248,26.5438 l 18.33095,25.9126 -5.60722,0.3306 c -3.08397,0.1822 -6.20599,0.1012 -6.93781,-0.1788 -0.73183,-0.2801 -9.2502,-11.969 -18.92974,-25.9739 l -17.59912,-25.4631 h -13.31971 -13.31968 v 25.9125 25.9125 h -5.2185 c -2.87019,0 -5.54242,-0.3239 -5.93829,-0.7197 z m 52.49907,-64.3592 c 4.1265,-1.8891 6.85953,-4.0471 8.73151,-6.8945 7.22355,-10.9872 6.10257,-27.5793 -2.44047,-36.1223 -5.9201,-5.9201 -12.35136,-7.4309 -31.63396,-7.4309 h -15.99936 v 26.2725 c 0,14.4499 0.3644,26.6531 0.80977,27.1184 0.44537,0.4656 8.39589,0.6124 17.66782,0.3273 15.14286,-0.467 17.46918,-0.7997 22.86469,-3.2698 z m 349.50488,2.457 v -62.6219 H 750.52028 786.15 v 4.8586 4.8586 h -29.69143 -29.69143 v 22.1336 22.1336 h 24.29299 24.29299 v 5.3984 5.3985 h -24.29299 -24.29299 v 25.3726 25.3727 H 756.45857 786.15 v 4.8586 4.8586 h -35.62972 -35.62971 z m 326.06593,4.8586 v -57.7633 h -22.6735 -22.67343 v -4.8586 -4.8586 h 50.74533 50.7454 v 4.8586 4.8586 h -22.6735 -22.6734 v 57.7633 57.7633 h -5.3985 -5.3984 z m 73.5383,-52.9699 c -4.1387,-3.4823 -5.2731,-8.6847 -2.896,-13.2815 1.848,-3.5738 6.6099,-6.6276 10.3343,-6.6276 6.683,0 12.7558,7.5754 11.3186,14.1186 -1.7332,7.8912 -12.3611,11.1724 -18.7569,5.7905 z m 13.1909,-0.5213 c 7.0725,-5.5634 3.4514,-17.1053 -5.3944,-17.194 -4.9266,-0.051 -6.7,0.8891 -8.5913,4.5465 -4.8687,9.4149 5.8139,19.0754 13.9857,12.6475 z m -10.0713,-7.545 c 0,-7.2433 1.0821,-8.4225 6.1725,-6.7264 3.5339,1.1772 4.5435,4.4392 1.9589,6.3293 -1.7074,1.2484 -1.707,1.5048 0.01,4.12 1.005,1.5342 1.3415,2.789 0.7476,2.789 -0.5938,0 -1.8755,-1.2146 -2.8482,-2.6992 -0.9728,-1.4846 -2.2433,-2.6992 -2.8234,-2.6992 -0.5802,0 -1.0548,1.2146 -1.0548,2.6992 0,1.4846 -0.4859,2.6992 -1.0797,2.6992 -0.6005,0 -1.0797,-2.8905 -1.0797,-6.5119 z m 7.0179,-3.2053 c 0,-0.8907 -1.0931,-1.7747 -2.4293,-1.9643 -1.8696,-0.2666 -2.4293,0.1855 -2.4293,1.9643 0,1.7778 0.5597,2.2303 2.4293,1.9647 1.3362,-0.1889 2.4293,-1.0739 2.4293,-1.9647 z M 87.808642,1046.2798 c -1.72295,-1.7228 -1.64477,-4.6302 0.16499,-6.132 1.0781,-0.8948 145.851498,-1.1417 551.872958,-0.942 522.85891,0.2564 550.47121,0.3657 551.60341,2.1604 0.8693,1.3783 0.8693,2.4009 0,3.7789 -1.1322,1.795 -28.7524,1.9029 -551.76823,2.1604 -427.33529,0.2092 -550.866558,-0.034 -551.872988,-1.0257 z M 378.47877,982.34299 c -17.67733,-4.03668 -33.38255,-16.61471 -41.22952,-33.02024 -5.36231,-11.21088 -6.92337,-18.54534 -6.84921,-32.18146 0.10325,-18.99004 6.20781,-34.44173 18.43895,-46.67291 24.38122,-24.38139 65.98398,-24.36856 90.72126,0.0337 12.15402,11.98623 18.38996,27.59279 18.55488,46.43605 0.11607,13.27679 -1.54557,21.15818 -6.7601,32.06168 -7.23917,15.1369 -18.55755,25.19757 -35.27733,31.35719 -9.10768,3.35513 -27.38781,4.32348 -37.59893,1.99203 z m 31.80485,-11.3013 c 16.94382,-5.27326 28.83733,-17.90798 34.20969,-36.34062 2.50133,-8.58251 2.50106,-24.78222 -5.4e-4,-33.42445 -6.85602,-23.68499 -26.06179,-38.32894 -50.26962,-38.32894 -24.3581,0 -43.92836,14.96549 -50.23786,38.417 -2.34002,8.69756 -2.33466,25.38752 0.0101,33.51217 5.25144,18.19107 16.99932,30.7384 33.81334,36.11457 8.50501,2.71913 23.82262,2.74308 32.47423,0.0506 z m 290.03115,11.72778 c -18.68276,-3.75023 -34.83297,-16.05969 -43.13358,-32.87651 -5.70214,-11.55233 -7.39894,-20.38351 -6.74809,-35.12024 0.59397,-13.44853 2.33119,-19.92295 8.4014,-31.31197 15.27266,-28.6546 54.20184,-39.5969 85.48146,-24.02746 27.45563,13.66582 40.68447,48.79956 30.50622,81.01948 -6.57659,20.81842 -23.71107,36.75968 -44.87306,41.7475 -7.35569,1.73358 -22.39338,2.02239 -29.63435,0.5692 z m 33.17319,-12.82029 c 14.3691,-5.59413 25.47643,-17.67146 30.27004,-32.91329 3.37002,-10.71489 3.27976,-28.34215 -0.19704,-38.4585 -7.59392,-22.09649 -26.23713,-35.57809 -49.25339,-35.61689 -30.73046,-0.0506 -52.32183,22.51488 -52.32183,54.6852 0,11.47237 1.50964,18.52948 5.97924,27.95111 5.73871,12.09723 17.7681,22.18996 30.75634,25.80523 8.76056,2.43807 26.69732,1.6887 34.76654,-1.45286 z M 193.40112,917.92474 V 855.2161 l 25.10276,0.42951 c 28.53599,0.48822 31.78352,1.1826 40.20958,8.59972 7.63218,6.71802 10.56509,13.39792 11.12875,25.34568 0.6606,14.00289 -1.50043,20.51982 -9.45641,28.51795 -4.30928,4.33191 -7.60337,6.56653 -11.67204,7.91816 l -5.6684,1.88271 6.1965,8.817 c 3.40804,4.84949 11.69971,16.59076 18.42586,26.09202 l 12.22943,17.27502 -5.60014,0.33065 c -3.08008,0.1822 -6.19255,0.1046 -6.91659,-0.17545 -0.72403,-0.27667 -9.25735,-11.96632 -18.9629,-25.97393 l -17.6465,-25.46883 H 217.48451 204.198 v 25.91252 25.91252 h -5.39844 -5.39844 z m 51.27045,-1.36649 c 9.77402,-4.28838 13.9125,-11.36945 13.99432,-23.94478 0.0472,-7.24033 -0.39669,-9.54445 -2.70186,-14.02617 -5.53704,-10.7655 -13.96307,-13.75388 -37.34338,-13.24339 l -13.8828,0.30366 -0.28916,26.83161 -0.28915,26.83161 18.10388,-0.43188 c 14.17097,-0.33808 19.03888,-0.84216 22.40788,-2.31998 z m 273.71575,1.36649 V 855.2161 l 25.10275,0.41095 c 21.23217,0.34753 25.75806,0.70922 29.35288,2.34495 6.80973,3.09871 10.83673,6.72815 14.20033,12.7987 2.88351,5.20443 3.14331,6.56551 3.14331,16.46997 0,9.91423 -0.25811,11.26283 -3.15552,16.49257 -1.76441,3.18441 -4.77438,6.69576 -6.82778,7.96507 l -3.67226,2.26937 4.15252,1.85909 c 8.7144,3.90172 14.60282,12.38706 16.41811,23.659 2.96071,18.38406 -5.93589,33.939 -22.30272,38.9943 -6.10702,1.88608 -10.04468,2.15364 -31.69253,2.15364 h -24.71909 z m 49.66566,51.8328 c 10.6215,-2.4185 16.88218,-9.71855 18.05148,-21.04785 1.17521,-11.387 -3.28627,-20.97227 -11.90582,-25.57917 -4.14047,-2.21269 -6.25103,-2.44921 -24.77028,-2.77311 l -20.24416,-0.35427 v 25.45669 25.45669 l 17.00509,-0.0337 c 9.3528,0 19.19146,-0.52398 21.86369,-1.13266 z m 0.6247,-62.43062 c 8.21174,-3.72965 11.87256,-11.17815 10.97703,-22.33437 -0.70332,-8.76167 -3.63704,-13.56156 -10.29284,-16.83976 -4.67991,-2.3048 -6.47273,-2.50589 -22.36281,-2.50589 h -17.27501 l -0.2922,21.86369 -0.29219,21.86369 17.56731,-0.0337 c 14.76184,-0.0337 18.27052,-0.34314 21.97092,-2.02374 z m 302.50726,15.81338 -0.27937,-57.4934 -22.40353,-0.29354 -22.40354,-0.29354 v -4.83667 -4.83666 h 50.74536 50.74535 v 4.83666 4.83667 l -22.40353,0.29354 -22.40354,0.29354 -0.27937,57.4934 -0.27937,57.49341 h -5.37951 -5.37951 z m 99.77174,56.44881 c 0.19806,-0.57493 11.77759,-28.74231 25.73259,-62.59459 l 25.37263,-61.54933 h 4.8586 4.8586 l 25.036,60.71594 c 13.7698,33.39375 25.3709,61.59217 25.7803,62.66309 0.673,1.76057 0.1384,1.91611 -5.5668,1.61953 l -6.3113,-0.32728 -21.6673,-52.72962 c -11.9171,-29.00144 -22.0964,-52.7205 -22.6207,-52.70903 -0.5244,0 -10.66,23.86111 -22.5236,52.99954 l -21.57013,52.97896 h -5.86944 c -3.31046,0 -5.71246,-0.4555 -5.50945,-1.0446 z"
       id="path6188"
       inkscape:connector-curvature="0" />
  </g>
</svg>
