<?xml version="1.0" encoding="UTF-8" standalone="no"?>
<!-- Created with Inkscape (http://www.inkscape.org/) -->

<svg
   xmlns:dc="http://purl.org/dc/elements/1.1/"
   xmlns:cc="http://creativecommons.org/ns#"
   xmlns:rdf="http://www.w3.org/1999/02/22-rdf-syntax-ns#"
   xmlns:svg="http://www.w3.org/2000/svg"
   xmlns="http://www.w3.org/2000/svg"
   xmlns:sodipodi="http://sodipodi.sourceforge.net/DTD/sodipodi-0.dtd"
   xmlns:inkscape="http://www.inkscape.org/namespaces/inkscape"
   version="1.1"
   id="svg11039"
   width="800"
   height="442.23999"
   viewBox="0 0 800 442.23999"
   sodipodi:docname="selfie-trace.svg"
   inkscape:version="0.92.2 5c3e80d, 2017-08-06">
  <metadata
     id="metadata11045">
    <rdf:RDF>
      <cc:Work
         rdf:about="">
        <dc:format>image/svg+xml</dc:format>
        <dc:type
           rdf:resource="http://purl.org/dc/dcmitype/StillImage" />
        <dc:title></dc:title>
      </cc:Work>
    </rdf:RDF>
  </metadata>
  <defs
     id="defs11043" />
  <sodipodi:namedview
     pagecolor="#ffffff"
     bordercolor="#666666"
     borderopacity="1"
     objecttolerance="10"
     gridtolerance="10"
     guidetolerance="10"
     inkscape:pageopacity="0"
     inkscape:pageshadow="2"
     inkscape:window-width="1922"
     inkscape:window-height="1077"
     id="namedview11041"
     showgrid="false"
     inkscape:zoom="1"
     inkscape:cx="347.96453"
     inkscape:cy="116.37319"
     inkscape:window-x="0"
     inkscape:window-y="0"
     inkscape:window-maximized="0"
     inkscape:current-layer="svg11039" />
  <path
     style="fill:#000000;stroke-width:0.31999999"
     d="m 320.8272,429.2621 c -4.63682,-0.63129 -8.45146,-1.82489 -13.1472,-4.11379 -8.69291,-4.23731 -15.5058,-10.45725 -21.76244,-19.86832 -17.09507,-25.71401 -20.62983,-66.37555 -8.78975,-101.11145 5.52076,-16.19654 14.62121,-30.41685 25.00397,-39.07104 7.25713,-6.04892 15.11657,-9.95252 23.17481,-11.5104 4.27248,-0.82599 11.80474,-0.76424 16.04819,0.13157 14.1289,2.98266 26.21261,12.77014 35.05741,28.39559 5.84797,10.33111 9.82381,22.97689 11.81261,37.57162 0.97523,7.15677 1.0553,24.48416 0.1456,31.51411 -1.64368,12.70211 -4.13738,22.74352 -8.09158,32.58247 -0.77623,1.93142 -1.34778,3.57523 -1.27012,3.65289 0.32317,0.3232 10.50548,-10.23869 12.62832,-13.09907 3.4474,-4.64518 6.55117,-9.77565 9.15693,-15.13629 2.88042,-5.92566 3.46704,-7.51654 4.51799,-12.25241 1.2935,-5.82893 3.44688,-11.916 6.19353,-17.50759 5.11795,-10.41898 11.15629,-17.76292 18.82941,-22.90066 3.72138,-2.49175 7.11626,-3.14224 10.48813,-2.00962 4.49081,1.5085 7.48006,5.38887 7.75865,10.07168 0.24679,4.14856 -1.22755,7.06308 -5.07555,10.03351 -3.24672,2.50624 -7.06803,6.49108 -8.90413,9.28509 -4.21904,6.42032 -7.54576,16.05981 -8.6663,25.11162 -0.50083,4.04573 -0.41536,13.49513 0.15936,17.61561 0.95469,6.8448 3.30698,14.01303 6.17267,18.81028 2.93245,4.90899 7.21399,8.81468 11.06928,10.09769 2.19773,0.73136 5.83386,0.68125 8.08928,-0.11146 7.43687,-2.61385 14.71699,-11.91343 18.45363,-23.57257 4.94365,-15.42528 4.2937,-32.14707 -1.7736,-45.63043 -0.6928,-1.53959 -1.3815,-3.55559 -1.53049,-4.48 -0.57936,-3.59498 0.81293,-7.52029 3.53577,-9.96839 2.34944,-2.11232 4.03754,-2.61259 11.36714,-3.36863 10.46944,-1.07991 21.83946,-3.26824 31.4264,-6.04847 l 4.05488,-1.17592 0.40064,-2.87966 c 2.54477,-18.29107 4.58518,-32.0939 6.17325,-41.75967 1.64489,-10.0118 2.05561,-11.96073 2.87565,-13.64556 2.42713,-4.98677 8.21696,-7.34141 13.62864,-5.54257 2.88649,0.95948 5.70438,3.66125 6.77577,6.49661 0.99325,2.62849 0.90951,4.28413 -0.70771,13.99173 -1.2191,7.31797 -2.85382,17.95167 -4.47354,29.09979 -0.24291,1.672 -0.38995,3.09571 -0.32672,3.1638 0.0632,0.0681 1.08935,-0.50791 2.28026,-1.28 5.81731,-3.77143 12.47501,-10.04003 15.98835,-15.05395 2.93514,-4.18878 5.74538,-5.78096 10.20349,-5.78096 1.95616,0 2.70227,0.16314 4.3704,0.95562 2.46659,1.17181 4.45277,3.11788 5.59901,5.486 0.74009,1.52903 0.86803,2.20869 0.87897,4.66949 0.0112,2.50191 -0.10147,3.11257 -0.85769,4.65153 -1.80423,3.67185 -7.60077,10.63299 -12.56877,15.09398 -7.08314,6.36025 -13.37731,10.54036 -23.36,15.51385 l -6.08,3.02912 -0.38707,3.41575 c -0.68743,6.06649 -1.98496,20.80582 -2.54026,28.85577 -0.66301,9.61146 -0.77017,31.39437 -0.17945,36.48 0.56233,4.84154 1.36185,8.96 1.73939,8.96 0.17936,0 1.27222,-0.67514 2.42861,-1.50029 8.15209,-5.81724 21.44329,-19.77292 35.44748,-37.21971 4.51024,-5.61897 13.92016,-17.82729 16.27885,-21.12 0.69341,-0.968 2.00035,-2.78633 2.90429,-4.0407 l 1.64352,-2.28074 0.21856,-11.7344 c 0.58128,-31.21073 2.26275,-55.47361 5.3463,-77.14416 1.7449,-12.2628 3.86522,-18.67009 8.47165,-25.6 5.67763,-8.5414 13.1632,-13.9746 22.54813,-16.36595 4.31072,-1.09841 10.08806,-1.09744 14.4216,0.003 14.26093,3.61945 23.3384,17.15541 23.3384,34.80123 0,8.95283 -2.0073,18.57211 -5.66061,27.12649 -6.49587,15.21038 -22.37536,41.75918 -41.59517,69.54259 L 617.6,346.21369 v 7.93322 7.93322 l 2.50554,-4.64 c 6.69968,-12.40704 12.31321,-20.30628 19.55692,-27.52 6.74791,-6.71994 12.67194,-10.38982 20.17664,-12.49917 2.36314,-0.66421 3.41277,-0.76499 8,-0.76817 4.5056,-0.003 5.67895,0.10384 8,0.72925 9.7769,2.63438 16.60695,9.44311 20.1209,20.05809 2.04051,6.164 2.78902,12.92547 2.49747,22.56 -0.21593,7.13616 -0.63936,11.324 -2.51197,24.8447 l -1.33577,9.6447 0.53974,2.18717 c 1.02471,4.15242 3.03792,5.94307 6.66218,5.92573 3.46352,-0.0166 7.71411,-2.76685 10.66304,-6.89939 1.83987,-2.57834 4.55225,-5.08128 6.68905,-6.17255 1.20324,-0.61446 2.28519,-0.87414 4.09453,-0.98265 2.23235,-0.13392 2.64922,-0.0586 4.51949,0.81661 9.56301,4.47507 8.6336,14.84496 -2.27856,25.42275 -5.91206,5.73091 -11.64243,8.76105 -18.99955,10.04675 -11.40848,1.99369 -23.52541,-3.49552 -29.34701,-13.29472 -3.00422,-5.05686 -4.40592,-9.87485 -4.70698,-16.1791 -0.1614,-3.38039 -0.0291,-4.93159 1.10608,-12.96 2.16727,-15.32884 2.40647,-17.83709 2.41069,-25.28 0.008,-13.63492 -1.9439,-18.0553 -7.96333,-18.0361 -10.24236,0.0327 -23.50707,16.73514 -35.41721,44.5961 -5.05335,11.82105 -9.47402,24.19078 -12.7513,35.67999 -1.83958,6.449 -4.68125,9.35005 -9.87267,10.07895 -5.73472,0.80518 -11.16534,-2.96573 -12.49453,-8.67594 -0.50989,-2.19059 -1.91734,-31.29708 -1.95565,-40.443 l -0.0173,-4.16 -1.0662,1.28 c -0.58644,0.704 -3.16996,3.85705 -5.74119,7.00681 -7.68441,9.41338 -14.39718,16.93837 -21.00723,23.54912 -14.91664,14.91821 -25.36026,21.44406 -34.31792,21.44406 -9.47962,0 -15.76781,-6.23801 -18.928,-18.77699 -2.12477,-8.43068 -2.59574,-14.17312 -2.56736,-31.303 0.0237,-14.37018 0.35709,-21.3864 1.74678,-36.77162 0.34832,-3.85638 0.59655,-7.0432 0.55162,-7.08182 -0.045,-0.0386 -1.73773,0.33676 -3.76173,0.8342 -3.92374,0.96429 -15.28621,3.17924 -16.30921,3.17924 -0.90746,0 -0.96388,0.2991 -0.46429,2.4616 4.17814,18.08544 1.73091,40.176 -6.26784,56.5784 -7.06807,14.49388 -17.10378,24.28121 -28.97127,28.25423 -15.8752,5.31476 -32.05881,-0.7967 -43.10025,-16.27609 -2.62768,-3.68384 -5.92963,-10.14611 -7.56112,-14.79795 -0.66739,-1.90288 -1.34679,-3.42176 -1.50973,-3.37527 -0.16298,0.0465 -1.43382,1.3154 -2.82416,2.81981 -7.55379,8.17357 -17.59466,15.96208 -26.83491,20.81539 -13.53357,7.10829 -25.84336,10.9096 -41.96938,12.96035 -6.98093,0.88775 -9.11222,0.93447 -13.76064,0.30164 z m 10.2904,-22.70256 c 10.88592,-2.56669 22.10464,-15.17948 28.71517,-32.28342 8.16297,-21.1207 9.11139,-48.08186 2.40685,-68.42026 -3.77716,-11.4581 -10.09056,-21.40454 -16.457,-25.92709 -4.4272,-3.14499 -8.10102,-4.40878 -12.81628,-4.40878 -17.16288,0 -34.0616,23.18501 -38.838,53.28563 -0.99109,6.24576 -1.3264,10.82384 -1.32382,18.07437 0.005,15.34701 2.54388,27.57674 8.149,39.26061 5.27264,10.99082 12.95622,18.54931 20.79099,20.45254 2.24711,0.54586 6.98752,0.52887 9.37309,-0.0336 z M 623.74154,296.31999 c 10.13171,-16.34947 18.21027,-31.36292 20.69113,-38.45303 1.93527,-5.53087 2.80071,-12.15896 2.28893,-17.53026 -0.3335,-3.50001 -1.14755,-6.01389 -2.59414,-8.01083 -2.87165,-3.9642 -8.96644,-3.21211 -13.82874,1.70643 -4.94195,4.99913 -6.40019,9.89399 -8.68941,29.16769 -1.19149,10.03145 -3.04221,34.12342 -3.04771,39.67428 l -0.003,1.59429 0.75648,-1.11429 c 0.41603,-0.61285 2.40733,-3.77828 4.42506,-7.03428 z M 158.4,426.05039 c -19.86549,-1.09766 -37.16172,-5.42682 -52.96,-13.25558 -11.494525,-5.69607 -16.484723,-9.29904 -18.265149,-13.18759 -0.795929,-1.73836 -0.918809,-2.39299 -0.917401,-4.88723 0.0013,-2.26269 0.149043,-3.20352 0.689376,-4.38934 2.209187,-4.84826 6.249728,-7.61066 11.132099,-7.61066 2.927175,0 4.731465,0.6897 8.801075,3.36429 6.33235,4.1617 14.98432,8.20694 22.64011,10.58544 l 2.32011,0.7208 0.14984,-0.69526 c 0.0824,-0.3824 0.45093,-3.07127 0.81893,-5.97527 5.19186,-40.96969 14.944,-89.00058 28.02655,-138.03548 1.49609,-5.60751 2.67613,-10.2352 2.62231,-10.28374 -0.1664,-0.15011 -18.06485,2.94447 -23.13785,4.00044 -10.19697,2.12257 -26.51493,6.41955 -36.48,9.6062 -3.73685,1.19498 -4.41016,1.31659 -6.619306,1.19556 -4.610496,-0.2526 -8.888902,-3.30891 -10.532608,-7.52404 -0.994582,-2.55052 -0.992675,-6.25205 0.0045,-8.81 0.989984,-2.53941 3.609188,-5.32385 6.017124,-6.39674 4.428528,-1.97319 24.13316,-7.39315 38.57983,-10.61178 16.04281,-3.57423 28.84787,-5.6645 43.59042,-7.11558 8.32955,-0.81986 28.48402,-0.81914 35.04,0.001 19.18209,2.40039 33.20645,8.66861 41.54299,18.56774 6.83725,8.11883 9.67936,15.58388 9.24761,24.28972 -0.2323,4.68415 -1.08385,7.80055 -3.43103,12.55645 -4.08337,8.2738 -11.13809,16.05989 -21.80801,24.06887 -3.7222,2.79392 -10.28849,7.19717 -13.96214,9.36277 -1.28181,0.75562 -2.27085,1.43358 -2.19786,1.50658 0.073,0.073 1.62575,0.47433 3.45058,0.89186 15.421,3.52843 27.26419,11.74068 33.07676,22.9359 1.78327,3.43465 3.47904,8.44144 4.21132,12.43401 0.75697,4.12717 0.76667,14.79012 0.0177,19.42928 -2.29717,14.22832 -7.69705,25.20394 -17.34789,35.26077 -14.19648,14.7937 -36.84049,24.60595 -63.2,27.38624 -4.54512,0.47942 -17.00242,0.84163 -21.12,0.61411 z m 18.70265,-24.61082 c 29.43132,-3.12313 51.4934,-16.46774 57.40057,-34.71958 1.96045,-6.05737 2.77016,-14.40413 1.86256,-19.2 -1.98076,-10.46659 -11.23931,-16.02134 -29.38591,-17.6304 -5.13529,-0.45536 -17.30118,-0.20982 -23.77987,0.47991 -5.52859,0.5886 -16.04382,2.20483 -16.34797,2.51276 -0.0422,0.0428 -0.67457,3.10173 -1.40518,6.79773 -3.10701,15.71767 -6.35125,35.52931 -8.48137,51.79328 -1.25949,9.61651 -1.28725,10.0081 -0.72548,10.23478 0.94764,0.3824 16.63117,0.18055 20.86265,-0.26848 z M 185.76,297.38432 c 22.57184,-10.62322 40.89024,-22.96315 47.67166,-32.11333 2.05153,-2.76814 3.36777,-5.58966 3.36809,-7.21989 6.4e-4,-3.2286 -4.50274,-8.92101 -9.08472,-11.48339 -7.46007,-4.17192 -16.66737,-6.10567 -30.7838,-6.46535 l -7.70877,-0.19642 -0.49145,1.88703 c -0.2703,1.03786 -1.74309,6.49502 -3.27289,12.12702 -4.45402,16.39775 -12.01812,46.95382 -12.01812,48.54867 0,0.60146 1.94116,-0.19963 12.32,-5.08434 z m 281.44,-0.47231 c -5.70582,-0.59353 -12.03072,-2.90711 -16.92557,-6.19119 -13.63885,-9.15067 -23.32045,-27.92158 -28.07837,-54.43904 -0.46992,-2.61898 -0.89516,-4.81267 -0.94499,-4.87487 -0.0498,-0.0622 -1.28768,0.88396 -2.75081,2.10257 -12.8346,10.68962 -24.28631,16.06356 -34.27376,16.08359 -9.15159,0.0184 -18.22756,-3.93339 -25.61767,-11.15413 -7.26755,-7.10098 -12.39174,-15.92237 -16.50259,-28.40959 l -1.80758,-5.49065 -2.54932,1.93251 c -13.92332,10.55446 -28.48318,17.00359 -42.86934,18.98849 -5.14077,0.70929 -13.82803,0.48852 -19.01742,-0.48329 -7.53922,-1.41185 -15.2692,-4.54819 -21.52829,-8.73482 -3.32718,-2.22552 -9.18893,-7.87475 -11.70067,-11.27646 -11.24421,-15.2283 -14.98142,-37.82068 -10.11127,-61.12513 3.89297,-18.62851 12.22567,-34.98656 24.10266,-47.316345 7.12586,-7.397519 16.57265,-12.322015 26.23608,-13.676537 3.20407,-0.449113 9.4209,-0.216048 12.65891,0.474576 14.08774,3.004733 23.84928,13.169875 26.09261,27.171416 0.60925,3.80277 0.23177,11.08191 -0.78749,15.18496 -4.10744,16.53462 -18.12196,34.64643 -38.04099,49.16266 -5.95259,4.33803 -15.60467,9.81705 -21.50413,12.20687 -1.232,0.49907 -2.35056,0.99929 -2.4857,1.1116 -0.35189,0.29245 2.57405,4.33396 4.60365,6.35886 4.84619,4.83498 11.28419,7.71857 19.41282,8.69504 8.76526,1.05295 19.68695,-1.57705 29.63766,-7.1369 6.95355,-3.88523 14.58469,-9.49398 20.63304,-15.16492 l 2.68077,-2.5135 -0.38704,-4.63889 c -0.59088,-7.08187 -0.79504,-26.59557 -0.36323,-34.71889 1.27462,-23.97853 5.39225,-47.281029 11.71536,-66.299349 8.5496,-25.715074 18.68592,-39.254674 32.20697,-43.020495 2.97268,-0.827937 8.75504,-0.888041 11.6257,-0.120842 2.90477,0.776316 6.89197,2.484852 8.99725,3.85536 2.92073,1.901364 7.47526,6.652595 9.19753,9.59473 4.07732,6.965315 5.64,13.671555 5.64333,24.218354 0.005,16.888275 -5.49347,37.579552 -15.98317,60.142532 -9.11312,19.60207 -23.13084,41.21624 -36.45446,56.20986 l -2.36387,2.66016 0.21296,1.81184 c 0.11712,0.99651 0.56659,3.34746 0.99885,5.22434 3.01251,13.081 7.18108,22.48657 12.43648,28.06043 3.09305,3.28052 7.91593,5.82307 11.04553,5.82307 5.6497,0 16.54346,-7.27789 28.42957,-18.99317 l 5.84,-5.75607 0.003,-11.54538 c 0.004,-22.9436 1.7047,-42.4811 5.78186,-66.42537 3.63491,-21.3473 9.39587,-42.28253 15.7182,-57.120002 10.79402,-25.334239 24.25453,-38.181952 39.29674,-37.50872 5.80829,0.259957 10.67722,2.509876 15.04,6.949912 3.6928,3.758207 5.95459,8.036134 7.52787,14.23822 2.24179,8.837353 1.84877,21.35807 -1.13721,36.229446 -7.29597,36.336954 -32.32503,89.409004 -56.22375,119.217694 l -3.01977,3.76655 0.35539,4.07345 c 1.88877,21.64839 6.81654,39.89485 13.49347,49.96345 2.85994,4.31267 6.88003,7.8625 10.57853,9.34106 2.35552,0.94167 6.6039,1.1783 8.94355,0.49815 8.5248,-2.47823 10.27056,-14.42598 4.28544,-29.32922 -3.6105,-8.99036 -9.28867,-17.89778 -18.34346,-28.77552 -4.32684,-5.19799 -4.96889,-6.59013 -4.80768,-10.42447 0.20733,-4.93156 2.40874,-7.85969 7.77479,-10.34132 29.07293,-13.44535 43.00176,-24.9525 56.64857,-46.79961 1.94858,-3.11947 6.05869,-10.10756 9.13357,-15.5291 6.14445,-10.83372 7.09245,-12.07351 10.42387,-13.63248 1.93216,-0.90416 2.28356,-0.96446 4.89338,-0.83968 2.29597,0.10977 3.1465,0.30379 4.63661,1.05772 3.38454,1.71243 5.75555,5.18491 6.15597,9.01573 0.16774,1.60497 0.0157,2.58826 -0.93677,6.05252 -4.95258,18.01555 -5.30112,34.81284 -0.98071,47.26117 2.11927,6.10619 5.26516,11.13145 8.66637,13.84375 1.84573,1.47189 1.85898,1.47637 3.93197,1.33394 7.78989,-0.53524 22.77805,-10.04497 36.46637,-23.13726 l 2.38633,-2.28245 -1.70982,-3.64147 c -3.70742,-7.89571 -5.81555,-14.29269 -7.22496,-21.92378 -5.50589,-29.81095 -1.35075,-55.796655 11.74064,-73.424443 2.5655,-3.454487 4.4527,-5.449696 7.78154,-8.226925 5.03216,-4.198291 10.13152,-6.863091 16.15004,-8.439632 3.51332,-0.9203 10.51527,-1.146841 14.157,-0.458035 11.65699,2.204842 21.49756,9.093952 26.09929,18.271353 1.14909,2.291655 2.63411,6.901831 3.11911,9.683139 0.62742,3.597776 0.6183,11.807206 -0.0176,15.756861 -0.67309,4.181542 -2.08368,9.611622 -3.78228,14.560002 -5.51536,16.06755 -17.83923,36.57972 -32.66307,54.36522 -1.86051,2.23222 -3.38275,4.19153 -3.38275,4.35403 0,0.53314 6.50429,3.5152 9.07578,4.16102 15.4743,3.88636 34.53932,-5.35616 49.13971,-23.82242 6.91385,-8.74447 13.96592,-22.14682 17.94166,-34.09785 1.99623,-6.00067 3.28579,-7.68787 7.27018,-9.51199 1.3887,-0.63577 2.3511,-0.83667 4.07536,-0.85072 6.28291,-0.0512 11.0423,4.44774 11.32909,10.70915 0.1008,2.20143 -0.0288,2.85999 -1.324,6.72695 -7.11328,21.23737 -18.95879,40.45597 -32.79207,53.20313 -4.36944,4.02637 -7.25219,6.27823 -12.23571,9.55793 -7.16934,4.7182 -14.46125,7.95349 -22.08,9.7965 -5.83165,1.41069 -9.41866,1.76376 -15.78717,1.5539 -5.84557,-0.19262 -9.51251,-0.79631 -14.16985,-2.33278 -4.77245,-1.57445 -11.59696,-5.13992 -14.77056,-7.71688 l -1.36762,-1.11049 -2.7881,2.63918 c -10.14617,9.60421 -21.68332,17.97704 -31.2767,22.69839 -8.29734,4.08351 -13.62899,5.5483 -20.16,5.53864 -5.87779,-0.009 -9.98845,-1.23462 -14.43037,-4.3036 -6.44787,-4.45491 -10.94941,-9.65076 -15.00089,-17.31464 -3.03085,-5.73313 -5.01082,-11.7961 -6.44525,-19.73623 l -0.54439,-3.01355 -0.78732,0.93355 c -10.38125,12.30931 -22.08244,21.86242 -37.35178,30.49485 -2.816,1.59201 -5.32896,3.01924 -5.58432,3.17162 -0.37078,0.22124 0.0549,1.01355 2.11251,3.93207 16.97207,24.07324 21.99741,47.49483 13.85533,64.57538 -5.10365,10.70645 -14.68867,17.42342 -26.54352,18.60112 -3.45731,0.34346 -3.93206,0.3404 -7.68,-0.0495 z M 447.11018,162.08 c 4.19571,-7.3332 11.31753,-21.48885 14.892,-29.6 12.43894,-28.22634 19.47558,-54.253167 18.86044,-69.760001 -0.21769,-5.487658 -1.15379,-9.186067 -2.54355,-10.049437 -1.4959,-0.92929 -6.22397,3.364125 -9.98326,9.06544 -10.56688,16.025772 -19.80067,47.370618 -24.32819,82.583998 -0.95111,7.39729 -1.96311,17.84299 -2.24765,23.2 l -0.20397,3.84 1.03773,-1.6 c 0.57075,-0.88 2.60317,-4.336 4.51645,-7.68 z M 265.76,159.16771 c 16.59679,-11.11077 28.39217,-24.39957 32.70162,-36.84201 0.73395,-2.11911 0.86347,-3.02844 0.87818,-6.1657 0.0159,-3.39747 -0.0491,-3.80599 -0.84691,-5.32103 -1.69019,-3.2096 -4.21791,-4.89652 -8.3087,-5.54497 -3.37346,-0.53474 -7.5121,0.23423 -11.1509,2.07189 -5.50301,2.77911 -12.53581,11.13168 -17.23903,20.47411 -3.6443,7.23899 -6.09064,14.50652 -7.55872,22.45527 -0.79331,4.29527 -1.66132,14.41479 -1.31406,15.31972 0.15228,0.39686 1.09402,0.0313 4.91345,-1.90704 2.59879,-1.31889 6.16507,-3.362 7.92507,-4.54024 z M 627.6744,146.0861 c 12.70006,-16.87864 21.1689,-32.60948 24.52435,-45.55388 1.36186,-5.25372 1.63626,-11.437012 0.65139,-14.679406 -1.09507,-3.605341 -3.5832,-5.971005 -7.80928,-7.424998 -5.66211,-1.948048 -10.60044,-0.673616 -15.59456,4.024461 -6.55606,6.167494 -10.78464,15.739558 -12.3352,27.922883 -0.44633,3.50698 -0.51564,5.94393 -0.37766,13.28 0.22128,11.76543 1.11942,18.06516 3.80787,26.7098 l 1.03405,3.32495 1.24138,-1.39885 c 0.68275,-0.76937 2.8687,-3.5616 4.85766,-6.20496 z M 362.37616,145.76 c 9.99392,-15.15293 17.67123,-30.51475 22.92214,-45.865804 4.91392,-14.36591 6.9697,-25.136662 6.62541,-34.712626 -0.13785,-3.834691 -0.30147,-4.95497 -1.0512,-7.197575 -0.48832,-1.460803 -1.30921,-3.188803 -1.82419,-3.839999 -1.13776,-1.438733 -2.99402,-2.620138 -4.12032,-2.622359 -1.68566,-0.0033 -5.13498,3.348077 -8.00355,7.776371 C 366.49827,75.393067 358.11632,112.41753 357.2417,146.24 l -0.18618,7.2 1.18294,-1.6 c 0.65066,-0.88 2.51261,-3.616 4.1377,-6.08 z M 63.239622,214.51596 C 56.198656,213.00606 50.12319,208.87312 46.097613,202.85482 42.028346,196.7712 41.080566,189.8869 43.181411,181.67268 45.079469,174.25135 50.328118,165.75448 57.804406,158 c 2.025005,-2.10036 2.551229,-2.48 3.43753,-2.48 1.093712,0 2.435414,1.06667 2.441002,1.94062 0.0016,0.25266 0.622144,1.97497 1.378953,3.82737 5.348951,13.09229 16.71545,24.64146 32.698109,33.22359 5.08209,2.72891 5.92,3.35767 5.92,4.4423 0,1.15976 -1.72295,2.69691 -6.901741,6.15743 -7.334323,4.90088 -15.142035,8.32029 -21.578259,9.45027 -3.398851,0.59672 -9.065802,0.57511 -11.960378,-0.0456 z M 144.32,200.31081 c -9.015,-0.52018 -17.34095,-2.56228 -27.02446,-6.62828 -17.06449,-7.16519 -29.940532,-17.07583 -39.45331,-30.36708 -7.132972,-9.96618 -12.194742,-24.47513 -13.852304,-39.70596 -0.503971,-4.63085 -0.325958,-6.59617 0.807258,-8.91239 3.432394,-7.01556 12.536634,-8.58013 18.020013,-3.09675 2.173366,2.17337 2.832528,3.98864 3.577897,9.85321 1.122279,8.83005 2.247396,13.52322 4.638023,19.34644 2.526765,6.15482 5.451005,10.5683 10.544583,15.91469 9.94088,10.43427 24.80179,17.61046 42.28079,20.41698 4.99323,0.80174 16.69388,0.98162 21.42151,0.32933 9.8057,-1.35294 17.82161,-4.53199 24.03916,-9.53375 6.36794,-5.12274 10.95933,-13.13338 12.29075,-21.44375 0.54235,-3.38521 0.24298,-9.59889 -0.61931,-12.8542 -1.91873,-7.2436 -6.40368,-14.54081 -12.97451,-21.11015 -5.34361,-5.34239 -7.9994,-7.30664 -20.12836,-14.887197 -13.3868,-8.366694 -21.266,-16.678819 -25.38345,-26.778134 -3.10713,-7.62119 -3.19426,-17.718108 -0.23035,-26.69382 1.87575,-5.680422 5.52934,-11.852576 9.71894,-16.418624 2.41853,-2.635838 7.9008,-6.64825 11.84296,-8.667731 14.49806,-7.427027 33.18253,-7.23265 47.99161,0.499262 10.30479,5.380203 18.49799,14.78092 21.9342,25.166875 1.62341,4.906794 0.66244,9.160077 -2.81204,12.44609 -3.08159,2.914441 -7.5987,3.798726 -11.6576,2.282131 -2.80957,-1.049792 -5.46195,-3.854403 -6.60868,-6.988003 -2.40621,-6.575322 -6.9867,-11.354851 -13.46765,-14.052877 -4.07379,-1.695923 -6.19541,-2.067776 -11.85567,-2.077929 -5.98075,-0.01072 -8.7787,0.570944 -13.20784,2.745811 -3.15467,1.549059 -6.73409,4.738739 -8.36761,7.456525 -2.87445,4.782377 -3.91118,10.593129 -2.6379,14.785119 1.84188,6.064006 7.91317,11.89713 20.20515,19.412563 14.31807,8.754195 23.10065,16.703936 30.47975,27.589379 5.23843,7.7276 9.06025,17.78958 10.18265,26.80856 0.55562,4.4647 0.2282,13.19783 -0.64984,17.33285 -2.09685,9.87478 -6.63581,19.09794 -13.10589,26.63111 -7.19458,8.37671 -18.9071,15.33441 -31.13615,18.4961 -10.3843,2.68476 -20.93038,3.50402 -34.80232,2.7036 z m 12.8,-42.83216 c -2.93237,-0.9608 -5.58018,-3.27713 -6.96166,-6.09015 -0.76083,-1.54923 -0.87812,-2.17381 -0.87672,-4.6685 0.002,-3.69734 0.35602,-4.46852 5.02034,-10.93827 2.97827,-4.13109 3.9388,-5.22587 5.43205,-6.19125 2.41203,-1.55937 4.21485,-2.02873 7.08494,-1.84454 5.44182,0.34923 9.76535,4.5657 10.34236,10.08623 0.34796,3.32908 -0.55079,5.49069 -4.69324,11.28783 -3.83557,5.36768 -4.7447,6.3293 -7.18807,7.60309 -1.31521,0.68565 -2.11263,0.85045 -4.48,0.9259 -1.584,0.0505 -3.24,-0.0262 -3.68,-0.17034 z m -42.08,-33.12734 c -3.52624,-1.11813 -6.33403,-3.65498 -7.5028,-6.77879 -0.8765,-2.34267 -0.87812,-5.59805 -0.004,-7.93451 0.77586,-2.07367 7.44838,-11.402233 8.9968,-12.578031 3.47061,-2.635431 7.99699,-3.279776 11.52599,-1.640765 5.99462,2.784137 8.47352,9.534856 5.59921,15.248156 -0.41301,0.82094 -2.3014,3.62511 -4.19641,6.23148 -2.6412,3.63266 -3.83955,5.0005 -5.13363,5.85972 -2.9281,1.94415 -6.33432,2.52844 -9.28522,1.59274 z m 433.85594,-19.64829 c -9.30909,-3.3223 -11.74775,-16.289985 -4.50381,-23.949377 2.88973,-3.055456 6.1976,-4.448317 9.98665,-4.205149 6.81431,0.437315 11.77815,6.285207 11.75748,13.851504 -0.0221,8.076752 -5.65309,14.481982 -13.00173,14.789252 -1.91347,0.08 -3.00183,-0.0448 -4.23859,-0.48623 z"
     id="path11592"
     inkscape:connector-curvature="0" />
  <path
     style="fill:#ed6767;fill-opacity:1;stroke:none;stroke-width:23.86354446;stroke-miterlimit:4;stroke-dasharray:none;stroke-opacity:1"
     d="m 64.342315,214.59782 c -5.121323,-0.76727 -10.589513,-3.59377 -14.529259,-7.51014 -3.914106,-3.89089 -6.185419,-7.98751 -7.197288,-12.98129 -0.498801,-2.46169 -0.335536,-8.18605 0.313104,-10.97795 1.894749,-8.15544 7.266652,-17.14092 14.872541,-24.87702 2.282585,-2.32166 2.594752,-2.56435 3.298437,-2.56435 1.32778,0 2.142053,0.75469 2.708176,2.51002 2.020773,6.26561 5.951652,12.92578 11.085568,18.78249 5.940546,6.77691 13.167009,12.32747 23.27636,17.87831 3.350626,1.83976 4.910086,2.88327 5.245506,3.51 0.60193,1.12472 -0.72854,2.53859 -5.463749,5.80624 -7.932319,5.4739 -16.581372,9.30262 -23.351983,10.33732 -2.23389,0.34139 -8.218835,0.39178 -10.257413,0.0864 z"
     id="path11594"
     inkscape:connector-curvature="0" />
</svg>
