<?xml version="1.0" encoding="UTF-8" standalone="no"?>
<!-- Created with Inkscape (http://www.inkscape.org/) -->

<svg
   xmlns:dc="http://purl.org/dc/elements/1.1/"
   xmlns:cc="http://creativecommons.org/ns#"
   xmlns:rdf="http://www.w3.org/1999/02/22-rdf-syntax-ns#"
   xmlns:svg="http://www.w3.org/2000/svg"
   xmlns="http://www.w3.org/2000/svg"
   xmlns:sodipodi="http://sodipodi.sourceforge.net/DTD/sodipodi-0.dtd"
   xmlns:inkscape="http://www.inkscape.org/namespaces/inkscape"
   id="svg4193"
   version="1.1"
   inkscape:version="0.91 r13725"
   width="2227.5"
   height="907.20001"
   viewBox="0 0 2227.5 907.20001"
   sodipodi:docname="Snapple_logo[1].svg">
  <metadata
     id="metadata4199">
    <rdf:RDF>
      <cc:Work
         rdf:about="">
        <dc:format>image/svg+xml</dc:format>
        <dc:type
           rdf:resource="http://purl.org/dc/dcmitype/StillImage" />
        <dc:title></dc:title>
      </cc:Work>
    </rdf:RDF>
  </metadata>
  <defs
     id="defs4197" />
  <sodipodi:namedview
     pagecolor="#ffffff"
     bordercolor="#666666"
     borderopacity="1"
     objecttolerance="10"
     gridtolerance="10"
     guidetolerance="10"
     inkscape:pageopacity="0"
     inkscape:pageshadow="2"
     inkscape:window-width="1920"
     inkscape:window-height="1017"
     id="namedview4195"
     showgrid="false"
     inkscape:zoom="0.51717172"
     inkscape:cx="1032.9042"
     inkscape:cy="708.3737"
     inkscape:window-x="-8"
     inkscape:window-y="-8"
     inkscape:window-maximized="1"
     inkscape:current-layer="svg4193" />
  <path
     style="fill:#0053a2"
     d="m 1114.5767,743.34747 c -7.2334,-1.50452 -13.4042,-7.43205 -14.3579,-13.792 -0.896,-5.97459 0.8519,-9.99935 6.9641,-16.03611 3.1342,-3.0955 6.263,-7.28636 7.5681,-10.13706 5.0526,-11.03631 4.8967,-4.97075 4.6376,-180.48229 L 1119.15,361.35 l -2.3279,-4.95 c -2.3966,-5.09572 -8.5798,-11.63371 -19.7221,-20.85361 -9.0183,-7.46236 -11.8486,-14.81796 -8.4541,-21.97119 0.7951,-1.67575 2.9214,-3.96446 4.725,-5.08601 3.2715,-2.0345 3.366,-2.03919 41.0791,-2.03919 l 37.8,0 3.3296,2.07037 c 5.5575,3.45566 7.3477,7.37759 7.7696,17.02117 0.201,4.59716 0.5319,8.35846 0.7353,8.35846 0.2033,0 3.0536,-2.27676 6.3338,-5.05947 14.6566,-12.43357 32.3096,-21.20891 50.6817,-25.19404 9.6693,-2.09738 36.7053,-2.35902 46.35,-0.44855 7.9728,1.57931 20.5153,5.62679 27.2239,8.78522 40.2981,18.97235 67.884,62.28637 74.0725,116.30489 1.5717,13.71853 0.668,44.58192 -1.6898,57.71196 -7.6588,42.65056 -27.2299,76.60585 -56.8566,98.64511 -8.479,6.3075 -25.9186,14.90019 -36.2118,17.84197 -28.6175,8.17888 -60.15,5.92761 -83.9103,-5.99078 -7.2988,-3.66119 -21.9352,-13.20543 -23.9219,-15.59931 -0.592,-0.71335 -1.4693,-1.29699 -1.9494,-1.29699 -0.5587,0 -0.7184,17.90355 -0.4434,49.725 0.4555,52.71224 0.8335,57.81686 5.1332,69.3088 2.0264,5.41618 4.408,7.95201 11.893,12.66334 6.9838,4.39586 9.2021,8.69531 8.5672,16.60429 -0.3708,4.62116 -0.9835,6.39227 -3.1293,9.04729 -5.3064,6.5655 -3.3226,6.29377 -48.4506,6.63672 -22.3155,0.16959 -41.7555,0.0625 -43.2,-0.23798 z m 151.1748,-195.22226 c 10.0827,-2.57874 18.6127,-7.41131 26.1751,-14.82921 18.4063,-18.05476 27.4964,-43.77063 27.535,-77.89599 0.04,-35.42738 -8.9794,-62.64624 -26.2828,-79.31684 -6.2794,-6.04973 -17.0463,-11.89854 -25.5221,-13.86422 -7.7526,-1.79797 -21.8251,-1.77886 -28.741,0.039 -27.5773,7.24887 -47.1881,33.32331 -54.1457,71.99205 -2.2811,12.67734 -2.3336,40.18396 -0.097,50.85 5.6537,26.96403 18.0541,46.31586 36.3263,56.69015 13.126,7.45244 30.672,9.9362 44.7523,6.33505 z m 144.6584,193.86011 c -7.664,-2.26289 -12.7099,-8.45264 -12.7099,-15.59087 0,-5.45655 1.3521,-7.96832 7.5725,-14.06747 4.2609,-4.17785 6.2235,-6.94773 7.7162,-10.88998 4.6658,-12.3234 4.5536,-7.62642 4.2985,-179.92435 l -0.2372,-160.20097 -2.9042,-5.89897 c -2.9184,-5.92802 -5.1745,-8.34551 -20.0181,-21.45098 -3.6058,-3.18356 -7.1121,-7.1193 -7.7918,-8.7461 -2.9111,-6.96696 -0.6203,-14.84229 5.2493,-18.04693 2.6859,-1.46641 6.2867,-1.64355 38.2733,-1.88283 37.6629,-0.28173 40.442,-0.0363 45.2329,3.99501 4.2758,3.59783 5.6581,7.14007 6.2354,15.9786 l 0.5232,8.00948 4.95,-4.25582 c 23.2797,-20.01494 50.5136,-29.41382 81.45,-28.10973 18.3223,0.77235 29.8705,3.63224 45.9,11.367 31.562,15.2297 55.8339,46.63257 66.6952,86.28981 4.0175,14.66889 5.7654,26.73475 6.3437,43.78978 1.4445,42.60638 -8.1957,79.46014 -28.6749,109.62195 -6.9682,10.26266 -24.0394,27.62248 -33.1211,33.68109 -13.6425,9.10111 -27.6082,15.01102 -43.4326,18.37937 -12.4787,2.65622 -37.016,2.88404 -48.2194,0.4477 -16.5785,-3.60518 -29.3089,-9.29829 -43.3409,-19.38219 l -8.55,-6.14437 -0.7348,30.24823 c -0.7839,32.27489 0.259,65.32623 2.4454,77.49823 0.6669,3.7125 2.1748,9.18 3.351,12.15 1.8985,4.79401 2.7846,5.82464 7.8964,9.18405 3.1669,2.08123 6.9157,4.89321 8.3307,6.24884 7.332,7.02453 4.7479,22.01314 -4.6315,26.86341 -3.3338,1.72394 -82.5453,2.47832 -88.0973,0.83901 z m 156.5039,-195.5498 c 10.856,-3.47566 20.9142,-10.66132 28.903,-20.64845 13.9338,-17.41919 21.5052,-42.7616 21.4667,-71.85257 -0.065,-49.33497 -19.2503,-84.05687 -50.9199,-92.1566 -13.6756,-3.49763 -29.0273,-1.95538 -41.4261,4.16173 -20.8534,10.28826 -36.5667,34.71436 -42.2072,65.61037 -2.2575,12.36535 -2.7863,37.5646 -1.022,48.70363 6.8793,43.43415 33.6582,69.63599 69.8917,68.3854 6.325,-0.21831 11.3891,-0.94698 15.3138,-2.20351 z M 310.05,673.16141 c -40.96981,-4.63697 -82.15251,-21.97211 -105.62098,-44.4593 -30.43399,-29.16148 -47.10787,-75.73019 -41.10477,-114.8021 3.70118,-24.08959 12.6306,-41.95045 29.28508,-58.57678 19.10322,-19.07093 41.27991,-29.77583 67.33317,-32.50238 25.17011,-2.63413 54.72782,5.75562 67.00807,19.01975 10.47483,11.31407 14.42041,26.58778 11.0173,42.64898 -2.2705,10.71577 -6.52935,15.34557 -14.02639,15.24811 -5.80089,-0.0754 -8.45878,-1.72057 -15.55788,-9.62985 -6.3995,-7.12984 -11.23626,-10.25441 -18.5836,-12.00511 -19.08808,-4.54825 -35.94646,1.29417 -47.45882,16.44728 -7.85617,10.34065 -11.09624,20.28483 -11.14327,34.2 -0.13663,40.43987 27.5665,71.36662 71.91326,80.28129 11.39391,2.29042 40.4779,2.25037 52.83883,-0.0728 48.24798,-9.06782 80.13021,-42.61038 86.50366,-91.00852 2.94843,-22.38954 -0.95985,-43.45965 -10.81547,-58.30778 -9.25063,-13.93665 -26.12771,-25.87262 -47.26391,-33.42644 -6.14745,-2.19703 -34.65466,-10.78471 -69.23811,-20.85772 -28.82298,-8.39517 -52.0283,-18.3851 -69.47165,-29.90765 -24.67521,-16.29972 -38.9664,-42.22163 -41.79102,-75.80217 -1.20617,-14.3396 2.40305,-38.54887 7.7745,-52.14821 16.72029,-42.33212 51.74154,-69.164 102.452,-78.49461 13.90028,-2.55763 45.59016,-2.75311 61.2,-0.37754 21.10595,3.21201 33.65886,6.4873 47.58978,12.41705 4.76312,2.02744 10.07772,3.8554 11.81022,4.06212 4.98268,0.59453 11.3849,-3.70433 17.38016,-11.67017 6.24422,-8.29661 8.76386,-10.05646 14.42276,-10.07364 3.6342,-0.0111 4.70205,0.39266 6.46733,2.44493 1.16292,1.35198 2.36276,4.18698 2.66631,6.3 0.30356,2.11302 0.43076,37.05186 0.28268,77.64186 -0.21913,60.06303 -0.49712,74.24222 -1.49348,76.17576 -2.48755,4.82729 -9.88761,5.88888 -14.42659,2.06958 -2.26231,-1.9036 -3.46435,-4.59702 -6.9075,-15.47767 -9.33881,-29.51141 -20.9288,-50.90875 -36.3457,-67.10119 -8.91293,-9.36129 -16.61045,-15.07678 -27.49597,-20.41603 -40.26221,-19.74827 -92.50399,-8.11123 -111.91007,24.92836 -5.2602,8.9557 -7.34267,16.67008 -7.32663,27.141 0.0309,20.13259 6.30802,31.84169 23.03757,42.97315 14.22703,9.46634 28.18771,14.73809 74.75422,28.22825 43.70142,12.66017 45.00375,13.07429 56.85583,18.07978 18.74893,7.91822 37.48303,20.33813 50.86858,33.72367 17.95579,17.9558 27.78532,36.21684 33.41383,62.07535 9.02935,41.48262 5.06354,83.18947 -11.12411,116.98762 -10.5266,21.97851 -24.96106,39.19677 -45.96209,54.82626 -26.35036,19.61059 -55.45646,32.19203 -86.85605,37.54451 -12.37979,2.11031 -42.8201,3.02599 -54.95108,1.65301 z m 1733.1345,-32.20905 c -6.5956,-2.35724 -10.963,-6.1627 -14.1241,-12.30688 -5.3298,-10.359 -3.7241,-23.64064 3.7989,-31.42335 9.7491,-10.08587 27.1051,-10.62585 36.9961,-1.15103 10.2732,9.84098 10.9206,27.3587 1.3875,37.55028 -7.42,7.93258 -18.3701,10.79358 -28.0584,7.33098 z m 19.8017,-6.93515 c 10.6659,-7.39349 11.9764,-24.90786 2.5693,-34.3385 -9.1525,-9.17551 -24.7533,-6.63971 -30.8407,5.01296 -2.0468,3.91805 -2.5148,5.97251 -2.5148,11.04002 0,6.94648 1.2001,10.56285 5.0014,15.07139 3.9221,4.65183 8.6975,6.50768 15.8848,6.1733 4.9604,-0.23077 6.7249,-0.75821 9.9,-2.95917 z m -20.8862,-18.05675 0,-14.93955 8.0356,0.31455 c 9.5397,0.37342 12.9236,2.1538 13.4057,7.05306 0.4738,4.8153 -0.5523,7.15048 -3.8286,8.71283 l -3.04,1.44968 3.9578,6.17449 3.9577,6.17449 -2.937,0 c -2.6661,0 -3.2958,-0.58119 -6.8247,-6.3 -3.0745,-4.98252 -4.3412,-6.3 -6.057,-6.3 -2.0861,0 -2.1695,0.24233 -2.1695,6.3 0,6.12 -0.064,6.3 -2.25,6.3 l -2.25,0 0,-14.93955 z m 15.9363,-4.56948 c 1.1649,-1.76136 1.1074,-2.14731 -0.5703,-3.825 -1.3904,-1.39037 -3.013,-1.86597 -6.366,-1.86597 l -4.5,0 0,4.09491 0,4.09492 5.0703,-0.26992 c 4.0319,-0.21464 5.3357,-0.67111 6.366,-2.22894 z M 892.2455,606.13057 c -37.56095,-5.57991 -61.87722,-24.53826 -71.35971,-55.6361 -2.80304,-9.19257 -3.70413,-16.31881 -3.74454,-29.61359 -0.0774,-25.47873 7.20467,-43.89671 23.60257,-59.69582 15.58453,-15.01545 32.49811,-22.82683 64.20618,-29.65306 52.76214,-11.35883 61.21575,-14.06581 70.7085,-22.64192 7.24104,-6.54181 8.92755,-23.72725 3.4461,-35.11546 -5.976,-12.41596 -23.56794,-20.09354 -43.1046,-18.81205 -23.2344,1.52404 -38.61553,11.86573 -38.68024,26.00713 -0.0266,5.81624 1.7301,8.83296 7.18024,12.3303 2.51685,1.61505 5.16645,4.07813 5.88798,5.47353 1.68705,3.26224 1.68012,9.20398 -0.0144,12.48084 -2.23371,4.31955 -8.50077,8.95082 -14.70574,10.86734 -7.04942,2.17735 -20.98669,2.40543 -27.43477,0.44899 -24.35577,-7.38996 -38.30848,-33.21756 -32.57277,-60.29488 6.04611,-28.54267 33.17762,-50.23979 73.7897,-59.00974 12.82995,-2.77056 44.21133,-3.50606 58.95225,-1.38169 26.65197,3.84091 46.93785,12.48277 60.36475,25.71561 7.7854,7.67297 12.232,14.73974 16.0058,25.43716 5.7907,16.41469 5.7909,16.41741 6.3601,105.06285 0.5165,80.44821 0.5195,80.5546 2.4699,84.19764 2.1473,4.01092 5.1528,5.82236 9.5646,5.76463 4.5073,-0.0589 8.4845,-2.73768 13.2968,-8.95552 5.7467,-7.4251 8.1932,-8.99337 14.0418,-9.00082 3.715,-0.005 5.222,0.47043 7.4573,2.35127 4.6051,3.87495 5.7357,7.03542 5.5956,15.6428 -0.1553,9.54883 -1.8779,16.42394 -6.4267,25.65 -10.7323,21.76757 -32.793,34.96932 -55.8322,33.41161 -19.5437,-1.32137 -34.2741,-10.64912 -43.01721,-27.23986 -2.04975,-3.88946 -3.73932,-6.59966 -3.7548,-6.02265 -0.045,1.69173 -15.62391,14.67947 -22.65408,18.88627 -17.04771,10.20135 -34.57575,14.39815 -60.62391,14.5154 -5.94,0.0267 -14.49202,-0.49986 -19.0045,-1.17021 z m 52.79779,-55.11992 c 21.68712,-7.76861 34.33356,-24.74728 40.04334,-53.76064 1.62909,-8.27812 2.9106,-33.29532 1.67508,-32.70014 -14.99301,7.22215 -26.10585,10.72467 -47.88918,15.09348 -21.33693,4.27928 -30.20094,6.97344 -37.86453,11.50862 -6.57966,3.89375 -10.858,8.73126 -13.15455,14.87386 -1.26523,3.38409 -1.50683,6.03083 -1.15846,12.69092 0.9045,17.29225 9.82708,28.92954 25.68892,33.50485 6.42006,1.85182 26.15166,1.12021 32.65938,-1.21095 z M 1935,606.92987 c -1.2375,-0.17876 -5.895,-0.77933 -10.35,-1.33461 -17.0408,-2.12397 -36.6877,-8.05997 -51.7015,-15.62084 -34.4829,-17.36528 -58.8801,-49.13577 -67.4041,-87.77441 -2.973,-13.47615 -3.7457,-21.46707 -3.7268,-38.54013 0.043,-38.819 9.4631,-71.78341 28.8611,-100.99409 7.5166,-11.3188 24.526,-28.34252 35.7958,-35.82594 22.8455,-15.16996 47.4945,-22.0891 75.7255,-21.2567 34.8476,1.02749 61.6825,12.22983 83.3164,34.78094 23.3603,24.35061 35.704,60.70694 34.4354,101.42387 -0.3074,9.86605 -0.6513,11.98305 -2.5783,15.87321 -1.7829,3.59919 -3.1153,4.93476 -6.7235,6.73884 l -4.5,2.25 -87.2128,0.24671 -87.2128,0.24672 0.592,11.00328 c 2.1624,40.19996 21.0362,66.51403 54.1336,75.47377 10.4638,2.83261 32.8343,2.85139 43.2,0.0363 14.2886,-3.88049 26.3314,-11.70208 30.5357,-19.83244 4.0958,-7.92027 3.2601,-17.50657 -1.8761,-21.52314 -4.088,-3.19685 -5.7096,-6.39804 -5.7096,-11.27142 0,-5.78763 3.7134,-10.48663 11.1995,-14.17203 5.0113,-2.46704 7.173,-2.97303 14.2297,-3.33067 41.4595,-2.10121 59.5665,41.72442 32.755,79.27923 -5.146,7.20796 -16.4828,17.96995 -24.4342,23.19534 -21.6733,14.24287 -48.4017,21.61849 -77.4,21.35827 -6.435,-0.0578 -12.7125,-0.25125 -13.95,-0.43001 z m 58.5,-192.40069 c 0,-3.9607 -2.5142,-15.29217 -4.7585,-21.44657 -6.2455,-17.12666 -19.2615,-29.20524 -35.7415,-33.1674 -6.0595,-1.45685 -21.5623,-1.41714 -28.0614,0.0719 -13.9516,3.19646 -26.827,12.9124 -34.6043,26.11293 -3.9267,6.66451 -8.5486,19.33606 -9.7664,26.775 l -0.6261,3.825 56.7791,0 56.7791,0 0,-2.17083 z M 521.76647,602.61363 c -4.40579,-1.57216 -6.07783,-3.02376 -7.55588,-6.55972 -1.80389,-4.31544 -1.48022,-9.24327 0.86116,-13.11094 1.13438,-1.87388 6.90356,-7.55469 12.82039,-12.62404 9.2998,-7.96777 11.18479,-10.05532 13.90786,-15.40234 l 3.15,-6.18536 0,-93.69061 0,-93.69062 -2.46354,-5.01627 c -2.43979,-4.96794 -8.05728,-10.8771 -20.32073,-21.37582 -3.07869,-2.63565 -6.40043,-6.36576 -7.38167,-8.28915 -3.58212,-7.02153 -1.5132,-15.20721 4.70114,-18.60006 2.71591,-1.48281 6.02466,-1.6187 39.4148,-1.6187 l 36.45,0 4.0015,2.25 c 5.91862,3.32798 8.27812,8.48287 8.84521,19.32444 l 0.44501,8.50785 5.50414,-5.01928 c 21.9015,-19.97214 45.58526,-28.44967 75.59633,-27.05949 27.27033,1.26324 50.5042,10.89993 67.6418,28.05575 10.18766,10.19849 16.21325,20.36556 20.5689,34.7062 4.82386,15.88219 5.03895,19.85459 5.09159,94.03454 0.0267,37.62 0.38646,72.95905 0.79947,78.53123 1.00821,13.6026 3.01646,17.73022 12.91538,26.5454 14.01668,12.48211 17.49492,16.23995 18.66153,20.16155 2.27643,7.65236 -1.38,14.45434 -8.85145,16.4662 -2.58044,0.69484 -20.00921,0.92328 -57.06722,0.74799 -49.37923,-0.23358 -53.57297,-0.37291 -56.31699,-1.87107 -6.34617,-3.46482 -8.37039,-11.882 -4.50948,-18.75153 1.10008,-1.95735 6.04848,-6.89541 11.1653,-11.14197 10.84287,-8.99875 13.35795,-11.81298 16.47784,-18.4378 l 2.33114,-4.95 0,-71.1 c 0,-70.56672 -0.015,-71.15896 -2.00464,-78.96034 -5.7563,-22.57086 -17.84841,-33.50655 -39.47346,-35.69846 -15.1364,-1.53422 -28.20057,1.45216 -39.54488,9.0397 -15.28992,10.22652 -25.24906,30.30939 -28.30794,57.08371 -0.68566,6.00151 -0.93026,27.1092 -0.74497,64.28539 l 0.27589,55.35 2.341,4.99106 c 3.00493,6.40656 6.08538,9.85904 16.33061,18.30283 11.02053,9.08276 12.82839,11.79404 12.82839,19.23899 0,5.34803 -0.20798,5.9506 -2.87703,8.3354 -1.58236,1.41384 -4.41736,2.99835 -6.3,3.52115 -5.47028,1.51905 -105.06766,1.22245 -109.4065,-0.32581 z m 1166.92873,-0.45798 c -5.1178,-2.3236 -6.98,-5.44128 -7.016,-11.74546 -0.039,-6.75342 2.3256,-10.12176 13.6207,-19.40637 4.7867,-3.93459 10.247,-9.10402 12.1341,-11.48761 6.5975,-8.33309 6.166,2.82794 6.166,-159.48652 0,-121.30697 -0.2091,-146.63842 -1.2388,-150.05957 -1.8612,-6.18429 -6.1465,-11.47395 -15.591,-19.24463 -4.6887,-3.85777 -9.6622,-8.30944 -11.0523,-9.89261 -6.8478,-7.7992 -5.5335,-18.83465 2.7461,-23.05648 2.7857,-1.42047 6.5925,-1.57373 39.1203,-1.575 35.5961,-0.002 36.0825,0.0232 39.9973,2.0236 2.1797,1.11375 4.7968,3.16834 5.8158,4.56577 1.8508,2.5383 1.8531,2.70508 2.307,172.8 0.4261,159.61907 0.5537,170.55085 2.0424,174.92544 2.0681,6.07692 7.033,12.26189 15.2083,18.94551 9.258,7.5689 13.9597,12.9368 15.1265,17.27005 2.0494,7.61078 -1.4504,14.19262 -8.6025,16.17837 -2.3592,0.655 -20.6851,0.97494 -55.2791,0.96508 -48.8476,-0.014 -51.9606,-0.11036 -55.5048,-1.71957 z"
     id="path4203"
     inkscape:connector-curvature="0" />
</svg>
