<?xml version="1.0" encoding="UTF-8" standalone="no"?>
<!-- Created with Inkscape (http://www.inkscape.org/) -->

<svg
   xmlns:dc="http://purl.org/dc/elements/1.1/"
   xmlns:cc="http://creativecommons.org/ns#"
   xmlns:rdf="http://www.w3.org/1999/02/22-rdf-syntax-ns#"
   xmlns:svg="http://www.w3.org/2000/svg"
   xmlns="http://www.w3.org/2000/svg"
   xmlns:sodipodi="http://sodipodi.sourceforge.net/DTD/sodipodi-0.dtd"
   xmlns:inkscape="http://www.inkscape.org/namespaces/inkscape"
   version="1.1"
   id="svg2464"
   width="115.2"
   height="115.2"
   viewBox="0 0 115.2 115.2"
   sodipodi:docname="tormach.svg"
   inkscape:version="0.92.2 5c3e80d, 2017-08-06">
  <metadata
     id="metadata2470">
    <rdf:RDF>
      <cc:Work
         rdf:about="">
        <dc:format>image/svg+xml</dc:format>
        <dc:type
           rdf:resource="http://purl.org/dc/dcmitype/StillImage" />
        <dc:title></dc:title>
      </cc:Work>
    </rdf:RDF>
  </metadata>
  <defs
     id="defs2468" />
  <sodipodi:namedview
     pagecolor="#ffffff"
     bordercolor="#666666"
     borderopacity="1"
     objecttolerance="10"
     gridtolerance="10"
     guidetolerance="10"
     inkscape:pageopacity="0"
     inkscape:pageshadow="2"
     inkscape:window-width="1926"
     inkscape:window-height="1078"
     id="namedview2466"
     showgrid="false"
     inkscape:zoom="2.0486112"
     inkscape:cx="57.599998"
     inkscape:cy="57.599998"
     inkscape:window-x="0"
     inkscape:window-y="0"
     inkscape:window-maximized="0"
     inkscape:current-layer="svg2464" />
  <path
     style="fill:#293746;stroke-width:0.31999999;fill-opacity:1"
     d="M 14.970826,92.88 14.88,89.44 12.861622,89.34425 10.843244,89.2485 l 0.09838,-1.132032 0.09838,-1.132036 h 5.28 5.28 l 0.09932,1.14778 0.09932,1.147782 H 19.859317 17.92 v 3.52 3.52 h -1.429174 -1.429174 z m 8.807842,3.069664 C 22.931,95.525661 22.777484,95.161533 22.518931,92.961651 22.241729,90.603091 22.619038,88.438992 23.440958,87.673258 24.052917,87.10313 24.57933,87.04 28.721377,87.04 c 2.543487,0 4.875986,0.147331 5.216348,0.329485 1.204345,0.644547 1.669609,2.142333 1.511878,4.867037 -0.221037,3.818281 -0.358131,3.905779 -6.257594,3.993715 -2.920279,0.04353 -4.978689,-0.06316 -5.413341,-0.280573 z M 31.936,93.696 c 0.2112,-0.2112 0.384,-1.223718 0.384,-2.250042 0,-1.476249 -0.116979,-1.91408 -0.56,-2.096 -0.696989,-0.286211 -5.7368,-0.279824 -6.024258,0.0076 -0.39715,0.397152 -0.511638,2.961936 -0.171519,3.84241 0.335239,0.86784 0.378958,0.88 3.163857,0.88 1.769716,0 2.967272,-0.14335 3.20792,-0.384 z M 36.871446,91.6 36.96,86.88 41.12,86.78768 c 4.655216,-0.103305 5.343581,-0.0041 6.248141,0.900458 C 48.362957,88.682957 48.205603,92.16 47.165763,92.16 46.524602,92.16 46.617098,92.581786 47.36,93.045738 47.845683,93.34905 48,93.791984 48,94.88271 V 96.32 h -1.44 c -1.43088,0 -1.44,-0.007 -1.44,-1.113904 0,-1.340909 -0.473683,-1.526522 -3.529872,-1.383187 L 39.52,93.92 v 1.200211 c 0,1.199888 -3.2e-4,1.200208 -1.368554,1.2 L 36.78289,96.32 Z m 8.387642,-0.910608 c 0.362038,-1.44248 -0.248477,-1.764678 -3.148349,-1.661536 L 39.52,89.12 l -0.09932,1.2 -0.09932,1.2 h 2.864628 c 2.816873,0 2.868099,-0.01386 3.073094,-0.830608 z m 4.412358,0.954698 0.08855,-4.675908 2.209206,3.2e-4 2.209204,3.2e-4 1.470796,2.811056 c 0.808938,1.54608 1.600304,2.797469 1.758592,2.780861 0.158292,-0.01661 0.918772,-1.222064 1.689959,-2.67879 0.771184,-1.456727 1.460166,-2.706605 1.531065,-2.777504 0.107527,-0.107527 2.7945,-0.161571 4.259965,-0.08568 0.315984,0.01635 0.388631,1.056365 0.32,4.581168 L 65.12,96.16 63.76,96.2584 62.4,96.3568 62.39,92.8984 62.38,89.44 61.669987,90.602029 c -0.390505,0.639113 -1.214013,2.184125 -1.830013,3.433353 l -1.12,2.271328 -1.28,-0.07336 c -1.277292,-0.0732 -1.28382,-0.08039 -3.116972,-3.43335 l -1.836996,-3.36 -0.0029,3.44 -0.0031,3.44 H 51.031446 49.58289 Z M 65.92,96.190528 c 0,-0.116246 4.777549,-8.829149 4.992182,-9.104336 0.04882,-0.0626 0.925556,-0.120102 1.948292,-0.127795 L 74.72,86.944413 75.710125,88.672208 C 80.263382,96.617754 80.16376,96.32 78.268941,96.32 c -1.198019,0 -1.546525,-0.140928 -1.978368,-0.8 -0.497632,-0.759485 -0.676624,-0.8 -3.534237,-0.8 -2.900192,0 -3.02336,0.02922 -3.37456,0.8 -0.315715,0.692915 -0.571798,0.8 -1.913142,0.8 C 66.616886,96.32 65.92,96.261738 65.92,96.190528 Z m 8.64,-3.563277 c 0,-0.197379 -1.103837,-2.321782 -1.557126,-2.996793 -0.230266,-0.3429 -0.4989,-0.06075 -1.132378,1.189363 C 71.413722,91.721216 71.04,92.53551 71.04,92.629363 71.04,92.723213 71.832,92.8 72.8,92.8 c 0.968,0 1.76,-0.07774 1.76,-0.172749 z m 6.72,3.279143 c -1.138653,-0.575268 -1.688723,-2.463344 -1.50625,-5.17008 0.129149,-1.9157 0.268471,-2.325671 1.005924,-2.96 0.80078,-0.688804 1.131331,-0.736314 5.12272,-0.736314 4.786652,0 5.446614,0.245075 5.816643,2.16 L 91.92,90.24 h -1.445763 c -0.989927,0 -1.50384,-0.151341 -1.629959,-0.48 -0.142128,-0.370387 -0.752825,-0.47888 -2.674236,-0.475101 -1.369524,0.0026 -2.697735,0.136311 -2.951581,0.296919 -0.305347,0.193196 -0.461539,0.854592 -0.461539,1.954396 0,2.130861 0.519132,2.543786 3.198067,2.543786 C 88.235286,94.08 88.96,93.87881 88.96,93.245763 88.96,92.930784 89.382486,92.8 90.4,92.8 c 1.391443,0 1.44,0.03286 1.44,0.974544 0,0.608038 -0.295395,1.269942 -0.785456,1.76 -0.752675,0.752678 -0.95632,0.785258 -4.88,0.780739 C 83.520848,96.312083 81.798483,96.168339 81.28,95.906394 Z M 93.191446,91.6 93.28,86.88 h 1.28 1.28 l 0.09672,1.68 0.09672,1.68 H 98.736723 101.44 v -1.546666 c 0,-0.850668 0.0645,-1.611187 0.14338,-1.690041 0.0788,-0.07886 0.72685,-0.08773 1.44,-0.01971 l 1.29662,0.123651 v 4.60639 4.606388 h -1.44 -1.44 v -1.76 -1.76 H 98.72 96 v 1.76 1.76 H 94.551446 93.10289 l 0.08856,-4.72 z m 13.509394,-2.144333 c -0.60904,-0.92952 -0.37573,-1.94744 0.56131,-2.448928 1.45936,-0.781027 3.01246,1.033776 2.1938,2.563456 -0.51776,0.967456 -2.08896,0.902144 -2.75511,-0.114528 z m 2.42563,-0.187753 c 0.69621,-1.300887 -0.46734,-2.55176 -1.72102,-1.85017 -0.51656,0.289082 -0.732,1.86904 -0.31212,2.288922 0.45425,0.454249 1.69898,0.185635 2.03314,-0.438752 z m -1.6977,-0.08409 c -0.29804,-0.776679 0.0617,-1.503821 0.74407,-1.503821 0.44185,0 0.57771,0.233811 0.55709,0.958797 -0.0207,0.729453 -0.12299,0.879344 -0.42748,0.626643 -0.28217,-0.234189 -0.43926,-0.215011 -0.5326,0.06502 -0.0876,0.262752 -0.20302,0.21312 -0.34108,-0.146643 z M 40.995946,77.574224 C 36.541578,76.376294 32.80872,73.256538 30.688839,68.96 28.569754,64.665075 28.41858,63.150627 28.555993,47.593389 28.661187,35.683862 28.74338,33.87111 29.248508,32.32 31.291033,26.047974 35.52432,21.790935 41.185021,20.316509 c 2.69832,-0.702823 29.071341,-0.689481 32.065197,0.01622 2.960118,0.697749 5.648342,2.247407 8.059587,4.646039 2.448365,2.435559 3.810915,4.954403 4.791635,8.857934 0.627034,2.495754 0.656784,3.351088 0.556541,16 l -0.105904,13.363296 -0.896954,2.56 c -1.207277,3.445686 -2.165165,5.001894 -4.54151,7.37824 -2.203642,2.203638 -5.456701,3.979507 -8.409363,4.59073 -2.729943,0.565116 -29.51769,0.434384 -31.708304,-0.154746 z M 62.08,55.68 V 43.52 h -1.339376 c -0.934752,0 -1.563117,0.210195 -2.08,0.695779 L 57.92,44.911562 V 54.775779 64.64 H 56.96 56 V 54.492112 44.344224 L 57.346627,42.972112 58.693254,41.6 H 67.906627 77.12 V 37.44 33.28 H 58.467971 39.815942 L 38.24,34.88 36.664058,36.48 H 55.292029 73.92 v 0.96 0.96 H 64.888611 55.857219 L 53.848611,40.390755 51.84,42.38151 V 55.110755 67.84 h 5.12 5.12 z M 51.363229,40.247946 C 52.153453,39.504317 52.8,38.784317 52.8,38.647946 52.8,38.511574 49.2,38.4 44.8,38.4 h -8 v 1.6 1.6 h 6.563229 6.563229 z"
     id="path6706"
     inkscape:connector-curvature="0" />
</svg>
