<?xml version="1.0" encoding="UTF-8" standalone="no"?>
<!-- Created with Inkscape (http://www.inkscape.org/) -->

<svg
   xmlns:dc="http://purl.org/dc/elements/1.1/"
   xmlns:cc="http://creativecommons.org/ns#"
   xmlns:rdf="http://www.w3.org/1999/02/22-rdf-syntax-ns#"
   xmlns:svg="http://www.w3.org/2000/svg"
   xmlns="http://www.w3.org/2000/svg"
   xmlns:sodipodi="http://sodipodi.sourceforge.net/DTD/sodipodi-0.dtd"
   xmlns:inkscape="http://www.inkscape.org/namespaces/inkscape"
   id="svg2"
   version="1.1"
   inkscape:version="0.91 r13725"
   width="298"
   height="117"
   viewBox="0 0 298 117"
   sodipodi:docname="vikingfoundation.svg">
  <metadata
     id="metadata8">
    <rdf:RDF>
      <cc:Work
         rdf:about="">
        <dc:format>image/svg+xml</dc:format>
        <dc:type
           rdf:resource="http://purl.org/dc/dcmitype/StillImage" />
        <dc:title></dc:title>
      </cc:Work>
    </rdf:RDF>
  </metadata>
  <defs
     id="defs6">
    <clipPath
       clipPathUnits="userSpaceOnUse"
       id="clipPath4169">
      <rect
         style="fill:#000000;fill-opacity:1;stroke:#000000;stroke-width:2.66400003;stroke-miterlimit:4;stroke-dasharray:none;stroke-opacity:0"
         id="rect4171"
         width="96"
         height="106"
         x="4.5"
         y="4.25" />
    </clipPath>
  </defs>
  <sodipodi:namedview
     pagecolor="#ffffff"
     bordercolor="#666666"
     borderopacity="1"
     objecttolerance="10"
     gridtolerance="10"
     guidetolerance="10"
     inkscape:pageopacity="0"
     inkscape:pageshadow="2"
     inkscape:window-width="2560"
     inkscape:window-height="1371"
     id="namedview4"
     showgrid="false"
     inkscape:zoom="2.8284271"
     inkscape:cx="287.16441"
     inkscape:cy="140.35425"
     inkscape:window-x="0"
     inkscape:window-y="27"
     inkscape:window-maximized="1"
     inkscape:current-layer="svg2" />
  <path
     inkscape:connector-curvature="0"
     id="path4142"
     d="M 86,57.5 C 86,15.944444 86.187719,10 87.5,10 88.812281,10 89,15.944444 89,57.5 89,99.055556 88.812281,105 87.5,105 86.187719,105 86,99.055556 86,57.5 Z M 35,93.899285 C 23.712738,84.715173 15.81474,73.35674 12.12374,61 9.3273628,51.638279 8.0890594,24.577607 10.353424,22.313242 11.202773,21.463894 18.289637,20.237668 29.6567,18.973235 39.985037,17.824347 53.682669,18.715802 63.75,21.192059 L 68,22.23743 67.982636,35.868715 C 67.951396,60.393943 63.493772,72.40797 48.918384,87.25 44.192342,92.0625 39.689825,95.985029 38.91279,95.966731 38.135756,95.948433 36.375,95.018082 35,93.899285 Z m 76.5,-15.826011 0,-7.928437 7.25233,-0.322419 c 6.69359,-0.297578 7.25219,-0.168333 7.25062,1.677582 -0.002,1.779388 -0.55331,1.961777 -5.00233,1.653487 C 116.8186,72.863697 116,73.086232 116,74.512893 c 0,1.360785 0.70811,1.623252 3.5,1.297314 3.01786,-0.352318 3.5,-0.11954 3.5,1.689793 0,1.809333 -0.48214,2.042111 -3.5,1.689793 -3.42901,-0.400318 -3.5,-0.335397 -3.5,3.200801 0,3.076167 -0.33241,3.609532 -2.25,3.610262 -2.14421,8.15e-4 -2.25,-0.371912 -2.25,-7.927582 z m 20,6.822215 c -3.14606,-1.799762 -4.50261,-4.027157 -4.4682,-7.336619 0.0387,-3.721889 1.75297,-6.14634 5.29927,-7.494641 5.6984,-2.16653 12.66893,1.968199 12.66893,7.514866 0,5.504104 -8.55926,10.142836 -13.5,7.316394 z m 7.61907,-3.790821 c 2.01203,-1.629247 2.20049,-2.296096 1.34238,-4.75 C 138.67335,71.241328 131,72.223522 131,77.565741 131,79.591955 134.20577,83 136.11172,83 c 0.36669,0 1.72,-0.852899 3.00735,-1.895332 z M 150,84.764812 c -2.19468,-1.153114 -2.56106,-2.135023 -3,-8.040065 -0.49368,-6.641544 -0.46841,-6.72654 2,-6.727004 2.40072,-4.51e-4 2.48659,0.214739 2.16221,5.418728 -0.29077,4.664977 -0.0472,5.574706 1.75,6.536547 1.53804,0.823133 2.63754,0.823133 4.17558,0 1.79721,-0.961841 2.04077,-1.87157 1.75,-6.536547 -0.31962,-5.127752 -0.21052,-5.419124 2.02871,-5.417834 2.28818,0.0013 2.3528,0.216375 1.95278,6.498579 -0.22754,3.573469 -0.90048,6.983981 -1.49541,7.578916 -1.71774,1.717734 -8.57193,2.134584 -11.32387,0.68868 z m 15.5,-6.76179 c 0,-7.568231 0.11813,-7.998807 2.195,-8.000856 1.31173,-0.0013 3.93249,1.836772 6.51277,4.567713 l 4.31776,4.569878 -0.36346,-4.569878 c -0.33675,-4.234024 -0.1907,-4.56972 1.98724,-4.567713 2.27148,0.0021 2.35069,0.271679 2.35069,8.000856 0,9.917095 -1.15956,10.297393 -8.37578,2.746978 l -5.01763,-5.25 0.43125,5.25 c 0.40214,4.895493 0.28037,5.250058 -1.80329,5.250856 C 165.60799,86.00167 165.5,85.615159 165.5,78.003022 Z m 20,0.116829 0,-8.115519 6.25,-0.0022 c 7.46248,-0.0026 10.25,2.006348 10.25,7.38705 0,5.594248 -2.5703,7.726196 -10.03872,8.326662 L 185.5,86.23537 l 0,-8.115519 z m 12.32226,0.569677 C 198.24081,75.03926 196.46851,73 192.87756,73 190.12814,73 190,73.203082 190,77.560365 l 0,4.560366 3.75,-0.310366 c 3.27739,-0.27125 3.79061,-0.664565 4.07226,-3.120837 z M 202,85.475036 c 0,-0.28873 1.55364,-3.610087 3.45254,-7.380793 1.8989,-3.770706 3.1739,-7.134472 2.83333,-7.475036 C 207.94531,70.278643 209.09167,70 210.83333,70 213.012,70 214,70.478374 214,71.533244 c 0,1.918567 4.94707,11.84911 6.12751,12.300089 C 222.10988,84.590692 220.79656,86 218.10841,86 c -2.19242,0 -3.0327,-0.562231 -3.47519,-2.325217 -0.47325,-1.885591 -1.20275,-2.297095 -3.8584,-2.176479 -2.54105,0.115411 -3.34642,0.636406 -3.59437,2.325217 C 206.95278,85.374171 206.16204,86 204.43045,86 203.0937,86 202,85.763766 202,85.475036 Z M 212,77 c -0.5887,-1.1 -1.22705,-2 -1.41855,-2 -0.1915,0 -0.58354,0.9 -0.8712,2 -0.39039,1.492853 -0.0307,2 1.41855,2 1.63169,0 1.77073,-0.319204 0.8712,-2 z m 12.58951,2.5 0.37969,-6.5 -3.4846,0 c -2.65167,0 -3.4848,-0.418303 -3.48546,-1.75 -7.4e-4,-1.520881 1.04638,-1.75 7.99784,-1.75 6.95031,0 7.99897,0.229371 8.00085,1.75 0.002,1.292778 -0.81208,1.75 -3.11433,1.75 l -3.11649,0 0.41389,6.5 c 0.39156,6.149403 0.29563,6.5 -1.7786,6.5 -2.07072,0 -2.1714,-0.360994 -1.81279,-6.5 z M 235.5,78.003022 c 0,-7.627629 0.10438,-7.998791 2.25,-8.000856 C 239.89601,70.0001 240,70.369729 240,78 c 0,7.629376 -0.10424,8.00004 -2.25,8.000856 -2.14587,8.16e-4 -2.25,-0.36931 -2.25,-7.997834 z m 11.857,7.005397 c -8.49083,-3.426472 -5.91348,-15.119091 3.38638,-15.362943 9.23494,-0.24215 13.0824,10.807657 5.1851,14.891509 -3.15447,1.631237 -5.39246,1.754327 -8.57148,0.471434 z m 6.42049,-3.565123 C 256.1954,79.749731 256.7093,76.109301 254.8,74.2 252.89853,72.298531 248.20842,72.742038 247.03518,74.934259 245.56457,77.682133 245.73147,78.731474 248,81 c 2.40751,2.40751 2.91734,2.446628 5.77749,0.443296 z m 8.72251,-3.565254 0,-7.87371 2.75,-0.0022 c 1.63223,-0.0013 2.75,0.542219 2.75,1.337156 0,0.736627 1.575,2.77254 3.5,4.524251 l 3.5,3.184929 0,-4.524251 C 275,70.666667 275.29471,70 277,70 c 1.83333,0 2,0.666667 2,8 0,9.870176 -1.02022,10.215542 -8.12357,2.75 l -4.99529,-5.25 0.40063,5.125 c 0.3643,4.660343 0.21103,5.125079 -1.69057,5.125876 -1.94461,8.15e-4 -2.0912,-0.551054 -2.0912,-7.872834 z m -8,-19.321292 C 244.16727,54.746973 241.00287,41.141637 248.73405,33.76599 252.35408,30.312436 256.02117,29 262.05075,29 c 4.91145,0 13.98671,1.92986 13.90733,2.957405 -0.0231,0.298427 -0.88748,2.117595 -1.92096,4.042595 -1.54794,2.883269 -1.9992,3.193547 -2.56091,1.760857 -1.03185,-2.631836 -8.0597,-4.20222 -12.65052,-2.826779 C 254.07813,36.356481 252,39.30958 252,44.633613 c 0,5.605131 4.16015,9.372909 10.32673,9.352732 6.20636,-0.02031 8.67327,-0.931517 8.67327,-3.20367 0,-1.737837 -0.55846,-1.939646 -4.5,-1.626163 l -4.5,0.3579 0,-3.364195 c 0,-2.656863 0.33258,-3.236573 1.58179,-2.757206 0.86998,0.333844 4.78498,0.606989 8.7,0.606989 5.53638,0 6.85154,0.266667 5.91821,1.2 -1.48099,1.480986 -1.57687,7.023127 -0.14626,8.453738 0.73832,0.738318 -0.49972,1.722017 -4.13596,3.286285 -6.7075,2.885488 -14.26916,3.515073 -19.41778,1.616727 z M 118.61215,57.568347 C 119.03532,56.465584 113.25352,43.489103 106.21743,29.75 106.00617,29.3375 108.37616,29 111.48405,29 c 5.05692,0 5.5886,0.195751 5.05949,1.862803 -0.34641,1.091441 0.95593,5.295811 3.14507,10.153353 l 3.73631,8.29055 3.80715,-8.303892 c 2.22754,-4.858554 3.5636,-9.071246 3.22015,-10.153353 C 129.9281,29.1981 130.47468,29 135.55506,29 c 5.00718,0 5.53666,0.184558 4.41317,1.538286 -0.70217,0.846057 -3.86049,7.102841 -7.01849,13.903964 -4.16328,8.966115 -5.44049,12.667 -4.64578,13.461714 C 129.09868,58.698679 127.84159,59 123.73138,59 c -4.50765,0 -5.5561,-0.29321 -5.11923,-1.431653 z M 142.8,57.8 c 0.80635,-0.806349 1.2,-5.333333 1.2,-13.8 0,-8.466667 -0.39365,-12.993651 -1.2,-13.8 -0.93333,-0.933333 -0.1,-1.200143 3.75,-1.200646 l 4.95,-6.45e-4 0,14.999678 0,14.999679 -4.95,9.67e-4 c -3.85,7.52e-4 -4.68333,-0.2657 -3.75,-1.199033 z m 14.7,-13.801613 0,-14.999678 4.75,6.45e-4 c 4.41375,6e-4 6.05638,1.075226 3.78722,2.477642 C 165.09781,32.057583 164.79742,41 165.71733,41 167.28299,41 177.00526,31.45608 176.57685,30.339681 176.17988,29.305194 177.53639,29 182.53138,29 c 3.55774,0 6.46555,0.3375 6.46179,0.75 -0.004,0.4125 -1.46626,1.760635 -3.25,2.995856 -1.78374,1.235221 -4.97946,3.72353 -7.10159,5.529576 l -3.85841,3.28372 6.21385,7.437276 c 3.41761,4.090501 6.9539,8.00038 7.85841,8.68862 1.37223,1.044121 0.59979,1.256612 -4.66445,1.283149 -3.46996,0.01749 -6.06054,-0.370242 -5.75684,-0.86163 C 179.00419,57.184204 170.31884,46 169.03251,46 c -2.98147,0 -5.05573,8.817076 -2.76424,11.75 0.75209,0.962618 -0.14358,1.249778 -3.89583,1.249033 l -4.87244,-9.67e-4 0,-14.999679 z M 192.8,57.8 c 1.51498,-1.514978 1.70367,-26.8 0.2,-26.8 -0.55,0 -1,-0.45 -1,-1 0,-0.55 2.1375,-1.000291 4.75,-1.000646 l 4.75,-6.45e-4 0,14.999678 0,14.999679 -4.95,9.67e-4 c -3.85,7.52e-4 -4.68333,-0.2657 -3.75,-1.199033 z m 14.7,-13.801613 0,-14.999678 4.50589,6.45e-4 c 3.95359,5.67e-4 4.65511,0.337757 5.7233,2.750971 0.66958,1.512679 4.37943,5.88811 8.24411,9.72318 L 233,48.446361 233,39.92318 c 0,-5.295807 -0.45439,-8.97757 -1.2,-9.72318 -0.93333,-0.933333 0,-1.2 4.2,-1.2 4.2,0 5.13333,0.266667 4.2,1.2 -1.66263,1.662631 -1.66263,25.937369 0,27.6 0.93333,0.933333 0.0607,1.2 -3.92668,1.2 -3.5136,0 -5.2284,-0.430537 -5.45,-1.368334 -0.17782,-0.752583 -3.84339,-5.099543 -8.14569,-9.65991 l -7.82238,-8.291576 0.32238,9.662152 0.32237,9.662153 -4,-0.0032 -4,-0.0032 0,-14.999679 z"
     style="fill:#efb02d"
     clip-path="url(#clipPath4169)" />
  <path
     inkscape:connector-curvature="0"
     id="path4140"
     d="M 33.275759,90.030488 C 23.113161,81.938907 14.332476,66.951755 12.118196,53.918087 11.503188,50.298035 11,41.869108 11,35.187139 11,21.339305 9.7898388,22.898258 22,21.016728 c 12.527336,-1.930404 38.707112,-0.683584 43.102075,2.052751 2.086019,1.298769 1.75368,26.307149 -0.462543,34.806168 C 61.902485,68.37198 56.440202,77.639257 47.915229,86.25 43.695186,90.5125 39.796662,94 39.251841,94 38.70702,94 36.017783,92.213719 33.275759,90.030488 Z m 8.860452,-1.660987 C 44.526763,86.079207 44.695503,85.552646 43.44093,84.298073 42.296177,83.15332 42,79.261256 42,65.36283 c 0,-10.146928 0.434764,-18.306676 1.035184,-19.428571 1.148331,-2.145678 3.465452,-2.551264 4.550001,-0.796427 0.38677,0.625808 0.677025,9.200409 0.64501,19.054669 -0.04238,13.043552 0.253485,17.812939 1.087746,17.534852 C 50.563928,81.312024 59,69.392192 59,68.046992 59,67.593369 58.2125,67.284722 57.25,67.361111 55.691574,67.484796 55.445265,66.107694 55,54.78146 54.434828,40.405135 53.868528,39.194437 47.296923,38.313 43.848094,37.850415 43.039222,38.134679 41.218715,40.449078 l -2.099964,2.669673 -2.059376,-2.059376 C 34.620348,38.620348 28.37631,38.274726 25.44113,40.416277 c -1.704464,1.243602 -2.002091,3.04195 -2.44113,14.75 -0.460239,12.273397 -0.647039,13.308548 -2.349038,13.017143 -1.422806,-0.243603 -0.731259,1.311217 3,6.744966 2.666971,3.883851 5.213363,7.063811 5.658649,7.06658 C 29.754897,81.997735 30.060599,74.4625 29.988949,65.25 29.823791,44.014705 29.72021,45.321343 31.626748,44.589736 35.505497,43.10132 36,45.417425 36,65.072755 c 0,16.288061 -0.217747,18.949722 -1.614185,19.731208 -1.399807,0.783371 -1.235153,1.254801 1.239782,3.54969 C 37.195279,89.809144 38.684538,91 38.935063,91 c 0.250525,0 1.691041,-1.183724 3.201148,-2.630499 z M 40.693898,36 c 0.759903,-2.013211 1.818805,-3 3.219238,-3 C 45.060911,33 46,32.55 46,32 c 0,-0.55 -0.921723,-1 -2.048274,-1 -1.350677,0 -2.499487,-1.07312 -3.373119,-3.15088 l -1.324846,-3.150879 -1.386247,2.900879 c -0.803552,1.681523 -2.328076,3.0352 -3.626881,3.220431 C 31.173234,31.257012 31.400548,33 34.525,33 c 2.005556,0 2.648432,0.617162 3.125,3 0.33,1.65 0.895093,3 1.255762,3 0.36067,0 1.165331,-1.35 1.788136,-3 z M 132.357,85.019599 C 129.62393,83.90241 127,80.176281 127,77.412352 c 0,-1.178449 0.93266,-3.328321 2.07258,-4.777493 C 130.73974,70.515403 131.98953,70 135.4618,70 c 5.17187,0 8.29129,2.251112 9.12756,6.58685 1.09147,5.65888 -6.39406,10.819254 -12.23236,8.432749 z m 6.42049,-3.576303 c 3.0082,-2.107025 2.8748,-5.96979 -0.27749,-8.035253 -2.31587,-1.517417 -2.68413,-1.517417 -5,0 -2.88298,1.889 -3.23493,5.122391 -0.84501,7.763216 2.0224,2.23473 3.24294,2.288961 6.1225,0.272037 z M 151.5,85.286934 c -3.29514,-0.792585 -3.93418,-2.04395 -4.5025,-8.816719 C 146.47543,70.248609 146.5419,70 148.72729,70 150.83758,70 151,70.427439 151,75.980948 c 0,5.55393 0.17942,6.025979 2.51299,6.611667 4.10786,1.031009 5.70134,-1.151361 5.31854,-7.284085 -0.2968,-4.754867 -0.12202,-5.31135 1.66847,-5.312146 1.8394,-8.18e-4 1.97356,0.555772 1.67069,6.931185 -0.31947,6.725114 -0.42096,6.964025 -3.39922,8.002253 -3.20027,1.11562 -3.96239,1.153049 -7.27147,0.357112 z m 96.85443,0.03915 C 245.01359,84.644366 242.6,81.286955 242.6,77.321421 242.6,72.564338 245.73062,70 251.5382,70 c 3.47227,0 4.72206,0.515403 6.38922,2.634859 5.12186,6.511386 -0.87794,14.465508 -9.57299,12.691226 z m 6.07414,-3.897514 c 2.38079,-2.380786 1.9459,-6.137101 -0.92857,-8.020528 -2.31587,-1.517417 -2.68413,-1.517417 -5,0 -2.88298,1.889 -3.23493,5.122391 -0.84501,7.763216 2.03113,2.244381 4.68567,2.34522 6.77358,0.257312 z M 264,85.124474 c -1.13803,-0.473779 -1.5,-2.374432 -1.5,-7.876204 0,-8.982198 1.33427,-9.402979 7.92182,-2.49827 l 4.53182,4.75 0.0232,-4.75 C 274.99671,70.674393 275.28396,70 277,70 c 1.82222,0 2,0.666667 2,7.5 0,9.262052 -1.21651,9.665642 -8.28911,2.75 l -4.85781,-4.75 0.27266,4.717469 c 0.30278,5.238621 0.0534,5.814224 -2.12574,4.907005 z M 111.829,77.567845 111.5,70.13569 l 7.25233,-0.317845 c 6.36209,-0.278829 7.25204,-0.103029 7.25,1.432155 -0.002,1.457434 -0.93576,1.75 -5.58566,1.75 -6.42675,0 -7.31228,2.284492 -1.08937,2.810365 C 124.28711,76.229499 124.43712,79 119.5,79 c -3.22222,0 -3.5,0.238095 -3.5,3 0,2.292207 -0.45322,3 -1.921,3 -1.69283,0 -1.96007,-0.882731 -2.25,-7.432155 z m 54,-0.07017 c -0.32616,-7.437537 -0.30741,-7.501782 2.171,-7.439227 1.71076,0.04318 3.60494,1.445365 6,4.441555 1.925,2.40815 3.88281,4.405803 4.35069,4.439228 0.46789,0.03342 0.68964,-1.964228 0.4928,-4.439228 -0.31472,-3.957005 -0.1157,-4.500281 1.6493,-4.502328 1.86065,-0.0022 1.98319,0.545469 1.67821,7.5 -0.40094,9.142675 -1.61677,9.596402 -8.00088,2.985811 C 171.78868,78.017568 169.60587,76 169.31942,76 c -0.28644,0 -0.35975,2.025 -0.16291,4.5 0.29331,3.687881 0.055,4.5 -1.3203,4.5 -1.39257,0 -1.7342,-1.276892 -2.00721,-7.502328 z M 185.5,77.5 l 0,-7.5 6.25,0 c 4.91667,0 6.67667,0.426667 8.25,2 2.41418,2.414179 2.62978,7.655854 0.4433,10.777494 C 199.0983,84.697751 197.97634,85 192.1933,85 l -6.6933,0 0,-7.5 z m 9.79821,4.576722 c 2.78586,-1.059184 3.76765,-3.666386 2.58477,-6.864017 C 197.22395,73.431163 196.28014,73 193.03942,73 l -4.02502,0 0.13365,4.25 c 0.0735,2.3375 0.32183,4.5875 0.55182,5 0.56292,1.009622 2.6576,0.944788 5.59834,-0.173278 z M 205.22867,78.75 c 1.68134,-3.4375 3.06771,-6.8125 3.08082,-7.5 0.0137,-0.716924 1.30323,-1.25 3.02384,-1.25 1.65,0 2.72136,0.278643 2.3808,0.619207 -0.34057,0.340564 0.94009,3.715564 2.8459,7.5 L 220.02514,85 217.6292,85 c -1.55493,0 -2.57952,-0.702024 -2.91895,-2 -0.37497,-1.433891 -1.36401,-2 -3.49419,-2 -2.95737,0 -5.79454,2.088185 -4.54072,3.342009 C 207.03724,84.703904 206.17196,85 204.75251,85 l -2.58082,0 3.05698,-6.25 z M 212.28975,77 C 211.85426,75.334674 210,74.05373 210,75.418213 c 0,0.230016 -0.27314,1.130016 -0.60699,2 C 208.96338,78.537821 209.3743,79 210.79939,79 c 1.52104,0 1.88548,-0.48906 1.49036,-2 z M 224.83882,79.001822 225.17764,73 222.08882,73 C 219.81375,73 219,72.538961 219,71.25 c 0,-1.511111 1.02381,-1.75 7.5,-1.75 6.47619,0 7.5,0.238889 7.5,1.75 0,1.288961 -0.81375,1.75 -3.08882,1.75 l -3.08882,0 0.33882,6.001822 c 0.30756,5.448096 0.1543,6.001822 -1.66118,6.001822 -1.81548,0 -1.96874,-0.553726 -1.66118,-6.001822 z m 10.99018,-1.50415 c -0.31625,-7.21157 -0.2418,-7.502237 1.921,-7.5 2.13313,0.0022 2.25,0.391907 2.25,7.502328 0,6.730517 -0.19709,7.5 -1.921,7.5 -1.69472,0 -1.95974,-0.883693 -2.25,-7.502328 z m 22.49068,-18.593914 c -9.7038,-1.25192 -13.92861,-6.54734 -13.10898,-16.430933 0.72726,-8.769788 6.64608,-13.451753 17.02495,-13.467248 3.01522,-0.0045 12.21179,1.761403 13.58809,2.609152 0.17805,0.109676 -0.37374,1.548178 -1.22621,3.196671 l -1.54995,2.997262 -3.73523,-1.904331 c -4.94702,-2.522136 -9.27438,-2.404502 -13.38223,0.36378 -4.44652,2.996507 -5.70236,7.302256 -3.48977,11.964946 C 254.41818,52.401018 257.51593,54 263.61279,54 268.64699,54 272,52.628708 272,50.569852 c 0,-1.640955 -7.56586,-2.603997 -9.02152,-1.14833 -0.63797,0.637971 -0.97929,-0.222111 -0.98081,-2.471522 l -0.002,-3.45 8.68413,0.328628 c 4.77627,0.180746 8.11448,0.680687 7.41826,1.11098 -0.80824,0.49952 -1.16023,2.500276 -0.97365,5.534367 0.26358,4.286142 0.0272,4.890861 -2.41078,6.168263 -4.03051,2.111797 -10.56593,3.013367 -16.39361,2.26152 z M 118.62495,57.534982 C 119.21966,55.985201 108.437,31.735847 106.90008,31.166667 106.40503,30.983333 106,30.420833 106,29.916667 106,29.4125 108.5301,29 111.62244,29 c 4.42368,0 5.39834,0.270036 4.57134,1.266514 -0.7642,0.920803 0.0807,3.831361 3.09534,10.662867 l 4.14646,9.396355 2.39869,-5.412868 C 131.79063,31.47176 131.86036,31.260361 130.71512,30.115117 129.89496,29.294961 131.14871,29 135.45499,29 c 5.51539,0 5.76302,0.101618 4.26944,1.752007 -0.87205,0.963603 -2.90943,4.676103 -4.52751,8.25 -1.61807,3.573896 -4.16525,9.146139 -5.66039,12.382763 -2.18348,4.726719 -2.45456,6.052023 -1.37748,6.734687 0.82766,0.524587 -0.84802,0.855779 -4.37767,0.86523 -4.61555,0.01236 -5.61017,-0.267273 -5.15643,-1.449705 z M 143.5,43.998387 l 0,-14.999678 4,0 4,0 0,14.999678 0,14.999679 -4,0 -4,0 0,-14.999679 z M 157.8,57.8 c 1.51346,-1.513455 1.65194,-24.087026 0.16482,-26.865741 C 157.01512,29.159735 157.28878,29 161.27863,29 l 4.34899,0 -0.434,6 c -0.2387,3.3 -0.10831,6 0.28977,6 1.61317,0 12.13441,-9.646615 11.75679,-10.779463 C 176.94966,29.348993 178.57276,29 182.91667,29 186.2625,29 189,29.352977 189,29.784392 c 0,0.431416 -1.2375,1.534759 -2.75,2.451874 -1.5125,0.917114 -4.76217,3.425482 -7.22149,5.574151 l -4.47149,3.90667 5.37676,6.391456 c 2.95721,3.515302 6.45698,7.403957 7.77725,8.641457 l 2.4005,2.25 -6.02438,0 c -4.38785,0 -5.90468,-0.339564 -5.58373,-1.25 0.24236,-0.6875 -1.75375,-3.721175 -4.43579,-6.741499 l -4.87644,-5.4915 -2.19895,1.990018 c -1.8368,1.662286 -2.12375,2.772527 -1.74238,6.741499 L 165.70641,59 l -4.5532,0 c -3.54139,0 -4.28654,-0.266667 -3.35321,-1.2 z m 34.95,0.537719 c 1.72674,-0.696755 1.77244,-26.415277 0.05,-28.137719 -0.93333,-0.933333 -0.1,-1.200143 3.75,-1.200646 l 4.95,-6.45e-4 0,14.999678 0,14.999679 -5,-0.07798 c -2.75,-0.04289 -4.4375,-0.304954 -3.75,-0.582367 z m 14.75,-14.339332 0,-14.999678 4.85699,6.45e-4 c 3.67996,4.9e-4 4.73074,0.329654 4.33601,1.358289 -0.30757,0.801505 2.95744,4.79545 7.97052,9.75 L 233.15501,48.5 232.82751,38.749225 232.5,28.998451 l 3.5,1.29e-4 3.5,1.29e-4 0,14.999678 0,14.999679 -4.30902,9.67e-4 c -2.36996,5.32e-4 -4.06608,-0.392106 -3.76916,-0.872529 0.52866,-0.85539 -14.96303,-18.124863 -16.26201,-18.128198 C 214.79691,39.997374 214.725,44.273137 215,49.5 l 0.5,9.503388 -4,-0.0027 -4,-0.0027 0,-14.999679 z"
     style="fill:#1a181d" />
</svg>
